<?xml version="1.0" encoding="UTF-8" standalone="no"?>
<svg
   xmlns="http://www.w3.org/2000/svg"
   width="1000"
   height="520"
   preserveAspectRatio="none"
   version="1.0">
  <g transform="matrix(1.266263,0,0,1.350058,-20.699168,-6.966066)">
    <g transform="matrix(1.055449,0,0,1.011534,-56.0384,16.70264)">
      <path
         style="fill:#4B86C2"
         d="M 181.941,358.342 L 71.983,358.342 L 71.983,0.107 L 82.983,0.107 C 82.983,0.107 91.394,156.175 100.983,199.342 C 105.649,220.347 122.34,261.845 181.941,291.892" />
      <path
         style="fill:#CC4320"
         d="M 181.941,358.342 L 781.983,358.342 L 782.983,347.342 C 782.983,347.342 471.983,340.342 306.983,324.342 C 252.072,319.017 211.669,306.879 181.941,291.892 L 181.941,358.342 z" />
    </g>
    <g transform="matrix(1.055449,0,0,1.011534,-56.0384,16.70264)">
      <polyline
         style="fill:none;stroke:black;stroke-width:3"
         points="71.983,0.107 71.983,358.342 781.983,358.342" />
      <path
         style="fill:none;stroke:#909090;stroke-width:4"
         d="M 82.983,0.107 C 82.983,0.107 91.394,156.175 100.983,199.342 C 107.976,230.823 141.983,308.342 306.983,324.342 C 471.983,340.342 782.983,347.342 782.983,347.342" />
    </g>
  </g>
</svg>
