<?xml version="1.0" encoding="utf-8"?>
<svg version="1.1" xmlns="http://www.w3.org/2000/svg" xmlns:xlink="http://www.w3.org/1999/xlink" x="0px" y="0px" width="1280px"
	 height="460px" viewBox="0 0 1280 460" enable-background="new 0 0 1280 460" xml:space="preserve">
<g id="Knowledge">
	<g>
		<g>
			<path fill="#ABABAB" d="M60.21,298.07c9.72,8.73,21.48,15.09,33.33,20.41c15.81,7.1,32.44,12.39,49.35,16.17
				c37.94,8.49,78.64,9.91,116.26-0.91c32.53-9.36,65.64-28.82,79.79-60.89c12.36-28.02,12.08-60.35,7.45-90.07
				c-5.39-34.55-17.28-68.31-33.73-99.13c-13.79-25.84-31.49-51.8-55.56-69.13c-13.5-9.71-34.04-19.44-49.86-9.38
				c-13.91,8.85-21.27,26.37-26.58,41.23c-8.49,23.79-12.97,49-16.2,73.98c-3.81,29.43-5.53,59.13-5.75,88.79
				c-0.22,29.18,0.99,58.45,4.36,87.45c2.61,22.4,6.14,45.24,13.85,66.53c4.02,11.12,10.48,27.35,23.29,30.81
				c6.88,1.86,14.82-0.8,21.13-3.41c10.44-4.33,19.95-10.75,28.88-17.61c24.83-19.08,46.31-42.66,65.74-67.11
				c21.2-26.68,40.34-55.3,55.58-85.81c12.14-24.31,23.68-51.74,23.73-79.38c0.02-9.84-1.73-19.97-6.86-28.51
				c-4.84-8.05-12.26-14.28-20.13-19.24c-22.54-14.24-50.04-20.63-76-25.09c-32.49-5.59-65.62-7.63-98.56-7.45
				c-31.84,0.18-63.89,2.38-95.24,8.12c-20.88,3.82-44.85,8.64-62.28,21.62c-4.44,3.3-9.1,7.55-9.93,13.31
				c-0.75,5.22,1.38,10.45,3.92,14.89c8.62,15.07,23.45,26.86,36.95,37.31c44.25,34.22,95.1,60.89,146.22,83.22
				c26.07,11.39,52.75,21.63,80.14,29.36c21.01,5.93,43.17,11.05,65.15,10.49c13.59-0.35,29.84-3.25,37.61-15.76
				c10.12-16.31,3.65-39.13-3.41-55.21c-11.74-26.75-30.9-50.22-50.77-71.33c-23.07-24.52-48.77-46.63-76-66.41
				c-24.77-18-51.13-34.57-79.46-46.4c-16.99-7.09-39.61-15.64-58.1-9.19c-12.02,4.2-13.38,16.42-11.48,27.54
				c3.24,18.94,13.02,37.01,22.41,53.51c28.05,49.28,64.24,94.54,102.45,136.26c18,19.66,36.84,38.72,57.22,55.93
				c13.85,11.69,29.11,24.23,46.43,30.36c8.11,2.87,21.48,4.15,24.61-6.54c2.89-9.86-10.64-17.47-17.47-21.23
				c-16.96-9.35-35.92-15.33-54.43-20.74c-25.48-7.44-51.44-13.26-77.53-18.13c-27.13-5.06-54.49-9.07-81.97-11.68
				c-24.06-2.29-48.41-3.72-72.57-2.25c-14.61,0.89-32.3,2.05-44.85,10.52c-9.95,6.72-10.16,17.54-3.85,27.08
				c9.96,15.06,29.66,21.18,46.41,24.56c26.46,5.34,54.02,5.18,80.84,3.43c62.11-4.07,125.3-17.23,183.23-40.16
				c21.7-8.59,43.94-18.72,61.86-33.96c10.54-8.96,21.85-22.52,17.81-37.4c-3.97-14.65-19.58-24.16-32.11-30.7
				c-21.58-11.25-45.39-18.28-68.93-24.06c-58.06-14.26-118.71-21.02-178.46-21.2c-24.81-0.07-49.94,0.93-74.38,5.54
				c-14.25,2.69-32.85,6.51-42.71,18.28c-10.03,11.97-1.87,30.66,3.96,42.67c12.4,25.57,31.01,48.3,49.83,69.37
				c22.86,25.58,47.87,49.33,74.43,71.05c23.7,19.38,48.9,37.9,76.5,51.37c15.14,7.39,37.52,17.65,54.5,10.18
				c13.36-5.88,16.98-24.37,18.83-37.15c3.48-24.12,2.04-48.97-0.34-73.11c-3.02-30.7-8.31-61.19-15.01-91.3
				c-6.68-29.98-14.79-59.7-24.96-88.68c-8.08-23.04-17.24-46.41-30.46-67.05c-6.63-10.35-17.08-25.64-31.01-25.73
				c-16.06-0.1-29.18,17.31-37.56,28.85c-16.07,22.14-28.09,47.3-38.78,72.38c-12.8,30.03-23.51,60.99-32.28,92.43
				c-7.91,28.38-14.49,57.38-17.44,86.73c-1.84,18.39-3.93,41.14,4.83,58.25c6.2,12.12,17.96,13.08,30,9.75
				c19.21-5.31,36.83-17.13,52.92-28.49c48.03-33.91,91.11-76.02,129.32-120.56c18.08-21.07,35.31-43.15,49.74-66.9
				c10.03-16.51,20.31-35.14,22.46-54.69c4.85-44.05-53.26-39.9-81.59-34.76c-30.37,5.51-59.9,15.76-88.32,27.64
				c-30.4,12.71-59.92,27.69-87.98,44.98c-24.12,14.87-47.97,31.47-67.74,51.92c-11.45,11.84-25.86,28.55-24.41,46.33
				c1.14,13.95,14.48,18.91,26.66,20.04c20.43,1.9,41.71-3.11,61.28-8.42c26.37-7.15,52.07-16.86,77.02-27.95
				c24.33-10.82,48.2-23.06,70.53-37.6c14.35-9.34,70.51-46.48,39.75-66.85c-6.09-4.03-13.67-3.26-20.45-1.64
				c-10.91,2.6-21.27,7.71-31.04,13.1c-26.67,14.71-51.19,33.77-73.61,54.28c-20.62,18.86-41.86,40.21-54.61,65.43
				c-7.36,14.56-11.36,33.42,5.5,42.8c8.73,4.86,19.21,6.31,29.04,6.92c13.62,0.85,27.35-0.24,40.85-2.07
				c31.52-4.28,62.75-12.84,92.14-25c22.52-9.33,48.76-21.38,63.51-41.74c4.81-6.64,7.81-14.54,6.36-22.8
				c-1.66-9.39-8-17.4-14.75-23.79c-20.39-19.31-48.66-30.65-75.11-38.73c-29.76-9.1-61.81-14.69-93-12.3
				c-22.38,1.72-49.51,8.38-60.37,30.36c-13.56,27.45-1.96,60.22,11.94,85.06c16.71,29.88,40.53,56.84,67.74,77.58
				c9.97,7.6,20.88,14.89,32.87,18.87c6.85,2.27,14.44,3.55,20.62-0.93c6.39-4.63,10.48-12.27,13.75-19.25
				c4.95-10.6,8.42-21.89,11.26-33.23c7.06-28.21,10.4-57.59,10.52-86.66c0.11-26.3-1.85-54.65-12.9-78.91
				c-3.97-8.71-9.5-17.05-17.43-22.62c-10.11-7.11-23.15-7.6-35.04-6.08c-36.59,4.66-66.7,32.71-86.91,61.84
				c-10.14,14.62-18.56,30.67-24.06,47.63c-4.03,12.4-7.78,27.67-4.7,40.72c1.88,7.96,8.37,13.91,14.91,18.28
				c9.63,6.42,20.82,10.53,31.84,13.84c28.84,8.66,59.4,12.19,89.4,13.48c27.28,1.17,55.89,1,82.54-5.65
				c8.47-2.11,32.84-9.23,25.8-22.71c-2.84-5.44-9-9.08-14.12-12.02c-8.55-4.91-17.7-8.77-26.82-12.48
				c-24.75-10.05-50.11-18.55-75.07-28.08c-23.94-9.13-48.55-18.64-70.03-32.85c-12.32-8.15-29.33-21.99-22.45-38.79
				c3.18-7.77,10.12-14.94,18.12-17.69c7.96-2.74,16.53-1.06,24.08,2.18c22.05,9.46,39.55,29.67,54.14,48.03
				c17.97,22.62,33.42,47.42,46.47,73.18c5.79,11.42,11.12,23.12,15.48,35.16c3.18,8.78,6.18,17.99,7.06,27.33
				c0.41,4.41,0.91,11.49-3.55,14.17c-5.49,3.3-11.75-1.23-15.41-5.14c-6.67-7.12-10.78-16.69-13.79-25.84
				c-3.98-12.09-6.09-24.8-6.52-37.51c-0.94-28.06,6.76-57.26,26.93-77.64c12.22-12.35,27.1-19.1,43.37-24.41
				c11.89-3.87,20.21-13.92,25.04-25.11c10.99-25.48,5.91-59.01-18.29-75.05c-7.87-5.21-18.48-10.1-28.12-7.64
				c-6.86,1.75-12.95,6.04-18.33,10.49c-17.07,14.1-30.39,33.01-42.55,51.3c-16.77,25.2-31.48,51.78-45.06,78.81
				c-14.01,27.89-26.79,56.42-38.08,85.52c-9.66,24.92-18.55,50.41-24.24,76.57c-2.02,9.31-3.69,18.8-4.07,28.33
				c-0.24,6.23-0.09,13.01,2.41,18.84c3.69,8.6,12.25,10.66,17.41,2.31c3.15-5.1,4.76-11.25,6.12-17.03
				c2.05-8.73,3.31-17.65,4.32-26.56c2.79-24.61,3.46-49.47,3.33-74.22c-0.15-27.95-1.48-55.91-4.18-83.73
				c-2.43-25.05-5.77-50.2-11.89-74.64c-3.81-15.24-8.46-33.47-19.59-45.24c-8.27-8.75-20.28-8.15-28.02,1.21
				c-10.81,13.06-7.3,34.11-4.02,49.19c5.8,26.63,16.83,52.19,28.8,76.56c13.68,27.87,29.47,54.76,46.99,80.38
				c14.97,21.89,31.21,43.55,50.52,61.82c9.32,8.81,24.46,23.35,38.8,20.31c3.85-0.81,8.63-3.07,7.69-7.77
				c-1.01-5.05-7.02-9.06-10.82-11.87c-18.64-13.78-40.24-23.97-60.71-34.67c-26.94-14.08-54.05-27.92-80.22-43.41
				c-11.32-6.7-22.51-13.7-33.09-21.54c-8.17-6.05-16.54-12.72-22.59-21c-3.38-4.62-6.9-10.9-4.45-16.69
				c2.42-5.74,8.87-9.24,14.21-11.72c19.77-9.16,43.25-11.33,64.7-12.76c29.27-1.95,58.8-1,87.93,2.37
				c27.57,3.19,55.5,8.47,81.36,18.82c17.75,7.1,39.21,18.18,46.1,37.44c7.05,19.72-3.23,41.42-17.74,54.76
				c-16.1,14.81-38.47,23.22-60.23,23.91c-20.52,0.65-42.09-6.44-53.06-24.89c-6.41-10.79-8.29-23.57-7.83-35.94
				c0.62-16.52,4.49-35.05,12.35-49.68c5.69-10.6,14.72-17.84,26.97-18.65c13.51-0.9,27.18,3.99,39.61,8.72
				c17.92,6.83,35.29,15.07,52.88,22.69c21.12,9.16,42.51,17.67,64.48,24.58c1.85,0.58,2.64-2.31,0.8-2.89
				c-23.83-7.5-46.96-16.89-69.82-26.92c-17.3-7.59-34.45-15.7-52.24-22.1c-12.16-4.37-25.65-8.57-38.72-6.78
				c-11.65,1.59-20.46,8.93-26.09,19.02c-7.67,13.73-11.4,30.73-12.83,46.29c-1.12,12.12-0.29,24.73,4.36,36.1
				c7.56,18.47,24.63,29.63,43.97,32.57c37.82,5.77,88.15-15.73,96.96-56.2c9.97-45.82-43.77-65.45-78.7-74.4
				c-27.19-6.97-55.28-10.52-83.28-12.03c-26.86-1.45-54.02-1.06-80.7,2.55c-16.94,2.29-37.33,5.2-51.37,15.89
				c-4.1,3.12-7.69,7.43-7.89,12.81c-0.24,6.52,3.92,12.67,7.88,17.47c14.28,17.32,35.51,29.52,54.56,40.79
				c25.36,15.01,51.61,28.47,77.72,42.1c20.46,10.69,41.69,20.93,60.68,34.16c3.44,2.4,11.25,6.93,11.93,11.69
				c0.51,3.59-5.63,4.56-8.4,4.53c-6.5-0.07-12.78-3.85-17.98-7.39c-8.27-5.62-15.59-12.63-22.5-19.82
				c-18.78-19.58-34.88-41.77-49.72-64.42c-16.63-25.4-31.67-51.92-44.52-79.43c-10.76-23.04-20.69-47.3-25.1-72.46
				c-2.41-13.73-4.72-35.23,9.1-44.12c10.64-6.85,19.42,1.52,24.75,10.65c9.48,16.25,13.64,35.86,17.19,54.12
				c4.91,25.24,7.71,50.89,9.57,76.52c1.96,27.06,2.78,54.22,2.35,81.34c-0.35,22.34-1.32,44.85-4.66,66.96
				c-1.16,7.7-2.57,15.46-5.01,22.88c-1.25,3.79-2.9,9.14-6.37,11.58c-8.39,5.89-11.35-13.04-11.49-17.56
				c-0.61-19.85,5.21-40.17,10.79-59.01c8.02-27.09,18.19-53.56,29.3-79.51c22.82-53.28,49.37-106.78,84.18-153.35
				c10.78-14.42,23.43-31.04,39.91-39.33c6.79-3.42,12.46-3.37,19.62-0.92c15.49,5.3,27.16,17.39,31.91,33.04
				c7.36,24.27-0.59,60.01-27.65,68.14c-28.63,8.6-51.72,27.62-62.81,55.71c-9.35,23.66-9.97,50.62-4.41,75.26
				c2.29,10.14,5.67,20.25,10.87,29.28c3.52,6.11,8.31,12.85,15.09,15.61c4.52,1.84,10.4,1.39,13.5-2.76
				c3.24-4.33,2.85-10.75,2.25-15.81c-2.43-20.7-12.07-41-21.22-59.46c-12.33-24.87-26.97-48.76-43.79-70.85
				c-14.41-18.93-30.92-38.34-51.66-50.57c-14.06-8.29-31.41-12.07-44.69-0.25c-11.99,10.68-15.02,25.9-5.06,38.94
				c12.18,15.95,32.78,25.5,50.53,33.65c24.36,11.18,49.67,20.2,74.83,29.38c21.21,7.74,43.17,14.93,63.11,25.69
				c5.29,2.85,12.01,6.31,15.23,11.65c2.71,4.5-0.26,8.38-4.03,11.14c-7.04,5.15-16.34,7.35-24.72,9.09
				c-12.83,2.67-25.96,3.83-39.04,4.4c-30.26,1.34-60.88-0.48-90.76-5.44c-13.59-2.26-27.13-5.19-40.23-9.5
				c-10.43-3.43-21.21-7.7-29.87-14.63c-7.33-5.86-10.53-12.48-10.67-21.84c-0.23-15.62,4.69-31.28,10.89-45.45
				c14.71-33.66,40.05-66.14,73.08-83.32c15.08-7.84,33.17-12.57,50.18-9.43c9.16,1.69,16.69,7.36,22.16,14.74
				c14.51,19.55,17.77,46.96,19.09,70.52c1.63,28.97-0.62,58.32-5.98,86.82c-2.38,12.67-5.41,25.27-9.63,37.46
				c-3.08,8.88-6.74,18.01-12.41,25.6c-3.99,5.34-8.6,8.98-15.5,8.34c-10.95-1.01-21.48-7.39-30.44-13.3
				c-27.76-18.31-51.71-44.17-69.69-72c-15.96-24.69-31.51-57.78-21.47-87.6c8.3-24.64,34.91-32.74,58.44-34.82
				c30.67-2.72,62.17,2.58,91.53,11.28c26.41,7.83,54.59,18.86,75.22,37.72c6.8,6.22,13.47,14.07,15.04,23.46
				c1.48,8.86-2.95,17.11-8.56,23.64c-16.77,19.54-43.27,31.15-66.73,40.22c-29.08,11.23-59.86,19.31-90.88,22.77
				c-12.69,1.42-25.6,2.1-38.34,0.83c-8.97-0.9-19.07-2.69-26.4-8.35c-15.88-12.27-2.33-35.77,5.93-48.35
				c15.99-24.36,37.65-45.25,59.75-64.02c21.95-18.65,45.84-36.43,72.04-48.68c11.79-5.51,32.71-14.88,42.08-0.48
				c7.12,10.93-5.41,24.41-12.61,31.53c-15.42,15.25-34.38,27.03-53.13,37.69c-23.64,13.44-48.36,25.04-73.65,35.01
				c-23.47,9.26-47.63,17.36-72.39,22.4c-16.18,3.29-36.1,7.1-52.13,1.06c-13.71-5.17-14.01-19-8.74-30.92
				c8.8-19.93,27.16-35.72,43.8-49.01c24-19.17,50.45-35.33,77.55-49.71c28.45-15.09,58.02-28.26,88.5-38.65
				c25.66-8.75,52.66-16.28,79.9-17.37c15.28-0.61,37.78,0.29,47.33,14.64c8.28,12.44,2.51,30.16-2.49,42.67
				c-8.68,21.7-22.02,41.61-35.79,60.36c-34.67,47.2-76.26,90.11-120.93,127.9c-19.07,16.13-39.02,31.65-60.67,44.19
				c-12.01,6.95-28.36,16.64-42.95,14.49c-14.23-2.09-16.8-21.25-17.67-32.71c-1.86-24.71,2.28-49.97,7.15-74.11
				c6.17-30.58,14.76-60.7,24.93-90.19c9.93-28.8,21.39-57.23,35.49-84.26c10.04-19.24,21.52-40.1,38.3-54.37
				c4.9-4.17,11.07-8.28,17.74-8.37c5.82-0.08,11,3.45,15.12,7.23c14.01,12.86,22.75,31.86,30.3,48.93
				c11.37,25.7,20.08,52.6,27.59,79.65c15.52,55.88,27.42,114.66,28.02,172.84c0.19,18.42,0.09,39.58-8.06,56.58
				c-2.49,5.19-6.1,10.21-11.65,12.36c-7.67,2.97-16.69,1.67-24.44-0.24c-24.66-6.07-47.41-20.65-68.04-34.95
				c-27.43-19-52.99-40.76-76.94-63.96c-22.58-21.87-44.12-45.23-62.37-70.88c-7.3-10.25-14.15-20.94-19.53-32.34
				c-3.82-8.09-7.3-17.05-7.5-26.11c-0.29-13.51,13.05-19.92,24.15-23.77c20.02-6.94,41.82-8.9,62.84-10.04
				c57.58-3.11,116.21,2.13,172.85,12.56c26.25,4.83,52.46,10.92,77.61,19.94c17.3,6.2,36.38,13.82,49.51,27.19
				c29.01,29.53-21,58.46-43.54,69.62c-25.47,12.61-52.66,21.76-80.02,29.29c-30.21,8.32-61.06,14.56-92.14,18.58
				c-28.62,3.7-57.72,5.73-86.57,3.91c-20.62-1.3-43.49-4.07-61.44-15.16c-8.54-5.28-21.75-18.14-15.2-29.34
				c6.08-10.38,23.1-12.59,33.7-14.04c21.4-2.93,43.34-2.29,64.83-0.97c26.58,1.64,53.06,4.88,79.34,9.1
				c26.25,4.22,52.37,9.43,78.16,15.92c21.19,5.33,42.42,11.35,62.61,19.78c7,2.92,13.96,6.16,20.34,10.3
				c3.8,2.47,8.35,5.6,10.28,9.9c4.1,9.11-8.36,12.1-14.76,10.83c-15.66-3.1-30.11-14.6-42.3-24.25
				c-19.65-15.56-37.68-33.18-54.94-51.33c-38.65-40.65-74.57-84.97-104.13-132.71c-10.97-17.72-21.74-36.37-28.01-56.35
				c-2.95-9.41-7.4-25.73,2.54-32.75c5.74-4.06,14.09-4.22,20.8-3.76c10.49,0.72,20.82,3.74,30.65,7.33
				c27.27,9.93,52.67,25.21,76.49,41.6c27.25,18.75,52.94,39.94,76.38,63.3c21.08,21,41.16,44.08,55.33,70.41
				c9.19,17.08,18.67,40.56,10.55,59.88c-5.54,13.19-21,16.82-33.91,17.51c-21.25,1.15-42.8-3.63-63.18-9.17
				c-26.39-7.16-52.12-16.76-77.25-27.5c-50.49-21.56-100.29-47.52-144.65-80.06c-14.81-10.86-30.56-22.89-41.14-38.15
				c-2.96-4.27-5.96-9.32-6.15-14.66c-0.2-5.35,3.43-9.18,7.35-12.38c7.09-5.79,15.91-9.49,24.46-12.52
				c11.59-4.11,23.61-6.97,35.67-9.27c30.15-5.75,60.99-8.03,91.65-8.46c32.81-0.46,65.81,1.29,98.23,6.46
				c25.9,4.13,52.97,10.06,76.03,23.08c8.49,4.8,16.78,10.85,22.25,19.06c5.49,8.23,7.42,18.15,7.48,27.92
				c0.19,26.98-11.08,53.91-22.85,77.65c-15.03,30.3-33.92,58.77-54.88,85.27c-18.92,23.91-39.79,46.94-63.76,65.91
				c-8.99,7.11-18.62,13.83-29.14,18.45c-6.08,2.67-14.2,5.77-20.91,3.8c-12.49-3.68-18.45-21.18-22.08-32.02
				c-7.18-21.46-10.61-44.22-13.04-66.64c-3.06-28.24-4.14-56.7-3.86-85.1c0.28-28.71,1.97-57.45,5.61-85.94
				c3.14-24.57,7.57-49.35,15.75-72.79c5.08-14.55,12.22-32.45,26-40.96c16.35-10.1,37.86,2.49,50.78,12.86
				c23.36,18.74,40.44,45.17,53.75,71.66c15.48,30.81,26.59,64.45,30.88,98.73c3.66,29.21,2.77,61.4-11.72,87.8
				c-17.48,31.84-55.4,49.19-89.59,55.93c-35.11,6.92-71.99,4.25-106.55-4.41c-25.73-6.45-54.21-16.07-74.32-34.14
				C60.9,294.67,58.77,296.78,60.21,298.07L60.21,298.07z"/>
		</g>
	</g>
	<g>
		<path fill="#737373" d="M66.8,439.89h-5.69v-26.71l5.69-0.61V439.89z M72.81,429.16l6.26,10.73h-6.41l-5.69-10.44l5.83-8.67h5.79
			L72.81,429.16z"/>
		<path fill="#737373" d="M98.37,425.92v13.97h-5.69v-12.99c0-2.02-0.68-2.56-1.8-2.56c-1.26,0-2.3,0.9-3.31,2.48v13.07h-5.69
			v-19.11h4.97l0.4,2.27c1.62-1.87,3.46-2.88,5.83-2.88C96.39,420.16,98.37,422.29,98.37,425.92z"/>
		<path fill="#737373" d="M121.19,430.35c0,6.12-3.53,10.15-9.36,10.15c-5.79,0-9.36-3.74-9.36-10.19c0-6.12,3.53-10.15,9.36-10.15
			S121.19,423.91,121.19,430.35z M108.38,430.31c0,4.25,1.15,6.01,3.46,6.01s3.46-1.84,3.46-5.98c0-4.25-1.15-6.01-3.46-6.01
			S108.38,426.17,108.38,430.31z"/>
		<path fill="#737373" d="M145.71,439.89h-6.8l-2.56-14.04l-2.52,14.04h-6.73l-4.07-19.11h5.76l1.98,14.87l2.99-14.87h5.54
			l2.63,14.87l2.3-14.87h5.43L145.71,439.89z"/>
		<path fill="#737373" d="M152.8,435.03v-21.85l5.69-0.61v22.25c0,0.79,0.29,1.19,0.97,1.19c0.4,0,0.68-0.07,0.94-0.18l1.12,4.03
			c-0.86,0.36-2.09,0.65-3.46,0.65C154.75,440.5,152.8,438.52,152.8,435.03z"/>
		<path fill="#737373" d="M180.77,432.01h-11.81c0.36,3.42,1.98,4.36,4.32,4.36c1.55,0,2.92-0.54,4.57-1.69l2.34,3.17
			c-1.91,1.51-4.36,2.66-7.45,2.66c-6.37,0-9.61-4.1-9.61-10.08c0-5.72,3.13-10.26,8.93-10.26c5.47,0,8.82,3.6,8.82,9.79
			C180.88,430.57,180.84,431.43,180.77,432.01z M175.3,428.33c-0.04-2.59-0.83-4.39-3.1-4.39c-1.91,0-2.99,1.19-3.28,4.64h6.37
			V428.33z"/>
		<path fill="#737373" d="M202.19,413.18v26.71h-5.04l-0.29-2.23c-1.08,1.58-2.84,2.84-5.44,2.84c-4.86,0-7.27-4.03-7.27-10.22
			c0-5.9,2.99-10.12,7.92-10.12c1.73,0,3.28,0.68,4.43,1.8v-9.39L202.19,413.18z M196.51,434.2v-8.28
			c-0.86-1.01-1.73-1.62-2.95-1.62c-2.05,0-3.49,1.73-3.49,6.01c0,4.75,1.3,6.01,3.17,6.01
			C194.56,436.33,195.61,435.61,196.51,434.2z"/>
		<path fill="#737373" d="M225.16,421.89c-1.33,0.54-3.1,0.76-5.51,0.76c2.41,1.04,3.6,2.45,3.6,4.93c0,3.71-3.06,6.41-8.03,6.41
			c-0.79,0-1.51-0.07-2.2-0.22c-0.4,0.22-0.61,0.65-0.61,1.08c0,0.58,0.25,1.15,2.09,1.15h2.88c4.46,0,7.31,2.34,7.31,5.54
			c0,3.92-3.46,6.33-10.01,6.33c-7.23,0-9.14-2.38-9.14-6.16h5.11c0,1.66,0.72,2.38,4.18,2.38c3.35,0,4.14-0.94,4.14-2.16
			c0-1.12-0.83-1.87-2.74-1.87h-2.77c-4.17,0-5.87-1.73-5.87-3.78c0-1.4,0.9-2.81,2.27-3.67c-2.45-1.3-3.42-2.99-3.42-5.47
			c0-4.32,3.38-6.98,8.39-6.98c4.25,0.11,6.7-1.12,9-2.48L225.16,421.89z M212.09,427.07c0,2.09,1.15,3.24,2.88,3.24
			c1.87,0,2.88-1.12,2.88-3.31c0-2.12-0.97-3.1-2.88-3.1C213.21,423.91,212.09,425.09,212.09,427.07z"/>
		<path fill="#737373" d="M244.49,432.01h-11.81c0.36,3.42,1.98,4.36,4.32,4.36c1.55,0,2.92-0.54,4.57-1.69l2.34,3.17
			c-1.91,1.51-4.36,2.66-7.45,2.66c-6.37,0-9.61-4.1-9.61-10.08c0-5.72,3.13-10.26,8.93-10.26c5.47,0,8.82,3.6,8.82,9.79
			C244.6,430.57,244.56,431.43,244.49,432.01z M239.02,428.33c-0.04-2.59-0.83-4.39-3.1-4.39c-1.91,0-2.99,1.19-3.28,4.64h6.37
			V428.33z"/>
		<path fill="#737373" d="M275.81,421.89c-1.33,0.54-3.1,0.76-5.51,0.76c2.41,1.04,3.6,2.45,3.6,4.93c0,3.71-3.06,6.41-8.03,6.41
			c-0.79,0-1.51-0.07-2.2-0.22c-0.4,0.22-0.61,0.65-0.61,1.08c0,0.58,0.25,1.15,2.09,1.15h2.88c4.46,0,7.31,2.34,7.31,5.54
			c0,3.92-3.46,6.33-10.01,6.33c-7.23,0-9.14-2.38-9.14-6.16h5.11c0,1.66,0.72,2.38,4.18,2.38c3.35,0,4.14-0.94,4.14-2.16
			c0-1.12-0.83-1.87-2.74-1.87h-2.77c-4.17,0-5.87-1.73-5.87-3.78c0-1.4,0.9-2.81,2.27-3.67c-2.45-1.3-3.42-2.99-3.42-5.47
			c0-4.32,3.38-6.98,8.39-6.98c4.25,0.11,6.7-1.12,9-2.48L275.81,421.89z M262.75,427.07c0,2.09,1.15,3.24,2.88,3.24
			c1.87,0,2.88-1.12,2.88-3.31c0-2.12-0.97-3.1-2.88-3.1C263.86,423.91,262.75,425.09,262.75,427.07z"/>
		<path fill="#737373" d="M291.22,420.49l-0.9,5.51c-0.61-0.14-1.08-0.25-1.73-0.25c-2.34,0-3.35,1.73-3.96,4.61v9.54h-5.69v-19.11
			h4.97l0.47,3.67c0.86-2.63,2.74-4.21,4.93-4.21C290.03,420.24,290.61,420.31,291.22,420.49z"/>
		<path fill="#737373" d="M310.05,436.69l-1.19,3.71c-2.23-0.18-3.71-0.86-4.61-2.74c-1.37,2.09-3.49,2.84-5.76,2.84
			c-3.82,0-6.23-2.48-6.23-5.98c0-4.18,3.17-6.44,8.96-6.44h1.94v-0.83c0-2.27-0.9-2.95-3.24-2.95c-1.22,0-3.1,0.36-5,1.01
			l-1.3-3.74c2.41-0.9,5.04-1.4,7.2-1.4c5.54,0,7.92,2.34,7.92,6.77v7.42C308.75,435.82,309.15,436.36,310.05,436.69z
			 M303.17,434.63v-3.42h-1.4c-2.59,0-3.85,0.9-3.85,2.81c0,1.51,0.83,2.41,2.23,2.41C301.44,436.43,302.49,435.75,303.17,434.63z"
			/>
		<path fill="#737373" d="M332.11,430.28c0,5.9-2.88,10.22-7.59,10.22c-1.87,0-3.46-0.65-4.64-2.02v8.78l-5.69,0.61v-27.1h5
			l0.29,2.12c1.58-1.98,3.63-2.74,5.4-2.74C329.92,420.16,332.11,424.09,332.11,430.28z M326.21,430.35c0-4.75-1.15-6.01-3.13-6.01
			c-1.22,0-2.38,0.83-3.2,2.23v8.06c0.79,1.15,1.73,1.69,2.92,1.69C324.92,436.33,326.21,434.63,326.21,430.35z"/>
		<path fill="#737373" d="M353.07,425.92v13.97h-5.69v-12.99c0-2.02-0.72-2.56-1.8-2.56c-1.26,0-2.3,0.9-3.31,2.45v13.1h-5.69
			v-26.71l5.69-0.58v10.19c1.55-1.73,3.28-2.63,5.51-2.63C351.09,420.16,353.07,422.29,353.07,425.92z"/>
	</g>
</g>
<g id="Annotations">
	<circle fill="none" stroke="#C45814" stroke-width="8" cx="295.5" cy="173.5" r="26.5"/>
	<circle fill="none" stroke="#C45814" stroke-width="8" cx="94" cy="229" r="44"/>
	<circle fill="none" stroke="#C45814" stroke-width="8" cx="230" cy="66" r="39"/>
</g>
<g id="Browser">
	<g>
		<g>
			<path fill="#F5F4F8" d="M1280.27,450.19c0,5.4-4.41,9.81-9.81,9.81H883.5c-5.4,0-9.81-4.42-9.81-9.81V9.64
				c0-5.4,4.41-9.81,9.81-9.81h386.96c5.4,0,9.81,4.41,9.81,9.81V450.19z"/>
		</g>
		<path fill="#D8D5E3" d="M1280.27,52.16H873.69V5.13c0-2.93,2.38-5.31,5.31-5.31h395.97c2.93,0,5.31,2.38,5.31,5.31V52.16z"/>
		<path fill="#DC9B72" d="M904.9,25.99c0,3.61-2.93,6.54-6.54,6.54c-3.61,0-6.54-2.93-6.54-6.54s2.93-6.54,6.54-6.54
			C901.97,19.45,904.9,22.38,904.9,25.99z"/>
		<path fill="#B0ABC7" d="M927.15,25.99c0,3.61-2.93,6.54-6.54,6.54c-3.61,0-6.54-2.93-6.54-6.54s2.93-6.54,6.54-6.54
			C924.23,19.45,927.15,22.38,927.15,25.99z"/>
		<path fill="#8981AA" d="M949.41,25.99c0,3.61-2.93,6.54-6.54,6.54c-3.61,0-6.54-2.93-6.54-6.54s2.93-6.54,6.54-6.54
			C946.48,19.45,949.41,22.38,949.41,25.99z"/>
		<g>
			<path fill="#FFFFFF" d="M996.37,39.89h-26.92c-0.24,0-0.44-0.2-0.44-0.44V12.53c0-0.24,0.2-0.44,0.44-0.44h26.92
				c0.24,0,0.44,0.2,0.44,0.44v26.92C996.81,39.69,996.62,39.89,996.37,39.89z"/>
			<g>
				<path fill="#8981AA" d="M985.37,34.98c-0.21,0-0.42-0.08-0.58-0.24l-8.17-8.18c-0.32-0.32-0.32-0.84,0-1.16l8.17-8.18
					c0.32-0.32,0.84-0.32,1.16,0c0.32,0.32,0.32,0.84,0,1.16l-7.6,7.6l7.6,7.6c0.32,0.32,0.32,0.84,0,1.16
					C985.78,34.9,985.58,34.98,985.37,34.98z"/>
			</g>
		</g>
		<g>
			<path fill="#FFFFFF" d="M1028.41,39.89h-26.92c-0.24,0-0.44-0.2-0.44-0.44V12.53c0-0.24,0.2-0.44,0.44-0.44h26.92
				c0.24,0,0.44,0.2,0.44,0.44v26.92C1028.85,39.69,1028.65,39.89,1028.41,39.89z"/>
			<g>
				<path fill="#8981AA" d="M1012.5,34.98c-0.21,0-0.42-0.08-0.58-0.24c-0.32-0.32-0.32-0.84,0-1.16l7.6-7.6l-7.6-7.6
					c-0.32-0.32-0.32-0.84,0-1.16c0.32-0.32,0.84-0.32,1.16,0l8.17,8.18c0.32,0.32,0.32,0.84,0,1.16l-8.17,8.18
					C1012.92,34.9,1012.71,34.98,1012.5,34.98z"/>
			</g>
		</g>
		<g>
			<g>
				<path fill="#FFFFFF" d="M1038.83,39.45V12.53c0-0.24,0.2-0.44,0.44-0.44h222.07c0.24,0,0.44,0.2,0.44,0.44v26.92
					c0,0.24-0.2,0.44-0.44,0.44h-222.07C1039.02,39.89,1038.83,39.69,1038.83,39.45z"/>
			</g>
			<g>
				<g>
					<path fill="#8981AA" d="M1052.7,30.7c-1.68,0-3.36-0.64-4.64-1.92c-1.24-1.24-1.92-2.89-1.92-4.64c0-1.75,0.68-3.4,1.92-4.64
						c2.56-2.56,6.72-2.56,9.28,0c0,0,0,0,0,0c2.56,2.56,2.56,6.72,0,9.28C1056.06,30.06,1054.38,30.7,1052.7,30.7z M1052.7,19.22
						c-1.26,0-2.52,0.48-3.48,1.44c-0.93,0.93-1.44,2.17-1.44,3.48c0,1.32,0.51,2.55,1.44,3.48c1.92,1.92,5.05,1.92,6.97,0
						c1.92-1.92,1.92-5.04,0-6.96C1055.22,19.7,1053.96,19.22,1052.7,19.22z"/>
				</g>
				<g>
					<path fill="#8981AA" d="M1062.13,34.39c-0.21,0-0.42-0.08-0.58-0.24l-5.37-5.37c-0.32-0.32-0.32-0.84,0-1.16
						c0.32-0.32,0.84-0.32,1.16,0l5.37,5.37c0.32,0.32,0.32,0.84,0,1.16C1062.55,34.31,1062.34,34.39,1062.13,34.39z"/>
				</g>
			</g>
		</g>
	</g>
</g>
<g id="App">
	<g>
		<path fill="#3A2D72" d="M904,400c0,16.57,13.43,30,30,30h286c16.57,0,30-13.43,30-30V112c0-16.57-13.43-30-30-30H934
			c-16.57,0-30,13.43-30,30V400z"/>
	</g>
	<g>
		<path fill="#FFFFFF" d="M924,305c0,16.57,13.43,30,30,30h246c16.57,0,30-13.43,30-30V132c0-16.57-13.43-30-30-30H954
			c-16.57,0-30,13.43-30,30V305z"/>
	</g>
	<g>
		<path fill="#FFFFFF" d="M998.03,389.69l-1.19,3.71c-2.23-0.18-3.71-0.86-4.61-2.74c-1.37,2.09-3.49,2.84-5.76,2.84
			c-3.82,0-6.23-2.48-6.23-5.98c0-4.18,3.17-6.44,8.96-6.44h1.94v-0.83c0-2.27-0.9-2.95-3.24-2.95c-1.22,0-3.1,0.36-5,1.01
			l-1.3-3.74c2.41-0.9,5.04-1.4,7.2-1.4c5.54,0,7.92,2.34,7.92,6.77v7.42C996.74,388.82,997.13,389.36,998.03,389.69z
			 M991.16,387.63v-3.42h-1.4c-2.59,0-3.85,0.9-3.85,2.81c0,1.51,0.83,2.41,2.23,2.41C989.43,389.43,990.47,388.75,991.16,387.63z"
			/>
		<path fill="#FFFFFF" d="M1020.1,383.28c0,5.9-2.88,10.22-7.59,10.22c-1.87,0-3.46-0.65-4.64-2.02v8.78l-5.69,0.61v-27.1h5
			l0.29,2.12c1.58-1.98,3.63-2.74,5.4-2.74C1017.91,373.16,1020.1,377.09,1020.1,383.28z M1014.2,383.35c0-4.75-1.15-6.01-3.13-6.01
			c-1.22,0-2.38,0.83-3.2,2.23v8.06c0.79,1.15,1.73,1.69,2.92,1.69C1012.9,389.33,1014.2,387.63,1014.2,383.35z"/>
		<path fill="#FFFFFF" d="M1042.49,383.28c0,5.9-2.88,10.22-7.59,10.22c-1.87,0-3.46-0.65-4.64-2.02v8.78l-5.69,0.61v-27.1h5
			l0.29,2.12c1.58-1.98,3.63-2.74,5.4-2.74C1040.3,373.16,1042.49,377.09,1042.49,383.28z M1036.59,383.35
			c0-4.75-1.15-6.01-3.13-6.01c-1.22,0-2.38,0.83-3.2,2.23v8.06c0.79,1.15,1.73,1.69,2.92,1.69
			C1035.29,389.33,1036.59,387.63,1036.59,383.35z"/>
		<path fill="#FFFFFF" d="M1046.78,388.03v-21.85l5.69-0.61v22.25c0,0.79,0.29,1.19,0.97,1.19c0.4,0,0.68-0.07,0.94-0.18l1.12,4.03
			c-0.86,0.36-2.09,0.65-3.46,0.65C1048.72,393.5,1046.78,391.52,1046.78,388.03z"/>
		<path fill="#FFFFFF" d="M1064.74,366.94c0,1.84-1.4,3.24-3.38,3.24c-1.98,0-3.35-1.4-3.35-3.24c0-1.83,1.37-3.24,3.35-3.24
			C1063.34,363.7,1064.74,365.1,1064.74,366.94z M1064.24,392.89h-5.69v-19.11h5.69V392.89z"/>
		<path fill="#FFFFFF" d="M1084.43,375.5l-2.45,3.38c-1.22-0.94-2.34-1.37-3.64-1.37c-2.45,0-3.85,1.66-3.85,5.94
			c0,4.25,1.51,5.54,3.78,5.54c1.37,0,2.3-0.43,3.67-1.3l2.48,3.53c-1.76,1.4-3.82,2.27-6.44,2.27c-5.87,0-9.47-3.96-9.47-10.01
			c0-6.08,3.63-10.33,9.36-10.33C1080.54,373.16,1082.6,373.96,1084.43,375.5z"/>
		<path fill="#FFFFFF" d="M1104.23,389.69l-1.19,3.71c-2.23-0.18-3.71-0.86-4.61-2.74c-1.37,2.09-3.49,2.84-5.76,2.84
			c-3.82,0-6.23-2.48-6.23-5.98c0-4.18,3.17-6.44,8.96-6.44h1.94v-0.83c0-2.27-0.9-2.95-3.24-2.95c-1.22,0-3.1,0.36-5,1.01
			l-1.3-3.74c2.41-0.9,5.04-1.4,7.2-1.4c5.54,0,7.92,2.34,7.92,6.77v7.42C1102.93,388.82,1103.33,389.36,1104.23,389.69z
			 M1097.36,387.63v-3.42h-1.4c-2.59,0-3.85,0.9-3.85,2.81c0,1.51,0.83,2.41,2.23,2.41
			C1095.63,389.43,1096.67,388.75,1097.36,387.63z"/>
		<path fill="#FFFFFF" d="M1120.36,391.99c-1.44,1.01-3.46,1.51-5.18,1.51c-4.21-0.04-6.26-2.41-6.26-6.91v-8.86h-2.7v-3.96h2.7
			v-4.14l5.69-0.65v4.79h4.39l-0.61,3.96h-3.78v8.78c0,1.84,0.61,2.48,1.8,2.48c0.65,0,1.3-0.18,2.05-0.65L1120.36,391.99z"/>
		<path fill="#FFFFFF" d="M1129.36,366.94c0,1.84-1.4,3.24-3.38,3.24c-1.98,0-3.35-1.4-3.35-3.24c0-1.83,1.37-3.24,3.35-3.24
			C1127.96,363.7,1129.36,365.1,1129.36,366.94z M1128.85,392.89h-5.69v-19.11h5.69V392.89z"/>
		<path fill="#FFFFFF" d="M1151.86,383.35c0,6.12-3.53,10.15-9.36,10.15c-5.79,0-9.36-3.74-9.36-10.19c0-6.12,3.53-10.15,9.36-10.15
			S1151.86,376.91,1151.86,383.35z M1139.04,383.31c0,4.25,1.15,6.01,3.46,6.01s3.46-1.84,3.46-5.98c0-4.25-1.15-6.01-3.46-6.01
			S1139.04,379.17,1139.04,383.31z"/>
		<path fill="#FFFFFF" d="M1172.63,378.92v13.97h-5.69v-12.99c0-2.02-0.68-2.56-1.8-2.56c-1.26,0-2.3,0.9-3.31,2.48v13.07h-5.69
			v-19.11h4.97l0.4,2.27c1.62-1.87,3.46-2.88,5.83-2.88C1170.65,373.16,1172.63,375.29,1172.63,378.92z"/>
	</g>
</g>
<g id="Arrows">
	<g>
		<g>
			<linearGradient id="SVGID_2_" gradientUnits="userSpaceOnUse" x1="272.6067" y1="98.1297" x2="1081.3995" y2="98.1297">
				<stop  offset="0.2" style="stop-color:#C45814"/>
				<stop  offset="0.8" style="stop-color:#61578E"/>
			</linearGradient>
			<path fill="none" stroke="url(#SVGID_2_)" stroke-width="4" d="M1081,153
				C877.74,111.56,635.99-2.43,287.09,63.26"/>
			<g>
				<linearGradient id="SVGID_4_" gradientUnits="userSpaceOnUse" x1="272.6067" y1="62.8401" x2="1081.3995" y2="62.8401">
					<stop  offset="0.2" style="stop-color:#C45814"/>
					<stop  offset="0.8" style="stop-color:#61578E"/>
				</linearGradient>
				<polygon fill="url(#SVGID_4_)" points="288.15,53.04 273,66 291.8,72.64 				"/>
			</g>
		</g>
	</g>
	<g>
		<g>
			<linearGradient id="SVGID_5_" gradientUnits="userSpaceOnUse" x1="325.5185" y1="189.7818" x2="1140.5596" y2="189.7818">
				<stop  offset="0.2" style="stop-color:#C45814"/>
				<stop  offset="0.8" style="stop-color:#61578E"/>
			</linearGradient>
			<path fill="none" stroke="url(#SVGID_5_)" stroke-width="4" d="M1140,235
				c-98.09-28.59-478.41-139.27-800.04-65.33"/>
			<g>
				<linearGradient id="SVGID_6_" gradientUnits="userSpaceOnUse" x1="325.5185" y1="169.1561" x2="1140.5596" y2="169.1561">
					<stop  offset="0.2" style="stop-color:#C45814"/>
					<stop  offset="0.8" style="stop-color:#61578E"/>
				</linearGradient>
				<polygon fill="url(#SVGID_6_)" points="340.62,159.43 326,173 345.06,178.88 				"/>
			</g>
		</g>
	</g>
	<g>
		<g>
			<linearGradient id="SVGID_7_" gradientUnits="userSpaceOnUse" x1="109.2635" y1="321.304" x2="973.6085" y2="321.304">
				<stop  offset="0.2" style="stop-color:#C45814"/>
				<stop  offset="0.8" style="stop-color:#61578E"/>
			</linearGradient>
			<path fill="none" stroke="url(#SVGID_7_)" stroke-width="4" d="M973,277
				c-157.18,50.2-733.75,166.32-854.06,8.95"/>
			<g>
				<linearGradient id="SVGID_8_" gradientUnits="userSpaceOnUse" x1="109.2635" y1="283.9429" x2="973.6085" y2="283.9429">
					<stop  offset="0.2" style="stop-color:#C45814"/>
					<stop  offset="0.8" style="stop-color:#61578E"/>
				</linearGradient>
				<polygon fill="url(#SVGID_8_)" points="128.96,282.66 111,274 112.48,293.89 				"/>
			</g>
		</g>
	</g>
</g>
<g id="Results">
	<g>
		<g>
			<defs>
				<path id="SVGID_19_" d="M1139.96,153.27c0,16.41-13.3,29.72-29.72,29.72s-29.72-13.3-29.72-29.72s13.3-29.72,29.72-29.72
					S1139.96,136.86,1139.96,153.27z M1006.62,243.95c-18.52,0-33.53,15.01-33.53,33.53c0,18.52,15.01,33.53,33.53,33.53
					s33.53-15.01,33.53-33.53C1040.15,258.96,1025.14,243.95,1006.62,243.95z M1160.16,214.99c-11.15,0-20.19,9.04-20.19,20.19
					s9.04,20.19,20.19,20.19s20.19-9.04,20.19-20.19S1171.31,214.99,1160.16,214.99z"/>
			</defs>
			<clipPath id="SVGID_9_">
				<use xlink:href="#SVGID_19_"  overflow="visible"/>
			</clipPath>
			<path clip-path="url(#SVGID_9_)" fill="#ABABAB" d="M980.88,330.1c7.4,6.65,16.37,11.5,25.39,15.55
				c12.05,5.41,24.72,9.44,37.6,12.32c28.91,6.47,59.92,7.55,88.59-0.7c24.79-7.13,50.02-21.96,60.8-46.4
				c9.42-21.35,9.21-45.98,5.67-68.63c-4.11-26.33-13.17-52.05-25.7-75.53c-10.51-19.69-24-39.47-42.34-52.67
				c-10.28-7.4-25.94-14.81-37.99-7.14c-10.6,6.74-16.21,20.09-20.25,31.42c-6.47,18.13-9.88,37.34-12.34,56.37
				c-2.9,22.42-4.21,45.05-4.38,67.66c-0.17,22.24,0.75,44.53,3.32,66.63c1.99,17.07,4.68,34.47,10.55,50.69
				c3.07,8.48,7.98,20.84,17.75,23.48c5.24,1.42,11.29-0.61,16.1-2.6c7.96-3.3,15.2-8.19,22.01-13.42
				c18.92-14.54,35.29-32.51,50.09-51.14c16.15-20.33,30.73-42.14,42.35-65.39c9.25-18.52,18.04-39.42,18.08-60.49
				c0.01-7.5-1.32-15.22-5.22-21.73c-3.69-6.14-9.34-10.88-15.34-14.66c-17.18-10.85-38.13-15.72-57.91-19.12
				c-24.76-4.26-50-5.82-75.1-5.68c-24.26,0.14-48.68,1.81-72.57,6.19c-15.91,2.91-34.17,6.59-47.45,16.47
				c-3.38,2.52-6.93,5.76-7.57,10.14c-0.58,3.97,1.05,7.96,2.99,11.34c6.57,11.48,17.87,20.47,28.16,28.43
				c33.72,26.08,72.47,46.4,111.41,63.41c19.86,8.68,40.19,16.48,61.07,22.37c16.01,4.52,32.9,8.42,49.64,8
				c10.35-0.26,22.74-2.47,28.66-12.01c7.71-12.43,2.78-29.82-2.6-42.07c-8.94-20.38-23.54-38.27-38.68-54.35
				c-17.58-18.68-37.16-35.53-57.91-50.6c-18.87-13.72-38.96-26.34-60.54-35.35c-12.94-5.4-30.18-11.92-44.27-7
				c-9.16,3.2-10.19,12.51-8.74,20.98c2.47,14.43,9.92,28.2,17.08,40.77c21.37,37.55,48.95,72.04,78.06,103.83
				c13.72,14.98,28.07,29.5,43.6,42.61c10.55,8.91,22.18,18.46,35.38,23.14c6.18,2.19,16.37,3.16,18.75-4.98
				c2.2-7.51-8.11-13.31-13.31-16.18c-12.92-7.13-27.37-11.68-41.48-15.8c-19.42-5.67-39.2-10.11-59.07-13.82
				c-20.67-3.86-41.52-6.91-62.46-8.9c-18.34-1.74-36.89-2.84-55.3-1.71c-11.13,0.68-24.61,1.56-34.17,8.02
				c-7.58,5.12-7.74,13.36-2.93,20.64c7.59,11.48,22.6,16.14,35.37,18.71c20.16,4.07,41.16,3.95,61.6,2.61
				c47.32-3.1,95.47-13.13,139.61-30.6c16.53-6.55,33.48-14.26,47.14-25.88c8.03-6.83,16.65-17.16,13.57-28.5
				c-3.03-11.16-14.92-18.41-24.47-23.39c-16.44-8.57-34.58-13.93-52.52-18.33c-44.24-10.86-90.45-16.02-135.98-16.15
				c-18.91-0.06-38.06,0.71-56.68,4.22c-10.86,2.05-25.03,4.96-32.54,13.93c-7.64,9.12-1.42,23.36,3.01,32.51
				c9.45,19.48,23.63,36.8,37.97,52.86c17.42,19.49,36.48,37.59,56.71,54.14c18.06,14.77,37.26,28.88,58.29,39.14
				c11.54,5.63,28.59,13.45,41.53,7.76c10.18-4.48,12.94-18.57,14.35-28.31c2.65-18.38,1.55-37.31-0.26-55.71
				c-2.3-23.39-6.33-46.63-11.44-69.56c-5.09-22.84-11.27-45.49-19.02-67.57c-6.16-17.56-13.13-35.36-23.21-51.09
				c-5.05-7.89-13.01-19.54-23.63-19.6c-12.24-0.08-22.24,13.19-28.62,21.98c-12.25,16.87-21.4,36.04-29.55,55.15
				c-9.75,22.89-17.91,46.47-24.59,70.43c-6.03,21.62-11.04,43.72-13.29,66.08c-1.41,14.01-2.99,31.35,3.68,44.38
				c4.73,9.24,13.68,9.97,22.86,7.43c14.63-4.05,28.06-13.05,40.32-21.71c36.6-25.84,69.42-57.93,98.54-91.86
				c13.78-16.06,26.9-32.88,37.9-50.98c7.65-12.58,15.48-26.78,17.12-41.67c3.69-33.56-40.58-30.4-62.17-26.49
				c-23.14,4.2-45.64,12.01-67.29,21.06c-23.16,9.69-45.66,21.1-67.04,34.27c-18.38,11.33-36.55,23.98-51.62,39.56
				c-8.72,9.02-19.71,21.76-18.6,35.3c0.87,10.63,11.03,14.41,20.32,15.27c15.57,1.45,31.78-2.37,46.7-6.41
				c20.09-5.44,39.67-12.84,58.68-21.3c18.54-8.24,36.72-17.57,53.74-28.65c10.93-7.12,53.72-35.42,30.28-50.94
				c-4.64-3.07-10.42-2.48-15.58-1.25c-8.31,1.98-16.21,5.88-23.65,9.98c-20.32,11.21-39,25.73-56.09,41.36
				c-15.71,14.37-31.89,30.64-41.61,49.85c-5.61,11.09-8.66,25.46,4.19,32.61c6.65,3.71,14.64,4.8,22.13,5.27
				c10.38,0.65,20.84-0.18,31.13-1.58c24.02-3.26,47.82-9.78,70.2-19.05c17.16-7.11,37.15-16.29,48.39-31.81
				c3.66-5.06,5.95-11.08,4.84-17.37c-1.26-7.15-6.09-13.26-11.24-18.13c-15.54-14.71-37.08-23.35-57.23-29.51
				c-22.68-6.93-47.1-11.19-70.86-9.37c-17.05,1.31-37.73,6.39-46,23.13c-10.33,20.91-1.49,45.88,9.09,64.81
				c12.73,22.77,30.88,43.31,51.62,59.11c7.6,5.79,15.91,11.35,25.05,14.38c5.22,1.73,11,2.7,15.71-0.71
				c4.87-3.52,7.99-9.35,10.47-14.66c3.77-8.08,6.42-16.68,8.58-25.32c5.38-21.5,7.92-43.88,8.02-66.03
				c0.09-20.04-1.41-41.64-9.83-60.13c-3.02-6.63-7.24-12.99-13.28-17.24c-7.7-5.42-17.64-5.79-26.7-4.64
				c-27.88,3.55-50.83,24.93-66.22,47.12c-7.73,11.14-14.14,23.37-18.33,36.29c-3.07,9.45-5.93,21.08-3.58,31.03
				c1.43,6.06,6.38,10.6,11.36,13.92c7.33,4.9,15.86,8.02,24.26,10.54c21.98,6.6,45.26,9.29,68.12,10.27
				c20.79,0.89,42.58,0.76,62.89-4.3c6.45-1.61,25.02-7.03,19.66-17.31c-2.16-4.14-6.86-6.92-10.76-9.16
				c-6.51-3.74-13.49-6.69-20.43-9.51c-18.86-7.66-38.18-14.14-57.2-21.39c-18.24-6.96-36.99-14.2-53.36-25.03
				c-9.39-6.21-22.35-16.76-17.11-29.55c2.42-5.92,7.71-11.38,13.81-13.48c6.07-2.09,12.6-0.81,18.35,1.66
				c16.8,7.2,30.14,22.61,41.25,36.6c13.69,17.24,25.47,36.13,35.41,55.76c4.41,8.7,8.47,17.61,11.8,26.79
				c2.42,6.69,4.71,13.7,5.38,20.82c0.31,3.36,0.7,8.75-2.7,10.8c-4.19,2.52-8.96-0.94-11.74-3.92
				c-5.08-5.43-8.21-12.72-10.51-19.69c-3.03-9.21-4.64-18.9-4.97-28.58c-0.72-21.38,5.15-43.63,20.52-59.16
				c9.31-9.41,20.65-14.56,33.05-18.6c9.06-2.95,15.4-10.6,19.08-19.13c8.38-19.41,4.5-44.97-13.94-57.19
				c-5.99-3.97-14.08-7.69-21.43-5.82c-5.23,1.33-9.87,4.61-13.97,7.99c-13.01,10.74-23.15,25.15-32.42,39.09
				c-12.78,19.2-23.99,39.45-34.34,60.05c-10.68,21.25-20.42,42.99-29.01,65.16c-7.36,18.99-14.13,38.41-18.47,58.34
				c-1.54,7.09-2.81,14.32-3.1,21.59c-0.19,4.75-0.07,9.91,1.84,14.35c2.81,6.55,9.33,8.13,13.27,1.76
				c2.4-3.89,3.62-8.57,4.66-12.98c1.57-6.65,2.52-13.45,3.29-20.24c2.12-18.75,2.63-37.7,2.53-56.56
				c-0.11-21.29-1.13-42.6-3.18-63.8c-1.85-19.09-4.4-38.25-9.06-56.87c-2.9-11.61-6.44-25.5-14.93-34.47
				c-6.3-6.67-15.45-6.21-21.35,0.92c-8.23,9.95-5.57,25.99-3.06,37.48c4.42,20.29,12.83,39.76,21.95,58.33
				c10.43,21.23,22.45,41.72,35.8,61.25c11.4,16.68,23.78,33.18,38.5,47.1c7.1,6.71,18.64,17.79,29.56,15.48
				c2.93-0.62,6.58-2.34,5.86-5.92c-0.77-3.85-5.35-6.9-8.24-9.04c-14.21-10.5-30.66-18.27-46.26-26.42
				c-20.53-10.73-41.18-21.27-61.12-33.07c-8.63-5.11-17.15-10.44-25.21-16.41c-6.23-4.61-12.6-9.69-17.21-16
				c-2.57-3.52-5.26-8.31-3.39-12.72c1.84-4.37,6.76-7.04,10.83-8.93c15.07-6.98,32.95-8.63,49.3-9.72c22.3-1.49,44.81-0.77,67,1.81
				c21.01,2.43,42.29,6.46,61.99,14.34c13.53,5.41,29.88,13.85,35.12,28.53c5.37,15.02-2.46,31.56-13.52,41.73
				c-12.26,11.28-29.31,17.7-45.89,18.22c-15.64,0.49-32.07-4.9-40.43-18.97c-4.88-8.22-6.32-17.96-5.97-27.39
				c0.47-12.58,3.42-26.71,9.41-37.86c4.34-8.07,11.22-13.59,20.55-14.21c10.29-0.69,20.71,3.04,30.18,6.65
				c13.66,5.2,26.89,11.48,40.3,17.29c16.09,6.98,32.39,13.46,49.13,18.73c1.41,0.44,2.01-1.76,0.61-2.2
				c-18.16-5.71-35.78-12.87-53.2-20.51c-13.18-5.78-26.25-11.97-39.81-16.84c-9.26-3.33-19.54-6.53-29.51-5.17
				c-8.88,1.21-15.59,6.8-19.88,14.49c-5.84,10.46-8.68,23.42-9.78,35.27c-0.85,9.24-0.22,18.84,3.32,27.5
				c5.76,14.07,18.77,22.57,33.5,24.82c28.81,4.39,67.17-11.98,73.88-42.82c7.6-34.92-33.35-49.87-59.97-56.69
				c-20.71-5.31-42.12-8.02-63.45-9.17c-20.47-1.1-41.16-0.81-61.49,1.94c-12.91,1.75-28.45,3.96-39.14,12.11
				c-3.12,2.38-5.86,5.66-6.01,9.76c-0.19,4.97,2.99,9.65,6.01,13.31c10.88,13.2,27.06,22.49,41.57,31.08
				c19.32,11.44,39.32,21.69,59.22,32.08c15.59,8.14,31.77,15.95,46.23,26.03c2.62,1.83,8.57,5.28,9.09,8.91
				c0.39,2.73-4.29,3.47-6.4,3.45c-4.95-0.05-9.74-2.94-13.7-5.63c-6.3-4.29-11.88-9.62-17.14-15.1
				c-14.31-14.92-26.58-31.82-37.88-49.09c-12.67-19.35-24.13-39.56-33.92-60.53c-8.2-17.55-15.77-36.04-19.13-55.21
				c-1.83-10.46-3.59-26.84,6.93-33.62c8.11-5.22,14.79,1.16,18.85,8.11c7.23,12.38,10.39,27.32,13.1,41.24
				c3.74,19.23,5.88,38.77,7.29,58.3c1.49,20.62,2.12,41.31,1.79,61.98c-0.27,17.02-1.01,34.17-3.55,51.02
				c-0.89,5.87-1.96,11.78-3.81,17.43c-0.95,2.89-2.21,6.97-4.86,8.82c-6.39,4.49-8.65-9.94-8.75-13.38
				c-0.47-15.12,3.97-30.61,8.22-44.96c6.11-20.64,13.86-40.81,22.33-60.59c17.39-40.6,37.62-81.36,64.14-116.85
				c8.21-10.99,17.86-23.65,30.41-29.97c5.18-2.61,9.49-2.57,14.95-0.7c11.8,4.04,20.7,13.25,24.31,25.18
				c5.61,18.49-0.45,45.73-21.07,51.92c-21.82,6.55-39.41,21.05-47.86,42.45c-7.12,18.03-7.6,38.57-3.36,57.35
				c1.74,7.72,4.32,15.43,8.29,22.31c2.68,4.66,6.33,9.79,11.5,11.89c3.44,1.4,7.92,1.06,10.29-2.11c2.47-3.3,2.17-8.19,1.72-12.04
				c-1.85-15.77-9.2-31.24-16.17-45.3c-9.4-18.95-20.55-37.15-33.36-53.98c-10.98-14.42-23.56-29.21-39.36-38.53
				c-10.71-6.32-23.94-9.2-34.05-0.19c-9.13,8.14-11.44,19.74-3.86,29.67c9.28,12.15,24.97,19.43,38.5,25.64
				c18.56,8.52,37.84,15.39,57.02,22.38c16.16,5.9,32.9,11.38,48.08,19.57c4.03,2.17,9.15,4.8,11.6,8.88
				c2.07,3.43-0.2,6.38-3.07,8.49c-5.36,3.93-12.45,5.6-18.84,6.93c-9.78,2.03-19.78,2.92-29.75,3.36
				c-23.05,1.02-46.39-0.36-69.16-4.14c-10.36-1.72-20.68-3.96-30.66-7.24c-7.95-2.61-16.16-5.87-22.76-11.14
				c-5.59-4.47-8.03-9.51-8.13-16.64c-0.17-11.9,3.58-23.84,8.3-34.63c11.21-25.65,30.51-50.4,55.69-63.49
				c11.49-5.97,25.27-9.57,38.23-7.18c6.98,1.29,12.71,5.61,16.88,11.23c11.05,14.9,13.54,35.78,14.55,53.74
				c1.24,22.07-0.47,44.44-4.55,66.15c-1.82,9.65-4.12,19.25-7.34,28.54c-2.34,6.77-5.13,13.72-9.45,19.5
				c-3.04,4.07-6.55,6.84-11.81,6.36c-8.34-0.77-16.37-5.63-23.19-10.13c-21.15-13.95-39.4-33.66-53.1-54.86
				c-12.16-18.81-24.01-44.03-16.36-66.75c6.32-18.78,26.6-24.95,44.53-26.54c23.37-2.07,47.37,1.97,69.74,8.6
				c20.12,5.96,41.6,14.37,57.32,28.74c5.18,4.74,10.27,10.72,11.46,17.87c1.13,6.75-2.25,13.04-6.52,18.01
				c-12.78,14.89-32.97,23.74-50.85,30.65c-22.16,8.56-45.61,14.71-69.25,17.35c-9.67,1.08-19.51,1.6-29.21,0.63
				c-6.83-0.68-14.53-2.05-20.11-6.36c-12.1-9.35-1.78-27.25,4.52-36.84c12.19-18.56,28.69-34.48,45.53-48.78
				c16.73-14.21,34.93-27.76,54.89-37.09c8.99-4.2,24.92-11.34,32.07-0.36c5.42,8.33-4.12,18.6-9.61,24.03
				c-11.75,11.62-26.19,20.6-40.48,28.72c-18.01,10.24-36.85,19.08-56.12,26.68c-17.89,7.06-36.29,13.23-55.16,17.07
				c-12.33,2.51-27.51,5.41-39.72,0.81c-10.45-3.94-10.67-14.48-6.66-23.56c6.71-15.19,20.69-27.21,33.37-37.34
				c18.29-14.61,38.44-26.92,59.09-37.88c21.67-11.5,44.21-21.53,67.44-29.45c19.55-6.67,40.13-12.4,60.88-13.24
				c11.64-0.47,28.79,0.22,36.07,11.15c6.31,9.48,1.92,22.98-1.9,32.52c-6.62,16.53-16.78,31.7-27.27,45.99
				c-26.42,35.97-58.11,68.66-92.14,97.46c-14.53,12.29-29.73,24.11-46.23,33.67c-9.15,5.3-21.61,12.68-32.72,11.04
				c-10.85-1.6-12.8-16.19-13.46-24.92c-1.42-18.83,1.74-38.08,5.45-56.47c4.7-23.3,11.25-46.25,18.99-68.72
				c7.57-21.95,16.3-43.61,27.04-64.21c7.65-14.66,16.4-30.55,29.18-41.42c3.73-3.17,8.43-6.31,13.52-6.38
				c4.44-0.06,8.38,2.63,11.52,5.51c10.67,9.8,17.33,24.27,23.09,37.29c8.66,19.58,15.3,40.08,21.03,60.69
				c11.83,42.58,20.89,87.36,21.35,131.7c0.14,14.04,0.07,30.16-6.14,43.11c-1.9,3.95-4.65,7.78-8.88,9.42
				c-5.85,2.26-12.72,1.27-18.62-0.18c-18.79-4.62-36.13-15.74-51.84-26.63c-20.9-14.48-40.38-31.06-58.63-48.73
				c-17.2-16.66-33.62-34.47-47.53-54.01c-5.56-7.81-10.78-15.96-14.88-24.64c-2.91-6.16-5.57-12.99-5.71-19.89
				c-0.22-10.29,9.94-15.18,18.4-18.11c15.25-5.29,31.87-6.78,47.88-7.65c43.88-2.37,88.54,1.62,131.7,9.57
				c20,3.68,39.97,8.32,59.14,15.19c13.18,4.72,27.72,10.53,37.73,20.72c22.1,22.5-16,44.54-33.18,53.05
				c-19.4,9.61-40.13,16.58-60.97,22.32c-23.02,6.34-46.52,11.1-70.21,14.16c-21.81,2.82-43.98,4.37-65.96,2.98
				c-15.71-0.99-33.14-3.1-46.82-11.55c-6.51-4.02-16.57-13.82-11.58-22.35c4.63-7.91,17.6-9.6,25.68-10.7
				c16.3-2.23,33.02-1.74,49.4-0.74c20.25,1.25,40.43,3.72,60.45,6.94c20,3.21,39.9,7.19,59.55,12.13
				c16.14,4.06,32.32,8.65,47.7,15.07c5.33,2.23,10.64,4.69,15.49,7.85c2.9,1.88,6.36,4.27,7.84,7.54
				c3.13,6.94-6.37,9.22-11.25,8.25c-11.94-2.37-22.95-11.13-32.23-18.48c-14.97-11.86-28.71-25.28-41.86-39.11
				c-29.45-30.98-56.82-64.74-79.34-101.12c-8.36-13.5-16.56-27.71-21.34-42.94c-2.25-7.17-5.64-19.6,1.93-24.96
				c4.37-3.09,10.74-3.21,15.85-2.86c8,0.54,15.86,2.85,23.36,5.58c20.78,7.56,40.13,19.21,58.28,31.7
				c20.77,14.29,40.34,30.44,58.2,48.23c16.06,16,31.36,33.59,42.16,53.65c7.01,13.02,14.22,30.91,8.04,45.63
				c-4.22,10.05-16,12.81-25.84,13.35c-16.19,0.87-32.62-2.77-48.14-6.98c-20.11-5.46-39.71-12.77-58.86-20.95
				c-38.47-16.43-76.42-36.21-110.22-61c-11.28-8.28-23.28-17.44-31.34-29.07c-2.25-3.25-4.54-7.1-4.69-11.17
				c-0.15-4.08,2.62-7,5.6-9.43c5.41-4.41,12.12-7.23,18.64-9.54c8.83-3.13,17.99-5.31,27.18-7.06c22.97-4.38,46.48-6.12,69.84-6.45
				c25-0.35,50.15,0.98,74.85,4.92c19.74,3.15,40.36,7.66,57.93,17.59c6.47,3.65,12.78,8.27,16.96,14.52
				c4.18,6.27,5.65,13.83,5.7,21.27c0.14,20.56-8.44,41.08-17.41,59.17c-11.45,23.09-25.84,44.78-41.82,64.97
				c-14.42,18.22-30.31,35.77-48.58,50.22c-6.85,5.42-14.18,10.53-22.21,14.06c-4.63,2.04-10.82,4.4-15.93,2.89
				c-9.52-2.8-14.06-16.13-16.83-24.4c-5.47-16.35-8.09-33.69-9.94-50.78c-2.33-21.52-3.16-43.2-2.94-64.84
				c0.22-21.88,1.5-43.78,4.28-65.48c2.39-18.72,5.77-37.6,12-55.46c3.87-11.09,9.31-24.73,19.81-31.21
				c12.46-7.69,28.85,1.9,38.69,9.8c17.8,14.28,30.82,34.42,40.96,54.6c11.8,23.48,20.26,49.11,23.53,75.23
				c2.79,22.26,2.11,46.79-8.93,66.9c-13.32,24.26-42.21,37.48-68.27,42.62c-26.75,5.27-54.86,3.24-81.19-3.36
				c-19.6-4.92-41.3-12.25-56.63-26.01C981.4,327.51,979.78,329.12,980.88,330.1L980.88,330.1z"/>
		</g>
		<path fill="none" stroke="#61578E" stroke-width="5" d="M1139.96,153.27c0,16.41-13.3,29.72-29.72,29.72
			s-29.72-13.3-29.72-29.72s13.3-29.72,29.72-29.72S1139.96,136.86,1139.96,153.27z M1006.62,243.95
			c-18.52,0-33.53,15.01-33.53,33.53c0,18.52,15.01,33.53,33.53,33.53s33.53-15.01,33.53-33.53
			C1040.15,258.96,1025.14,243.95,1006.62,243.95z M1160.16,214.99c-11.15,0-20.19,9.04-20.19,20.19s9.04,20.19,20.19,20.19
			s20.19-9.04,20.19-20.19S1171.31,214.99,1160.16,214.99z"/>
	</g>
</g>
</svg>
