<?xml version="1.0" encoding="utf-8"?>
<svg version="1.1" xmlns="http://www.w3.org/2000/svg" xmlns:xlink="http://www.w3.org/1999/xlink" x="0px" y="0px" width="1280px"
	 height="460px" viewBox="0 0 1280 460" enable-background="new 0 0 1280 460" xml:space="preserve">
<g id="Knowledge">
	<g>
		<g>
			<path fill="#ABABAB" d="M60.21,298.07c9.72,8.73,21.48,15.09,33.33,20.41c15.81,7.1,32.44,12.39,49.35,16.17
				c37.94,8.49,78.64,9.91,116.26-0.91c32.53-9.36,65.64-28.82,79.79-60.89c12.36-28.02,12.08-60.35,7.45-90.07
				c-5.39-34.55-17.28-68.31-33.73-99.13c-13.79-25.84-31.49-51.8-55.56-69.13c-13.5-9.71-34.04-19.44-49.86-9.38
				c-13.91,8.85-21.27,26.37-26.58,41.23c-8.49,23.79-12.97,49-16.2,73.98c-3.81,29.43-5.53,59.13-5.75,88.79
				c-0.22,29.18,0.99,58.45,4.36,87.45c2.61,22.4,6.14,45.24,13.85,66.53c4.02,11.12,10.48,27.35,23.29,30.81
				c6.88,1.86,14.82-0.8,21.13-3.41c10.44-4.33,19.95-10.75,28.88-17.61c24.83-19.08,46.31-42.66,65.74-67.11
				c21.2-26.68,40.34-55.3,55.58-85.81c12.14-24.31,23.68-51.74,23.73-79.38c0.02-9.84-1.73-19.97-6.86-28.51
				c-4.84-8.05-12.26-14.28-20.13-19.24c-22.54-14.24-50.04-20.63-76-25.09c-32.49-5.59-65.62-7.63-98.56-7.45
				c-31.84,0.18-63.89,2.38-95.24,8.12c-20.88,3.82-44.85,8.64-62.28,21.62c-4.44,3.3-9.1,7.55-9.93,13.31
				c-0.75,5.22,1.38,10.45,3.92,14.89c8.62,15.07,23.45,26.86,36.95,37.31c44.25,34.22,95.1,60.89,146.22,83.22
				c26.07,11.39,52.75,21.63,80.14,29.36c21.01,5.93,43.17,11.05,65.15,10.49c13.59-0.35,29.84-3.25,37.61-15.76
				c10.12-16.31,3.65-39.13-3.41-55.21c-11.74-26.75-30.9-50.22-50.77-71.33c-23.07-24.52-48.77-46.63-76-66.41
				c-24.77-18-51.13-34.57-79.46-46.4c-16.99-7.09-39.61-15.64-58.1-9.19c-12.02,4.2-13.38,16.42-11.48,27.54
				c3.24,18.94,13.02,37.01,22.41,53.51c28.05,49.28,64.24,94.54,102.45,136.26c18,19.66,36.84,38.72,57.22,55.93
				c13.85,11.69,29.11,24.23,46.43,30.36c8.11,2.87,21.48,4.15,24.61-6.54c2.89-9.86-10.64-17.47-17.47-21.23
				c-16.96-9.35-35.92-15.33-54.43-20.74c-25.48-7.44-51.44-13.26-77.53-18.13c-27.13-5.06-54.49-9.07-81.97-11.68
				c-24.06-2.29-48.41-3.72-72.57-2.25c-14.61,0.89-32.3,2.05-44.85,10.52c-9.95,6.72-10.16,17.54-3.85,27.08
				c9.96,15.06,29.66,21.18,46.41,24.56c26.46,5.34,54.02,5.18,80.84,3.43c62.11-4.07,125.3-17.23,183.23-40.16
				c21.7-8.59,43.94-18.72,61.86-33.96c10.54-8.96,21.85-22.52,17.81-37.4c-3.97-14.65-19.58-24.16-32.11-30.7
				c-21.58-11.25-45.39-18.28-68.93-24.06c-58.06-14.26-118.71-21.02-178.46-21.2c-24.81-0.07-49.94,0.93-74.38,5.54
				c-14.25,2.69-32.85,6.51-42.71,18.28c-10.03,11.97-1.87,30.66,3.96,42.67c12.4,25.57,31.01,48.3,49.83,69.37
				c22.86,25.58,47.87,49.33,74.43,71.05c23.7,19.38,48.9,37.9,76.5,51.37c15.14,7.39,37.52,17.65,54.5,10.18
				c13.36-5.88,16.98-24.37,18.83-37.15c3.48-24.12,2.04-48.97-0.34-73.11c-3.02-30.7-8.31-61.19-15.01-91.3
				c-6.68-29.98-14.79-59.7-24.96-88.68c-8.08-23.04-17.24-46.41-30.46-67.05c-6.63-10.35-17.08-25.64-31.01-25.73
				c-16.06-0.1-29.18,17.31-37.56,28.85c-16.07,22.14-28.09,47.3-38.78,72.38c-12.8,30.03-23.51,60.99-32.28,92.43
				c-7.91,28.38-14.49,57.38-17.44,86.73c-1.84,18.39-3.93,41.14,4.83,58.25c6.2,12.12,17.96,13.08,30,9.75
				c19.21-5.31,36.83-17.13,52.92-28.49c48.03-33.91,91.11-76.02,129.32-120.56c18.08-21.07,35.31-43.15,49.74-66.9
				c10.03-16.51,20.31-35.14,22.46-54.69c4.85-44.05-53.26-39.9-81.59-34.76c-30.37,5.51-59.9,15.76-88.32,27.64
				c-30.4,12.71-59.92,27.69-87.98,44.98c-24.12,14.87-47.97,31.47-67.74,51.92c-11.45,11.84-25.86,28.55-24.41,46.33
				c1.14,13.95,14.48,18.91,26.66,20.04c20.43,1.9,41.71-3.11,61.28-8.42c26.37-7.15,52.07-16.86,77.02-27.95
				c24.33-10.82,48.2-23.06,70.53-37.6c14.35-9.34,70.51-46.48,39.75-66.85c-6.09-4.03-13.67-3.26-20.45-1.64
				c-10.91,2.6-21.27,7.71-31.04,13.1c-26.67,14.71-51.19,33.77-73.61,54.28c-20.62,18.86-41.86,40.21-54.61,65.43
				c-7.36,14.56-11.36,33.42,5.5,42.8c8.73,4.86,19.21,6.31,29.04,6.92c13.62,0.85,27.35-0.24,40.85-2.07
				c31.52-4.28,62.75-12.84,92.14-25c22.52-9.33,48.76-21.38,63.51-41.74c4.81-6.64,7.81-14.54,6.36-22.8
				c-1.66-9.39-8-17.4-14.75-23.79c-20.39-19.31-48.66-30.65-75.11-38.73c-29.76-9.1-61.81-14.69-93-12.3
				c-22.38,1.72-49.51,8.38-60.37,30.36c-13.56,27.45-1.96,60.22,11.94,85.06c16.71,29.88,40.53,56.84,67.74,77.58
				c9.97,7.6,20.88,14.89,32.87,18.87c6.85,2.27,14.44,3.55,20.62-0.93c6.39-4.63,10.48-12.27,13.75-19.25
				c4.95-10.6,8.42-21.89,11.26-33.23c7.06-28.21,10.4-57.59,10.52-86.66c0.11-26.3-1.85-54.65-12.9-78.91
				c-3.97-8.71-9.5-17.05-17.43-22.62c-10.11-7.11-23.15-7.6-35.04-6.08c-36.59,4.66-66.7,32.71-86.91,61.84
				c-10.14,14.62-18.56,30.67-24.06,47.63c-4.03,12.4-7.78,27.67-4.7,40.72c1.88,7.96,8.37,13.91,14.91,18.28
				c9.63,6.42,20.82,10.53,31.84,13.84c28.84,8.66,59.4,12.19,89.4,13.48c27.28,1.17,55.89,1,82.54-5.65
				c8.47-2.11,32.84-9.23,25.8-22.71c-2.84-5.44-9-9.08-14.12-12.02c-8.55-4.91-17.7-8.77-26.82-12.48
				c-24.75-10.05-50.11-18.55-75.07-28.08c-23.94-9.13-48.55-18.64-70.03-32.85c-12.32-8.15-29.33-21.99-22.45-38.79
				c3.18-7.77,10.12-14.94,18.12-17.69c7.96-2.74,16.53-1.06,24.08,2.18c22.05,9.46,39.55,29.67,54.14,48.03
				c17.97,22.62,33.42,47.42,46.47,73.18c5.79,11.42,11.12,23.12,15.48,35.16c3.18,8.78,6.18,17.99,7.06,27.33
				c0.41,4.41,0.91,11.49-3.55,14.17c-5.49,3.3-11.75-1.23-15.41-5.14c-6.67-7.12-10.78-16.69-13.79-25.84
				c-3.98-12.09-6.09-24.8-6.52-37.51c-0.94-28.06,6.76-57.26,26.93-77.64c12.22-12.35,27.1-19.1,43.37-24.41
				c11.89-3.87,20.21-13.92,25.04-25.11c10.99-25.48,5.91-59.01-18.29-75.05c-7.87-5.21-18.48-10.1-28.12-7.64
				c-6.86,1.75-12.95,6.04-18.33,10.49c-17.07,14.1-30.39,33.01-42.55,51.3c-16.77,25.2-31.48,51.78-45.06,78.81
				c-14.01,27.89-26.79,56.42-38.08,85.52c-9.66,24.92-18.55,50.41-24.24,76.57c-2.02,9.31-3.69,18.8-4.07,28.33
				c-0.24,6.23-0.09,13.01,2.41,18.84c3.69,8.6,12.25,10.66,17.41,2.31c3.15-5.1,4.76-11.25,6.12-17.03
				c2.05-8.73,3.31-17.65,4.32-26.56c2.79-24.61,3.46-49.47,3.33-74.22c-0.15-27.95-1.48-55.91-4.18-83.73
				c-2.43-25.05-5.77-50.2-11.89-74.64c-3.81-15.24-8.46-33.47-19.59-45.24c-8.27-8.75-20.28-8.15-28.02,1.21
				c-10.81,13.06-7.3,34.11-4.02,49.19c5.8,26.63,16.83,52.19,28.8,76.56c13.68,27.87,29.47,54.76,46.99,80.38
				c14.97,21.89,31.21,43.55,50.52,61.82c9.32,8.81,24.46,23.35,38.8,20.31c3.85-0.81,8.63-3.07,7.69-7.77
				c-1.01-5.05-7.02-9.06-10.82-11.87c-18.64-13.78-40.24-23.97-60.71-34.67c-26.94-14.08-54.05-27.92-80.22-43.41
				c-11.32-6.7-22.51-13.7-33.09-21.54c-8.17-6.05-16.54-12.72-22.59-21c-3.38-4.62-6.9-10.9-4.45-16.69
				c2.42-5.74,8.87-9.24,14.21-11.72c19.77-9.16,43.25-11.33,64.7-12.76c29.27-1.95,58.8-1,87.93,2.37
				c27.57,3.19,55.5,8.47,81.36,18.82c17.75,7.1,39.21,18.18,46.1,37.44c7.05,19.72-3.23,41.42-17.74,54.76
				c-16.1,14.81-38.47,23.22-60.23,23.91c-20.52,0.65-42.09-6.44-53.06-24.89c-6.41-10.79-8.29-23.57-7.83-35.94
				c0.62-16.52,4.49-35.05,12.35-49.68c5.69-10.6,14.72-17.84,26.97-18.65c13.51-0.9,27.18,3.99,39.61,8.72
				c17.92,6.83,35.29,15.07,52.88,22.69c21.12,9.16,42.51,17.67,64.48,24.58c1.85,0.58,2.64-2.31,0.8-2.89
				c-23.83-7.5-46.96-16.89-69.82-26.92c-17.3-7.59-34.45-15.7-52.24-22.1c-12.16-4.37-25.65-8.57-38.72-6.78
				c-11.65,1.59-20.46,8.93-26.09,19.02c-7.67,13.73-11.4,30.73-12.83,46.29c-1.12,12.12-0.29,24.73,4.36,36.1
				c7.56,18.47,24.63,29.63,43.97,32.57c37.82,5.77,88.15-15.73,96.96-56.2c9.97-45.82-43.77-65.45-78.7-74.4
				c-27.19-6.97-55.28-10.52-83.28-12.03c-26.86-1.45-54.02-1.06-80.7,2.55c-16.94,2.29-37.33,5.2-51.37,15.89
				c-4.1,3.12-7.69,7.43-7.89,12.81c-0.24,6.52,3.92,12.67,7.88,17.47c14.28,17.32,35.51,29.52,54.56,40.79
				c25.36,15.01,51.61,28.47,77.72,42.1c20.46,10.69,41.69,20.93,60.68,34.16c3.44,2.4,11.25,6.93,11.93,11.69
				c0.51,3.59-5.63,4.56-8.4,4.53c-6.5-0.07-12.78-3.85-17.98-7.39c-8.27-5.62-15.59-12.63-22.5-19.82
				c-18.78-19.58-34.88-41.77-49.72-64.42c-16.63-25.4-31.67-51.92-44.52-79.43c-10.76-23.04-20.69-47.3-25.1-72.46
				c-2.41-13.73-4.72-35.23,9.1-44.12c10.64-6.85,19.42,1.52,24.75,10.65c9.48,16.25,13.64,35.86,17.19,54.12
				c4.91,25.24,7.71,50.89,9.57,76.52c1.96,27.06,2.78,54.22,2.35,81.34c-0.35,22.34-1.32,44.85-4.66,66.96
				c-1.16,7.7-2.57,15.46-5.01,22.88c-1.25,3.79-2.9,9.14-6.37,11.58c-8.39,5.89-11.35-13.04-11.49-17.56
				c-0.61-19.85,5.21-40.17,10.79-59.01c8.02-27.09,18.19-53.56,29.3-79.51c22.82-53.28,49.37-106.78,84.18-153.35
				c10.78-14.42,23.43-31.04,39.91-39.33c6.79-3.42,12.46-3.37,19.62-0.92c15.49,5.3,27.16,17.39,31.91,33.04
				c7.36,24.27-0.59,60.01-27.65,68.14c-28.63,8.6-51.72,27.62-62.81,55.71c-9.35,23.66-9.97,50.62-4.41,75.26
				c2.29,10.14,5.67,20.25,10.87,29.28c3.52,6.11,8.31,12.85,15.09,15.61c4.52,1.84,10.4,1.39,13.5-2.76
				c3.24-4.33,2.85-10.75,2.25-15.81c-2.43-20.7-12.07-41-21.22-59.46c-12.33-24.87-26.97-48.76-43.79-70.85
				c-14.41-18.93-30.92-38.34-51.66-50.57c-14.06-8.29-31.41-12.07-44.69-0.25c-11.99,10.68-15.02,25.9-5.06,38.94
				c12.18,15.95,32.78,25.5,50.53,33.65c24.36,11.18,49.67,20.2,74.83,29.38c21.21,7.74,43.17,14.93,63.11,25.69
				c5.29,2.85,12.01,6.31,15.23,11.65c2.71,4.5-0.26,8.38-4.03,11.14c-7.04,5.15-16.34,7.35-24.72,9.09
				c-12.83,2.67-25.96,3.83-39.04,4.4c-30.26,1.34-60.88-0.48-90.76-5.44c-13.59-2.26-27.13-5.19-40.23-9.5
				c-10.43-3.43-21.21-7.7-29.87-14.63c-7.33-5.86-10.53-12.48-10.67-21.84c-0.23-15.62,4.69-31.28,10.89-45.45
				c14.71-33.66,40.05-66.14,73.08-83.32c15.08-7.84,33.17-12.57,50.18-9.43c9.16,1.69,16.69,7.36,22.16,14.74
				c14.51,19.55,17.77,46.96,19.09,70.52c1.63,28.97-0.62,58.32-5.98,86.82c-2.38,12.67-5.41,25.27-9.63,37.46
				c-3.08,8.88-6.74,18.01-12.41,25.6c-3.99,5.34-8.6,8.98-15.5,8.34c-10.95-1.01-21.48-7.39-30.44-13.3
				c-27.76-18.31-51.71-44.17-69.69-72c-15.96-24.69-31.51-57.78-21.47-87.6c8.3-24.64,34.91-32.74,58.44-34.82
				c30.67-2.72,62.17,2.58,91.53,11.28c26.41,7.83,54.59,18.86,75.22,37.72c6.8,6.22,13.47,14.07,15.04,23.46
				c1.48,8.86-2.95,17.11-8.56,23.64c-16.77,19.54-43.27,31.15-66.73,40.22c-29.08,11.23-59.86,19.31-90.88,22.77
				c-12.69,1.42-25.6,2.1-38.34,0.83c-8.97-0.9-19.07-2.69-26.4-8.35c-15.88-12.27-2.33-35.77,5.93-48.35
				c15.99-24.36,37.65-45.25,59.75-64.02c21.95-18.65,45.84-36.43,72.04-48.68c11.79-5.51,32.71-14.88,42.08-0.48
				c7.12,10.93-5.41,24.41-12.61,31.53c-15.42,15.25-34.38,27.03-53.13,37.69c-23.64,13.44-48.36,25.04-73.65,35.01
				c-23.47,9.26-47.63,17.36-72.39,22.4c-16.18,3.29-36.1,7.1-52.13,1.06c-13.71-5.17-14.01-19-8.74-30.92
				c8.8-19.93,27.16-35.72,43.8-49.01c24-19.17,50.45-35.33,77.55-49.71c28.45-15.09,58.02-28.26,88.5-38.65
				c25.66-8.75,52.66-16.28,79.9-17.37c15.28-0.61,37.78,0.29,47.33,14.64c8.28,12.44,2.51,30.16-2.49,42.67
				c-8.68,21.7-22.02,41.61-35.79,60.36c-34.67,47.2-76.26,90.11-120.93,127.9c-19.07,16.13-39.02,31.65-60.67,44.19
				c-12.01,6.95-28.36,16.64-42.95,14.49c-14.23-2.09-16.8-21.25-17.67-32.71c-1.86-24.71,2.28-49.97,7.15-74.11
				c6.17-30.58,14.76-60.7,24.93-90.19c9.93-28.8,21.39-57.23,35.49-84.26c10.04-19.24,21.52-40.1,38.3-54.37
				c4.9-4.17,11.07-8.28,17.74-8.37c5.82-0.08,11,3.45,15.12,7.23c14.01,12.86,22.75,31.86,30.3,48.93
				c11.37,25.7,20.08,52.6,27.59,79.65c15.52,55.88,27.42,114.66,28.02,172.84c0.19,18.42,0.09,39.58-8.06,56.58
				c-2.49,5.19-6.1,10.21-11.65,12.36c-7.67,2.97-16.69,1.67-24.44-0.24c-24.66-6.07-47.41-20.65-68.04-34.95
				c-27.43-19-52.99-40.76-76.94-63.96c-22.58-21.87-44.12-45.23-62.37-70.88c-7.3-10.25-14.15-20.94-19.53-32.34
				c-3.82-8.09-7.3-17.05-7.5-26.11c-0.29-13.51,13.05-19.92,24.15-23.77c20.02-6.94,41.82-8.9,62.84-10.04
				c57.58-3.11,116.21,2.13,172.85,12.56c26.25,4.83,52.46,10.92,77.61,19.94c17.3,6.2,36.38,13.82,49.51,27.19
				c29.01,29.53-21,58.46-43.54,69.62c-25.47,12.61-52.66,21.76-80.02,29.29c-30.21,8.32-61.06,14.56-92.14,18.58
				c-28.62,3.7-57.72,5.73-86.57,3.91c-20.62-1.3-43.49-4.07-61.44-15.16c-8.54-5.28-21.75-18.14-15.2-29.34
				c6.08-10.38,23.1-12.59,33.7-14.04c21.4-2.93,43.34-2.29,64.83-0.97c26.58,1.64,53.06,4.88,79.34,9.1
				c26.25,4.22,52.37,9.43,78.16,15.92c21.19,5.33,42.42,11.35,62.61,19.78c7,2.92,13.96,6.16,20.34,10.3
				c3.8,2.47,8.35,5.6,10.28,9.9c4.1,9.11-8.36,12.1-14.76,10.83c-15.66-3.1-30.11-14.6-42.3-24.25
				c-19.65-15.56-37.68-33.18-54.94-51.33c-38.65-40.65-74.57-84.97-104.13-132.71c-10.97-17.72-21.74-36.37-28.01-56.35
				c-2.95-9.41-7.4-25.73,2.54-32.75c5.74-4.06,14.09-4.22,20.8-3.76c10.49,0.72,20.82,3.74,30.65,7.33
				c27.27,9.93,52.67,25.21,76.49,41.6c27.25,18.75,52.94,39.94,76.38,63.3c21.08,21,41.16,44.08,55.33,70.41
				c9.19,17.08,18.67,40.56,10.55,59.88c-5.54,13.19-21,16.82-33.91,17.51c-21.25,1.15-42.8-3.63-63.18-9.17
				c-26.39-7.16-52.12-16.76-77.25-27.5c-50.49-21.56-100.29-47.52-144.65-80.06c-14.81-10.86-30.56-22.89-41.14-38.15
				c-2.96-4.27-5.96-9.32-6.15-14.66c-0.2-5.35,3.43-9.18,7.35-12.38c7.09-5.79,15.91-9.49,24.46-12.52
				c11.59-4.11,23.61-6.97,35.67-9.27c30.15-5.75,60.99-8.03,91.65-8.46c32.81-0.46,65.81,1.29,98.23,6.46
				c25.9,4.13,52.97,10.06,76.03,23.08c8.49,4.8,16.78,10.85,22.25,19.06c5.49,8.23,7.42,18.15,7.48,27.92
				c0.19,26.98-11.08,53.91-22.85,77.65c-15.03,30.3-33.92,58.77-54.88,85.27c-18.92,23.91-39.79,46.94-63.76,65.91
				c-8.99,7.11-18.62,13.83-29.14,18.45c-6.08,2.67-14.2,5.77-20.91,3.8c-12.49-3.68-18.45-21.18-22.08-32.02
				c-7.18-21.46-10.61-44.22-13.04-66.64c-3.06-28.24-4.14-56.7-3.86-85.1c0.28-28.71,1.97-57.45,5.61-85.94
				c3.14-24.57,7.57-49.35,15.75-72.79c5.08-14.55,12.22-32.45,26-40.96c16.35-10.1,37.86,2.49,50.78,12.86
				c23.36,18.74,40.44,45.17,53.75,71.66c15.48,30.81,26.59,64.45,30.88,98.73c3.66,29.21,2.77,61.4-11.72,87.8
				c-17.48,31.84-55.4,49.19-89.59,55.93c-35.11,6.92-71.99,4.25-106.55-4.41c-25.73-6.45-54.21-16.07-74.32-34.14
				C60.9,294.67,58.77,296.78,60.21,298.07L60.21,298.07z"/>
		</g>
	</g>
	<g>
		<path fill="#737373" d="M66.8,439.89h-5.69v-26.71l5.69-0.61V439.89z M72.81,429.16l6.26,10.73h-6.41l-5.69-10.44l5.83-8.67h5.79
			L72.81,429.16z"/>
		<path fill="#737373" d="M98.37,425.92v13.97h-5.69v-12.99c0-2.02-0.68-2.56-1.8-2.56c-1.26,0-2.3,0.9-3.31,2.48v13.07h-5.69
			v-19.11h4.97l0.4,2.27c1.62-1.87,3.46-2.88,5.83-2.88C96.39,420.16,98.37,422.29,98.37,425.92z"/>
		<path fill="#737373" d="M121.19,430.35c0,6.12-3.53,10.15-9.36,10.15c-5.79,0-9.36-3.74-9.36-10.19c0-6.12,3.53-10.15,9.36-10.15
			S121.19,423.91,121.19,430.35z M108.38,430.31c0,4.25,1.15,6.01,3.46,6.01s3.46-1.84,3.46-5.98c0-4.25-1.15-6.01-3.46-6.01
			S108.38,426.17,108.38,430.31z"/>
		<path fill="#737373" d="M145.71,439.89h-6.8l-2.56-14.04l-2.52,14.04h-6.73l-4.07-19.11h5.76l1.98,14.87l2.99-14.87h5.54
			l2.63,14.87l2.3-14.87h5.43L145.71,439.89z"/>
		<path fill="#737373" d="M152.8,435.03v-21.85l5.69-0.61v22.25c0,0.79,0.29,1.19,0.97,1.19c0.4,0,0.68-0.07,0.94-0.18l1.12,4.03
			c-0.86,0.36-2.09,0.65-3.46,0.65C154.75,440.5,152.8,438.52,152.8,435.03z"/>
		<path fill="#737373" d="M180.77,432.01h-11.81c0.36,3.42,1.98,4.36,4.32,4.36c1.55,0,2.92-0.54,4.57-1.69l2.34,3.17
			c-1.91,1.51-4.36,2.66-7.45,2.66c-6.37,0-9.61-4.1-9.61-10.08c0-5.72,3.13-10.26,8.93-10.26c5.47,0,8.82,3.6,8.82,9.79
			C180.88,430.57,180.84,431.43,180.77,432.01z M175.3,428.33c-0.04-2.59-0.83-4.39-3.1-4.39c-1.91,0-2.99,1.19-3.28,4.64h6.37
			V428.33z"/>
		<path fill="#737373" d="M202.19,413.18v26.71h-5.04l-0.29-2.23c-1.08,1.58-2.84,2.84-5.44,2.84c-4.86,0-7.27-4.03-7.27-10.22
			c0-5.9,2.99-10.12,7.92-10.12c1.73,0,3.28,0.68,4.43,1.8v-9.39L202.19,413.18z M196.51,434.2v-8.28
			c-0.86-1.01-1.73-1.62-2.95-1.62c-2.05,0-3.49,1.73-3.49,6.01c0,4.75,1.3,6.01,3.17,6.01
			C194.56,436.33,195.61,435.61,196.51,434.2z"/>
		<path fill="#737373" d="M225.16,421.89c-1.33,0.54-3.1,0.76-5.51,0.76c2.41,1.04,3.6,2.45,3.6,4.93c0,3.71-3.06,6.41-8.03,6.41
			c-0.79,0-1.51-0.07-2.2-0.22c-0.4,0.22-0.61,0.65-0.61,1.08c0,0.58,0.25,1.15,2.09,1.15h2.88c4.46,0,7.31,2.34,7.31,5.54
			c0,3.92-3.46,6.33-10.01,6.33c-7.23,0-9.14-2.38-9.14-6.16h5.11c0,1.66,0.72,2.38,4.18,2.38c3.35,0,4.14-0.94,4.14-2.16
			c0-1.12-0.83-1.87-2.74-1.87h-2.77c-4.17,0-5.87-1.73-5.87-3.78c0-1.4,0.9-2.81,2.27-3.67c-2.45-1.3-3.42-2.99-3.42-5.47
			c0-4.32,3.38-6.98,8.39-6.98c4.25,0.11,6.7-1.12,9-2.48L225.16,421.89z M212.09,427.07c0,2.09,1.15,3.24,2.88,3.24
			c1.87,0,2.88-1.12,2.88-3.31c0-2.12-0.97-3.1-2.88-3.1C213.21,423.91,212.09,425.09,212.09,427.07z"/>
		<path fill="#737373" d="M244.49,432.01h-11.81c0.36,3.42,1.98,4.36,4.32,4.36c1.55,0,2.92-0.54,4.57-1.69l2.34,3.17
			c-1.91,1.51-4.36,2.66-7.45,2.66c-6.37,0-9.61-4.1-9.61-10.08c0-5.72,3.13-10.26,8.93-10.26c5.47,0,8.82,3.6,8.82,9.79
			C244.6,430.57,244.56,431.43,244.49,432.01z M239.02,428.33c-0.04-2.59-0.83-4.39-3.1-4.39c-1.91,0-2.99,1.19-3.28,4.64h6.37
			V428.33z"/>
		<path fill="#737373" d="M275.81,421.89c-1.33,0.54-3.1,0.76-5.51,0.76c2.41,1.04,3.6,2.45,3.6,4.93c0,3.71-3.06,6.41-8.03,6.41
			c-0.79,0-1.51-0.07-2.2-0.22c-0.4,0.22-0.61,0.65-0.61,1.08c0,0.58,0.25,1.15,2.09,1.15h2.88c4.46,0,7.31,2.34,7.31,5.54
			c0,3.92-3.46,6.33-10.01,6.33c-7.23,0-9.14-2.38-9.14-6.16h5.11c0,1.66,0.72,2.38,4.18,2.38c3.35,0,4.14-0.94,4.14-2.16
			c0-1.12-0.83-1.87-2.74-1.87h-2.77c-4.17,0-5.87-1.73-5.87-3.78c0-1.4,0.9-2.81,2.27-3.67c-2.45-1.3-3.42-2.99-3.42-5.47
			c0-4.32,3.38-6.98,8.39-6.98c4.25,0.11,6.7-1.12,9-2.48L275.81,421.89z M262.75,427.07c0,2.09,1.15,3.24,2.88,3.24
			c1.87,0,2.88-1.12,2.88-3.31c0-2.12-0.97-3.1-2.88-3.1C263.86,423.91,262.75,425.09,262.75,427.07z"/>
		<path fill="#737373" d="M291.22,420.49l-0.9,5.51c-0.61-0.14-1.08-0.25-1.73-0.25c-2.34,0-3.35,1.73-3.96,4.61v9.54h-5.69v-19.11
			h4.97l0.47,3.67c0.86-2.63,2.74-4.21,4.93-4.21C290.03,420.24,290.61,420.31,291.22,420.49z"/>
		<path fill="#737373" d="M310.05,436.69l-1.19,3.71c-2.23-0.18-3.71-0.86-4.61-2.74c-1.37,2.09-3.49,2.84-5.76,2.84
			c-3.82,0-6.23-2.48-6.23-5.98c0-4.18,3.17-6.44,8.96-6.44h1.94v-0.83c0-2.27-0.9-2.95-3.24-2.95c-1.22,0-3.1,0.36-5,1.01
			l-1.3-3.74c2.41-0.9,5.04-1.4,7.2-1.4c5.54,0,7.92,2.34,7.92,6.77v7.42C308.75,435.82,309.15,436.36,310.05,436.69z
			 M303.17,434.63v-3.42h-1.4c-2.59,0-3.85,0.9-3.85,2.81c0,1.51,0.83,2.41,2.23,2.41C301.44,436.43,302.49,435.75,303.17,434.63z"
			/>
		<path fill="#737373" d="M332.12,430.28c0,5.9-2.88,10.22-7.59,10.22c-1.87,0-3.46-0.65-4.64-2.02v8.78l-5.69,0.61v-27.1h5
			l0.29,2.12c1.58-1.98,3.63-2.74,5.4-2.74C329.92,420.16,332.12,424.09,332.12,430.28z M326.21,430.35c0-4.75-1.15-6.01-3.13-6.01
			c-1.22,0-2.38,0.83-3.2,2.23v8.06c0.79,1.15,1.73,1.69,2.92,1.69C324.92,436.33,326.21,434.63,326.21,430.35z"/>
		<path fill="#737373" d="M353.07,425.92v13.97h-5.69v-12.99c0-2.02-0.72-2.56-1.8-2.56c-1.26,0-2.3,0.9-3.31,2.45v13.1h-5.69
			v-26.71l5.69-0.58v10.19c1.55-1.73,3.28-2.63,5.51-2.63C351.09,420.16,353.07,422.29,353.07,425.92z"/>
	</g>
</g>
<g id="Annotations">
</g>
<g id="Browser">
	<g>
		<g>
			<path fill="#F5F4F8" d="M1280.27,450.19c0,5.4-4.41,9.81-9.81,9.81H883.5c-5.4,0-9.81-4.42-9.81-9.81V9.64
				c0-5.4,4.41-9.81,9.81-9.81h386.96c5.4,0,9.81,4.41,9.81,9.81V450.19z"/>
		</g>
		<path fill="#D8D5E3" d="M1280.27,52.16H873.69V5.13c0-2.93,2.38-5.31,5.31-5.31h395.97c2.93,0,5.31,2.38,5.31,5.31V52.16z"/>
		<path fill="#DC9B72" d="M904.9,25.99c0,3.61-2.93,6.54-6.54,6.54c-3.61,0-6.54-2.93-6.54-6.54s2.93-6.54,6.54-6.54
			C901.97,19.45,904.9,22.38,904.9,25.99z"/>
		<path fill="#B0ABC7" d="M927.15,25.99c0,3.61-2.93,6.54-6.54,6.54c-3.61,0-6.54-2.93-6.54-6.54s2.93-6.54,6.54-6.54
			C924.23,19.45,927.15,22.38,927.15,25.99z"/>
		<path fill="#8981AA" d="M949.41,25.99c0,3.61-2.93,6.54-6.54,6.54c-3.61,0-6.54-2.93-6.54-6.54s2.93-6.54,6.54-6.54
			C946.48,19.45,949.41,22.38,949.41,25.99z"/>
		<g>
			<path fill="#FFFFFF" d="M996.37,39.89h-26.92c-0.24,0-0.44-0.2-0.44-0.44V12.53c0-0.24,0.2-0.44,0.44-0.44h26.92
				c0.24,0,0.44,0.2,0.44,0.44v26.92C996.81,39.69,996.62,39.89,996.37,39.89z"/>
			<g>
				<path fill="#8981AA" d="M985.37,34.98c-0.21,0-0.42-0.08-0.58-0.24l-8.17-8.18c-0.32-0.32-0.32-0.84,0-1.16l8.17-8.18
					c0.32-0.32,0.84-0.32,1.16,0c0.32,0.32,0.32,0.84,0,1.16l-7.6,7.6l7.6,7.6c0.32,0.32,0.32,0.84,0,1.16
					C985.78,34.9,985.58,34.98,985.37,34.98z"/>
			</g>
		</g>
		<g>
			<path fill="#FFFFFF" d="M1028.41,39.89h-26.92c-0.24,0-0.44-0.2-0.44-0.44V12.53c0-0.24,0.2-0.44,0.44-0.44h26.92
				c0.24,0,0.44,0.2,0.44,0.44v26.92C1028.85,39.69,1028.65,39.89,1028.41,39.89z"/>
			<g>
				<path fill="#8981AA" d="M1012.5,34.98c-0.21,0-0.42-0.08-0.58-0.24c-0.32-0.32-0.32-0.84,0-1.16l7.6-7.6l-7.6-7.6
					c-0.32-0.32-0.32-0.84,0-1.16c0.32-0.32,0.84-0.32,1.16,0l8.17,8.18c0.32,0.32,0.32,0.84,0,1.16l-8.17,8.18
					C1012.92,34.9,1012.71,34.98,1012.5,34.98z"/>
			</g>
		</g>
		<g>
			<g>
				<path fill="#FFFFFF" d="M1038.83,39.45V12.53c0-0.24,0.2-0.44,0.44-0.44h222.07c0.24,0,0.44,0.2,0.44,0.44v26.92
					c0,0.24-0.2,0.44-0.44,0.44h-222.07C1039.02,39.89,1038.83,39.69,1038.83,39.45z"/>
			</g>
			<g>
				<g>
					<path fill="#8981AA" d="M1052.7,30.7c-1.68,0-3.36-0.64-4.64-1.92c-1.24-1.24-1.92-2.89-1.92-4.64c0-1.75,0.68-3.4,1.92-4.64
						c2.56-2.56,6.72-2.56,9.28,0c0,0,0,0,0,0c2.56,2.56,2.56,6.72,0,9.28C1056.06,30.06,1054.38,30.7,1052.7,30.7z M1052.7,19.22
						c-1.26,0-2.52,0.48-3.48,1.44c-0.93,0.93-1.44,2.17-1.44,3.48c0,1.32,0.51,2.55,1.44,3.48c1.92,1.92,5.05,1.92,6.97,0
						c1.92-1.92,1.92-5.04,0-6.96C1055.22,19.7,1053.96,19.22,1052.7,19.22z"/>
				</g>
				<g>
					<path fill="#8981AA" d="M1062.13,34.39c-0.21,0-0.42-0.08-0.58-0.24l-5.37-5.37c-0.32-0.32-0.32-0.84,0-1.16
						c0.32-0.32,0.84-0.32,1.16,0l5.37,5.37c0.32,0.32,0.32,0.84,0,1.16C1062.55,34.31,1062.34,34.39,1062.13,34.39z"/>
				</g>
			</g>
		</g>
	</g>
</g>
<g id="App">
	<g>
		<path fill="#3A2D72" d="M904,400c0,16.57,13.43,30,30,30h286c16.57,0,30-13.43,30-30V112c0-16.57-13.43-30-30-30H934
			c-16.57,0-30,13.43-30,30V400z"/>
	</g>
	<g>
		<path fill="#FFFFFF" d="M924,305c0,16.57,13.43,30,30,30h246c16.57,0,30-13.43,30-30V132c0-16.57-13.43-30-30-30H954
			c-16.57,0-30,13.43-30,30V305z"/>
	</g>
	<g>
		<path fill="#FFFFFF" d="M998.03,389.69l-1.19,3.71c-2.23-0.18-3.71-0.86-4.61-2.74c-1.37,2.09-3.49,2.84-5.76,2.84
			c-3.82,0-6.23-2.48-6.23-5.98c0-4.18,3.17-6.44,8.96-6.44h1.94v-0.83c0-2.27-0.9-2.95-3.24-2.95c-1.22,0-3.1,0.36-5,1.01
			l-1.3-3.74c2.41-0.9,5.04-1.4,7.2-1.4c5.54,0,7.92,2.34,7.92,6.77v7.42C996.74,388.82,997.13,389.36,998.03,389.69z
			 M991.16,387.63v-3.42h-1.4c-2.59,0-3.85,0.9-3.85,2.81c0,1.51,0.83,2.41,2.23,2.41C989.43,389.43,990.47,388.75,991.16,387.63z"
			/>
		<path fill="#FFFFFF" d="M1020.1,383.28c0,5.9-2.88,10.22-7.59,10.22c-1.87,0-3.46-0.65-4.64-2.02v8.78l-5.69,0.61v-27.1h5
			l0.29,2.12c1.58-1.98,3.63-2.74,5.4-2.74C1017.91,373.16,1020.1,377.09,1020.1,383.28z M1014.2,383.35c0-4.75-1.15-6.01-3.13-6.01
			c-1.22,0-2.38,0.83-3.2,2.23v8.06c0.79,1.15,1.73,1.69,2.92,1.69C1012.9,389.33,1014.2,387.63,1014.2,383.35z"/>
		<path fill="#FFFFFF" d="M1042.49,383.28c0,5.9-2.88,10.22-7.59,10.22c-1.87,0-3.46-0.65-4.64-2.02v8.78l-5.69,0.61v-27.1h5
			l0.29,2.12c1.58-1.98,3.63-2.74,5.4-2.74C1040.3,373.16,1042.49,377.09,1042.49,383.28z M1036.59,383.35
			c0-4.75-1.15-6.01-3.13-6.01c-1.22,0-2.38,0.83-3.2,2.23v8.06c0.79,1.15,1.73,1.69,2.92,1.69
			C1035.29,389.33,1036.59,387.63,1036.59,383.35z"/>
		<path fill="#FFFFFF" d="M1046.78,388.03v-21.85l5.69-0.61v22.25c0,0.79,0.29,1.19,0.97,1.19c0.4,0,0.68-0.07,0.94-0.18l1.12,4.03
			c-0.86,0.36-2.09,0.65-3.46,0.65C1048.72,393.5,1046.78,391.52,1046.78,388.03z"/>
		<path fill="#FFFFFF" d="M1064.74,366.94c0,1.84-1.4,3.24-3.38,3.24c-1.98,0-3.35-1.4-3.35-3.24c0-1.83,1.37-3.24,3.35-3.24
			C1063.34,363.7,1064.74,365.1,1064.74,366.94z M1064.24,392.89h-5.69v-19.11h5.69V392.89z"/>
		<path fill="#FFFFFF" d="M1084.43,375.5l-2.45,3.38c-1.22-0.94-2.34-1.37-3.64-1.37c-2.45,0-3.85,1.66-3.85,5.94
			c0,4.25,1.51,5.54,3.78,5.54c1.37,0,2.3-0.43,3.67-1.3l2.48,3.53c-1.76,1.4-3.82,2.27-6.44,2.27c-5.87,0-9.47-3.96-9.47-10.01
			c0-6.08,3.63-10.33,9.36-10.33C1080.54,373.16,1082.6,373.96,1084.43,375.5z"/>
		<path fill="#FFFFFF" d="M1104.23,389.69l-1.19,3.71c-2.23-0.18-3.71-0.86-4.61-2.74c-1.37,2.09-3.49,2.84-5.76,2.84
			c-3.82,0-6.23-2.48-6.23-5.98c0-4.18,3.17-6.44,8.96-6.44h1.94v-0.83c0-2.27-0.9-2.95-3.24-2.95c-1.22,0-3.1,0.36-5,1.01
			l-1.3-3.74c2.41-0.9,5.04-1.4,7.2-1.4c5.54,0,7.92,2.34,7.92,6.77v7.42C1102.93,388.82,1103.33,389.36,1104.23,389.69z
			 M1097.36,387.63v-3.42h-1.4c-2.59,0-3.85,0.9-3.85,2.81c0,1.51,0.83,2.41,2.23,2.41
			C1095.63,389.43,1096.67,388.75,1097.36,387.63z"/>
		<path fill="#FFFFFF" d="M1120.36,391.99c-1.44,1.01-3.46,1.51-5.18,1.51c-4.21-0.04-6.26-2.41-6.26-6.91v-8.86h-2.7v-3.96h2.7
			v-4.14l5.69-0.65v4.79h4.39l-0.61,3.96h-3.78v8.78c0,1.84,0.61,2.48,1.8,2.48c0.65,0,1.3-0.18,2.05-0.65L1120.36,391.99z"/>
		<path fill="#FFFFFF" d="M1129.36,366.94c0,1.84-1.4,3.24-3.38,3.24c-1.98,0-3.35-1.4-3.35-3.24c0-1.83,1.37-3.24,3.35-3.24
			C1127.96,363.7,1129.36,365.1,1129.36,366.94z M1128.85,392.89h-5.69v-19.11h5.69V392.89z"/>
		<path fill="#FFFFFF" d="M1151.86,383.35c0,6.12-3.53,10.15-9.36,10.15c-5.79,0-9.36-3.74-9.36-10.19c0-6.12,3.53-10.15,9.36-10.15
			S1151.86,376.91,1151.86,383.35z M1139.04,383.31c0,4.25,1.15,6.01,3.46,6.01s3.46-1.84,3.46-5.98c0-4.25-1.15-6.01-3.46-6.01
			S1139.04,379.17,1139.04,383.31z"/>
		<path fill="#FFFFFF" d="M1172.63,378.92v13.97h-5.69v-12.99c0-2.02-0.68-2.56-1.8-2.56c-1.26,0-2.3,0.9-3.31,2.48v13.07h-5.69
			v-19.11h4.97l0.4,2.27c1.62-1.87,3.46-2.88,5.83-2.88C1170.65,373.16,1172.63,375.29,1172.63,378.92z"/>
	</g>
</g>
<g id="Arrows">
	<g>
		<g>
			<linearGradient id="SVGID_2_" gradientUnits="userSpaceOnUse" x1="447" y1="223" x2="1015" y2="223">
				<stop  offset="0.2" style="stop-color:#C45814"/>
				<stop  offset="0.8" style="stop-color:#61578E"/>
			</linearGradient>
			<line fill="none" stroke="url(#SVGID_2_)" stroke-width="8" x1="475.7" y1="223" x2="1015" y2="223"/>
			<g>
				<linearGradient id="SVGID_4_" gradientUnits="userSpaceOnUse" x1="447" y1="223" x2="1015" y2="223">
					<stop  offset="0.2" style="stop-color:#C45814"/>
					<stop  offset="0.8" style="stop-color:#61578E"/>
				</linearGradient>
				<polygon fill="url(#SVGID_4_)" points="481.54,242.94 447,223 481.54,203.06 				"/>
			</g>
		</g>
	</g>
</g>
<g id="Results">
	<g>
		<path fill="#61578E" d="M1104.18,195.73c0,19.44-21.6,18.12-21.6,31.56v3h-17.28v-3.72c0-20.76,19.08-19.32,19.08-29.16
			c0-4.32-3.12-6.84-8.4-6.84c-4.92,0-9.72,2.4-14.04,7.32l-12.12-9.36c6.84-8.04,15.72-12.84,28.08-12.84
			C1095.42,175.69,1104.18,185.05,1104.18,195.73z M1084.98,252.01c0,6-4.8,10.92-10.8,10.92s-10.8-4.92-10.8-10.92
			c0-5.88,4.8-10.8,10.8-10.8S1084.98,246.13,1084.98,252.01z"/>
	</g>
	<g>
		<path fill="#C45814" d="M744.18,132.73c0,19.44-21.6,18.12-21.6,31.56v3H705.3v-3.72c0-20.76,19.08-19.32,19.08-29.16
			c0-4.32-3.12-6.84-8.4-6.84c-4.92,0-9.72,2.4-14.04,7.32l-12.12-9.36c6.84-8.04,15.72-12.84,28.08-12.84
			C735.42,112.69,744.18,122.05,744.18,132.73z M724.98,189.01c0,6-4.8,10.92-10.8,10.92s-10.8-4.92-10.8-10.92
			c0-5.88,4.8-10.8,10.8-10.8S724.98,183.13,724.98,189.01z"/>
	</g>
</g>
</svg>
