<?xml version="1.0" encoding="utf-8"?>
<!DOCTYPE svg PUBLIC "-//W3C//DTD SVG 1.1//EN" "http://www.w3.org/Graphics/SVG/1.1/DTD/svg11.dtd">
<svg version="1.1" xmlns="http://www.w3.org/2000/svg" xmlns:xlink="http://www.w3.org/1999/xlink" width="640" height="340">
<symbol id="agenda" viewBox="-45.5 -30.5 91 61">
	<g>
		<polygon fill="#D9D5E5" stroke="#8B80A9" points="-45,-30 45,-30 45,30 -45,30"/>
		<line fill="#D9D5E5" stroke="#8B80A9" x1="27" y1="-30" x2="27" y2="30"/>
		<line fill="#D9D5E5" stroke="#8B80A9" x1="9.01" y1="-30" x2="9.01" y2="30"/>
		<line fill="#D9D5E5" stroke="#8B80A9" x1="-9.01" y1="-30" x2="-9.01" y2="30"/>
		<line fill="#D9D5E5" stroke="#8B80A9" x1="-27" y1="-30" x2="-27" y2="30"/>
	</g>
	<polygon fill="#8B80A9" points="-27,11.37 -45,11.37 -45,19.62 -27,19.62"/>
	<polygon fill="#8B80A9" points="45,15.5 27,15.5 27,23.75 45,23.75"/>
	<polygon fill="#8B80A9" points="9,13.79 -9,13.79 -9,19.62 9,19.62"/>
	<polygon fill="#8B80A9" points="9,-19.46 -9,-19.46 -9,-13.63 9,-13.63"/>
	<polygon fill="#8B80A9" points="45,-13.63 27,-13.63 27,-7.79 45,-7.79"/>
	<polygon fill="#8B80A9" points="-8.5,-6.54 -26.49,-6.54 -26.49,5.5 -8.5,5.5"/>
	<polygon fill="#8B80A9" points="26.99,-6.54 9,-6.54 9,5.5 26.99,5.5"/>
	<polygon fill="none" stroke="#3D2C70" points="45,-30 -45,-30 -45,30 45,30"/>
</symbol>
<symbol id="contacts" viewBox="-50.17 -27.83 100.33 55.67">
	<polygon fill="#D9D5E5" stroke="#3D2C70" points="37.67,-14 -49.67,-14 -49.67,27.33 37.67,27.33"/>
	<polygon fill="#D9D5E5" stroke="#3D2C70" points="43.67,-20.67 -43.67,-20.67 -43.67,20.67 43.67,20.67"/>
	<g>
		<polygon fill="#D9D5E5" stroke="#3D2C70" points="49.67,-27.33 -37.67,-27.33 -37.67,14 49.67,14"/>
		<path fill="#8B80A9" d="M-10.7-2.66c0,5.31-4.3,9.62-9.62,9.62s-9.62-4.31-9.62-9.62c0-3.54,1.62-6.12,4.47-7.79l-3.88-6.41
			c2.56-1.75,5.66-2.78,9-2.78c3.53,0,6.78,1.16,9.43,3.09l-4.13,5.85C-12.43-8.98-10.7-6.02-10.7-2.66z"/>
		<polygon fill="#8B80A9" points="10.67,-0.51 -6,-0.51 -6,4.33 10.67,4.33"/>
		<polygon fill="#8B80A9" points="45,-0.51 14.17,-0.51 14.17,4.33 45,4.33"/>
		<polygon fill="#8B80A9" points="45,-6.67 -6,-6.67 -6,-3.92 45,-3.92"/>
		<polygon fill="#8B80A9" points="45,-12.88 -6,-12.88 -6,-10.13 45,-10.13"/>
		<polygon fill="#8B80A9" points="45,-19.08 -6,-19.08 -6,-16.33 45,-16.33"/>
	</g>
</symbol>
<symbol id="pictures" viewBox="-54.86 -29.7 109.71 59.4">
	<polygon fill="#D9D5E5" stroke="#3D2C70" points="5.95,-19.83 -54.36,-19.83 -54.36,20.74 5.95,20.74"/>
	<polygon fill="#D9D5E5" stroke="#3D2C70" points="54.36,-25.1 -5.95,-25.1 -5.95,15.47 54.36,15.47"/>
	<polygon fill="#D9D5E5" stroke="#3D2C70" points="33.31,-11.37 -26.99,-11.37 -26.99,29.2 33.31,29.2"/>
	<polygon fill="#D9D5E5" stroke="#3D2C70" points="24.21,-29.2 -36.1,-29.2 -36.1,11.37 24.21,11.37"/>
</symbol>
<g>
	<path fill="#3D2C70" d="M0,313c0,11.05,8.95,20,20,20h95.22c11.05,0,20-8.95,20-20V53c0-11.05-8.95-20-20-20H20
		C8.95,33,0,41.95,0,53V313z"/>
</g>
<g>
	<path fill="#FFFFFF" d="M38.96,44.36h-3.48v2.76h3.03v1.75h-3.03V53h-2.46V42.6h6.2L38.96,44.36z"/>
	<path fill="#FFFFFF" d="M46.78,51.66l-0.5,1.54c-0.93-0.08-1.54-0.36-1.92-1.14c-0.57,0.87-1.46,1.19-2.4,1.19
		c-1.59,0-2.6-1.03-2.6-2.49c0-1.74,1.32-2.69,3.74-2.69h0.81v-0.34c0-0.95-0.38-1.23-1.35-1.23c-0.51,0-1.29,0.15-2.08,0.42
		l-0.54-1.56c1-0.38,2.1-0.58,3-0.58c2.31,0,3.3,0.98,3.3,2.82v3.09C46.24,51.3,46.4,51.53,46.78,51.66z M43.91,50.81v-1.42h-0.58
		c-1.08,0-1.6,0.38-1.6,1.17c0,0.63,0.34,1,0.93,1C43.19,51.56,43.63,51.27,43.91,50.81z"/>
	<path fill="#FFFFFF" d="M54.46,45.75l-1.02,1.41c-0.51-0.39-0.97-0.57-1.51-0.57c-1.02,0-1.61,0.69-1.61,2.48
		c0,1.77,0.63,2.31,1.58,2.31c0.57,0,0.96-0.18,1.53-0.54l1.03,1.47c-0.73,0.58-1.59,0.94-2.68,0.94c-2.45,0-3.95-1.65-3.95-4.17
		c0-2.53,1.52-4.3,3.9-4.3C52.84,44.78,53.69,45.11,54.46,45.75z"/>
	<path fill="#FFFFFF" d="M62.36,49.71h-4.92c0.15,1.42,0.82,1.81,1.8,1.81c0.64,0,1.21-0.23,1.9-0.71l0.98,1.32
		c-0.79,0.63-1.82,1.11-3.11,1.11c-2.65,0-4-1.71-4-4.2c0-2.38,1.31-4.27,3.72-4.27c2.28,0,3.67,1.5,3.67,4.08
		C62.41,49.11,62.39,49.47,62.36,49.71z M60.08,48.18c-0.01-1.08-0.34-1.83-1.29-1.83c-0.79,0-1.25,0.49-1.37,1.93h2.66V48.18z"/>
	<path fill="#FFFFFF" d="M71.39,49.02c0,2.46-1.18,4.23-3.17,4.23c-0.88,0-1.6-0.38-2.08-1.02L66.02,53h-2.1V41.87l2.37-0.26v4.23
		c0.46-0.65,1.28-1.06,2.1-1.06C70.35,44.78,71.39,46.35,71.39,49.02z M68.93,49.02c0-2.03-0.54-2.5-1.27-2.5
		c-0.57,0-1.02,0.34-1.37,0.93v3.3c0.3,0.5,0.74,0.78,1.26,0.78C68.36,51.53,68.93,50.88,68.93,49.02z"/>
	<path fill="#FFFFFF" d="M80.38,49.02c0,2.55-1.47,4.23-3.9,4.23c-2.42,0-3.9-1.56-3.9-4.24c0-2.55,1.47-4.23,3.9-4.23
		S80.38,46.34,80.38,49.02z M75.04,49.01c0,1.77,0.48,2.5,1.44,2.5s1.44-0.77,1.44-2.49c0-1.77-0.48-2.5-1.44-2.5
		S75.04,47.28,75.04,49.01z"/>
	<path fill="#FFFFFF" d="M89.28,49.02c0,2.55-1.47,4.23-3.9,4.23c-2.42,0-3.9-1.56-3.9-4.24c0-2.55,1.47-4.23,3.9-4.23
		S89.28,46.34,89.28,49.02z M83.94,49.01c0,1.77,0.48,2.5,1.44,2.5s1.44-0.77,1.44-2.49c0-1.77-0.48-2.5-1.44-2.5
		S83.94,47.28,83.94,49.01z"/>
	<path fill="#FFFFFF" d="M93.22,53h-2.37V41.87l2.37-0.26V53z M95.72,48.53L98.33,53h-2.67l-2.37-4.35l2.43-3.62h2.42L95.72,48.53z"
		/>
</g>
<g>
	<path fill="#3D2C70" d="M165.28,133c0,11.05,8.95,20,20,20h95.22c11.05,0,20-8.95,20-20V53c0-11.05-8.95-20-20-20h-95.22
		c-11.05,0-20,8.95-20,20V133z"/>
</g>
<g>
	<path fill="#FFFFFF" d="M203.83,51.05h4.05L207.62,53h-6.25V42.6h2.46V51.05z"/>
	<path fill="#FFFFFF" d="M211.75,42.18c0,0.76-0.58,1.35-1.41,1.35c-0.82,0-1.39-0.58-1.39-1.35c0-0.77,0.57-1.35,1.39-1.35
		C211.16,40.83,211.75,41.42,211.75,42.18z M211.54,53h-2.37v-7.96h2.37V53z"/>
	<path fill="#FFFFFF" d="M220.42,47.18V53h-2.37v-5.41c0-0.84-0.29-1.06-0.75-1.06c-0.52,0-0.96,0.37-1.38,1.03V53h-2.37v-7.96h2.07
		l0.17,0.95c0.67-0.78,1.44-1.2,2.43-1.2C219.59,44.78,220.42,45.66,220.42,47.18z"/>
	<path fill="#FFFFFF" d="M224.72,53h-2.37V41.87l2.37-0.26V53z M227.22,48.53l2.61,4.47h-2.67l-2.37-4.35l2.43-3.62h2.42
		L227.22,48.53z"/>
	<path fill="#FFFFFF" d="M237.44,49.71h-4.92c0.15,1.42,0.82,1.81,1.8,1.81c0.64,0,1.21-0.23,1.9-0.71l0.98,1.32
		c-0.79,0.63-1.82,1.11-3.11,1.11c-2.65,0-4-1.71-4-4.2c0-2.38,1.3-4.27,3.72-4.27c2.28,0,3.67,1.5,3.67,4.08
		C237.49,49.11,237.47,49.47,237.44,49.71z M235.16,48.18c-0.01-1.08-0.34-1.83-1.29-1.83c-0.79,0-1.25,0.49-1.37,1.93h2.66V48.18z"
		/>
	<path fill="#FFFFFF" d="M246.14,41.87V53h-2.1l-0.12-0.93c-0.45,0.66-1.18,1.19-2.26,1.19c-2.03,0-3.03-1.68-3.03-4.26
		c0-2.46,1.25-4.21,3.3-4.21c0.72,0,1.37,0.29,1.85,0.75v-3.92L246.14,41.87z M243.77,50.63v-3.45c-0.36-0.42-0.72-0.67-1.23-0.67
		c-0.85,0-1.46,0.72-1.46,2.5c0,1.98,0.54,2.5,1.32,2.5C242.96,51.51,243.4,51.21,243.77,50.63z"/>
	<path fill="#FFFFFF" d="M250.65,53h-2.46V42.6h2.46V53z"/>
	<path fill="#FFFFFF" d="M259.56,47.18V53h-2.37v-5.41c0-0.84-0.29-1.06-0.75-1.06c-0.52,0-0.96,0.37-1.38,1.03V53h-2.37v-7.96h2.07
		l0.17,0.95c0.67-0.78,1.44-1.2,2.43-1.2C258.74,44.78,259.56,45.66,259.56,47.18z"/>
</g>
<g>
	<path fill="#3D2C70" d="M165.28,313c0,11.05,8.95,20,20,20h95.22c11.05,0,20-8.95,20-20v-80c0-11.05-8.95-20-20-20h-95.22
		c-11.05,0-20,8.95-20,20V313z"/>
</g>
<g>
	<path fill="#FFFFFF" d="M214.85,227.79c0,4.19-2.52,5.25-5.17,5.25h-3.12v-10.39h2.9C212.22,222.64,214.85,223.5,214.85,227.79z
		 M209.01,224.43v6.82h0.81c1.48,0,2.47-0.71,2.47-3.46c0-2.79-1.07-3.36-2.5-3.36H209.01z"/>
	<path fill="#FFFFFF" d="M223.77,229.06c0,2.55-1.47,4.23-3.9,4.23c-2.42,0-3.9-1.56-3.9-4.25c0-2.55,1.47-4.23,3.9-4.23
		S223.77,226.38,223.77,229.06z M218.43,229.05c0,1.77,0.48,2.51,1.44,2.51s1.44-0.77,1.44-2.49c0-1.77-0.48-2.5-1.44-2.5
		S218.43,227.32,218.43,229.05z"/>
	<path fill="#FFFFFF" d="M232.68,229.06c0,2.55-1.47,4.23-3.9,4.23c-2.42,0-3.9-1.56-3.9-4.25c0-2.55,1.47-4.23,3.9-4.23
		S232.68,226.38,232.68,229.06z M227.34,229.05c0,1.77,0.48,2.51,1.44,2.51s1.44-0.77,1.44-2.49c0-1.77-0.48-2.5-1.44-2.5
		S227.34,227.32,227.34,229.05z"/>
	<path fill="#FFFFFF" d="M241.38,221.91v11.13h-2.1l-0.12-0.93c-0.45,0.66-1.18,1.18-2.26,1.18c-2.03,0-3.03-1.68-3.03-4.26
		c0-2.46,1.25-4.21,3.3-4.21c0.72,0,1.37,0.29,1.85,0.75v-3.92L241.38,221.91z M239.01,230.67v-3.45c-0.36-0.42-0.72-0.67-1.23-0.67
		c-0.85,0-1.46,0.72-1.46,2.5c0,1.98,0.54,2.51,1.32,2.51C238.2,231.55,238.64,231.25,239.01,230.67z"/>
	<path fill="#FFFFFF" d="M243.32,231.01v-9.1l2.37-0.26v9.27c0,0.33,0.12,0.5,0.41,0.5c0.17,0,0.29-0.03,0.39-0.08l0.46,1.68
		c-0.36,0.15-0.87,0.27-1.44,0.27C244.13,233.29,243.32,232.47,243.32,231.01z"/>
	<path fill="#FFFFFF" d="M254.75,229.75h-4.92c0.15,1.43,0.82,1.82,1.8,1.82c0.64,0,1.21-0.23,1.9-0.71l0.98,1.32
		c-0.79,0.63-1.82,1.11-3.11,1.11c-2.65,0-4-1.71-4-4.2c0-2.38,1.31-4.27,3.72-4.27c2.28,0,3.67,1.5,3.67,4.08
		C254.79,229.15,254.78,229.51,254.75,229.75z M252.47,228.22c-0.01-1.08-0.34-1.83-1.29-1.83c-0.79,0-1.25,0.49-1.37,1.93h2.66
		V228.22z"/>
</g>
<g>
	<clipPath id="right">
		<rect id="SVGID_1_" x="320" y="-60" width="320" height="400"/>
	</clipPath>
	<ellipse clip-path="url(#right)" fill="#EFEEF3" stroke="#3D2C70" stroke-width="4" cx="474.33" cy="241.83" rx="269.33" ry="95.5"/>
</g>
<line fill="none" stroke="#222222" stroke-width="2" x1="320" y1="0" x2="320" y2="340"/>
<g>
	<path fill="#3D2C70" d="M464.56,300.01c0,2.31-1.05,5.43-4.25,5.43c-0.71,0-1.14-0.1-1.41-0.21l-0.45,3.03l-2.62,0.29l1.59-11.37
		h2.32v0.86c0.81-0.84,1.64-1.12,2.34-1.12C463.73,296.9,464.56,298.03,464.56,300.01z M459.7,299.69l-0.52,3.66
		c0.25,0.1,0.52,0.16,0.88,0.16c1.33,0,1.8-2.01,1.8-3.42c0-1.02-0.36-1.26-0.83-1.26C460.55,298.84,460.1,299.12,459.7,299.69z"/>
	<path fill="#3D2C70" d="M467.83,302.29c0.06,0.93,0.6,1.23,1.3,1.23c0.68,0,1.26-0.24,2.01-0.73l0.93,1.56
		c-0.88,0.63-1.98,1.09-3.29,1.09c-2.44,0-3.58-1.38-3.58-3.4c0-2.17,1.19-5.13,4.63-5.13c2.01,0,3.09,0.97,3.09,2.24
		C472.92,301.37,470.24,302.06,467.83,302.29z M470.29,299.3c0-0.38-0.17-0.67-0.72-0.67c-0.96,0-1.42,1.05-1.63,2.1
		C469.83,300.61,470.29,299.77,470.29,299.3z"/>
	<path fill="#3D2C70" d="M479.6,297.07l-0.73,2.58c-0.25-0.08-0.45-0.12-0.69-0.12c-0.97,0-1.46,0.95-1.86,2.12l-0.5,3.52h-2.62
		l1.11-8h2.28l-0.01,1.46c0.52-1.05,1.42-1.69,2.23-1.69C479.13,296.93,479.36,296.98,479.6,297.07z"/>
	<path fill="#3D2C70" d="M485.87,297.94l-1.12,1.42c-0.57-0.38-1.26-0.58-1.86-0.58c-0.63,0-0.9,0.21-0.9,0.52
		c0,0.35,0.25,0.45,1.51,0.87c1.3,0.44,2.03,1.17,2.03,2.43c0,1.39-0.96,2.83-3.66,2.83c-1.42,0-2.71-0.55-3.42-1.35l1.29-1.37
		c0.53,0.47,1.23,0.84,2.14,0.84c0.65,0,1.05-0.24,1.05-0.65c0-0.42-0.29-0.55-1.54-0.99c-1.33-0.46-2.01-1.15-2.01-2.37
		c0-1.44,1.25-2.66,3.5-2.66C484.08,296.9,485.13,297.32,485.87,297.94z"/>
	<path fill="#3D2C70" d="M494.21,300.32c-0.01,2.29-1.12,5.11-4.56,5.11c-2.16,0-3.42-1.27-3.42-3.42c0-2.31,1.12-5.12,4.54-5.12
		C492.95,296.9,494.23,298.22,494.21,300.32z M488.92,302.17c0,0.96,0.3,1.33,0.94,1.33c1.42,0,1.65-2.21,1.67-3.33
		c0.01-0.94-0.3-1.33-0.95-1.33C489.16,298.84,488.92,301.04,488.92,302.17z"/>
	<path fill="#3D2C70" d="M502.55,299.33l-0.81,5.83h-2.62l0.74-5.19c0.1-0.72-0.08-0.9-0.36-0.9c-0.48,0-0.99,0.69-1.53,1.82
		l-0.6,4.27h-2.62l1.11-8h2.28l-0.01,1.37c0.64-0.99,1.65-1.63,2.7-1.63C502.07,296.9,502.76,297.8,502.55,299.33z"/>
	<path fill="#3D2C70" d="M511.34,297.79l-0.72,4.95c-0.01,0.13-0.03,0.24-0.03,0.34c0,0.34,0.12,0.5,0.39,0.6l-0.75,1.71
		c-0.92-0.06-1.71-0.46-1.98-1.32c-0.54,0.79-1.29,1.36-2.35,1.36c-1.75,0-2.64-1.24-2.64-3.21c0-2.31,1.23-5.33,4.68-5.33
		C509.03,296.9,510.25,297.16,511.34,297.79z M505.96,302.23c0,1.05,0.36,1.29,0.79,1.29c0.46,0,0.92-0.36,1.32-1l0.54-3.63
		c-0.27-0.09-0.46-0.12-0.77-0.12C506.44,298.76,505.96,300.74,505.96,302.23z"/>
	<path fill="#3D2C70" d="M514.64,302.8c-0.06,0.44,0.08,0.54,0.3,0.54c0.1,0,0.22-0.03,0.34-0.06l0.27,1.86
		c-0.43,0.2-1.05,0.3-1.6,0.3c-1.44,0-2.17-0.85-1.95-2.46l1.26-8.96l2.66-0.27L514.64,302.8z"/>
	<path fill="#3D2C70" d="M464.51,314.02l-1.56,11.14h-2.32l0.01-1.08c-0.5,0.71-1.26,1.35-2.35,1.35c-1.71,0-2.5-1.21-2.5-3.22
		c0-2.21,1.02-5.31,3.94-5.31c0.66,0,1.26,0.27,1.67,0.71l0.54-3.85L464.51,314.02z M458.48,322.21c0,1.05,0.33,1.3,0.75,1.3
		c0.57,0,1.1-0.67,1.52-1.36l0.4-2.85c-0.25-0.33-0.51-0.48-0.93-0.48C458.86,318.82,458.48,320.95,458.48,322.21z"/>
	<path fill="#3D2C70" d="M472.62,317.79l-0.72,4.95c-0.01,0.13-0.03,0.24-0.03,0.34c0,0.34,0.12,0.5,0.39,0.6l-0.75,1.71
		c-0.92-0.06-1.71-0.46-1.98-1.32c-0.54,0.79-1.29,1.36-2.35,1.36c-1.75,0-2.64-1.24-2.64-3.21c0-2.31,1.23-5.33,4.68-5.33
		C470.32,316.9,471.53,317.16,472.62,317.79z M467.24,322.23c0,1.05,0.36,1.29,0.79,1.29c0.46,0,0.92-0.36,1.32-1l0.54-3.63
		c-0.27-0.09-0.46-0.12-0.77-0.12C467.72,318.76,467.24,320.74,467.24,322.23z"/>
	<path fill="#3D2C70" d="M477.65,323.1l0.67,1.74c-0.69,0.41-1.61,0.6-2.31,0.6c-1.86,0-2.59-1.08-2.32-3.07l0.48-3.36h-1.02
		l0.24-1.83h1.14l0.5-1.74l2.29-0.27l-0.29,2.01h1.79l-0.51,1.83h-1.51l-0.46,3.36c-0.12,0.76,0.08,0.97,0.48,0.97
		C477.08,323.34,477.35,323.26,477.65,323.1z"/>
	<path fill="#3D2C70" d="M486.82,317.79l-0.72,4.95c-0.01,0.13-0.03,0.24-0.03,0.34c0,0.34,0.12,0.5,0.39,0.6l-0.75,1.71
		c-0.92-0.06-1.71-0.46-1.98-1.32c-0.54,0.79-1.29,1.36-2.35,1.36c-1.75,0-2.64-1.24-2.64-3.21c0-2.31,1.23-5.33,4.68-5.33
		C484.51,316.9,485.72,317.16,486.82,317.79z M481.43,322.23c0,1.05,0.36,1.29,0.79,1.29c0.46,0,0.92-0.36,1.32-1l0.54-3.63
		c-0.27-0.09-0.46-0.12-0.77-0.12C481.91,318.76,481.43,320.74,481.43,322.23z"/>
	<path fill="#3D2C70" d="M498.79,320.01c0,2.31-1.05,5.43-4.25,5.43c-0.71,0-1.14-0.1-1.41-0.21l-0.45,3.03l-2.62,0.29l1.59-11.37
		h2.32v0.86c0.81-0.84,1.63-1.12,2.34-1.12C497.96,316.9,498.79,318.03,498.79,320.01z M493.92,319.69l-0.52,3.66
		c0.25,0.1,0.52,0.16,0.88,0.16c1.33,0,1.8-2.01,1.8-3.42c0-1.02-0.36-1.26-0.83-1.26C494.78,318.84,494.33,319.12,493.92,319.69z"
		/>
	<path fill="#3D2C70" d="M507.41,320.32c-0.01,2.29-1.12,5.11-4.56,5.11c-2.16,0-3.42-1.27-3.42-3.42c0-2.31,1.12-5.12,4.54-5.12
		C506.15,316.9,507.43,318.22,507.41,320.32z M502.12,322.17c0,0.96,0.3,1.33,0.94,1.33c1.42,0,1.65-2.21,1.67-3.33
		c0.01-0.94-0.3-1.33-0.95-1.33C502.36,318.84,502.12,321.04,502.12,322.17z"/>
	<path fill="#3D2C70" d="M516.82,314.02l-1.56,11.14h-2.32l0.01-1.08c-0.5,0.71-1.26,1.35-2.35,1.35c-1.71,0-2.5-1.21-2.5-3.22
		c0-2.21,1.02-5.31,3.94-5.31c0.66,0,1.26,0.27,1.67,0.71l0.54-3.85L516.82,314.02z M510.79,322.21c0,1.05,0.33,1.3,0.75,1.3
		c0.57,0,1.1-0.67,1.52-1.36l0.4-2.85c-0.25-0.33-0.51-0.48-0.93-0.48C511.16,318.82,510.79,320.95,510.79,322.21z"/>
</g>
<g>
	<path fill="#3D2C70" d="M214.36,171.78l-0.83,5.85h-2.61l0.74-5.19c0.11-0.74-0.08-0.9-0.33-0.9c-0.45,0-0.9,0.65-1.33,1.7
		l-0.62,4.39h-2.62l0.73-5.19c0.11-0.74-0.09-0.9-0.36-0.9c-0.41,0-0.9,0.67-1.31,1.79l-0.6,4.3h-2.62l1.11-8h2.28l-0.01,1.25
		c0.62-0.94,1.5-1.51,2.46-1.51c0.94,0,1.59,0.51,1.75,1.42c0.62-0.87,1.53-1.42,2.42-1.42
		C213.86,169.36,214.57,170.26,214.36,171.78z"/>
	<path fill="#3D2C70" d="M221.83,177.62h-2.28l0.04-1.09c-0.67,0.83-1.5,1.36-2.49,1.36c-1.53,0-2.1-1-1.89-2.53l0.81-5.73h2.62
		l-0.72,5.25c-0.1,0.72,0.08,0.9,0.42,0.9c0.43,0,0.88-0.5,1.27-1.12l0.71-5.03h2.61L221.83,177.62z"/>
	<path fill="#3D2C70" d="M226.21,175.25c-0.06,0.44,0.08,0.54,0.3,0.54c0.1,0,0.22-0.03,0.34-0.06l0.27,1.86
		c-0.43,0.2-1.05,0.3-1.6,0.3c-1.44,0-2.17-0.85-1.95-2.46l1.26-8.96l2.66-0.27L226.21,175.25z"/>
	<path fill="#3D2C70" d="M232.25,175.55l0.67,1.74c-0.69,0.41-1.61,0.6-2.31,0.6c-1.86,0-2.59-1.08-2.32-3.07l0.48-3.36h-1.02
		l0.24-1.83h1.14l0.5-1.74l2.29-0.27l-0.29,2.01h1.79l-0.51,1.83h-1.51l-0.46,3.36c-0.12,0.76,0.08,0.97,0.48,0.97
		C231.68,175.79,231.95,175.72,232.25,175.55z"/>
	<path fill="#3D2C70" d="M236.04,177.62h-2.62l1.11-8h2.62L236.04,177.62z M237.74,166.86c-0.11,0.79-0.81,1.41-1.68,1.41
		c-0.9,0-1.44-0.66-1.33-1.52c0.12-0.81,0.81-1.42,1.68-1.42C237.32,165.33,237.84,165.99,237.74,166.86z"/>
	<path fill="#3D2C70" d="M245.83,172.46c0,2.31-1.05,5.43-4.25,5.43c-0.71,0-1.14-0.1-1.41-0.21l-0.45,3.03L237.1,181l1.59-11.37
		h2.32v0.86c0.81-0.84,1.63-1.12,2.34-1.12C245,169.36,245.83,170.49,245.83,172.46z M240.96,172.15l-0.52,3.66
		c0.25,0.1,0.52,0.16,0.88,0.16c1.33,0,1.8-2.01,1.8-3.42c0-1.02-0.36-1.26-0.83-1.26C241.82,171.29,241.37,171.58,240.96,172.15z"
		/>
	<path fill="#3D2C70" d="M249.23,175.25c-0.06,0.44,0.08,0.54,0.3,0.54c0.11,0,0.23-0.03,0.35-0.06l0.27,1.86
		c-0.43,0.2-1.05,0.3-1.6,0.3c-1.44,0-2.17-0.85-1.95-2.46l1.26-8.96l2.66-0.27L249.23,175.25z"/>
	<path fill="#3D2C70" d="M253.26,174.75c0.06,0.93,0.6,1.23,1.3,1.23c0.68,0,1.26-0.24,2.01-0.73l0.93,1.56
		c-0.88,0.63-1.98,1.09-3.29,1.09c-2.45,0-3.58-1.38-3.58-3.4c0-2.17,1.19-5.13,4.63-5.13c2.01,0,3.09,0.97,3.09,2.24
		C258.36,173.83,255.68,174.52,253.26,174.75z M255.72,171.76c0-0.38-0.17-0.67-0.72-0.67c-0.96,0-1.42,1.05-1.63,2.1
		C255.27,173.07,255.72,172.23,255.72,171.76z"/>
	<path fill="#3D2C70" d="M206.43,186.48l-1.56,11.14h-2.32l0.01-1.08c-0.5,0.71-1.26,1.35-2.35,1.35c-1.71,0-2.5-1.21-2.5-3.22
		c0-2.21,1.02-5.31,3.94-5.31c0.66,0,1.26,0.27,1.67,0.71l0.54-3.85L206.43,186.48z M200.4,194.67c0,1.05,0.33,1.3,0.75,1.3
		c0.57,0,1.1-0.67,1.52-1.36l0.4-2.85c-0.25-0.33-0.51-0.48-0.93-0.48C200.77,191.28,200.4,193.41,200.4,194.67z"/>
	<path fill="#3D2C70" d="M214.54,190.25l-0.72,4.95c-0.01,0.13-0.03,0.24-0.03,0.34c0,0.34,0.12,0.5,0.39,0.6l-0.75,1.71
		c-0.92-0.06-1.71-0.46-1.98-1.32c-0.54,0.79-1.29,1.36-2.35,1.36c-1.75,0-2.64-1.24-2.64-3.21c0-2.31,1.23-5.33,4.68-5.33
		C212.23,189.36,213.45,189.62,214.54,190.25z M209.16,194.69c0,1.05,0.36,1.29,0.79,1.29c0.46,0,0.92-0.36,1.32-1l0.54-3.63
		c-0.27-0.09-0.46-0.12-0.77-0.12C209.64,191.22,209.16,193.2,209.16,194.69z"/>
	<path fill="#3D2C70" d="M219.57,195.55l0.67,1.74c-0.69,0.41-1.61,0.6-2.31,0.6c-1.86,0-2.59-1.08-2.32-3.07l0.48-3.36h-1.02
		l0.24-1.83h1.14l0.5-1.74l2.29-0.27l-0.29,2.01h1.79l-0.51,1.83h-1.51l-0.46,3.36c-0.12,0.76,0.08,0.97,0.48,0.97
		C219,195.79,219.27,195.72,219.57,195.55z"/>
	<path fill="#3D2C70" d="M228.73,190.25l-0.72,4.95c-0.01,0.13-0.03,0.24-0.03,0.34c0,0.34,0.12,0.5,0.39,0.6l-0.75,1.71
		c-0.92-0.06-1.71-0.46-1.98-1.32c-0.54,0.79-1.29,1.36-2.35,1.36c-1.75,0-2.64-1.24-2.64-3.21c0-2.31,1.23-5.33,4.68-5.33
		C226.42,189.36,227.64,189.62,228.73,190.25z M223.35,194.69c0,1.05,0.36,1.29,0.79,1.29c0.46,0,0.92-0.36,1.32-1l0.54-3.63
		c-0.27-0.09-0.46-0.12-0.77-0.12C223.83,191.22,223.35,193.2,223.35,194.69z"/>
	<path fill="#3D2C70" d="M239.34,190.4l-1.12,1.42c-0.57-0.38-1.26-0.58-1.86-0.58c-0.63,0-0.9,0.21-0.9,0.52
		c0,0.35,0.25,0.45,1.51,0.87c1.3,0.44,2.03,1.17,2.03,2.43c0,1.39-0.96,2.83-3.66,2.83c-1.42,0-2.71-0.55-3.42-1.35l1.29-1.37
		c0.53,0.47,1.23,0.84,2.14,0.84c0.65,0,1.05-0.24,1.05-0.65c0-0.42-0.29-0.55-1.54-0.99c-1.33-0.46-2.01-1.15-2.01-2.37
		c0-1.44,1.25-2.66,3.5-2.66C237.55,189.36,238.6,189.78,239.34,190.4z"/>
	<path fill="#3D2C70" d="M242.23,197.62h-2.62l1.11-8h2.62L242.23,197.62z M243.93,186.86c-0.11,0.79-0.81,1.41-1.68,1.41
		c-0.9,0-1.44-0.66-1.33-1.52c0.12-0.81,0.81-1.42,1.68-1.42C243.51,185.33,244.03,185.99,243.93,186.86z"/>
	<path fill="#3D2C70" d="M246.61,195.25c-0.06,0.44,0.08,0.54,0.3,0.54c0.11,0,0.23-0.03,0.35-0.06l0.27,1.86
		c-0.43,0.2-1.05,0.3-1.6,0.3c-1.44,0-2.17-0.85-1.95-2.46l1.26-8.96l2.66-0.27L246.61,195.25z"/>
	<path fill="#3D2C70" d="M256,192.78c-0.01,2.29-1.12,5.11-4.56,5.11c-2.16,0-3.42-1.27-3.42-3.42c0-2.31,1.12-5.12,4.54-5.12
		C254.74,189.36,256.02,190.68,256,192.78z M250.71,194.62c0,0.96,0.3,1.33,0.94,1.33c1.42,0,1.65-2.21,1.67-3.33
		c0.01-0.94-0.3-1.33-0.95-1.33C250.95,191.29,250.71,193.5,250.71,194.62z"/>
	<path fill="#3D2C70" d="M263.41,190.4l-1.12,1.42c-0.57-0.38-1.26-0.58-1.86-0.58c-0.63,0-0.9,0.21-0.9,0.52
		c0,0.35,0.25,0.45,1.51,0.87c1.3,0.44,2.03,1.17,2.03,2.43c0,1.39-0.96,2.83-3.66,2.83c-1.42,0-2.71-0.55-3.42-1.35l1.29-1.37
		c0.53,0.47,1.23,0.84,2.14,0.84c0.65,0,1.05-0.24,1.05-0.65c0-0.42-0.29-0.55-1.54-0.99c-1.33-0.46-2.01-1.15-2.01-2.37
		c0-1.44,1.25-2.66,3.5-2.66C261.63,189.36,262.68,189.78,263.41,190.4z"/>
</g>
<g>
	<path fill="#3D2C70" d="M544.46,295.75l-0.8,5.62h-1.36l0.78-5.52c0.17-1.19-0.27-1.41-0.82-1.41c-0.84,0-1.61,1.05-2.24,2.16
		l-0.67,4.77h-1.37l0.78-5.52c0.17-1.19-0.27-1.41-0.83-1.41c-0.84,0-1.6,1.06-2.23,2.19l-0.65,4.74h-1.37l1.11-7.9h1.17l-0.12,1.51
		c0.72-1.02,1.53-1.7,2.58-1.7c0.86,0,1.59,0.56,1.72,1.61c0.78-1.04,1.61-1.61,2.6-1.61C543.94,293.29,544.67,294.25,544.46,295.75
		z"/>
	<path fill="#3D2C70" d="M549.16,301.45c-0.76,1.68-1.93,2.88-4.12,3.12l-0.06-1.08c1.63-0.27,2.22-0.9,2.88-2.15l-0.53,0.03
		l-1.51-7.9h1.44l1.11,6.85l3.03-6.85h1.42L549.16,301.45z"/>
	<path fill="#3D2C70" d="M562.76,294.16l-0.74,0.86c-0.48-0.42-0.93-0.58-1.54-0.58c-2,0-2.58,2.37-2.58,4
		c0,1.38,0.6,1.95,1.61,1.95c0.69,0,1.2-0.22,1.83-0.61l0.56,0.96c-0.78,0.55-1.61,0.82-2.48,0.82c-1.87,0-2.95-1.2-2.95-3.22
		c0-2.07,1.08-5.04,4-5.04C561.35,293.29,562.12,293.54,562.76,294.16z"/>
	<path fill="#3D2C70" d="M570.2,296.56c0,1.9-0.97,4.99-4.08,4.99c-1.96,0-3.03-1.26-3.03-3.27c0-1.95,1-5,4.09-5
		C569.15,293.29,570.2,294.55,570.2,296.56z M564.53,298.43c0,1.38,0.57,2.01,1.63,2.01c2.06,0,2.6-2.52,2.6-4.04
		c0-1.38-0.57-2.01-1.62-2.01C565.09,294.4,564.53,296.92,564.53,298.43z"/>
	<path fill="#3D2C70" d="M578.27,295.82l-0.78,5.55h-1.37l0.78-5.52c0.15-1.11-0.24-1.41-0.84-1.41c-1,0-1.89,1.06-2.52,2.19
		l-0.65,4.74h-1.37l1.11-7.9h1.17l-0.12,1.54c0.74-1.04,1.61-1.73,2.75-1.73C577.76,293.29,578.5,294.25,578.27,295.82z"/>
	<path fill="#3D2C70" d="M581.68,299.29c-0.12,0.79,0.06,1.11,0.71,1.11c0.36,0,0.69-0.12,1.11-0.36l0.45,0.99
		c-0.57,0.36-1.15,0.52-1.78,0.52c-1.37,0-2.06-0.82-1.85-2.29l0.66-4.72h-1.36l0.15-1.06h1.42l0.5-1.83l1.08-0.12l-0.27,1.95h1.86
		l-0.3,1.06h-1.71L581.68,299.29z"/>
	<path fill="#3D2C70" d="M591.74,293.96l-0.86,5.61c-0.01,0.12-0.03,0.22-0.03,0.31c0,0.44,0.2,0.6,0.51,0.72l-0.39,0.94
		c-0.79-0.1-1.29-0.46-1.39-1.32c-0.62,0.79-1.42,1.32-2.36,1.32c-1.65,0-2.52-1.21-2.52-3.03c0-2.16,1.14-5.24,4.21-5.24
		C589.87,293.29,590.69,293.45,591.74,293.96z M586.18,298.54c0,1.32,0.5,1.92,1.38,1.92c0.84,0,1.46-0.63,2.07-1.46l0.66-4.36
		c-0.45-0.2-0.78-0.25-1.33-0.25C586.94,294.38,586.18,296.77,586.18,298.54z"/>
	<path fill="#3D2C70" d="M599.27,294.16l-0.74,0.86c-0.48-0.42-0.93-0.58-1.54-0.58c-2,0-2.58,2.37-2.58,4
		c0,1.38,0.6,1.95,1.61,1.95c0.69,0,1.2-0.22,1.83-0.61l0.56,0.96c-0.78,0.55-1.61,0.82-2.48,0.82c-1.87,0-2.95-1.2-2.95-3.22
		c0-2.07,1.08-5.04,4-5.04C597.86,293.29,598.63,293.54,599.27,294.16z"/>
	<path fill="#3D2C70" d="M601.57,299.29c-0.12,0.79,0.06,1.11,0.71,1.11c0.36,0,0.69-0.12,1.11-0.36l0.45,0.99
		c-0.57,0.36-1.15,0.52-1.78,0.52c-1.37,0-2.06-0.82-1.85-2.29l0.66-4.72h-1.36l0.15-1.06h1.42l0.5-1.83l1.08-0.12l-0.27,1.95h1.86
		l-0.3,1.06h-1.71L601.57,299.29z"/>
	<path fill="#3D2C70" d="M609.95,299.83c-0.04,0.42,0.03,0.58,0.36,0.58c0.18,0,0.36-0.04,0.54-0.12l0.29,1
		c-0.41,0.18-0.75,0.25-1.09,0.25c-1.05,0-1.61-0.64-1.42-1.95l1.32-9.32l1.38-0.17L609.95,299.83z"/>
	<path fill="#3D2C70" d="M613.82,301.37h-1.37l1.11-7.9h1.37L613.82,301.37z M615.59,290.69c-0.08,0.5-0.47,0.86-1.02,0.86
		c-0.6,0-0.94-0.45-0.87-1c0.08-0.51,0.48-0.87,1.02-0.87C615.34,289.67,615.67,290.12,615.59,290.69z"/>
	<path fill="#3D2C70" d="M622.03,294.26l-0.66,0.82c-0.6-0.46-1.26-0.7-1.95-0.7c-0.96,0-1.58,0.4-1.58,1.06
		c0,0.63,0.53,0.87,1.59,1.2c1.48,0.46,2.23,1.12,2.23,2.37c0,1.75-1.63,2.53-3.29,2.53c-1.38,0-2.31-0.54-2.92-1.14l0.79-0.81
		c0.57,0.51,1.31,0.84,2.19,0.84c1.39,0,1.79-0.77,1.79-1.29c0-0.79-0.41-1.07-1.67-1.46c-1.52-0.46-2.12-1.08-2.12-2.16
		c0-1.05,0.93-2.25,2.99-2.25C620.53,293.29,621.35,293.66,622.03,294.26z"/>
	<path fill="#3D2C70" d="M624.7,299.29c-0.12,0.79,0.06,1.11,0.71,1.11c0.36,0,0.69-0.12,1.11-0.36l0.45,0.99
		c-0.57,0.36-1.15,0.52-1.78,0.52c-1.37,0-2.06-0.82-1.85-2.29l0.66-4.72h-1.36l0.15-1.06h1.42l0.5-1.83l1.08-0.12l-0.27,1.95h1.86
		l-0.3,1.06h-1.71L624.7,299.29z"/>
</g>
<g>
	<path fill="#3D2C70" d="M455.36,232.42l-0.8,5.62h-1.36l0.78-5.52c0.17-1.19-0.27-1.41-0.82-1.41c-0.84,0-1.61,1.05-2.24,2.16
		l-0.67,4.77h-1.37l0.78-5.52c0.17-1.19-0.27-1.41-0.83-1.41c-0.84,0-1.6,1.06-2.23,2.19l-0.65,4.74h-1.37l1.11-7.9h1.17l-0.12,1.51
		c0.72-1.02,1.53-1.7,2.58-1.7c0.86,0,1.59,0.56,1.72,1.61c0.78-1.04,1.61-1.61,2.6-1.61C454.84,229.96,455.57,230.92,455.36,232.42
		z"/>
	<path fill="#3D2C70" d="M460.06,238.12c-0.76,1.68-1.93,2.88-4.12,3.12l-0.06-1.08c1.63-0.27,2.22-0.9,2.88-2.15l-0.53,0.03
		l-1.51-7.9h1.44l1.11,6.85l3.03-6.85h1.42L460.06,238.12z"/>
	<path fill="#3D2C70" d="M474.37,230.63l-0.86,5.61c-0.01,0.12-0.03,0.22-0.03,0.31c0,0.44,0.2,0.6,0.51,0.72l-0.39,0.94
		c-0.79-0.1-1.29-0.46-1.39-1.32c-0.62,0.79-1.42,1.32-2.36,1.32c-1.65,0-2.52-1.21-2.52-3.03c0-2.16,1.14-5.24,4.21-5.24
		C472.49,229.96,473.32,230.12,474.37,230.63z M468.8,235.21c0,1.32,0.5,1.92,1.38,1.92c0.84,0,1.46-0.63,2.07-1.46l0.66-4.36
		c-0.45-0.2-0.78-0.25-1.33-0.25C469.57,231.05,468.8,233.44,468.8,235.21z"/>
	<path fill="#3D2C70" d="M482.66,230.63l-1.09,7.23c-0.38,2.55-1.75,3.42-3.62,3.42c-0.95,0-1.98-0.3-2.73-0.77l0.52-1.05
		c0.48,0.29,1.31,0.63,2.13,0.63c1.05,0,2.08-0.31,2.36-2.25l0.13-1c-0.58,0.71-1.38,1.2-2.22,1.2c-1.65,0-2.57-1.17-2.57-2.97
		c0-2.36,1.19-5.12,4.26-5.12C480.79,229.96,481.61,230.12,482.66,230.63z M477.05,235.09c0,1.3,0.54,1.86,1.35,1.86
		c0.87,0,1.54-0.66,2.16-1.49l0.64-4.15c-0.45-0.2-0.78-0.25-1.33-0.25C477.86,231.05,477.05,233.17,477.05,235.09z"/>
	<path fill="#3D2C70" d="M485.44,235.1c0.03,1.44,0.71,1.96,1.71,1.96c0.74,0,1.4-0.23,2.12-0.74l0.58,0.93
		c-0.86,0.62-1.79,0.96-2.83,0.96c-1.93,0-3.01-1.21-3.01-3.21c0-2.16,1.06-5.05,4.06-5.05c1.68,0,2.5,0.96,2.5,2.01
		C490.57,234.19,488.2,234.8,485.44,235.1z M489.13,232.01c0-0.38-0.23-0.96-1.08-0.96c-1.65,0-2.34,1.56-2.54,3
		C487.78,233.8,489.13,233.36,489.13,232.01z"/>
	<path fill="#3D2C70" d="M498.34,232.49l-0.78,5.55h-1.37l0.78-5.52c0.15-1.11-0.24-1.41-0.84-1.41c-1,0-1.89,1.06-2.52,2.19
		l-0.65,4.74h-1.37l1.11-7.9h1.17l-0.12,1.54c0.74-1.04,1.61-1.73,2.75-1.73C497.83,229.96,498.56,230.92,498.34,232.49z"/>
	<path fill="#3D2C70" d="M507.62,226.97l-1.56,11.07h-1.2l0.01-1.3c-0.55,0.92-1.36,1.48-2.38,1.48c-1.63,0-2.5-1.23-2.5-3.13
		c0-2.04,0.97-5.13,3.67-5.13c0.93,0,1.59,0.44,2.03,0.99l0.58-4.12L507.62,226.97z M501.44,235.19c0,1.33,0.5,1.93,1.32,1.93
		c0.97,0,1.62-0.72,2.32-1.83l0.46-3.28c-0.4-0.62-0.9-0.96-1.63-0.96C502,231.05,501.44,233.62,501.44,235.19z"/>
	<path fill="#3D2C70" d="M515.51,230.63l-0.86,5.61c-0.01,0.12-0.03,0.22-0.03,0.31c0,0.44,0.2,0.6,0.51,0.72l-0.39,0.94
		c-0.79-0.1-1.29-0.46-1.39-1.32c-0.62,0.79-1.42,1.32-2.36,1.32c-1.65,0-2.52-1.21-2.52-3.03c0-2.16,1.14-5.24,4.21-5.24
		C513.64,229.96,514.46,230.12,515.51,230.63z M509.95,235.21c0,1.32,0.5,1.92,1.38,1.92c0.84,0,1.46-0.63,2.07-1.46l0.66-4.36
		c-0.45-0.2-0.78-0.25-1.33-0.25C510.71,231.05,509.95,233.44,509.95,235.21z"/>
</g>
<use xlink:href="#contacts" width="100.33" height="55.67" x="-50.17" y="-27.83" transform="matrix(1 0 0 -1 578.1338 257.7051)" overflow="visible"/>
<g>
	<path fill="#EFEEF3" d="M27.09,130.62l-0.8,5.62h-1.36l0.78-5.52c0.17-1.19-0.27-1.41-0.82-1.41c-0.84,0-1.61,1.05-2.24,2.16
		l-0.67,4.77h-1.37l0.78-5.52c0.17-1.19-0.27-1.41-0.83-1.41c-0.84,0-1.6,1.06-2.23,2.19l-0.65,4.74h-1.37l1.11-7.9h1.17l-0.12,1.51
		c0.72-1.02,1.53-1.7,2.58-1.7c0.86,0,1.59,0.56,1.72,1.61c0.78-1.04,1.61-1.61,2.6-1.61C26.57,128.16,27.3,129.12,27.09,130.62z"/>
	<path fill="#EFEEF3" d="M31.79,136.32c-0.76,1.68-1.93,2.88-4.12,3.12l-0.06-1.08c1.63-0.27,2.22-0.9,2.88-2.15l-0.53,0.03
		l-1.51-7.9h1.44l1.11,6.85l3.03-6.85h1.42L31.79,136.32z"/>
	<path fill="#EFEEF3" d="M45.39,129.03l-0.74,0.86c-0.48-0.42-0.93-0.58-1.54-0.58c-2,0-2.58,2.37-2.58,4c0,1.38,0.6,1.95,1.61,1.95
		c0.69,0,1.2-0.22,1.83-0.61l0.56,0.96c-0.78,0.55-1.61,0.82-2.48,0.82c-1.87,0-2.95-1.2-2.95-3.22c0-2.07,1.08-5.04,4-5.04
		C43.98,128.16,44.75,128.42,45.39,129.03z"/>
	<path fill="#EFEEF3" d="M52.83,131.43c0,1.9-0.97,4.99-4.08,4.99c-1.96,0-3.03-1.26-3.03-3.27c0-1.95,1-5,4.09-5
		C51.78,128.16,52.83,129.42,52.83,131.43z M47.16,133.31c0,1.38,0.57,2.01,1.63,2.01c2.06,0,2.6-2.52,2.6-4.04
		c0-1.38-0.57-2.01-1.62-2.01C47.72,129.27,47.16,131.79,47.16,133.31z"/>
	<path fill="#EFEEF3" d="M60.9,130.7l-0.78,5.55h-1.37l0.78-5.52c0.15-1.11-0.24-1.41-0.84-1.41c-1,0-1.89,1.06-2.52,2.19
		l-0.65,4.74h-1.37l1.11-7.9h1.17l-0.12,1.54c0.74-1.04,1.61-1.73,2.75-1.73C60.39,128.16,61.13,129.12,60.9,130.7z"/>
	<path fill="#EFEEF3" d="M64.31,134.16c-0.12,0.79,0.06,1.11,0.71,1.11c0.36,0,0.69-0.12,1.11-0.36l0.45,0.99
		c-0.57,0.36-1.15,0.52-1.78,0.52c-1.37,0-2.06-0.82-1.85-2.29l0.66-4.72h-1.36l0.15-1.06h1.42l0.5-1.83l1.08-0.12l-0.27,1.95h1.86
		l-0.3,1.06h-1.71L64.31,134.16z"/>
	<path fill="#EFEEF3" d="M74.37,128.84l-0.86,5.61c-0.01,0.12-0.03,0.22-0.03,0.31c0,0.44,0.2,0.6,0.51,0.72l-0.39,0.94
		c-0.79-0.1-1.29-0.46-1.39-1.32c-0.62,0.79-1.42,1.32-2.36,1.32c-1.65,0-2.52-1.21-2.52-3.03c0-2.16,1.14-5.24,4.21-5.24
		C72.5,128.16,73.32,128.33,74.37,128.84z M68.81,133.41c0,1.32,0.5,1.92,1.38,1.92c0.84,0,1.46-0.63,2.07-1.46l0.66-4.36
		c-0.45-0.2-0.78-0.25-1.33-0.25C69.57,129.26,68.81,131.64,68.81,133.41z"/>
	<path fill="#EFEEF3" d="M81.9,129.03l-0.74,0.86c-0.48-0.42-0.93-0.58-1.54-0.58c-2,0-2.58,2.37-2.58,4c0,1.38,0.6,1.95,1.61,1.95
		c0.69,0,1.2-0.22,1.83-0.61l0.56,0.96c-0.78,0.55-1.61,0.82-2.48,0.82c-1.87,0-2.95-1.2-2.95-3.22c0-2.07,1.08-5.04,4-5.04
		C80.49,128.16,81.26,128.42,81.9,129.03z"/>
	<path fill="#EFEEF3" d="M84.2,134.16c-0.12,0.79,0.06,1.11,0.71,1.11c0.36,0,0.69-0.12,1.11-0.36l0.45,0.99
		c-0.57,0.36-1.15,0.52-1.78,0.52c-1.37,0-2.06-0.82-1.85-2.29l0.66-4.72h-1.36l0.15-1.06h1.42l0.5-1.83l1.08-0.12l-0.27,1.95h1.86
		l-0.3,1.06h-1.71L84.2,134.16z"/>
	<path fill="#EFEEF3" d="M92.58,134.7c-0.04,0.42,0.03,0.58,0.36,0.58c0.18,0,0.36-0.04,0.54-0.12l0.29,1
		c-0.41,0.18-0.75,0.25-1.09,0.25c-1.05,0-1.61-0.64-1.42-1.95l1.32-9.32l1.38-0.17L92.58,134.7z"/>
	<path fill="#EFEEF3" d="M96.45,136.25h-1.37l1.11-7.9h1.37L96.45,136.25z M98.22,125.57c-0.08,0.5-0.47,0.86-1.02,0.86
		c-0.6,0-0.94-0.45-0.87-1c0.08-0.51,0.48-0.87,1.02-0.87C97.97,124.55,98.3,125,98.22,125.57z"/>
	<path fill="#EFEEF3" d="M104.66,129.14l-0.66,0.82c-0.6-0.46-1.26-0.7-1.95-0.7c-0.96,0-1.58,0.4-1.58,1.06
		c0,0.63,0.53,0.87,1.59,1.2c1.48,0.46,2.23,1.12,2.23,2.37c0,1.75-1.63,2.53-3.29,2.53c-1.38,0-2.31-0.54-2.92-1.14l0.79-0.81
		c0.57,0.51,1.31,0.84,2.19,0.84c1.39,0,1.79-0.77,1.79-1.29c0-0.79-0.41-1.07-1.67-1.46c-1.52-0.46-2.12-1.08-2.12-2.16
		c0-1.05,0.93-2.25,2.99-2.25C103.16,128.16,103.98,128.54,104.66,129.14z"/>
	<path fill="#EFEEF3" d="M107.33,134.16c-0.12,0.79,0.06,1.11,0.71,1.11c0.36,0,0.69-0.12,1.11-0.36l0.45,0.99
		c-0.57,0.36-1.15,0.52-1.78,0.52c-1.37,0-2.06-0.82-1.85-2.29l0.66-4.72h-1.36l0.15-1.06h1.42l0.5-1.83l1.08-0.12l-0.27,1.95H110
		l-0.3,1.06h-1.71L107.33,134.16z"/>
	<path fill="#EFEEF3" d="M117.57,136.25h-1.38l1.2-8.43l-2.5,1.42l-0.46-1.11l3.34-1.92h1.21L117.57,136.25z"/>
</g>
<use xlink:href="#contacts" width="100.33" height="55.67" x="-50.17" y="-27.83" transform="matrix(1 0 0 -1 67.6074 92.5811)" overflow="visible"/>
<g>
	<path fill="#EFEEF3" d="M192.02,130.62l-0.8,5.62h-1.36l0.78-5.52c0.17-1.19-0.27-1.41-0.82-1.41c-0.84,0-1.61,1.05-2.24,2.16
		l-0.67,4.77h-1.37l0.78-5.52c0.17-1.19-0.27-1.41-0.83-1.41c-0.84,0-1.6,1.06-2.23,2.19l-0.65,4.74h-1.37l1.11-7.9h1.17l-0.12,1.51
		c0.72-1.02,1.53-1.7,2.58-1.7c0.86,0,1.59,0.56,1.72,1.61c0.78-1.04,1.61-1.61,2.6-1.61C191.49,128.16,192.23,129.12,192.02,130.62
		z"/>
	<path fill="#EFEEF3" d="M196.71,136.32c-0.76,1.68-1.93,2.88-4.12,3.12l-0.06-1.08c1.63-0.27,2.22-0.9,2.88-2.15l-0.53,0.03
		l-1.51-7.9h1.44l1.11,6.85l3.03-6.85h1.42L196.71,136.32z"/>
	<path fill="#EFEEF3" d="M210.32,129.03l-0.74,0.86c-0.48-0.42-0.93-0.58-1.54-0.58c-2,0-2.58,2.37-2.58,4
		c0,1.38,0.6,1.95,1.61,1.95c0.69,0,1.2-0.22,1.83-0.61l0.56,0.96c-0.78,0.55-1.61,0.82-2.48,0.82c-1.87,0-2.95-1.2-2.95-3.22
		c0-2.07,1.08-5.04,4-5.04C208.91,128.16,209.67,128.42,210.32,129.03z"/>
	<path fill="#EFEEF3" d="M217.76,131.43c0,1.9-0.97,4.99-4.08,4.99c-1.96,0-3.03-1.26-3.03-3.27c0-1.95,1-5,4.09-5
		C216.71,128.16,217.76,129.42,217.76,131.43z M212.09,133.31c0,1.38,0.57,2.01,1.63,2.01c2.06,0,2.6-2.52,2.6-4.04
		c0-1.38-0.57-2.01-1.62-2.01C212.64,129.27,212.09,131.79,212.09,133.31z"/>
	<path fill="#EFEEF3" d="M225.83,130.7l-0.78,5.55h-1.37l0.78-5.52c0.15-1.11-0.24-1.41-0.84-1.41c-1,0-1.89,1.06-2.52,2.19
		l-0.65,4.74h-1.37l1.11-7.9h1.17l-0.12,1.54c0.74-1.04,1.61-1.73,2.75-1.73C225.32,128.16,226.05,129.12,225.83,130.7z"/>
	<path fill="#EFEEF3" d="M229.23,134.16c-0.12,0.79,0.06,1.11,0.71,1.11c0.36,0,0.69-0.12,1.11-0.36l0.45,0.99
		c-0.57,0.36-1.15,0.52-1.78,0.52c-1.37,0-2.06-0.82-1.85-2.29l0.66-4.72h-1.36l0.15-1.06h1.42l0.5-1.83l1.08-0.12l-0.27,1.95h1.86
		l-0.3,1.06h-1.71L229.23,134.16z"/>
	<path fill="#EFEEF3" d="M239.3,128.84l-0.86,5.61c-0.01,0.12-0.03,0.22-0.03,0.31c0,0.44,0.2,0.6,0.51,0.72l-0.39,0.94
		c-0.79-0.1-1.29-0.46-1.39-1.32c-0.62,0.79-1.42,1.32-2.36,1.32c-1.65,0-2.52-1.21-2.52-3.03c0-2.16,1.14-5.24,4.21-5.24
		C237.42,128.16,238.25,128.33,239.3,128.84z M233.73,133.41c0,1.32,0.5,1.92,1.38,1.92c0.84,0,1.46-0.63,2.07-1.46l0.66-4.36
		c-0.45-0.2-0.78-0.25-1.33-0.25C234.5,129.26,233.73,131.64,233.73,133.41z"/>
	<path fill="#EFEEF3" d="M246.83,129.03l-0.74,0.86c-0.48-0.42-0.93-0.58-1.54-0.58c-2,0-2.58,2.37-2.58,4
		c0,1.38,0.6,1.95,1.61,1.95c0.69,0,1.2-0.22,1.83-0.61l0.56,0.96c-0.78,0.55-1.61,0.82-2.48,0.82c-1.87,0-2.95-1.2-2.95-3.22
		c0-2.07,1.08-5.04,4-5.04C245.42,128.16,246.18,128.42,246.83,129.03z"/>
	<path fill="#EFEEF3" d="M249.12,134.16c-0.12,0.79,0.06,1.11,0.71,1.11c0.36,0,0.69-0.12,1.11-0.36l0.45,0.99
		c-0.57,0.36-1.15,0.52-1.78,0.52c-1.37,0-2.06-0.82-1.85-2.29l0.66-4.72h-1.36l0.15-1.06h1.42l0.5-1.83l1.08-0.12l-0.27,1.95h1.86
		l-0.3,1.06h-1.71L249.12,134.16z"/>
	<path fill="#EFEEF3" d="M257.51,134.7c-0.04,0.42,0.03,0.58,0.36,0.58c0.18,0,0.36-0.04,0.54-0.12l0.29,1
		c-0.41,0.18-0.75,0.25-1.09,0.25c-1.05,0-1.61-0.64-1.42-1.95l1.32-9.32l1.38-0.17L257.51,134.7z"/>
	<path fill="#EFEEF3" d="M261.38,136.25h-1.37l1.11-7.9h1.37L261.38,136.25z M263.15,125.57c-0.08,0.5-0.47,0.86-1.02,0.86
		c-0.6,0-0.94-0.45-0.87-1c0.08-0.51,0.48-0.87,1.02-0.87C262.89,124.55,263.22,125,263.15,125.57z"/>
	<path fill="#EFEEF3" d="M269.58,129.14l-0.66,0.82c-0.6-0.46-1.26-0.7-1.95-0.7c-0.96,0-1.58,0.4-1.58,1.06
		c0,0.63,0.53,0.87,1.59,1.2c1.48,0.46,2.23,1.12,2.23,2.37c0,1.75-1.63,2.53-3.29,2.53c-1.38,0-2.31-0.54-2.92-1.14l0.79-0.81
		c0.57,0.51,1.31,0.84,2.19,0.84c1.39,0,1.79-0.77,1.79-1.29c0-0.79-0.41-1.07-1.67-1.46c-1.52-0.46-2.12-1.08-2.12-2.16
		c0-1.05,0.93-2.25,2.99-2.25C268.08,128.16,268.91,128.54,269.58,129.14z"/>
	<path fill="#EFEEF3" d="M272.25,134.16c-0.12,0.79,0.06,1.11,0.71,1.11c0.36,0,0.69-0.12,1.11-0.36l0.45,0.99
		c-0.57,0.36-1.15,0.52-1.78,0.52c-1.37,0-2.06-0.82-1.85-2.29l0.66-4.72h-1.36l0.15-1.06h1.42l0.5-1.83l1.08-0.12l-0.27,1.95h1.86
		l-0.3,1.06h-1.71L272.25,134.16z"/>
	<path fill="#EFEEF3" d="M285.2,128.58c0,1.58-0.95,2.88-5.17,6.54l4.46-0.03l-0.33,1.16h-5.87l0.15-1.12
		c4.6-4.25,5.34-5.12,5.34-6.5c0-0.94-0.57-1.42-1.42-1.42c-0.86,0-1.49,0.36-2.22,1.12l-0.87-0.79c0.96-0.99,1.98-1.47,3.19-1.47
		C284.15,126.06,285.2,127.1,285.2,128.58z"/>
</g>
<use xlink:href="#contacts" width="100.33" height="55.67" x="-50.17" y="-27.83" transform="matrix(1 0 0 -1 233 92.5811)" overflow="visible"/>
<use xlink:href="#agenda" width="91" height="61" x="-45.5" y="-30.5" transform="matrix(1 0 0 -1 480 192.416)" overflow="visible"/>
<g>
	<path fill="#EFEEF3" d="M38.13,312.85l-0.8,5.62h-1.36l0.78-5.52c0.17-1.19-0.27-1.41-0.82-1.41c-0.84,0-1.61,1.05-2.24,2.16
		l-0.67,4.77h-1.37l0.78-5.52c0.17-1.19-0.27-1.41-0.83-1.41c-0.84,0-1.6,1.06-2.23,2.19l-0.65,4.74h-1.37l1.11-7.9h1.17l-0.12,1.51
		c0.72-1.02,1.53-1.7,2.58-1.7c0.86,0,1.59,0.56,1.72,1.61c0.78-1.04,1.61-1.61,2.6-1.61C37.6,310.39,38.34,311.35,38.13,312.85z"/>
	<path fill="#EFEEF3" d="M42.82,318.55c-0.76,1.68-1.93,2.88-4.12,3.12l-0.06-1.08c1.63-0.27,2.22-0.9,2.88-2.15l-0.53,0.03
		l-1.51-7.9h1.44l1.11,6.85l3.03-6.85h1.42L42.82,318.55z"/>
	<path fill="#EFEEF3" d="M57.13,311.07l-0.86,5.61c-0.01,0.12-0.03,0.22-0.03,0.31c0,0.44,0.2,0.6,0.51,0.72l-0.39,0.94
		c-0.79-0.1-1.29-0.46-1.39-1.32c-0.62,0.79-1.42,1.32-2.36,1.32c-1.65,0-2.52-1.21-2.52-3.03c0-2.16,1.14-5.24,4.21-5.24
		C55.26,310.39,56.08,310.56,57.13,311.07z M51.57,315.64c0,1.32,0.5,1.92,1.38,1.92c0.84,0,1.46-0.63,2.07-1.46l0.66-4.36
		c-0.45-0.2-0.78-0.25-1.33-0.25C52.33,311.49,51.57,313.88,51.57,315.64z"/>
	<path fill="#EFEEF3" d="M65.42,311.07l-1.09,7.23c-0.38,2.55-1.75,3.42-3.62,3.42c-0.95,0-1.98-0.3-2.73-0.77l0.52-1.05
		c0.48,0.29,1.31,0.63,2.13,0.63c1.05,0,2.08-0.31,2.36-2.25l0.13-1c-0.58,0.71-1.38,1.2-2.22,1.2c-1.65,0-2.57-1.17-2.57-2.97
		c0-2.36,1.19-5.12,4.26-5.12C63.55,310.39,64.38,310.56,65.42,311.07z M59.82,315.52c0,1.3,0.54,1.86,1.35,1.86
		c0.87,0,1.54-0.66,2.16-1.49l0.64-4.15c-0.45-0.2-0.78-0.25-1.33-0.25C60.62,311.49,59.82,313.6,59.82,315.52z"/>
	<path fill="#EFEEF3" d="M68.2,315.54c0.03,1.44,0.71,1.96,1.71,1.96c0.74,0,1.4-0.23,2.12-0.74l0.58,0.93
		c-0.86,0.62-1.79,0.96-2.83,0.96c-1.93,0-3.01-1.21-3.01-3.21c0-2.16,1.06-5.05,4.06-5.05c1.68,0,2.5,0.96,2.5,2.01
		C73.33,314.62,70.96,315.24,68.2,315.54z M71.89,312.45c0-0.38-0.23-0.96-1.08-0.96c-1.65,0-2.34,1.56-2.54,3
		C70.54,314.23,71.89,313.8,71.89,312.45z"/>
	<path fill="#EFEEF3" d="M81.1,312.93l-0.78,5.55h-1.37l0.78-5.52c0.15-1.11-0.24-1.41-0.84-1.41c-1,0-1.89,1.06-2.52,2.19
		l-0.65,4.74h-1.37l1.11-7.9h1.17l-0.12,1.54c0.74-1.04,1.61-1.73,2.75-1.73C80.59,310.39,81.32,311.35,81.1,312.93z"/>
	<path fill="#EFEEF3" d="M90.38,307.41l-1.56,11.07h-1.2l0.01-1.3c-0.55,0.92-1.36,1.48-2.38,1.48c-1.63,0-2.5-1.23-2.5-3.13
		c0-2.04,0.97-5.13,3.67-5.13c0.93,0,1.59,0.44,2.03,0.99l0.58-4.12L90.38,307.41z M84.21,315.63c0,1.33,0.5,1.93,1.32,1.93
		c0.97,0,1.62-0.72,2.32-1.83l0.46-3.28c-0.4-0.62-0.9-0.96-1.63-0.96C84.76,311.49,84.21,314.05,84.21,315.63z"/>
	<path fill="#EFEEF3" d="M98.28,311.07l-0.86,5.61c-0.01,0.12-0.03,0.22-0.03,0.31c0,0.44,0.2,0.6,0.51,0.72l-0.39,0.94
		c-0.79-0.1-1.29-0.46-1.39-1.32c-0.62,0.79-1.42,1.32-2.36,1.32c-1.65,0-2.52-1.21-2.52-3.03c0-2.16,1.14-5.24,4.21-5.24
		C96.4,310.39,97.22,310.56,98.28,311.07z M92.71,315.64c0,1.32,0.5,1.92,1.38,1.92c0.84,0,1.46-0.63,2.07-1.46l0.66-4.36
		c-0.45-0.2-0.78-0.25-1.33-0.25C93.48,311.49,92.71,313.88,92.71,315.64z"/>
	<path fill="#EFEEF3" d="M106.54,318.48h-1.38l1.2-8.43l-2.5,1.42l-0.46-1.11l3.34-1.92h1.21L106.54,318.48z"/>
</g>
<use xlink:href="#agenda" width="91" height="61" x="-45.5" y="-30.5" transform="matrix(1 0 0 -1 67.6074 272.8535)" overflow="visible"/>
<g>
	<path fill="#EFEEF3" d="M202.95,312.85l-0.8,5.62h-1.36l0.78-5.52c0.17-1.19-0.27-1.41-0.82-1.41c-0.84,0-1.61,1.05-2.24,2.16
		l-0.67,4.77h-1.37l0.78-5.52c0.17-1.19-0.27-1.41-0.83-1.41c-0.84,0-1.6,1.06-2.23,2.19l-0.65,4.74h-1.37l1.11-7.9h1.17l-0.12,1.51
		c0.72-1.02,1.53-1.7,2.58-1.7c0.86,0,1.59,0.56,1.72,1.61c0.78-1.04,1.61-1.61,2.6-1.61C202.42,310.39,203.16,311.35,202.95,312.85
		z"/>
	<path fill="#EFEEF3" d="M207.64,318.55c-0.76,1.68-1.93,2.88-4.12,3.12l-0.06-1.08c1.63-0.27,2.22-0.9,2.88-2.15l-0.53,0.03
		l-1.51-7.9h1.44l1.11,6.85l3.03-6.85h1.42L207.64,318.55z"/>
	<path fill="#EFEEF3" d="M221.95,311.07l-0.86,5.61c-0.01,0.12-0.03,0.22-0.03,0.31c0,0.44,0.2,0.6,0.51,0.72l-0.39,0.94
		c-0.79-0.1-1.29-0.46-1.39-1.32c-0.62,0.79-1.42,1.32-2.36,1.32c-1.65,0-2.52-1.21-2.52-3.03c0-2.16,1.14-5.24,4.21-5.24
		C220.08,310.39,220.9,310.56,221.95,311.07z M216.39,315.64c0,1.32,0.5,1.92,1.38,1.92c0.84,0,1.46-0.63,2.07-1.46l0.66-4.36
		c-0.45-0.2-0.78-0.25-1.33-0.25C217.15,311.49,216.39,313.88,216.39,315.64z"/>
	<path fill="#EFEEF3" d="M230.24,311.07l-1.09,7.23c-0.38,2.55-1.75,3.42-3.62,3.42c-0.95,0-1.98-0.3-2.73-0.77l0.52-1.05
		c0.48,0.29,1.31,0.63,2.13,0.63c1.05,0,2.08-0.31,2.36-2.25l0.13-1c-0.58,0.71-1.38,1.2-2.22,1.2c-1.65,0-2.57-1.17-2.57-2.97
		c0-2.36,1.19-5.12,4.26-5.12C228.37,310.39,229.19,310.56,230.24,311.07z M224.64,315.52c0,1.3,0.54,1.86,1.35,1.86
		c0.87,0,1.54-0.66,2.16-1.49l0.64-4.15c-0.45-0.2-0.78-0.25-1.33-0.25C225.44,311.49,224.64,313.6,224.64,315.52z"/>
	<path fill="#EFEEF3" d="M233.02,315.54c0.03,1.44,0.71,1.96,1.71,1.96c0.74,0,1.4-0.23,2.12-0.74l0.58,0.93
		c-0.86,0.62-1.79,0.96-2.83,0.96c-1.93,0-3.01-1.21-3.01-3.21c0-2.16,1.06-5.05,4.06-5.05c1.68,0,2.5,0.96,2.5,2.01
		C238.15,314.62,235.78,315.24,233.02,315.54z M236.71,312.45c0-0.38-0.23-0.96-1.08-0.96c-1.65,0-2.34,1.56-2.54,3
		C235.36,314.23,236.71,313.8,236.71,312.45z"/>
	<path fill="#EFEEF3" d="M245.92,312.93l-0.78,5.55h-1.37l0.78-5.52c0.15-1.11-0.24-1.41-0.84-1.41c-1,0-1.89,1.06-2.52,2.19
		l-0.65,4.74h-1.37l1.11-7.9h1.17l-0.12,1.54c0.74-1.04,1.61-1.73,2.75-1.73C245.41,310.39,246.14,311.35,245.92,312.93z"/>
	<path fill="#EFEEF3" d="M255.2,307.41l-1.56,11.07h-1.2l0.01-1.3c-0.55,0.92-1.36,1.48-2.38,1.48c-1.63,0-2.5-1.23-2.5-3.13
		c0-2.04,0.97-5.13,3.67-5.13c0.93,0,1.59,0.44,2.03,0.99l0.58-4.12L255.2,307.41z M249.02,315.63c0,1.33,0.5,1.93,1.32,1.93
		c0.97,0,1.62-0.72,2.32-1.83l0.46-3.28c-0.4-0.62-0.9-0.96-1.63-0.96C249.58,311.49,249.02,314.05,249.02,315.63z"/>
	<path fill="#EFEEF3" d="M263.1,311.07l-0.86,5.61c-0.01,0.12-0.03,0.22-0.03,0.31c0,0.44,0.2,0.6,0.51,0.72l-0.39,0.94
		c-0.79-0.1-1.29-0.46-1.39-1.32c-0.62,0.79-1.42,1.32-2.36,1.32c-1.65,0-2.52-1.21-2.52-3.03c0-2.16,1.14-5.24,4.21-5.24
		C261.22,310.39,262.04,310.56,263.1,311.07z M257.53,315.64c0,1.32,0.5,1.92,1.38,1.92c0.84,0,1.46-0.63,2.07-1.46l0.66-4.36
		c-0.45-0.2-0.78-0.25-1.33-0.25C258.3,311.49,257.53,313.88,257.53,315.64z"/>
	<path fill="#EFEEF3" d="M274.06,310.81c0,1.58-0.95,2.88-5.17,6.54l4.46-0.03l-0.33,1.16h-5.87l0.15-1.12
		c4.6-4.25,5.34-5.12,5.34-6.5c0-0.94-0.57-1.42-1.42-1.42c-0.86,0-1.49,0.36-2.22,1.12l-0.87-0.79c0.96-0.99,1.98-1.47,3.19-1.47
		C273.01,308.29,274.06,309.33,274.06,310.81z"/>
</g>
<use xlink:href="#agenda" width="91" height="61" x="-45.5" y="-30.5" transform="matrix(1 0 0 -1 232.8921 272.8535)" overflow="visible"/>
<g>
	<g>
		<line fill="none" stroke="#8B80A9" stroke-width="1.5" x1="375.41" y1="129.5" x2="378.8" y2="223.25"/>
		<g>
			<polygon fill="#8B80A9" points="375.05,222.29 379.02,228.62 382.52,222.02"/>
		</g>
	</g>
</g>
<g>
	<g>
		<line fill="none" stroke="#8B80A9" stroke-width="1.5" x1="461.83" y1="94.33" x2="396.03" y2="223.83"/>
		<g>
			<polygon fill="#8B80A9" points="393.21,221.17 393.61,228.63 399.87,224.55"/>
		</g>
	</g>
</g>
<g>
	<g>
		<line fill="none" stroke="#8B80A9" stroke-width="1.5" x1="478" y1="96.33" x2="482.82" y2="156.3"/>
		<g>
			<polygon fill="#8B80A9" points="479.02,155.51 483.27,161.67 486.48,154.91"/>
		</g>
	</g>
</g>
<g>
	<g>
		<line fill="none" stroke="#8B80A9" stroke-width="1.5" x1="494.33" y1="94.33" x2="572.38" y2="225.17"/>
		<g>
			<polygon fill="#8B80A9" points="568.62,226.13 575.15,229.78 575.05,222.3"/>
		</g>
	</g>
</g>
<g>
	<g>
		<path fill="none" stroke="#8B80A9" stroke-width="1.5" d="M594.38,116.88c0,0-48.14,48.82-64.12,61.72"/>
		<g>
			<polygon fill="#8B80A9" points="528.98,174.87 525.82,181.64 533.27,180.99"/>
		</g>
	</g>
</g>
<g>
	<g>
		<line fill="none" stroke="#8B80A9" stroke-width="1.5" x1="606.5" y1="119" x2="588.06" y2="224.49"/>
		<g>
			<polygon fill="#8B80A9" points="584.58,222.77 587.15,229.79 591.95,224.06"/>
		</g>
	</g>
</g>
<g>
	<path fill="#222222" d="M361.93,6.59V18.5h-2.82L359,17.62c-0.45,0.59-1.18,1.2-2.42,1.2c-2.23,0-3.25-1.82-3.25-4.64
		c0-2.66,1.38-4.55,3.65-4.55c0.64,0,1.3,0.24,1.78,0.67V6.27L361.93,6.59z M358.76,15.79v-3.43c-0.29-0.3-0.54-0.48-0.93-0.48
		c-0.71,0-1.25,0.59-1.25,2.32c0,2.05,0.5,2.34,1.1,2.34C358.08,16.55,358.45,16.32,358.76,15.79z"/>
	<path fill="#222222" d="M372.05,15.12h-5.19c0.18,1.23,0.78,1.46,1.71,1.46c0.61,0,1.2-0.24,1.94-0.75l1.28,1.73
		c-0.85,0.69-2.03,1.26-3.52,1.26c-3.14,0-4.61-1.94-4.61-4.58c0-2.5,1.42-4.61,4.26-4.61c2.53,0,4.19,1.62,4.19,4.48
		C372.12,14.39,372.08,14.82,372.05,15.12z M369,13.22c-0.02-0.86-0.19-1.58-1.01-1.58c-0.67,0-1.02,0.38-1.14,1.7H369V13.22z"/>
	<path fill="#222222" d="M380.93,10.77l-1.31,1.84c-0.51-0.42-0.99-0.59-1.5-0.59c-0.93,0-1.44,0.54-1.44,2.27
		c0,1.71,0.59,2.08,1.41,2.08c0.53,0,0.9-0.18,1.49-0.54l1.36,1.94c-0.78,0.64-1.75,1.06-3.03,1.06c-2.82,0-4.53-1.86-4.53-4.53
		c0-2.71,1.74-4.66,4.45-4.66C379.14,9.63,380.12,10.05,380.93,10.77z"/>
	<path fill="#222222" d="M390.07,15.12h-5.19c0.18,1.23,0.78,1.46,1.71,1.46c0.61,0,1.2-0.24,1.94-0.75l1.28,1.73
		c-0.85,0.69-2.03,1.26-3.52,1.26c-3.14,0-4.61-1.94-4.61-4.58c0-2.5,1.42-4.61,4.26-4.61c2.53,0,4.19,1.62,4.19,4.48
		C390.13,14.39,390.1,14.82,390.07,15.12z M387.01,13.22c-0.02-0.86-0.19-1.58-1.01-1.58c-0.67,0-1.02,0.38-1.14,1.7h2.15V13.22z"/>
	<path fill="#222222" d="M399.68,12.19v6.31h-3.17v-5.73c0-0.67-0.19-0.83-0.48-0.83c-0.34,0-0.7,0.27-1.07,0.85v5.71h-3.17V9.95
		h2.77l0.22,0.88c0.79-0.83,1.57-1.2,2.59-1.2C398.8,9.63,399.68,10.56,399.68,12.19z"/>
	<path fill="#222222" d="M407.73,18.08c-0.71,0.5-1.76,0.74-2.56,0.74c-2.14-0.02-3.11-1.22-3.11-3.47V12.1h-1.02V9.95h1.02V8.16
		l3.17-0.37v2.16h1.92l-0.32,2.15h-1.6v3.22c0,0.8,0.27,1.02,0.67,1.02c0.24,0,0.51-0.06,0.8-0.22L407.73,18.08z"/>
	<path fill="#222222" d="M415.01,9.82l-0.5,3.06c-0.27-0.08-0.51-0.13-0.78-0.13c-1.02,0-1.36,0.77-1.6,1.86v3.89h-3.17V9.95h2.77
		l0.26,1.6c0.35-1.12,1.22-1.87,2.16-1.87C414.48,9.68,414.71,9.73,415.01,9.82z"/>
	<path fill="#222222" d="M423.91,16.72l-0.64,2.03c-1.1-0.08-1.83-0.37-2.31-1.18c-0.62,0.94-1.6,1.25-2.58,1.25
		c-1.71,0-2.82-1.14-2.82-2.72c0-1.89,1.44-2.93,4.13-2.93h0.61v-0.21c0-0.86-0.29-1.09-1.23-1.09c-0.5,0-1.36,0.16-2.21,0.45
		l-0.69-2.02c1.07-0.43,2.4-0.67,3.38-0.67c2.72,0,3.84,1.04,3.84,3.15v2.95C423.4,16.34,423.52,16.58,423.91,16.72z M420.31,16.08
		v-1.26h-0.34c-0.9,0-1.31,0.3-1.31,0.98c0,0.48,0.27,0.8,0.7,0.8C419.76,16.59,420.1,16.37,420.31,16.08z"/>
	<path fill="#222222" d="M425.54,16.03V6.59l3.17-0.32v9.64c0,0.29,0.13,0.43,0.38,0.43c0.14,0,0.26-0.03,0.34-0.06l0.56,2.26
		c-0.42,0.16-1.04,0.29-1.76,0.29C426.5,18.82,425.54,17.81,425.54,16.03z"/>
	<path fill="#222222" d="M434.58,6.93c0,0.96-0.74,1.7-1.78,1.7s-1.78-0.74-1.78-1.7s0.74-1.7,1.78-1.7S434.58,5.97,434.58,6.93z
		 M434.39,18.5h-3.17V9.95h3.17V18.5z"/>
	<path fill="#222222" d="M443.14,12.15l-3.51,4.02h3.62l-0.27,2.34h-7.04v-2.21l3.55-4.03h-3.23v-2.3h6.88V12.15z"/>
	<path fill="#222222" d="M452.87,15.12h-5.19c0.18,1.23,0.78,1.46,1.71,1.46c0.61,0,1.2-0.24,1.94-0.75l1.28,1.73
		c-0.85,0.69-2.03,1.26-3.52,1.26c-3.14,0-4.61-1.94-4.61-4.58c0-2.5,1.42-4.61,4.26-4.61c2.53,0,4.19,1.62,4.19,4.48
		C452.93,14.39,452.9,14.82,452.87,15.12z M449.81,13.22c-0.02-0.86-0.19-1.58-1.01-1.58c-0.67,0-1.02,0.38-1.14,1.7h2.15V13.22z"/>
	<path fill="#222222" d="M462.87,6.59V18.5h-2.82l-0.11-0.88c-0.45,0.59-1.18,1.2-2.42,1.2c-2.22,0-3.25-1.82-3.25-4.64
		c0-2.66,1.38-4.55,3.65-4.55c0.64,0,1.3,0.24,1.78,0.67V6.27L462.87,6.59z M459.7,15.79v-3.43c-0.29-0.3-0.54-0.48-0.93-0.48
		c-0.7,0-1.25,0.59-1.25,2.32c0,2.05,0.5,2.34,1.1,2.34C459.03,16.55,459.39,16.32,459.7,15.79z"/>
	<path fill="#222222" d="M480.79,18.5h-4.29l-0.99-8l-1.1,8h-4.19l-1.55-11.14h3.3l0.71,8.76l1.18-8.76h3.44l0.99,8.76l0.96-8.76
		h3.17L480.79,18.5z"/>
	<path fill="#222222" d="M491.38,15.12h-5.19c0.18,1.23,0.78,1.46,1.71,1.46c0.61,0,1.2-0.24,1.94-0.75l1.28,1.73
		c-0.85,0.69-2.03,1.26-3.52,1.26c-3.14,0-4.61-1.94-4.61-4.58c0-2.5,1.42-4.61,4.26-4.61c2.53,0,4.19,1.62,4.19,4.48
		C491.44,14.39,491.41,14.82,491.38,15.12z M488.32,13.22c-0.02-0.86-0.19-1.58-1.01-1.58c-0.67,0-1.02,0.38-1.14,1.7h2.15V13.22z"
		/>
	<path fill="#222222" d="M501.67,14.24c0,2.61-1.26,4.58-3.42,4.58c-0.94,0-1.71-0.4-2.21-1.06l-0.11,0.74h-2.82V6.59l3.17-0.32
		v4.43c0.46-0.64,1.36-1.07,2.16-1.07C500.64,9.63,501.67,11.38,501.67,14.24z M498.42,14.24c0-2-0.45-2.34-1.01-2.34
		c-0.42,0-0.82,0.22-1.14,0.8v3.23c0.26,0.43,0.61,0.62,1.04,0.62C497.95,16.56,498.42,16.03,498.42,14.24z"/>
	<path fill="#222222" d="M515.71,16.72l-0.64,2.03c-1.1-0.08-1.83-0.37-2.31-1.18c-0.62,0.94-1.6,1.25-2.58,1.25
		c-1.71,0-2.82-1.14-2.82-2.72c0-1.89,1.44-2.93,4.13-2.93h0.61v-0.21c0-0.86-0.29-1.09-1.23-1.09c-0.5,0-1.36,0.16-2.21,0.45
		l-0.69-2.02c1.07-0.43,2.4-0.67,3.38-0.67c2.72,0,3.84,1.04,3.84,3.15v2.95C515.2,16.34,515.33,16.58,515.71,16.72z M512.11,16.08
		v-1.26h-0.34c-0.9,0-1.31,0.3-1.31,0.98c0,0.48,0.27,0.8,0.7,0.8C511.57,16.59,511.91,16.37,512.11,16.08z"/>
	<path fill="#222222" d="M525.99,14.19c0,2.66-1.36,4.63-3.41,4.63c-0.8,0-1.47-0.29-1.98-0.85v3.84l-3.17,0.32V9.95h2.82l0.13,0.83
		c0.74-0.88,1.67-1.15,2.35-1.15C524.96,9.63,525.99,11.38,525.99,14.19z M522.74,14.24c0-2.06-0.45-2.34-1.09-2.34
		c-0.35,0-0.74,0.22-1.06,0.8v3.27c0.29,0.43,0.56,0.59,0.94,0.59C522.24,16.56,522.74,15.97,522.74,14.24z"/>
	<path fill="#222222" d="M536.37,14.19c0,2.66-1.36,4.63-3.41,4.63c-0.8,0-1.47-0.29-1.98-0.85v3.84l-3.17,0.32V9.95h2.82l0.13,0.83
		c0.74-0.88,1.67-1.15,2.35-1.15C535.35,9.63,536.37,11.38,536.37,14.19z M533.12,14.24c0-2.06-0.45-2.34-1.09-2.34
		c-0.35,0-0.74,0.22-1.06,0.8v3.27c0.29,0.43,0.56,0.59,0.94,0.59C532.62,16.56,533.12,15.97,533.12,14.24z"/>
	<path fill="#222222" d="M538.11,16.03V6.59l3.17-0.32v9.64c0,0.29,0.13,0.43,0.38,0.43c0.14,0,0.26-0.03,0.34-0.06l0.56,2.26
		c-0.42,0.16-1.04,0.29-1.76,0.29C539.07,18.82,538.11,17.81,538.11,16.03z"/>
	<path fill="#222222" d="M547.15,6.93c0,0.96-0.74,1.7-1.78,1.7s-1.78-0.74-1.78-1.7s0.74-1.7,1.78-1.7S547.15,5.97,547.15,6.93z
		 M546.96,18.5h-3.17V9.95h3.17V18.5z"/>
	<path fill="#222222" d="M556.26,10.77l-1.31,1.84c-0.51-0.42-0.99-0.59-1.5-0.59c-0.93,0-1.44,0.54-1.44,2.27
		c0,1.71,0.59,2.08,1.41,2.08c0.53,0,0.9-0.18,1.49-0.54l1.36,1.94c-0.78,0.64-1.75,1.06-3.03,1.06c-2.82,0-4.53-1.86-4.53-4.53
		c0-2.71,1.74-4.66,4.45-4.66C554.46,9.63,555.44,10.05,556.26,10.77z"/>
	<path fill="#222222" d="M565.47,16.72l-0.64,2.03c-1.1-0.08-1.83-0.37-2.3-1.18c-0.62,0.94-1.6,1.25-2.58,1.25
		c-1.71,0-2.82-1.14-2.82-2.72c0-1.89,1.44-2.93,4.13-2.93h0.61v-0.21c0-0.86-0.29-1.09-1.23-1.09c-0.5,0-1.36,0.16-2.21,0.45
		l-0.69-2.02c1.07-0.43,2.4-0.67,3.38-0.67c2.72,0,3.84,1.04,3.84,3.15v2.95C564.96,16.34,565.09,16.58,565.47,16.72z M561.87,16.08
		v-1.26h-0.34c-0.9,0-1.31,0.3-1.31,0.98c0,0.48,0.27,0.8,0.7,0.8C561.33,16.59,561.66,16.37,561.87,16.08z"/>
	<path fill="#222222" d="M573.17,18.08c-0.71,0.5-1.76,0.74-2.56,0.74c-2.14-0.02-3.11-1.22-3.11-3.47V12.1h-1.02V9.95h1.02V8.16
		l3.17-0.37v2.16h1.92l-0.32,2.15h-1.6v3.22c0,0.8,0.27,1.02,0.67,1.02c0.24,0,0.51-0.06,0.8-0.22L573.17,18.08z"/>
	<path fill="#222222" d="M577.76,6.93c0,0.96-0.74,1.7-1.78,1.7s-1.78-0.74-1.78-1.7s0.74-1.7,1.78-1.7S577.76,5.97,577.76,6.93z
		 M577.57,18.5h-3.17V9.95h3.17V18.5z"/>
	<path fill="#222222" d="M588.11,14.24c0,2.79-1.68,4.58-4.4,4.58c-2.69,0-4.4-1.63-4.4-4.61c0-2.79,1.68-4.58,4.4-4.58
		C586.4,9.63,588.11,11.26,588.11,14.24z M582.56,14.21c0,1.7,0.35,2.34,1.15,2.34c0.8,0,1.15-0.69,1.15-2.31
		c0-1.7-0.35-2.34-1.15-2.34C582.91,11.9,582.56,12.59,582.56,14.21z"/>
	<path fill="#222222" d="M597.75,12.19v6.31h-3.17v-5.73c0-0.67-0.19-0.83-0.48-0.83c-0.34,0-0.7,0.27-1.07,0.85v5.71h-3.17V9.95
		h2.77l0.22,0.88c0.79-0.83,1.57-1.2,2.59-1.2C596.87,9.63,597.75,10.56,597.75,12.19z"/>
	<path fill="#222222" d="M606.51,10.74l-1.12,1.71c-0.61-0.38-1.34-0.62-2.03-0.62c-0.53,0-0.72,0.16-0.72,0.38
		c0,0.29,0.1,0.42,1.71,0.91c1.62,0.5,2.51,1.2,2.51,2.75c0,1.76-1.68,2.95-4.05,2.95c-1.5,0-2.88-0.53-3.76-1.36l1.5-1.66
		c0.61,0.48,1.39,0.85,2.18,0.85c0.56,0,0.9-0.18,0.9-0.53c0-0.42-0.18-0.5-1.65-0.94c-1.6-0.48-2.48-1.39-2.48-2.77
		c0-1.54,1.33-2.77,3.73-2.77C604.5,9.63,605.73,10.06,606.51,10.74z"/>
</g>
<g>
	<path fill="#222222" d="M48.87,10.77l-1.31,1.84c-0.51-0.42-0.99-0.59-1.5-0.59c-0.93,0-1.44,0.54-1.44,2.27
		c0,1.71,0.59,2.08,1.41,2.08c0.53,0,0.9-0.18,1.49-0.54l1.36,1.94c-0.79,0.64-1.75,1.06-3.03,1.06c-2.82,0-4.53-1.86-4.53-4.53
		c0-2.71,1.74-4.66,4.45-4.66C47.08,9.63,48.05,10.05,48.87,10.77z"/>
	<path fill="#222222" d="M58,15.12h-5.19c0.18,1.23,0.78,1.46,1.71,1.46c0.61,0,1.2-0.24,1.94-0.75l1.28,1.73
		c-0.85,0.69-2.03,1.26-3.52,1.26c-3.14,0-4.61-1.94-4.61-4.58c0-2.5,1.42-4.61,4.26-4.61c2.53,0,4.19,1.62,4.19,4.48
		C58.07,14.39,58.04,14.82,58,15.12z M54.95,13.22c-0.02-0.86-0.19-1.58-1.01-1.58c-0.67,0-1.02,0.38-1.14,1.7h2.15V13.22z"/>
	<path fill="#222222" d="M67.62,12.19v6.31h-3.17v-5.73c0-0.67-0.19-0.83-0.48-0.83c-0.34,0-0.7,0.27-1.07,0.85v5.71h-3.17V9.95
		h2.77l0.22,0.88c0.79-0.83,1.57-1.2,2.59-1.2C66.74,9.63,67.62,10.56,67.62,12.19z"/>
	<path fill="#222222" d="M75.67,18.08c-0.71,0.5-1.76,0.74-2.56,0.74C70.96,18.8,70,17.6,70,15.35V12.1h-1.02V9.95H70V8.16
		l3.17-0.37v2.16h1.92l-0.32,2.15h-1.6v3.22c0,0.8,0.27,1.02,0.67,1.02c0.24,0,0.51-0.06,0.8-0.22L75.67,18.08z"/>
	<path fill="#222222" d="M82.95,9.82l-0.5,3.06c-0.27-0.08-0.51-0.13-0.78-0.13c-1.02,0-1.36,0.77-1.6,1.86v3.89H76.9V9.95h2.77
		l0.26,1.6c0.35-1.12,1.22-1.87,2.16-1.87C82.42,9.68,82.64,9.73,82.95,9.82z"/>
	<path fill="#222222" d="M91.84,16.72l-0.64,2.03c-1.1-0.08-1.83-0.37-2.31-1.18c-0.62,0.94-1.6,1.25-2.58,1.25
		c-1.71,0-2.82-1.14-2.82-2.72c0-1.89,1.44-2.93,4.13-2.93h0.61v-0.21c0-0.86-0.29-1.09-1.23-1.09c-0.5,0-1.36,0.16-2.21,0.45
		l-0.69-2.02c1.07-0.43,2.4-0.67,3.38-0.67c2.72,0,3.84,1.04,3.84,3.15v2.95C91.33,16.34,91.46,16.58,91.84,16.72z M88.24,16.08
		v-1.26h-0.34c-0.9,0-1.31,0.3-1.31,0.98c0,0.48,0.27,0.8,0.7,0.8C87.7,16.59,88.03,16.37,88.24,16.08z"/>
	<path fill="#222222" d="M93.47,16.03V6.59l3.17-0.32v9.64c0,0.29,0.13,0.43,0.38,0.43c0.14,0,0.26-0.03,0.34-0.06l0.56,2.26
		c-0.42,0.16-1.04,0.29-1.76,0.29C94.43,18.82,93.47,17.81,93.47,16.03z"/>
	<path fill="#222222" d="M102.51,6.93c0,0.96-0.74,1.7-1.78,1.7s-1.78-0.74-1.78-1.7s0.74-1.7,1.78-1.7S102.51,5.97,102.51,6.93z
		 M102.32,18.5h-3.17V9.95h3.17V18.5z"/>
	<path fill="#222222" d="M111.08,12.15l-3.51,4.02h3.62l-0.27,2.34h-7.04v-2.21l3.55-4.03h-3.23v-2.3h6.88V12.15z"/>
	<path fill="#222222" d="M120.8,15.12h-5.19c0.18,1.23,0.78,1.46,1.71,1.46c0.61,0,1.2-0.24,1.94-0.75l1.28,1.73
		c-0.85,0.69-2.03,1.26-3.52,1.26c-3.14,0-4.61-1.94-4.61-4.58c0-2.5,1.42-4.61,4.26-4.61c2.53,0,4.19,1.62,4.19,4.48
		C120.87,14.39,120.84,14.82,120.8,15.12z M117.75,13.22c-0.02-0.86-0.19-1.58-1.01-1.58c-0.67,0-1.02,0.38-1.14,1.7h2.15V13.22z"/>
	<path fill="#222222" d="M130.8,6.59V18.5h-2.82l-0.11-0.88c-0.45,0.59-1.18,1.2-2.42,1.2c-2.22,0-3.25-1.82-3.25-4.64
		c0-2.66,1.38-4.55,3.65-4.55c0.64,0,1.3,0.24,1.78,0.67V6.27L130.8,6.59z M127.63,15.79v-3.43c-0.29-0.3-0.54-0.48-0.93-0.48
		c-0.7,0-1.25,0.59-1.25,2.32c0,2.05,0.5,2.34,1.1,2.34C126.96,16.55,127.33,16.32,127.63,15.79z"/>
	<path fill="#222222" d="M148.72,18.5h-4.29l-0.99-8l-1.1,8h-4.19l-1.55-11.14h3.3l0.71,8.76l1.18-8.76h3.44l0.99,8.76l0.96-8.76
		h3.17L148.72,18.5z"/>
	<path fill="#222222" d="M159.32,15.12h-5.19c0.18,1.23,0.78,1.46,1.71,1.46c0.61,0,1.2-0.24,1.94-0.75l1.28,1.73
		c-0.85,0.69-2.03,1.26-3.52,1.26c-3.14,0-4.61-1.94-4.61-4.58c0-2.5,1.42-4.61,4.26-4.61c2.53,0,4.19,1.62,4.19,4.48
		C159.38,14.39,159.35,14.82,159.32,15.12z M156.26,13.22c-0.02-0.86-0.19-1.58-1.01-1.58c-0.67,0-1.02,0.38-1.14,1.7h2.15V13.22z"
		/>
	<path fill="#222222" d="M169.6,14.24c0,2.61-1.26,4.58-3.42,4.58c-0.94,0-1.71-0.4-2.21-1.06l-0.11,0.74h-2.82V6.59l3.17-0.32v4.43
		c0.46-0.64,1.36-1.07,2.16-1.07C168.58,9.63,169.6,11.38,169.6,14.24z M166.35,14.24c0-2-0.45-2.34-1.01-2.34
		c-0.42,0-0.82,0.22-1.14,0.8v3.23c0.26,0.43,0.61,0.62,1.04,0.62C165.89,16.56,166.35,16.03,166.35,14.24z"/>
	<path fill="#222222" d="M183.65,16.72l-0.64,2.03c-1.1-0.08-1.83-0.37-2.31-1.18c-0.62,0.94-1.6,1.25-2.58,1.25
		c-1.71,0-2.82-1.14-2.82-2.72c0-1.89,1.44-2.93,4.13-2.93h0.61v-0.21c0-0.86-0.29-1.09-1.23-1.09c-0.5,0-1.36,0.16-2.21,0.45
		l-0.69-2.02c1.07-0.43,2.4-0.67,3.38-0.67c2.72,0,3.84,1.04,3.84,3.15v2.95C183.14,16.34,183.27,16.58,183.65,16.72z M180.05,16.08
		v-1.26h-0.34c-0.9,0-1.31,0.3-1.31,0.98c0,0.48,0.27,0.8,0.7,0.8C179.5,16.59,179.84,16.37,180.05,16.08z"/>
	<path fill="#222222" d="M193.92,14.19c0,2.66-1.36,4.63-3.41,4.63c-0.8,0-1.47-0.29-1.98-0.85v3.84l-3.17,0.32V9.95h2.82l0.13,0.83
		c0.74-0.88,1.67-1.15,2.35-1.15C192.9,9.63,193.92,11.38,193.92,14.19z M190.67,14.24c0-2.06-0.45-2.34-1.09-2.34
		c-0.35,0-0.74,0.22-1.06,0.8v3.27c0.29,0.43,0.56,0.59,0.94,0.59C190.18,16.56,190.67,15.97,190.67,14.24z"/>
	<path fill="#222222" d="M204.31,14.19c0,2.66-1.36,4.63-3.41,4.63c-0.8,0-1.47-0.29-1.98-0.85v3.84l-3.17,0.32V9.95h2.82l0.13,0.83
		c0.74-0.88,1.67-1.15,2.35-1.15C203.28,9.63,204.31,11.38,204.31,14.19z M201.06,14.24c0-2.06-0.45-2.34-1.09-2.34
		c-0.35,0-0.74,0.22-1.06,0.8v3.27c0.29,0.43,0.56,0.59,0.94,0.59C200.56,16.56,201.06,15.97,201.06,14.24z"/>
	<path fill="#222222" d="M206.05,16.03V6.59l3.17-0.32v9.64c0,0.29,0.13,0.43,0.38,0.43c0.14,0,0.26-0.03,0.34-0.06l0.56,2.26
		c-0.42,0.16-1.04,0.29-1.76,0.29C207.01,18.82,206.05,17.81,206.05,16.03z"/>
	<path fill="#222222" d="M215.09,6.93c0,0.96-0.74,1.7-1.78,1.7s-1.78-0.74-1.78-1.7s0.74-1.7,1.78-1.7S215.09,5.97,215.09,6.93z
		 M214.9,18.5h-3.17V9.95h3.17V18.5z"/>
	<path fill="#222222" d="M224.19,10.77l-1.31,1.84c-0.51-0.42-0.99-0.59-1.5-0.59c-0.93,0-1.44,0.54-1.44,2.27
		c0,1.71,0.59,2.08,1.41,2.08c0.53,0,0.9-0.18,1.49-0.54l1.36,1.94c-0.78,0.64-1.75,1.06-3.03,1.06c-2.82,0-4.53-1.86-4.53-4.53
		c0-2.71,1.74-4.66,4.45-4.66C222.4,9.63,223.38,10.05,224.19,10.77z"/>
	<path fill="#222222" d="M233.41,16.72l-0.64,2.03c-1.1-0.08-1.83-0.37-2.31-1.18c-0.62,0.94-1.6,1.25-2.58,1.25
		c-1.71,0-2.82-1.14-2.82-2.72c0-1.89,1.44-2.93,4.13-2.93h0.61v-0.21c0-0.86-0.29-1.09-1.23-1.09c-0.5,0-1.36,0.16-2.21,0.45
		l-0.69-2.02c1.07-0.43,2.4-0.67,3.38-0.67c2.72,0,3.84,1.04,3.84,3.15v2.95C232.9,16.34,233.03,16.58,233.41,16.72z M229.81,16.08
		v-1.26h-0.34c-0.9,0-1.31,0.3-1.31,0.98c0,0.48,0.27,0.8,0.7,0.8C229.26,16.59,229.6,16.37,229.81,16.08z"/>
	<path fill="#222222" d="M241.11,18.08c-0.7,0.5-1.76,0.74-2.56,0.74c-2.14-0.02-3.11-1.22-3.11-3.47V12.1h-1.02V9.95h1.02V8.16
		l3.17-0.37v2.16h1.92l-0.32,2.15h-1.6v3.22c0,0.8,0.27,1.02,0.67,1.02c0.24,0,0.51-0.06,0.8-0.22L241.11,18.08z"/>
	<path fill="#222222" d="M245.7,6.93c0,0.96-0.74,1.7-1.78,1.7s-1.78-0.74-1.78-1.7s0.74-1.7,1.78-1.7S245.7,5.97,245.7,6.93z
		 M245.5,18.5h-3.17V9.95h3.17V18.5z"/>
	<path fill="#222222" d="M256.05,14.24c0,2.79-1.68,4.58-4.4,4.58c-2.69,0-4.4-1.63-4.4-4.61c0-2.79,1.68-4.58,4.4-4.58
		C254.34,9.63,256.05,11.26,256.05,14.24z M250.5,14.21c0,1.7,0.35,2.34,1.15,2.34c0.8,0,1.15-0.69,1.15-2.31
		c0-1.7-0.35-2.34-1.15-2.34C250.85,11.9,250.5,12.59,250.5,14.21z"/>
	<path fill="#222222" d="M265.68,12.19v6.31h-3.17v-5.73c0-0.67-0.19-0.83-0.48-0.83c-0.34,0-0.7,0.27-1.07,0.85v5.71h-3.17V9.95
		h2.77l0.22,0.88c0.79-0.83,1.57-1.2,2.59-1.2C264.8,9.63,265.68,10.56,265.68,12.19z"/>
	<path fill="#222222" d="M274.45,10.74l-1.12,1.71c-0.61-0.38-1.34-0.62-2.03-0.62c-0.53,0-0.72,0.16-0.72,0.38
		c0,0.29,0.1,0.42,1.71,0.91c1.62,0.5,2.51,1.2,2.51,2.75c0,1.76-1.68,2.95-4.05,2.95c-1.5,0-2.88-0.53-3.76-1.36l1.5-1.66
		c0.61,0.48,1.39,0.85,2.18,0.85c0.56,0,0.9-0.18,0.9-0.53c0-0.42-0.18-0.5-1.65-0.94c-1.6-0.48-2.48-1.39-2.48-2.77
		c0-1.54,1.33-2.77,3.73-2.77C272.43,9.63,273.67,10.06,274.45,10.74z"/>
</g>
<g>
	<path fill="#3D2C70" d="M333.28,109.5c0,11.05,8.95,20,20,20h44.24c11.05,0,20-8.95,20-20v-27c0-11.05-8.95-20-20-20h-44.24
		c-11.05,0-20,8.95-20,20V109.5z"/>
</g>
<g>
	<path fill="#FFFFFF" d="M363.12,87.49c0,2.46-1.2,4.26-3.17,4.26c-0.78,0-1.44-0.27-1.93-0.84v3.66l-2.37,0.25V83.53h2.08
		l0.12,0.89c0.66-0.83,1.51-1.14,2.25-1.14C362.21,83.28,363.12,84.91,363.12,87.49z M360.66,87.52c0-1.98-0.48-2.5-1.3-2.5
		c-0.51,0-0.99,0.34-1.33,0.93v3.36c0.33,0.48,0.72,0.71,1.21,0.71C360.12,90.01,360.66,89.31,360.66,87.52z"/>
	<path fill="#FFFFFF" d="M371.62,85.68v5.82h-2.37v-5.41c0-0.84-0.3-1.07-0.75-1.07c-0.52,0-0.96,0.38-1.38,1.02v5.46h-2.37V80.37
		l2.37-0.24v4.25c0.65-0.72,1.37-1.1,2.29-1.1C370.8,83.28,371.62,84.16,371.62,85.68z"/>
	<path fill="#FFFFFF" d="M380.91,87.52c0,2.55-1.47,4.23-3.9,4.23c-2.42,0-3.9-1.56-3.9-4.24c0-2.55,1.47-4.23,3.9-4.23
		S380.91,84.84,380.91,87.52z M375.57,87.51c0,1.77,0.48,2.5,1.44,2.5s1.44-0.77,1.44-2.49c0-1.77-0.48-2.5-1.44-2.5
		S375.57,85.78,375.57,87.51z"/>
	<path fill="#FFFFFF" d="M387.46,91.12c-0.6,0.42-1.44,0.63-2.16,0.63c-1.75-0.01-2.61-1-2.61-2.88v-3.69h-1.12v-1.65h1.12v-1.72
		l2.37-0.27v1.99h1.83l-0.25,1.65h-1.58v3.66c0,0.76,0.26,1.03,0.75,1.03c0.27,0,0.54-0.07,0.86-0.27L387.46,91.12z"/>
	<path fill="#FFFFFF" d="M395.61,87.52c0,2.55-1.47,4.23-3.9,4.23c-2.42,0-3.9-1.56-3.9-4.24c0-2.55,1.47-4.23,3.9-4.23
		S395.61,84.84,395.61,87.52z M390.27,87.51c0,1.77,0.48,2.5,1.44,2.5s1.44-0.77,1.44-2.49c0-1.77-0.48-2.5-1.44-2.5
		S390.27,85.78,390.27,87.51z"/>
	<path fill="#FFFFFF" d="M359.38,104c-0.55,0.22-1.29,0.31-2.29,0.31c1,0.44,1.5,1.02,1.5,2.05c0,1.54-1.28,2.67-3.34,2.67
		c-0.33,0-0.63-0.03-0.92-0.09c-0.17,0.09-0.25,0.27-0.25,0.45c0,0.24,0.1,0.48,0.87,0.48h1.2c1.86,0,3.04,0.98,3.04,2.31
		c0,1.63-1.44,2.64-4.17,2.64c-3.01,0-3.81-0.99-3.81-2.56h2.13c0,0.69,0.3,0.99,1.74,0.99c1.39,0,1.72-0.39,1.72-0.9
		c0-0.46-0.34-0.78-1.14-0.78h-1.16c-1.74,0-2.44-0.72-2.44-1.58c0-0.58,0.38-1.17,0.94-1.53c-1.02-0.54-1.42-1.25-1.42-2.28
		c0-1.8,1.41-2.91,3.5-2.91c1.77,0.04,2.79-0.46,3.75-1.03L359.38,104z M353.93,106.16c0,0.87,0.48,1.35,1.2,1.35
		c0.78,0,1.2-0.46,1.2-1.38c0-0.89-0.41-1.29-1.2-1.29C354.4,104.84,353.93,105.33,353.93,106.16z"/>
	<path fill="#FFFFFF" d="M367.33,110.16l-0.5,1.54c-0.93-0.08-1.54-0.36-1.92-1.14c-0.57,0.87-1.46,1.18-2.4,1.18
		c-1.59,0-2.6-1.03-2.6-2.49c0-1.74,1.32-2.69,3.74-2.69h0.81v-0.34c0-0.95-0.38-1.23-1.35-1.23c-0.51,0-1.29,0.15-2.08,0.42
		l-0.54-1.56c1-0.38,2.1-0.58,3-0.58c2.31,0,3.3,0.98,3.3,2.82v3.09C366.79,109.8,366.95,110.03,367.33,110.16z M364.46,109.31
		v-1.42h-0.58c-1.08,0-1.6,0.38-1.6,1.17c0,0.63,0.34,1,0.93,1C363.74,110.06,364.18,109.77,364.46,109.31z"/>
	<path fill="#FFFFFF" d="M368.75,109.47v-9.1l2.37-0.26v9.27c0,0.33,0.12,0.49,0.41,0.49c0.17,0,0.29-0.03,0.39-0.07l0.46,1.68
		c-0.36,0.15-0.87,0.27-1.44,0.27C369.56,111.75,368.75,110.93,368.75,109.47z"/>
	<path fill="#FFFFFF" d="M373.36,109.47v-9.1l2.37-0.26v9.27c0,0.33,0.12,0.49,0.41,0.49c0.17,0,0.29-0.03,0.39-0.07l0.46,1.68
		c-0.36,0.15-0.87,0.27-1.44,0.27C374.17,111.75,373.36,110.93,373.36,109.47z"/>
	<path fill="#FFFFFF" d="M384.79,108.21h-4.92c0.15,1.42,0.82,1.81,1.8,1.81c0.64,0,1.21-0.22,1.9-0.71l0.98,1.32
		c-0.79,0.63-1.82,1.11-3.11,1.11c-2.65,0-4-1.71-4-4.2c0-2.38,1.3-4.28,3.72-4.28c2.28,0,3.67,1.5,3.67,4.08
		C384.83,107.61,384.82,107.97,384.79,108.21z M382.51,106.68c-0.01-1.08-0.34-1.83-1.29-1.83c-0.79,0-1.25,0.5-1.37,1.93h2.66
		V106.68z"/>
	<path fill="#FFFFFF" d="M391.46,103.41l-0.38,2.29c-0.25-0.06-0.45-0.11-0.72-0.11c-0.98,0-1.4,0.72-1.65,1.92v3.97h-2.37v-7.96
		h2.07l0.2,1.53c0.36-1.09,1.14-1.75,2.05-1.75C390.97,103.31,391.21,103.34,391.46,103.41z"/>
	<path fill="#FFFFFF" d="M397.25,111.51c-0.63,2.01-1.98,3.18-4.49,3.31l-0.25-1.67c1.56-0.2,2.13-0.64,2.56-1.67h-0.81l-2.43-7.96
		h2.52l1.42,6.45l1.56-6.45h2.44L397.25,111.51z"/>
</g>
<g>
	<path fill="#3D2C70" d="M438.76,77.5c0,11.05,8.95,20,20,20H503c11.05,0,20-8.95,20-20v-27c0-11.05-8.95-20-20-20h-44.24
		c-11.05,0-20,8.95-20,20V77.5z"/>
</g>
<g>
	<path fill="#FFFFFF" d="M467.12,52.25l-0.87,1.33c-0.62-0.39-1.28-0.62-1.96-0.62c-0.65,0-0.96,0.24-0.96,0.6
		c0,0.42,0.21,0.6,1.63,1.02c1.58,0.45,2.46,1.11,2.46,2.53c0,1.65-1.56,2.62-3.54,2.62c-1.38,0-2.55-0.48-3.33-1.19l1.16-1.29
		c0.6,0.46,1.33,0.78,2.11,0.78c0.72,0,1.16-0.27,1.16-0.75c0-0.54-0.24-0.71-1.68-1.11c-1.58-0.45-2.35-1.26-2.35-2.49
		c0-1.37,1.24-2.43,3.25-2.43C465.35,51.28,466.38,51.65,467.12,52.25z"/>
	<path fill="#FFFFFF" d="M476.13,55.52c0,2.55-1.47,4.23-3.9,4.23c-2.42,0-3.9-1.56-3.9-4.24c0-2.55,1.47-4.23,3.9-4.23
		S476.13,52.84,476.13,55.52z M470.79,55.51c0,1.77,0.48,2.5,1.44,2.5s1.44-0.77,1.44-2.49c0-1.77-0.48-2.5-1.44-2.5
		S470.79,53.78,470.79,55.51z"/>
	<path fill="#FFFFFF" d="M483.87,52.25l-1.02,1.41c-0.51-0.39-0.97-0.57-1.51-0.57c-1.02,0-1.61,0.69-1.61,2.48
		c0,1.77,0.63,2.31,1.58,2.31c0.57,0,0.96-0.18,1.53-0.54l1.03,1.47c-0.73,0.58-1.59,0.94-2.68,0.94c-2.45,0-3.94-1.65-3.94-4.17
		c0-2.53,1.51-4.3,3.9-4.3C482.25,51.28,483.11,51.61,483.87,52.25z"/>
	<path fill="#FFFFFF" d="M487.61,48.68c0,0.76-0.58,1.35-1.41,1.35c-0.82,0-1.39-0.58-1.39-1.35c0-0.77,0.57-1.35,1.39-1.35
		C487.02,47.33,487.61,47.92,487.61,48.68z M487.4,59.5h-2.37v-7.96h2.37V59.5z"/>
	<path fill="#FFFFFF" d="M496.28,58.16l-0.5,1.54c-0.93-0.08-1.54-0.36-1.92-1.14c-0.57,0.87-1.46,1.19-2.4,1.19
		c-1.59,0-2.6-1.03-2.6-2.49c0-1.74,1.32-2.69,3.74-2.69h0.81v-0.34c0-0.95-0.38-1.23-1.35-1.23c-0.51,0-1.29,0.15-2.08,0.42
		l-0.54-1.56c1-0.38,2.1-0.58,3-0.58c2.31,0,3.3,0.98,3.3,2.82v3.09C495.74,57.8,495.9,58.03,496.28,58.16z M493.41,57.31v-1.42
		h-0.58c-1.08,0-1.6,0.38-1.6,1.17c0,0.63,0.34,1,0.93,1C492.69,58.06,493.13,57.77,493.41,57.31z"/>
	<path fill="#FFFFFF" d="M497.7,57.47v-9.1l2.37-0.26v9.27c0,0.33,0.12,0.49,0.41,0.49c0.17,0,0.29-0.03,0.39-0.07l0.46,1.68
		c-0.36,0.15-0.87,0.27-1.44,0.27C498.51,59.75,497.7,58.93,497.7,57.47z"/>
	<path fill="#FFFFFF" d="M468.87,70.92v0.61h1.88l-0.26,1.65h-1.62v6.31h-2.37v-6.31h-1.2v-1.65h1.2v-0.7c0-1.53,1-2.72,3.04-2.72
		c0.83,0,1.59,0.21,2.17,0.51l-0.65,1.54c-0.45-0.23-0.9-0.3-1.24-0.3C469.13,69.87,468.87,70.17,468.87,70.92z"/>
	<path fill="#FFFFFF" d="M478.42,76.21h-4.92c0.15,1.42,0.82,1.81,1.8,1.81c0.64,0,1.21-0.23,1.9-0.71l0.98,1.32
		c-0.79,0.63-1.82,1.11-3.11,1.11c-2.65,0-4-1.71-4-4.2c0-2.38,1.31-4.27,3.72-4.27c2.28,0,3.67,1.5,3.67,4.08
		C478.46,75.61,478.45,75.97,478.42,76.21z M476.14,74.68c-0.01-1.08-0.34-1.83-1.29-1.83c-0.79,0-1.25,0.49-1.37,1.93h2.66V74.68z"
		/>
	<path fill="#FFFFFF" d="M486.88,76.21h-4.92c0.15,1.42,0.82,1.81,1.8,1.81c0.64,0,1.21-0.23,1.9-0.71l0.98,1.32
		c-0.79,0.63-1.82,1.11-3.11,1.11c-2.65,0-4-1.71-4-4.2c0-2.38,1.3-4.27,3.72-4.27c2.28,0,3.67,1.5,3.67,4.08
		C486.92,75.61,486.91,75.97,486.88,76.21z M484.6,74.68c-0.01-1.08-0.34-1.83-1.29-1.83c-0.79,0-1.25,0.49-1.37,1.93h2.66V74.68z"
		/>
	<path fill="#FFFFFF" d="M495.58,68.37V79.5h-2.1l-0.12-0.93c-0.45,0.66-1.18,1.19-2.26,1.19c-2.03,0-3.03-1.68-3.03-4.26
		c0-2.46,1.25-4.21,3.3-4.21c0.72,0,1.37,0.29,1.85,0.75v-3.92L495.58,68.37z M493.21,77.13v-3.45c-0.36-0.42-0.72-0.67-1.23-0.67
		c-0.85,0-1.46,0.72-1.46,2.5c0,1.98,0.54,2.5,1.32,2.5C492.4,78.01,492.83,77.71,493.21,77.13z"/>
</g>
<g>
	<path fill="#3D2C70" d="M546.01,99c0,11.05,8.95,20,20,20h44.24c11.05,0,20-8.95,20-20V72c0-11.05-8.95-20-20-20h-44.24
		c-11.05,0-20,8.95-20,20V99z"/>
</g>
<g>
	<path fill="#FFFFFF" d="M571.39,75.18V81h-2.37v-5.41c0-0.84-0.31-1.07-0.67-1.07c-0.51,0-0.87,0.38-1.21,1.04V81h-2.37v-5.41
		c0-0.84-0.31-1.07-0.67-1.07c-0.5,0-0.87,0.38-1.21,1.04V81h-2.37v-7.96h2.07l0.17,0.93c0.62-0.78,1.33-1.19,2.31-1.19
		c0.88,0,1.56,0.45,1.88,1.26c0.63-0.82,1.37-1.26,2.38-1.26C570.53,72.78,571.39,73.66,571.39,75.18z"/>
	<path fill="#FFFFFF" d="M580.22,77.71h-4.92c0.15,1.42,0.82,1.81,1.8,1.81c0.64,0,1.21-0.22,1.9-0.71l0.98,1.32
		c-0.79,0.63-1.82,1.11-3.11,1.11c-2.65,0-4-1.71-4-4.2c0-2.38,1.3-4.28,3.72-4.28c2.28,0,3.67,1.5,3.67,4.08
		C580.27,77.11,580.25,77.47,580.22,77.71z M577.94,76.18c-0.01-1.08-0.34-1.83-1.29-1.83c-0.79,0-1.25,0.5-1.37,1.93h2.66V76.18z"
		/>
	<path fill="#FFFFFF" d="M588.68,77.71h-4.92c0.15,1.42,0.82,1.81,1.8,1.81c0.64,0,1.21-0.22,1.9-0.71l0.98,1.32
		c-0.79,0.63-1.82,1.11-3.11,1.11c-2.65,0-4-1.71-4-4.2c0-2.38,1.3-4.28,3.72-4.28c2.28,0,3.67,1.5,3.67,4.08
		C588.73,77.11,588.71,77.47,588.68,77.71z M586.4,76.18c-0.01-1.08-0.34-1.83-1.29-1.83c-0.79,0-1.25,0.5-1.37,1.93h2.66V76.18z"/>
	<path fill="#FFFFFF" d="M595.24,80.62c-0.6,0.42-1.44,0.63-2.16,0.63c-1.75-0.01-2.61-1-2.61-2.88v-3.69h-1.12v-1.65h1.12v-1.72
		l2.37-0.27v1.99h1.83l-0.25,1.65h-1.58v3.66c0,0.76,0.26,1.03,0.75,1.03c0.27,0,0.54-0.07,0.86-0.27L595.24,80.62z"/>
	<path fill="#FFFFFF" d="M598.76,70.18c0,0.76-0.58,1.35-1.41,1.35c-0.82,0-1.39-0.58-1.39-1.35s0.57-1.35,1.39-1.35
		C598.18,68.83,598.76,69.42,598.76,70.18z M598.55,81h-2.37v-7.96h2.37V81z"/>
	<path fill="#FFFFFF" d="M607.43,75.18V81h-2.37v-5.41c0-0.84-0.29-1.07-0.75-1.07c-0.52,0-0.96,0.38-1.38,1.04V81h-2.37v-7.96h2.07
		l0.17,0.95c0.67-0.78,1.44-1.2,2.43-1.2C606.61,72.78,607.43,73.66,607.43,75.18z"/>
	<path fill="#FFFFFF" d="M616.7,73.5c-0.55,0.22-1.29,0.31-2.29,0.31c1,0.44,1.5,1.02,1.5,2.05c0,1.54-1.28,2.67-3.34,2.67
		c-0.33,0-0.63-0.03-0.92-0.09c-0.17,0.09-0.25,0.27-0.25,0.45c0,0.24,0.1,0.48,0.87,0.48h1.2c1.86,0,3.04,0.98,3.04,2.31
		c0,1.63-1.44,2.64-4.17,2.64c-3.01,0-3.81-0.99-3.81-2.56h2.13c0,0.69,0.3,0.99,1.74,0.99c1.39,0,1.72-0.39,1.72-0.9
		c0-0.46-0.34-0.78-1.14-0.78h-1.16c-1.74,0-2.44-0.72-2.44-1.58c0-0.58,0.38-1.17,0.94-1.53c-1.02-0.54-1.42-1.25-1.42-2.28
		c0-1.8,1.41-2.91,3.5-2.91c1.77,0.04,2.79-0.46,3.75-1.03L616.7,73.5z M611.26,75.66c0,0.87,0.48,1.35,1.2,1.35
		c0.78,0,1.2-0.46,1.2-1.38c0-0.89-0.41-1.29-1.2-1.29C611.72,74.34,611.26,74.83,611.26,75.66z"/>
	<path fill="#FFFFFF" d="M560.39,93.75l-0.87,1.33c-0.62-0.39-1.28-0.62-1.96-0.62c-0.65,0-0.96,0.24-0.96,0.6
		c0,0.42,0.21,0.6,1.63,1.02c1.58,0.45,2.46,1.11,2.46,2.53c0,1.65-1.56,2.62-3.54,2.62c-1.38,0-2.55-0.48-3.33-1.18l1.16-1.29
		c0.6,0.46,1.33,0.78,2.12,0.78c0.72,0,1.15-0.27,1.15-0.75c0-0.54-0.24-0.71-1.68-1.11c-1.58-0.45-2.36-1.26-2.36-2.49
		c0-1.37,1.25-2.43,3.25-2.43C558.62,92.78,559.66,93.15,560.39,93.75z"/>
	<path fill="#FFFFFF" d="M568.24,93.75l-1.02,1.41c-0.51-0.39-0.97-0.57-1.51-0.57c-1.02,0-1.61,0.69-1.61,2.47
		c0,1.77,0.63,2.31,1.58,2.31c0.57,0,0.96-0.18,1.53-0.54l1.03,1.47c-0.73,0.58-1.59,0.94-2.68,0.94c-2.45,0-3.95-1.65-3.95-4.17
		c0-2.53,1.52-4.3,3.9-4.3C566.62,92.78,567.47,93.11,568.24,93.75z"/>
	<path fill="#FFFFFF" d="M576.26,95.18V101h-2.37v-5.41c0-0.84-0.3-1.07-0.75-1.07c-0.52,0-0.96,0.38-1.38,1.02V101h-2.37V89.87
		l2.37-0.24v4.25c0.65-0.72,1.37-1.1,2.29-1.1C575.44,92.78,576.26,93.66,576.26,95.18z"/>
	<path fill="#FFFFFF" d="M585.1,97.71h-4.92c0.15,1.42,0.82,1.81,1.8,1.81c0.64,0,1.21-0.22,1.9-0.71l0.98,1.32
		c-0.79,0.63-1.82,1.11-3.11,1.11c-2.65,0-4-1.71-4-4.2c0-2.38,1.3-4.28,3.72-4.28c2.28,0,3.67,1.5,3.67,4.08
		C585.14,97.11,585.13,97.47,585.1,97.71z M582.82,96.18c-0.01-1.08-0.34-1.83-1.29-1.83c-0.79,0-1.25,0.5-1.37,1.93h2.66V96.18z"/>
	<path fill="#FFFFFF" d="M593.8,89.87V101h-2.1l-0.12-0.93c-0.45,0.66-1.18,1.18-2.26,1.18c-2.03,0-3.03-1.68-3.03-4.26
		c0-2.46,1.25-4.21,3.3-4.21c0.72,0,1.37,0.29,1.85,0.75v-3.92L593.8,89.87z M591.43,98.63v-3.45c-0.36-0.42-0.72-0.67-1.23-0.67
		c-0.85,0-1.46,0.72-1.46,2.5c0,1.98,0.54,2.5,1.32,2.5C590.62,99.51,591.05,99.21,591.43,98.63z"/>
	<path fill="#FFFFFF" d="M602.53,101h-2.05l-0.1-1c-0.58,0.84-1.37,1.26-2.42,1.26c-1.49,0-2.22-0.96-2.22-2.5v-5.71h2.37v5.42
		c0,0.81,0.27,1.05,0.77,1.05c0.49,0,0.94-0.33,1.29-0.93v-5.54h2.37V101z"/>
	<path fill="#FFFFFF" d="M604.46,98.97v-9.1l2.37-0.26v9.27c0,0.33,0.12,0.49,0.41,0.49c0.17,0,0.29-0.03,0.39-0.07l0.46,1.68
		c-0.36,0.15-0.87,0.27-1.44,0.27C605.27,101.25,604.46,100.43,604.46,98.97z"/>
	<path fill="#FFFFFF" d="M615.89,97.71h-4.92c0.15,1.42,0.82,1.81,1.8,1.81c0.64,0,1.21-0.22,1.9-0.71l0.98,1.32
		c-0.79,0.63-1.82,1.11-3.11,1.11c-2.65,0-4-1.71-4-4.2c0-2.38,1.3-4.28,3.72-4.28c2.28,0,3.67,1.5,3.67,4.08
		C615.94,97.11,615.92,97.47,615.89,97.71z M613.61,96.18c-0.01-1.08-0.34-1.83-1.29-1.83c-0.79,0-1.25,0.5-1.37,1.93h2.66V96.18z"
		/>
	<path fill="#FFFFFF" d="M622.57,92.91l-0.38,2.29c-0.25-0.06-0.45-0.11-0.72-0.11c-0.98,0-1.4,0.72-1.65,1.92V101h-2.37v-7.96h2.07
		l0.2,1.53c0.36-1.09,1.14-1.75,2.05-1.75C622.07,92.81,622.31,92.84,622.57,92.91z"/>
</g>
<g>
	<path fill="#3D2C70" d="M361.74,298.24l-0.8,5.62h-1.36l0.78-5.52c0.17-1.19-0.27-1.41-0.82-1.41c-0.84,0-1.61,1.05-2.24,2.16
		l-0.67,4.77h-1.37l0.78-5.52c0.17-1.19-0.27-1.41-0.83-1.41c-0.84,0-1.6,1.06-2.23,2.19l-0.65,4.74h-1.37l1.11-7.9h1.17l-0.12,1.51
		c0.72-1.02,1.53-1.7,2.58-1.7c0.86,0,1.59,0.56,1.72,1.61c0.78-1.04,1.61-1.61,2.6-1.61C361.22,295.78,361.95,296.74,361.74,298.24
		z"/>
	<path fill="#3D2C70" d="M366.44,303.94c-0.76,1.68-1.93,2.88-4.12,3.12l-0.06-1.08c1.63-0.27,2.22-0.9,2.88-2.15l-0.53,0.03
		l-1.51-7.9h1.44l1.11,6.85l3.03-6.85h1.42L366.44,303.94z"/>
	<path fill="#3D2C70" d="M380.88,298.88c0,2.22-1.11,5.16-4.2,5.16c-0.54,0-1-0.09-1.5-0.25l-0.45,3.13l-1.36,0.18l1.56-11.14h1.17
		l-0.03,1c0.84-0.93,1.59-1.19,2.42-1.19C379.98,295.78,380.88,296.89,380.88,298.88z M376.01,298.01l-0.64,4.69
		c0.49,0.18,0.84,0.24,1.39,0.24c1.96,0,2.7-2.4,2.7-4.17c0-1.41-0.58-1.9-1.41-1.9S376.58,297.41,376.01,298.01z"/>
	<path fill="#3D2C70" d="M383.64,303.86h-1.37l1.11-7.9h1.37L383.64,303.86z M385.41,293.18c-0.08,0.5-0.47,0.86-1.02,0.86
		c-0.6,0-0.94-0.45-0.87-1c0.08-0.51,0.48-0.87,1.02-0.87C385.16,292.16,385.49,292.61,385.41,293.18z"/>
	<path fill="#3D2C70" d="M392.39,296.65l-0.74,0.86c-0.48-0.42-0.93-0.58-1.54-0.58c-2,0-2.58,2.37-2.58,4
		c0,1.38,0.6,1.95,1.61,1.95c0.69,0,1.2-0.22,1.83-0.61l0.56,0.96c-0.78,0.55-1.61,0.82-2.48,0.82c-1.87,0-2.95-1.2-2.95-3.22
		c0-2.07,1.08-5.04,4-5.04C390.98,295.78,391.74,296.03,392.39,296.65z"/>
	<path fill="#3D2C70" d="M394.68,301.78c-0.12,0.79,0.06,1.11,0.71,1.11c0.36,0,0.69-0.12,1.11-0.36l0.45,0.99
		c-0.57,0.36-1.15,0.52-1.78,0.52c-1.37,0-2.06-0.82-1.85-2.29l0.66-4.72h-1.36l0.15-1.06h1.42l0.5-1.83l1.08-0.12l-0.27,1.95h1.86
		l-0.3,1.06h-1.71L394.68,301.78z"/>
	<path fill="#3D2C70" d="M403.79,303.86h-1.17l0.1-1.46c-0.73,1-1.51,1.63-2.61,1.63c-1.41,0-2.12-0.92-1.91-2.46l0.79-5.62h1.37
		l-0.78,5.56c-0.15,1.08,0.12,1.44,0.83,1.44c0.99,0,1.79-0.94,2.4-1.86l0.72-5.14h1.37L403.79,303.86z"/>
	<path fill="#3D2C70" d="M411.59,295.88l-0.41,1.33c-0.22-0.06-0.39-0.08-0.64-0.08c-1.02,0-1.71,0.93-2.26,2.54l-0.6,4.18h-1.37
		l1.11-7.9h1.17l-0.09,1.62c0.6-1.23,1.42-1.8,2.29-1.8C411.08,295.78,411.35,295.82,411.59,295.88z"/>
	<path fill="#3D2C70" d="M412.94,300.92c0.03,1.44,0.71,1.96,1.71,1.96c0.74,0,1.4-0.23,2.12-0.74l0.58,0.93
		c-0.86,0.62-1.79,0.96-2.83,0.96c-1.93,0-3.01-1.21-3.01-3.21c0-2.16,1.06-5.05,4.06-5.05c1.68,0,2.5,0.96,2.5,2.01
		C418.07,300.01,415.7,300.62,412.94,300.92z M416.63,297.83c0-0.38-0.23-0.96-1.08-0.96c-1.65,0-2.34,1.56-2.54,3
		C415.28,299.62,416.63,299.18,416.63,297.83z"/>
	<path fill="#3D2C70" d="M424.79,296.75l-0.66,0.82c-0.6-0.46-1.26-0.7-1.95-0.7c-0.96,0-1.58,0.4-1.58,1.06
		c0,0.63,0.53,0.87,1.59,1.2c1.48,0.46,2.23,1.12,2.23,2.37c0,1.75-1.63,2.53-3.29,2.53c-1.38,0-2.31-0.54-2.92-1.14l0.79-0.81
		c0.57,0.51,1.31,0.84,2.19,0.84c1.39,0,1.79-0.77,1.79-1.29c0-0.79-0.41-1.07-1.67-1.46c-1.52-0.46-2.12-1.08-2.12-2.16
		c0-1.05,0.93-2.25,2.99-2.25C423.29,295.78,424.11,296.15,424.79,296.75z"/>
</g>
<use xlink:href="#pictures" width="109.71" height="59.4" x="-54.86" y="-29.7" transform="matrix(1 0 0 -1 387.6406 258.5879)" overflow="visible"/>
<g>
	<path fill="#EFEEF3" d="M38.86,220.49l-0.8,5.62H36.7l0.78-5.52c0.17-1.19-0.27-1.41-0.82-1.41c-0.84,0-1.61,1.05-2.24,2.16
		l-0.67,4.77h-1.37l0.78-5.52c0.17-1.19-0.27-1.41-0.83-1.41c-0.84,0-1.6,1.06-2.23,2.19l-0.65,4.74h-1.37l1.11-7.9h1.17l-0.12,1.51
		c0.72-1.02,1.53-1.7,2.58-1.7c0.86,0,1.59,0.56,1.72,1.61c0.78-1.04,1.61-1.61,2.6-1.61C38.34,218.03,39.07,218.99,38.86,220.49z"
		/>
	<path fill="#EFEEF3" d="M43.56,226.19c-0.76,1.68-1.93,2.88-4.12,3.12l-0.06-1.08c1.63-0.27,2.22-0.9,2.88-2.15l-0.53,0.03
		l-1.51-7.9h1.44l1.11,6.85l3.03-6.85h1.42L43.56,226.19z"/>
	<path fill="#EFEEF3" d="M58,221.13c0,2.22-1.11,5.16-4.2,5.16c-0.54,0-1-0.09-1.5-0.25l-0.45,3.13l-1.36,0.18l1.56-11.14h1.17
		l-0.03,1c0.84-0.93,1.59-1.19,2.42-1.19C57.1,218.03,58,219.14,58,221.13z M53.13,220.26l-0.64,4.69c0.49,0.18,0.84,0.24,1.39,0.24
		c1.96,0,2.7-2.4,2.7-4.17c0-1.41-0.58-1.9-1.41-1.9S53.7,219.66,53.13,220.26z"/>
	<path fill="#EFEEF3" d="M60.76,226.11H59.4l1.11-7.9h1.37L60.76,226.11z M62.53,215.43c-0.08,0.5-0.47,0.86-1.02,0.86
		c-0.6,0-0.94-0.45-0.87-1c0.08-0.51,0.48-0.87,1.02-0.87C62.28,214.41,62.61,214.86,62.53,215.43z"/>
	<path fill="#EFEEF3" d="M69.51,218.9l-0.74,0.86c-0.48-0.42-0.93-0.58-1.54-0.58c-2,0-2.58,2.37-2.58,4c0,1.38,0.6,1.95,1.61,1.95
		c0.69,0,1.2-0.22,1.83-0.61l0.56,0.96c-0.78,0.55-1.61,0.82-2.48,0.82c-1.87,0-2.95-1.2-2.95-3.22c0-2.07,1.08-5.04,4-5.04
		C68.1,218.03,68.86,218.28,69.51,218.9z"/>
	<path fill="#EFEEF3" d="M71.8,224.03c-0.12,0.79,0.06,1.11,0.71,1.11c0.36,0,0.69-0.12,1.11-0.36l0.45,0.99
		c-0.57,0.36-1.15,0.52-1.78,0.52c-1.37,0-2.06-0.82-1.85-2.29l0.66-4.72h-1.36l0.15-1.06h1.42l0.5-1.83l1.08-0.12l-0.27,1.95h1.86
		l-0.3,1.06h-1.71L71.8,224.03z"/>
	<path fill="#EFEEF3" d="M80.91,226.11h-1.17l0.1-1.46c-0.73,1-1.51,1.63-2.61,1.63c-1.41,0-2.12-0.92-1.91-2.46l0.79-5.62h1.37
		l-0.78,5.56c-0.15,1.08,0.12,1.44,0.83,1.44c0.99,0,1.79-0.94,2.4-1.86l0.72-5.14h1.37L80.91,226.11z"/>
	<path fill="#EFEEF3" d="M88.71,218.13l-0.41,1.33c-0.22-0.06-0.39-0.08-0.64-0.08c-1.02,0-1.71,0.93-2.26,2.54l-0.6,4.18h-1.37
		l1.11-7.9h1.17l-0.09,1.62c0.6-1.23,1.42-1.8,2.29-1.8C88.2,218.03,88.47,218.07,88.71,218.13z"/>
	<path fill="#EFEEF3" d="M90.06,223.17c0.03,1.44,0.71,1.96,1.71,1.96c0.74,0,1.4-0.23,2.12-0.74l0.58,0.93
		c-0.86,0.62-1.79,0.96-2.83,0.96c-1.93,0-3.01-1.21-3.01-3.21c0-2.16,1.06-5.05,4.06-5.05c1.68,0,2.5,0.96,2.5,2.01
		C95.19,222.26,92.82,222.87,90.06,223.17z M93.75,220.08c0-0.38-0.23-0.96-1.08-0.96c-1.65,0-2.34,1.56-2.54,3
		C92.4,221.87,93.75,221.43,93.75,220.08z"/>
	<path fill="#EFEEF3" d="M101.91,219l-0.66,0.82c-0.6-0.46-1.26-0.7-1.95-0.7c-0.96,0-1.58,0.4-1.58,1.06c0,0.63,0.53,0.87,1.59,1.2
		c1.48,0.46,2.23,1.12,2.23,2.37c0,1.75-1.63,2.53-3.29,2.53c-1.38,0-2.31-0.54-2.92-1.14l0.79-0.81c0.57,0.51,1.31,0.84,2.19,0.84
		c1.39,0,1.79-0.77,1.79-1.29c0-0.79-0.41-1.07-1.67-1.46c-1.52-0.46-2.12-1.08-2.12-2.16c0-1.05,0.93-2.25,2.99-2.25
		C100.41,218.03,101.23,218.4,101.91,219z"/>
	<path fill="#EFEEF3" d="M109.8,226.11h-1.38l1.2-8.43l-2.5,1.42l-0.46-1.11l3.34-1.92h1.21L109.8,226.11z"/>
</g>
<use xlink:href="#pictures" width="109.71" height="59.4" x="-54.86" y="-29.7" transform="matrix(1 0 0 -1 69.6055 180.8379)" overflow="visible"/>
</svg>
