<?xml version="1.0" encoding="utf-8"?>
<svg version="1.1" xmlns="http://www.w3.org/2000/svg" xmlns:xlink="http://www.w3.org/1999/xlink" x="0px" y="0px" width="640px"
	 height="320px" viewBox="0 0 640 320" style="enable-background:new 0 0 640 320;" xml:space="preserve">
<style type="text/css">
	.st0{fill:#D8D5E3;}
	.st1{fill:#F3DED0;}
	.st2{fill:#C45814;}
	.st3{display:none;}
	.st4{display:inline;fill:#DC9B72;}
	.st5{display:inline;}
	.st6{fill:#DC9B72;}
	.st7{fill:#D68A5A;}
	.st8{fill:#8981AA;}
	.st9{fill:#3B2D72;}
	.st10{clip-path:url(#SVGID_2_);}
	.st11{clip-path:url(#SVGID_4_);}
	.st12{fill:#222222;}
	.st13{fill:none;stroke:#222222;stroke-width:2;stroke-miterlimit:10;}
	.st14{fill:none;stroke:#222222;stroke-width:0.25;stroke-miterlimit:10;}
	.st15{fill:none;}
</style>
<symbol  id="Factory" viewBox="-53.73 -35.65 107.46 71.29">
</symbol>
<symbol  id="Person" viewBox="-21.92 -31.95 43.83 63.9">
</symbol>
<g id="Circles">
	<circle class="st0" cx="64" cy="128" r="64"/>
	<g>
		<circle class="st1" cx="480" cy="169.54" r="78.75"/>
		<path class="st2" d="M480,92.05c42.73,0,77.5,34.77,77.5,77.5s-34.77,77.5-77.5,77.5s-77.5-34.77-77.5-77.5
			S437.27,92.05,480,92.05 M480,89.55c-44.18,0-80,35.82-80,80c0,44.18,35.82,80,80,80s80-35.82,80-80
			C560,125.36,524.18,89.55,480,89.55L480,89.55z"/>
	</g>
	<circle class="st0" cx="255.06" cy="128" r="64"/>
	<circle class="st0" cx="160" cy="256" r="64"/>
</g>
<g id="Data" class="st3">
	
		<rect x="27.63" y="156.71" transform="matrix(0.7071 0.7071 -0.7071 0.7071 123.6882 24.3788)" class="st4" width="9.57" height="9.57"/>
	
		<rect x="187.66" y="285.41" transform="matrix(0.7071 0.7071 -0.7071 0.7071 260.1764 -50.5072)" class="st4" width="6.8" height="6.8"/>
	<circle class="st4" cx="47.11" cy="177.1" r="6.03"/>
	<polygon class="st4" points="66.56,156.5 60.79,156.5 57.91,161.49 60.79,166.49 66.56,166.49 69.44,161.49 	"/>
	
		<rect x="218.02" y="157.2" transform="matrix(0.7071 0.7071 -0.7071 0.7071 179.798 -110.1071)" class="st4" width="9.57" height="9.57"/>
	<circle class="st4" cx="255.5" cy="162.45" r="6.03"/>
	<path class="st4" d="M273.42,175.68c-1.35-2.65-0.54-5.82,1.76-7.55c-0.75-0.1-1.54-0.06-2.32,0.14c-3.22,0.85-5.14,4.14-4.3,7.36
		c0.85,3.22,4.14,5.14,7.36,4.3c0.78-0.2,1.48-0.55,2.08-1.01C276.11,178.68,274.36,177.52,273.42,175.68z"/>
	<path class="st4" d="M147.37,303.65c-1.35-2.65-0.54-5.82,1.76-7.55c-0.75-0.1-1.54-0.06-2.32,0.14c-3.22,0.85-5.14,4.14-4.3,7.36
		c0.85,3.22,4.14,5.14,7.36,4.3c0.78-0.2,1.48-0.55,2.08-1.01C150.06,306.65,148.31,305.5,147.37,303.65z"/>
	<polygon class="st4" points="243.09,169.11 237.32,169.11 234.44,174.11 237.32,179.1 243.09,179.1 245.97,174.11 	"/>
	<polygon class="st4" points="79.86,167.59 73.01,172.57 75.63,180.62 84.09,180.62 86.71,172.57 	"/>
	<polygon class="st4" points="132.3,285.81 126.53,285.81 123.65,290.81 126.53,295.8 132.3,295.8 135.18,290.81 	"/>
	<polygon class="st4" points="177.33,300.08 172.34,303.71 174.24,309.57 180.41,309.57 182.32,303.71 	"/>
	<ellipse class="st4" cx="99" cy="160.11" rx="8.6" ry="5.28"/>
	<g class="st5">
		<path class="st6" d="M160.1,289.77l-2.43-1.4l1.39-2.41l2.43,1.4v-2.8h2.77v2.8l2.42-1.4l1.39,2.41l-2.43,1.4l2.43,1.4l-1.39,2.41
			l-2.42-1.4v2.8h-2.78v-2.8l-2.42,1.4l-1.39-2.41L160.1,289.77z"/>
	</g>
	<path class="st4" d="M286.69,158.78l2.6-2.6l2.6,2.6l-2.6,2.6l2.6,2.6l-2.6,2.6l-2.6-2.6l-2.6,2.6l-2.6-2.6l2.6-2.6l-2.6-2.6
		l2.6-2.6L286.69,158.78z"/>
	
		<rect x="422.65" y="130.57" transform="matrix(0.7071 0.7071 -0.7071 0.7071 222.3304 -263.1845)" class="st4" width="12.42" height="12.42"/>
	<circle class="st4" cx="479.6" cy="229.05" r="7.02"/>
	<path class="st4" d="M539.79,178.68c-1.7-3.34-0.68-7.34,2.22-9.51c-0.95-0.13-1.94-0.08-2.92,0.18c-4.05,1.07-6.48,5.22-5.41,9.27
		c1.07,4.06,5.22,6.48,9.27,5.41c0.98-0.26,1.86-0.7,2.62-1.27C543.17,182.46,540.97,181,539.79,178.68z"/>
	<polygon class="st4" points="424.56,171.27 416.44,171.27 412.37,178.3 416.44,185.34 424.56,185.34 428.63,178.3 	"/>
	<path class="st4" d="M532.26,134.17l3.51-3.51l3.51,3.51l-3.51,3.51l3.51,3.51l-3.51,3.51l-3.51-3.51l-3.51,3.51l-3.51-3.51
		l3.51-3.51l-3.51-3.51l3.51-3.51L532.26,134.17z"/>
	<path class="st4" d="M454.29,118.67l-0.22-0.24c1.81-1.95,2.72-4.19,2.72-6.72c0-2.51-0.91-4.74-2.72-6.71l0.22-0.22
		c1.96,1.81,4.2,2.72,6.72,2.72s4.76-0.91,6.71-2.72l0.24,0.22c-1.81,1.97-2.72,4.21-2.72,6.72c0,2.52,0.91,4.76,2.72,6.71
		l-0.24,0.24c-1.97-1.81-4.2-2.72-6.71-2.72C458.49,115.95,456.25,116.86,454.29,118.67z"/>
	<path class="st4" d="M490.86,119.02l7.71-13.36l7.72,13.36H490.86z"/>
	<ellipse class="st4" cx="440.54" cy="214.65" rx="8.6" ry="5.28"/>
	<polygon class="st4" points="519.38,207.38 512.53,212.36 515.15,220.41 523.62,220.41 526.23,212.36 	"/>
</g>
<g id="Arrows">
	<g>
		<g>
			<path class="st7" d="M162.92,61.59l-6.53,0.49l-3.26,0.25l-1.63,0.13l-1.62,0.2c-4.32,0.57-8.64,0.98-12.89,1.87l-3.19,0.58
				l-1.59,0.29l-1.57,0.38l-6.27,1.55c-4.1,1.26-8.19,2.5-12.07,4.22c-7.78,3.29-14.98,7.71-20.61,13.49l-2,2.25
				c-0.32,0.38-0.69,0.73-0.98,1.13l-0.89,1.21c-0.58,0.82-1.22,1.57-1.74,2.43l-1.56,2.55c-1.95,3.48-3.54,7.15-4.81,11.01
				l-10.28-4c1.92-4.26,4.25-8.41,7-12.28l2.17-2.83c0.73-0.94,1.58-1.78,2.37-2.66l1.2-1.31c0.4-0.44,0.86-0.81,1.29-1.22
				l2.62-2.37c7.27-6.02,15.76-9.97,24.34-12.59c4.29-1.38,8.69-2.22,13.04-3.07l6.58-0.91l1.64-0.22l1.65-0.13l3.3-0.25
				c4.38-0.44,8.78-0.4,13.16-0.51l1.64-0.03l1.64,0.05l3.28,0.1L162.92,61.59z"/>
			<g>
				<polygon class="st7" points="63.73,95.93 68.79,121.36 88.28,104.26 				"/>
			</g>
		</g>
	</g>
	<g>
		<g>
			<path class="st7" d="M166.34,65.11c-5.19,5.18-10.28,10.54-14.34,16.56c-1.98,3.03-3.69,6.23-4.74,9.59
				c-1.06,3.37-1.21,6.9-0.67,10.34c0.54,3.45,1.72,6.82,3.06,10.16c1.35,3.34,2.92,6.65,4.43,9.99c3.07,6.69,6.03,13.52,8.52,20.56
				c2.5,7.03,4.58,14.23,6.26,21.52c0.41,1.82,0.76,3.66,1.15,5.49c0.18,0.92,0.39,1.83,0.55,2.75l0.46,2.76
				c0.3,1.84,0.64,3.69,0.91,5.54l0.73,5.56c1.87,14.84,2.37,29.81,2.09,44.71L163,230.02c1.24-14.41,1.72-28.89,0.87-43.29
				l-0.34-5.4c-0.14-1.8-0.35-3.58-0.52-5.38l-0.27-2.69c-0.1-0.9-0.24-1.78-0.36-2.68c-0.25-1.78-0.48-3.57-0.75-5.36
				c-1.14-7.12-2.68-14.17-4.64-21.13c-1.95-6.96-4.38-13.8-6.99-20.65c-1.29-3.44-2.64-6.86-3.81-10.43
				c-1.16-3.55-2.19-7.23-2.53-11.08c-0.35-3.83,0.11-7.82,1.5-11.38c1.38-3.57,3.4-6.77,5.63-9.74
				C155.37,74.94,160.81,69.94,166.34,65.11z"/>
			<g>
				<polygon class="st7" points="156.11,225.64 167.47,248.94 181.97,227.45 				"/>
			</g>
		</g>
	</g>
	<g>
		<g>
			<path class="st7" d="M162.92,61.59c5.78-1.78,11.57-3.54,17.44-5.06c2.92-0.81,5.88-1.48,8.82-2.22c2.96-0.65,5.92-1.35,8.92-1.9
				c5.97-1.16,12.01-2.14,18.12-2.67c6.11-0.55,12.31-0.73,18.56-0.22c6.23,0.52,12.57,1.71,18.6,4.31c0.75,0.33,1.51,0.64,2.25,1
				l2.18,1.18c0.36,0.2,0.73,0.39,1.09,0.61l1.04,0.69c0.69,0.47,1.4,0.91,2.08,1.4c1.29,1.07,2.67,2.05,3.84,3.28
				c0.59,0.6,1.24,1.16,1.79,1.8l1.64,1.94c0.57,0.63,1.02,1.35,1.51,2.03c0.47,0.7,1,1.37,1.42,2.1c0.83,1.46,1.73,2.9,2.39,4.43
				c0.35,0.76,0.72,1.51,1.05,2.28l0.88,2.33c0.64,1.55,1,3.14,1.5,4.72c1.73,6.35,2.42,12.8,2.64,19.17l-11.52-0.07
				c0.26-5.71,0.08-11.4-0.95-16.83c-1.04-5.4-2.83-10.61-5.84-15l-1.16-1.62c-0.39-0.54-0.86-1.01-1.29-1.52
				c-0.83-1.05-1.87-1.9-2.83-2.85c-0.51-0.44-1.06-0.84-1.58-1.26l-0.8-0.63c-0.27-0.2-0.57-0.37-0.85-0.56l-1.72-1.12
				c-0.6-0.34-1.22-0.65-1.82-0.98c-4.9-2.61-10.5-4.17-16.24-5.11c-5.75-0.94-11.69-1.24-17.64-1.18
				c-5.96,0.05-11.94,0.53-17.91,1.2c-2.99,0.31-5.96,0.77-8.95,1.17c-2.97,0.49-5.96,0.93-8.92,1.5
				C174.73,58.98,168.83,60.28,162.92,61.59z"/>
			<g>
				<polygon class="st7" points="262.01,98.1 273.46,121.36 287.88,99.81 				"/>
			</g>
		</g>
	</g>
	<g>
		<g>
			<path class="st8" d="M367.23,69.89c0.14,2.58,0.97,5.06,2.34,7.14c1.4,2.08,3.29,3.77,5.32,5.22c4.12,2.87,8.82,4.86,13.54,6.83
				c4.73,1.96,9.55,3.86,14.3,6.13c4.74,2.28,9.45,4.94,13.74,8.46l-4.56,4.97c-3.32-3.41-7.34-6.34-11.6-8.99
				c-4.28-2.65-8.81-5.04-13.34-7.53c-4.51-2.51-9.13-5.06-13.12-8.55c-1.97-1.75-3.78-3.76-5-6.11
				C367.64,75.1,367.09,72.46,367.23,69.89z"/>
			<g>
				<polygon class="st8" points="406.38,109.69 421.38,115.11 418.58,99.4 				"/>
			</g>
		</g>
	</g>
	<g>
		<g>
			<path class="st8" d="M344.14,156.43c-1.29,2.74-2.33,5.61-2.75,8.56c-0.38,2.93-0.12,5.95,1.16,8.49c0.59,1.3,1.5,2.41,2.43,3.46
				c1.02,0.99,2.09,1.93,3.32,2.68c2.41,1.56,5.1,2.71,7.89,3.6c5.58,1.78,11.49,2.63,17.4,3.19c5.92,0.52,11.9,0.67,17.88,0.63
				l-0.27,6.9c-6.12-0.54-12.24-1.27-18.32-2.4c-6.06-1.16-12.13-2.62-17.91-5.09c-2.88-1.23-5.69-2.74-8.19-4.73
				c-1.27-0.96-2.4-2.14-3.43-3.36c-0.96-1.3-1.86-2.66-2.39-4.19c-1.18-3.03-1.11-6.34-0.43-9.33
				C341.28,161.82,342.6,159.04,344.14,156.43z"/>
			<g>
				<polygon class="st8" points="388.82,198.33 402.83,190.69 389.21,182.38 				"/>
			</g>
		</g>
	</g>
	<g>
		<g>
			<path class="st8" d="M371.38,279.77c10.43-4,20.46-8.99,29.52-15.26c9.05-6.26,17.09-13.84,23.3-22.59l5.36,4.23
				c-7.68,8.76-16.94,15.8-26.86,21.27C392.76,272.89,382.16,276.85,371.38,279.77z"/>
			<g>
				<polygon class="st8" points="431.94,250.43 433.36,234.54 418.88,241.26 				"/>
			</g>
		</g>
	</g>
	<g>
		<g>
			<path class="st8" d="M539.5,291.68c-5.7,2.57-11.8,4.43-18.14,5.11c-6.31,0.69-13.01,0.08-19.06-2.78
				c-3.01-1.41-5.81-3.38-8.18-5.79c-2.37-2.41-4.33-5.2-5.86-8.18c-1.54-2.98-2.68-6.12-3.57-9.3c-0.91-3.19-1.42-6.43-1.88-9.67
				l6.92-0.54c0.21,5.96,1.07,11.9,3.25,17.31c1.08,2.7,2.54,5.23,4.36,7.47c1.83,2.23,4.06,4.14,6.58,5.63
				c5.06,3,11.21,4.22,17.34,4.11C527.41,294.97,533.59,293.71,539.5,291.68z"/>
			<g>
				<polygon class="st8" points="494.42,262.94 486.12,249.31 478.47,263.31 				"/>
			</g>
		</g>
	</g>
	<g>
		<g>
			<path class="st8" d="M619.25,157.66c0.13,3.93-0.11,7.89-0.69,11.8c-0.57,3.92-1.46,7.8-2.72,11.58
				c-2.51,7.55-6.47,14.79-12.13,20.71c-5.62,5.95-12.92,10.33-20.78,12.86c-7.88,2.55-16.19,3.28-24.35,3.07l0.5-7.11
				c7.5,0.77,15.11,0.66,22.39-1.1c7.26-1.75,14.14-5.17,19.75-10.27c5.64-5.06,9.96-11.63,12.95-18.78
				c1.51-3.57,2.66-7.31,3.52-11.12C618.54,165.49,619.08,161.59,619.25,157.66z"/>
			<g>
				<polygon class="st8" points="562.08,206.34 547.43,212.66 560.23,222.19 				"/>
			</g>
		</g>
	</g>
	<g>
		<g>
			<path class="st8" d="M595.95,58.78c0.29,6.15-1.12,12.34-3.5,18.1c-2.43,5.76-5.9,11.06-9.91,15.88
				c-3.99,4.86-8.66,9.1-13.55,13.04c-4.87,3.99-10.17,7.35-15.51,10.65l-3.24-6.11c5.36-2.66,10.74-5.38,15.71-8.74
				c4.99-3.3,9.82-6.92,14.05-11.17c4.24-4.23,8.03-8.97,10.9-14.29C593.69,70.81,595.65,64.92,595.95,58.78z"/>
			<g>
				<polygon class="st8" points="550.33,105.11 541.53,118.42 557.45,119.39 				"/>
			</g>
		</g>
	</g>
</g>
<g id="Symbols" class="st3">
	
		<use xlink:href="#Factory"  width="107.46" height="71.29" x="-53.73" y="-35.65" transform="matrix(0.7633 0 0 -0.7633 64.0002 123)" style="display:inline;overflow:visible;"/>
	
		<use xlink:href="#Factory"  width="107.46" height="71.29" x="-53.73" y="-35.65" transform="matrix(0.7633 0 0 -0.7633 385.6515 51.1096)" style="display:inline;overflow:visible;"/>
	
		<use xlink:href="#Factory"  width="107.46" height="71.29" x="-53.73" y="-35.65" transform="matrix(0.3817 0 0 -0.3817 349.9091 157.6615)" style="display:inline;overflow:visible;"/>
	
		<use xlink:href="#Factory"  width="107.46" height="71.29" x="-53.73" y="-35.65" transform="matrix(0.3817 0 0 -0.3817 619.381 157.6615)" style="display:inline;overflow:visible;"/>
	
		<use xlink:href="#Factory"  width="107.46" height="71.29" x="-53.73" y="-35.65" transform="matrix(0.7633 0 0 -0.7633 574.077 51.1096)" style="display:inline;overflow:visible;"/>
	
		<use xlink:href="#Factory"  width="107.46" height="71.29" x="-53.73" y="-35.65" transform="matrix(0.7633 0 0 -0.7633 385.6515 276.1512)" style="display:inline;overflow:visible;"/>
	
		<use xlink:href="#Factory"  width="107.46" height="71.29" x="-53.73" y="-35.65" transform="matrix(0.7633 0 0 -0.7633 574.3484 276.1512)" style="display:inline;overflow:visible;"/>
	
		<use xlink:href="#Factory"  width="107.46" height="71.29" id="XMLID_1_" x="-53.73" y="-35.65" transform="matrix(0.7633 0 0 -0.7633 255.056 123)" style="display:inline;overflow:visible;"/>
	
		<use xlink:href="#Factory"  width="107.46" height="71.29" x="-53.73" y="-35.65" transform="matrix(0.7633 0 0 -0.7633 160 250.9998)" style="display:inline;overflow:visible;"/>
	
		<use xlink:href="#Person"  width="43.83" height="63.9" x="-21.92" y="-31.95" transform="matrix(1 0 0 -1 160 59.8571)" style="display:inline;overflow:visible;"/>
	
		<use xlink:href="#Person"  width="43.83" height="63.9" x="-21.92" y="-31.95" transform="matrix(1 0 0 -1 479.6001 175.5452)" style="display:inline;overflow:visible;"/>
</g>
<g id="Symbols_copy">
	<g>
		<g>
			<rect x="22.99" y="103.02" class="st9" width="34.84" height="47.19"/>
			<rect x="52.47" y="95.79" class="st9" width="2.83" height="7.23"/>
			<rect x="48.31" y="95.79" class="st9" width="2.83" height="7.23"/>
			
				<rect x="49.45" y="94.64" transform="matrix(6.123234e-17 -1 1 6.123234e-17 -71.6557 199.6561)" class="st9" width="29.11" height="82.03"/>
			<rect x="28.26" y="107.35" class="st8" width="6.39" height="9.98"/>
			<rect x="39.18" y="107.35" class="st8" width="6.39" height="9.98"/>
			<rect x="28.26" y="125.68" class="st8" width="6.39" height="9.98"/>
			<rect x="39.18" y="125.68" class="st8" width="6.39" height="9.98"/>
			<rect x="60.53" y="125.68" class="st8" width="6.39" height="9.98"/>
			<rect x="71.47" y="125.68" class="st8" width="6.39" height="9.98"/>
			<rect x="82.4" y="125.68" class="st8" width="6.39" height="9.98"/>
			<rect x="93.34" y="125.68" class="st8" width="6.39" height="9.98"/>
		</g>
	</g>
	<g>
		<g>
			<rect x="344.64" y="31.13" class="st9" width="34.84" height="47.19"/>
			<rect x="374.12" y="23.9" class="st9" width="2.83" height="7.23"/>
			<rect x="369.96" y="23.9" class="st9" width="2.83" height="7.23"/>
			
				<rect x="371.1" y="22.75" transform="matrix(6.123234e-17 -1 1 6.123234e-17 321.886 449.417)" class="st9" width="29.11" height="82.03"/>
			<rect x="349.91" y="35.46" class="st8" width="6.39" height="9.98"/>
			<rect x="360.84" y="35.46" class="st8" width="6.39" height="9.98"/>
			<rect x="349.91" y="53.79" class="st8" width="6.39" height="9.98"/>
			<rect x="360.84" y="53.79" class="st8" width="6.39" height="9.98"/>
			<rect x="382.18" y="53.79" class="st8" width="6.39" height="9.98"/>
			<rect x="393.12" y="53.79" class="st8" width="6.39" height="9.98"/>
			<rect x="404.06" y="53.79" class="st8" width="6.39" height="9.98"/>
			<rect x="414.99" y="53.79" class="st8" width="6.39" height="9.98"/>
		</g>
	</g>
	<g>
		<g>
			<rect x="329.4" y="147.67" class="st9" width="17.42" height="23.59"/>
			<rect x="344.14" y="144.06" class="st9" width="1.42" height="3.61"/>
			<rect x="342.06" y="144.06" class="st9" width="1.42" height="3.61"/>
			
				<rect x="342.63" y="143.48" transform="matrix(6.123234e-17 -1 1 6.123234e-17 185.9197 513.8985)" class="st9" width="14.55" height="41.01"/>
			<rect x="332.04" y="149.84" class="st8" width="3.2" height="4.99"/>
			<rect x="337.5" y="149.84" class="st8" width="3.2" height="4.99"/>
			<rect x="332.04" y="159" class="st8" width="3.2" height="4.99"/>
			<rect x="337.5" y="159" class="st8" width="3.2" height="4.99"/>
			<rect x="348.18" y="159" class="st8" width="3.2" height="4.99"/>
			<rect x="353.64" y="159" class="st8" width="3.2" height="4.99"/>
			<rect x="359.11" y="159" class="st8" width="3.2" height="4.99"/>
			<rect x="364.58" y="159" class="st8" width="3.2" height="4.99"/>
		</g>
	</g>
	<g>
		<g>
			<rect x="598.87" y="147.67" class="st9" width="17.42" height="23.59"/>
			<rect x="613.62" y="144.06" class="st9" width="1.42" height="3.61"/>
			<rect x="611.54" y="144.06" class="st9" width="1.42" height="3.61"/>
			
				<rect x="612.1" y="143.48" transform="matrix(6.123234e-17 -1 1 6.123234e-17 455.3916 783.3704)" class="st9" width="14.55" height="41.01"/>
			<rect x="601.51" y="149.84" class="st8" width="3.2" height="4.99"/>
			<rect x="606.97" y="149.84" class="st8" width="3.2" height="4.99"/>
			<rect x="601.51" y="159" class="st8" width="3.2" height="4.99"/>
			<rect x="606.97" y="159" class="st8" width="3.2" height="4.99"/>
			<rect x="617.65" y="159" class="st8" width="3.2" height="4.99"/>
			<rect x="623.12" y="159" class="st8" width="3.2" height="4.99"/>
			<rect x="628.58" y="159" class="st8" width="3.2" height="4.99"/>
			<rect x="634.05" y="159" class="st8" width="3.2" height="4.99"/>
		</g>
	</g>
	<g>
		<g>
			<rect x="533.06" y="31.13" class="st9" width="34.84" height="47.19"/>
			<rect x="562.55" y="23.9" class="st9" width="2.83" height="7.23"/>
			<rect x="558.39" y="23.9" class="st9" width="2.83" height="7.23"/>
			
				<rect x="559.52" y="22.75" transform="matrix(6.123234e-17 -1 1 6.123234e-17 510.3115 637.8425)" class="st9" width="29.11" height="82.03"/>
			<rect x="538.33" y="35.46" class="st8" width="6.39" height="9.98"/>
			<rect x="549.26" y="35.46" class="st8" width="6.39" height="9.98"/>
			<rect x="538.33" y="53.79" class="st8" width="6.39" height="9.98"/>
			<rect x="549.26" y="53.79" class="st8" width="6.39" height="9.98"/>
			<rect x="570.61" y="53.79" class="st8" width="6.39" height="9.98"/>
			<rect x="581.55" y="53.79" class="st8" width="6.39" height="9.98"/>
			<rect x="592.48" y="53.79" class="st8" width="6.39" height="9.98"/>
			<rect x="603.42" y="53.79" class="st8" width="6.39" height="9.98"/>
		</g>
	</g>
	<g>
		<g>
			<rect x="344.64" y="256.17" class="st9" width="34.84" height="47.19"/>
			<rect x="374.12" y="248.94" class="st9" width="2.83" height="7.23"/>
			<rect x="369.96" y="248.94" class="st9" width="2.83" height="7.23"/>
			
				<rect x="371.1" y="247.79" transform="matrix(6.123234e-17 -1 1 6.123234e-17 96.8445 674.4586)" class="st9" width="29.11" height="82.03"/>
			<rect x="349.91" y="260.5" class="st8" width="6.39" height="9.98"/>
			<rect x="360.84" y="260.5" class="st8" width="6.39" height="9.98"/>
			<rect x="349.91" y="278.83" class="st8" width="6.39" height="9.98"/>
			<rect x="360.84" y="278.83" class="st8" width="6.39" height="9.98"/>
			<rect x="382.18" y="278.83" class="st8" width="6.39" height="9.98"/>
			<rect x="393.12" y="278.83" class="st8" width="6.39" height="9.98"/>
			<rect x="404.06" y="278.83" class="st8" width="6.39" height="9.98"/>
			<rect x="414.99" y="278.83" class="st8" width="6.39" height="9.98"/>
		</g>
	</g>
	<g>
		<g>
			<rect x="533.33" y="256.17" class="st9" width="34.84" height="47.19"/>
			<rect x="562.82" y="248.94" class="st9" width="2.83" height="7.23"/>
			<rect x="558.66" y="248.94" class="st9" width="2.83" height="7.23"/>
			
				<rect x="559.8" y="247.79" transform="matrix(6.123234e-17 -1 1 6.123234e-17 285.5414 863.1555)" class="st9" width="29.11" height="82.03"/>
			<rect x="538.61" y="260.5" class="st8" width="6.39" height="9.98"/>
			<rect x="549.53" y="260.5" class="st8" width="6.39" height="9.98"/>
			<rect x="538.61" y="278.83" class="st8" width="6.39" height="9.98"/>
			<rect x="549.53" y="278.83" class="st8" width="6.39" height="9.98"/>
			<rect x="570.88" y="278.83" class="st8" width="6.39" height="9.98"/>
			<rect x="581.82" y="278.83" class="st8" width="6.39" height="9.98"/>
			<rect x="592.75" y="278.83" class="st8" width="6.39" height="9.98"/>
			<rect x="603.69" y="278.83" class="st8" width="6.39" height="9.98"/>
		</g>
	</g>
	<g id="XMLID_2_">
		<g>
			<rect x="214.04" y="103.02" class="st9" width="34.84" height="47.19"/>
			<rect x="243.53" y="95.79" class="st9" width="2.83" height="7.23"/>
			<rect x="239.37" y="95.79" class="st9" width="2.83" height="7.23"/>
			
				<rect x="240.5" y="94.64" transform="matrix(6.123234e-17 -1 1 6.123234e-17 119.4001 390.7119)" class="st9" width="29.11" height="82.03"/>
			<rect x="219.31" y="107.35" class="st8" width="6.39" height="9.98"/>
			<rect x="230.24" y="107.35" class="st8" width="6.39" height="9.98"/>
			<rect x="219.31" y="125.68" class="st8" width="6.39" height="9.98"/>
			<rect x="230.24" y="125.68" class="st8" width="6.39" height="9.98"/>
			<rect x="251.59" y="125.68" class="st8" width="6.39" height="9.98"/>
			<rect x="262.52" y="125.68" class="st8" width="6.39" height="9.98"/>
			<rect x="273.46" y="125.68" class="st8" width="6.39" height="9.98"/>
			<rect x="284.4" y="125.68" class="st8" width="6.39" height="9.98"/>
		</g>
	</g>
	<g>
		<g>
			<rect x="118.98" y="231.02" class="st9" width="34.84" height="47.19"/>
			<rect x="148.47" y="223.79" class="st9" width="2.83" height="7.23"/>
			<rect x="144.31" y="223.79" class="st9" width="2.83" height="7.23"/>
			
				<rect x="145.45" y="222.64" transform="matrix(6.123234e-17 -1 1 6.123234e-17 -103.6557 423.6557)" class="st9" width="29.11" height="82.03"/>
			<rect x="124.26" y="235.35" class="st8" width="6.39" height="9.98"/>
			<rect x="135.18" y="235.35" class="st8" width="6.39" height="9.98"/>
			<rect x="124.26" y="253.68" class="st8" width="6.39" height="9.98"/>
			<rect x="135.18" y="253.68" class="st8" width="6.39" height="9.98"/>
			<rect x="156.53" y="253.68" class="st8" width="6.39" height="9.98"/>
			<rect x="167.47" y="253.68" class="st8" width="6.39" height="9.98"/>
			<rect x="178.4" y="253.68" class="st8" width="6.39" height="9.98"/>
			<rect x="189.34" y="253.68" class="st8" width="6.39" height="9.98"/>
		</g>
	</g>
	<g>
		<g>
			<g id="Person_3_">
				<defs>
					<rect id="SVGID_1_" x="138.08" y="27.91" width="43.83" height="54.41"/>
				</defs>
				<clipPath id="SVGID_2_">
					<use xlink:href="#SVGID_1_"  style="overflow:visible;"/>
				</clipPath>
				<g class="st10">
					<circle class="st2" cx="160" cy="42.83" r="14.92"/>
					<ellipse class="st2" cx="160" cy="69.89" rx="18.97" ry="21.92"/>
				</g>
			</g>
		</g>
	</g>
	<g>
		<g>
			<g id="Person_6_">
				<defs>
					<rect id="SVGID_3_" x="457.68" y="142.59" width="43.83" height="54.41"/>
				</defs>
				<clipPath id="SVGID_4_">
					<use xlink:href="#SVGID_3_"  style="overflow:visible;"/>
				</clipPath>
				<g class="st11">
					<circle class="st2" cx="479.6" cy="157.52" r="14.92"/>
					<ellipse class="st2" cx="479.6" cy="184.58" rx="18.97" ry="21.92"/>
				</g>
			</g>
		</g>
	</g>
</g>
<g id="Text">
	<g>
		<path class="st12" d="M348.96,1.61v11.91h-2.82l-0.11-0.88c-0.45,0.59-1.18,1.2-2.42,1.2c-2.22,0-3.25-1.82-3.25-4.64
			c0-2.66,1.38-4.55,3.65-4.55c0.64,0,1.3,0.24,1.78,0.67V1.29L348.96,1.61z M345.79,10.81V7.38c-0.29-0.3-0.54-0.48-0.93-0.48
			c-0.71,0-1.25,0.59-1.25,2.32c0,2.05,0.5,2.34,1.1,2.34C345.12,11.56,345.48,11.34,345.79,10.81z"/>
		<path class="st12" d="M359,11.74l-0.64,2.03c-1.1-0.08-1.83-0.37-2.31-1.18c-0.62,0.94-1.6,1.25-2.58,1.25
			c-1.71,0-2.82-1.14-2.82-2.72c0-1.89,1.44-2.93,4.13-2.93h0.61V7.98c0-0.86-0.29-1.09-1.23-1.09c-0.5,0-1.36,0.16-2.21,0.45
			l-0.69-2.02c1.07-0.43,2.4-0.67,3.38-0.67c2.72,0,3.84,1.04,3.84,3.15v2.95C358.49,11.35,358.62,11.59,359,11.74z M355.4,11.1
			V9.83h-0.34c-0.9,0-1.31,0.3-1.31,0.98c0,0.48,0.27,0.8,0.7,0.8C354.86,11.61,355.2,11.39,355.4,11.1z"/>
		<path class="st12" d="M366.7,13.1c-0.7,0.5-1.76,0.74-2.56,0.74c-2.15-0.02-3.11-1.22-3.11-3.47V7.11h-1.02V4.97h1.02V3.17
			l3.17-0.37v2.16h1.92l-0.32,2.15h-1.6v3.22c0,0.8,0.27,1.02,0.67,1.02c0.24,0,0.51-0.06,0.8-0.22L366.7,13.1z"/>
		<path class="st12" d="M375.84,11.74l-0.64,2.03c-1.1-0.08-1.82-0.37-2.3-1.18c-0.62,0.94-1.6,1.25-2.58,1.25
			c-1.71,0-2.82-1.14-2.82-2.72c0-1.89,1.44-2.93,4.13-2.93h0.61V7.98c0-0.86-0.29-1.09-1.23-1.09c-0.5,0-1.36,0.16-2.21,0.45
			l-0.69-2.02c1.07-0.43,2.4-0.67,3.38-0.67c2.72,0,3.84,1.04,3.84,3.15v2.95C375.32,11.35,375.45,11.59,375.84,11.74z M372.24,11.1
			V9.83h-0.34c-0.9,0-1.31,0.3-1.31,0.98c0,0.48,0.27,0.8,0.7,0.8C371.69,11.61,372.03,11.39,372.24,11.1z"/>
		<path class="st12" d="M388.57,5.75l-1.12,1.71c-0.61-0.38-1.34-0.62-2.03-0.62c-0.53,0-0.72,0.16-0.72,0.38
			c0,0.29,0.1,0.42,1.71,0.91c1.62,0.5,2.51,1.2,2.51,2.75c0,1.76-1.68,2.95-4.05,2.95c-1.5,0-2.88-0.53-3.76-1.36l1.5-1.66
			c0.61,0.48,1.39,0.85,2.18,0.85c0.56,0,0.9-0.18,0.9-0.53c0-0.42-0.18-0.5-1.65-0.94c-1.6-0.48-2.48-1.39-2.48-2.77
			c0-1.54,1.33-2.77,3.73-2.77C386.55,4.65,387.79,5.08,388.57,5.75z"/>
		<path class="st12" d="M396.54,13.1c-0.7,0.5-1.76,0.74-2.56,0.74c-2.14-0.02-3.11-1.22-3.11-3.47V7.11h-1.02V4.97h1.02V3.17
			l3.17-0.37v2.16h1.92l-0.32,2.15h-1.6v3.22c0,0.8,0.27,1.02,0.67,1.02c0.24,0,0.51-0.06,0.8-0.22L396.54,13.1z"/>
		<path class="st12" d="M406.01,9.26c0,2.79-1.68,4.58-4.4,4.58c-2.69,0-4.4-1.63-4.4-4.61c0-2.79,1.68-4.58,4.4-4.58
			C404.3,4.65,406.01,6.28,406.01,9.26z M400.46,9.23c0,1.7,0.35,2.34,1.15,2.34c0.8,0,1.15-0.69,1.15-2.31
			c0-1.7-0.35-2.34-1.15-2.34C400.81,6.92,400.46,7.61,400.46,9.23z"/>
		<path class="st12" d="M413.8,4.84l-0.5,3.06c-0.27-0.08-0.51-0.13-0.78-0.13c-1.02,0-1.36,0.77-1.6,1.86v3.89h-3.17V4.97h2.77
			l0.26,1.6c0.35-1.12,1.22-1.87,2.16-1.87C413.27,4.7,413.5,4.74,413.8,4.84z"/>
		<path class="st12" d="M422.94,10.14h-5.19c0.18,1.23,0.78,1.46,1.71,1.46c0.61,0,1.2-0.24,1.94-0.75l1.28,1.73
			c-0.85,0.69-2.03,1.26-3.52,1.26c-3.14,0-4.61-1.94-4.61-4.58c0-2.5,1.42-4.61,4.26-4.61c2.53,0,4.19,1.62,4.19,4.48
			C423,9.4,422.97,9.83,422.94,10.14z M419.88,8.23c-0.02-0.86-0.19-1.58-1.01-1.58c-0.67,0-1.02,0.38-1.14,1.7h2.15V8.23z"/>
		<path class="st12" d="M432.94,1.61v11.91h-2.82l-0.11-0.88c-0.45,0.59-1.18,1.2-2.42,1.2c-2.22,0-3.25-1.82-3.25-4.64
			c0-2.66,1.38-4.55,3.65-4.55c0.64,0,1.3,0.24,1.78,0.67V1.29L432.94,1.61z M429.77,10.81V7.38c-0.29-0.3-0.54-0.48-0.93-0.48
			c-0.7,0-1.25,0.59-1.25,2.32c0,2.05,0.5,2.34,1.1,2.34C429.1,11.56,429.47,11.34,429.77,10.81z"/>
		<path class="st12" d="M442.76,1.94c0,0.96-0.74,1.7-1.78,1.7s-1.78-0.74-1.78-1.7s0.74-1.7,1.78-1.7S442.76,0.98,442.76,1.94z
			 M442.57,13.51h-3.17V4.97h3.17V13.51z"/>
		<path class="st12" d="M452.6,7.21v6.31h-3.17V7.78c0-0.67-0.19-0.83-0.48-0.83c-0.34,0-0.7,0.27-1.07,0.85v5.71h-3.17V4.97h2.77
			l0.22,0.88c0.79-0.83,1.57-1.2,2.59-1.2C451.72,4.65,452.6,5.58,452.6,7.21z"/>
		<path class="st12" d="M466.89,11.74l-0.64,2.03c-1.1-0.08-1.83-0.37-2.3-1.18c-0.62,0.94-1.6,1.25-2.58,1.25
			c-1.71,0-2.82-1.14-2.82-2.72c0-1.89,1.44-2.93,4.13-2.93h0.61V7.98c0-0.86-0.29-1.09-1.23-1.09c-0.5,0-1.36,0.16-2.21,0.45
			l-0.69-2.02c1.07-0.43,2.4-0.67,3.38-0.67c2.72,0,3.84,1.04,3.84,3.15v2.95C466.38,11.35,466.5,11.59,466.89,11.74z M463.29,11.1
			V9.83h-0.34c-0.9,0-1.31,0.3-1.31,0.98c0,0.48,0.27,0.8,0.7,0.8C462.74,11.61,463.08,11.39,463.29,11.1z"/>
		<path class="st12" d="M481.48,9.21c0,2.66-1.36,4.63-3.41,4.63c-0.8,0-1.47-0.29-1.98-0.85v3.84l-3.17,0.32V4.97h2.82l0.13,0.83
			c0.74-0.88,1.67-1.15,2.35-1.15C480.46,4.65,481.48,6.39,481.48,9.21z M478.23,9.26c0-2.06-0.45-2.34-1.09-2.34
			c-0.35,0-0.74,0.22-1.06,0.8v3.27c0.29,0.43,0.56,0.59,0.94,0.59C477.74,11.58,478.23,10.99,478.23,9.26z"/>
		<path class="st12" d="M491.29,10.14h-5.19c0.18,1.23,0.78,1.46,1.71,1.46c0.61,0,1.2-0.24,1.94-0.75l1.28,1.73
			c-0.85,0.69-2.03,1.26-3.52,1.26c-3.14,0-4.61-1.94-4.61-4.58c0-2.5,1.42-4.61,4.26-4.61c2.53,0,4.19,1.62,4.19,4.48
			C491.35,9.4,491.32,9.83,491.29,10.14z M488.23,8.23c-0.02-0.86-0.19-1.58-1.01-1.58c-0.67,0-1.02,0.38-1.14,1.7h2.15V8.23z"/>
		<path class="st12" d="M499.06,4.84l-0.5,3.06c-0.27-0.08-0.51-0.13-0.78-0.13c-1.02,0-1.36,0.77-1.6,1.86v3.89h-3.17V4.97h2.77
			l0.26,1.6c0.35-1.12,1.22-1.87,2.16-1.87C498.54,4.7,498.76,4.74,499.06,4.84z"/>
		<path class="st12" d="M506.92,5.75l-1.12,1.71c-0.61-0.38-1.34-0.62-2.03-0.62c-0.53,0-0.72,0.16-0.72,0.38
			c0,0.29,0.1,0.42,1.71,0.91c1.62,0.5,2.51,1.2,2.51,2.75c0,1.76-1.68,2.95-4.05,2.95c-1.5,0-2.88-0.53-3.76-1.36l1.5-1.66
			c0.61,0.48,1.39,0.85,2.18,0.85c0.56,0,0.9-0.18,0.9-0.53c0-0.42-0.18-0.5-1.65-0.94c-1.6-0.48-2.48-1.39-2.48-2.77
			c0-1.54,1.33-2.77,3.73-2.77C504.9,4.65,506.14,5.08,506.92,5.75z"/>
		<path class="st12" d="M517.3,9.26c0,2.79-1.68,4.58-4.4,4.58c-2.69,0-4.4-1.63-4.4-4.61c0-2.79,1.68-4.58,4.4-4.58
			C515.59,4.65,517.3,6.28,517.3,9.26z M511.75,9.23c0,1.7,0.35,2.34,1.15,2.34c0.8,0,1.15-0.69,1.15-2.31
			c0-1.7-0.35-2.34-1.15-2.34C512.1,6.92,511.75,7.61,511.75,9.23z"/>
		<path class="st12" d="M526.94,7.21v6.31h-3.17V7.78c0-0.67-0.19-0.83-0.48-0.83c-0.34,0-0.7,0.27-1.07,0.85v5.71h-3.17V4.97h2.77
			l0.22,0.88c0.79-0.83,1.57-1.2,2.59-1.2C526.06,4.65,526.94,5.58,526.94,7.21z"/>
		<path class="st12" d="M536.91,11.74l-0.64,2.03c-1.1-0.08-1.83-0.37-2.31-1.18c-0.62,0.94-1.6,1.25-2.58,1.25
			c-1.71,0-2.82-1.14-2.82-2.72c0-1.89,1.44-2.93,4.13-2.93h0.61V7.98c0-0.86-0.29-1.09-1.23-1.09c-0.5,0-1.36,0.16-2.21,0.45
			l-0.69-2.02c1.07-0.43,2.4-0.67,3.38-0.67c2.72,0,3.84,1.04,3.84,3.15v2.95C536.39,11.35,536.52,11.59,536.91,11.74z M533.3,11.1
			V9.83h-0.34c-0.9,0-1.31,0.3-1.31,0.98c0,0.48,0.27,0.8,0.7,0.8C532.76,11.61,533.1,11.39,533.3,11.1z"/>
		<path class="st12" d="M538.53,11.05V1.61l3.17-0.32v9.64c0,0.29,0.13,0.43,0.38,0.43c0.14,0,0.26-0.03,0.34-0.06l0.56,2.26
			c-0.42,0.16-1.04,0.29-1.76,0.29C539.5,13.83,538.53,12.83,538.53,11.05z"/>
		<path class="st12" d="M556.81,1.61v11.91h-2.82l-0.11-0.88c-0.45,0.59-1.18,1.2-2.42,1.2c-2.22,0-3.25-1.82-3.25-4.64
			c0-2.66,1.38-4.55,3.65-4.55c0.64,0,1.3,0.24,1.78,0.67V1.29L556.81,1.61z M553.64,10.81V7.38c-0.29-0.3-0.54-0.48-0.93-0.48
			c-0.7,0-1.25,0.59-1.25,2.32c0,2.05,0.5,2.34,1.1,2.34C552.97,11.56,553.34,11.34,553.64,10.81z"/>
		<path class="st12" d="M566.86,11.74l-0.64,2.03c-1.1-0.08-1.83-0.37-2.31-1.18c-0.62,0.94-1.6,1.25-2.58,1.25
			c-1.71,0-2.82-1.14-2.82-2.72c0-1.89,1.44-2.93,4.13-2.93h0.61V7.98c0-0.86-0.29-1.09-1.23-1.09c-0.5,0-1.36,0.16-2.21,0.45
			l-0.69-2.02c1.07-0.43,2.4-0.67,3.38-0.67c2.72,0,3.84,1.04,3.84,3.15v2.95C566.34,11.35,566.47,11.59,566.86,11.74z M563.25,11.1
			V9.83h-0.34c-0.9,0-1.31,0.3-1.31,0.98c0,0.48,0.27,0.8,0.7,0.8C562.71,11.61,563.05,11.39,563.25,11.1z"/>
		<path class="st12" d="M574.55,13.1c-0.71,0.5-1.76,0.74-2.56,0.74c-2.14-0.02-3.11-1.22-3.11-3.47V7.11h-1.02V4.97h1.02V3.17
			l3.17-0.37v2.16h1.92l-0.32,2.15h-1.6v3.22c0,0.8,0.27,1.02,0.67,1.02c0.24,0,0.51-0.06,0.8-0.22L574.55,13.1z"/>
		<path class="st12" d="M583.69,11.74l-0.64,2.03c-1.1-0.08-1.83-0.37-2.3-1.18c-0.62,0.94-1.6,1.25-2.58,1.25
			c-1.71,0-2.82-1.14-2.82-2.72c0-1.89,1.44-2.93,4.13-2.93h0.61V7.98c0-0.86-0.29-1.09-1.23-1.09c-0.5,0-1.36,0.16-2.21,0.45
			l-0.69-2.02c1.07-0.43,2.4-0.67,3.38-0.67c2.72,0,3.84,1.04,3.84,3.15v2.95C583.18,11.35,583.31,11.59,583.69,11.74z M580.09,11.1
			V9.83h-0.34c-0.9,0-1.31,0.3-1.31,0.98c0,0.48,0.27,0.8,0.7,0.8C579.54,11.61,579.88,11.39,580.09,11.1z"/>
		<path class="st12" d="M598.28,9.21c0,2.66-1.36,4.63-3.41,4.63c-0.8,0-1.47-0.29-1.98-0.85v3.84l-3.17,0.32V4.97h2.82l0.13,0.83
			c0.74-0.88,1.67-1.15,2.35-1.15C597.26,4.65,598.28,6.39,598.28,9.21z M595.03,9.26c0-2.06-0.45-2.34-1.09-2.34
			c-0.35,0-0.74,0.22-1.06,0.8v3.27c0.29,0.43,0.56,0.59,0.94,0.59C594.54,11.58,595.03,10.99,595.03,9.26z"/>
		<path class="st12" d="M608.5,9.26c0,2.79-1.68,4.58-4.4,4.58c-2.69,0-4.4-1.63-4.4-4.61c0-2.79,1.68-4.58,4.4-4.58
			C606.79,4.65,608.5,6.28,608.5,9.26z M602.95,9.23c0,1.7,0.35,2.34,1.15,2.34c0.8,0,1.15-0.69,1.15-2.31
			c0-1.7-0.35-2.34-1.15-2.34C603.3,6.92,602.95,7.61,602.95,9.23z"/>
		<path class="st12" d="M618.52,1.61v11.91h-2.82l-0.11-0.88c-0.45,0.59-1.18,1.2-2.42,1.2c-2.22,0-3.25-1.82-3.25-4.64
			c0-2.66,1.38-4.55,3.65-4.55c0.64,0,1.3,0.24,1.78,0.67V1.29L618.52,1.61z M615.35,10.81V7.38c-0.29-0.3-0.54-0.48-0.93-0.48
			c-0.7,0-1.25,0.59-1.25,2.32c0,2.05,0.5,2.34,1.1,2.34C614.68,11.56,615.05,11.34,615.35,10.81z"/>
	</g>
	<g>
		<path class="st12" d="M37.2,1.61v11.91h-2.82l-0.11-0.88c-0.45,0.59-1.18,1.2-2.42,1.2c-2.23,0-3.25-1.82-3.25-4.64
			c0-2.66,1.38-4.55,3.65-4.55c0.64,0,1.3,0.24,1.78,0.67V1.29L37.2,1.61z M34.03,10.81V7.38c-0.29-0.3-0.54-0.48-0.93-0.48
			c-0.7,0-1.25,0.59-1.25,2.32c0,2.05,0.5,2.34,1.1,2.34C33.36,11.56,33.72,11.34,34.03,10.81z"/>
		<path class="st12" d="M47.24,11.74l-0.64,2.03c-1.1-0.08-1.83-0.37-2.31-1.18c-0.62,0.94-1.6,1.25-2.58,1.25
			c-1.71,0-2.82-1.14-2.82-2.72c0-1.89,1.44-2.93,4.13-2.93h0.61V7.98c0-0.86-0.29-1.09-1.23-1.09c-0.5,0-1.36,0.16-2.21,0.45
			l-0.69-2.02c1.07-0.43,2.4-0.67,3.38-0.67c2.72,0,3.84,1.04,3.84,3.15v2.95C46.73,11.35,46.86,11.59,47.24,11.74z M43.64,11.1
			V9.83h-0.34c-0.9,0-1.31,0.3-1.31,0.98c0,0.48,0.27,0.8,0.7,0.8C43.1,11.61,43.44,11.39,43.64,11.1z"/>
		<path class="st12" d="M54.94,13.1c-0.7,0.5-1.76,0.74-2.56,0.74c-2.14-0.02-3.11-1.22-3.11-3.47V7.11h-1.02V4.97h1.02V3.17
			l3.17-0.37v2.16h1.92l-0.32,2.15h-1.6v3.22c0,0.8,0.27,1.02,0.67,1.02c0.24,0,0.51-0.06,0.8-0.22L54.94,13.1z"/>
		<path class="st12" d="M64.08,11.74l-0.64,2.03c-1.1-0.08-1.83-0.37-2.31-1.18c-0.62,0.94-1.6,1.25-2.58,1.25
			c-1.71,0-2.82-1.14-2.82-2.72c0-1.89,1.44-2.93,4.13-2.93h0.61V7.98c0-0.86-0.29-1.09-1.23-1.09c-0.5,0-1.36,0.16-2.21,0.45
			l-0.69-2.02c1.07-0.43,2.4-0.67,3.38-0.67c2.72,0,3.84,1.04,3.84,3.15v2.95C63.56,11.35,63.69,11.59,64.08,11.74z M60.47,11.1
			V9.83h-0.34c-0.9,0-1.31,0.3-1.31,0.98c0,0.48,0.27,0.8,0.7,0.8C59.93,11.61,60.27,11.39,60.47,11.1z"/>
		<path class="st12" d="M76.81,5.75l-1.12,1.71c-0.61-0.38-1.34-0.62-2.03-0.62c-0.53,0-0.72,0.16-0.72,0.38
			c0,0.29,0.1,0.42,1.71,0.91c1.62,0.5,2.51,1.2,2.51,2.75c0,1.76-1.68,2.95-4.05,2.95c-1.5,0-2.88-0.53-3.76-1.36l1.5-1.66
			c0.61,0.48,1.39,0.85,2.18,0.85c0.56,0,0.9-0.18,0.9-0.53c0-0.42-0.18-0.5-1.65-0.94c-1.6-0.48-2.48-1.39-2.48-2.77
			c0-1.54,1.33-2.77,3.73-2.77C74.79,4.65,76.03,5.08,76.81,5.75z"/>
		<path class="st12" d="M84.78,13.1c-0.7,0.5-1.76,0.74-2.56,0.74c-2.14-0.02-3.11-1.22-3.11-3.47V7.11h-1.02V4.97h1.02V3.17
			l3.17-0.37v2.16h1.92l-0.32,2.15h-1.6v3.22c0,0.8,0.27,1.02,0.67,1.02c0.24,0,0.51-0.06,0.8-0.22L84.78,13.1z"/>
		<path class="st12" d="M94.25,9.26c0,2.79-1.68,4.58-4.4,4.58c-2.69,0-4.4-1.63-4.4-4.61c0-2.79,1.68-4.58,4.4-4.58
			C92.54,4.65,94.25,6.28,94.25,9.26z M88.7,9.23c0,1.7,0.35,2.34,1.15,2.34c0.8,0,1.15-0.69,1.15-2.31c0-1.7-0.35-2.34-1.15-2.34
			C89.05,6.92,88.7,7.61,88.7,9.23z"/>
		<path class="st12" d="M102.04,4.84l-0.5,3.06c-0.27-0.08-0.51-0.13-0.78-0.13c-1.02,0-1.36,0.77-1.6,1.86v3.89h-3.17V4.97h2.77
			l0.26,1.6c0.35-1.12,1.22-1.87,2.16-1.87C101.51,4.7,101.74,4.74,102.04,4.84z"/>
		<path class="st12" d="M111.18,10.14h-5.19c0.18,1.23,0.78,1.46,1.71,1.46c0.61,0,1.2-0.24,1.94-0.75l1.28,1.73
			c-0.85,0.69-2.03,1.26-3.52,1.26c-3.14,0-4.61-1.94-4.61-4.58c0-2.5,1.42-4.61,4.26-4.61c2.53,0,4.19,1.62,4.19,4.48
			C111.24,9.4,111.21,9.83,111.18,10.14z M108.12,8.23c-0.02-0.86-0.19-1.58-1.01-1.58c-0.67,0-1.02,0.38-1.14,1.7h2.15V8.23z"/>
		<path class="st12" d="M121.18,1.61v11.91h-2.82l-0.11-0.88c-0.45,0.59-1.18,1.2-2.42,1.2c-2.22,0-3.25-1.82-3.25-4.64
			c0-2.66,1.38-4.55,3.65-4.55c0.64,0,1.3,0.24,1.78,0.67V1.29L121.18,1.61z M118.01,10.81V7.38c-0.29-0.3-0.54-0.48-0.93-0.48
			c-0.7,0-1.25,0.59-1.25,2.32c0,2.05,0.5,2.34,1.1,2.34C117.34,11.56,117.71,11.34,118.01,10.81z"/>
		<path class="st12" d="M136.2,9.26c0,2.61-1.26,4.58-3.42,4.58c-0.94,0-1.71-0.4-2.21-1.06l-0.11,0.74h-2.82V1.61l3.17-0.32v4.43
			c0.46-0.64,1.36-1.07,2.16-1.07C135.18,4.65,136.2,6.39,136.2,9.26z M132.95,9.26c0-2-0.45-2.34-1.01-2.34
			c-0.42,0-0.82,0.22-1.14,0.8v3.23c0.26,0.43,0.61,0.62,1.04,0.62C132.49,11.58,132.95,11.05,132.95,9.26z"/>
		<path class="st12" d="M143.35,13.5c-0.72,2.37-2.45,3.59-5.31,3.67L137.7,15c1.63-0.16,2.32-0.53,2.77-1.49h-1.09l-2.43-8.55h3.36
			l1.07,6.61l1.33-6.61h3.26L143.35,13.5z"/>
		<path class="st12" d="M158.23,5.75l-1.12,1.71c-0.61-0.38-1.34-0.62-2.03-0.62c-0.53,0-0.72,0.16-0.72,0.38
			c0,0.29,0.1,0.42,1.71,0.91c1.62,0.5,2.51,1.2,2.51,2.75c0,1.76-1.68,2.95-4.05,2.95c-1.5,0-2.88-0.53-3.76-1.36l1.5-1.66
			c0.61,0.48,1.39,0.85,2.18,0.85c0.56,0,0.9-0.18,0.9-0.53c0-0.42-0.18-0.5-1.65-0.94c-1.6-0.48-2.48-1.39-2.48-2.77
			c0-1.54,1.33-2.77,3.73-2.77C156.22,4.65,157.45,5.08,158.23,5.75z"/>
		<path class="st12" d="M168.2,10.14h-5.19c0.18,1.23,0.78,1.46,1.71,1.46c0.61,0,1.2-0.24,1.94-0.75l1.28,1.73
			c-0.85,0.69-2.03,1.26-3.52,1.26c-3.14,0-4.61-1.94-4.61-4.58c0-2.5,1.42-4.61,4.26-4.61c2.53,0,4.19,1.62,4.19,4.48
			C168.27,9.4,168.23,9.83,168.2,10.14z M165.14,8.23c-0.02-0.86-0.19-1.58-1.01-1.58c-0.67,0-1.02,0.38-1.14,1.7h2.15V8.23z"/>
		<path class="st12" d="M175.98,4.84l-0.5,3.06c-0.27-0.08-0.51-0.13-0.78-0.13c-1.02,0-1.36,0.77-1.6,1.86v3.89h-3.17V4.97h2.77
			l0.26,1.6c0.35-1.12,1.22-1.87,2.16-1.87C175.45,4.7,175.67,4.74,175.98,4.84z"/>
		<path class="st12" d="M183.21,13.51h-3.75l-2.61-8.55h3.44l1.07,6.26l1.18-6.26h3.2L183.21,13.51z"/>
		<path class="st12" d="M190.34,1.94c0,0.96-0.74,1.7-1.78,1.7s-1.78-0.74-1.78-1.7s0.74-1.7,1.78-1.7S190.34,0.98,190.34,1.94z
			 M190.15,13.51h-3.17V4.97h3.17V13.51z"/>
		<path class="st12" d="M199.45,5.78l-1.31,1.84c-0.51-0.42-0.99-0.59-1.5-0.59c-0.93,0-1.44,0.54-1.44,2.27
			c0,1.71,0.59,2.08,1.41,2.08c0.53,0,0.9-0.18,1.49-0.54l1.36,1.94c-0.78,0.64-1.75,1.06-3.03,1.06c-2.82,0-4.53-1.86-4.53-4.53
			c0-2.71,1.74-4.66,4.45-4.66C197.66,4.65,198.63,5.06,199.45,5.78z"/>
		<path class="st12" d="M208.58,10.14h-5.19c0.18,1.23,0.78,1.46,1.71,1.46c0.61,0,1.2-0.24,1.94-0.75l1.28,1.73
			c-0.85,0.69-2.03,1.26-3.52,1.26c-3.14,0-4.61-1.94-4.61-4.58c0-2.5,1.42-4.61,4.26-4.61c2.53,0,4.19,1.62,4.19,4.48
			C208.65,9.4,208.62,9.83,208.58,10.14z M205.53,8.23c-0.02-0.86-0.19-1.58-1.01-1.58c-0.67,0-1.02,0.38-1.14,1.7h2.15V8.23z"/>
		<path class="st12" d="M223.19,9.21c0,2.66-1.36,4.63-3.41,4.63c-0.8,0-1.47-0.29-1.98-0.85v3.84l-3.17,0.32V4.97h2.82l0.13,0.83
			c0.74-0.88,1.67-1.15,2.35-1.15C222.17,4.65,223.19,6.39,223.19,9.21z M219.94,9.26c0-2.06-0.45-2.34-1.09-2.34
			c-0.35,0-0.74,0.22-1.06,0.8v3.27c0.29,0.43,0.56,0.59,0.94,0.59C219.45,11.58,219.94,10.99,219.94,9.26z"/>
		<path class="st12" d="M231.06,4.84l-0.5,3.06c-0.27-0.08-0.51-0.13-0.78-0.13c-1.02,0-1.36,0.77-1.6,1.86v3.89h-3.17V4.97h2.77
			l0.26,1.6c0.35-1.12,1.22-1.87,2.16-1.87C230.54,4.7,230.76,4.74,231.06,4.84z"/>
		<path class="st12" d="M240.62,9.26c0,2.79-1.68,4.58-4.4,4.58c-2.69,0-4.4-1.63-4.4-4.61c0-2.79,1.68-4.58,4.4-4.58
			C238.9,4.65,240.62,6.28,240.62,9.26z M235.06,9.23c0,1.7,0.35,2.34,1.15,2.34c0.8,0,1.15-0.69,1.15-2.31
			c0-1.7-0.35-2.34-1.15-2.34C235.42,6.92,235.06,7.61,235.06,9.23z"/>
		<path class="st12" d="M247.32,13.51h-3.75l-2.61-8.55h3.44l1.07,6.26l1.18-6.26h3.2L247.32,13.51z"/>
		<path class="st12" d="M254.45,1.94c0,0.96-0.74,1.7-1.78,1.7s-1.78-0.74-1.78-1.7s0.74-1.7,1.78-1.7S254.45,0.98,254.45,1.94z
			 M254.26,13.51h-3.17V4.97h3.17V13.51z"/>
		<path class="st12" d="M264.68,1.61v11.91h-2.82l-0.11-0.88c-0.45,0.59-1.18,1.2-2.42,1.2c-2.22,0-3.25-1.82-3.25-4.64
			c0-2.66,1.38-4.55,3.65-4.55c0.64,0,1.3,0.24,1.78,0.67V1.29L264.68,1.61z M261.51,10.81V7.38c-0.29-0.3-0.54-0.48-0.93-0.48
			c-0.7,0-1.25,0.59-1.25,2.32c0,2.05,0.5,2.34,1.1,2.34C260.84,11.56,261.21,11.34,261.51,10.81z"/>
		<path class="st12" d="M274.81,10.14h-5.19c0.18,1.23,0.78,1.46,1.71,1.46c0.61,0,1.2-0.24,1.94-0.75l1.28,1.73
			c-0.85,0.69-2.03,1.26-3.52,1.26c-3.14,0-4.61-1.94-4.61-4.58c0-2.5,1.42-4.61,4.26-4.61c2.53,0,4.19,1.62,4.19,4.48
			C274.87,9.4,274.84,9.83,274.81,10.14z M271.75,8.23c-0.02-0.86-0.19-1.58-1.01-1.58c-0.67,0-1.02,0.38-1.14,1.7h2.15V8.23z"/>
		<path class="st12" d="M282.58,4.84l-0.5,3.06c-0.27-0.08-0.51-0.13-0.78-0.13c-1.02,0-1.36,0.77-1.6,1.86v3.89h-3.17V4.97h2.77
			l0.26,1.6c0.35-1.12,1.22-1.87,2.16-1.87C282.05,4.7,282.28,4.74,282.58,4.84z"/>
		<path class="st12" d="M290.44,5.75l-1.12,1.71c-0.61-0.38-1.34-0.62-2.03-0.62c-0.53,0-0.72,0.16-0.72,0.38
			c0,0.29,0.1,0.42,1.71,0.91c1.62,0.5,2.51,1.2,2.51,2.75c0,1.76-1.68,2.95-4.05,2.95c-1.5,0-2.88-0.53-3.76-1.36l1.5-1.66
			c0.61,0.48,1.39,0.85,2.18,0.85c0.56,0,0.9-0.18,0.9-0.53c0-0.42-0.18-0.5-1.65-0.94c-1.6-0.48-2.48-1.39-2.48-2.77
			c0-1.54,1.33-2.77,3.73-2.77C288.42,4.65,289.65,5.08,290.44,5.75z"/>
	</g>
	<line class="st13" x1="320" y1="0" x2="320" y2="320"/>
	<g>
		<path class="st2" d="M451.98,109.45l-0.67,4.62c-0.01,0.13-0.03,0.22-0.03,0.32c0,0.32,0.11,0.46,0.36,0.56l-0.7,1.6
			c-0.85-0.06-1.6-0.43-1.85-1.23c-0.5,0.74-1.21,1.27-2.2,1.27c-1.64,0-2.47-1.16-2.47-3c0-2.16,1.15-4.97,4.37-4.97
			C449.82,108.62,450.95,108.86,451.98,109.45z M446.95,113.59c0,0.98,0.34,1.2,0.74,1.2c0.43,0,0.85-0.34,1.23-0.94l0.5-3.39
			c-0.25-0.08-0.43-0.11-0.71-0.11C447.4,110.36,446.95,112.21,446.95,113.59z"/>
		<path class="st2" d="M455.05,114.13c-0.06,0.41,0.07,0.5,0.28,0.5c0.1,0,0.21-0.03,0.32-0.06l0.25,1.74
			c-0.41,0.18-0.98,0.28-1.5,0.28c-1.34,0-2.03-0.8-1.82-2.3l1.18-8.36l2.48-0.25L455.05,114.13z"/>
		<path class="st2" d="M459.09,114.13c-0.06,0.41,0.07,0.5,0.28,0.5c0.1,0,0.21-0.03,0.32-0.06l0.25,1.74
			c-0.41,0.18-0.98,0.28-1.5,0.28c-1.34,0-2.03-0.8-1.82-2.3l1.18-8.36l2.48-0.25L459.09,114.13z"/>
		<path class="st2" d="M469.49,108.77l-0.69,2.41c-0.24-0.07-0.42-0.11-0.64-0.11c-0.91,0-1.36,0.88-1.74,1.97l-0.46,3.29h-2.45
			l1.04-7.47h2.13l-0.01,1.36c0.49-0.98,1.33-1.58,2.09-1.58C469.06,108.65,469.27,108.69,469.49,108.77z"/>
		<path class="st2" d="M471.45,113.65c0.06,0.87,0.56,1.15,1.22,1.15c0.63,0,1.18-0.22,1.88-0.69l0.87,1.46
			c-0.83,0.59-1.85,1.02-3.07,1.02c-2.28,0-3.35-1.29-3.35-3.18c0-2.03,1.11-4.79,4.33-4.79c1.88,0,2.89,0.91,2.89,2.09
			C476.21,112.79,473.7,113.44,471.45,113.65z M473.75,110.86c0-0.35-0.15-0.63-0.67-0.63c-0.9,0-1.33,0.98-1.53,1.96
			C473.33,112.08,473.75,111.3,473.75,110.86z"/>
		<path class="st2" d="M479.12,114.13c-0.06,0.41,0.07,0.5,0.28,0.5c0.1,0,0.21-0.03,0.32-0.06l0.25,1.74
			c-0.41,0.18-0.98,0.28-1.5,0.28c-1.34,0-2.03-0.8-1.82-2.3l1.18-8.36l2.48-0.25L479.12,114.13z"/>
		<path class="st2" d="M482.89,113.65c0.06,0.87,0.56,1.15,1.22,1.15c0.63,0,1.18-0.22,1.88-0.69l0.87,1.46
			c-0.83,0.59-1.85,1.02-3.07,1.02c-2.28,0-3.35-1.29-3.35-3.18c0-2.03,1.11-4.79,4.33-4.79c1.88,0,2.89,0.91,2.89,2.09
			C487.65,112.79,485.14,113.44,482.89,113.65z M485.18,110.86c0-0.35-0.15-0.63-0.67-0.63c-0.9,0-1.33,0.98-1.53,1.96
			C484.76,112.08,485.18,111.3,485.18,110.86z"/>
		<path class="st2" d="M492.11,116.34h-2.93l-1.26-7.47h2.62l0.36,5.62l1.89-5.62h2.56L492.11,116.34z"/>
		<path class="st2" d="M502.35,109.45l-0.67,4.62c-0.01,0.13-0.03,0.22-0.03,0.32c0,0.32,0.11,0.46,0.36,0.56l-0.7,1.6
			c-0.85-0.06-1.6-0.43-1.85-1.23c-0.5,0.74-1.21,1.27-2.2,1.27c-1.64,0-2.47-1.16-2.47-3c0-2.16,1.15-4.97,4.37-4.97
			C500.19,108.62,501.33,108.86,502.35,109.45z M497.32,113.59c0,0.98,0.34,1.2,0.74,1.2c0.43,0,0.85-0.34,1.23-0.94l0.5-3.39
			c-0.25-0.08-0.43-0.11-0.71-0.11C497.77,110.36,497.32,112.21,497.32,113.59z"/>
		<path class="st2" d="M510.06,110.89l-0.76,5.45h-2.45l0.69-4.85c0.1-0.67-0.07-0.84-0.34-0.84c-0.45,0-0.92,0.64-1.43,1.7
			l-0.56,3.99h-2.45l1.04-7.47h2.13l-0.01,1.27c0.6-0.92,1.54-1.53,2.52-1.53C509.62,108.62,510.26,109.46,510.06,110.89z"/>
		<path class="st2" d="M514.93,114.41l0.63,1.62c-0.64,0.38-1.5,0.56-2.16,0.56c-1.74,0-2.42-1.01-2.17-2.87l0.45-3.14h-0.95
			l0.22-1.71h1.06l0.46-1.62l2.14-0.25l-0.27,1.88h1.67l-0.48,1.71h-1.42l-0.43,3.14c-0.11,0.71,0.07,0.91,0.45,0.91
			C514.4,114.63,514.65,114.56,514.93,114.41z"/>
		<path class="st2" d="M443,122.73l-1.46,10.41h-2.17l0.01-1.01c-0.46,0.66-1.18,1.26-2.2,1.26c-1.6,0-2.34-1.13-2.34-3.01
			c0-2.06,0.95-4.96,3.68-4.96c0.62,0,1.18,0.25,1.55,0.66l0.5-3.6L443,122.73z M437.37,130.38c0,0.98,0.31,1.22,0.7,1.22
			c0.53,0,1.02-0.63,1.42-1.27l0.38-2.66c-0.24-0.31-0.48-0.45-0.87-0.45C437.72,127.21,437.37,129.2,437.37,130.38z"/>
		<path class="st2" d="M450.57,126.25l-0.67,4.62c-0.01,0.13-0.03,0.22-0.03,0.32c0,0.32,0.11,0.46,0.36,0.56l-0.7,1.6
			c-0.85-0.06-1.6-0.43-1.85-1.23c-0.5,0.74-1.21,1.27-2.2,1.27c-1.64,0-2.47-1.16-2.47-3c0-2.16,1.15-4.97,4.37-4.97
			C448.41,125.42,449.55,125.66,450.57,126.25z M445.54,130.39c0,0.98,0.34,1.2,0.74,1.2c0.43,0,0.85-0.34,1.23-0.94l0.5-3.39
			c-0.25-0.08-0.43-0.11-0.71-0.11C445.99,127.16,445.54,129.01,445.54,130.39z"/>
		<path class="st2" d="M455.26,131.21l0.63,1.62c-0.64,0.38-1.5,0.56-2.16,0.56c-1.74,0-2.42-1.01-2.17-2.87l0.45-3.14h-0.95
			l0.22-1.71h1.06l0.46-1.62l2.14-0.25l-0.27,1.88h1.67l-0.48,1.71h-1.42l-0.43,3.14c-0.11,0.71,0.07,0.91,0.45,0.91
			C454.73,131.43,454.98,131.36,455.26,131.21z"/>
		<path class="st2" d="M463.81,126.25l-0.67,4.62c-0.01,0.13-0.03,0.22-0.03,0.32c0,0.32,0.11,0.46,0.36,0.56l-0.7,1.6
			c-0.85-0.06-1.6-0.43-1.85-1.23c-0.5,0.74-1.21,1.27-2.2,1.27c-1.64,0-2.47-1.16-2.47-3c0-2.16,1.15-4.97,4.37-4.97
			C461.66,125.42,462.79,125.66,463.81,126.25z M458.79,130.39c0,0.98,0.34,1.2,0.74,1.2c0.43,0,0.85-0.34,1.23-0.94l0.5-3.39
			c-0.25-0.08-0.43-0.11-0.71-0.11C459.23,127.16,458.79,129.01,458.79,130.39z"/>
		<path class="st2" d="M474.89,126.25l-0.67,4.62c-0.01,0.13-0.03,0.22-0.03,0.32c0,0.32,0.11,0.46,0.36,0.56l-0.7,1.6
			c-0.85-0.06-1.6-0.43-1.85-1.23c-0.5,0.74-1.21,1.27-2.2,1.27c-1.64,0-2.47-1.16-2.47-3c0-2.16,1.15-4.97,4.37-4.97
			C472.73,125.42,473.87,125.66,474.89,126.25z M469.86,130.39c0,0.98,0.34,1.2,0.74,1.2c0.43,0,0.85-0.34,1.23-0.94l0.5-3.39
			c-0.25-0.08-0.43-0.11-0.71-0.11C470.31,127.16,469.86,129.01,469.86,130.39z"/>
		<path class="st2" d="M479.66,133.14h-2.93l-1.26-7.47h2.62l0.36,5.62l1.89-5.62h2.56L479.66,133.14z"/>
		<path class="st2" d="M489.9,126.25l-0.67,4.62c-0.01,0.13-0.03,0.22-0.03,0.32c0,0.32,0.11,0.46,0.36,0.56l-0.7,1.6
			c-0.85-0.06-1.6-0.43-1.85-1.23c-0.5,0.74-1.21,1.27-2.2,1.27c-1.64,0-2.47-1.16-2.47-3c0-2.16,1.15-4.97,4.37-4.97
			C487.74,125.42,488.87,125.66,489.9,126.25z M484.87,130.39c0,0.98,0.34,1.2,0.74,1.2c0.43,0,0.85-0.34,1.23-0.94l0.5-3.39
			c-0.25-0.08-0.43-0.11-0.71-0.11C485.32,127.16,484.87,129.01,484.87,130.39z"/>
		<path class="st2" d="M492.76,133.14h-2.45l1.04-7.47h2.45L492.76,133.14z M494.35,123.08c-0.1,0.74-0.76,1.32-1.57,1.32
			c-0.84,0-1.34-0.62-1.25-1.41c0.11-0.76,0.76-1.33,1.57-1.33C493.95,121.65,494.44,122.27,494.35,123.08z"/>
		<path class="st2" d="M496.85,130.93c-0.06,0.41,0.07,0.5,0.28,0.5c0.1,0,0.21-0.03,0.32-0.06l0.25,1.74
			c-0.41,0.18-0.98,0.28-1.5,0.28c-1.34,0-2.03-0.8-1.82-2.3l1.18-8.36l2.48-0.25L496.85,130.93z"/>
		<path class="st2" d="M505.69,126.25l-0.67,4.62c-0.01,0.13-0.03,0.22-0.03,0.32c0,0.32,0.11,0.46,0.36,0.56l-0.7,1.6
			c-0.85-0.06-1.6-0.43-1.85-1.23c-0.5,0.74-1.21,1.27-2.2,1.27c-1.64,0-2.47-1.16-2.47-3c0-2.16,1.15-4.97,4.37-4.97
			C503.53,125.42,504.67,125.66,505.69,126.25z M500.66,130.39c0,0.98,0.34,1.2,0.74,1.2c0.43,0,0.85-0.34,1.23-0.94l0.5-3.39
			c-0.25-0.08-0.43-0.11-0.71-0.11C501.11,127.16,500.66,129.01,500.66,130.39z"/>
		<path class="st2" d="M509.49,126.28c0.52-0.52,1.29-0.85,2.02-0.85c1.53,0,2.28,1.05,2.28,2.9c0,2.16-0.84,5.07-4.47,5.07
			c-1.15,0-2.19-0.24-3.18-0.66l1.4-10l2.48-0.25L509.49,126.28z M509.26,128.03l-0.48,3.42c0.22,0.1,0.49,0.15,0.83,0.15
			c1.23,0,1.68-1.88,1.68-3.19c0-0.95-0.35-1.18-0.78-1.18C510.05,127.23,509.63,127.51,509.26,128.03z"/>
		<path class="st2" d="M516.91,130.93c-0.06,0.41,0.07,0.5,0.28,0.5c0.1,0,0.21-0.03,0.32-0.06l0.25,1.74
			c-0.41,0.18-0.98,0.28-1.5,0.28c-1.34,0-2.03-0.8-1.82-2.3l1.18-8.36l2.48-0.25L516.91,130.93z"/>
		<path class="st2" d="M520.68,130.45c0.06,0.87,0.56,1.15,1.22,1.15c0.63,0,1.18-0.22,1.88-0.69l0.87,1.46
			c-0.83,0.59-1.85,1.02-3.07,1.02c-2.28,0-3.35-1.29-3.35-3.18c0-2.03,1.11-4.79,4.33-4.79c1.88,0,2.89,0.91,2.89,2.09
			C525.44,129.59,522.93,130.24,520.68,130.45z M522.98,127.66c0-0.35-0.15-0.63-0.67-0.63c-0.9,0-1.33,0.98-1.53,1.96
			C522.56,128.88,522.98,128.1,522.98,127.66z"/>
	</g>
	<g>
		<path class="st2" d="M439.59,217.33h-2.13l0.04-1.02c-0.63,0.77-1.4,1.27-2.33,1.27c-1.43,0-1.96-0.94-1.76-2.37l0.76-5.35h2.45
			l-0.67,4.9c-0.1,0.67,0.07,0.84,0.39,0.84c0.41,0,0.83-0.46,1.19-1.05l0.66-4.69h2.44L439.59,217.33z"/>
		<path class="st2" d="M448.32,211.88l-0.76,5.45h-2.45l0.69-4.85c0.1-0.67-0.07-0.84-0.34-0.84c-0.45,0-0.92,0.64-1.43,1.7
			l-0.56,3.99h-2.45l1.04-7.47h2.13l-0.01,1.27c0.6-0.92,1.54-1.53,2.52-1.53C447.87,209.61,448.51,210.45,448.32,211.88z"/>
		<path class="st2" d="M457.21,206.92l-1.46,10.41h-2.17l0.01-1.01c-0.46,0.66-1.18,1.26-2.2,1.26c-1.6,0-2.34-1.13-2.34-3.01
			c0-2.06,0.95-4.96,3.68-4.96c0.62,0,1.18,0.25,1.55,0.66l0.5-3.6L457.21,206.92z M451.57,214.57c0,0.98,0.31,1.22,0.7,1.22
			c0.53,0,1.02-0.63,1.42-1.27l0.38-2.66c-0.24-0.31-0.48-0.45-0.87-0.45C451.92,211.41,451.57,213.4,451.57,214.57z"/>
		<path class="st2" d="M459.71,214.64c0.06,0.87,0.56,1.15,1.22,1.15c0.63,0,1.18-0.22,1.88-0.69l0.87,1.46
			c-0.83,0.59-1.85,1.02-3.07,1.02c-2.28,0-3.35-1.29-3.35-3.18c0-2.03,1.11-4.79,4.33-4.79c1.88,0,2.89,0.91,2.89,2.09
			C464.47,213.79,461.96,214.43,459.71,214.64z M462,211.86c0-0.35-0.15-0.63-0.67-0.63c-0.9,0-1.33,0.98-1.53,1.96
			C461.58,213.07,462,212.29,462,211.86z"/>
		<path class="st2" d="M470.7,209.77l-0.69,2.41c-0.24-0.07-0.42-0.11-0.64-0.11c-0.91,0-1.36,0.88-1.74,1.97l-0.46,3.29h-2.45
			l1.04-7.47h2.13l-0.01,1.36c0.49-0.98,1.33-1.58,2.09-1.58C470.27,209.64,470.48,209.68,470.7,209.77z"/>
		<path class="st2" d="M481.02,212.51c0,2.16-0.98,5.07-3.96,5.07c-0.66,0-1.07-0.1-1.32-0.2l-0.42,2.83l-2.45,0.27l1.48-10.62h2.17
			v0.8c0.76-0.78,1.53-1.05,2.18-1.05C480.25,209.61,481.02,210.66,481.02,212.51z M476.48,212.22l-0.49,3.42
			c0.24,0.1,0.49,0.15,0.83,0.15c1.25,0,1.68-1.88,1.68-3.19c0-0.95-0.34-1.18-0.77-1.18C477.28,211.42,476.86,211.69,476.48,212.22
			z"/>
		<path class="st2" d="M484.07,214.64c0.06,0.87,0.56,1.15,1.22,1.15c0.63,0,1.18-0.22,1.88-0.69l0.87,1.46
			c-0.83,0.59-1.85,1.02-3.07,1.02c-2.28,0-3.35-1.29-3.35-3.18c0-2.03,1.11-4.79,4.33-4.79c1.88,0,2.89,0.91,2.89,2.09
			C488.83,213.79,486.32,214.43,484.07,214.64z M486.36,211.86c0-0.35-0.15-0.63-0.67-0.63c-0.9,0-1.33,0.98-1.53,1.96
			C485.94,213.07,486.36,212.29,486.36,211.86z"/>
		<path class="st2" d="M495.06,209.77l-0.69,2.41c-0.24-0.07-0.42-0.11-0.64-0.11c-0.91,0-1.36,0.88-1.74,1.97l-0.46,3.29h-2.45
			l1.04-7.47h2.13l-0.01,1.36c0.49-0.98,1.33-1.58,2.09-1.58C494.62,209.64,494.83,209.68,495.06,209.77z"/>
		<path class="st2" d="M500.91,210.58l-1.05,1.33c-0.53-0.35-1.18-0.55-1.74-0.55c-0.59,0-0.84,0.2-0.84,0.49
			c0,0.32,0.24,0.42,1.41,0.81c1.22,0.41,1.89,1.09,1.89,2.27c0,1.3-0.9,2.65-3.42,2.65c-1.33,0-2.54-0.52-3.19-1.26l1.21-1.27
			c0.49,0.43,1.15,0.78,2,0.78c0.6,0,0.98-0.22,0.98-0.6c0-0.39-0.27-0.52-1.44-0.92c-1.25-0.43-1.88-1.08-1.88-2.21
			c0-1.34,1.16-2.48,3.26-2.48C499.25,209.61,500.23,210.01,500.91,210.58z"/>
		<path class="st2" d="M508.7,212.81c-0.01,2.14-1.05,4.78-4.26,4.78c-2.02,0-3.19-1.19-3.19-3.19c0-2.16,1.05-4.78,4.24-4.78
			C507.52,209.61,508.71,210.85,508.7,212.81z M503.75,214.53c0,0.9,0.28,1.25,0.88,1.25c1.33,0,1.54-2.06,1.55-3.11
			c0.01-0.88-0.28-1.25-0.88-1.25C503.98,211.42,503.75,213.48,503.75,214.53z"/>
		<path class="st2" d="M516.48,211.88l-0.76,5.45h-2.45l0.69-4.85c0.1-0.67-0.07-0.84-0.34-0.84c-0.45,0-0.92,0.64-1.43,1.7
			l-0.56,3.99h-2.45l1.04-7.47h2.13l-0.01,1.27c0.6-0.92,1.54-1.53,2.52-1.53C516.03,209.61,516.68,210.45,516.48,211.88z"/>
		<path class="st2" d="M520.63,207.61c0,0.48-0.17,0.83-0.5,1.39l-1.25,2.02h-1.22l0.9-2.25c-0.25-0.2-0.43-0.48-0.43-0.9
			c0-0.73,0.62-1.32,1.37-1.32C520.16,206.55,520.63,206.98,520.63,207.61z"/>
		<path class="st2" d="M526.94,210.58l-1.05,1.33c-0.53-0.35-1.18-0.55-1.74-0.55c-0.59,0-0.84,0.2-0.84,0.49
			c0,0.32,0.24,0.42,1.41,0.81c1.22,0.41,1.89,1.09,1.89,2.27c0,1.3-0.9,2.65-3.42,2.65c-1.33,0-2.54-0.52-3.19-1.26l1.21-1.27
			c0.49,0.43,1.15,0.78,2,0.78c0.6,0,0.98-0.22,0.98-0.6c0-0.39-0.27-0.52-1.44-0.92c-1.25-0.43-1.88-1.08-1.88-2.21
			c0-1.34,1.16-2.48,3.26-2.48C525.27,209.61,526.25,210.01,526.94,210.58z"/>
		<path class="st2" d="M464.42,227.41l-1.18,1.42c-0.41-0.38-0.8-0.52-1.26-0.52c-1.4,0-1.74,1.71-1.74,2.9
			c0,0.97,0.43,1.25,1.08,1.25c0.49,0,0.87-0.18,1.4-0.5l0.88,1.57c-0.74,0.55-1.58,0.87-2.62,0.87c-2.1,0-3.29-1.27-3.29-3.25
			c0-1.93,1.18-4.72,4.27-4.72C462.96,226.41,463.8,226.76,464.42,227.41z"/>
		<path class="st2" d="M471.58,229.61c-0.01,2.14-1.05,4.78-4.26,4.78c-2.02,0-3.19-1.19-3.19-3.19c0-2.16,1.05-4.78,4.24-4.78
			C470.41,226.41,471.6,227.65,471.58,229.61z M466.64,231.33c0,0.9,0.28,1.25,0.88,1.25c1.33,0,1.54-2.06,1.55-3.11
			c0.01-0.88-0.28-1.25-0.88-1.25C466.86,228.22,466.64,230.28,466.64,231.33z"/>
		<path class="st2" d="M479.37,228.68l-0.76,5.45h-2.45l0.69-4.85c0.1-0.67-0.07-0.84-0.34-0.84c-0.45,0-0.92,0.64-1.43,1.7
			l-0.56,3.99h-2.45l1.04-7.47h2.13l-0.01,1.27c0.6-0.92,1.54-1.53,2.52-1.53C478.92,226.41,479.56,227.25,479.37,228.68z"/>
		<path class="st2" d="M484.24,232.2l0.63,1.62c-0.64,0.38-1.5,0.56-2.16,0.56c-1.74,0-2.42-1.01-2.17-2.87l0.45-3.14h-0.95
			l0.22-1.71h1.06l0.46-1.62l2.14-0.25l-0.27,1.88h1.67l-0.48,1.71h-1.42l-0.43,3.14c-0.11,0.71,0.07,0.91,0.45,0.91
			C483.71,232.42,483.96,232.35,484.24,232.2z"/>
		<path class="st2" d="M491.31,226.57l-0.69,2.41c-0.24-0.07-0.42-0.11-0.64-0.11c-0.91,0-1.36,0.88-1.74,1.97l-0.46,3.29h-2.45
			l1.04-7.47h2.13l-0.01,1.36c0.49-0.98,1.33-1.58,2.09-1.58C490.88,226.44,491.08,226.48,491.31,226.57z"/>
		<path class="st2" d="M498.27,229.61c-0.01,2.14-1.05,4.78-4.26,4.78c-2.02,0-3.19-1.19-3.19-3.19c0-2.16,1.05-4.78,4.24-4.78
			C497.09,226.41,498.28,227.65,498.27,229.61z M493.32,231.33c0,0.9,0.28,1.25,0.88,1.25c1.33,0,1.54-2.06,1.55-3.11
			c0.01-0.88-0.28-1.25-0.88-1.25C493.55,228.22,493.32,230.28,493.32,231.33z"/>
		<path class="st2" d="M501.42,231.92c-0.06,0.41,0.07,0.5,0.28,0.5c0.1,0,0.21-0.03,0.32-0.06l0.25,1.74
			c-0.41,0.18-0.98,0.28-1.5,0.28c-1.34,0-2.03-0.8-1.82-2.3l1.18-8.36l2.48-0.25L501.42,231.92z"/>
	</g>
	<g>
		<path class="st2" d="M97.85,33.24c-0.06,0.41,0.07,0.5,0.28,0.5c0.1,0,0.21-0.03,0.32-0.06l0.25,1.74
			c-0.41,0.18-0.98,0.28-1.5,0.28c-1.34,0-2.03-0.8-1.82-2.3l1.18-8.36l2.48-0.25L97.85,33.24z"/>
		<path class="st2" d="M106.62,30.93c-0.01,2.14-1.05,4.78-4.26,4.78c-2.02,0-3.19-1.19-3.19-3.19c0-2.16,1.05-4.78,4.24-4.78
			C105.45,27.74,106.64,28.97,106.62,30.93z M101.68,32.66c0,0.9,0.28,1.25,0.88,1.25c1.33,0,1.54-2.06,1.55-3.11
			c0.01-0.88-0.28-1.25-0.88-1.25C101.9,29.55,101.68,31.6,101.68,32.66z"/>
		<path class="st2" d="M113.54,28.71l-1.05,1.33c-0.53-0.35-1.18-0.55-1.74-0.55c-0.59,0-0.84,0.2-0.84,0.49
			c0,0.32,0.24,0.42,1.41,0.81c1.22,0.41,1.89,1.09,1.89,2.27c0,1.3-0.9,2.65-3.42,2.65c-1.33,0-2.54-0.52-3.19-1.26l1.21-1.27
			c0.49,0.43,1.15,0.78,2,0.78c0.6,0,0.98-0.22,0.98-0.6c0-0.39-0.27-0.52-1.44-0.92c-1.25-0.43-1.88-1.08-1.88-2.21
			c0-1.34,1.16-2.48,3.26-2.48C111.87,27.74,112.85,28.13,113.54,28.71z"/>
		<path class="st2" d="M120.21,28.71l-1.05,1.33c-0.53-0.35-1.18-0.55-1.74-0.55c-0.59,0-0.84,0.2-0.84,0.49
			c0,0.32,0.24,0.42,1.41,0.81c1.22,0.41,1.89,1.09,1.89,2.27c0,1.3-0.9,2.65-3.42,2.65c-1.33,0-2.54-0.52-3.19-1.26l1.21-1.27
			c0.49,0.43,1.15,0.78,2,0.78c0.6,0,0.98-0.22,0.98-0.6c0-0.39-0.27-0.52-1.44-0.92c-1.25-0.43-1.88-1.08-1.88-2.21
			c0-1.34,1.16-2.48,3.26-2.48C118.55,27.74,119.53,28.13,120.21,28.71z"/>
		<path class="st2" d="M131.05,30.93c-0.01,2.14-1.05,4.78-4.26,4.78c-2.02,0-3.19-1.19-3.19-3.19c0-2.16,1.05-4.78,4.24-4.78
			C129.87,27.74,131.06,28.97,131.05,30.93z M126.11,32.66c0,0.9,0.28,1.25,0.88,1.25c1.33,0,1.54-2.06,1.55-3.11
			c0.01-0.88-0.28-1.25-0.88-1.25C126.33,29.55,126.11,31.6,126.11,32.66z"/>
		<path class="st2" d="M135.39,27.59l-0.06,0.41h1.72l-0.5,1.71h-1.46l-0.67,4.82c-0.35,2.54-1.83,3.46-3.68,4.08l-0.6-1.78
			c1.08-0.39,1.65-0.9,1.83-2.18l0.67-4.93h-1.04l0.22-1.71h1.05l0.08-0.56c0.2-1.48,1.3-2.63,3.22-2.63c0.94,0,1.68,0.29,2.17,0.63
			l-0.84,1.47c-0.38-0.22-0.8-0.29-1.11-0.29C135.82,26.6,135.49,26.89,135.39,27.59z"/>
		<path class="st2" d="M100.05,45.53l-1.18,1.42c-0.41-0.38-0.8-0.52-1.26-0.52c-1.4,0-1.74,1.71-1.74,2.9
			c0,0.97,0.43,1.25,1.08,1.25c0.49,0,0.87-0.18,1.4-0.5l0.88,1.57c-0.74,0.55-1.58,0.87-2.62,0.87c-2.1,0-3.29-1.27-3.29-3.25
			c0-1.93,1.18-4.72,4.27-4.72C98.59,44.54,99.43,44.89,100.05,45.53z"/>
		<path class="st2" d="M107.22,47.73c-0.01,2.14-1.05,4.78-4.26,4.78c-2.02,0-3.19-1.19-3.19-3.19c0-2.16,1.05-4.78,4.24-4.78
			C106.04,44.54,107.23,45.77,107.22,47.73z M102.27,49.46c0,0.9,0.28,1.25,0.88,1.25c1.33,0,1.54-2.06,1.55-3.11
			c0.01-0.88-0.28-1.25-0.88-1.25C102.5,46.35,102.27,48.4,102.27,49.46z"/>
		<path class="st2" d="M115,46.81l-0.76,5.45h-2.45l0.69-4.85c0.1-0.67-0.07-0.84-0.34-0.84c-0.45,0-0.92,0.64-1.43,1.7l-0.56,3.99
			h-2.45l1.04-7.47h2.13l-0.01,1.27c0.6-0.92,1.54-1.53,2.52-1.53C114.55,44.54,115.2,45.38,115,46.81z"/>
		<path class="st2" d="M119.87,50.32l0.63,1.62c-0.64,0.38-1.5,0.56-2.16,0.56c-1.74,0-2.42-1.01-2.17-2.87l0.45-3.14h-0.95
			l0.22-1.71h1.06l0.46-1.62l2.14-0.25l-0.27,1.88h1.67l-0.48,1.71h-1.42l-0.43,3.14c-0.11,0.71,0.07,0.91,0.45,0.91
			C119.34,50.55,119.59,50.48,119.87,50.32z"/>
		<path class="st2" d="M126.94,44.69l-0.69,2.41c-0.24-0.07-0.42-0.11-0.64-0.11c-0.91,0-1.36,0.88-1.74,1.97l-0.46,3.29h-2.45
			l1.04-7.47h2.13l-0.01,1.36c0.49-0.98,1.33-1.58,2.09-1.58C126.51,44.57,126.72,44.61,126.94,44.69z"/>
		<path class="st2" d="M133.9,47.73c-0.01,2.14-1.05,4.78-4.26,4.78c-2.02,0-3.19-1.19-3.19-3.19c0-2.16,1.05-4.78,4.24-4.78
			C132.72,44.54,133.91,45.77,133.9,47.73z M128.96,49.46c0,0.9,0.28,1.25,0.88,1.25c1.33,0,1.54-2.06,1.55-3.11
			c0.01-0.88-0.28-1.25-0.88-1.25C129.18,46.35,128.96,48.4,128.96,49.46z"/>
		<path class="st2" d="M137.05,50.04c-0.06,0.41,0.07,0.5,0.28,0.5c0.1,0,0.21-0.03,0.32-0.06l0.25,1.74
			c-0.41,0.18-0.98,0.28-1.5,0.28c-1.34,0-2.03-0.8-1.82-2.3l1.18-8.36l2.48-0.25L137.05,50.04z"/>
	</g>
	<g>
		<path class="st9" d="M26.88,274.41l-1.46,10.39h-1.93l0.01-1.06c-0.48,0.71-1.2,1.3-2.21,1.3c-1.58,0-2.34-1.13-2.34-3
			c0-2.03,0.95-4.92,3.63-4.92c0.69,0,1.26,0.29,1.64,0.71l0.5-3.66L26.88,274.41z M21.21,282.06c0,1.05,0.35,1.36,0.83,1.36
			c0.62,0,1.13-0.63,1.6-1.37l0.39-2.76c-0.28-0.36-0.57-0.55-1.04-0.55C21.6,278.74,21.21,280.83,21.21,282.06z"/>
		<path class="st9" d="M33.29,284.81h-1.88l0.04-1.11c-0.63,0.81-1.4,1.34-2.35,1.34c-1.39,0-1.96-0.92-1.77-2.35l0.76-5.32h2.17
			l-0.69,4.96c-0.1,0.76,0.08,0.95,0.49,0.95c0.52,0,1.02-0.55,1.43-1.21l0.66-4.71h2.17L33.29,284.81z"/>
		<path class="st9" d="M42.43,280.03c0,2.14-0.98,5.01-3.94,5.01c-0.63,0-1.04-0.1-1.34-0.21l-0.42,2.86l-2.17,0.24l1.47-10.56h1.92
			v0.83c0.76-0.81,1.51-1.06,2.2-1.06C41.66,277.13,42.43,278.18,42.43,280.03z M37.89,279.61l-0.5,3.64
			c0.28,0.11,0.56,0.18,0.94,0.18c1.37,0,1.88-1.96,1.88-3.36c0-1.04-0.39-1.32-0.9-1.32C38.78,278.76,38.31,279.08,37.89,279.61z"
			/>
		<path class="st9" d="M45.56,282.78c-0.04,0.39,0.07,0.52,0.29,0.52c0.11,0,0.25-0.04,0.36-0.08l0.27,1.55
			c-0.41,0.18-0.92,0.28-1.4,0.28c-1.25,0-1.91-0.76-1.7-2.19l1.19-8.45l2.2-0.24L45.56,282.78z"/>
		<path class="st9" d="M49.4,284.81h-2.17l1.04-7.44h2.17L49.4,284.81z M51.01,274.76c-0.1,0.69-0.67,1.2-1.43,1.2
			c-0.77,0-1.23-0.57-1.13-1.3c0.1-0.69,0.69-1.22,1.42-1.22C50.65,273.45,51.11,274.02,51.01,274.76z"/>
		<path class="st9" d="M57.69,278.08l-1.08,1.26c-0.41-0.38-0.81-0.52-1.29-0.52c-1.51,0-1.89,1.83-1.89,3.1
			c0,1.05,0.46,1.37,1.16,1.37c0.53,0,0.92-0.18,1.47-0.52l0.81,1.42c-0.74,0.55-1.57,0.85-2.56,0.85c-2,0-3.17-1.25-3.17-3.21
			c0-1.93,1.13-4.71,4.16-4.71C56.26,277.13,57.08,277.45,57.69,278.08z"/>
		<path class="st9" d="M64.89,277.92l-0.7,4.76c-0.01,0.11-0.03,0.22-0.03,0.31c0,0.35,0.13,0.49,0.39,0.59L63.92,285
			c-0.81-0.07-1.5-0.43-1.72-1.23c-0.5,0.74-1.22,1.27-2.2,1.27c-1.61,0-2.42-1.16-2.42-2.96c0-2.13,1.12-4.96,4.26-4.96
			C62.83,277.13,63.88,277.36,64.89,277.92z M59.83,282.08c0,1.05,0.35,1.34,0.85,1.34c0.52,0,0.98-0.39,1.4-1.04l0.53-3.54
			c-0.29-0.1-0.5-0.14-0.84-0.14C60.33,278.7,59.83,280.63,59.83,282.08z"/>
		<path class="st9" d="M68.26,282.34c-0.1,0.71,0.07,0.94,0.5,0.94c0.27,0,0.55-0.07,0.84-0.24l0.59,1.46
			c-0.63,0.36-1.42,0.55-2.04,0.55c-1.64-0.01-2.31-0.97-2.07-2.7l0.49-3.43h-1.02l0.21-1.54h1.12l0.46-1.65l1.88-0.21l-0.27,1.86
			h1.68l-0.43,1.54h-1.46L68.26,282.34z"/>
		<path class="st9" d="M72.92,282.1c0.06,0.98,0.59,1.32,1.32,1.32c0.63,0,1.2-0.22,1.89-0.69l0.78,1.32c-0.81,0.59-1.81,1-2.96,1
			c-2.17,0-3.24-1.26-3.24-3.15c0-2.02,1.09-4.76,4.22-4.76c1.81,0,2.75,0.91,2.75,2.03C77.68,281.25,75.25,281.88,72.92,282.1z
			 M75.48,279.29c0-0.34-0.17-0.69-0.76-0.69c-1.04,0-1.53,1.09-1.71,2.16C74.87,280.62,75.48,279.92,75.48,279.29z"/>
		<path class="st9" d="M86.2,274.41l-1.46,10.39h-1.93l0.01-1.06c-0.48,0.71-1.2,1.3-2.21,1.3c-1.58,0-2.34-1.13-2.34-3
			c0-2.03,0.95-4.92,3.63-4.92c0.69,0,1.26,0.29,1.64,0.71l0.5-3.66L86.2,274.41z M80.52,282.06c0,1.05,0.35,1.36,0.83,1.36
			c0.62,0,1.13-0.63,1.6-1.37l0.39-2.76c-0.28-0.36-0.57-0.55-1.04-0.55C80.92,278.74,80.52,280.83,80.52,282.06z"/>
		<path class="st9" d="M33.48,298.9c0.06,0.98,0.59,1.32,1.32,1.32c0.63,0,1.2-0.22,1.89-0.69l0.78,1.32c-0.81,0.59-1.81,1-2.96,1
			c-2.17,0-3.24-1.26-3.24-3.15c0-2.02,1.09-4.76,4.22-4.76c1.81,0,2.75,0.91,2.75,2.03C38.25,298.05,35.81,298.68,33.48,298.9z
			 M36.05,296.09c0-0.34-0.17-0.69-0.76-0.69c-1.04,0-1.53,1.09-1.71,2.16C35.43,297.42,36.05,296.72,36.05,296.09z"/>
		<path class="st9" d="M42.29,293.62l-0.07,0.55h1.72l-0.45,1.54H42l-0.71,5.08c-0.34,2.42-1.67,3.28-3.46,3.92l-0.55-1.6
			c1.05-0.41,1.64-0.88,1.82-2.24l0.73-5.17h-1.11l0.21-1.54h1.11l0.1-0.69c0.2-1.43,1.25-2.51,3.05-2.51c0.9,0,1.57,0.28,2.07,0.62
			l-0.77,1.33c-0.38-0.25-0.8-0.31-1.12-0.31C42.72,292.61,42.39,292.91,42.29,293.62z"/>
		<path class="st9" d="M47.13,293.62l-0.07,0.55h1.72l-0.45,1.54h-1.5l-0.71,5.08c-0.34,2.42-1.67,3.28-3.46,3.92l-0.55-1.6
			c1.05-0.41,1.64-0.88,1.82-2.24l0.73-5.17h-1.11l0.21-1.54h1.11l0.1-0.69c0.2-1.43,1.25-2.51,3.05-2.51c0.9,0,1.57,0.28,2.07,0.62
			l-0.77,1.33c-0.38-0.25-0.8-0.31-1.12-0.31C47.57,292.61,47.23,292.91,47.13,293.62z"/>
		<path class="st9" d="M55.59,297.1c-0.01,2.04-1.02,4.75-4.15,4.75c-1.98,0-3.11-1.19-3.11-3.17c0-2.07,1.01-4.75,4.15-4.75
			C54.46,293.93,55.61,295.15,55.59,297.1z M50.56,298.82c0,0.98,0.35,1.4,1.04,1.4c1.46,0,1.75-2.13,1.75-3.26
			c0.01-0.98-0.34-1.4-1.02-1.4C50.86,295.56,50.56,297.69,50.56,298.82z"/>
		<path class="st9" d="M62.06,294.07l-0.63,2.13c-0.22-0.06-0.39-0.1-0.62-0.1c-0.92,0-1.43,0.88-1.83,2.06l-0.49,3.45h-2.17
			l1.04-7.44h1.89l-0.03,1.39c0.5-1.02,1.33-1.6,2.1-1.6C61.61,293.96,61.82,294,62.06,294.07z"/>
		<path class="st9" d="M64.87,299.14c-0.1,0.71,0.07,0.94,0.5,0.94c0.27,0,0.55-0.07,0.84-0.24l0.59,1.46
			c-0.63,0.36-1.42,0.55-2.04,0.55c-1.64-0.01-2.31-0.97-2.07-2.7l0.49-3.43h-1.02l0.21-1.54h1.12l0.46-1.65l1.88-0.21l-0.27,1.86
			h1.68l-0.43,1.54h-1.46L64.87,299.14z"/>
		<path class="st9" d="M73.61,294.88l-0.97,1.19c-0.53-0.36-1.16-0.56-1.75-0.56c-0.66,0-0.98,0.24-0.98,0.6
			c0,0.39,0.29,0.52,1.43,0.88c1.26,0.41,1.93,1.09,1.93,2.25c0,1.39-1.04,2.59-3.33,2.59c-1.33,0-2.45-0.52-3.1-1.22l1.11-1.15
			c0.49,0.43,1.16,0.78,2,0.78c0.77,0,1.15-0.34,1.15-0.74c0-0.49-0.29-0.63-1.47-1.04c-1.27-0.43-1.89-1.05-1.89-2.16
			c0-1.27,1.09-2.39,3.14-2.39C72,293.93,72.94,294.31,73.61,294.88z"/>
	</g>
	<g>
		<path class="st9" d="M237.21,216.82c-0.01,2.05-1.02,4.75-4.15,4.75c-1.98,0-3.11-1.19-3.11-3.17c0-2.07,1.01-4.75,4.15-4.75
			C236.08,213.66,237.23,214.88,237.21,216.82z M232.19,218.54c0,0.98,0.35,1.4,1.04,1.4c1.46,0,1.75-2.13,1.75-3.26
			c0.01-0.98-0.34-1.4-1.02-1.4C232.48,215.28,232.19,217.41,232.19,218.54z"/>
		<path class="st9" d="M244.1,221.33h-1.88l0.04-1.11c-0.63,0.81-1.4,1.34-2.35,1.34c-1.39,0-1.96-0.92-1.77-2.35l0.76-5.32h2.17
			l-0.69,4.96c-0.1,0.76,0.08,0.95,0.49,0.95c0.52,0,1.02-0.55,1.43-1.21l0.66-4.71h2.17L244.1,221.33z"/>
		<path class="st9" d="M248.51,218.87c-0.1,0.71,0.07,0.94,0.5,0.94c0.27,0,0.55-0.07,0.84-0.24l0.59,1.46
			c-0.63,0.36-1.42,0.55-2.04,0.55c-1.64-0.01-2.31-0.97-2.07-2.7l0.49-3.43h-1.02l0.21-1.54h1.12l0.46-1.65l1.88-0.21l-0.27,1.86
			h1.68l-0.43,1.54h-1.46L248.51,218.87z"/>
		<path class="st9" d="M258.96,210.94l-1.46,10.39h-1.93l0.01-1.06c-0.48,0.71-1.2,1.3-2.21,1.3c-1.58,0-2.34-1.13-2.34-3
			c0-2.03,0.95-4.92,3.63-4.92c0.69,0,1.26,0.29,1.64,0.71l0.5-3.66L258.96,210.94z M253.28,218.59c0,1.05,0.35,1.36,0.83,1.36
			c0.62,0,1.13-0.63,1.6-1.37l0.39-2.76c-0.28-0.36-0.57-0.55-1.04-0.55C253.68,215.27,253.28,217.35,253.28,218.59z"/>
		<path class="st9" d="M266.54,214.44l-0.7,4.76c-0.01,0.11-0.03,0.22-0.03,0.31c0,0.35,0.13,0.49,0.39,0.59l-0.63,1.43
			c-0.81-0.07-1.5-0.43-1.72-1.23c-0.5,0.74-1.22,1.27-2.2,1.27c-1.61,0-2.42-1.16-2.42-2.96c0-2.13,1.12-4.96,4.26-4.96
			C264.49,213.66,265.54,213.88,266.54,214.44z M261.49,218.6c0,1.05,0.35,1.34,0.85,1.34c0.52,0,0.98-0.39,1.4-1.04l0.53-3.54
			c-0.29-0.1-0.5-0.14-0.84-0.14C261.99,215.22,261.49,217.16,261.49,218.6z"/>
		<path class="st9" d="M269.92,218.87c-0.1,0.71,0.07,0.94,0.5,0.94c0.27,0,0.55-0.07,0.84-0.24l0.59,1.46
			c-0.63,0.36-1.42,0.55-2.04,0.55c-1.64-0.01-2.31-0.97-2.07-2.7l0.49-3.43h-1.02l0.21-1.54h1.12l0.46-1.65l1.88-0.21l-0.27,1.86
			h1.68l-0.43,1.54h-1.46L269.92,218.87z"/>
		<path class="st9" d="M274.58,218.63c0.06,0.98,0.59,1.32,1.32,1.32c0.63,0,1.2-0.22,1.89-0.69l0.78,1.32c-0.81,0.59-1.81,1-2.96,1
			c-2.17,0-3.24-1.26-3.24-3.15c0-2.02,1.09-4.76,4.22-4.76c1.81,0,2.75,0.91,2.75,2.03C279.34,217.77,276.9,218.4,274.58,218.63z
			 M277.14,215.81c0-0.34-0.17-0.69-0.76-0.69c-1.04,0-1.53,1.09-1.71,2.16C276.52,217.14,277.14,216.44,277.14,215.81z"/>
		<path class="st9" d="M287.85,210.94l-1.46,10.39h-1.93l0.01-1.06c-0.48,0.71-1.2,1.3-2.21,1.3c-1.58,0-2.34-1.13-2.34-3
			c0-2.03,0.95-4.92,3.63-4.92c0.69,0,1.26,0.29,1.64,0.71l0.5-3.66L287.85,210.94z M282.18,218.59c0,1.05,0.35,1.36,0.83,1.36
			c0.62,0,1.13-0.63,1.6-1.37l0.39-2.76c-0.28-0.36-0.57-0.55-1.04-0.55C282.57,215.27,282.18,217.35,282.18,218.59z"/>
		<path class="st9" d="M298.8,213.54c0,1.06-0.71,1.81-2.21,2.73l1.61,1.78c0.34-0.55,0.64-1.16,0.9-1.83l1.75,0.59
			c-0.48,0.94-1.01,1.74-1.58,2.42l1.36,1.44l-1.82,0.9l-0.94-1.06c-0.98,0.76-2.02,1.06-3.18,1.06c-1.88,0-3.01-1.08-3.01-2.54
			c0-1.22,0.57-2.05,2.19-2.98c-0.7-0.8-1.01-1.37-1.01-2.16c0-1.12,0.8-2.51,3.17-2.51C297.75,211.39,298.8,212.31,298.8,213.54z
			 M293.97,218.87c0,0.66,0.41,1.13,1.22,1.13c0.63,0,1.16-0.22,1.67-0.57l-1.92-2.13C294.15,217.84,293.97,218.32,293.97,218.87z
			 M294.91,213.85c0,0.43,0.18,0.79,0.59,1.26c0.87-0.55,1.25-1.02,1.25-1.57c0-0.43-0.34-0.74-0.81-0.74
			C295.3,212.8,294.91,213.21,294.91,213.85z"/>
		<path class="st9" d="M233.16,238.13h-2.17l1.04-7.44h2.17L233.16,238.13z M234.77,228.09c-0.1,0.69-0.67,1.2-1.43,1.2
			c-0.77,0-1.23-0.57-1.13-1.3c0.1-0.69,0.69-1.22,1.42-1.22C234.41,226.77,234.87,227.35,234.77,228.09z"/>
		<path class="st9" d="M241.93,232.75l-0.74,5.38H239l0.7-4.92c0.1-0.76-0.11-0.95-0.43-0.95c-0.56,0-1.12,0.73-1.65,1.78
			l-0.57,4.09h-2.17l1.04-7.44h1.89l-0.04,1.3c0.63-0.92,1.54-1.54,2.54-1.54C241.48,230.46,242.14,231.31,241.93,232.75z"/>
		<path class="st9" d="M249.4,231.41l-1.08,1.26c-0.41-0.38-0.81-0.52-1.29-0.52c-1.51,0-1.89,1.83-1.89,3.1
			c0,1.05,0.46,1.37,1.16,1.37c0.53,0,0.92-0.18,1.47-0.52l0.81,1.42c-0.74,0.55-1.57,0.85-2.56,0.85c-2,0-3.17-1.25-3.17-3.21
			c0-1.93,1.13-4.71,4.16-4.71C247.97,230.46,248.79,230.78,249.4,231.41z"/>
		<path class="st9" d="M256.57,233.62c-0.01,2.04-1.02,4.75-4.15,4.75c-1.98,0-3.11-1.19-3.11-3.17c0-2.07,1.01-4.75,4.15-4.75
			C255.43,230.46,256.58,231.67,256.57,233.62z M251.54,235.34c0,0.98,0.35,1.4,1.04,1.4c1.46,0,1.75-2.13,1.75-3.26
			c0.01-0.98-0.34-1.4-1.02-1.4C251.83,232.08,251.54,234.21,251.54,235.34z"/>
		<path class="st9" d="M268.05,232.72l-0.76,5.41h-2.17l0.7-4.92c0.11-0.78-0.11-0.95-0.42-0.95c-0.49,0-0.99,0.7-1.44,1.68
			l-0.59,4.19h-2.17l0.7-4.92c0.11-0.78-0.13-0.95-0.43-0.95c-0.48,0-1.01,0.71-1.43,1.75l-0.57,4.12h-2.17l1.04-7.44h1.89
			l-0.04,1.21c0.6-0.9,1.4-1.44,2.33-1.44c0.87,0,1.49,0.48,1.64,1.37c0.59-0.85,1.43-1.37,2.3-1.37
			C267.59,230.46,268.25,231.31,268.05,232.72z"/>
		<path class="st9" d="M276.37,233.36c0,2.14-0.98,5.01-3.94,5.01c-0.63,0-1.04-0.1-1.34-0.21l-0.42,2.86l-2.17,0.24l1.47-10.56
			h1.92v0.83c0.76-0.81,1.51-1.06,2.2-1.06C275.59,230.46,276.37,231.51,276.37,233.36z M271.83,232.93l-0.5,3.64
			c0.28,0.11,0.56,0.18,0.94,0.18c1.37,0,1.88-1.96,1.88-3.36c0-1.04-0.39-1.32-0.9-1.32C272.71,232.08,272.25,232.4,271.83,232.93z
			"/>
		<path class="st9" d="M279.5,236.1c-0.04,0.39,0.07,0.52,0.29,0.52c0.11,0,0.25-0.04,0.36-0.08l0.27,1.55
			c-0.41,0.18-0.92,0.28-1.4,0.28c-1.25,0-1.91-0.76-1.7-2.19l1.19-8.45l2.2-0.24L279.5,236.1z"/>
		<path class="st9" d="M283.26,235.43c0.06,0.98,0.59,1.32,1.32,1.32c0.63,0,1.2-0.22,1.89-0.69l0.78,1.32c-0.81,0.59-1.81,1-2.96,1
			c-2.17,0-3.24-1.26-3.24-3.15c0-2.02,1.09-4.76,4.22-4.76c1.81,0,2.75,0.91,2.75,2.03C288.03,234.57,285.59,235.2,283.26,235.43z
			 M285.83,232.61c0-0.34-0.17-0.69-0.76-0.69c-1.04,0-1.53,1.09-1.71,2.16C285.21,233.94,285.83,233.24,285.83,232.61z"/>
		<path class="st9" d="M291.22,235.67c-0.1,0.71,0.07,0.94,0.5,0.94c0.27,0,0.55-0.07,0.84-0.24l0.59,1.46
			c-0.63,0.36-1.42,0.55-2.04,0.55c-1.64-0.01-2.31-0.97-2.07-2.7l0.49-3.43h-1.02l0.21-1.54h1.12l0.46-1.65l1.88-0.21l-0.27,1.86
			h1.68l-0.43,1.54h-1.46L291.22,235.67z"/>
		<path class="st9" d="M295.88,235.43c0.06,0.98,0.59,1.32,1.32,1.32c0.63,0,1.2-0.22,1.89-0.69l0.78,1.32c-0.81,0.59-1.81,1-2.96,1
			c-2.17,0-3.24-1.26-3.24-3.15c0-2.02,1.09-4.76,4.22-4.76c1.81,0,2.75,0.91,2.75,2.03C300.64,234.57,298.2,235.2,295.88,235.43z
			 M298.44,232.61c0-0.34-0.17-0.69-0.76-0.69c-1.04,0-1.53,1.09-1.71,2.16C297.83,233.94,298.44,233.24,298.44,232.61z"/>
	</g>
</g>
<g id="Grid" class="st3">
	<g class="st5">
		<rect class="st14" width="640" height="320"/>
		<line class="st14" x1="533.33" y1="0" x2="533.33" y2="320"/>
		<line class="st14" x1="426.67" y1="0" x2="426.67" y2="320"/>
		<line class="st14" x1="320" y1="0" x2="320" y2="320"/>
		<line class="st14" x1="213.33" y1="0" x2="213.33" y2="320"/>
		<line class="st14" x1="106.67" y1="0" x2="106.67" y2="320"/>
	</g>
	<g class="st5">
		<rect class="st15" width="640" height="320"/>
		<line class="st15" x1="0" y1="256" x2="640" y2="256"/>
		<line class="st15" x1="0" y1="192" x2="640" y2="192"/>
		<line class="st15" x1="0" y1="128" x2="640" y2="128"/>
		<line class="st15" x1="0" y1="64" x2="640" y2="64"/>
	</g>
	<circle class="st4" cx="480" cy="169.55" r="59.5"/>
	<polygon class="st4" points="503.55,103.12 502.08,141.28 539.43,133.31 513.78,161.59 547.5,179.5 509.67,184.67 524,220.07 
		491.69,199.72 479.92,236.04 468.25,199.68 435.88,219.94 450.31,184.59 412.5,179.3 446.28,161.49 420.71,133.14 458.03,141.21 
		456.67,103.05 480.07,133.22 	"/>
</g>
</svg>
