<?xml version="1.0" encoding="utf-8"?>
<!DOCTYPE svg PUBLIC "-//W3C//DTD SVG 1.1//EN" "http://www.w3.org/Graphics/SVG/1.1/DTD/svg11.dtd">
<svg version="1.1" xmlns="http://www.w3.org/2000/svg" width="640" height="120">
<g opacity="0.5">
		<line fill="none" stroke="#3D2C70" stroke-width="2" stroke-linecap="round" stroke-miterlimit="10" x1="5.65" y1="59" x2="634.35" y2="59"/>
		<polygon fill="#3D2C70" points="17.47,65.36 18.16,63.48 5.85,59 18.16,54.52 17.47,52.64 0,59"/>
		<polygon fill="#3D2C70" points="622.53,65.36 621.84,63.48 634.15,59 621.84,54.52 622.53,52.64 640,59"/>
</g>
<circle fill="#3D2C70" cx="574.5" cy="59" r="3.5"/>
<g>
	<path fill="#3D2C70" d="M532.39,9.72c0,2.55-1.47,4.23-3.9,4.23c-2.42,0-3.9-1.56-3.9-4.24c0-2.55,1.47-4.23,3.9-4.23
		S532.39,7.04,532.39,9.72z M527.05,9.71c0,1.77,0.48,2.5,1.44,2.5s1.44-0.77,1.44-2.49c0-1.77-0.48-2.5-1.44-2.5
		S527.05,7.98,527.05,9.71z"/>
	<path fill="#3D2C70" d="M540.67,7.88v5.82h-2.37V8.28c0-0.84-0.28-1.06-0.75-1.06c-0.52,0-0.96,0.37-1.38,1.03v5.44h-2.37V5.73
		h2.07l0.17,0.95c0.67-0.78,1.44-1.2,2.43-1.2C539.84,5.48,540.67,6.36,540.67,7.88z"/>
	<path fill="#3D2C70" d="M549.36,10.41h-4.92c0.15,1.42,0.82,1.81,1.8,1.81c0.65,0,1.21-0.23,1.91-0.71l0.97,1.32
		c-0.79,0.63-1.81,1.11-3.11,1.11c-2.65,0-4-1.71-4-4.2c0-2.38,1.3-4.27,3.72-4.27c2.28,0,3.68,1.5,3.68,4.08
		C549.4,9.81,549.38,10.17,549.36,10.41z M547.08,8.88c-0.01-1.08-0.34-1.83-1.29-1.83c-0.79,0-1.25,0.49-1.37,1.93h2.66V8.88z"/>
	<path fill="#3D2C70" d="M561.46,2.57V13.7h-2.1l-0.12-0.93c-0.45,0.66-1.19,1.19-2.27,1.19c-2.02,0-3.03-1.68-3.03-4.26
		c0-2.46,1.24-4.21,3.3-4.21c0.72,0,1.36,0.29,1.84,0.75V2.31L561.46,2.57z M559.09,11.33V7.88c-0.36-0.42-0.72-0.67-1.23-0.67
		c-0.85,0-1.46,0.72-1.46,2.5c0,1.98,0.54,2.5,1.32,2.5C558.28,12.21,558.71,11.91,559.09,11.33z"/>
	<path fill="#3D2C70" d="M570.19,12.36l-0.49,1.54c-0.93-0.08-1.54-0.36-1.92-1.14c-0.57,0.87-1.46,1.19-2.4,1.19
		c-1.59,0-2.59-1.03-2.59-2.49c0-1.74,1.32-2.69,3.74-2.69h0.81V8.43c0-0.95-0.38-1.23-1.35-1.23c-0.51,0-1.29,0.15-2.08,0.42
		l-0.54-1.56c1.01-0.38,2.1-0.58,3-0.58c2.31,0,3.3,0.98,3.3,2.82v3.09C569.65,12,569.81,12.23,570.19,12.36z M567.32,11.51v-1.42
		h-0.58c-1.08,0-1.61,0.38-1.61,1.17c0,0.63,0.35,1,0.93,1C566.61,12.26,567.04,11.97,567.32,11.51z"/>
	<path fill="#3D2C70" d="M576.54,13.32c-0.6,0.42-1.44,0.63-2.16,0.63c-1.76-0.01-2.61-1-2.61-2.88V7.38h-1.12V5.73h1.12V4.01
		l2.37-0.27v1.99h1.83l-0.26,1.65h-1.57v3.66c0,0.76,0.25,1.03,0.75,1.03c0.27,0,0.54-0.07,0.86-0.27L576.54,13.32z"/>
	<path fill="#3D2C70" d="M584.2,12.36l-0.5,1.54c-0.93-0.08-1.54-0.36-1.92-1.14c-0.57,0.87-1.46,1.19-2.4,1.19
		c-1.59,0-2.6-1.03-2.6-2.49c0-1.74,1.32-2.69,3.74-2.69h0.81V8.43c0-0.95-0.38-1.23-1.35-1.23c-0.51,0-1.29,0.15-2.08,0.42
		l-0.54-1.56c1-0.38,2.1-0.58,3-0.58c2.31,0,3.3,0.98,3.3,2.82v3.09C583.66,12,583.82,12.23,584.2,12.36z M581.33,11.51v-1.42h-0.58
		c-1.08,0-1.6,0.38-1.6,1.17c0,0.63,0.34,1,0.93,1C580.61,12.26,581.05,11.97,581.33,11.51z"/>
	<path fill="#3D2C70" d="M596.57,9.69c0,2.46-1.2,4.26-3.17,4.26c-0.78,0-1.44-0.27-1.93-0.84v3.66l-2.37,0.26V5.73h2.08l0.12,0.89
		c0.66-0.83,1.52-1.14,2.25-1.14C595.66,5.48,596.57,7.11,596.57,9.69z M594.11,9.72c0-1.98-0.48-2.5-1.31-2.5
		c-0.51,0-0.99,0.34-1.33,0.93v3.36c0.33,0.48,0.72,0.71,1.21,0.71C593.57,12.21,594.11,11.51,594.11,9.72z"/>
	<path fill="#3D2C70" d="M605.41,9.72c0,2.55-1.47,4.23-3.9,4.23c-2.42,0-3.9-1.56-3.9-4.24c0-2.55,1.47-4.23,3.9-4.23
		C603.94,5.48,605.41,7.04,605.41,9.72z M600.07,9.71c0,1.77,0.48,2.5,1.44,2.5c0.96,0,1.44-0.77,1.44-2.49
		c0-1.77-0.48-2.5-1.44-2.5C600.55,7.22,600.07,7.98,600.07,9.71z"/>
	<path fill="#3D2C70" d="M613.96,2.57V13.7h-2.1l-0.12-0.93c-0.45,0.66-1.18,1.19-2.26,1.19c-2.03,0-3.03-1.68-3.03-4.26
		c0-2.46,1.25-4.21,3.3-4.21c0.72,0,1.37,0.29,1.84,0.75V2.31L613.96,2.57z M611.59,11.33V7.88c-0.36-0.42-0.72-0.67-1.23-0.67
		c-0.86,0-1.46,0.72-1.46,2.5c0,1.98,0.54,2.5,1.32,2.5C610.78,12.21,611.21,11.91,611.59,11.33z"/>
	<path fill="#3D2C70" d="M504.78,23.12v0.61h1.88l-0.25,1.65h-1.62v6.31h-2.37v-6.31h-1.2v-1.65h1.2v-0.7c0-1.53,1-2.72,3.04-2.72
		c0.82,0,1.59,0.21,2.17,0.51l-0.64,1.54c-0.45-0.23-0.9-0.3-1.25-0.3C505.04,22.07,504.78,22.37,504.78,23.12z"/>
	<path fill="#3D2C70" d="M514.63,27.72c0,2.55-1.47,4.23-3.9,4.23c-2.42,0-3.9-1.56-3.9-4.24c0-2.55,1.47-4.23,3.9-4.23
		S514.63,25.04,514.63,27.72z M509.29,27.71c0,1.77,0.48,2.5,1.44,2.5s1.44-0.77,1.44-2.49c0-1.77-0.48-2.5-1.44-2.5
		S509.29,25.98,509.29,27.71z"/>
	<path fill="#3D2C70" d="M521.16,23.61l-0.38,2.29c-0.25-0.06-0.45-0.1-0.72-0.1c-0.98,0-1.4,0.72-1.65,1.92v3.97h-2.37v-7.96h2.07
		l0.19,1.53c0.36-1.1,1.14-1.75,2.06-1.75C520.66,23.51,520.9,23.54,521.16,23.61z"/>
	<path fill="#3D2C70" d="M536.5,25.88v5.82h-2.37v-5.41c0-0.84-0.32-1.06-0.67-1.06c-0.51,0-0.87,0.37-1.21,1.03v5.44h-2.37v-5.41
		c0-0.84-0.32-1.06-0.67-1.06c-0.5,0-0.87,0.37-1.21,1.03v5.44h-2.37v-7.96h2.07l0.17,0.93c0.61-0.78,1.33-1.19,2.31-1.19
		c0.89,0,1.56,0.45,1.88,1.26c0.63-0.82,1.37-1.26,2.38-1.26C535.64,23.48,536.5,24.36,536.5,25.88z"/>
	<path fill="#3D2C70" d="M540.87,20.88c0,0.76-0.59,1.35-1.41,1.35c-0.83,0-1.39-0.58-1.39-1.35c0-0.77,0.57-1.35,1.39-1.35
		C540.28,19.53,540.87,20.12,540.87,20.88z M540.65,31.7h-2.37v-7.96h2.37V31.7z"/>
	<path fill="#3D2C70" d="M542.44,29.67v-9.1l2.37-0.26v9.27c0,0.33,0.12,0.49,0.4,0.49c0.17,0,0.29-0.03,0.39-0.07l0.46,1.68
		c-0.36,0.15-0.87,0.27-1.44,0.27C543.25,31.95,542.44,31.13,542.44,29.67z"/>
	<path fill="#3D2C70" d="M546.89,29.67v-9.1l2.37-0.26v9.27c0,0.33,0.12,0.49,0.4,0.49c0.17,0,0.29-0.03,0.39-0.07l0.46,1.68
		c-0.36,0.15-0.87,0.27-1.44,0.27C547.71,31.95,546.89,31.13,546.89,29.67z"/>
	<path fill="#3D2C70" d="M554,20.88c0,0.76-0.58,1.35-1.41,1.35c-0.83,0-1.4-0.58-1.4-1.35c0-0.77,0.57-1.35,1.4-1.35
		C553.42,19.53,554,20.12,554,20.88z M553.79,31.7h-2.37v-7.96h2.37V31.7z"/>
	<path fill="#3D2C70" d="M563,27.72c0,2.55-1.47,4.23-3.9,4.23c-2.42,0-3.9-1.56-3.9-4.24c0-2.55,1.47-4.23,3.9-4.23
		C561.54,23.48,563,25.04,563,27.72z M557.67,27.71c0,1.77,0.48,2.5,1.44,2.5c0.96,0,1.44-0.77,1.44-2.49c0-1.77-0.48-2.5-1.44-2.5
		C558.14,25.22,557.67,25.98,557.67,27.71z"/>
	<path fill="#3D2C70" d="M571.29,25.88v5.82h-2.37v-5.41c0-0.84-0.28-1.06-0.75-1.06c-0.52,0-0.96,0.37-1.38,1.03v5.44h-2.37v-7.96
		h2.07l0.17,0.95c0.67-0.78,1.44-1.2,2.43-1.2C570.46,23.48,571.29,24.36,571.29,25.88z"/>
	<path fill="#3D2C70" d="M578.8,24.45l-0.87,1.33c-0.62-0.39-1.28-0.62-1.96-0.62c-0.65,0-0.96,0.24-0.96,0.6
		c0,0.42,0.21,0.6,1.64,1.02c1.58,0.45,2.46,1.11,2.46,2.53c0,1.65-1.56,2.62-3.54,2.62c-1.38,0-2.55-0.48-3.33-1.19l1.16-1.29
		c0.6,0.46,1.33,0.78,2.12,0.78c0.72,0,1.15-0.27,1.15-0.75c0-0.54-0.24-0.71-1.68-1.11c-1.58-0.45-2.36-1.26-2.36-2.49
		c0-1.37,1.25-2.43,3.26-2.43C577.03,23.48,578.06,23.85,578.8,24.45z"/>
	<path fill="#3D2C70" d="M591.22,27.72c0,2.55-1.47,4.23-3.9,4.23c-2.42,0-3.9-1.56-3.9-4.24c0-2.55,1.47-4.23,3.9-4.23
		C589.75,23.48,591.22,25.04,591.22,27.72z M585.88,27.71c0,1.77,0.48,2.5,1.44,2.5s1.44-0.77,1.44-2.49c0-1.77-0.48-2.5-1.44-2.5
		S585.88,25.98,585.88,27.71z"/>
	<path fill="#3D2C70" d="M595.31,23.12v0.61h1.88l-0.25,1.65h-1.62v6.31h-2.37v-6.31h-1.2v-1.65h1.2v-0.7c0-1.53,1-2.72,3.04-2.72
		c0.82,0,1.59,0.21,2.17,0.51l-0.64,1.54c-0.45-0.23-0.9-0.3-1.25-0.3C595.58,22.07,595.31,22.37,595.31,23.12z"/>
	<path fill="#3D2C70" d="M608.24,31.7h-2.05l-0.11-1c-0.58,0.84-1.37,1.26-2.42,1.26c-1.49,0-2.22-0.96-2.22-2.5v-5.71h2.37v5.42
		c0,0.81,0.27,1.05,0.76,1.05s0.95-0.33,1.29-0.93v-5.54h2.37V31.7z"/>
	<path fill="#3D2C70" d="M615.83,24.45l-0.87,1.33c-0.61-0.39-1.27-0.62-1.96-0.62c-0.65,0-0.96,0.24-0.96,0.6
		c0,0.42,0.21,0.6,1.63,1.02c1.58,0.45,2.46,1.11,2.46,2.53c0,1.65-1.56,2.62-3.54,2.62c-1.38,0-2.55-0.48-3.33-1.19l1.16-1.29
		c0.6,0.46,1.33,0.78,2.11,0.78c0.72,0,1.16-0.27,1.16-0.75c0-0.54-0.24-0.71-1.68-1.11c-1.58-0.45-2.36-1.26-2.36-2.49
		c0-1.37,1.25-2.43,3.25-2.43C614.06,23.48,615.1,23.85,615.83,24.45z"/>
	<path fill="#3D2C70" d="M624.25,28.41h-4.92c0.15,1.42,0.83,1.81,1.8,1.81c0.64,0,1.21-0.23,1.9-0.71l0.98,1.32
		c-0.79,0.63-1.82,1.11-3.1,1.11c-2.66,0-4.01-1.71-4.01-4.2c0-2.38,1.31-4.27,3.72-4.27c2.28,0,3.67,1.5,3.67,4.08
		C624.29,27.81,624.28,28.17,624.25,28.41z M621.97,26.88c-0.02-1.08-0.35-1.83-1.29-1.83c-0.79,0-1.25,0.49-1.36,1.93h2.65V26.88z"
		/>
	<path fill="#3D2C70" d="M630.77,23.61l-0.38,2.29c-0.25-0.06-0.45-0.1-0.72-0.1c-0.98,0-1.4,0.72-1.65,1.92v3.97h-2.37v-7.96h2.07
		l0.2,1.53c0.36-1.1,1.14-1.75,2.05-1.75C630.28,23.51,630.52,23.54,630.77,23.61z"/>
	<path fill="#3D2C70" d="M637.25,24.45l-0.87,1.33c-0.61-0.39-1.27-0.62-1.96-0.62c-0.64,0-0.96,0.24-0.96,0.6
		c0,0.42,0.21,0.6,1.63,1.02c1.57,0.45,2.46,1.11,2.46,2.53c0,1.65-1.56,2.62-3.54,2.62c-1.38,0-2.55-0.48-3.33-1.19l1.16-1.29
		c0.6,0.46,1.33,0.78,2.11,0.78c0.72,0,1.16-0.27,1.16-0.75c0-0.54-0.24-0.71-1.68-1.11c-1.58-0.45-2.35-1.26-2.35-2.49
		c0-1.37,1.24-2.43,3.25-2.43C635.48,23.48,636.52,23.85,637.25,24.45z"/>
</g>
<g>
	<path fill="#3D2C70" d="M549.77,68.31h-3.87l-0.5,3.52h3.34l-0.15,1.12h-3.35l-0.64,4.54h-1.41l1.46-10.33h5.43L549.77,68.31z"/>
	<path fill="#3D2C70" d="M557.03,70.09l-0.86,5.61c-0.01,0.12-0.03,0.23-0.03,0.31c0,0.44,0.2,0.6,0.51,0.72l-0.39,0.95
		c-0.79-0.1-1.29-0.47-1.39-1.32c-0.62,0.79-1.42,1.32-2.35,1.32c-1.65,0-2.52-1.22-2.52-3.03c0-2.16,1.14-5.23,4.21-5.23
		C555.15,69.42,555.98,69.58,557.03,70.09z M551.46,74.67c0,1.32,0.49,1.92,1.38,1.92c0.84,0,1.45-0.63,2.07-1.46l0.66-4.36
		c-0.45-0.19-0.78-0.25-1.33-0.25C552.23,70.51,551.46,72.9,551.46,74.67z"/>
	<path fill="#3D2C70" d="M564.86,70.29l-0.74,0.85c-0.48-0.42-0.93-0.58-1.54-0.58c-2,0-2.58,2.37-2.58,4c0,1.38,0.6,1.95,1.6,1.95
		c0.69,0,1.2-0.23,1.83-0.62l0.56,0.96c-0.78,0.56-1.6,0.83-2.48,0.83c-1.88,0-2.96-1.2-2.96-3.23c0-2.07,1.08-5.04,4.01-5.04
		C563.45,69.42,564.21,69.67,564.86,70.29z"/>
	<path fill="#3D2C70" d="M566.92,74.56c0.03,1.44,0.71,1.96,1.71,1.96c0.74,0,1.39-0.23,2.12-0.73l0.58,0.93
		c-0.85,0.61-1.79,0.96-2.83,0.96c-1.94,0-3.02-1.22-3.02-3.21c0-2.16,1.07-5.05,4.07-5.05c1.68,0,2.5,0.96,2.5,2.01
		C572.05,73.65,569.69,74.26,566.92,74.56z M570.62,71.47c0-0.38-0.23-0.96-1.08-0.96c-1.65,0-2.34,1.56-2.54,3
		C569.26,73.26,570.62,72.82,570.62,71.47z"/>
	<path fill="#3D2C70" d="M575.76,70.38c0.71-0.62,1.43-0.96,2.29-0.96c1.5,0,2.4,1.11,2.4,3.1c0,2.22-1.11,5.16-4.23,5.16
		c-0.9,0-1.65-0.15-2.79-0.53l1.51-10.74l1.38-0.17L575.76,70.38z M575.58,71.65l-0.64,4.69c0.49,0.18,0.84,0.24,1.39,0.24
		c1.96,0,2.7-2.4,2.7-4.17c0-1.41-0.58-1.9-1.41-1.9S576.15,71.05,575.58,71.65z"/>
	<path fill="#3D2C70" d="M589.11,72.69c0,1.91-0.97,5-4.08,5c-1.96,0-3.03-1.26-3.03-3.27c0-1.95,1-4.99,4.09-4.99
		C588.06,69.42,589.11,70.68,589.11,72.69z M583.44,74.56c0,1.38,0.57,2.01,1.63,2.01c2.05,0,2.6-2.52,2.6-4.03
		c0-1.38-0.57-2.01-1.62-2.01C583.99,70.53,583.44,73.05,583.44,74.56z"/>
	<path fill="#3D2C70" d="M597.78,72.69c0,1.91-0.97,5-4.08,5c-1.96,0-3.03-1.26-3.03-3.27c0-1.95,1-4.99,4.09-4.99
		C596.73,69.42,597.78,70.68,597.78,72.69z M592.11,74.56c0,1.38,0.57,2.01,1.63,2.01c2.05,0,2.6-2.52,2.6-4.03
		c0-1.38-0.57-2.01-1.62-2.01C592.66,70.53,592.11,73.05,592.11,74.56z"/>
	<path fill="#3D2C70" d="M601.69,70.98c0.75-1.06,1.71-1.56,2.7-1.56c1.12,0,1.92,0.75,1.92,1.8c0,1.24-0.79,2.26-2.45,2.79
		l1.79,3.49h-1.53l-1.89-3.85c1.86-0.52,2.62-1.19,2.62-2.28c0-0.56-0.31-0.85-0.86-0.85c-0.84,0-1.89,0.71-2.56,2.25l-0.66,4.74
		h-1.37l1.56-11.08l1.38-0.17L601.69,70.98z"/>
	<path fill="#3D2C70" d="M559.9,86.17l-0.93,0.79c-0.65-0.58-1.2-0.81-2.08-0.81c-2.69,0-3.71,3.15-3.71,5.64
		c0,1.92,0.81,2.72,2.34,2.72c0.66,0,1.33-0.15,1.96-0.53l0.45-3.06h-1.8v-1.16h3.36l-0.67,4.92c-1.01,0.65-2.09,0.99-3.5,0.99
		c-2.22,0-3.63-1.37-3.63-4.06c0-2.97,1.54-6.63,5.17-6.63C558.2,84.99,559.12,85.42,559.9,86.17z"/>
	<path fill="#3D2C70" d="M568.06,90.69c0,1.91-0.98,5-4.08,5c-1.97,0-3.03-1.26-3.03-3.27c0-1.95,1.01-4.99,4.1-4.99
		C567.01,87.42,568.06,88.68,568.06,90.69z M562.39,92.56c0,1.38,0.57,2.01,1.64,2.01c2.05,0,2.59-2.52,2.59-4.03
		c0-1.38-0.57-2.01-1.62-2.01C562.94,88.53,562.39,91.05,562.39,92.56z"/>
	<path fill="#3D2C70" d="M576.73,90.69c0,1.91-0.98,5-4.08,5c-1.97,0-3.03-1.26-3.03-3.27c0-1.95,1.01-4.99,4.1-4.99
		C575.68,87.42,576.73,88.68,576.73,90.69z M571.06,92.56c0,1.38,0.57,2.01,1.64,2.01c2.05,0,2.59-2.52,2.59-4.03
		c0-1.38-0.57-2.01-1.62-2.01C571.61,88.53,571.06,91.05,571.06,92.56z"/>
	<path fill="#3D2C70" d="M585.35,88.09l-1.09,7.23c-0.38,2.55-1.76,3.42-3.62,3.42c-0.95,0-1.98-0.3-2.73-0.76l0.53-1.05
		c0.48,0.29,1.3,0.63,2.13,0.63c1.05,0,2.08-0.31,2.35-2.25l0.14-1.01c-0.58,0.71-1.38,1.2-2.22,1.2c-1.65,0-2.56-1.17-2.56-2.97
		c0-2.35,1.18-5.11,4.26-5.11C583.48,87.42,584.3,87.58,585.35,88.09z M579.74,92.54c0,1.31,0.54,1.86,1.35,1.86
		c0.87,0,1.54-0.66,2.16-1.49l0.65-4.15c-0.45-0.19-0.78-0.25-1.33-0.25C580.55,88.51,579.74,90.62,579.74,92.54z"/>
	<path fill="#3D2C70" d="M588.58,93.96c-0.05,0.42,0.03,0.58,0.36,0.58c0.18,0,0.36-0.04,0.54-0.12l0.28,1
		c-0.4,0.18-0.75,0.26-1.09,0.26c-1.05,0-1.61-0.65-1.43-1.95l1.32-9.31l1.38-0.17L588.58,93.96z"/>
	<path fill="#3D2C70" d="M592.6,92.56c0.03,1.44,0.71,1.96,1.71,1.96c0.74,0,1.4-0.23,2.12-0.73l0.59,0.93
		c-0.86,0.61-1.79,0.96-2.84,0.96c-1.93,0-3.01-1.22-3.01-3.21c0-2.16,1.07-5.05,4.07-5.05c1.68,0,2.5,0.96,2.5,2.01
		C597.73,91.65,595.36,92.26,592.6,92.56z M596.29,89.47c0-0.38-0.22-0.96-1.08-0.96c-1.65,0-2.34,1.56-2.54,3
		C594.94,91.26,596.29,90.82,596.29,89.47z"/>
	<path fill="#3D2C70" d="M559.77,104.38h-2.85l-1.28,9.12h-1.41l1.27-9.12h-2.91l0.18-1.21h7.32L559.77,104.38z"/>
	<path fill="#3D2C70" d="M566.49,113.5h-1.88l-0.42-6.66l-2.36,6.66h-1.81l-0.72-7.9h1.35l0.44,6.94l2.5-6.94h1.54l0.5,6.94
		l2.4-6.94h1.32L566.49,113.5z"/>
	<path fill="#3D2C70" d="M571.32,113.5h-1.37l1.11-7.9h1.37L571.32,113.5z M573.09,102.82c-0.07,0.5-0.46,0.85-1.02,0.85
		c-0.6,0-0.95-0.45-0.87-1c0.08-0.51,0.48-0.87,1.02-0.87C572.83,101.8,573.17,102.25,573.09,102.82z"/>
	<path fill="#3D2C70" d="M575.88,111.42c-0.12,0.79,0.06,1.11,0.71,1.11c0.36,0,0.69-0.12,1.11-0.36l0.45,0.99
		c-0.57,0.36-1.15,0.53-1.79,0.53c-1.36,0-2.05-0.83-1.84-2.29l0.66-4.73h-1.37l0.15-1.06h1.42l0.5-1.83l1.08-0.12l-0.27,1.95h1.86
		l-0.3,1.06h-1.71L575.88,111.42z"/>
	<path fill="#3D2C70" d="M581.21,111.42c-0.12,0.79,0.06,1.11,0.71,1.11c0.36,0,0.69-0.12,1.11-0.36l0.45,0.99
		c-0.57,0.36-1.16,0.53-1.79,0.53c-1.36,0-2.05-0.83-1.84-2.29l0.66-4.73h-1.37l0.15-1.06h1.42l0.5-1.83l1.08-0.12l-0.27,1.95h1.86
		l-0.3,1.06h-1.71L581.21,111.42z"/>
	<path fill="#3D2C70" d="M586,110.56c0.03,1.44,0.71,1.96,1.71,1.96c0.74,0,1.39-0.23,2.12-0.73l0.58,0.93
		c-0.85,0.61-1.79,0.96-2.83,0.96c-1.94,0-3.02-1.22-3.02-3.21c0-2.16,1.07-5.05,4.07-5.05c1.68,0,2.5,0.96,2.5,2.01
		C591.13,109.65,588.77,110.26,586,110.56z M589.7,107.47c0-0.38-0.23-0.96-1.08-0.96c-1.65,0-2.34,1.56-2.54,3
		C588.34,109.26,589.7,108.82,589.7,107.47z"/>
	<path fill="#3D2C70" d="M597.75,105.52l-0.41,1.33c-0.23-0.06-0.39-0.08-0.65-0.08c-1.02,0-1.71,0.93-2.26,2.53l-0.6,4.19h-1.36
		l1.11-7.9h1.17l-0.09,1.62c0.6-1.23,1.42-1.8,2.29-1.8C597.24,105.42,597.51,105.46,597.75,105.52z"/>
</g>
<circle fill="#3D2C70" cx="383.5" cy="59" r="3.5"/>
<g>
	<path fill="#3D2C70" d="M346.39,9.72c0,2.55-1.47,4.23-3.9,4.23c-2.42,0-3.9-1.56-3.9-4.24c0-2.55,1.47-4.23,3.9-4.23
		C344.92,5.48,346.39,7.04,346.39,9.72z M341.05,9.71c0,1.77,0.48,2.5,1.44,2.5s1.44-0.77,1.44-2.49c0-1.77-0.48-2.5-1.44-2.5
		S341.05,7.98,341.05,9.71z"/>
	<path fill="#3D2C70" d="M354.67,7.88v5.82h-2.37V8.28c0-0.84-0.29-1.06-0.75-1.06c-0.53,0-0.96,0.37-1.38,1.03v5.44h-2.37V5.73
		h2.07l0.17,0.95c0.67-0.78,1.44-1.2,2.43-1.2C353.84,5.48,354.67,6.36,354.67,7.88z"/>
	<path fill="#3D2C70" d="M363.35,10.41h-4.92c0.15,1.42,0.83,1.81,1.8,1.81c0.64,0,1.21-0.23,1.9-0.71l0.98,1.32
		c-0.79,0.63-1.82,1.11-3.1,1.11c-2.66,0-4.01-1.71-4.01-4.2c0-2.38,1.31-4.27,3.72-4.27c2.28,0,3.67,1.5,3.67,4.08
		C363.4,9.81,363.38,10.17,363.35,10.41z M361.07,8.88c-0.02-1.08-0.35-1.83-1.29-1.83c-0.79,0-1.25,0.49-1.36,1.93h2.65V8.88z"/>
	<path fill="#3D2C70" d="M375.46,2.57V13.7h-2.1l-0.12-0.93c-0.45,0.66-1.18,1.19-2.26,1.19c-2.03,0-3.03-1.68-3.03-4.26
		c0-2.46,1.25-4.21,3.3-4.21c0.72,0,1.37,0.29,1.84,0.75V2.31L375.46,2.57z M373.09,11.33V7.88c-0.36-0.42-0.72-0.67-1.23-0.67
		c-0.86,0-1.46,0.72-1.46,2.5c0,1.98,0.54,2.5,1.32,2.5C372.28,12.21,372.71,11.91,373.09,11.33z"/>
	<path fill="#3D2C70" d="M384.19,12.36l-0.5,1.54c-0.93-0.08-1.54-0.36-1.92-1.14c-0.57,0.87-1.46,1.19-2.4,1.19
		c-1.59,0-2.59-1.03-2.59-2.49c0-1.74,1.32-2.69,3.73-2.69h0.81V8.43c0-0.95-0.38-1.23-1.35-1.23c-0.51,0-1.29,0.15-2.09,0.42
		l-0.54-1.56c1-0.38,2.1-0.58,3-0.58c2.31,0,3.3,0.98,3.3,2.82v3.09C383.65,12,383.81,12.23,384.19,12.36z M381.32,11.51v-1.42
		h-0.59c-1.08,0-1.6,0.38-1.6,1.17c0,0.63,0.34,1,0.93,1C380.6,12.26,381.04,11.97,381.32,11.51z"/>
	<path fill="#3D2C70" d="M390.53,13.32c-0.6,0.42-1.44,0.63-2.16,0.63c-1.75-0.01-2.61-1-2.61-2.88V7.38h-1.12V5.73h1.12V4.01
		l2.37-0.27v1.99h1.83l-0.25,1.65h-1.58v3.66c0,0.76,0.25,1.03,0.75,1.03c0.27,0,0.54-0.07,0.85-0.27L390.53,13.32z"/>
	<path fill="#3D2C70" d="M398.2,12.36l-0.5,1.54c-0.93-0.08-1.54-0.36-1.92-1.14c-0.57,0.87-1.46,1.19-2.4,1.19
		c-1.59,0-2.59-1.03-2.59-2.49c0-1.74,1.32-2.69,3.73-2.69h0.81V8.43c0-0.95-0.37-1.23-1.35-1.23c-0.51,0-1.29,0.15-2.08,0.42
		l-0.54-1.56c1-0.38,2.1-0.58,3-0.58c2.31,0,3.3,0.98,3.3,2.82v3.09C397.66,12,397.82,12.23,398.2,12.36z M395.33,11.51v-1.42h-0.58
		c-1.08,0-1.6,0.38-1.6,1.17c0,0.63,0.34,1,0.93,1C394.61,12.26,395.05,11.97,395.33,11.51z"/>
	<path fill="#3D2C70" d="M410.57,9.69c0,2.46-1.2,4.26-3.16,4.26c-0.78,0-1.44-0.27-1.94-0.84v3.66l-2.37,0.26V5.73h2.08l0.12,0.89
		c0.66-0.83,1.51-1.14,2.25-1.14C409.66,5.48,410.57,7.11,410.57,9.69z M408.11,9.72c0-1.98-0.48-2.5-1.3-2.5
		c-0.51,0-0.99,0.34-1.34,0.93v3.36c0.33,0.48,0.72,0.71,1.21,0.71C407.57,12.21,408.11,11.51,408.11,9.72z"/>
	<path fill="#3D2C70" d="M419.41,9.72c0,2.55-1.47,4.23-3.9,4.23c-2.41,0-3.9-1.56-3.9-4.24c0-2.55,1.47-4.23,3.9-4.23
		S419.41,7.04,419.41,9.72z M414.07,9.71c0,1.77,0.48,2.5,1.44,2.5c0.96,0,1.44-0.77,1.44-2.49c0-1.77-0.48-2.5-1.44-2.5
		C414.55,7.22,414.07,7.98,414.07,9.71z"/>
	<path fill="#3D2C70" d="M427.96,2.57V13.7h-2.1l-0.12-0.93c-0.45,0.66-1.19,1.19-2.27,1.19c-2.02,0-3.03-1.68-3.03-4.26
		c0-2.46,1.24-4.21,3.3-4.21c0.72,0,1.36,0.29,1.84,0.75V2.31L427.96,2.57z M425.59,11.33V7.88c-0.36-0.42-0.72-0.67-1.23-0.67
		c-0.85,0-1.46,0.72-1.46,2.5c0,1.98,0.54,2.5,1.32,2.5C424.78,12.21,425.21,11.91,425.59,11.33z"/>
	<path fill="#3D2C70" d="M310.05,23.12v0.61h1.88l-0.25,1.65h-1.62v6.31h-2.37v-6.31h-1.2v-1.65h1.2v-0.7c0-1.53,1-2.72,3.04-2.72
		c0.82,0,1.59,0.21,2.17,0.51l-0.65,1.54c-0.45-0.23-0.9-0.3-1.25-0.3C310.32,22.07,310.05,22.37,310.05,23.12z"/>
	<path fill="#3D2C70" d="M319.91,27.72c0,2.55-1.47,4.23-3.9,4.23c-2.42,0-3.9-1.56-3.9-4.24c0-2.55,1.47-4.23,3.9-4.23
		C318.44,23.48,319.91,25.04,319.91,27.72z M314.57,27.71c0,1.77,0.48,2.5,1.44,2.5s1.44-0.77,1.44-2.49c0-1.77-0.48-2.5-1.44-2.5
		S314.57,25.98,314.57,27.71z"/>
	<path fill="#3D2C70" d="M326.43,23.61l-0.38,2.29c-0.25-0.06-0.45-0.1-0.72-0.1c-0.98,0-1.4,0.72-1.65,1.92v3.97h-2.37v-7.96h2.07
		l0.2,1.53c0.36-1.1,1.14-1.75,2.05-1.75C325.94,23.51,326.18,23.54,326.43,23.61z"/>
	<path fill="#3D2C70" d="M335.88,31.32c-0.6,0.42-1.44,0.63-2.16,0.63c-1.75-0.01-2.61-1-2.61-2.88v-3.69h-1.12v-1.65h1.12v-1.72
		l2.37-0.27v1.99h1.83l-0.26,1.65h-1.57v3.66c0,0.76,0.25,1.03,0.75,1.03c0.27,0,0.54-0.07,0.85-0.27L335.88,31.32z"/>
	<path fill="#3D2C70" d="M343.55,25.88v5.82h-2.37v-5.41c0-0.84-0.3-1.06-0.75-1.06c-0.52,0-0.96,0.37-1.38,1.02v5.46h-2.37V20.57
		l2.37-0.24v4.25c0.64-0.72,1.37-1.1,2.29-1.1C342.72,23.48,343.55,24.36,343.55,25.88z"/>
	<path fill="#3D2C70" d="M352.68,27.72c0,2.55-1.47,4.23-3.9,4.23c-2.41,0-3.9-1.56-3.9-4.24c0-2.55,1.47-4.23,3.9-4.23
		S352.68,25.04,352.68,27.72z M347.34,27.71c0,1.77,0.48,2.5,1.44,2.5c0.96,0,1.44-0.77,1.44-2.49c0-1.77-0.48-2.5-1.44-2.5
		C347.82,25.22,347.34,25.98,347.34,27.71z"/>
	<path fill="#3D2C70" d="M360.81,31.7h-2.06l-0.1-1c-0.59,0.84-1.37,1.26-2.42,1.26c-1.48,0-2.22-0.96-2.22-2.5v-5.71h2.37v5.42
		c0,0.81,0.27,1.05,0.77,1.05c0.49,0,0.94-0.33,1.29-0.93v-5.54h2.37V31.7z"/>
	<path fill="#3D2C70" d="M368.4,24.45l-0.87,1.33c-0.62-0.39-1.28-0.62-1.96-0.62c-0.64,0-0.96,0.24-0.96,0.6
		c0,0.42,0.21,0.6,1.64,1.02c1.57,0.45,2.46,1.11,2.46,2.53c0,1.65-1.56,2.62-3.54,2.62c-1.38,0-2.55-0.48-3.33-1.19l1.15-1.29
		c0.6,0.46,1.34,0.78,2.12,0.78c0.72,0,1.15-0.27,1.15-0.75c0-0.54-0.24-0.71-1.68-1.11c-1.57-0.45-2.35-1.26-2.35-2.49
		c0-1.37,1.25-2.43,3.25-2.43C366.63,23.48,367.67,23.85,368.4,24.45z"/>
	<path fill="#3D2C70" d="M376.79,30.36l-0.5,1.54c-0.93-0.08-1.54-0.36-1.92-1.14c-0.57,0.87-1.46,1.19-2.4,1.19
		c-1.59,0-2.59-1.03-2.59-2.49c0-1.74,1.32-2.69,3.73-2.69h0.81v-0.34c0-0.95-0.37-1.23-1.35-1.23c-0.51,0-1.29,0.15-2.08,0.42
		l-0.54-1.56c1-0.38,2.1-0.58,3-0.58c2.31,0,3.3,0.98,3.3,2.82v3.09C376.25,30,376.41,30.23,376.79,30.36z M373.92,29.51v-1.42
		h-0.58c-1.08,0-1.6,0.38-1.6,1.17c0,0.63,0.34,1,0.93,1C373.2,30.26,373.64,29.97,373.92,29.51z"/>
	<path fill="#3D2C70" d="M385.01,25.88v5.82h-2.37v-5.41c0-0.84-0.29-1.06-0.75-1.06c-0.53,0-0.96,0.37-1.38,1.03v5.44h-2.37v-7.96
		h2.07l0.16,0.95c0.68-0.78,1.44-1.2,2.43-1.2C384.18,23.48,385.01,24.36,385.01,25.88z"/>
	<path fill="#3D2C70" d="M393.93,20.57V31.7h-2.1l-0.12-0.93c-0.45,0.66-1.18,1.19-2.26,1.19c-2.02,0-3.03-1.68-3.03-4.26
		c0-2.46,1.25-4.21,3.3-4.21c0.72,0,1.36,0.29,1.84,0.75v-3.92L393.93,20.57z M391.56,29.33v-3.45c-0.36-0.42-0.72-0.67-1.23-0.67
		c-0.85,0-1.46,0.72-1.46,2.5c0,1.98,0.54,2.5,1.32,2.5C390.75,30.21,391.19,29.91,391.56,29.33z"/>
	<path fill="#3D2C70" d="M401.52,24.45l-0.87,1.33c-0.61-0.39-1.27-0.62-1.96-0.62c-0.64,0-0.96,0.24-0.96,0.6
		c0,0.42,0.21,0.6,1.63,1.02c1.57,0.45,2.46,1.11,2.46,2.53c0,1.65-1.56,2.62-3.54,2.62c-1.38,0-2.55-0.48-3.33-1.19l1.16-1.29
		c0.6,0.46,1.33,0.78,2.11,0.78c0.72,0,1.16-0.27,1.16-0.75c0-0.54-0.24-0.71-1.68-1.11c-1.58-0.45-2.35-1.26-2.35-2.49
		c0-1.37,1.24-2.43,3.25-2.43C399.75,23.48,400.79,23.85,401.52,24.45z"/>
	<path fill="#3D2C70" d="M413.94,27.72c0,2.55-1.47,4.23-3.9,4.23c-2.42,0-3.9-1.56-3.9-4.24c0-2.55,1.47-4.23,3.9-4.23
		S413.94,25.04,413.94,27.72z M408.6,27.71c0,1.77,0.48,2.5,1.44,2.5s1.44-0.77,1.44-2.49c0-1.77-0.48-2.5-1.44-2.5
		S408.6,25.98,408.6,27.71z"/>
	<path fill="#3D2C70" d="M418.04,23.12v0.61h1.88l-0.25,1.65h-1.62v6.31h-2.37v-6.31h-1.2v-1.65h1.2v-0.7c0-1.53,1-2.72,3.04-2.72
		c0.82,0,1.59,0.21,2.17,0.51l-0.65,1.54c-0.45-0.23-0.9-0.3-1.24-0.3C418.31,22.07,418.04,22.37,418.04,23.12z"/>
	<path fill="#3D2C70" d="M430.97,31.7h-2.06l-0.1-1c-0.58,0.84-1.36,1.26-2.42,1.26c-1.48,0-2.22-0.96-2.22-2.5v-5.71h2.37v5.42
		c0,0.81,0.27,1.05,0.76,1.05s0.94-0.33,1.29-0.93v-5.54h2.37V31.7z"/>
	<path fill="#3D2C70" d="M438.55,24.45l-0.87,1.33c-0.62-0.39-1.28-0.62-1.96-0.62c-0.65,0-0.96,0.24-0.96,0.6
		c0,0.42,0.21,0.6,1.64,1.02c1.58,0.45,2.46,1.11,2.46,2.53c0,1.65-1.56,2.62-3.54,2.62c-1.38,0-2.55-0.48-3.33-1.19l1.16-1.29
		c0.6,0.46,1.33,0.78,2.12,0.78c0.72,0,1.15-0.27,1.15-0.75c0-0.54-0.24-0.71-1.68-1.11c-1.58-0.45-2.36-1.26-2.36-2.49
		c0-1.37,1.25-2.43,3.26-2.43C436.79,23.48,437.82,23.85,438.55,24.45z"/>
	<path fill="#3D2C70" d="M446.97,28.41h-4.92c0.15,1.42,0.82,1.81,1.8,1.81c0.65,0,1.21-0.23,1.91-0.71l0.97,1.32
		c-0.79,0.63-1.81,1.11-3.11,1.11c-2.65,0-4-1.71-4-4.2c0-2.38,1.3-4.27,3.72-4.27c2.28,0,3.68,1.5,3.68,4.08
		C447.02,27.81,447,28.17,446.97,28.41z M444.69,26.88c-0.01-1.08-0.34-1.83-1.29-1.83c-0.79,0-1.25,0.49-1.37,1.93h2.66V26.88z"/>
	<path fill="#3D2C70" d="M453.5,23.61l-0.38,2.29c-0.25-0.06-0.45-0.1-0.72-0.1c-0.98,0-1.4,0.72-1.65,1.92v3.97h-2.37v-7.96h2.07
		l0.19,1.53c0.36-1.1,1.14-1.75,2.06-1.75C453,23.51,453.24,23.54,453.5,23.61z"/>
	<path fill="#3D2C70" d="M459.97,24.45l-0.87,1.33c-0.61-0.39-1.27-0.62-1.96-0.62c-0.65,0-0.96,0.24-0.96,0.6
		c0,0.42,0.21,0.6,1.63,1.02c1.58,0.45,2.46,1.11,2.46,2.53c0,1.65-1.56,2.62-3.54,2.62c-1.38,0-2.55-0.48-3.33-1.19l1.16-1.29
		c0.6,0.46,1.33,0.78,2.11,0.78c0.72,0,1.16-0.27,1.16-0.75c0-0.54-0.24-0.71-1.68-1.11c-1.58-0.45-2.36-1.26-2.36-2.49
		c0-1.37,1.25-2.43,3.25-2.43C458.21,23.48,459.24,23.85,459.97,24.45z"/>
</g>
<g>
	<path fill="#3D2C70" d="M359.93,77.5h-1.37l0.3-4.71c0.09-1.62,0.21-3.21,0.31-4.15l-3.27,7.69h-1.35l-1.25-7.68
		c-0.13,1.14-0.46,2.82-0.79,4.33l-0.96,4.51h-1.35l2.31-10.33h1.79l1.17,7.48l3.06-7.48h1.99L359.93,77.5z"/>
	<path fill="#3D2C70" d="M369.4,70.09l-0.86,5.61c-0.01,0.12-0.03,0.23-0.03,0.31c0,0.44,0.2,0.6,0.51,0.72l-0.39,0.95
		c-0.79-0.1-1.29-0.47-1.39-1.32c-0.62,0.79-1.42,1.32-2.35,1.32c-1.65,0-2.52-1.22-2.52-3.03c0-2.16,1.14-5.23,4.21-5.23
		C367.52,69.42,368.35,69.58,369.4,70.09z M363.83,74.67c0,1.32,0.49,1.92,1.38,1.92c0.84,0,1.46-0.63,2.07-1.46l0.66-4.36
		c-0.45-0.19-0.78-0.25-1.33-0.25C364.6,70.51,363.83,72.9,363.83,74.67z"/>
	<path fill="#3D2C70" d="M376.69,70.39l-0.66,0.83c-0.6-0.46-1.26-0.71-1.95-0.71c-0.96,0-1.57,0.4-1.57,1.06
		c0,0.63,0.53,0.87,1.59,1.2c1.48,0.46,2.23,1.12,2.23,2.37c0,1.75-1.63,2.54-3.28,2.54c-1.38,0-2.31-0.54-2.92-1.14l0.79-0.81
		c0.57,0.51,1.3,0.84,2.19,0.84c1.39,0,1.79-0.76,1.79-1.29c0-0.79-0.4-1.06-1.67-1.46c-1.51-0.46-2.11-1.08-2.11-2.16
		c0-1.05,0.93-2.25,2.98-2.25C375.19,69.42,376.01,69.79,376.69,70.39z"/>
	<path fill="#3D2C70" d="M379.66,75.42c-0.12,0.79,0.06,1.11,0.71,1.11c0.36,0,0.69-0.12,1.11-0.36l0.45,0.99
		c-0.57,0.36-1.16,0.53-1.79,0.53c-1.37,0-2.05-0.83-1.85-2.29l0.66-4.73h-1.37l0.15-1.06h1.43l0.49-1.83l1.08-0.12l-0.27,1.95h1.86
		l-0.3,1.06h-1.71L379.66,75.42z"/>
	<path fill="#3D2C70" d="M390.13,72.69c0,1.91-0.98,5-4.08,5c-1.96,0-3.03-1.26-3.03-3.27c0-1.95,1-4.99,4.09-4.99
		C389.08,69.42,390.13,70.68,390.13,72.69z M384.46,74.56c0,1.38,0.57,2.01,1.63,2.01c2.05,0,2.59-2.52,2.59-4.03
		c0-1.38-0.57-2.01-1.62-2.01C385.01,70.53,384.46,73.05,384.46,74.56z"/>
	<path fill="#3D2C70" d="M399.38,66.43l-1.56,11.07h-1.2l0.02-1.31c-0.55,0.92-1.37,1.49-2.38,1.49c-1.63,0-2.51-1.23-2.51-3.14
		c0-2.04,0.98-5.13,3.68-5.13c0.93,0,1.59,0.43,2.02,0.99l0.58-4.12L399.38,66.43z M393.2,74.65c0,1.33,0.5,1.94,1.32,1.94
		c0.97,0,1.62-0.72,2.33-1.83l0.46-3.28c-0.41-0.61-0.9-0.96-1.63-0.96C393.76,70.51,393.2,73.08,393.2,74.65z"/>
	<path fill="#3D2C70" d="M407.68,72.69c0,1.91-0.97,5-4.08,5c-1.97,0-3.03-1.26-3.03-3.27c0-1.95,1.01-4.99,4.1-4.99
		C406.63,69.42,407.68,70.68,407.68,72.69z M402.01,74.56c0,1.38,0.57,2.01,1.64,2.01c2.05,0,2.59-2.52,2.59-4.03
		c0-1.38-0.57-2.01-1.62-2.01C402.56,70.53,402.01,73.05,402.01,74.56z"/>
	<path fill="#3D2C70" d="M416.05,71.95l-0.78,5.55h-1.36l0.78-5.52c0.15-1.11-0.24-1.41-0.84-1.41c-1.01,0-1.89,1.06-2.52,2.19
		l-0.65,4.74h-1.36l1.11-7.9h1.17l-0.12,1.54c0.74-1.03,1.61-1.72,2.75-1.72C415.54,69.42,416.27,70.38,416.05,71.95z"/>
</g>
<circle fill="#3D2C70" cx="196" cy="59" r="3.5"/>
<g>
	<path fill="#3D2C70" d="M158.89,9.72c0,2.55-1.47,4.23-3.9,4.23c-2.42,0-3.9-1.56-3.9-4.24c0-2.55,1.47-4.23,3.9-4.23
		C157.42,5.48,158.89,7.04,158.89,9.72z M153.55,9.71c0,1.77,0.48,2.5,1.44,2.5s1.44-0.77,1.44-2.49c0-1.77-0.48-2.5-1.44-2.5
		S153.55,7.98,153.55,9.71z"/>
	<path fill="#3D2C70" d="M167.17,7.88v5.82h-2.37V8.28c0-0.84-0.28-1.06-0.75-1.06c-0.52,0-0.96,0.37-1.38,1.03v5.44h-2.37V5.73
		h2.07l0.17,0.95c0.67-0.78,1.44-1.2,2.43-1.2C166.34,5.48,167.17,6.36,167.17,7.88z"/>
	<path fill="#3D2C70" d="M175.85,10.41h-4.92c0.15,1.42,0.83,1.81,1.8,1.81c0.65,0,1.21-0.23,1.9-0.71l0.98,1.32
		c-0.79,0.63-1.81,1.11-3.1,1.11c-2.65,0-4-1.71-4-4.2c0-2.38,1.31-4.27,3.72-4.27c2.28,0,3.67,1.5,3.67,4.08
		C175.9,9.81,175.88,10.17,175.85,10.41z M173.57,8.88c-0.02-1.08-0.35-1.83-1.29-1.83c-0.79,0-1.25,0.49-1.36,1.93h2.65V8.88z"/>
	<path fill="#3D2C70" d="M187.96,2.57V13.7h-2.1l-0.12-0.93c-0.45,0.66-1.18,1.19-2.26,1.19c-2.02,0-3.03-1.68-3.03-4.26
		c0-2.46,1.24-4.21,3.3-4.21c0.72,0,1.36,0.29,1.84,0.75V2.31L187.96,2.57z M185.59,11.33V7.88c-0.36-0.42-0.72-0.67-1.23-0.67
		c-0.85,0-1.46,0.72-1.46,2.5c0,1.98,0.54,2.5,1.32,2.5C184.78,12.21,185.21,11.91,185.59,11.33z"/>
	<path fill="#3D2C70" d="M196.69,12.36l-0.5,1.54c-0.93-0.08-1.54-0.36-1.92-1.14c-0.57,0.87-1.46,1.19-2.4,1.19
		c-1.59,0-2.59-1.03-2.59-2.49c0-1.74,1.32-2.69,3.73-2.69h0.81V8.43c0-0.95-0.38-1.23-1.35-1.23c-0.51,0-1.29,0.15-2.08,0.42
		l-0.54-1.56c1-0.38,2.1-0.58,3-0.58c2.31,0,3.3,0.98,3.3,2.82v3.09C196.15,12,196.31,12.23,196.69,12.36z M193.82,11.51v-1.42
		h-0.58c-1.08,0-1.6,0.38-1.6,1.17c0,0.63,0.34,1,0.93,1C193.1,12.26,193.54,11.97,193.82,11.51z"/>
	<path fill="#3D2C70" d="M203.03,13.32c-0.6,0.42-1.44,0.63-2.16,0.63c-1.75-0.01-2.61-1-2.61-2.88V7.38h-1.12V5.73h1.12V4.01
		l2.37-0.27v1.99h1.83l-0.26,1.65h-1.57v3.66c0,0.76,0.25,1.03,0.75,1.03c0.27,0,0.54-0.07,0.85-0.27L203.03,13.32z"/>
	<path fill="#3D2C70" d="M210.7,12.36l-0.5,1.54c-0.93-0.08-1.54-0.36-1.92-1.14c-0.57,0.87-1.46,1.19-2.4,1.19
		c-1.59,0-2.59-1.03-2.59-2.49c0-1.74,1.32-2.69,3.73-2.69h0.81V8.43c0-0.95-0.37-1.23-1.35-1.23c-0.51,0-1.29,0.15-2.08,0.42
		l-0.54-1.56c1-0.38,2.1-0.58,3-0.58c2.31,0,3.3,0.98,3.3,2.82v3.09C210.16,12,210.32,12.23,210.7,12.36z M207.83,11.51v-1.42h-0.58
		c-1.08,0-1.6,0.38-1.6,1.17c0,0.63,0.34,1,0.93,1C207.11,12.26,207.55,11.97,207.83,11.51z"/>
	<path fill="#3D2C70" d="M223.07,9.69c0,2.46-1.2,4.26-3.16,4.26c-0.78,0-1.44-0.27-1.94-0.84v3.66l-2.37,0.26V5.73h2.08l0.12,0.89
		c0.66-0.83,1.52-1.14,2.25-1.14C222.16,5.48,223.07,7.11,223.07,9.69z M220.61,9.72c0-1.98-0.48-2.5-1.31-2.5
		c-0.51,0-0.99,0.34-1.33,0.93v3.36c0.33,0.48,0.72,0.71,1.21,0.71C220.07,12.21,220.61,11.51,220.61,9.72z"/>
	<path fill="#3D2C70" d="M231.91,9.72c0,2.55-1.47,4.23-3.9,4.23c-2.42,0-3.9-1.56-3.9-4.24c0-2.55,1.47-4.23,3.9-4.23
		C230.44,5.48,231.91,7.04,231.91,9.72z M226.57,9.71c0,1.77,0.48,2.5,1.44,2.5s1.44-0.77,1.44-2.49c0-1.77-0.48-2.5-1.44-2.5
		S226.57,7.98,226.57,9.71z"/>
	<path fill="#3D2C70" d="M240.46,2.57V13.7h-2.1l-0.12-0.93c-0.45,0.66-1.18,1.19-2.26,1.19c-2.02,0-3.03-1.68-3.03-4.26
		c0-2.46,1.24-4.21,3.3-4.21c0.72,0,1.36,0.29,1.84,0.75V2.31L240.46,2.57z M238.09,11.33V7.88c-0.36-0.42-0.72-0.67-1.23-0.67
		c-0.85,0-1.46,0.72-1.46,2.5c0,1.98,0.54,2.5,1.32,2.5C237.28,12.21,237.71,11.91,238.09,11.33z"/>
	<path fill="#3D2C70" d="M175.91,27.69c0,2.46-1.2,4.26-3.17,4.26c-0.78,0-1.44-0.27-1.94-0.84v3.66l-2.37,0.26V23.73h2.08
		l0.12,0.89c0.66-0.83,1.52-1.14,2.25-1.14C174.99,23.48,175.91,25.11,175.91,27.69z M173.45,27.72c0-1.98-0.48-2.5-1.31-2.5
		c-0.51,0-0.99,0.34-1.33,0.93v3.36c0.33,0.48,0.72,0.71,1.21,0.71C172.91,30.21,173.45,29.51,173.45,27.72z"/>
	<path fill="#3D2C70" d="M184.29,28.41h-4.92c0.15,1.42,0.83,1.81,1.8,1.81c0.65,0,1.21-0.23,1.9-0.71l0.98,1.32
		c-0.79,0.63-1.81,1.11-3.1,1.11c-2.65,0-4-1.71-4-4.2c0-2.38,1.31-4.27,3.72-4.27c2.28,0,3.67,1.5,3.67,4.08
		C184.34,27.81,184.32,28.17,184.29,28.41z M182.01,26.88c-0.02-1.08-0.35-1.83-1.29-1.83c-0.79,0-1.25,0.49-1.36,1.93h2.65V26.88z"
		/>
	<path fill="#3D2C70" d="M190.82,23.61l-0.38,2.29c-0.26-0.06-0.45-0.1-0.72-0.1c-0.98,0-1.4,0.72-1.65,1.92v3.97h-2.37v-7.96h2.07
		l0.19,1.53c0.36-1.1,1.14-1.75,2.06-1.75C190.32,23.51,190.56,23.54,190.82,23.61z"/>
	<path fill="#3D2C70" d="M201.99,31.7h-2.06l-0.1-1c-0.58,0.84-1.36,1.26-2.42,1.26c-1.48,0-2.22-0.96-2.22-2.5v-5.71h2.37v5.42
		c0,0.81,0.27,1.05,0.76,1.05s0.94-0.33,1.29-0.93v-5.54h2.37V31.7z"/>
	<path fill="#3D2C70" d="M209.58,24.45l-0.87,1.33c-0.61-0.39-1.27-0.62-1.96-0.62c-0.65,0-0.96,0.24-0.96,0.6
		c0,0.42,0.21,0.6,1.64,1.02c1.57,0.45,2.46,1.11,2.46,2.53c0,1.65-1.56,2.62-3.54,2.62c-1.38,0-2.55-0.48-3.33-1.19l1.16-1.29
		c0.6,0.46,1.33,0.78,2.11,0.78c0.72,0,1.15-0.27,1.15-0.75c0-0.54-0.24-0.71-1.68-1.11c-1.58-0.45-2.35-1.26-2.35-2.49
		c0-1.37,1.25-2.43,3.25-2.43C207.81,23.48,208.85,23.85,209.58,24.45z"/>
	<path fill="#3D2C70" d="M218,28.41h-4.92c0.15,1.42,0.83,1.81,1.8,1.81c0.65,0,1.21-0.23,1.9-0.71l0.98,1.32
		c-0.79,0.63-1.81,1.11-3.1,1.11c-2.65,0-4-1.71-4-4.2c0-2.38,1.31-4.27,3.72-4.27c2.28,0,3.67,1.5,3.67,4.08
		C218.04,27.81,218.03,28.17,218,28.41z M215.72,26.88c-0.02-1.08-0.35-1.83-1.29-1.83c-0.79,0-1.25,0.49-1.36,1.93h2.65V26.88z"/>
	<path fill="#3D2C70" d="M224.52,23.61l-0.38,2.29c-0.26-0.06-0.45-0.1-0.72-0.1c-0.98,0-1.4,0.72-1.65,1.92v3.97h-2.37v-7.96h2.07
		l0.19,1.53c0.36-1.1,1.14-1.75,2.06-1.75C224.03,23.51,224.27,23.54,224.52,23.61z"/>
</g>
<g opacity="0.6">
	<path fill="#3D2C70" d="M547.79,45.12l-0.82,5.7h-1.31l0.79-5.65c0.14-0.99-0.13-1.32-0.57-1.32c-0.71,0-1.38,1.08-1.92,2.13
		l-0.71,4.84h-1.3l0.79-5.65c0.13-0.99-0.14-1.32-0.57-1.32c-0.71,0-1.37,1.09-1.92,2.13l-0.68,4.84h-1.3l1.11-7.9h1.12l-0.12,1.44
		c0.6-0.94,1.26-1.62,2.17-1.62c0.79,0,1.42,0.58,1.53,1.57c0.66-0.99,1.29-1.57,2.17-1.57C547.29,42.74,548,43.67,547.79,45.12z"/>
	<path fill="#3D2C70" d="M549.24,47.99c0-2.16,0.99-5.23,3.75-5.23c1.65,0,2.55,1.16,2.55,3c0,2.11-0.94,5.25-3.74,5.25
		C550.16,51,549.24,49.83,549.24,47.99z M554.19,45.63c0-1.24-0.43-1.81-1.25-1.81c-1.84,0-2.34,2.71-2.34,4.31
		c0,1.23,0.44,1.81,1.26,1.81C553.68,49.94,554.19,47.21,554.19,45.63z"/>
	<path fill="#3D2C70" d="M561.59,42.86l-0.42,1.26c-0.18-0.04-0.33-0.08-0.54-0.08c-0.88,0-1.5,0.94-1.98,2.55l-0.58,4.23h-1.3
		l1.11-7.9h1.12l-0.1,1.48c0.52-1.06,1.12-1.65,2.02-1.65C561.15,42.75,561.38,42.8,561.59,42.86z"/>
	<path fill="#3D2C70" d="M563,47.87v0.15c0,1.41,0.54,1.87,1.32,1.87c0.65,0,1.2-0.24,1.82-0.7l0.55,0.87
		c-0.77,0.6-1.58,0.95-2.5,0.95c-1.64,0-2.55-1.12-2.55-2.97c0-2.32,1.06-5.28,3.76-5.28c1.46,0,2.19,0.92,2.19,1.96
		C567.59,46.92,565.44,47.57,563,47.87z M563.07,46.86c2.07-0.25,3.18-0.73,3.18-2.11c0-0.54-0.27-0.94-0.93-0.94
		C563.93,43.8,563.28,45.36,563.07,46.86z"/>
	<path fill="#3D2C70" d="M577.48,43.61l-0.71,0.79c-0.42-0.38-0.78-0.57-1.29-0.57c-1.82,0-2.37,2.52-2.37,4.26
		c0,1.26,0.48,1.79,1.27,1.79c0.59,0,1.01-0.26,1.54-0.6l0.5,0.9c-0.69,0.56-1.43,0.83-2.18,0.83c-1.56,0-2.5-1.11-2.5-2.98
		c0-2.31,1.07-5.27,3.72-5.27C576.29,42.75,576.9,43.01,577.48,43.61z"/>
	<path fill="#3D2C70" d="M579.02,47.87v0.15c0,1.41,0.54,1.87,1.32,1.87c0.65,0,1.2-0.24,1.82-0.7l0.55,0.87
		c-0.77,0.6-1.58,0.95-2.5,0.95c-1.64,0-2.55-1.12-2.55-2.97c0-2.32,1.06-5.28,3.76-5.28c1.46,0,2.19,0.92,2.19,1.96
		C583.61,46.92,581.46,47.57,579.02,47.87z M579.09,46.86c2.07-0.25,3.18-0.73,3.18-2.11c0-0.54-0.27-0.94-0.93-0.94
		C579.95,43.8,579.3,45.36,579.09,46.86z"/>
	<path fill="#3D2C70" d="M590.53,45.15l-0.81,5.67h-1.3l0.79-5.65c0.12-0.98-0.17-1.32-0.66-1.32c-0.78,0-1.53,1.09-2.08,2.13
		l-0.67,4.84h-1.3l1.11-7.9h1.12l-0.12,1.47c0.63-0.98,1.33-1.65,2.31-1.65C590.04,42.74,590.74,43.68,590.53,45.15z"/>
	<path fill="#3D2C70" d="M593.65,49.01c-0.09,0.6,0.11,0.9,0.6,0.9c0.33,0,0.62-0.12,0.96-0.31l0.39,0.88
		c-0.5,0.36-1.04,0.53-1.58,0.53c-1.17,0-1.84-0.79-1.65-2.07l0.69-4.98h-1.14l0.15-1.04h1.18l0.45-1.83l1.08-0.12l-0.29,1.95h1.59
		l-0.29,1.04h-1.44L593.65,49.01z"/>
	<path fill="#3D2C70" d="M601.54,42.86l-0.42,1.26c-0.18-0.04-0.33-0.08-0.54-0.08c-0.88,0-1.5,0.94-1.98,2.55l-0.58,4.23h-1.3
		l1.11-7.9h1.12l-0.1,1.48c0.52-1.06,1.12-1.65,2.02-1.65C601.11,42.75,601.33,42.8,601.54,42.86z"/>
	<path fill="#3D2C70" d="M607.86,43.35l-0.83,5.68c-0.08,0.53-0.1,0.85,0.34,1.05L606.96,51c-0.67-0.1-1.11-0.45-1.18-1.25
		c-0.54,0.73-1.16,1.25-2.04,1.25c-1.35,0-2.17-1.1-2.17-2.79c0-2.35,1.11-5.46,3.97-5.46C606.39,42.75,607.12,42.99,607.86,43.35z
		 M602.91,48.23c0,1.2,0.39,1.72,1.11,1.72c0.72,0,1.26-0.63,1.79-1.4l0.64-4.57c-0.29-0.12-0.55-0.18-0.93-0.18
		C603.67,43.8,602.91,46.25,602.91,48.23z"/>
	<path fill="#3D2C70" d="M610.51,49.35c-0.04,0.39,0.03,0.55,0.32,0.55c0.13,0,0.27-0.03,0.43-0.09l0.22,0.93
		c-0.34,0.18-0.69,0.26-1,0.26c-0.9,0-1.41-0.65-1.24-1.74l1.32-9.52l1.32-0.15L610.51,49.35z"/>
	<path fill="#3D2C70" d="M614.16,50.82h-1.3l1.11-7.9h1.3L614.16,50.82z M614.14,40.17c0-0.6,0.43-0.99,0.95-0.99
		c0.48,0,0.78,0.33,0.78,0.78c0,0.6-0.44,0.99-0.95,0.99C614.44,40.95,614.14,40.64,614.14,40.17z"/>
	<path fill="#3D2C70" d="M621.49,43.94l-4.21,5.77h3.46l-0.3,1.11h-4.84l0.15-0.99l4.21-5.79h-3.12l0.17-1.12h4.63L621.49,43.94z"/>
	<path fill="#3D2C70" d="M623.47,47.87v0.15c0,1.41,0.54,1.87,1.32,1.87c0.65,0,1.2-0.24,1.82-0.7l0.55,0.87
		c-0.77,0.6-1.58,0.95-2.5,0.95c-1.64,0-2.55-1.12-2.55-2.97c0-2.32,1.06-5.28,3.76-5.28c1.46,0,2.19,0.92,2.19,1.96
		C628.06,46.92,625.92,47.57,623.47,47.87z M623.55,46.86c2.07-0.25,3.18-0.73,3.18-2.11c0-0.54-0.27-0.94-0.93-0.94
		C624.4,43.8,623.76,45.36,623.55,46.86z"/>
	<path fill="#3D2C70" d="M635.85,39.75l-1.56,11.07h-1.16l0.04-1.25c-0.51,0.89-1.18,1.43-2.1,1.43c-1.38,0-2.13-1.12-2.13-2.85
		c0-2.23,1-5.41,3.42-5.41c0.81,0,1.32,0.4,1.62,0.94l0.57-4.06L635.85,39.75z M630.3,48.21c0,1.19,0.41,1.74,1.1,1.74
		c0.78,0,1.36-0.76,1.98-1.88l0.46-3.3c-0.3-0.63-0.67-0.99-1.32-0.99C630.88,43.79,630.3,46.5,630.3,48.21z"/>
</g>
<g opacity="0.6">
	<path fill="#3D2C70" d="M13.11,45.12l-0.82,5.7h-1.31l0.79-5.65c0.14-0.99-0.13-1.32-0.57-1.32c-0.71,0-1.38,1.08-1.92,2.13
		l-0.71,4.84h-1.3l0.79-5.65c0.13-0.99-0.14-1.32-0.57-1.32c-0.71,0-1.37,1.09-1.92,2.13l-0.68,4.84H3.6l1.11-7.9h1.12l-0.12,1.44
		c0.6-0.94,1.26-1.62,2.17-1.62c0.79,0,1.43,0.58,1.53,1.57c0.66-0.99,1.29-1.57,2.17-1.57C12.62,42.74,13.32,43.67,13.11,45.12z"/>
	<path fill="#3D2C70" d="M14.56,47.99c0-2.16,0.99-5.23,3.75-5.23c1.65,0,2.55,1.16,2.55,3c0,2.11-0.94,5.25-3.73,5.25
		C15.48,51,14.56,49.83,14.56,47.99z M19.52,45.63c0-1.24-0.44-1.81-1.25-1.81c-1.84,0-2.34,2.71-2.34,4.31
		c0,1.23,0.44,1.81,1.26,1.81C19,49.94,19.52,47.21,19.52,45.63z"/>
	<path fill="#3D2C70" d="M26.91,42.86l-0.42,1.26c-0.18-0.04-0.33-0.08-0.54-0.08c-0.88,0-1.5,0.94-1.98,2.55l-0.58,4.23h-1.3
		l1.11-7.9h1.12l-0.1,1.48c0.52-1.06,1.12-1.65,2.02-1.65C26.48,42.75,26.7,42.8,26.91,42.86z"/>
	<path fill="#3D2C70" d="M28.32,47.87v0.15c0,1.41,0.54,1.87,1.32,1.87c0.65,0,1.2-0.24,1.81-0.7l0.56,0.87
		c-0.77,0.6-1.58,0.95-2.5,0.95c-1.64,0-2.55-1.12-2.55-2.97c0-2.32,1.06-5.28,3.77-5.28c1.46,0,2.19,0.92,2.19,1.96
		C32.91,46.92,30.77,47.57,28.32,47.87z M28.4,46.86c2.07-0.25,3.18-0.73,3.18-2.11c0-0.54-0.27-0.94-0.93-0.94
		C29.25,43.8,28.61,45.36,28.4,46.86z"/>
	<path fill="#3D2C70" d="M43.96,39.75L42.4,50.82h-1.16l0.04-1.25c-0.51,0.89-1.18,1.43-2.1,1.43c-1.38,0-2.13-1.12-2.13-2.85
		c0-2.23,1-5.41,3.42-5.41c0.81,0,1.32,0.4,1.62,0.94l0.57-4.06L43.96,39.75z M38.41,48.21c0,1.19,0.41,1.74,1.1,1.74
		c0.78,0,1.36-0.76,1.98-1.88l0.46-3.3c-0.3-0.63-0.67-0.99-1.32-0.99C39,43.79,38.41,46.5,38.41,48.21z"/>
	<path fill="#3D2C70" d="M46.09,47.87v0.15c0,1.41,0.54,1.87,1.32,1.87c0.65,0,1.2-0.24,1.81-0.7l0.56,0.87
		c-0.77,0.6-1.58,0.95-2.5,0.95c-1.64,0-2.55-1.12-2.55-2.97c0-2.32,1.06-5.28,3.77-5.28c1.46,0,2.19,0.92,2.19,1.96
		C50.68,46.92,48.54,47.57,46.09,47.87z M46.17,46.86c2.07-0.25,3.18-0.73,3.18-2.11c0-0.54-0.27-0.94-0.93-0.94
		C47.02,43.8,46.38,45.36,46.17,46.86z"/>
	<path fill="#3D2C70" d="M57.31,43.61l-0.71,0.79c-0.42-0.38-0.78-0.57-1.29-0.57c-1.81,0-2.37,2.52-2.37,4.26
		c0,1.26,0.48,1.79,1.27,1.79c0.58,0,1-0.26,1.54-0.6l0.5,0.9C55.57,50.73,54.84,51,54.09,51c-1.56,0-2.5-1.11-2.5-2.98
		c0-2.31,1.07-5.27,3.72-5.27C56.11,42.75,56.73,43.01,57.31,43.61z"/>
	<path fill="#3D2C70" d="M58.84,47.87v0.15c0,1.41,0.54,1.87,1.32,1.87c0.65,0,1.2-0.24,1.81-0.7l0.56,0.87
		c-0.77,0.6-1.58,0.95-2.5,0.95c-1.64,0-2.55-1.12-2.55-2.97c0-2.32,1.07-5.28,3.77-5.28c1.46,0,2.19,0.92,2.19,1.96
		C63.43,46.92,61.29,47.57,58.84,47.87z M58.92,46.86c2.07-0.25,3.18-0.73,3.18-2.11c0-0.54-0.27-0.94-0.93-0.94
		C59.77,43.8,59.13,45.36,58.92,46.86z"/>
	<path fill="#3D2C70" d="M70.36,45.15l-0.81,5.67h-1.31l0.79-5.65c0.12-0.98-0.17-1.32-0.66-1.32c-0.78,0-1.53,1.09-2.08,2.13
		l-0.68,4.84h-1.3l1.11-7.9h1.12l-0.12,1.47c0.63-0.98,1.33-1.65,2.31-1.65C69.87,42.74,70.57,43.68,70.36,45.15z"/>
	<path fill="#3D2C70" d="M73.48,49.01c-0.09,0.6,0.1,0.9,0.6,0.9c0.33,0,0.61-0.12,0.96-0.31l0.39,0.88
		C74.94,50.84,74.4,51,73.86,51c-1.17,0-1.84-0.79-1.65-2.07l0.69-4.98h-1.14l0.15-1.04h1.19l0.45-1.83l1.08-0.12l-0.29,1.95h1.59
		l-0.28,1.04H74.2L73.48,49.01z"/>
	<path fill="#3D2C70" d="M81.37,42.86l-0.42,1.26c-0.18-0.04-0.33-0.08-0.54-0.08c-0.88,0-1.5,0.94-1.98,2.55l-0.58,4.23h-1.3
		l1.11-7.9h1.12l-0.1,1.48c0.52-1.06,1.12-1.65,2.02-1.65C80.94,42.75,81.16,42.8,81.37,42.86z"/>
	<path fill="#3D2C70" d="M87.69,43.35l-0.83,5.68c-0.07,0.53-0.1,0.85,0.35,1.05L86.79,51c-0.68-0.1-1.11-0.45-1.19-1.25
		C85.06,50.49,84.45,51,83.56,51c-1.35,0-2.17-1.1-2.17-2.79c0-2.35,1.11-5.46,3.98-5.46C86.22,42.75,86.95,42.99,87.69,43.35z
		 M82.74,48.23c0,1.2,0.39,1.72,1.11,1.72c0.72,0,1.26-0.63,1.78-1.4l0.65-4.57c-0.28-0.12-0.55-0.18-0.93-0.18
		C83.5,43.8,82.74,46.25,82.74,48.23z"/>
	<path fill="#3D2C70" d="M90.34,49.35c-0.04,0.39,0.03,0.55,0.31,0.55c0.13,0,0.27-0.03,0.44-0.09l0.22,0.93
		c-0.34,0.18-0.69,0.26-1,0.26c-0.9,0-1.41-0.65-1.24-1.74l1.32-9.52l1.32-0.15L90.34,49.35z"/>
	<path fill="#3D2C70" d="M93.99,50.82h-1.3l1.11-7.9h1.3L93.99,50.82z M93.97,40.17c0-0.6,0.43-0.99,0.94-0.99
		c0.48,0,0.78,0.33,0.78,0.78c0,0.6-0.44,0.99-0.94,0.99C94.27,40.95,93.97,40.64,93.97,40.17z"/>
	<path fill="#3D2C70" d="M101.32,43.94l-4.21,5.77h3.46l-0.3,1.11h-4.84l0.15-0.99l4.21-5.79h-3.12l0.17-1.12h4.63L101.32,43.94z"/>
	<path fill="#3D2C70" d="M103.3,47.87v0.15c0,1.41,0.54,1.87,1.32,1.87c0.65,0,1.2-0.24,1.81-0.7l0.56,0.87
		c-0.77,0.6-1.58,0.95-2.5,0.95c-1.64,0-2.55-1.12-2.55-2.97c0-2.32,1.06-5.28,3.77-5.28c1.46,0,2.19,0.92,2.19,1.96
		C107.89,46.92,105.75,47.57,103.3,47.87z M103.38,46.86c2.07-0.25,3.18-0.73,3.18-2.11c0-0.54-0.27-0.94-0.93-0.94
		C104.23,43.8,103.59,45.36,103.38,46.86z"/>
	<path fill="#3D2C70" d="M115.68,39.75l-1.56,11.07h-1.16l0.04-1.25c-0.51,0.89-1.18,1.43-2.1,1.43c-1.38,0-2.13-1.12-2.13-2.85
		c0-2.23,1-5.41,3.42-5.41c0.81,0,1.32,0.4,1.62,0.94l0.57-4.06L115.68,39.75z M110.13,48.21c0,1.19,0.41,1.74,1.1,1.74
		c0.78,0,1.36-0.76,1.98-1.88l0.46-3.3c-0.3-0.63-0.67-0.99-1.32-0.99C110.71,43.79,110.13,46.5,110.13,48.21z"/>
</g>
<g>
	<path fill="#3D2C70" d="M186.83,68.23l-0.89,0.82c-0.66-0.66-1.33-0.9-2.14-0.9c-1.12,0-2.13,0.6-2.13,1.68
		c0,0.78,0.42,1.19,1.93,1.69c1.44,0.45,2.7,1.06,2.7,2.83c0,1.29-0.93,3.31-4.05,3.31c-1.52,0-2.61-0.54-3.35-1.38l0.9-0.84
		c0.62,0.68,1.38,1.05,2.48,1.05c1.32,0,2.55-0.72,2.55-2.07c0-0.9-0.48-1.3-1.9-1.8c-1.75-0.54-2.7-1.26-2.7-2.74
		c0-1.19,1.03-2.91,3.54-2.91C185.14,66.99,186.07,67.44,186.83,68.23z"/>
	<path fill="#3D2C70" d="M194.9,72.69c0,1.91-0.98,5-4.08,5c-1.97,0-3.03-1.26-3.03-3.27c0-1.95,1.01-4.99,4.1-4.99
		C193.85,69.42,194.9,70.68,194.9,72.69z M189.23,74.56c0,1.38,0.57,2.01,1.64,2.01c2.05,0,2.59-2.52,2.59-4.03
		c0-1.38-0.57-2.01-1.62-2.01C189.79,70.53,189.23,73.05,189.23,74.56z"/>
	<path fill="#3D2C70" d="M198.05,75.96c-0.05,0.42,0.03,0.58,0.36,0.58c0.18,0,0.36-0.04,0.54-0.12l0.28,1
		c-0.4,0.18-0.75,0.26-1.09,0.26c-1.05,0-1.6-0.65-1.42-1.95l1.32-9.31l1.38-0.17L198.05,75.96z"/>
	<path fill="#3D2C70" d="M202.22,77.5h-1.36l1.11-7.9h1.37L202.22,77.5z M203.99,66.82c-0.07,0.5-0.46,0.85-1.02,0.85
		c-0.6,0-0.94-0.45-0.87-1c0.07-0.51,0.48-0.87,1.02-0.87C203.74,65.8,204.07,66.25,203.99,66.82z"/>
	<path fill="#3D2C70" d="M212.66,66.43L211.1,77.5h-1.2l0.02-1.31c-0.56,0.92-1.37,1.49-2.39,1.49c-1.63,0-2.5-1.23-2.5-3.14
		c0-2.04,0.98-5.13,3.67-5.13c0.93,0,1.59,0.43,2.02,0.99l0.58-4.12L212.66,66.43z M206.48,74.65c0,1.33,0.5,1.94,1.32,1.94
		c0.98,0,1.62-0.72,2.33-1.83l0.46-3.28c-0.4-0.61-0.9-0.96-1.63-0.96C207.04,70.51,206.48,73.08,206.48,74.65z"/>
</g>
<circle fill="#3D2C70" cx="58.5" cy="59" r="3.5"/>
<g>
	<path fill="#3D2C70" d="M12.52,7.88v5.82h-2.37V8.28c0-0.84-0.31-1.06-0.68-1.06c-0.51,0-0.87,0.37-1.21,1.03v5.44H5.89V8.28
		c0-0.84-0.31-1.06-0.68-1.06C4.72,7.22,4.35,7.59,4,8.25v5.44H1.63V5.73H3.7l0.17,0.93C4.48,5.88,5.2,5.48,6.18,5.48
		c0.89,0,1.56,0.45,1.88,1.26c0.63-0.82,1.37-1.26,2.38-1.26C11.67,5.48,12.52,6.36,12.52,7.88z"/>
	<path fill="#3D2C70" d="M21.03,13.7h-2.06l-0.1-1c-0.58,0.84-1.36,1.26-2.42,1.26c-1.48,0-2.22-0.96-2.22-2.5V5.73h2.37v5.42
		c0,0.81,0.27,1.05,0.76,1.05s0.94-0.33,1.29-0.93V5.73h2.37V13.7z"/>
	<path fill="#3D2C70" d="M22.81,11.67v-9.1l2.37-0.26v9.27c0,0.33,0.12,0.49,0.4,0.49c0.17,0,0.29-0.03,0.39-0.07l0.46,1.68
		c-0.36,0.15-0.87,0.27-1.44,0.27C23.62,13.95,22.81,13.13,22.81,11.67z"/>
	<path fill="#3D2C70" d="M32.34,13.32c-0.6,0.42-1.44,0.63-2.16,0.63c-1.75-0.01-2.61-1-2.61-2.88V7.38h-1.12V5.73h1.12V4.01
		l2.37-0.27v1.99h1.83l-0.26,1.65h-1.57v3.66c0,0.76,0.25,1.03,0.75,1.03c0.27,0,0.54-0.07,0.85-0.27L32.34,13.32z"/>
	<path fill="#3D2C70" d="M35.71,2.88c0,0.76-0.58,1.35-1.41,1.35c-0.83,0-1.4-0.58-1.4-1.35c0-0.77,0.57-1.35,1.4-1.35
		C35.13,1.53,35.71,2.12,35.71,2.88z M35.5,13.7h-2.37V5.73h2.37V13.7z"/>
	<path fill="#3D2C70" d="M44.83,9.69c0,2.46-1.2,4.26-3.16,4.26c-0.78,0-1.44-0.27-1.94-0.84v3.66l-2.37,0.26V5.73h2.08l0.12,0.89
		c0.66-0.83,1.52-1.14,2.25-1.14C43.92,5.48,44.83,7.11,44.83,9.69z M42.37,9.72c0-1.98-0.48-2.5-1.31-2.5
		c-0.51,0-0.99,0.34-1.33,0.93v3.36c0.33,0.48,0.72,0.71,1.21,0.71C41.83,12.21,42.37,11.51,42.37,9.72z"/>
	<path fill="#3D2C70" d="M46.24,11.67v-9.1l2.37-0.26v9.27c0,0.33,0.12,0.49,0.4,0.49c0.17,0,0.29-0.03,0.39-0.07l0.46,1.68
		c-0.36,0.15-0.87,0.27-1.44,0.27C47.05,13.95,46.24,13.13,46.24,11.67z"/>
	<path fill="#3D2C70" d="M57.52,10.41H52.6c0.15,1.42,0.83,1.81,1.8,1.81c0.65,0,1.21-0.23,1.9-0.71l0.98,1.32
		c-0.79,0.63-1.81,1.11-3.1,1.11c-2.65,0-4-1.71-4-4.2c0-2.38,1.31-4.27,3.72-4.27c2.28,0,3.67,1.5,3.67,4.08
		C57.56,9.81,57.55,10.17,57.52,10.41z M55.24,8.88c-0.02-1.08-0.35-1.83-1.29-1.83c-0.79,0-1.25,0.49-1.36,1.93h2.65V8.88z"/>
	<path fill="#3D2C70" d="M69.62,2.57V13.7h-2.1l-0.12-0.93c-0.45,0.66-1.18,1.19-2.26,1.19c-2.02,0-3.03-1.68-3.03-4.26
		c0-2.46,1.24-4.21,3.3-4.21c0.72,0,1.36,0.29,1.84,0.75V2.31L69.62,2.57z M67.25,11.33V7.88C66.9,7.46,66.54,7.2,66.02,7.2
		c-0.85,0-1.46,0.72-1.46,2.5c0,1.98,0.54,2.5,1.32,2.5C66.44,12.21,66.88,11.91,67.25,11.33z"/>
	<path fill="#3D2C70" d="M78.35,12.36l-0.5,1.54c-0.93-0.08-1.54-0.36-1.92-1.14c-0.57,0.87-1.46,1.19-2.4,1.19
		c-1.59,0-2.59-1.03-2.59-2.49c0-1.74,1.32-2.69,3.73-2.69h0.81V8.43c0-0.95-0.37-1.23-1.35-1.23c-0.51,0-1.29,0.15-2.08,0.42
		l-0.54-1.56c1-0.38,2.1-0.58,3-0.58c2.31,0,3.3,0.98,3.3,2.82v3.09C77.81,12,77.98,12.23,78.35,12.36z M75.49,11.51v-1.42H74.9
		c-1.08,0-1.6,0.38-1.6,1.17c0,0.63,0.34,1,0.93,1C74.77,12.26,75.21,11.97,75.49,11.51z"/>
	<path fill="#3D2C70" d="M84.7,13.32c-0.6,0.42-1.44,0.63-2.16,0.63c-1.75-0.01-2.61-1-2.61-2.88V7.38H78.8V5.73h1.12V4.01
		l2.37-0.27v1.99h1.83l-0.26,1.65H82.3v3.66c0,0.76,0.25,1.03,0.75,1.03c0.27,0,0.54-0.07,0.85-0.27L84.7,13.32z"/>
	<path fill="#3D2C70" d="M92.36,12.36l-0.5,1.54c-0.93-0.08-1.54-0.36-1.92-1.14c-0.57,0.87-1.46,1.19-2.4,1.19
		c-1.59,0-2.59-1.03-2.59-2.49c0-1.74,1.32-2.69,3.73-2.69h0.81V8.43c0-0.95-0.38-1.23-1.35-1.23c-0.51,0-1.29,0.15-2.08,0.42
		l-0.54-1.56c1-0.38,2.1-0.58,3-0.58c2.31,0,3.3,0.98,3.3,2.82v3.09C91.82,12,91.99,12.23,92.36,12.36z M89.5,11.51v-1.42h-0.58
		c-1.08,0-1.6,0.38-1.6,1.17c0,0.63,0.34,1,0.93,1C88.78,12.26,89.21,11.97,89.5,11.51z"/>
	<path fill="#3D2C70" d="M104.74,9.69c0,2.46-1.2,4.26-3.17,4.26c-0.78,0-1.44-0.27-1.94-0.84v3.66l-2.37,0.26V5.73h2.08l0.12,0.89
		c0.66-0.83,1.52-1.14,2.25-1.14C103.82,5.48,104.74,7.11,104.74,9.69z M102.28,9.72c0-1.98-0.48-2.5-1.31-2.5
		c-0.51,0-0.99,0.34-1.33,0.93v3.36c0.33,0.48,0.72,0.71,1.21,0.71C101.74,12.21,102.28,11.51,102.28,9.72z"/>
	<path fill="#3D2C70" d="M113.57,9.72c0,2.55-1.47,4.23-3.9,4.23c-2.42,0-3.9-1.56-3.9-4.24c0-2.55,1.47-4.23,3.9-4.23
		C112.1,5.48,113.57,7.04,113.57,9.72z M108.23,9.71c0,1.77,0.48,2.5,1.44,2.5s1.44-0.77,1.44-2.49c0-1.77-0.48-2.5-1.44-2.5
		S108.23,7.98,108.23,9.71z"/>
	<path fill="#3D2C70" d="M122.12,2.57V13.7h-2.1l-0.12-0.93c-0.45,0.66-1.18,1.19-2.26,1.19c-2.02,0-3.03-1.68-3.03-4.26
		c0-2.46,1.24-4.21,3.3-4.21c0.72,0,1.36,0.29,1.84,0.75V2.31L122.12,2.57z M119.75,11.33V7.88c-0.36-0.42-0.72-0.67-1.23-0.67
		c-0.85,0-1.46,0.72-1.46,2.5c0,1.98,0.54,2.5,1.32,2.5C118.94,12.21,119.38,11.91,119.75,11.33z"/>
	<path fill="#3D2C70" d="M129.71,6.45l-0.87,1.33c-0.61-0.39-1.27-0.62-1.96-0.62c-0.65,0-0.96,0.24-0.96,0.6
		c0,0.42,0.21,0.6,1.64,1.02c1.57,0.45,2.46,1.11,2.46,2.53c0,1.65-1.56,2.62-3.54,2.62c-1.38,0-2.55-0.48-3.33-1.19l1.16-1.29
		c0.6,0.46,1.33,0.78,2.11,0.78c0.72,0,1.15-0.27,1.15-0.75c0-0.54-0.24-0.71-1.68-1.11c-1.58-0.45-2.35-1.26-2.35-2.49
		c0-1.37,1.25-2.43,3.25-2.43C127.94,5.48,128.98,5.85,129.71,6.45z"/>
	<path fill="#3D2C70" d="M45.41,27.69c0,2.46-1.2,4.26-3.17,4.26c-0.78,0-1.44-0.27-1.94-0.84v3.66l-2.37,0.26V23.73h2.08l0.12,0.89
		c0.66-0.83,1.52-1.14,2.25-1.14C44.49,23.48,45.41,25.11,45.41,27.69z M42.95,27.72c0-1.98-0.48-2.5-1.31-2.5
		c-0.51,0-0.99,0.34-1.33,0.93v3.36c0.33,0.48,0.72,0.71,1.21,0.71C42.41,30.21,42.95,29.51,42.95,27.72z"/>
	<path fill="#3D2C70" d="M53.79,28.41h-4.92c0.15,1.42,0.83,1.81,1.8,1.81c0.65,0,1.21-0.23,1.9-0.71l0.98,1.32
		c-0.79,0.63-1.81,1.11-3.1,1.11c-2.65,0-4-1.71-4-4.2c0-2.38,1.31-4.27,3.72-4.27c2.28,0,3.67,1.5,3.67,4.08
		C53.84,27.81,53.82,28.17,53.79,28.41z M51.51,26.88c-0.02-1.08-0.35-1.83-1.29-1.83c-0.79,0-1.25,0.49-1.36,1.93h2.65V26.88z"/>
	<path fill="#3D2C70" d="M60.32,23.61l-0.38,2.29c-0.26-0.06-0.45-0.1-0.72-0.1c-0.98,0-1.4,0.72-1.65,1.92v3.97H55.2v-7.96h2.07
		l0.19,1.53c0.36-1.1,1.14-1.75,2.06-1.75C59.82,23.51,60.06,23.54,60.32,23.61z"/>
	<path fill="#3D2C70" d="M71.49,31.7h-2.06l-0.1-1c-0.58,0.84-1.36,1.26-2.42,1.26c-1.48,0-2.22-0.96-2.22-2.5v-5.71h2.37v5.42
		c0,0.81,0.27,1.05,0.76,1.05s0.94-0.33,1.29-0.93v-5.54h2.37V31.7z"/>
	<path fill="#3D2C70" d="M79.08,24.45l-0.87,1.33c-0.61-0.39-1.27-0.62-1.96-0.62c-0.65,0-0.96,0.24-0.96,0.6
		c0,0.42,0.21,0.6,1.64,1.02c1.57,0.45,2.46,1.11,2.46,2.53c0,1.65-1.56,2.62-3.54,2.62c-1.38,0-2.55-0.48-3.33-1.19l1.16-1.29
		c0.6,0.46,1.33,0.78,2.11,0.78c0.72,0,1.15-0.27,1.15-0.75c0-0.54-0.24-0.71-1.68-1.11c-1.58-0.45-2.35-1.26-2.35-2.49
		c0-1.37,1.25-2.43,3.25-2.43C77.31,23.48,78.35,23.85,79.08,24.45z"/>
	<path fill="#3D2C70" d="M87.5,28.41h-4.92c0.15,1.42,0.83,1.81,1.8,1.81c0.65,0,1.21-0.23,1.9-0.71l0.98,1.32
		c-0.79,0.63-1.81,1.11-3.1,1.11c-2.65,0-4-1.71-4-4.2c0-2.38,1.31-4.27,3.72-4.27c2.28,0,3.67,1.5,3.67,4.08
		C87.54,27.81,87.53,28.17,87.5,28.41z M85.22,26.88c-0.02-1.08-0.35-1.83-1.29-1.83c-0.79,0-1.25,0.49-1.36,1.93h2.65V26.88z"/>
	<path fill="#3D2C70" d="M94.02,23.61l-0.38,2.29c-0.26-0.06-0.45-0.1-0.72-0.1c-0.98,0-1.4,0.72-1.65,1.92v3.97h-2.37v-7.96h2.07
		l0.19,1.53c0.36-1.1,1.14-1.75,2.06-1.75C93.53,23.51,93.77,23.54,94.02,23.61z"/>
</g>
<g>
	<path fill="#3D2C70" d="M49.33,68.23l-0.89,0.82c-0.66-0.66-1.33-0.9-2.14-0.9c-1.12,0-2.13,0.6-2.13,1.68
		c0,0.78,0.42,1.19,1.93,1.69c1.44,0.45,2.7,1.06,2.7,2.83c0,1.29-0.93,3.31-4.05,3.31c-1.52,0-2.61-0.54-3.35-1.38l0.9-0.84
		c0.62,0.68,1.38,1.05,2.48,1.05c1.32,0,2.55-0.72,2.55-2.07c0-0.9-0.48-1.3-1.9-1.8c-1.75-0.54-2.7-1.26-2.7-2.74
		c0-1.19,1.03-2.91,3.54-2.91C47.64,66.99,48.57,67.44,49.33,68.23z"/>
	<path fill="#3D2C70" d="M57.4,72.69c0,1.91-0.98,5-4.08,5c-1.97,0-3.03-1.26-3.03-3.27c0-1.95,1.01-4.99,4.1-4.99
		C56.35,69.42,57.4,70.68,57.4,72.69z M51.73,74.56c0,1.38,0.57,2.01,1.64,2.01c2.05,0,2.59-2.52,2.59-4.03
		c0-1.38-0.57-2.01-1.62-2.01C52.29,70.53,51.73,73.05,51.73,74.56z"/>
	<path fill="#3D2C70" d="M60.55,75.96c-0.05,0.42,0.03,0.58,0.36,0.58c0.18,0,0.36-0.04,0.54-0.12l0.28,1
		c-0.4,0.18-0.75,0.26-1.09,0.26c-1.05,0-1.6-0.65-1.42-1.95l1.32-9.31l1.38-0.17L60.55,75.96z"/>
	<path fill="#3D2C70" d="M64.72,77.5h-1.36l1.11-7.9h1.37L64.72,77.5z M66.49,66.82c-0.07,0.5-0.46,0.85-1.02,0.85
		c-0.6,0-0.94-0.45-0.87-1c0.07-0.51,0.48-0.87,1.02-0.87C66.24,65.8,66.57,66.25,66.49,66.82z"/>
	<path fill="#3D2C70" d="M75.16,66.43L73.6,77.5h-1.2l0.02-1.31c-0.56,0.92-1.37,1.49-2.39,1.49c-1.63,0-2.5-1.23-2.5-3.14
		c0-2.04,0.98-5.13,3.67-5.13c0.93,0,1.59,0.43,2.02,0.99l0.58-4.12L75.16,66.43z M68.98,74.65c0,1.33,0.5,1.94,1.32,1.94
		c0.98,0,1.62-0.72,2.33-1.83l0.46-3.28c-0.4-0.61-0.9-0.96-1.63-0.96C69.54,70.51,68.98,73.08,68.98,74.65z"/>
</g>
</svg>
