<?xml version="1.0" encoding="utf-8"?>
<!DOCTYPE svg PUBLIC "-//W3C//DTD SVG 1.1//EN" "http://www.w3.org/Graphics/SVG/1.1/DTD/svg11.dtd">
<svg version="1.1" xmlns="http://www.w3.org/2000/svg" xmlns:xlink="http://www.w3.org/1999/xlink" width="640" height="400">
<symbol id="Avatar" viewBox="-16 -16 31.99 31.99">
	<path fill="#D8D5E2" d="M16,0c0-8.83-7.16-16-16-16S-16-8.83-16,0s7.16,16,16,16S16,8.83,16,0z"/>
	<path fill="#8B80A9" d="M9.63,0.98c0,5.31-4.3,9.62-9.62,9.62S-9.6,6.29-9.6,0.98c0-3.54,1.62-6.12,4.47-7.79L-9-13.22
		C-6.44-14.97-3.34-16,0-16c3.53,0,6.78,1.16,9.43,3.09L5.29-7.05C7.91-5.34,9.63-2.38,9.63,0.98z"/>
</symbol>
<symbol id="Like" viewBox="-8.25 -8.62 16.5 17.25">
	<path fill-rule="evenodd" clip-rule="evenodd" fill="#3D2C70" d="M6.74,0c1.3,0.19,1.58,0.75,1.5,1.34C7.14,3.76,4.5,2.2,2.48,2.7
		C2.33,3.06,2.51,3.45,2.57,3.8c0.28,1.82-0.11,4.46-2.28,4.82C0.13,8.58-0.05,8.61-0.2,8.52c-0.17-0.12-0.34-0.28-0.4-0.49
		c-0.03-0.71,0-1.43-0.01-2.14c-0.58-1.85-1.34-4.02-3.13-5c-0.05-0.01-0.1-0.01-0.15-0.02c-0.02,0.05-0.05,0.09-0.08,0.15
		c-0.08,0.62-0.19,1.42-0.95,1.58c-1.74-0.01-0.73,0.03-2.47-0.02C-7.54,2.51-7.7,2.42-7.86,2.33c-0.57-0.85-0.35-1.89-0.35-3.1
		c0-2.29-0.05-5.21,0.06-7.1c0.11-0.35,0.41-0.62,0.76-0.71c1.68-0.09,0.6-0.02,2.29-0.04c0.39,0.02,0.7,0.26,0.92,0.57
		c0.12,0.25,0.13,0.54,0.26,0.79c0.02,0.04,0.05,0.08,0.06,0.1C-3.8-7.17-3.75-7.18-3.7-7.19c0.08-0.02,0.13-0.03,0.17-0.04
		c0.35-0.19,0.7-0.42,1.09-0.51C0.27-7.8,2.62-7.95,5.72-7.63c0.93,0.27,2.66,1.42,0.33,2.26c1.76,0.23,2.62,1.8,0.61,2.42
		C8.43-2.42,8.67-0.58,6.74,0z"/>
</symbol>
<g id="Post">
	<rect x="320" y="300" fill="#E8E6EE" width="320" height="100"/>
	<rect x="400.65" y="21.52" fill="#3D2C70" width="40.51" height="14.12"/>
	<rect x="343.38" y="73.32" fill="#3D2C70" width="273.18" height="5.34"/>
	<polygon fill="#3D2C70" points="609.85,252.28 350.88,252.16 350.88,238.61 609.85,238.73"/>
	<rect x="343.38" y="91.15" fill="#3D2C70" width="273.18" height="5.34"/>
	<rect x="343.38" y="108.97" fill="#3D2C70" width="273.18" height="5.34"/>
	<rect x="343.38" y="126.8" fill="#3D2C70" width="273.18" height="5.34"/>
	<rect x="400.65" y="44.96" fill="#B1ABC6" width="119.06" height="14.12"/>
	<polygon fill="#EFEEF3" points="616.57,232.62 343.74,232.5 343.74,145.08 616.57,145.2"/>
	<rect x="449.02" y="21.52" fill="#3D2C70" width="70.7" height="14.12"/>
	<rect x="378.12" y="313.88" fill="#3D2C70" width="17.38" height="7.06"/>
	<rect x="399.43" y="313.88" fill="#3D2C70" width="38.23" height="7.06"/>
	<use xlink:href="#Like" width="16.5" height="17.25" x="-8.25" y="-8.62" transform="matrix(1.4388 0 0 -1.4388 355.249 278.9639)" overflow="visible"/>
	<use xlink:href="#Like" width="16.5" height="17.25" x="-8.25" y="-8.62" transform="matrix(1.4388 0 0 -1.4388 383.3066 278.9639)" overflow="visible"/>
	<use xlink:href="#Like" width="16.5" height="17.25" x="-8.25" y="-8.62" transform="matrix(0.7475 0 0 -0.7475 384.8398 347.3027)" overflow="visible"/>
	<use xlink:href="#Like" width="16.5" height="17.25" x="-8.25" y="-8.62" transform="matrix(0.7475 0 0 -0.7475 399.415 347.3027)" overflow="visible"/>
	<use xlink:href="#Like" width="16.5" height="17.25" x="-8.25" y="-8.62" transform="matrix(1.4388 0 0 -1.4388 410.4756 278.9639)" overflow="visible"/>
	<use xlink:href="#Like" width="16.5" height="17.25" x="-8.25" y="-8.62" transform="matrix(1.4388 0 0 -1.4388 438.5879 278.9639)" overflow="visible"/>
	<use xlink:href="#Like" width="16.5" height="17.25" x="-8.25" y="-8.62" transform="matrix(1.4388 0 0 -1.4388 466.7354 278.9639)" overflow="visible"/>
	<use xlink:href="#Avatar" width="31.99" height="31.99" x="-16" y="-16" transform="matrix(1.4388 0 0 -1.4388 364.957 40.6411)" overflow="visible"/>
	<use xlink:href="#Avatar" width="31.99" height="31.99" x="-16" y="-16" transform="matrix(0.9309 0 0 -0.9309 357.6035 324.8877)" overflow="visible"/>
	<polygon fill="#D8D5E2" points="387.97,232.5 410.17,188.79 445.18,201.44 483.07,184.41 536.31,194.49 566.52,180.58 597.04,170.56 616.57,210.43 616.57,232.62"/>
	<polygon fill="none" stroke="#3D2C70" points="616.57,257.91 343.38,257.79 343.38,145.08 616.57,145.2"/>
	<rect x="378.13" y="324.89" fill="#B1ABC6" width="238.68" height="4.5"/>
	<rect x="400.73" y="363.76" fill="#3D2C70" width="23.13" height="7.06"/>
	<rect x="427.79" y="363.76" fill="#3D2C70" width="32.47" height="7.06"/>
	<use xlink:href="#Avatar" width="31.99" height="31.99" x="-16" y="-16" transform="matrix(0.9309 0 0 -0.9309 380.2109 374.7686)" overflow="visible"/>
	<rect x="378.13" y="332.77" fill="#B1ABC6" width="238.68" height="4.5"/>
	<rect x="400.68" y="374.77" fill="#B1ABC6" width="216.13" height="4.5"/>
	<rect x="400.68" y="382.65" fill="#B1ABC6" width="216.13" height="4.5"/>
	<path fill="#3D2C70" d="M639,1v398H321V1H639 M640,0H320v400h320V0L640,0z"/>
</g>
<g id="Annotations">
	<g>
		<path fill="#3D2C70" d="M26.48,32.34h-3.04l-0.52,2.23h-2.55l3.13-10.39h2.98l3.13,10.39H27L26.48,32.34z M26.04,30.56l-1.09-4.59
			l-1.1,4.59H26.04z"/>
		<path fill="#3D2C70" d="M36.95,34.58h-2.06l-0.1-1c-0.58,0.84-1.36,1.26-2.42,1.26c-1.48,0-2.22-0.96-2.22-2.5v-5.71h2.37v5.42
			c0,0.81,0.27,1.05,0.76,1.05s0.94-0.33,1.29-0.93v-5.54h2.37V34.58z"/>
		<path fill="#3D2C70" d="M43.8,34.2c-0.6,0.42-1.44,0.63-2.16,0.63c-1.75-0.01-2.61-1-2.61-2.88v-3.69h-1.12v-1.65h1.12v-1.72
			l2.37-0.27v1.99h1.83l-0.26,1.65H41.4v3.66c0,0.76,0.25,1.03,0.75,1.03c0.27,0,0.54-0.07,0.85-0.27L43.8,34.2z"/>
		<path fill="#3D2C70" d="M51.47,28.76v5.82H49.1v-5.41c0-0.84-0.3-1.06-0.75-1.06c-0.52,0-0.96,0.37-1.38,1.02v5.46H44.6V23.45
			l2.37-0.24v4.25c0.65-0.72,1.37-1.1,2.29-1.1C50.64,26.36,51.47,27.24,51.47,28.76z"/>
		<path fill="#3D2C70" d="M60.6,30.6c0,2.55-1.47,4.23-3.9,4.23c-2.42,0-3.9-1.56-3.9-4.24c0-2.55,1.47-4.23,3.9-4.23
			C59.13,26.36,60.6,27.92,60.6,30.6z M55.26,30.59c0,1.77,0.48,2.5,1.44,2.5s1.44-0.77,1.44-2.49c0-1.77-0.48-2.5-1.44-2.5
			S55.26,28.86,55.26,30.59z"/>
		<path fill="#3D2C70" d="M67.13,26.49l-0.38,2.29c-0.26-0.06-0.45-0.1-0.72-0.1c-0.98,0-1.4,0.72-1.65,1.92v3.97h-2.37v-7.96h2.07 l0.19,1.53c0.36-1.1,1.14-1.75,2.06-1.75C66.63,26.39,66.87,26.42,67.13,26.49z"/>
		<path fill="#3D2C70" d="M70.92,24.3c0,0.39-0.12,0.75-0.43,1.39l-0.96,1.98h-1.22l0.63-2.35c-0.34-0.24-0.55-0.56-0.55-1.04
			c0-0.67,0.55-1.2,1.27-1.2C70.38,23.09,70.92,23.61,70.92,24.3z"/>
		<path fill="#3D2C70" d="M78.15,27.33l-0.87,1.33c-0.61-0.39-1.27-0.62-1.96-0.62c-0.65,0-0.96,0.24-0.96,0.6
			c0,0.42,0.21,0.6,1.64,1.02c1.57,0.45,2.46,1.11,2.46,2.53c0,1.65-1.56,2.62-3.54,2.62c-1.38,0-2.55-0.48-3.33-1.19l1.16-1.29
			c0.6,0.46,1.33,0.78,2.11,0.78c0.72,0,1.15-0.27,1.15-0.75c0-0.54-0.24-0.71-1.68-1.11c-1.58-0.45-2.35-1.26-2.35-2.49
			c0-1.37,1.25-2.43,3.25-2.43C76.38,26.36,77.42,26.73,78.15,27.33z"/>
		<path fill="#3D2C70" d="M90.09,28.76v5.82h-2.37v-5.41c0-0.84-0.28-1.06-0.75-1.06c-0.52,0-0.96,0.37-1.38,1.03v5.44h-2.37v-7.96
			h2.07l0.17,0.95c0.67-0.78,1.44-1.2,2.43-1.2C89.27,26.36,90.09,27.24,90.09,28.76z"/>
		<path fill="#3D2C70" d="M98.75,33.24l-0.5,1.54c-0.93-0.08-1.54-0.36-1.92-1.14c-0.57,0.87-1.46,1.19-2.4,1.19
			c-1.59,0-2.59-1.03-2.59-2.49c0-1.74,1.32-2.69,3.73-2.69h0.81v-0.34c0-0.95-0.37-1.23-1.35-1.23c-0.51,0-1.29,0.15-2.08,0.42
			l-0.54-1.56c1-0.38,2.1-0.58,3-0.58c2.31,0,3.3,0.98,3.3,2.82v3.09C98.21,32.88,98.37,33.11,98.75,33.24z M95.88,32.39v-1.42H95.3
			c-1.08,0-1.6,0.38-1.6,1.17c0,0.63,0.34,1,0.93,1C95.16,33.14,95.6,32.85,95.88,32.39z"/>
		<path fill="#3D2C70" d="M110.99,28.76v5.82h-2.37v-5.41c0-0.84-0.31-1.06-0.68-1.06c-0.51,0-0.87,0.37-1.21,1.03v5.44h-2.37v-5.41
			c0-0.84-0.31-1.06-0.68-1.06c-0.49,0-0.87,0.37-1.21,1.03v5.44h-2.37v-7.96h2.07l0.17,0.93c0.61-0.78,1.33-1.19,2.31-1.19
			c0.89,0,1.56,0.45,1.88,1.26c0.63-0.82,1.37-1.26,2.38-1.26C110.13,26.36,110.99,27.24,110.99,28.76z"/>
		<path fill="#3D2C70" d="M119.67,31.29h-4.92c0.15,1.42,0.83,1.81,1.8,1.81c0.65,0,1.21-0.23,1.9-0.71l0.98,1.32
			c-0.79,0.63-1.81,1.11-3.1,1.11c-2.65,0-4-1.71-4-4.2c0-2.38,1.31-4.27,3.72-4.27c2.28,0,3.67,1.5,3.67,4.08
			C119.72,30.69,119.7,31.05,119.67,31.29z M117.39,29.76c-0.02-1.08-0.35-1.83-1.29-1.83c-0.79,0-1.25,0.49-1.36,1.93h2.65V29.76z"/>
		<path fill="#3D2C70" d="M131.51,33.24l-0.5,1.54c-0.93-0.08-1.54-0.36-1.92-1.14c-0.57,0.87-1.46,1.19-2.4,1.19
			c-1.59,0-2.59-1.03-2.59-2.49c0-1.74,1.32-2.69,3.73-2.69h0.81v-0.34c0-0.95-0.38-1.23-1.35-1.23c-0.51,0-1.29,0.15-2.08,0.42
			l-0.54-1.56c1-0.38,2.1-0.58,3-0.58c2.31,0,3.3,0.98,3.3,2.82v3.09C130.97,32.88,131.13,33.11,131.51,33.24z M128.64,32.39v-1.42
			h-0.58c-1.08,0-1.6,0.38-1.6,1.17c0,0.63,0.34,1,0.93,1C127.92,33.14,128.36,32.85,128.64,32.39z"/>
		<path fill="#3D2C70" d="M139.73,28.76v5.82h-2.37v-5.41c0-0.84-0.28-1.06-0.75-1.06c-0.52,0-0.96,0.37-1.38,1.03v5.44h-2.37v-7.96
			h2.07l0.17,0.95c0.67-0.78,1.44-1.2,2.43-1.2C138.9,26.36,139.73,27.24,139.73,28.76z"/>
		<path fill="#3D2C70" d="M148.65,23.45v11.13h-2.1l-0.12-0.93c-0.45,0.66-1.18,1.19-2.26,1.19c-2.02,0-3.03-1.68-3.03-4.26
			c0-2.46,1.24-4.21,3.3-4.21c0.72,0,1.36,0.29,1.84,0.75v-3.92L148.65,23.45z M146.28,32.21v-3.45c-0.36-0.42-0.72-0.67-1.23-0.67
			c-0.85,0-1.46,0.72-1.46,2.5c0,1.98,0.54,2.5,1.32,2.5C145.47,33.09,145.91,32.79,146.28,32.21z"/>
		<path fill="#3D2C70" d="M153.99,32.55v-9.1l2.37-0.26v9.27c0,0.33,0.12,0.49,0.4,0.49c0.17,0,0.29-0.03,0.39-0.07l0.46,1.68
			c-0.36,0.15-0.87,0.27-1.44,0.27C154.8,34.83,153.99,34.01,153.99,32.55z"/>
		<path fill="#3D2C70" d="M165.39,33.24l-0.5,1.54c-0.93-0.08-1.54-0.36-1.92-1.14c-0.57,0.87-1.46,1.19-2.4,1.19
			c-1.59,0-2.59-1.03-2.59-2.49c0-1.74,1.32-2.69,3.73-2.69h0.81v-0.34c0-0.95-0.38-1.23-1.35-1.23c-0.51,0-1.29,0.15-2.08,0.42
			l-0.54-1.56c1-0.38,2.1-0.58,3-0.58c2.31,0,3.3,0.98,3.3,2.82v3.09C164.85,32.88,165.02,33.11,165.39,33.24z M162.53,32.39v-1.42
			h-0.58c-1.08,0-1.6,0.38-1.6,1.17c0,0.63,0.34,1,0.93,1C161.81,33.14,162.24,32.85,162.53,32.39z"/>
		<path fill="#3D2C70" d="M171.74,34.2c-0.6,0.42-1.44,0.63-2.16,0.63c-1.75-0.01-2.61-1-2.61-2.88v-3.69h-1.12v-1.65h1.12v-1.72
			l2.37-0.27v1.99h1.83l-0.26,1.65h-1.57v3.66c0,0.76,0.25,1.03,0.75,1.03c0.27,0,0.54-0.07,0.85-0.27L171.74,34.2z"/>
		<path fill="#3D2C70" d="M179.28,31.29h-4.92c0.15,1.42,0.83,1.81,1.8,1.81c0.65,0,1.21-0.23,1.9-0.71l0.98,1.32
			c-0.79,0.63-1.81,1.11-3.1,1.11c-2.65,0-4-1.71-4-4.2c0-2.38,1.31-4.27,3.72-4.27c2.28,0,3.67,1.5,3.67,4.08
			C179.33,30.69,179.31,31.05,179.28,31.29z M177,29.76c-0.02-1.08-0.35-1.83-1.29-1.83c-0.79,0-1.25,0.49-1.36,1.93H177V29.76z"/>
		<path fill="#3D2C70" d="M186.42,27.33l-0.87,1.33c-0.61-0.39-1.27-0.62-1.96-0.62c-0.65,0-0.96,0.24-0.96,0.6
			c0,0.42,0.21,0.6,1.64,1.02c1.57,0.45,2.46,1.11,2.46,2.53c0,1.65-1.56,2.62-3.54,2.62c-1.38,0-2.55-0.48-3.33-1.19l1.16-1.29
			c0.6,0.46,1.33,0.78,2.11,0.78c0.72,0,1.15-0.27,1.15-0.75c0-0.54-0.24-0.71-1.68-1.11c-1.58-0.45-2.35-1.26-2.35-2.49
			c0-1.37,1.25-2.43,3.25-2.43C184.65,26.36,185.69,26.73,186.42,27.33z"/>
		<path fill="#3D2C70" d="M192.93,34.2c-0.6,0.42-1.44,0.63-2.16,0.63c-1.75-0.01-2.61-1-2.61-2.88v-3.69h-1.12v-1.65h1.12v-1.72
			l2.37-0.27v1.99h1.83l-0.26,1.65h-1.57v3.66c0,0.76,0.25,1.03,0.75,1.03c0.27,0,0.54-0.07,0.85-0.27L192.93,34.2z"/>
		<path fill="#3D2C70" d="M204.75,30.57c0,2.46-1.2,4.26-3.16,4.26c-0.78,0-1.44-0.27-1.94-0.84v3.66l-2.37,0.26V26.61h2.08
			l0.12,0.89c0.66-0.83,1.52-1.14,2.25-1.14C203.84,26.36,204.75,27.99,204.75,30.57z M202.29,30.6c0-1.98-0.48-2.5-1.31-2.5
			c-0.51,0-0.99,0.34-1.33,0.93v3.36c0.33,0.48,0.72,0.71,1.21,0.71C201.75,33.09,202.29,32.39,202.29,30.6z"/>
		<path fill="#3D2C70" d="M211.35,26.49l-0.38,2.29c-0.26-0.06-0.45-0.1-0.72-0.1c-0.98,0-1.4,0.72-1.65,1.92v3.97h-2.37v-7.96h2.07
			l0.19,1.53c0.36-1.1,1.14-1.75,2.06-1.75C210.86,26.39,211.1,26.42,211.35,26.49z"/>
		<path fill="#3D2C70" d="M219.45,30.6c0,2.55-1.47,4.23-3.9,4.23c-2.42,0-3.9-1.56-3.9-4.24c0-2.55,1.47-4.23,3.9-4.23
			C217.98,26.36,219.45,27.92,219.45,30.6z M214.11,30.59c0,1.77,0.48,2.5,1.44,2.5s1.44-0.77,1.44-2.49c0-1.77-0.48-2.5-1.44-2.5
			S214.11,28.86,214.11,30.59z"/>
		<path fill="#3D2C70" d="M227.15,23.79l-0.66,1.52c-0.48-0.2-1.08-0.36-1.67-0.36c-0.99,0-1.26,0.3-1.26,1.06v0.6h4.42v7.96h-2.37
			v-6.31h-2.05v6.31h-2.37v-6.31h-1.21v-1.65h1.21v-0.69c0-1.53,0.95-2.73,3.31-2.73C225.62,23.19,226.5,23.48,227.15,23.79z"/>
		<path fill="#3D2C70" d="M229.77,32.55v-9.1l2.37-0.26v9.27c0,0.33,0.12,0.49,0.4,0.49c0.17,0,0.29-0.03,0.39-0.07l0.46,1.68
			c-0.36,0.15-0.87,0.27-1.44,0.27C230.58,34.83,229.77,34.01,229.77,32.55z"/>
		<path fill="#3D2C70" d="M241.05,31.29h-4.92c0.15,1.42,0.83,1.81,1.8,1.81c0.65,0,1.21-0.23,1.9-0.71l0.98,1.32
			c-0.79,0.63-1.81,1.11-3.1,1.11c-2.65,0-4-1.71-4-4.2c0-2.38,1.31-4.27,3.72-4.27c2.28,0,3.67,1.5,3.67,4.08
			C241.1,30.69,241.08,31.05,241.05,31.29z M238.77,29.76c-0.02-1.08-0.35-1.83-1.29-1.83c-0.79,0-1.25,0.49-1.36,1.93h2.65V29.76z"
			/>
		<path fill="#3D2C70" d="M253.48,30.57c0,2.46-1.2,4.26-3.16,4.26c-0.78,0-1.44-0.27-1.94-0.84v3.66l-2.37,0.26V26.61h2.08
			l0.12,0.89c0.66-0.83,1.52-1.14,2.25-1.14C252.57,26.36,253.48,27.99,253.48,30.57z M251.03,30.6c0-1.98-0.48-2.5-1.31-2.5
			c-0.51,0-0.99,0.34-1.33,0.93v3.36c0.33,0.48,0.72,0.71,1.21,0.71C250.49,33.09,251.03,32.39,251.03,30.6z"/>
		<path fill="#3D2C70" d="M257.55,23.76c0,0.76-0.58,1.35-1.41,1.35c-0.83,0-1.4-0.58-1.4-1.35c0-0.77,0.57-1.35,1.4-1.35
			C256.97,22.41,257.55,23,257.55,23.76z M257.34,34.58h-2.37v-7.96h2.37V34.58z"/>
		<path fill="#3D2C70" d="M265.38,27.33l-1.02,1.41c-0.51-0.39-0.98-0.57-1.52-0.57c-1.02,0-1.6,0.69-1.6,2.48
			c0,1.77,0.63,2.31,1.58,2.31c0.57,0,0.96-0.18,1.53-0.54l1.04,1.47c-0.74,0.58-1.59,0.94-2.69,0.94c-2.44,0-3.94-1.65-3.94-4.17
			c0-2.53,1.52-4.3,3.9-4.3C263.76,26.36,264.62,26.69,265.38,27.33z"/>
		<path fill="#3D2C70" d="M271.38,34.2c-0.6,0.42-1.44,0.63-2.16,0.63c-1.75-0.01-2.61-1-2.61-2.88v-3.69h-1.12v-1.65h1.12v-1.72
			l2.37-0.27v1.99h1.83l-0.26,1.65h-1.57v3.66c0,0.76,0.25,1.03,0.75,1.03c0.27,0,0.54-0.07,0.85-0.27L271.38,34.2z"/>
		<path fill="#3D2C70" d="M278.9,34.58h-2.05l-0.11-1c-0.58,0.84-1.36,1.26-2.42,1.26c-1.48,0-2.22-0.96-2.22-2.5v-5.71h2.37v5.42
			c0,0.81,0.27,1.05,0.76,1.05s0.95-0.33,1.29-0.93v-5.54h2.37V34.58z"/>
		<path fill="#3D2C70" d="M285.87,26.49l-0.38,2.29c-0.25-0.06-0.45-0.1-0.72-0.1c-0.98,0-1.4,0.72-1.65,1.92v3.97h-2.37v-7.96h2.07
			l0.2,1.53c0.36-1.1,1.14-1.75,2.05-1.75C285.37,26.39,285.61,26.42,285.87,26.49z"/>
		<path fill="#3D2C70" d="M293.52,31.29h-4.92c0.15,1.42,0.82,1.81,1.8,1.81c0.64,0,1.21-0.23,1.9-0.71l0.98,1.32
			c-0.79,0.63-1.82,1.11-3.11,1.11c-2.65,0-4-1.71-4-4.2c0-2.38,1.31-4.27,3.72-4.27c2.28,0,3.67,1.5,3.67,4.08
			C293.56,30.69,293.55,31.05,293.52,31.29z M291.24,29.76c-0.01-1.08-0.34-1.83-1.29-1.83c-0.79,0-1.25,0.49-1.37,1.93h2.66V29.76z"/>
		<path fill="#222222" d="M51.87,47.47l-0.66,0.83c-0.6-0.46-1.26-0.71-1.95-0.71c-0.96,0-1.57,0.4-1.57,1.06
			c0,0.63,0.52,0.87,1.59,1.2c1.48,0.46,2.23,1.12,2.23,2.37c0,1.75-1.63,2.54-3.28,2.54c-1.38,0-2.31-0.54-2.92-1.14l0.79-0.81
			c0.57,0.51,1.3,0.84,2.19,0.84c1.39,0,1.78-0.76,1.78-1.29c0-0.79-0.4-1.06-1.67-1.46c-1.51-0.46-2.11-1.08-2.11-2.16
			c0-1.05,0.93-2.25,2.98-2.25C50.37,46.49,51.2,46.87,51.87,47.47z"/>
		<path fill="#222222" d="M54.84,52.49c-0.12,0.79,0.06,1.11,0.71,1.11c0.36,0,0.69-0.12,1.11-0.36l0.45,0.99
			c-0.57,0.36-1.15,0.53-1.79,0.53c-1.36,0-2.05-0.83-1.84-2.29l0.66-4.73h-1.37l0.15-1.06h1.43l0.49-1.83l1.08-0.12l-0.27,1.95
			h1.86l-0.3,1.06H55.5L54.84,52.49z"/>
		<path fill="#222222" d="M65.31,49.76c0,1.91-0.98,5-4.08,5c-1.97,0-3.03-1.26-3.03-3.27c0-1.95,1.01-4.99,4.1-4.99
			C64.26,46.49,65.31,47.75,65.31,49.76z M59.64,51.64c0,1.38,0.57,2.01,1.64,2.01c2.05,0,2.59-2.52,2.59-4.03
			c0-1.38-0.57-2.01-1.62-2.01C60.2,47.6,59.64,50.12,59.64,51.64z"/>
		<path fill="#222222" d="M72.23,46.6l-0.4,1.33c-0.23-0.06-0.39-0.08-0.65-0.08c-1.02,0-1.71,0.93-2.27,2.53l-0.6,4.19h-1.36
			l1.11-7.9h1.17l-0.09,1.62c0.6-1.23,1.42-1.8,2.29-1.8C71.72,46.49,71.99,46.54,72.23,46.6z"/>
		<path fill="#222222" d="M73.88,51.64c0.03,1.44,0.71,1.96,1.71,1.96c0.74,0,1.4-0.23,2.12-0.73l0.58,0.93
			c-0.85,0.61-1.79,0.96-2.83,0.96c-1.94,0-3.02-1.22-3.02-3.21c0-2.16,1.06-5.05,4.06-5.05c1.68,0,2.5,0.96,2.5,2.01
			C79.01,50.72,76.64,51.34,73.88,51.64z M77.57,48.55c0-0.38-0.23-0.96-1.08-0.96c-1.65,0-2.34,1.56-2.53,3
			C76.22,50.33,77.57,49.9,77.57,48.55z"/>
		<path fill="#222222" d="M87.96,43.51L86.4,54.58h-1.2l0.02-1.31c-0.56,0.92-1.37,1.49-2.39,1.49c-1.63,0-2.5-1.23-2.5-3.14
			c0-2.04,0.98-5.13,3.67-5.13c0.93,0,1.59,0.43,2.02,0.99l0.58-4.12L87.96,43.51z M81.78,51.73c0,1.33,0.5,1.94,1.32,1.94
			c0.98,0,1.62-0.72,2.33-1.83l0.46-3.28c-0.4-0.61-0.9-0.96-1.63-0.96C82.34,47.59,81.78,50.15,81.78,51.73z"/>
		<path fill="#222222" d="M94.47,54.58h-1.36l1.11-7.9h1.37L94.47,54.58z M96.24,43.9c-0.07,0.5-0.46,0.85-1.02,0.85
			c-0.6,0-0.94-0.45-0.87-1c0.07-0.51,0.48-0.87,1.02-0.87C95.99,42.88,96.32,43.33,96.24,43.9z"/>
		<path fill="#222222" d="M104.03,49.03l-0.78,5.55h-1.36l0.78-5.52c0.15-1.11-0.24-1.41-0.84-1.41c-1,0-1.89,1.06-2.52,2.19
			l-0.65,4.74h-1.36l1.11-7.9h1.17l-0.12,1.54c0.74-1.03,1.6-1.72,2.75-1.72C103.52,46.49,104.25,47.45,104.03,49.03z"/>
		<path fill="#222222" d="M116.81,47.17l-0.85,5.61c-0.02,0.12-0.03,0.23-0.03,0.31c0,0.44,0.19,0.6,0.51,0.72l-0.39,0.95
			c-0.79-0.1-1.29-0.47-1.39-1.32c-0.62,0.79-1.43,1.32-2.35,1.32c-1.65,0-2.52-1.22-2.52-3.03c0-2.16,1.14-5.23,4.21-5.23
			C114.93,46.49,115.76,46.66,116.81,47.17z M111.24,51.74c0,1.32,0.5,1.92,1.38,1.92c0.84,0,1.46-0.63,2.07-1.46l0.66-4.36
			c-0.45-0.19-0.78-0.25-1.33-0.25C112.01,47.59,111.24,49.97,111.24,51.74z"/>
		<path fill="#222222" d="M124.23,54.58h-1.17l0.1-1.46c-0.73,1-1.52,1.64-2.61,1.64c-1.41,0-2.12-0.92-1.91-2.46l0.8-5.62h1.36
			l-0.78,5.56c-0.15,1.08,0.12,1.44,0.82,1.44c0.99,0,1.79-0.94,2.4-1.86l0.72-5.15h1.36L124.23,54.58z"/>
		<path fill="#222222" d="M128.79,52.49c-0.12,0.79,0.06,1.11,0.71,1.11c0.36,0,0.69-0.12,1.11-0.36l0.45,0.99
			c-0.57,0.36-1.15,0.53-1.79,0.53c-1.36,0-2.05-0.83-1.84-2.29l0.66-4.73h-1.37l0.15-1.06h1.43l0.49-1.83l1.08-0.12l-0.27,1.95
			h1.86l-0.3,1.06h-1.71L128.79,52.49z"/>
		<path fill="#222222" d="M139.13,48.98l-0.79,5.59h-1.36l0.78-5.52c0.15-1.11-0.23-1.41-0.79-1.41c-1.05,0-1.94,1.06-2.56,2.19
			l-0.65,4.74h-1.36l1.56-11.07l1.38-0.15l-0.69,4.8c0.66-0.99,1.51-1.66,2.61-1.66C138.62,46.49,139.34,47.45,139.13,48.98z"/>
		<path fill="#222222" d="M148.13,49.76c0,1.91-0.98,5-4.08,5c-1.97,0-3.03-1.26-3.03-3.27c0-1.95,1.01-4.99,4.1-4.99
			C147.08,46.49,148.13,47.75,148.13,49.76z M142.46,51.64c0,1.38,0.57,2.01,1.64,2.01c2.05,0,2.59-2.52,2.59-4.03
			c0-1.38-0.57-2.01-1.62-2.01C143.01,47.6,142.46,50.12,142.46,51.64z"/>
		<path fill="#222222" d="M155.04,46.6l-0.4,1.33c-0.23-0.06-0.39-0.08-0.65-0.08c-1.02,0-1.71,0.93-2.27,2.53l-0.6,4.19h-1.36
			l1.11-7.9h1.17l-0.09,1.62c0.6-1.23,1.42-1.8,2.29-1.8C154.53,46.49,154.8,46.54,155.04,46.6z"/>
		<path fill="#222222" d="M159,44.11c0,0.31-0.03,0.52-0.35,1.02l-1.3,2.1h-0.92l0.98-2.31c-0.21-0.15-0.33-0.38-0.33-0.69
			c0-0.54,0.45-0.94,1.04-0.94C158.64,43.28,159,43.64,159,44.11z"/>
		<path fill="#222222" d="M165.24,47.47l-0.66,0.83c-0.6-0.46-1.26-0.71-1.95-0.71c-0.96,0-1.57,0.4-1.57,1.06
			c0,0.63,0.52,0.87,1.59,1.2c1.48,0.46,2.23,1.12,2.23,2.37c0,1.75-1.63,2.54-3.28,2.54c-1.38,0-2.31-0.54-2.92-1.14l0.79-0.81
			c0.57,0.51,1.3,0.84,2.19,0.84c1.39,0,1.78-0.76,1.78-1.29c0-0.79-0.4-1.06-1.67-1.46c-1.51-0.46-2.11-1.08-2.11-2.16
			c0-1.05,0.93-2.25,2.98-2.25C163.74,46.49,164.57,46.87,165.24,47.47z"/>
		<path fill="#222222" d="M177.42,49.6c0,2.22-1.11,5.16-4.2,5.16c-0.54,0-1-0.09-1.5-0.26l-0.45,3.14l-1.37,0.18l1.56-11.14h1.17
			l-0.03,1c0.84-0.93,1.59-1.18,2.41-1.18C176.52,46.49,177.42,47.6,177.42,49.6z M172.55,48.73l-0.65,4.69
			c0.5,0.18,0.84,0.24,1.4,0.24c1.96,0,2.7-2.4,2.7-4.17c0-1.41-0.58-1.9-1.41-1.9C173.76,47.59,173.12,48.13,172.55,48.73z"/>
		<path fill="#222222" d="M180.48,51.64c0.03,1.44,0.71,1.96,1.71,1.96c0.74,0,1.4-0.23,2.12-0.73l0.58,0.93
			c-0.85,0.61-1.79,0.96-2.83,0.96c-1.94,0-3.02-1.22-3.02-3.21c0-2.16,1.06-5.05,4.06-5.05c1.68,0,2.5,0.96,2.5,2.01
			C185.61,50.72,183.24,51.34,180.48,51.64z M184.17,48.55c0-0.38-0.23-0.96-1.08-0.96c-1.65,0-2.34,1.56-2.53,3
			C182.82,50.33,184.17,49.9,184.17,48.55z"/>
		<path fill="#222222" d="M192.23,46.6l-0.4,1.33c-0.23-0.06-0.39-0.08-0.65-0.08c-1.02,0-1.71,0.93-2.27,2.53l-0.6,4.19h-1.36
			l1.11-7.9h1.17l-0.09,1.62c0.6-1.23,1.42-1.8,2.29-1.8C191.72,46.49,191.99,46.54,192.23,46.6z"/>
		<path fill="#222222" d="M198.2,47.47l-0.66,0.83c-0.6-0.46-1.26-0.71-1.95-0.71c-0.96,0-1.57,0.4-1.57,1.06
			c0,0.63,0.52,0.87,1.59,1.2c1.48,0.46,2.23,1.12,2.23,2.37c0,1.75-1.63,2.54-3.28,2.54c-1.38,0-2.31-0.54-2.92-1.14l0.79-0.81
			c0.57,0.51,1.3,0.84,2.19,0.84c1.39,0,1.78-0.76,1.78-1.29c0-0.79-0.4-1.06-1.67-1.46c-1.51-0.46-2.11-1.08-2.11-2.16
			c0-1.05,0.93-2.25,2.98-2.25C196.7,46.49,197.52,46.87,198.2,47.47z"/>
		<path fill="#222222" d="M206.46,49.76c0,1.91-0.98,5-4.08,5c-1.97,0-3.03-1.26-3.03-3.27c0-1.95,1.01-4.99,4.1-4.99
			C205.41,46.49,206.46,47.75,206.46,49.76z M200.79,51.64c0,1.38,0.57,2.01,1.64,2.01c2.05,0,2.59-2.52,2.59-4.03
			c0-1.38-0.57-2.01-1.62-2.01C201.35,47.6,200.79,50.12,200.79,51.64z"/>
		<path fill="#222222" d="M214.83,49.03l-0.78,5.55h-1.36l0.78-5.52c0.15-1.11-0.24-1.41-0.84-1.41c-1,0-1.89,1.06-2.52,2.19
			l-0.65,4.74h-1.36l1.11-7.9h1.17l-0.12,1.54c0.74-1.03,1.6-1.72,2.75-1.72C214.32,46.49,215.06,47.45,214.83,49.03z"/>
		<path fill="#222222" d="M223.73,47.17l-0.85,5.61c-0.02,0.12-0.03,0.23-0.03,0.31c0,0.44,0.19,0.6,0.51,0.72l-0.39,0.95
			c-0.79-0.1-1.29-0.47-1.39-1.32c-0.62,0.79-1.43,1.32-2.35,1.32c-1.65,0-2.52-1.22-2.52-3.03c0-2.16,1.14-5.23,4.21-5.23
			C221.85,46.49,222.68,46.66,223.73,47.17z M218.16,51.74c0,1.32,0.5,1.92,1.38,1.92c0.84,0,1.46-0.63,2.07-1.46l0.66-4.36
			c-0.45-0.19-0.78-0.25-1.33-0.25C218.93,47.59,218.16,49.97,218.16,51.74z"/>
		<path fill="#222222" d="M226.85,53.03c-0.05,0.42,0.03,0.58,0.36,0.58c0.18,0,0.36-0.04,0.54-0.12l0.28,1
			c-0.4,0.18-0.75,0.26-1.09,0.26c-1.05,0-1.6-0.65-1.42-1.95l1.32-9.31l1.38-0.17L226.85,53.03z"/>
		<path fill="#222222" d="M241.15,43.51l-1.56,11.07h-1.2l0.02-1.31c-0.56,0.92-1.37,1.49-2.39,1.49c-1.63,0-2.5-1.23-2.5-3.14
			c0-2.04,0.98-5.13,3.67-5.13c0.93,0,1.59,0.43,2.02,0.99l0.58-4.12L241.15,43.51z M234.98,51.73c0,1.33,0.5,1.94,1.32,1.94
			c0.98,0,1.62-0.72,2.33-1.83l0.46-3.28c-0.4-0.61-0.9-0.96-1.63-0.96C235.53,47.59,234.98,50.15,234.98,51.73z"/>
		<path fill="#222222" d="M249.35,47.17l-0.85,5.61c-0.02,0.12-0.03,0.23-0.03,0.31c0,0.44,0.19,0.6,0.51,0.72l-0.39,0.95
			c-0.79-0.1-1.29-0.47-1.39-1.32c-0.62,0.79-1.43,1.32-2.35,1.32c-1.65,0-2.52-1.22-2.52-3.03c0-2.16,1.14-5.23,4.21-5.23
			C247.47,46.49,248.3,46.66,249.35,47.17z M243.78,51.74c0,1.32,0.5,1.92,1.38,1.92c0.84,0,1.45-0.63,2.07-1.46l0.66-4.36
			c-0.45-0.19-0.78-0.25-1.33-0.25C244.55,47.59,243.78,49.97,243.78,51.74z"/>
		<path fill="#222222" d="M252.69,52.49c-0.12,0.79,0.06,1.11,0.71,1.11c0.36,0,0.69-0.12,1.11-0.36l0.45,0.99
			c-0.57,0.36-1.15,0.53-1.79,0.53c-1.36,0-2.05-0.83-1.84-2.29l0.66-4.73h-1.37l0.15-1.06h1.43l0.49-1.83l1.08-0.12l-0.27,1.95
			h1.86l-0.3,1.06h-1.71L252.69,52.49z"/>
		<path fill="#222222" d="M263.05,47.17l-0.85,5.61c-0.02,0.12-0.03,0.23-0.03,0.31c0,0.44,0.19,0.6,0.51,0.72l-0.39,0.95
			c-0.79-0.1-1.29-0.47-1.39-1.32c-0.62,0.79-1.43,1.32-2.35,1.32c-1.65,0-2.52-1.22-2.52-3.03c0-2.16,1.14-5.23,4.21-5.23
			C261.18,46.49,262,46.66,263.05,47.17z M257.49,51.74c0,1.32,0.5,1.92,1.38,1.92c0.84,0,1.46-0.63,2.07-1.46l0.66-4.36
			c-0.45-0.19-0.78-0.25-1.33-0.25C258.25,47.59,257.49,49.97,257.49,51.74z"/>
		<path fill="#222222" d="M275.61,49.6c0,2.22-1.11,5.16-4.2,5.16c-0.54,0-1-0.09-1.5-0.26l-0.45,3.14l-1.37,0.18l1.56-11.14h1.17
			l-0.03,1c0.84-0.93,1.59-1.18,2.41-1.18C274.71,46.49,275.61,47.6,275.61,49.6z M270.73,48.73l-0.65,4.69
			c0.5,0.18,0.84,0.24,1.4,0.24c1.96,0,2.7-2.4,2.7-4.17c0-1.41-0.58-1.9-1.41-1.9C271.95,47.59,271.3,48.13,270.73,48.73z"/>
		<path fill="#222222" d="M284.34,49.76c0,1.91-0.97,5-4.08,5c-1.96,0-3.03-1.26-3.03-3.27c0-1.95,1-4.99,4.09-4.99
			C283.29,46.49,284.34,47.75,284.34,49.76z M278.67,51.64c0,1.38,0.57,2.01,1.63,2.01c2.06,0,2.6-2.52,2.6-4.03
			c0-1.38-0.57-2.01-1.62-2.01C279.22,47.6,278.67,50.12,278.67,51.64z"/>
		<path fill="#222222" d="M293.59,43.51l-1.56,11.07h-1.2l0.01-1.31c-0.55,0.92-1.36,1.49-2.38,1.49c-1.63,0-2.5-1.23-2.5-3.14
			c0-2.04,0.97-5.13,3.67-5.13c0.93,0,1.59,0.43,2.03,0.99l0.58-4.12L293.59,43.51z M287.41,51.73c0,1.33,0.5,1.94,1.32,1.94
			c0.97,0,1.62-0.72,2.32-1.83l0.46-3.28c-0.4-0.61-0.9-0.96-1.63-0.96C287.97,47.59,287.41,50.15,287.41,51.73z"/>
	</g>
	<g>
		<path fill="#3D2C70" d="M45.9,96.49h-3.19l-1.29-7.93l-1.36,7.93h-3.12l-1.71-10.39h2.46l1.04,8.53l1.44-8.53h2.58l1.35,8.53
			l1.21-8.53h2.34L45.9,96.49z"/>
		<path fill="#3D2C70" d="M55.62,92.51c0,2.55-1.47,4.23-3.9,4.23c-2.42,0-3.9-1.56-3.9-4.24c0-2.55,1.47-4.23,3.9-4.23
			C54.15,88.27,55.62,89.83,55.62,92.51z M50.28,92.5c0,1.77,0.48,2.5,1.44,2.5s1.44-0.77,1.44-2.49c0-1.77-0.48-2.5-1.44-2.5
			S50.28,90.77,50.28,92.5z"/>
		<path fill="#3D2C70" d="M62.15,88.4l-0.38,2.29c-0.26-0.06-0.45-0.1-0.72-0.1c-0.98,0-1.4,0.72-1.65,1.92v3.97h-2.37v-7.96h2.07
			l0.19,1.53c0.36-1.1,1.14-1.75,2.06-1.75C61.65,88.3,61.89,88.33,62.15,88.4z"/>
		<path fill="#3D2C70" d="M65.42,96.49h-2.37V85.36l2.37-0.26V96.49z M67.92,92.02l2.61,4.47h-2.67l-2.37-4.35l2.43-3.62h2.42
			L67.92,92.02z"/>
		<path fill="#3D2C70" d="M70.76,90.88h4.78v1.83h-4.78V90.88z"/>
		<path fill="#3D2C70" d="M82.25,88.4l-0.38,2.29c-0.26-0.06-0.45-0.1-0.72-0.1c-0.98,0-1.4,0.72-1.65,1.92v3.97h-2.37v-7.96h2.07
			l0.19,1.53c0.36-1.1,1.14-1.75,2.06-1.75C81.75,88.3,81.99,88.33,82.25,88.4z"/>
		<path fill="#3D2C70" d="M89.9,93.2h-4.92c0.15,1.42,0.83,1.81,1.8,1.81c0.65,0,1.21-0.23,1.9-0.71l0.98,1.32
			c-0.79,0.63-1.81,1.11-3.1,1.11c-2.65,0-4-1.71-4-4.2c0-2.38,1.31-4.27,3.72-4.27c2.28,0,3.67,1.5,3.67,4.08
			C89.94,92.6,89.93,92.96,89.9,93.2z M87.62,91.67c-0.02-1.08-0.35-1.83-1.29-1.83c-0.79,0-1.25,0.49-1.36,1.93h2.65V91.67z"/>
		<path fill="#3D2C70" d="M91.23,94.46v-9.1l2.37-0.26v9.27c0,0.33,0.12,0.49,0.4,0.49c0.17,0,0.29-0.03,0.39-0.07l0.46,1.68
			c-0.36,0.15-0.87,0.27-1.44,0.27C92.04,96.74,91.23,95.92,91.23,94.46z"/>
		<path fill="#3D2C70" d="M102.63,95.15l-0.5,1.54c-0.93-0.08-1.54-0.36-1.92-1.14c-0.57,0.87-1.46,1.19-2.4,1.19
			c-1.59,0-2.59-1.03-2.59-2.49c0-1.74,1.32-2.69,3.73-2.69h0.81v-0.34c0-0.95-0.38-1.23-1.35-1.23c-0.51,0-1.29,0.15-2.08,0.42
			l-0.54-1.56c1-0.38,2.1-0.58,3-0.58c2.31,0,3.3,0.98,3.3,2.82v3.09C102.09,94.79,102.26,95.02,102.63,95.15z M99.77,94.3v-1.42
			h-0.58c-1.08,0-1.6,0.38-1.6,1.17c0,0.63,0.34,1,0.93,1C99.05,95.05,99.48,94.76,99.77,94.3z"/>
		<path fill="#3D2C70" d="M108.98,96.11c-0.6,0.42-1.44,0.63-2.16,0.63c-1.75-0.01-2.61-1-2.61-2.88v-3.69h-1.12v-1.65h1.12V86.8
			l2.37-0.27v1.99h1.83l-0.26,1.65h-1.57v3.66c0,0.76,0.25,1.03,0.75,1.03c0.27,0,0.54-0.07,0.85-0.27L108.98,96.11z"/>
		<path fill="#3D2C70" d="M116.52,93.2h-4.92c0.15,1.42,0.83,1.81,1.8,1.81c0.65,0,1.21-0.23,1.9-0.71l0.98,1.32
			c-0.79,0.63-1.81,1.11-3.1,1.11c-2.65,0-4-1.71-4-4.2c0-2.38,1.31-4.27,3.72-4.27c2.28,0,3.67,1.5,3.67,4.08
			C116.57,92.6,116.55,92.96,116.52,93.2z M114.24,91.67c-0.02-1.08-0.35-1.83-1.29-1.83c-0.79,0-1.25,0.49-1.36,1.93h2.65V91.67z"
			/>
		<path fill="#3D2C70" d="M125.07,85.36v11.13h-2.1l-0.12-0.93c-0.45,0.66-1.18,1.19-2.26,1.19c-2.02,0-3.03-1.68-3.03-4.26
			c0-2.46,1.24-4.21,3.3-4.21c0.72,0,1.36,0.29,1.84,0.75V85.1L125.07,85.36z M122.7,94.12v-3.45c-0.36-0.42-0.72-0.67-1.23-0.67
			c-0.85,0-1.46,0.72-1.46,2.5c0,1.98,0.54,2.5,1.32,2.5C121.89,95,122.33,94.7,122.7,94.12z"/>
		<path fill="#3D2C70" d="M137.84,92.51c0,2.55-1.47,4.23-3.9,4.23c-2.42,0-3.9-1.56-3.9-4.24c0-2.55,1.47-4.23,3.9-4.23
			C136.37,88.27,137.84,89.83,137.84,92.51z M132.5,92.5c0,1.77,0.48,2.5,1.44,2.5s1.44-0.77,1.44-2.49c0-1.77-0.48-2.5-1.44-2.5
			S132.5,90.77,132.5,92.5z"/>
		<path fill="#3D2C70" d="M146.72,92.48c0,2.46-1.2,4.26-3.16,4.26c-0.78,0-1.44-0.27-1.94-0.84v3.66l-2.37,0.26V88.52h2.08
			l0.12,0.89c0.66-0.83,1.52-1.14,2.25-1.14C145.8,88.27,146.72,89.9,146.72,92.48z M144.26,92.51c0-1.98-0.48-2.5-1.31-2.5
			c-0.51,0-0.99,0.34-1.33,0.93v3.36c0.33,0.48,0.72,0.71,1.21,0.71C143.72,95,144.26,94.3,144.26,92.51z"/>
		<path fill="#3D2C70" d="M150.78,85.67c0,0.76-0.58,1.35-1.41,1.35c-0.83,0-1.4-0.58-1.4-1.35c0-0.77,0.57-1.35,1.4-1.35
			C150.2,84.32,150.78,84.91,150.78,85.67z M150.57,96.49h-2.37v-7.96h2.37V96.49z"/>
		<path fill="#3D2C70" d="M159.3,90.67v5.82h-2.37v-5.41c0-0.84-0.28-1.06-0.75-1.06c-0.52,0-0.96,0.37-1.38,1.03v5.44h-2.37v-7.96
			h2.07l0.17,0.95c0.67-0.78,1.44-1.2,2.43-1.2C158.48,88.27,159.3,89.15,159.3,90.67z"/>
		<path fill="#3D2C70" d="M163.67,85.67c0,0.76-0.58,1.35-1.41,1.35c-0.83,0-1.4-0.58-1.4-1.35c0-0.77,0.57-1.35,1.4-1.35
			C163.08,84.32,163.67,84.91,163.67,85.67z M163.46,96.49h-2.37v-7.96h2.37V96.49z"/>
		<path fill="#3D2C70" d="M172.67,92.51c0,2.55-1.47,4.23-3.9,4.23c-2.42,0-3.9-1.56-3.9-4.24c0-2.55,1.47-4.23,3.9-4.23
			C171.2,88.27,172.67,89.83,172.67,92.51z M167.33,92.5c0,1.77,0.48,2.5,1.44,2.5s1.44-0.77,1.44-2.49c0-1.77-0.48-2.5-1.44-2.5
			S167.33,90.77,167.33,92.5z"/>
		<path fill="#3D2C70" d="M180.95,90.67v5.82h-2.37v-5.41c0-0.84-0.28-1.06-0.75-1.06c-0.52,0-0.96,0.37-1.38,1.03v5.44h-2.37v-7.96
			h2.07l0.17,0.95c0.67-0.78,1.44-1.2,2.43-1.2C180.12,88.27,180.95,89.15,180.95,90.67z"/>
		<path fill="#3D2C70" d="M193.16,95.15l-0.5,1.54c-0.93-0.08-1.54-0.36-1.92-1.14c-0.57,0.87-1.46,1.19-2.4,1.19
			c-1.59,0-2.59-1.03-2.59-2.49c0-1.74,1.32-2.69,3.73-2.69h0.81v-0.34c0-0.95-0.37-1.23-1.35-1.23c-0.51,0-1.29,0.15-2.08,0.42
			l-0.54-1.56c1-0.38,2.1-0.58,3-0.58c2.31,0,3.3,0.98,3.3,2.82v3.09C192.62,94.79,192.78,95.02,193.16,95.15z M190.29,94.3v-1.42
			h-0.58c-1.08,0-1.6,0.38-1.6,1.17c0,0.63,0.34,1,0.93,1C189.57,95.05,190.01,94.76,190.29,94.3z"/>
		<path fill="#3D2C70" d="M201.98,92.51c0,2.46-1.19,4.23-3.17,4.23c-0.89,0-1.6-0.38-2.08-1.02l-0.12,0.77h-2.1V85.36l2.37-0.26
			v4.23c0.46-0.65,1.27-1.06,2.1-1.06C200.94,88.27,201.98,89.84,201.98,92.51z M199.52,92.51c0-2.03-0.54-2.5-1.27-2.5
			c-0.57,0-1.02,0.34-1.37,0.93v3.3c0.3,0.5,0.73,0.78,1.26,0.78C198.95,95.02,199.52,94.37,199.52,92.51z"/>
		<path fill="#3D2C70" d="M210.81,92.51c0,2.55-1.47,4.23-3.9,4.23c-2.42,0-3.9-1.56-3.9-4.24c0-2.55,1.47-4.23,3.9-4.23
			C209.34,88.27,210.81,89.83,210.81,92.51z M205.47,92.5c0,1.77,0.48,2.5,1.44,2.5s1.44-0.77,1.44-2.49c0-1.77-0.48-2.5-1.44-2.5
			S205.47,90.77,205.47,92.5z"/>
		<path fill="#3D2C70" d="M218.94,96.49h-2.06l-0.1-1c-0.58,0.84-1.36,1.26-2.42,1.26c-1.48,0-2.22-0.96-2.22-2.5v-5.71h2.37v5.42
			c0,0.81,0.27,1.05,0.76,1.05s0.94-0.33,1.29-0.93v-5.54h2.37V96.49z"/>
		<path fill="#3D2C70" d="M225.8,96.11c-0.6,0.42-1.44,0.63-2.16,0.63c-1.75-0.01-2.61-1-2.61-2.88v-3.69h-1.12v-1.65h1.12V86.8
			l2.37-0.27v1.99h1.83l-0.26,1.65h-1.57v3.66c0,0.76,0.25,1.03,0.75,1.03c0.27,0,0.54-0.07,0.85-0.27L225.8,96.11z"/>
		<path fill="#3D2C70" d="M237.02,95.15l-0.5,1.54c-0.93-0.08-1.54-0.36-1.92-1.14c-0.57,0.87-1.46,1.19-2.4,1.19
			c-1.59,0-2.59-1.03-2.59-2.49c0-1.74,1.32-2.69,3.73-2.69h0.81v-0.34c0-0.95-0.37-1.23-1.35-1.23c-0.51,0-1.29,0.15-2.08,0.42
			l-0.54-1.56c1-0.38,2.1-0.58,3-0.58c2.31,0,3.3,0.98,3.3,2.82v3.09C236.48,94.79,236.64,95.02,237.02,95.15z M234.15,94.3v-1.42
			h-0.58c-1.08,0-1.6,0.38-1.6,1.17c0,0.63,0.34,1,0.93,1C233.43,95.05,233.87,94.76,234.15,94.3z"/>
		<path fill="#3D2C70" d="M245.24,90.67v5.82h-2.37v-5.41c0-0.84-0.28-1.06-0.75-1.06c-0.52,0-0.96,0.37-1.38,1.03v5.44h-2.37v-7.96
			h2.07l0.17,0.95c0.67-0.78,1.44-1.2,2.43-1.2C244.41,88.27,245.24,89.15,245.24,90.67z"/>
		<path fill="#3D2C70" d="M257.45,95.15l-0.5,1.54c-0.93-0.08-1.54-0.36-1.92-1.14c-0.57,0.87-1.46,1.19-2.4,1.19
			c-1.59,0-2.59-1.03-2.59-2.49c0-1.74,1.32-2.69,3.73-2.69h0.81v-0.34c0-0.95-0.37-1.23-1.35-1.23c-0.51,0-1.29,0.15-2.08,0.42
			l-0.54-1.56c1-0.38,2.1-0.58,3-0.58c2.31,0,3.3,0.98,3.3,2.82v3.09C256.91,94.79,257.07,95.02,257.45,95.15z M254.58,94.3v-1.42
			H254c-1.08,0-1.6,0.38-1.6,1.17c0,0.63,0.34,1,0.93,1C253.86,95.05,254.3,94.76,254.58,94.3z"/>
		<path fill="#3D2C70" d="M263.91,88.4l-0.38,2.29c-0.26-0.06-0.45-0.1-0.72-0.1c-0.98,0-1.4,0.72-1.65,1.92v3.97h-2.37v-7.96h2.07
			l0.19,1.53c0.36-1.1,1.14-1.75,2.06-1.75C263.42,88.3,263.65,88.33,263.91,88.4z"/>
		<path fill="#3D2C70" d="M270.1,96.11c-0.6,0.42-1.44,0.63-2.16,0.63c-1.75-0.01-2.61-1-2.61-2.88v-3.69h-1.12v-1.65h1.12V86.8
			l2.37-0.27v1.99h1.83l-0.26,1.65h-1.57v3.66c0,0.76,0.25,1.03,0.75,1.03c0.27,0,0.54-0.07,0.85-0.27L270.1,96.11z"/>
		<path fill="#3D2C70" d="M273.48,85.67c0,0.76-0.58,1.35-1.41,1.35c-0.83,0-1.4-0.58-1.4-1.35c0-0.77,0.57-1.35,1.4-1.35
			C272.89,84.32,273.48,84.91,273.48,85.67z M273.27,96.49h-2.37v-7.96h2.37V96.49z"/>
		<path fill="#3D2C70" d="M281.31,89.24l-1.02,1.41c-0.51-0.39-0.97-0.57-1.51-0.57c-1.02,0-1.61,0.69-1.61,2.48
			c0,1.77,0.63,2.31,1.58,2.31c0.57,0,0.96-0.18,1.53-0.54l1.03,1.47c-0.73,0.58-1.59,0.94-2.68,0.94c-2.45,0-3.94-1.65-3.94-4.17
			c0-2.53,1.52-4.3,3.9-4.3C279.69,88.27,280.54,88.6,281.31,89.24z"/>
		<path fill="#3D2C70" d="M282.24,94.46v-9.1l2.37-0.26v9.27c0,0.33,0.12,0.49,0.41,0.49c0.17,0,0.29-0.03,0.39-0.07l0.46,1.68
			c-0.36,0.15-0.87,0.27-1.44,0.27C283.05,96.74,282.24,95.92,282.24,94.46z"/>
		<path fill="#3D2C70" d="M293.52,93.2h-4.92c0.15,1.42,0.82,1.81,1.8,1.81c0.64,0,1.21-0.23,1.9-0.71l0.98,1.32
			c-0.79,0.63-1.82,1.11-3.11,1.11c-2.65,0-4-1.71-4-4.2c0-2.38,1.31-4.27,3.72-4.27c2.28,0,3.67,1.5,3.67,4.08
			C293.56,92.6,293.55,92.96,293.52,93.2z M291.24,91.67c-0.01-1.08-0.34-1.83-1.29-1.83c-0.79,0-1.25,0.49-1.37,1.93h2.66V91.67z"
			/>
		<path fill="#222222" d="M32.22,109.38l-0.66,0.83c-0.6-0.46-1.26-0.71-1.95-0.71c-0.96,0-1.57,0.4-1.57,1.06
			c0,0.63,0.52,0.87,1.59,1.2c1.48,0.46,2.23,1.12,2.23,2.37c0,1.75-1.63,2.54-3.28,2.54c-1.38,0-2.31-0.54-2.92-1.14l0.79-0.81
			c0.57,0.51,1.3,0.84,2.19,0.84c1.39,0,1.78-0.76,1.78-1.29c0-0.79-0.4-1.06-1.67-1.46c-1.51-0.46-2.11-1.08-2.11-2.16
			c0-1.05,0.93-2.25,2.98-2.25C30.72,108.4,31.55,108.78,32.22,109.38z"/>
		<path fill="#222222" d="M35.19,114.4c-0.12,0.79,0.06,1.11,0.71,1.11c0.36,0,0.69-0.12,1.11-0.36l0.45,0.99
			c-0.57,0.36-1.15,0.53-1.79,0.53c-1.36,0-2.05-0.83-1.84-2.29l0.66-4.73h-1.37l0.15-1.06h1.43l0.49-1.83l1.08-0.12L36,108.58h1.86
			l-0.3,1.06h-1.71L35.19,114.4z"/>
		<path fill="#222222" d="M45.66,111.67c0,1.91-0.98,5-4.08,5c-1.97,0-3.03-1.26-3.03-3.27c0-1.95,1.01-4.99,4.1-4.99
			C44.61,108.4,45.66,109.66,45.66,111.67z M39.99,113.55c0,1.38,0.57,2.01,1.64,2.01c2.05,0,2.59-2.52,2.59-4.03
			c0-1.38-0.57-2.01-1.62-2.01C40.55,109.51,39.99,112.03,39.99,113.55z"/>
		<path fill="#222222" d="M52.58,108.51l-0.4,1.33c-0.23-0.06-0.39-0.08-0.65-0.08c-1.02,0-1.71,0.93-2.27,2.53l-0.6,4.19H47.3
			l1.11-7.9h1.17l-0.09,1.62c0.6-1.23,1.42-1.8,2.29-1.8C52.07,108.4,52.34,108.45,52.58,108.51z"/>
		<path fill="#222222" d="M54.23,113.55c0.03,1.44,0.71,1.96,1.71,1.96c0.74,0,1.4-0.23,2.12-0.73l0.58,0.93
			c-0.85,0.61-1.79,0.96-2.83,0.96c-1.94,0-3.02-1.22-3.02-3.21c0-2.16,1.06-5.05,4.06-5.05c1.68,0,2.5,0.96,2.5,2.01
			C59.36,112.63,56.99,113.25,54.23,113.55z M57.92,110.46c0-0.38-0.23-0.96-1.08-0.96c-1.65,0-2.34,1.56-2.53,3
			C56.57,112.24,57.92,111.81,57.92,110.46z"/>
		<path fill="#222222" d="M68.31,105.42l-1.56,11.07h-1.2l0.02-1.31c-0.56,0.92-1.37,1.49-2.39,1.49c-1.63,0-2.5-1.23-2.5-3.14
			c0-2.04,0.98-5.13,3.67-5.13c0.93,0,1.59,0.43,2.02,0.99l0.58-4.12L68.31,105.42z M62.13,113.64c0,1.33,0.5,1.94,1.32,1.94
			c0.98,0,1.62-0.72,2.33-1.83l0.46-3.28c-0.4-0.61-0.9-0.96-1.63-0.96C62.69,109.5,62.13,112.06,62.13,113.64z"/>
		<path fill="#222222" d="M74.82,116.49h-1.36l1.11-7.9h1.37L74.82,116.49z M76.59,105.81c-0.07,0.5-0.46,0.85-1.02,0.85
			c-0.6,0-0.94-0.45-0.87-1c0.07-0.51,0.48-0.87,1.02-0.87C76.34,104.79,76.67,105.24,76.59,105.81z"/>
		<path fill="#222222" d="M84.38,110.94l-0.78,5.55h-1.36l0.78-5.52c0.15-1.11-0.24-1.41-0.84-1.41c-1,0-1.89,1.06-2.52,2.19
			l-0.65,4.74h-1.36l1.11-7.9h1.17l-0.12,1.54c0.74-1.03,1.6-1.72,2.75-1.72C83.87,108.4,84.6,109.36,84.38,110.94z"/>
		<path fill="#222222" d="M97.85,105.42l-1.56,11.07h-1.2l0.02-1.31c-0.56,0.92-1.37,1.49-2.39,1.49c-1.63,0-2.5-1.23-2.5-3.14
			c0-2.04,0.98-5.13,3.67-5.13c0.93,0,1.59,0.43,2.02,0.99l0.58-4.12L97.85,105.42z M91.67,113.64c0,1.33,0.5,1.94,1.32,1.94
			c0.98,0,1.62-0.72,2.33-1.83l0.46-3.28c-0.4-0.61-0.9-0.96-1.63-0.96C92.22,109.5,91.67,112.06,91.67,113.64z"/>
		<path fill="#222222" d="M106.04,109.08l-0.85,5.61c-0.02,0.12-0.03,0.23-0.03,0.31c0,0.44,0.19,0.6,0.51,0.72l-0.39,0.95
			c-0.79-0.1-1.29-0.47-1.39-1.32c-0.62,0.79-1.43,1.32-2.35,1.32c-1.65,0-2.52-1.22-2.52-3.03c0-2.16,1.14-5.23,4.21-5.23
			C104.16,108.4,104.99,108.57,106.04,109.08z M100.47,113.65c0,1.32,0.5,1.92,1.38,1.92c0.84,0,1.46-0.63,2.07-1.46l0.66-4.36
			c-0.45-0.19-0.78-0.25-1.33-0.25C101.24,109.5,100.47,111.88,100.47,113.65z"/>
		<path fill="#222222" d="M109.38,114.4c-0.12,0.79,0.06,1.11,0.71,1.11c0.36,0,0.69-0.12,1.11-0.36l0.45,0.99
			c-0.57,0.36-1.15,0.53-1.79,0.53c-1.36,0-2.05-0.83-1.84-2.29l0.66-4.73h-1.37l0.15-1.06h1.43l0.49-1.83l1.08-0.12l-0.27,1.95
			h1.86l-0.3,1.06h-1.71L109.38,114.4z"/>
		<path fill="#222222" d="M119.75,109.08l-0.85,5.61c-0.02,0.12-0.03,0.23-0.03,0.31c0,0.44,0.19,0.6,0.51,0.72l-0.39,0.95
			c-0.79-0.1-1.29-0.47-1.39-1.32c-0.62,0.79-1.43,1.32-2.35,1.32c-1.65,0-2.52-1.22-2.52-3.03c0-2.16,1.14-5.23,4.21-5.23
			C117.87,108.4,118.7,108.57,119.75,109.08z M114.18,113.65c0,1.32,0.5,1.92,1.38,1.92c0.84,0,1.46-0.63,2.07-1.46l0.66-4.36
			c-0.45-0.19-0.78-0.25-1.33-0.25C114.95,109.5,114.18,111.88,114.18,113.65z"/>
		<path fill="#222222" d="M132.3,111.51c0,2.22-1.11,5.16-4.2,5.16c-0.54,0-1-0.09-1.5-0.26l-0.45,3.14l-1.37,0.18l1.56-11.14h1.17
			l-0.03,1c0.84-0.93,1.59-1.18,2.42-1.18C131.4,108.4,132.3,109.51,132.3,111.51z M127.43,110.64l-0.65,4.69
			c0.5,0.18,0.84,0.24,1.4,0.24c1.96,0,2.7-2.4,2.7-4.17c0-1.41-0.58-1.9-1.41-1.9C128.64,109.5,128,110.04,127.43,110.64z"/>
		<path fill="#222222" d="M141.03,111.67c0,1.91-0.98,5-4.08,5c-1.97,0-3.03-1.26-3.03-3.27c0-1.95,1.01-4.99,4.1-4.99
			C139.98,108.4,141.03,109.66,141.03,111.67z M135.36,113.55c0,1.38,0.57,2.01,1.64,2.01c2.05,0,2.59-2.52,2.59-4.03
			c0-1.38-0.57-2.01-1.62-2.01C135.92,109.51,135.36,112.03,135.36,113.55z"/>
		<path fill="#222222" d="M150.29,105.42l-1.56,11.07h-1.2l0.02-1.31c-0.56,0.92-1.37,1.49-2.39,1.49c-1.63,0-2.5-1.23-2.5-3.14
			c0-2.04,0.98-5.13,3.67-5.13c0.93,0,1.59,0.43,2.02,0.99l0.58-4.12L150.29,105.42z M144.11,113.64c0,1.33,0.5,1.94,1.32,1.94
			c0.98,0,1.62-0.72,2.33-1.83l0.46-3.28c-0.41-0.61-0.9-0.96-1.63-0.96C144.66,109.5,144.11,112.06,144.11,113.64z"/>
		<path fill="#222222" d="M162.47,111.67c0,1.91-0.98,5-4.08,5c-1.97,0-3.03-1.26-3.03-3.27c0-1.95,1.01-4.99,4.1-4.99
			C161.42,108.4,162.47,109.66,162.47,111.67z M156.8,113.55c0,1.38,0.57,2.01,1.64,2.01c2.05,0,2.59-2.52,2.59-4.03
			c0-1.38-0.57-2.01-1.62-2.01C157.35,109.51,156.8,112.03,156.8,113.55z"/>
		<path fill="#222222" d="M166.85,107.53l-0.15,1.05h1.91l-0.3,1.06h-1.75l-0.9,6.4c-0.31,2.23-1.2,2.88-2.96,3.63l-0.39-1.03
			c1.08-0.48,1.74-0.9,1.98-2.6l0.9-6.4h-1.4l0.15-1.06h1.4l0.17-1.12c0.18-1.32,1.12-2.22,2.68-2.22c0.77,0,1.28,0.21,1.86,0.57
			l-0.53,0.92c-0.46-0.31-0.91-0.38-1.29-0.38C167.34,106.35,166.95,106.77,166.85,107.53z"/>
		<path fill="#222222" d="M179.85,109.08l-0.85,5.61c-0.02,0.12-0.03,0.23-0.03,0.31c0,0.44,0.19,0.6,0.51,0.72l-0.39,0.95
			c-0.79-0.1-1.29-0.47-1.39-1.32c-0.62,0.79-1.43,1.32-2.35,1.32c-1.65,0-2.52-1.22-2.52-3.03c0-2.16,1.14-5.23,4.21-5.23
			C177.98,108.4,178.8,108.57,179.85,109.08z M174.29,113.65c0,1.32,0.5,1.92,1.38,1.92c0.84,0,1.46-0.63,2.07-1.46l0.66-4.36
			c-0.45-0.19-0.78-0.25-1.33-0.25C175.05,109.5,174.29,111.88,174.29,113.65z"/>
		<path fill="#222222" d="M187.28,116.49h-1.17l0.1-1.46c-0.73,1-1.52,1.64-2.61,1.64c-1.41,0-2.12-0.92-1.91-2.46l0.8-5.62h1.36
			l-0.78,5.56c-0.15,1.08,0.12,1.44,0.82,1.44c0.99,0,1.79-0.94,2.4-1.86l0.72-5.15h1.36L187.28,116.49z"/>
		<path fill="#222222" d="M191.84,114.4c-0.12,0.79,0.06,1.11,0.71,1.11c0.36,0,0.69-0.12,1.11-0.36l0.45,0.99
			c-0.57,0.36-1.15,0.53-1.79,0.53c-1.36,0-2.05-0.83-1.84-2.29l0.66-4.73h-1.37l0.15-1.06h1.43l0.49-1.83l1.08-0.12l-0.27,1.95
			h1.86l-0.3,1.06h-1.71L191.84,114.4z"/>
		<path fill="#222222" d="M202.17,110.89l-0.79,5.59h-1.36l0.78-5.52c0.15-1.11-0.23-1.41-0.79-1.41c-1.05,0-1.94,1.06-2.56,2.19
			l-0.65,4.74h-1.36l1.56-11.07l1.38-0.15l-0.69,4.8c0.66-0.99,1.51-1.66,2.61-1.66C201.66,108.4,202.38,109.36,202.17,110.89z"/>
		<path fill="#222222" d="M211.17,111.67c0,1.91-0.98,5-4.08,5c-1.97,0-3.03-1.26-3.03-3.27c0-1.95,1.01-4.99,4.1-4.99
			C210.12,108.4,211.17,109.66,211.17,111.67z M205.5,113.55c0,1.38,0.57,2.01,1.64,2.01c2.05,0,2.59-2.52,2.59-4.03
			c0-1.38-0.57-2.01-1.62-2.01C206.06,109.51,205.5,112.03,205.5,113.55z"/>
		<path fill="#222222" d="M218.09,108.51l-0.4,1.33c-0.23-0.06-0.39-0.08-0.65-0.08c-1.02,0-1.71,0.93-2.27,2.53l-0.6,4.19h-1.36
			l1.11-7.9h1.17L215,110.2c0.6-1.23,1.42-1.8,2.29-1.8C217.58,108.4,217.85,108.45,218.09,108.51z"/>
		<path fill="#222222" d="M222.05,106.02c0,0.31-0.03,0.52-0.35,1.02l-1.3,2.1h-0.92l0.98-2.31c-0.21-0.15-0.33-0.38-0.33-0.69
			c0-0.54,0.45-0.94,1.04-0.94C221.69,105.19,222.05,105.55,222.05,106.02z"/>
		<path fill="#222222" d="M228.29,109.38l-0.66,0.83c-0.6-0.46-1.26-0.71-1.95-0.71c-0.96,0-1.57,0.4-1.57,1.06
			c0,0.63,0.52,0.87,1.59,1.2c1.48,0.46,2.23,1.12,2.23,2.37c0,1.75-1.63,2.54-3.28,2.54c-1.38,0-2.31-0.54-2.92-1.14l0.79-0.81
			c0.57,0.51,1.3,0.84,2.19,0.84c1.39,0,1.78-0.76,1.78-1.29c0-0.79-0.4-1.06-1.67-1.46c-1.51-0.46-2.11-1.08-2.11-2.16
			c0-1.05,0.93-2.25,2.98-2.25C226.79,108.4,227.61,108.78,228.29,109.38z"/>
		<path fill="#222222" d="M239.62,109.27l-0.73,0.85c-0.48-0.42-0.93-0.58-1.54-0.58c-2,0-2.58,2.37-2.58,4
			c0,1.38,0.6,1.95,1.6,1.95c0.69,0,1.2-0.23,1.83-0.62l0.56,0.96c-0.78,0.56-1.6,0.83-2.48,0.83c-1.88,0-2.96-1.2-2.96-3.23
			c0-2.07,1.08-5.04,4-5.04C238.22,108.4,238.98,108.66,239.62,109.27z"/>
		<path fill="#222222" d="M247.36,111.67c0,1.91-0.98,5-4.08,5c-1.97,0-3.03-1.26-3.03-3.27c0-1.95,1.01-4.99,4.1-4.99
			C246.31,108.4,247.36,109.66,247.36,111.67z M241.69,113.55c0,1.38,0.57,2.01,1.64,2.01c2.05,0,2.59-2.52,2.59-4.03
			c0-1.38-0.57-2.01-1.62-2.01C242.25,109.51,241.69,112.03,241.69,113.55z"/>
		<path fill="#222222" d="M259.77,110.86l-0.79,5.62h-1.36l0.78-5.52c0.17-1.19-0.27-1.41-0.83-1.41c-0.84,0-1.6,1.05-2.23,2.16
			l-0.67,4.77h-1.36l0.78-5.52c0.17-1.19-0.27-1.41-0.83-1.41c-0.84,0-1.6,1.06-2.23,2.19l-0.65,4.74H249l1.11-7.9h1.17l-0.12,1.52
			c0.72-1.02,1.53-1.69,2.58-1.69c0.85,0,1.59,0.55,1.73,1.6c0.78-1.04,1.6-1.6,2.59-1.6C259.24,108.4,259.98,109.36,259.77,110.86z"/>
		<path fill="#222222" d="M268.78,111.51c0,2.22-1.11,5.16-4.2,5.16c-0.54,0-1-0.09-1.5-0.26l-0.45,3.14l-1.37,0.18l1.56-11.14H264
			l-0.03,1c0.84-0.93,1.59-1.18,2.42-1.18C267.88,108.4,268.78,109.51,268.78,111.51z M263.91,110.64l-0.65,4.69
			c0.5,0.18,0.84,0.24,1.4,0.24c1.96,0,2.7-2.4,2.7-4.17c0-1.41-0.58-1.9-1.41-1.9C265.12,109.5,264.48,110.04,263.91,110.64z"/>
		<path fill="#222222" d="M277.41,109.08l-0.85,5.61c-0.02,0.12-0.03,0.23-0.03,0.31c0,0.44,0.19,0.6,0.51,0.72l-0.39,0.95
			c-0.8-0.1-1.29-0.47-1.4-1.32c-0.62,0.79-1.43,1.32-2.35,1.32c-1.65,0-2.52-1.22-2.52-3.03c0-2.16,1.14-5.23,4.21-5.23
			C275.53,108.4,276.36,108.57,277.41,109.08z M271.84,113.65c0,1.32,0.5,1.92,1.38,1.92c0.84,0,1.45-0.63,2.07-1.46l0.66-4.36
			c-0.45-0.19-0.78-0.25-1.33-0.25C272.61,109.5,271.84,111.88,271.84,113.65z"/>
		<path fill="#222222" d="M285.75,110.94l-0.78,5.55h-1.37l0.78-5.52c0.15-1.11-0.24-1.41-0.84-1.41c-1,0-1.89,1.06-2.52,2.19
			l-0.65,4.74h-1.37l1.11-7.9h1.17l-0.12,1.54c0.74-1.03,1.61-1.72,2.75-1.72C285.24,108.4,285.97,109.36,285.75,110.94z"/>
		<path fill="#222222" d="M290.76,116.56c-0.76,1.68-1.93,2.88-4.12,3.12l-0.06-1.08c1.63-0.27,2.22-0.9,2.88-2.14l-0.53,0.03
			l-1.51-7.9h1.44l1.11,6.85l3.03-6.85h1.42L290.76,116.56z"/>
	</g>
	<g>
		<path fill="#3D2C70" d="M80.82,184.24c0,4.18-2.52,5.25-5.17,5.25h-3.12v-10.39h2.89C78.2,179.09,80.82,179.95,80.82,184.24z
			 M74.99,180.88v6.83h0.81c1.49,0,2.48-0.7,2.48-3.46c0-2.79-1.06-3.36-2.5-3.36H74.99z"/>
		<path fill="#3D2C70" d="M84.83,178.67c0,0.76-0.58,1.35-1.41,1.35c-0.83,0-1.4-0.58-1.4-1.35s0.57-1.35,1.4-1.35
			C84.24,177.32,84.83,177.91,84.83,178.67z M84.62,189.49h-2.37v-7.96h2.37V189.49z"/>
		<path fill="#3D2C70" d="M92.21,182.24l-0.87,1.34c-0.61-0.39-1.27-0.62-1.96-0.62c-0.65,0-0.96,0.24-0.96,0.6
			c0,0.42,0.21,0.6,1.64,1.02c1.57,0.45,2.46,1.11,2.46,2.54c0,1.65-1.56,2.62-3.54,2.62c-1.38,0-2.55-0.48-3.33-1.19l1.16-1.29
			c0.6,0.46,1.33,0.78,2.11,0.78c0.72,0,1.15-0.27,1.15-0.75c0-0.54-0.24-0.71-1.68-1.11c-1.58-0.45-2.35-1.26-2.35-2.49
			c0-1.37,1.25-2.43,3.25-2.43C90.44,181.27,91.47,181.64,92.21,182.24z"/>
		<path fill="#3D2C70" d="M99.9,182.24l-1.02,1.41c-0.51-0.39-0.98-0.57-1.52-0.57c-1.02,0-1.6,0.69-1.6,2.48
			c0,1.77,0.63,2.31,1.58,2.31c0.57,0,0.96-0.18,1.53-0.54l1.04,1.47c-0.74,0.59-1.59,0.95-2.69,0.95c-2.44,0-3.94-1.65-3.94-4.17
			c0-2.54,1.52-4.3,3.9-4.3C98.28,181.27,99.14,181.6,99.9,182.24z"/>
		<path fill="#3D2C70" d="M107.63,189.49h-2.06l-0.1-1c-0.58,0.84-1.36,1.26-2.42,1.26c-1.48,0-2.22-0.96-2.22-2.5v-5.71h2.37v5.42
			c0,0.81,0.27,1.05,0.76,1.05s0.94-0.33,1.29-0.93v-5.54h2.37V189.49z"/>
		<path fill="#3D2C70" d="M115.22,182.24l-0.87,1.34c-0.61-0.39-1.27-0.62-1.96-0.62c-0.65,0-0.96,0.24-0.96,0.6
			c0,0.42,0.21,0.6,1.64,1.02c1.57,0.45,2.46,1.11,2.46,2.54c0,1.65-1.56,2.62-3.54,2.62c-1.38,0-2.55-0.48-3.33-1.19l1.16-1.29
			c0.6,0.46,1.33,0.78,2.11,0.78c0.72,0,1.15-0.27,1.15-0.75c0-0.54-0.24-0.71-1.68-1.11c-1.58-0.45-2.35-1.26-2.35-2.49
			c0-1.37,1.25-2.43,3.25-2.43C113.45,181.27,114.48,181.64,115.22,182.24z"/>
		<path fill="#3D2C70" d="M122.46,182.24l-0.87,1.34c-0.61-0.39-1.27-0.62-1.96-0.62c-0.65,0-0.96,0.24-0.96,0.6
			c0,0.42,0.21,0.6,1.64,1.02c1.57,0.45,2.46,1.11,2.46,2.54c0,1.65-1.56,2.62-3.54,2.62c-1.38,0-2.55-0.48-3.33-1.19l1.16-1.29
			c0.6,0.46,1.33,0.78,2.11,0.78c0.72,0,1.15-0.27,1.15-0.75c0-0.54-0.24-0.71-1.68-1.11c-1.58-0.45-2.35-1.26-2.35-2.49
			c0-1.37,1.25-2.43,3.25-2.43C120.69,181.27,121.73,181.64,122.46,182.24z"/>
		<path fill="#3D2C70" d="M130.88,186.2h-4.92c0.15,1.42,0.83,1.81,1.8,1.81c0.65,0,1.21-0.22,1.9-0.71l0.98,1.32
			c-0.79,0.63-1.81,1.11-3.1,1.11c-2.65,0-4-1.71-4-4.2c0-2.38,1.31-4.28,3.72-4.28c2.28,0,3.67,1.5,3.67,4.08
			C130.92,185.6,130.91,185.96,130.88,186.2z M128.6,184.67c-0.02-1.08-0.35-1.83-1.29-1.83c-0.79,0-1.25,0.5-1.36,1.93h2.65V184.67
			z"/>
		<path fill="#3D2C70" d="M139.43,178.36v11.13h-2.1l-0.12-0.93c-0.45,0.66-1.18,1.19-2.26,1.19c-2.02,0-3.03-1.68-3.03-4.26
			c0-2.46,1.24-4.21,3.3-4.21c0.72,0,1.36,0.29,1.84,0.75v-3.92L139.43,178.36z M137.06,187.12v-3.45
			c-0.36-0.42-0.72-0.68-1.23-0.68c-0.85,0-1.46,0.72-1.46,2.51c0,1.98,0.54,2.5,1.32,2.5C136.25,188,136.68,187.7,137.06,187.12z"
			/>
		<path fill="#3D2C70" d="M151.71,188.15l-0.5,1.54c-0.93-0.08-1.54-0.36-1.92-1.14c-0.57,0.87-1.46,1.19-2.4,1.19
			c-1.59,0-2.59-1.04-2.59-2.49c0-1.74,1.32-2.68,3.73-2.68h0.81v-0.34c0-0.95-0.37-1.23-1.35-1.23c-0.51,0-1.29,0.15-2.08,0.42
			l-0.54-1.56c1-0.38,2.1-0.58,3-0.58c2.31,0,3.3,0.97,3.3,2.82v3.09C151.17,187.79,151.34,188.02,151.71,188.15z M148.85,187.3
			v-1.42h-0.58c-1.08,0-1.6,0.38-1.6,1.17c0,0.63,0.34,1,0.93,1C148.13,188.05,148.56,187.76,148.85,187.3z"/>
		<path fill="#3D2C70" d="M158.18,181.4l-0.38,2.29c-0.26-0.06-0.45-0.1-0.72-0.1c-0.98,0-1.4,0.72-1.65,1.92v3.97h-2.37v-7.96h2.07
			l0.19,1.53c0.36-1.1,1.14-1.75,2.06-1.75C157.68,181.3,157.92,181.33,158.18,181.4z"/>
		<path fill="#3D2C70" d="M164.37,189.11c-0.6,0.42-1.44,0.63-2.16,0.63c-1.75-0.01-2.61-1-2.61-2.88v-3.69h-1.12v-1.65h1.12v-1.72
			l2.37-0.27v2h1.83l-0.26,1.65h-1.57v3.66c0,0.77,0.25,1.04,0.75,1.04c0.27,0,0.54-0.07,0.85-0.27L164.37,189.11z"/>
		<path fill="#3D2C70" d="M167.75,178.67c0,0.76-0.58,1.35-1.41,1.35c-0.83,0-1.4-0.58-1.4-1.35s0.57-1.35,1.4-1.35
			C167.16,177.32,167.75,177.91,167.75,178.67z M167.54,189.49h-2.37v-7.96h2.37V189.49z"/>
		<path fill="#3D2C70" d="M175.58,182.24l-1.02,1.41c-0.51-0.39-0.98-0.57-1.52-0.57c-1.02,0-1.6,0.69-1.6,2.48
			c0,1.77,0.63,2.31,1.58,2.31c0.57,0,0.96-0.18,1.53-0.54l1.04,1.47c-0.74,0.59-1.59,0.95-2.69,0.95c-2.44,0-3.94-1.65-3.94-4.17
			c0-2.54,1.52-4.3,3.9-4.3C173.96,181.27,174.81,181.6,175.58,182.24z"/>
		<path fill="#3D2C70" d="M176.51,187.46v-9.11l2.37-0.25v9.27c0,0.33,0.12,0.49,0.4,0.49c0.17,0,0.29-0.03,0.39-0.07l0.46,1.68
			c-0.36,0.15-0.87,0.27-1.44,0.27C177.32,189.74,176.51,188.92,176.51,187.46z"/>
		<path fill="#3D2C70" d="M187.79,186.2h-4.92c0.15,1.42,0.83,1.81,1.8,1.81c0.65,0,1.21-0.22,1.9-0.71l0.98,1.32
			c-0.79,0.63-1.81,1.11-3.1,1.11c-2.65,0-4-1.71-4-4.2c0-2.38,1.31-4.28,3.72-4.28c2.28,0,3.67,1.5,3.67,4.08
			C187.83,185.6,187.82,185.96,187.79,186.2z M185.51,184.67c-0.02-1.08-0.35-1.83-1.29-1.83c-0.79,0-1.25,0.5-1.36,1.93h2.65
			V184.67z"/>
		<path fill="#3D2C70" d="M197.75,189.11c-0.6,0.42-1.44,0.63-2.16,0.63c-1.75-0.01-2.61-1-2.61-2.88v-3.69h-1.12v-1.65h1.12v-1.72
			l2.37-0.27v2h1.83l-0.26,1.65h-1.57v3.66c0,0.77,0.25,1.04,0.75,1.04c0.27,0,0.54-0.07,0.85-0.27L197.75,189.11z"/>
		<path fill="#3D2C70" d="M201.12,178.67c0,0.76-0.58,1.35-1.41,1.35c-0.83,0-1.4-0.58-1.4-1.35s0.57-1.35,1.4-1.35
			C200.54,177.32,201.12,177.91,201.12,178.67z M200.91,189.49h-2.37v-7.96h2.37V189.49z"/>
		<path fill="#3D2C70" d="M207.77,189.11c-0.6,0.42-1.44,0.63-2.16,0.63c-1.75-0.01-2.61-1-2.61-2.88v-3.69h-1.12v-1.65H203v-1.72
			l2.37-0.27v2h1.83l-0.26,1.65h-1.57v3.66c0,0.77,0.25,1.04,0.75,1.04c0.27,0,0.54-0.07,0.85-0.27L207.77,189.11z"/>
		<path fill="#3D2C70" d="M208.49,187.46v-9.11l2.37-0.25v9.27c0,0.33,0.12,0.49,0.4,0.49c0.17,0,0.29-0.03,0.39-0.07l0.46,1.68
			c-0.36,0.15-0.87,0.27-1.44,0.27C209.3,189.74,208.49,188.92,208.49,187.46z"/>
		<path fill="#3D2C70" d="M219.77,186.2h-4.92c0.15,1.42,0.83,1.81,1.8,1.81c0.65,0,1.21-0.22,1.9-0.71l0.98,1.32
			c-0.79,0.63-1.81,1.11-3.1,1.11c-2.65,0-4-1.71-4-4.2c0-2.38,1.31-4.28,3.72-4.28c2.28,0,3.67,1.5,3.67,4.08
			C219.81,185.6,219.8,185.96,219.77,186.2z M217.49,184.67c-0.02-1.08-0.35-1.83-1.29-1.83c-0.79,0-1.25,0.5-1.36,1.93h2.65V184.67
			z"/>
		<path fill="#3D2C70" d="M231.6,188.15l-0.5,1.54c-0.93-0.08-1.54-0.36-1.92-1.14c-0.57,0.87-1.46,1.19-2.4,1.19
			c-1.59,0-2.59-1.04-2.59-2.49c0-1.74,1.32-2.68,3.73-2.68h0.81v-0.34c0-0.95-0.38-1.23-1.35-1.23c-0.51,0-1.29,0.15-2.08,0.42
			l-0.54-1.56c1-0.38,2.1-0.58,3-0.58c2.31,0,3.3,0.97,3.3,2.82v3.09C231.06,187.79,231.23,188.02,231.6,188.15z M228.73,187.3
			v-1.42h-0.58c-1.08,0-1.6,0.38-1.6,1.17c0,0.63,0.34,1,0.93,1C228.02,188.05,228.45,187.76,228.73,187.3z"/>
		<path fill="#3D2C70" d="M239.82,183.67v5.82h-2.37v-5.42c0-0.84-0.28-1.06-0.75-1.06c-0.52,0-0.96,0.38-1.38,1.04v5.44h-2.37
			v-7.96h2.07l0.17,0.95c0.67-0.78,1.44-1.2,2.43-1.2C238.99,181.27,239.82,182.15,239.82,183.67z"/>
		<path fill="#3D2C70" d="M248.75,178.36v11.13h-2.1l-0.12-0.93c-0.45,0.66-1.18,1.19-2.26,1.19c-2.02,0-3.03-1.68-3.03-4.26
			c0-2.46,1.24-4.21,3.3-4.21c0.72,0,1.36,0.29,1.84,0.75v-3.92L248.75,178.36z M246.38,187.12v-3.45
			c-0.36-0.42-0.72-0.68-1.23-0.68c-0.85,0-1.46,0.72-1.46,2.51c0,1.98,0.54,2.5,1.32,2.5C245.56,188,246,187.7,246.38,187.12z"/>
		<path fill="#3D2C70" d="M261.63,185.48c0,2.46-1.2,4.26-3.16,4.26c-0.78,0-1.44-0.27-1.94-0.84v3.66l-2.37,0.25v-11.29h2.08
			l0.12,0.89c0.66-0.83,1.52-1.14,2.25-1.14C260.71,181.27,261.63,182.9,261.63,185.48z M259.17,185.51c0-1.98-0.48-2.5-1.31-2.5
			c-0.51,0-0.99,0.34-1.33,0.93v3.36c0.33,0.48,0.72,0.71,1.21,0.71C258.63,188,259.17,187.3,259.17,185.51z"/>
		<path fill="#3D2C70" d="M269.98,183.67v5.82h-2.37v-5.42c0-0.84-0.3-1.06-0.75-1.06c-0.52,0-0.96,0.38-1.38,1.02v5.46h-2.37
			v-11.13l2.37-0.24v4.25c0.65-0.72,1.37-1.1,2.29-1.1C269.16,181.27,269.98,182.15,269.98,183.67z"/>
		<path fill="#3D2C70" d="M279.12,185.51c0,2.55-1.47,4.23-3.9,4.23c-2.42,0-3.9-1.56-3.9-4.24c0-2.55,1.47-4.23,3.9-4.23
			S279.12,182.83,279.12,185.51z M273.78,185.5c0,1.77,0.48,2.5,1.44,2.5c0.96,0,1.44-0.76,1.44-2.49c0-1.77-0.48-2.5-1.44-2.5
			C274.26,183.01,273.78,183.77,273.78,185.5z"/>
		<path fill="#3D2C70" d="M285.52,189.11c-0.6,0.42-1.44,0.63-2.16,0.63c-1.75-0.01-2.61-1-2.61-2.88v-3.69h-1.12v-1.65h1.12v-1.72
			l2.37-0.27v2h1.83l-0.25,1.65h-1.58v3.66c0,0.77,0.26,1.04,0.75,1.04c0.27,0,0.54-0.07,0.86-0.27L285.52,189.11z"/>
		<path fill="#3D2C70" d="M293.52,185.51c0,2.55-1.47,4.23-3.9,4.23c-2.42,0-3.9-1.56-3.9-4.24c0-2.55,1.47-4.23,3.9-4.23
			S293.52,182.83,293.52,185.51z M288.18,185.5c0,1.77,0.48,2.5,1.44,2.5s1.44-0.76,1.44-2.49c0-1.77-0.48-2.5-1.44-2.5
			S288.18,183.77,288.18,185.5z"/>
		<path fill="#222222" d="M72.27,202.38l-0.66,0.83c-0.6-0.46-1.26-0.71-1.95-0.71c-0.96,0-1.57,0.4-1.57,1.06
			c0,0.63,0.52,0.87,1.59,1.2c1.48,0.46,2.23,1.12,2.23,2.37c0,1.75-1.63,2.54-3.28,2.54c-1.38,0-2.31-0.54-2.92-1.14l0.79-0.81
			c0.57,0.51,1.3,0.84,2.19,0.84c1.39,0,1.78-0.76,1.78-1.29c0-0.79-0.4-1.06-1.67-1.46c-1.51-0.46-2.11-1.08-2.11-2.16
			c0-1.05,0.93-2.25,2.98-2.25C70.77,201.4,71.6,201.78,72.27,202.38z"/>
		<path fill="#222222" d="M75.24,207.4c-0.12,0.79,0.06,1.11,0.71,1.11c0.36,0,0.69-0.12,1.11-0.36l0.45,0.99
			c-0.57,0.36-1.15,0.53-1.79,0.53c-1.36,0-2.05-0.83-1.84-2.29l0.66-4.73h-1.37l0.15-1.07h1.43l0.49-1.83l1.08-0.12l-0.27,1.95
			h1.86l-0.3,1.07H75.9L75.24,207.4z"/>
		<path fill="#222222" d="M85.71,204.67c0,1.91-0.98,5-4.08,5c-1.97,0-3.03-1.26-3.03-3.27c0-1.95,1.01-5,4.1-5
			C84.66,201.4,85.71,202.66,85.71,204.67z M80.04,206.55c0,1.38,0.57,2.01,1.64,2.01c2.05,0,2.59-2.52,2.59-4.03
			c0-1.38-0.57-2.01-1.62-2.01C80.6,202.51,80.04,205.03,80.04,206.55z"/>
		<path fill="#222222" d="M92.63,201.51l-0.4,1.33c-0.23-0.06-0.39-0.08-0.65-0.08c-1.02,0-1.71,0.93-2.27,2.54l-0.6,4.18h-1.36
			l1.11-7.91h1.17l-0.09,1.62c0.6-1.23,1.42-1.8,2.29-1.8C92.12,201.4,92.39,201.45,92.63,201.51z"/>
		<path fill="#222222" d="M94.28,206.55c0.03,1.44,0.71,1.96,1.71,1.96c0.74,0,1.4-0.22,2.12-0.73l0.58,0.93
			c-0.85,0.62-1.79,0.96-2.83,0.96c-1.94,0-3.02-1.22-3.02-3.21c0-2.16,1.06-5.05,4.06-5.05c1.68,0,2.5,0.96,2.5,2.01
			C99.41,205.63,97.04,206.25,94.28,206.55z M97.97,203.46c0-0.38-0.23-0.96-1.08-0.96c-1.65,0-2.34,1.56-2.53,3
			C96.62,205.24,97.97,204.81,97.97,203.46z"/>
		<path fill="#222222" d="M108.36,198.42l-1.56,11.07h-1.2l0.02-1.31c-0.56,0.92-1.37,1.49-2.39,1.49c-1.63,0-2.5-1.23-2.5-3.14
			c0-2.04,0.98-5.13,3.67-5.13c0.93,0,1.59,0.44,2.02,0.99l0.58-4.12L108.36,198.42z M102.18,206.64c0,1.34,0.5,1.94,1.32,1.94
			c0.98,0,1.62-0.72,2.33-1.83l0.46-3.29c-0.41-0.61-0.9-0.96-1.63-0.96C102.74,202.5,102.18,205.06,102.18,206.64z"/>
		<path fill="#222222" d="M114.87,209.49h-1.36l1.11-7.91h1.37L114.87,209.49z M116.64,198.81c-0.07,0.5-0.46,0.85-1.02,0.85
			c-0.6,0-0.94-0.45-0.87-1c0.07-0.51,0.48-0.87,1.02-0.87C116.39,197.79,116.72,198.24,116.64,198.81z"/>
		<path fill="#222222" d="M124.43,203.94l-0.78,5.55h-1.36l0.78-5.52c0.15-1.11-0.24-1.41-0.84-1.41c-1,0-1.89,1.07-2.52,2.19
			l-0.65,4.74h-1.36l1.11-7.91h1.17l-0.12,1.54c0.74-1.03,1.6-1.72,2.75-1.72C123.92,201.4,124.65,202.36,124.43,203.94z"/>
		<path fill="#222222" d="M137.01,203.94l-0.78,5.55h-1.36l0.78-5.52c0.15-1.11-0.24-1.41-0.84-1.41c-1,0-1.89,1.07-2.52,2.19
			l-0.65,4.74h-1.36l1.11-7.91h1.17l-0.12,1.54c0.74-1.03,1.6-1.72,2.75-1.72C136.5,201.4,137.24,202.36,137.01,203.94z"/>
		<path fill="#222222" d="M140.34,206.55c0.03,1.44,0.71,1.96,1.71,1.96c0.74,0,1.4-0.22,2.12-0.73l0.58,0.93
			c-0.85,0.62-1.79,0.96-2.83,0.96c-1.94,0-3.02-1.22-3.02-3.21c0-2.16,1.06-5.05,4.06-5.05c1.68,0,2.5,0.96,2.5,2.01
			C145.47,205.63,143.1,206.25,140.34,206.55z M144.03,203.46c0-0.38-0.23-0.96-1.08-0.96c-1.65,0-2.34,1.56-2.53,3
			C142.68,205.24,144.03,204.81,144.03,203.46z"/>
		<path fill="#222222" d="M154.01,209.49h-1.88l-0.42-6.66l-2.35,6.66h-1.81l-0.72-7.91h1.35l0.44,6.95l2.5-6.95h1.54l0.5,6.95
			l2.4-6.95h1.32L154.01,209.49z"/>
		<path fill="#222222" d="M163.16,202.38l-0.66,0.83c-0.6-0.46-1.26-0.71-1.95-0.71c-0.96,0-1.57,0.4-1.57,1.06
			c0,0.63,0.52,0.87,1.59,1.2c1.48,0.46,2.23,1.12,2.23,2.37c0,1.75-1.63,2.54-3.28,2.54c-1.38,0-2.31-0.54-2.92-1.14l0.79-0.81
			c0.57,0.51,1.3,0.84,2.19,0.84c1.39,0,1.78-0.76,1.78-1.29c0-0.79-0.4-1.06-1.67-1.46c-1.51-0.46-2.11-1.08-2.11-2.16
			c0-1.05,0.93-2.25,2.98-2.25C161.66,201.4,162.48,201.78,163.16,202.38z"/>
		<path fill="#222222" d="M175.47,209.49h-1.88l-0.42-6.66l-2.35,6.66h-1.81l-0.72-7.91h1.35l0.44,6.95l2.5-6.95h1.54l0.5,6.95
			l2.4-6.95h1.32L175.47,209.49z"/>
		<path fill="#222222" d="M180.15,206.55c0.03,1.44,0.71,1.96,1.71,1.96c0.74,0,1.4-0.22,2.12-0.73l0.58,0.93
			c-0.85,0.62-1.79,0.96-2.83,0.96c-1.94,0-3.02-1.22-3.02-3.21c0-2.16,1.06-5.05,4.06-5.05c1.68,0,2.5,0.96,2.5,2.01
			C185.28,205.63,182.91,206.25,180.15,206.55z M183.84,203.46c0-0.38-0.23-0.96-1.08-0.96c-1.65,0-2.34,1.56-2.53,3
			C182.49,205.24,183.84,204.81,183.84,203.46z"/>
		<path fill="#222222" d="M188.99,202.36c0.7-0.62,1.42-0.96,2.29-0.96c1.5,0,2.4,1.11,2.4,3.11c0,2.22-1.11,5.16-4.23,5.16
			c-0.9,0-1.65-0.15-2.79-0.53l1.52-10.74l1.38-0.16L188.99,202.36z M188.81,203.64l-0.65,4.69c0.5,0.18,0.84,0.24,1.4,0.24
			c1.96,0,2.7-2.4,2.7-4.17c0-1.41-0.58-1.9-1.41-1.9C190.02,202.5,189.38,203.04,188.81,203.64z"/>
		<path fill="#222222" d="M200.99,202.38l-0.66,0.83c-0.6-0.46-1.26-0.71-1.95-0.71c-0.96,0-1.57,0.4-1.57,1.06
			c0,0.63,0.52,0.87,1.59,1.2c1.48,0.46,2.23,1.12,2.23,2.37c0,1.75-1.63,2.54-3.28,2.54c-1.38,0-2.31-0.54-2.92-1.14l0.79-0.81
			c0.57,0.51,1.3,0.84,2.19,0.84c1.39,0,1.78-0.76,1.78-1.29c0-0.79-0.4-1.06-1.67-1.46c-1.51-0.46-2.11-1.08-2.11-2.16
			c0-1.05,0.93-2.25,2.98-2.25C199.49,201.4,200.31,201.78,200.99,202.38z"/>
		<path fill="#222222" d="M203.58,209.49h-1.36l1.11-7.91h1.37L203.58,209.49z M205.35,198.81c-0.07,0.5-0.46,0.85-1.02,0.85
			c-0.6,0-0.94-0.45-0.87-1c0.07-0.51,0.48-0.87,1.02-0.87C205.1,197.79,205.43,198.24,205.35,198.81z"/>
		<path fill="#222222" d="M208.14,207.4c-0.12,0.79,0.06,1.11,0.71,1.11c0.36,0,0.69-0.12,1.11-0.36l0.45,0.99
			c-0.57,0.36-1.15,0.53-1.79,0.53c-1.36,0-2.05-0.83-1.84-2.29l0.66-4.73h-1.37l0.15-1.07h1.43l0.49-1.83l1.08-0.12l-0.27,1.95
			h1.86l-0.3,1.07h-1.71L208.14,207.4z"/>
		<path fill="#222222" d="M212.94,206.55c0.03,1.44,0.71,1.96,1.71,1.96c0.74,0,1.4-0.22,2.12-0.73l0.58,0.93
			c-0.85,0.62-1.79,0.96-2.83,0.96c-1.94,0-3.02-1.22-3.02-3.21c0-2.16,1.06-5.05,4.06-5.05c1.68,0,2.5,0.96,2.5,2.01
			C218.07,205.63,215.7,206.25,212.94,206.55z M216.63,203.46c0-0.38-0.23-0.96-1.08-0.96c-1.65,0-2.34,1.56-2.53,3
			C215.28,205.24,216.63,204.81,216.63,203.46z"/>
		<path fill="#222222" d="M222.18,199.02c0,0.31-0.03,0.53-0.35,1.02l-1.3,2.1h-0.92l0.98-2.31c-0.21-0.15-0.33-0.38-0.33-0.69
			c0-0.54,0.45-0.94,1.04-0.94C221.82,198.19,222.18,198.55,222.18,199.02z"/>
		<path fill="#222222" d="M228.42,202.38l-0.66,0.83c-0.6-0.46-1.26-0.71-1.95-0.71c-0.96,0-1.57,0.4-1.57,1.06
			c0,0.63,0.52,0.87,1.59,1.2c1.48,0.46,2.23,1.12,2.23,2.37c0,1.75-1.63,2.54-3.28,2.54c-1.38,0-2.31-0.54-2.92-1.14l0.79-0.81
			c0.57,0.51,1.3,0.84,2.19,0.84c1.39,0,1.78-0.76,1.78-1.29c0-0.79-0.4-1.06-1.67-1.46c-1.51-0.46-2.11-1.08-2.11-2.16
			c0-1.05,0.93-2.25,2.98-2.25C226.92,201.4,227.75,201.78,228.42,202.38z"/>
		<path fill="#222222" d="M241.15,198.42l-1.56,11.07h-1.2l0.02-1.31c-0.56,0.92-1.37,1.49-2.39,1.49c-1.63,0-2.5-1.23-2.5-3.14
			c0-2.04,0.98-5.13,3.67-5.13c0.93,0,1.59,0.44,2.02,0.99l0.58-4.12L241.15,198.42z M234.98,206.64c0,1.34,0.5,1.94,1.32,1.94
			c0.98,0,1.62-0.72,2.33-1.83l0.46-3.29c-0.4-0.61-0.9-0.96-1.63-0.96C235.53,202.5,234.98,205.06,234.98,206.64z"/>
		<path fill="#222222" d="M249.34,202.08l-0.85,5.61c-0.02,0.12-0.03,0.22-0.03,0.31c0,0.44,0.19,0.6,0.51,0.72l-0.39,0.95
			c-0.79-0.11-1.29-0.47-1.39-1.32c-0.62,0.79-1.43,1.32-2.35,1.32c-1.65,0-2.52-1.22-2.52-3.03c0-2.16,1.14-5.23,4.21-5.23
			C247.47,201.4,248.29,201.57,249.34,202.08z M243.78,206.65c0,1.32,0.5,1.92,1.38,1.92c0.84,0,1.46-0.63,2.07-1.46l0.66-4.37
			c-0.45-0.19-0.78-0.25-1.33-0.25C244.54,202.5,243.78,204.88,243.78,206.65z"/>
		<path fill="#222222" d="M252.69,207.4c-0.12,0.79,0.06,1.11,0.71,1.11c0.36,0,0.69-0.12,1.11-0.36l0.45,0.99
			c-0.57,0.36-1.15,0.53-1.79,0.53c-1.36,0-2.05-0.83-1.84-2.29l0.66-4.73h-1.37l0.15-1.07h1.43l0.49-1.83l1.08-0.12l-0.27,1.95
			h1.86l-0.3,1.07h-1.71L252.69,207.4z"/>
		<path fill="#222222" d="M263.05,202.08l-0.85,5.61c-0.02,0.12-0.03,0.22-0.03,0.31c0,0.44,0.19,0.6,0.51,0.72l-0.39,0.95
			c-0.79-0.11-1.29-0.47-1.39-1.32c-0.62,0.79-1.43,1.32-2.35,1.32c-1.65,0-2.52-1.22-2.52-3.03c0-2.16,1.14-5.23,4.21-5.23
			C261.18,201.4,262,201.57,263.05,202.08z M257.49,206.65c0,1.32,0.5,1.92,1.38,1.92c0.84,0,1.46-0.63,2.07-1.46l0.66-4.37
			c-0.45-0.19-0.78-0.25-1.33-0.25C258.25,202.5,257.49,204.88,257.49,206.65z"/>
		<path fill="#222222" d="M275.61,204.51c0,2.22-1.11,5.16-4.2,5.16c-0.54,0-1-0.09-1.5-0.26l-0.45,3.13l-1.37,0.18l1.56-11.14h1.17
			l-0.03,1.01c0.84-0.93,1.59-1.19,2.42-1.19C274.71,201.4,275.61,202.51,275.61,204.51z M270.73,203.64l-0.65,4.69
			c0.5,0.18,0.84,0.24,1.4,0.24c1.96,0,2.7-2.4,2.7-4.17c0-1.41-0.58-1.9-1.41-1.9C271.95,202.5,271.3,203.04,270.73,203.64z"/>
		<path fill="#222222" d="M284.34,204.67c0,1.91-0.97,5-4.08,5c-1.96,0-3.03-1.26-3.03-3.27c0-1.95,1-5,4.09-5
			C283.29,201.4,284.34,202.66,284.34,204.67z M278.67,206.55c0,1.38,0.57,2.01,1.63,2.01c2.06,0,2.6-2.52,2.6-4.03
			c0-1.38-0.57-2.01-1.62-2.01C279.22,202.51,278.67,205.03,278.67,206.55z"/>
		<path fill="#222222" d="M293.59,198.42l-1.56,11.07h-1.2l0.01-1.31c-0.55,0.92-1.36,1.49-2.38,1.49c-1.63,0-2.5-1.23-2.5-3.14
			c0-2.04,0.97-5.13,3.67-5.13c0.93,0,1.59,0.44,2.03,0.99l0.58-4.12L293.59,198.42z M287.41,206.64c0,1.34,0.5,1.94,1.32,1.94
			c0.97,0,1.62-0.72,2.32-1.83l0.46-3.29c-0.4-0.61-0.9-0.96-1.63-0.96C287.97,202.5,287.41,205.06,287.41,206.64z"/>
	</g>
	<g>
		<path fill="#3D2C70" d="M177.17,273.04h4.05l-0.26,1.95h-6.25v-10.39h2.46V273.04z"/>
		<path fill="#3D2C70" d="M184.94,264.17c0,0.76-0.58,1.35-1.41,1.35c-0.83,0-1.4-0.59-1.4-1.35c0-0.77,0.57-1.35,1.4-1.35
			C184.35,262.82,184.94,263.41,184.94,264.17z M184.73,274.99h-2.37v-7.96h2.37V274.99z"/>
		<path fill="#3D2C70" d="M188.96,274.99h-2.37v-11.13l2.37-0.25V274.99z M191.46,270.52l2.61,4.47h-2.67l-2.37-4.35l2.43-3.62h2.42
			L191.46,270.52z"/>
		<path fill="#3D2C70" d="M201.53,271.7h-4.92c0.15,1.42,0.83,1.81,1.8,1.81c0.65,0,1.21-0.22,1.9-0.71l0.98,1.32
			c-0.79,0.63-1.81,1.11-3.1,1.11c-2.65,0-4-1.71-4-4.2c0-2.38,1.31-4.28,3.72-4.28c2.28,0,3.67,1.5,3.67,4.08
			C201.57,271.1,201.56,271.46,201.53,271.7z M199.25,270.17c-0.02-1.08-0.35-1.83-1.29-1.83c-0.79,0-1.25,0.49-1.36,1.93h2.65
			V270.17z"/>
		<path fill="#3D2C70" d="M208.67,267.74l-0.87,1.33c-0.61-0.39-1.27-0.62-1.96-0.62c-0.65,0-0.96,0.24-0.96,0.6
			c0,0.42,0.21,0.6,1.64,1.02c1.57,0.45,2.46,1.11,2.46,2.53c0,1.65-1.56,2.62-3.54,2.62c-1.38,0-2.55-0.48-3.33-1.18l1.16-1.29
			c0.6,0.46,1.33,0.78,2.11,0.78c0.72,0,1.15-0.27,1.15-0.75c0-0.54-0.24-0.71-1.68-1.11c-1.58-0.45-2.35-1.26-2.35-2.49
			c0-1.37,1.25-2.43,3.25-2.43C206.9,266.77,207.93,267.14,208.67,267.74z"/>
		<path fill="#3D2C70" d="M221.09,271.01c0,2.55-1.47,4.23-3.9,4.23c-2.42,0-3.9-1.56-3.9-4.24c0-2.55,1.47-4.23,3.9-4.23
			C219.62,266.77,221.09,268.33,221.09,271.01z M215.75,271c0,1.77,0.48,2.5,1.44,2.5s1.44-0.76,1.44-2.49
			c0-1.77-0.48-2.51-1.44-2.51S215.75,269.27,215.75,271z"/>
		<path fill="#3D2C70" d="M229.37,269.17v5.82H227v-5.42c0-0.84-0.28-1.07-0.75-1.07c-0.52,0-0.96,0.38-1.38,1.04v5.45h-2.37v-7.96
			h2.07l0.17,0.95c0.67-0.78,1.44-1.2,2.43-1.2C228.54,266.77,229.37,267.65,229.37,269.17z"/>
		<path fill="#3D2C70" d="M239.7,274.61c-0.6,0.42-1.44,0.63-2.16,0.63c-1.75-0.01-2.61-1-2.61-2.88v-3.69h-1.12v-1.65h1.12v-1.72
			l2.37-0.27v2h1.83l-0.26,1.65h-1.57v3.66c0,0.76,0.25,1.03,0.75,1.03c0.27,0,0.54-0.07,0.85-0.27L239.7,274.61z"/>
		<path fill="#3D2C70" d="M247.37,269.17v5.82H245v-5.42c0-0.84-0.3-1.07-0.75-1.07c-0.52,0-0.96,0.38-1.38,1.02v5.46h-2.37v-11.13
			l2.37-0.24v4.25c0.65-0.72,1.37-1.1,2.29-1.1C246.54,266.77,247.37,267.65,247.37,269.17z"/>
		<path fill="#3D2C70" d="M251.73,264.17c0,0.76-0.58,1.35-1.41,1.35c-0.83,0-1.4-0.59-1.4-1.35c0-0.77,0.57-1.35,1.4-1.35
			C251.15,262.82,251.73,263.41,251.73,264.17z M251.52,274.99h-2.37v-7.96h2.37V274.99z"/>
		<path fill="#3D2C70" d="M259.11,267.74l-0.87,1.33c-0.61-0.39-1.27-0.62-1.96-0.62c-0.65,0-0.96,0.24-0.96,0.6
			c0,0.42,0.21,0.6,1.64,1.02c1.57,0.45,2.46,1.11,2.46,2.53c0,1.65-1.56,2.62-3.54,2.62c-1.38,0-2.55-0.48-3.33-1.18l1.16-1.29
			c0.6,0.46,1.33,0.78,2.11,0.78c0.72,0,1.15-0.27,1.15-0.75c0-0.54-0.24-0.71-1.68-1.11c-1.58-0.45-2.35-1.26-2.35-2.49
			c0-1.37,1.25-2.43,3.25-2.43C257.34,266.77,258.38,267.14,259.11,267.74z"/>
		<path fill="#3D2C70" d="M271.65,270.98c0,2.46-1.2,4.26-3.17,4.26c-0.78,0-1.44-0.27-1.94-0.84v3.66l-2.37,0.26v-11.29h2.08
			l0.12,0.88c0.66-0.83,1.52-1.14,2.25-1.14C270.73,266.77,271.65,268.4,271.65,270.98z M269.19,271.01c0-1.98-0.48-2.51-1.31-2.51
			c-0.51,0-0.99,0.35-1.33,0.93v3.36c0.33,0.48,0.72,0.71,1.21,0.71C268.65,273.5,269.19,272.8,269.19,271.01z"/>
		<path fill="#3D2C70" d="M280.48,271.01c0,2.55-1.47,4.23-3.9,4.23c-2.41,0-3.9-1.56-3.9-4.24c0-2.55,1.47-4.23,3.9-4.23
			C279.02,266.77,280.48,268.33,280.48,271.01z M275.15,271c0,1.77,0.48,2.5,1.44,2.5c0.96,0,1.44-0.76,1.44-2.49
			c0-1.77-0.48-2.51-1.44-2.51C275.62,268.51,275.15,269.27,275.15,271z"/>
		<path fill="#3D2C70" d="M287.63,267.74l-0.87,1.33c-0.62-0.39-1.28-0.62-1.96-0.62c-0.65,0-0.96,0.24-0.96,0.6
			c0,0.42,0.21,0.6,1.63,1.02c1.58,0.45,2.46,1.11,2.46,2.53c0,1.65-1.56,2.62-3.54,2.62c-1.38,0-2.55-0.48-3.33-1.18l1.16-1.29
			c0.6,0.46,1.33,0.78,2.12,0.78c0.72,0,1.15-0.27,1.15-0.75c0-0.54-0.24-0.71-1.68-1.11c-1.58-0.45-2.36-1.26-2.36-2.49
			c0-1.37,1.25-2.43,3.25-2.43C285.85,266.77,286.89,267.14,287.63,267.74z"/>
		<path fill="#3D2C70" d="M294.13,274.61c-0.6,0.42-1.44,0.63-2.16,0.63c-1.75-0.01-2.61-1-2.61-2.88v-3.69h-1.12v-1.65h1.12v-1.72
			l2.37-0.27v2h1.83l-0.25,1.65h-1.58v3.66c0,0.76,0.26,1.03,0.75,1.03c0.27,0,0.54-0.07,0.86-0.27L294.13,274.61z"/>
		<path fill="#222222" d="M2.24,292.05c0.03,1.44,0.71,1.96,1.71,1.96c0.74,0,1.4-0.23,2.12-0.74l0.58,0.93
			c-0.85,0.61-1.79,0.96-2.83,0.96c-1.94,0-3.02-1.21-3.02-3.21c0-2.16,1.06-5.05,4.06-5.05c1.68,0,2.5,0.96,2.5,2.01
			C7.37,291.13,5,291.75,2.24,292.05z M5.93,288.96c0-0.38-0.23-0.96-1.08-0.96c-1.65,0-2.34,1.56-2.53,3
			C4.58,290.74,5.93,290.31,5.93,288.96z"/>
		<path fill="#222222" d="M15.63,287.58l-0.85,5.61c-0.02,0.12-0.03,0.23-0.03,0.32c0,0.43,0.19,0.6,0.51,0.72l-0.39,0.95
			c-0.79-0.11-1.29-0.46-1.39-1.32c-0.62,0.79-1.43,1.32-2.35,1.32c-1.65,0-2.52-1.21-2.52-3.03c0-2.16,1.14-5.23,4.21-5.23
			C13.76,286.9,14.58,287.07,15.63,287.58z M10.07,292.15c0,1.32,0.5,1.92,1.38,1.92c0.84,0,1.46-0.63,2.07-1.46l0.66-4.36
			c-0.45-0.19-0.78-0.25-1.33-0.25C10.83,288,10.07,290.38,10.07,292.15z"/>
		<path fill="#222222" d="M23.46,287.77l-0.73,0.85c-0.48-0.42-0.93-0.58-1.54-0.58c-2,0-2.58,2.37-2.58,4c0,1.38,0.6,1.95,1.6,1.95
			c0.69,0,1.2-0.22,1.83-0.62l0.56,0.96c-0.78,0.56-1.6,0.83-2.48,0.83c-1.88,0-2.96-1.2-2.96-3.22c0-2.07,1.08-5.04,4-5.04
			C22.06,286.9,22.82,287.16,23.46,287.77z"/>
		<path fill="#222222" d="M31.07,289.39l-0.79,5.6h-1.36l0.78-5.52c0.15-1.11-0.23-1.41-0.79-1.41c-1.05,0-1.94,1.06-2.56,2.19
			l-0.65,4.74h-1.36l1.56-11.07l1.38-0.15l-0.69,4.8c0.66-0.99,1.51-1.67,2.61-1.67C30.56,286.9,31.28,287.86,31.07,289.39z"/>
		<path fill="#222222" d="M43.95,290.17c0,1.91-0.98,5-4.08,5c-1.97,0-3.03-1.26-3.03-3.27c0-1.95,1.01-5,4.1-5
			C42.9,286.9,43.95,288.16,43.95,290.17z M38.28,292.05c0,1.38,0.57,2.01,1.64,2.01c2.05,0,2.59-2.52,2.59-4.03
			c0-1.38-0.57-2.01-1.62-2.01C38.84,288.01,38.28,290.53,38.28,292.05z"/>
		<path fill="#222222" d="M52.32,289.44l-0.78,5.55h-1.36l0.78-5.52c0.15-1.11-0.24-1.41-0.84-1.41c-1,0-1.89,1.06-2.52,2.19
			l-0.65,4.74h-1.36l1.11-7.91h1.17l-0.12,1.54c0.74-1.03,1.6-1.72,2.75-1.72C51.81,286.9,52.55,287.86,52.32,289.44z"/>
		<path fill="#222222" d="M55.65,292.05c0.03,1.44,0.71,1.96,1.71,1.96c0.74,0,1.4-0.23,2.12-0.74l0.58,0.93
			c-0.85,0.61-1.79,0.96-2.83,0.96c-1.94,0-3.02-1.21-3.02-3.21c0-2.16,1.06-5.05,4.06-5.05c1.68,0,2.5,0.96,2.5,2.01
			C60.78,291.13,58.41,291.75,55.65,292.05z M59.34,288.96c0-0.38-0.23-0.96-1.08-0.96c-1.65,0-2.34,1.56-2.53,3
			C57.99,290.74,59.34,290.31,59.34,288.96z"/>
		<path fill="#222222" d="M67.37,294.99H66l1.11-7.91h1.37L67.37,294.99z M69.14,284.31c-0.07,0.49-0.46,0.85-1.02,0.85
			c-0.6,0-0.94-0.45-0.87-1c0.07-0.51,0.48-0.87,1.02-0.87C68.88,283.29,69.21,283.74,69.14,284.31z"/>
		<path fill="#222222" d="M76.92,289.44l-0.78,5.55h-1.36l0.78-5.52c0.15-1.11-0.24-1.41-0.84-1.41c-1,0-1.89,1.06-2.52,2.19
			l-0.65,4.74h-1.36l1.11-7.91h1.17l-0.12,1.54c0.74-1.03,1.6-1.72,2.75-1.72C76.41,286.9,77.15,287.86,76.92,289.44z"/>
		<path fill="#222222" d="M90.39,283.92l-1.56,11.07h-1.2l0.02-1.31c-0.56,0.92-1.37,1.49-2.39,1.49c-1.63,0-2.5-1.23-2.5-3.13
			c0-2.04,0.98-5.13,3.67-5.13c0.93,0,1.59,0.43,2.02,0.99l0.58-4.12L90.39,283.92z M84.21,292.14c0,1.33,0.5,1.93,1.32,1.93
			c0.98,0,1.62-0.72,2.33-1.83l0.46-3.28c-0.4-0.61-0.9-0.96-1.63-0.96C84.77,288,84.21,290.56,84.21,292.14z"/>
		<path fill="#222222" d="M93.02,294.99h-1.36l1.11-7.91h1.37L93.02,294.99z M94.79,284.31c-0.07,0.49-0.46,0.85-1.02,0.85
			c-0.6,0-0.94-0.45-0.87-1c0.07-0.51,0.48-0.87,1.02-0.87C94.53,283.29,94.86,283.74,94.79,284.31z"/>
		<path fill="#222222" d="M98.58,286.03l-0.15,1.05h1.91l-0.3,1.07h-1.75l-0.9,6.4c-0.31,2.23-1.2,2.88-2.96,3.63l-0.39-1.03
			c1.08-0.48,1.74-0.9,1.98-2.6l0.9-6.4h-1.4l0.15-1.07h1.4l0.17-1.12c0.18-1.32,1.12-2.22,2.68-2.22c0.77,0,1.28,0.21,1.86,0.57
			l-0.53,0.91c-0.46-0.31-0.91-0.38-1.29-0.38C99.08,284.85,98.69,285.27,98.58,286.03z"/>
		<path fill="#222222" d="M103.52,286.03l-0.15,1.05h1.91l-0.3,1.07h-1.75l-0.9,6.4c-0.31,2.23-1.2,2.88-2.96,3.63l-0.39-1.03
			c1.08-0.48,1.74-0.9,1.98-2.6l0.9-6.4h-1.4l0.15-1.07h1.4l0.17-1.12c0.18-1.32,1.12-2.22,2.68-2.22c0.77,0,1.28,0.21,1.86,0.57
			l-0.53,0.91c-0.46-0.31-0.91-0.38-1.29-0.38C104.01,284.85,103.62,285.27,103.52,286.03z"/>
		<path fill="#222222" d="M106.92,292.05c0.03,1.44,0.71,1.96,1.71,1.96c0.74,0,1.4-0.23,2.12-0.74l0.58,0.93
			c-0.85,0.61-1.79,0.96-2.83,0.96c-1.94,0-3.02-1.21-3.02-3.21c0-2.16,1.06-5.05,4.06-5.05c1.68,0,2.5,0.96,2.5,2.01
			C112.05,291.13,109.68,291.75,106.92,292.05z M110.61,288.96c0-0.38-0.23-0.96-1.08-0.96c-1.65,0-2.34,1.56-2.53,3
			C109.26,290.74,110.61,290.31,110.61,288.96z"/>
		<path fill="#222222" d="M118.67,287.01l-0.4,1.34c-0.23-0.06-0.39-0.08-0.65-0.08c-1.02,0-1.71,0.93-2.27,2.54l-0.6,4.19h-1.36
			l1.11-7.91h1.17l-0.09,1.62c0.6-1.23,1.42-1.8,2.29-1.8C118.16,286.9,118.43,286.95,118.67,287.01z"/>
		<path fill="#222222" d="M120.32,292.05c0.03,1.44,0.71,1.96,1.71,1.96c0.74,0,1.4-0.23,2.12-0.74l0.58,0.93
			c-0.85,0.61-1.79,0.96-2.83,0.96c-1.94,0-3.02-1.21-3.02-3.21c0-2.16,1.06-5.05,4.06-5.05c1.68,0,2.5,0.96,2.5,2.01
			C125.45,291.13,123.08,291.75,120.32,292.05z M124.01,288.96c0-0.38-0.23-0.96-1.08-0.96c-1.65,0-2.34,1.56-2.53,3
			C122.66,290.74,124.01,290.31,124.01,288.96z"/>
		<path fill="#222222" d="M133.52,289.44l-0.78,5.55h-1.36l0.78-5.52c0.15-1.11-0.24-1.41-0.84-1.41c-1,0-1.89,1.06-2.52,2.19
			l-0.65,4.74h-1.36l1.11-7.91h1.17l-0.12,1.54c0.74-1.03,1.6-1.72,2.75-1.72C133.01,286.9,133.74,287.86,133.52,289.44z"/>
		<path fill="#222222" d="M137.22,292.9c-0.12,0.79,0.06,1.11,0.71,1.11c0.36,0,0.69-0.12,1.11-0.36l0.45,0.99
			c-0.57,0.36-1.15,0.53-1.79,0.53c-1.36,0-2.05-0.83-1.84-2.29l0.66-4.72h-1.37l0.15-1.07h1.43l0.49-1.83l1.08-0.12l-0.27,1.95
			h1.86l-0.3,1.07h-1.71L137.22,292.9z"/>
		<path fill="#222222" d="M146.06,294.99h-1.36l1.11-7.91h1.37L146.06,294.99z M147.83,284.31c-0.07,0.49-0.46,0.85-1.02,0.85
			c-0.6,0-0.94-0.45-0.87-1c0.07-0.51,0.48-0.87,1.02-0.87C147.57,283.29,147.9,283.74,147.83,284.31z"/>
		<path fill="#222222" d="M155.61,289.44l-0.78,5.55h-1.36l0.78-5.52c0.15-1.11-0.24-1.41-0.84-1.41c-1,0-1.89,1.06-2.52,2.19
			l-0.65,4.74h-1.36l1.11-7.91h1.17l-0.12,1.54c0.74-1.03,1.6-1.72,2.75-1.72C155.1,286.9,155.84,287.86,155.61,289.44z"/>
		<path fill="#222222" d="M165.2,283.92l-1.56,11.07h-1.2l0.02-1.31c-0.56,0.92-1.37,1.49-2.39,1.49c-1.63,0-2.5-1.23-2.5-3.13
			c0-2.04,0.98-5.13,3.67-5.13c0.93,0,1.59,0.43,2.02,0.99l0.58-4.12L165.2,283.92z M159.02,292.14c0,1.33,0.5,1.93,1.32,1.93
			c0.98,0,1.62-0.72,2.33-1.83l0.46-3.28c-0.4-0.61-0.9-0.96-1.63-0.96C159.57,288,159.02,290.56,159.02,292.14z"/>
		<path fill="#222222" d="M167.82,294.99h-1.36l1.11-7.91h1.37L167.82,294.99z M169.59,284.31c-0.07,0.49-0.46,0.85-1.02,0.85
			c-0.6,0-0.94-0.45-0.87-1c0.07-0.51,0.48-0.87,1.02-0.87C169.34,283.29,169.67,283.74,169.59,284.31z"/>
		<path fill="#222222" d="M173.72,294.99h-1.63l-1.59-7.91h1.48l1.08,6.66l2.94-6.66h1.5L173.72,294.99z"/>
		<path fill="#222222" d="M179.3,294.99h-1.36l1.11-7.91h1.37L179.3,294.99z M181.07,284.31c-0.07,0.49-0.46,0.85-1.02,0.85
			c-0.6,0-0.94-0.45-0.87-1c0.07-0.51,0.48-0.87,1.02-0.87C180.81,283.29,181.14,283.74,181.07,284.31z"/>
		<path fill="#222222" d="M189.74,283.92l-1.56,11.07h-1.2l0.02-1.31c-0.56,0.92-1.37,1.49-2.39,1.49c-1.63,0-2.5-1.23-2.5-3.13
			c0-2.04,0.98-5.13,3.67-5.13c0.93,0,1.59,0.43,2.02,0.99l0.58-4.12L189.74,283.92z M183.56,292.14c0,1.33,0.5,1.93,1.32,1.93
			c0.98,0,1.62-0.72,2.33-1.83l0.46-3.28c-0.41-0.61-0.9-0.96-1.63-0.96C184.11,288,183.56,290.56,183.56,292.14z"/>
		<path fill="#222222" d="M196.82,294.99h-1.17l0.1-1.46c-0.73,1-1.52,1.63-2.61,1.63c-1.41,0-2.12-0.92-1.91-2.46l0.8-5.62h1.36
			l-0.78,5.57c-0.15,1.08,0.12,1.44,0.82,1.44c0.99,0,1.79-0.95,2.4-1.86l0.72-5.15h1.36L196.82,294.99z"/>
		<path fill="#222222" d="M206.57,287.58l-0.85,5.61c-0.02,0.12-0.03,0.23-0.03,0.32c0,0.43,0.19,0.6,0.51,0.72l-0.39,0.95
			c-0.79-0.11-1.29-0.46-1.39-1.32c-0.62,0.79-1.43,1.32-2.35,1.32c-1.65,0-2.52-1.21-2.52-3.03c0-2.16,1.14-5.23,4.21-5.23
			C204.69,286.9,205.52,287.07,206.57,287.58z M201,292.15c0,1.32,0.5,1.92,1.38,1.92c0.84,0,1.45-0.63,2.07-1.46l0.66-4.36
			c-0.45-0.19-0.78-0.25-1.33-0.25C201.77,288,201,290.38,201,292.15z"/>
		<path fill="#222222" d="M209.69,293.44c-0.05,0.42,0.03,0.58,0.36,0.58c0.18,0,0.36-0.04,0.54-0.12l0.28,1
			c-0.4,0.18-0.75,0.26-1.09,0.26c-1.05,0-1.6-0.64-1.42-1.95l1.32-9.31l1.38-0.17L209.69,293.44z"/>
		<path fill="#222222" d="M218.18,287.88l-0.66,0.83c-0.6-0.46-1.26-0.71-1.95-0.71c-0.96,0-1.57,0.4-1.57,1.06
			c0,0.63,0.52,0.87,1.59,1.2c1.48,0.46,2.23,1.12,2.23,2.37c0,1.75-1.63,2.54-3.28,2.54c-1.38,0-2.31-0.54-2.92-1.14l0.79-0.81
			c0.57,0.51,1.3,0.84,2.19,0.84c1.39,0,1.78-0.76,1.78-1.29c0-0.79-0.4-1.06-1.67-1.46c-1.51-0.46-2.11-1.08-2.11-2.16
			c0-1.05,0.93-2.25,2.98-2.25C216.68,286.9,217.5,287.28,218.18,287.88z"/>
		<path fill="#222222" d="M222.18,284.52c0,0.32-0.03,0.53-0.35,1.02l-1.3,2.1h-0.92l0.98-2.31c-0.21-0.15-0.33-0.38-0.33-0.69
			c0-0.54,0.45-0.95,1.04-0.95C221.82,283.69,222.18,284.05,222.18,284.52z"/>
		<path fill="#222222" d="M234.24,283.92l-1.56,11.07h-1.2l0.02-1.31c-0.56,0.92-1.37,1.49-2.39,1.49c-1.63,0-2.5-1.23-2.5-3.13
			c0-2.04,0.98-5.13,3.67-5.13c0.93,0,1.59,0.43,2.02,0.99l0.58-4.12L234.24,283.92z M228.06,292.14c0,1.33,0.5,1.93,1.32,1.93
			c0.98,0,1.62-0.72,2.33-1.83l0.46-3.28c-0.41-0.61-0.9-0.96-1.63-0.96C228.62,288,228.06,290.56,228.06,292.14z"/>
		<path fill="#222222" d="M242.43,287.58l-0.85,5.61c-0.02,0.12-0.03,0.23-0.03,0.32c0,0.43,0.19,0.6,0.51,0.72l-0.39,0.95
			c-0.79-0.11-1.29-0.46-1.39-1.32c-0.62,0.79-1.43,1.32-2.35,1.32c-1.65,0-2.52-1.21-2.52-3.03c0-2.16,1.14-5.23,4.21-5.23
			C240.56,286.9,241.38,287.07,242.43,287.58z M236.87,292.15c0,1.32,0.5,1.92,1.38,1.92c0.84,0,1.45-0.63,2.07-1.46l0.66-4.36
			c-0.45-0.19-0.78-0.25-1.33-0.25C237.63,288,236.87,290.38,236.87,292.15z"/>
		<path fill="#222222" d="M245.77,292.9c-0.12,0.79,0.06,1.11,0.71,1.11c0.36,0,0.69-0.12,1.11-0.36l0.45,0.99
			c-0.57,0.36-1.15,0.53-1.79,0.53c-1.36,0-2.05-0.83-1.84-2.29l0.66-4.72h-1.37l0.15-1.07h1.43l0.49-1.83l1.08-0.12l-0.27,1.95
			h1.86l-0.3,1.07h-1.71L245.77,292.9z"/>
		<path fill="#222222" d="M256.14,287.58l-0.85,5.61c-0.02,0.12-0.03,0.23-0.03,0.32c0,0.43,0.19,0.6,0.51,0.72l-0.39,0.95
			c-0.79-0.11-1.29-0.46-1.39-1.32c-0.62,0.79-1.43,1.32-2.35,1.32c-1.65,0-2.52-1.21-2.52-3.03c0-2.16,1.14-5.23,4.21-5.23
			C254.27,286.9,255.09,287.07,256.14,287.58z M250.58,292.15c0,1.32,0.5,1.92,1.38,1.92c0.84,0,1.45-0.63,2.07-1.46l0.66-4.36
			c-0.45-0.19-0.78-0.25-1.33-0.25C251.34,288,250.58,290.38,250.58,292.15z"/>
		<path fill="#222222" d="M268.69,290.01c0,2.22-1.11,5.16-4.2,5.16c-0.54,0-1-0.09-1.5-0.26l-0.45,3.14l-1.37,0.18l1.56-11.14h1.17
			l-0.03,1c0.84-0.93,1.59-1.18,2.41-1.18C267.79,286.9,268.69,288.01,268.69,290.01z M263.82,289.14l-0.65,4.69
			c0.5,0.18,0.84,0.24,1.4,0.24c1.96,0,2.7-2.4,2.7-4.17c0-1.41-0.58-1.9-1.41-1.9C265.03,288,264.39,288.54,263.82,289.14z"/>
		<path fill="#222222" d="M277.42,290.17c0,1.91-0.97,5-4.08,5c-1.97,0-3.03-1.26-3.03-3.27c0-1.95,1.01-5,4.1-5
			C276.37,286.9,277.42,288.16,277.42,290.17z M271.75,292.05c0,1.38,0.57,2.01,1.64,2.01c2.05,0,2.59-2.52,2.59-4.03
			c0-1.38-0.57-2.01-1.62-2.01C272.31,288.01,271.75,290.53,271.75,292.05z"/>
		<path fill="#222222" d="M286.68,283.92l-1.56,11.07h-1.2l0.01-1.31c-0.55,0.92-1.36,1.49-2.38,1.49c-1.63,0-2.5-1.23-2.5-3.13
			c0-2.04,0.97-5.13,3.67-5.13c0.93,0,1.59,0.43,2.03,0.99l0.58-4.12L286.68,283.92z M280.5,292.14c0,1.33,0.5,1.93,1.32,1.93
			c0.97,0,1.62-0.72,2.32-1.83l0.46-3.28c-0.4-0.61-0.9-0.96-1.63-0.96C281.05,288,280.5,290.56,280.5,292.14z"/>
		<path fill="#222222" d="M293.62,287.88l-0.66,0.83c-0.6-0.46-1.26-0.71-1.95-0.71c-0.96,0-1.58,0.4-1.58,1.06
			c0,0.63,0.53,0.87,1.59,1.2c1.48,0.46,2.23,1.12,2.23,2.37c0,1.75-1.63,2.54-3.29,2.54c-1.38,0-2.31-0.54-2.92-1.14l0.79-0.81
			c0.57,0.51,1.31,0.84,2.19,0.84c1.39,0,1.79-0.76,1.79-1.29c0-0.79-0.41-1.06-1.67-1.46c-1.52-0.46-2.12-1.08-2.12-2.16
			c0-1.05,0.93-2.25,2.99-2.25C292.12,286.9,292.95,287.28,293.62,287.88z"/>
	</g>
	<g>
		<path fill="#3D2C70" d="M145.05,336.48l-1.2,1.43c-0.55-0.48-1.14-0.75-1.86-0.75c-1.32,0-2.25,1.06-2.25,3.61
			c0,2.5,0.92,3.57,2.29,3.57c0.83,0,1.43-0.4,2.02-0.87l1.11,1.44c-0.68,0.69-1.81,1.33-3.25,1.33c-2.85,0-4.75-1.92-4.75-5.47
			c0-3.48,2.01-5.43,4.68-5.43C143.25,335.34,144.2,335.76,145.05,336.48z"/>
		<path fill="#3D2C70" d="M153.42,342.01c0,2.55-1.47,4.23-3.9,4.23c-2.42,0-3.9-1.56-3.9-4.25c0-2.55,1.47-4.23,3.9-4.23
			C151.95,337.77,153.42,339.33,153.42,342.01z M148.08,342c0,1.77,0.48,2.51,1.44,2.51s1.44-0.77,1.44-2.49
			c0-1.77-0.48-2.5-1.44-2.5S148.08,340.27,148.08,342z"/>
		<path fill="#3D2C70" d="M165.72,340.17v5.82h-2.37v-5.41c0-0.84-0.31-1.07-0.68-1.07c-0.51,0-0.87,0.37-1.21,1.03v5.45h-2.37
			v-5.41c0-0.84-0.31-1.07-0.68-1.07c-0.49,0-0.87,0.37-1.21,1.03v5.45h-2.37v-7.96h2.07l0.17,0.93c0.61-0.78,1.33-1.18,2.31-1.18
			c0.89,0,1.56,0.45,1.88,1.26c0.63-0.83,1.37-1.26,2.38-1.26C164.87,337.77,165.72,338.65,165.72,340.17z"/>
		<path fill="#3D2C70" d="M178.4,340.17v5.82h-2.37v-5.41c0-0.84-0.31-1.07-0.68-1.07c-0.51,0-0.87,0.37-1.21,1.03v5.45h-2.37v-5.41
			c0-0.84-0.31-1.07-0.68-1.07c-0.49,0-0.87,0.37-1.21,1.03v5.45h-2.37v-7.96h2.07l0.17,0.93c0.61-0.78,1.33-1.18,2.31-1.18
			c0.89,0,1.56,0.45,1.88,1.26c0.63-0.83,1.37-1.26,2.38-1.26C177.54,337.77,178.4,338.65,178.4,340.17z"/>
		<path fill="#3D2C70" d="M187.08,342.7h-4.92c0.15,1.43,0.83,1.82,1.8,1.82c0.65,0,1.21-0.23,1.9-0.71l0.98,1.32
			c-0.79,0.63-1.81,1.11-3.1,1.11c-2.65,0-4-1.71-4-4.2c0-2.38,1.31-4.27,3.72-4.27c2.28,0,3.67,1.5,3.67,4.08
			C187.13,342.1,187.11,342.46,187.08,342.7z M184.8,341.17c-0.02-1.08-0.35-1.83-1.29-1.83c-0.79,0-1.25,0.49-1.36,1.93h2.65
			V341.17z"/>
		<path fill="#3D2C70" d="M195.36,340.17v5.82h-2.37v-5.41c0-0.84-0.28-1.07-0.75-1.07c-0.52,0-0.96,0.37-1.38,1.03v5.45h-2.37
			v-7.96h2.07l0.17,0.95c0.67-0.78,1.44-1.2,2.43-1.2C194.54,337.77,195.36,338.65,195.36,340.17z"/>
		<path fill="#3D2C70" d="M202.14,345.61c-0.6,0.42-1.44,0.63-2.16,0.63c-1.75-0.01-2.61-1-2.61-2.88v-3.69h-1.12v-1.65h1.12v-1.72
			l2.37-0.27v1.99h1.83l-0.26,1.65h-1.57v3.66c0,0.76,0.25,1.03,0.75,1.03c0.27,0,0.54-0.08,0.85-0.27L202.14,345.61z"/>
		<path fill="#3D2C70" d="M208.67,338.74l-0.87,1.33c-0.61-0.39-1.27-0.62-1.96-0.62c-0.65,0-0.96,0.24-0.96,0.6
			c0,0.42,0.21,0.6,1.64,1.02c1.57,0.45,2.46,1.11,2.46,2.53c0,1.65-1.56,2.62-3.54,2.62c-1.38,0-2.55-0.48-3.33-1.18l1.16-1.29
			c0.6,0.46,1.33,0.78,2.11,0.78c0.72,0,1.15-0.27,1.15-0.75c0-0.54-0.24-0.71-1.68-1.11c-1.58-0.45-2.35-1.26-2.35-2.49
			c0-1.37,1.25-2.43,3.25-2.43C206.9,337.77,207.93,338.14,208.67,338.74z"/>
		<path fill="#3D2C70" d="M221.09,342.01c0,2.55-1.47,4.23-3.9,4.23c-2.42,0-3.9-1.56-3.9-4.25c0-2.55,1.47-4.23,3.9-4.23
			C219.62,337.77,221.09,339.33,221.09,342.01z M215.75,342c0,1.77,0.48,2.51,1.44,2.51s1.44-0.77,1.44-2.49
			c0-1.77-0.48-2.5-1.44-2.5S215.75,340.27,215.75,342z"/>
		<path fill="#3D2C70" d="M229.37,340.17v5.82H227v-5.41c0-0.84-0.28-1.07-0.75-1.07c-0.52,0-0.96,0.37-1.38,1.03v5.45h-2.37v-7.96
			h2.07l0.17,0.95c0.67-0.78,1.44-1.2,2.43-1.2C228.54,337.77,229.37,338.65,229.37,340.17z"/>
		<path fill="#3D2C70" d="M239.7,345.61c-0.6,0.42-1.44,0.63-2.16,0.63c-1.75-0.01-2.61-1-2.61-2.88v-3.69h-1.12v-1.65h1.12v-1.72
			l2.37-0.27v1.99h1.83l-0.26,1.65h-1.57v3.66c0,0.76,0.25,1.03,0.75,1.03c0.27,0,0.54-0.08,0.85-0.27L239.7,345.61z"/>
		<path fill="#3D2C70" d="M247.37,340.17v5.82H245v-5.41c0-0.84-0.3-1.07-0.75-1.07c-0.52,0-0.96,0.37-1.38,1.02v5.46h-2.37v-11.13
			l2.37-0.24v4.24c0.65-0.72,1.37-1.09,2.29-1.09C246.54,337.77,247.37,338.65,247.37,340.17z"/>
		<path fill="#3D2C70" d="M251.73,335.17c0,0.76-0.58,1.35-1.41,1.35c-0.83,0-1.4-0.58-1.4-1.35c0-0.77,0.57-1.35,1.4-1.35
			C251.15,333.82,251.73,334.41,251.73,335.17z M251.52,345.99h-2.37v-7.96h2.37V345.99z"/>
		<path fill="#3D2C70" d="M259.11,338.74l-0.87,1.33c-0.61-0.39-1.27-0.62-1.96-0.62c-0.65,0-0.96,0.24-0.96,0.6
			c0,0.42,0.21,0.6,1.64,1.02c1.57,0.45,2.46,1.11,2.46,2.53c0,1.65-1.56,2.62-3.54,2.62c-1.38,0-2.55-0.48-3.33-1.18l1.16-1.29
			c0.6,0.46,1.33,0.78,2.11,0.78c0.72,0,1.15-0.27,1.15-0.75c0-0.54-0.24-0.71-1.68-1.11c-1.58-0.45-2.35-1.26-2.35-2.49
			c0-1.37,1.25-2.43,3.25-2.43C257.34,337.77,258.38,338.14,259.11,338.74z"/>
		<path fill="#3D2C70" d="M271.65,341.98c0,2.46-1.2,4.26-3.16,4.26c-0.78,0-1.44-0.27-1.94-0.84v3.66l-2.37,0.26v-11.29h2.08
			l0.12,0.88c0.66-0.82,1.52-1.14,2.25-1.14C270.74,337.77,271.65,339.4,271.65,341.98z M269.19,342.01c0-1.98-0.48-2.5-1.31-2.5
			c-0.51,0-0.99,0.34-1.33,0.93v3.36c0.33,0.48,0.72,0.71,1.21,0.71C268.65,344.5,269.19,343.8,269.19,342.01z"/>
		<path fill="#3D2C70" d="M280.48,342.01c0,2.55-1.47,4.23-3.9,4.23c-2.41,0-3.9-1.56-3.9-4.25c0-2.55,1.47-4.23,3.9-4.23
			C279.02,337.77,280.48,339.33,280.48,342.01z M275.15,342c0,1.77,0.48,2.51,1.44,2.51c0.96,0,1.44-0.77,1.44-2.49
			c0-1.77-0.48-2.5-1.44-2.5C275.62,339.51,275.15,340.27,275.15,342z"/>
		<path fill="#3D2C70" d="M287.63,338.74l-0.87,1.33c-0.62-0.39-1.28-0.62-1.96-0.62c-0.65,0-0.96,0.24-0.96,0.6
			c0,0.42,0.21,0.6,1.63,1.02c1.58,0.45,2.46,1.11,2.46,2.53c0,1.65-1.56,2.62-3.54,2.62c-1.38,0-2.55-0.48-3.33-1.18l1.16-1.29
			c0.6,0.46,1.33,0.78,2.12,0.78c0.72,0,1.15-0.27,1.15-0.75c0-0.54-0.24-0.71-1.68-1.11c-1.58-0.45-2.36-1.26-2.36-2.49
			c0-1.37,1.25-2.43,3.25-2.43C285.85,337.77,286.89,338.14,287.63,338.74z"/>
		<path fill="#3D2C70" d="M294.13,345.61c-0.6,0.42-1.44,0.63-2.16,0.63c-1.75-0.01-2.61-1-2.61-2.88v-3.69h-1.12v-1.65h1.12v-1.72
			l2.37-0.27v1.99h1.83l-0.25,1.65h-1.58v3.66c0,0.76,0.26,1.03,0.75,1.03c0.27,0,0.54-0.08,0.86-0.27L294.13,345.61z"/>
		<path fill="#222222" d="M2.24,363.05c0.03,1.44,0.71,1.96,1.71,1.96c0.74,0,1.4-0.23,2.12-0.74l0.58,0.93
			c-0.85,0.61-1.79,0.96-2.83,0.96c-1.94,0-3.02-1.21-3.02-3.21c0-2.16,1.06-5.05,4.06-5.05c1.68,0,2.5,0.96,2.5,2.01
			C7.37,362.13,5,362.75,2.24,363.05z M5.93,359.96c0-0.38-0.23-0.96-1.08-0.96c-1.65,0-2.34,1.56-2.53,3
			C4.58,361.74,5.93,361.31,5.93,359.96z"/>
		<path fill="#222222" d="M15.63,358.58l-0.85,5.61c-0.02,0.12-0.03,0.23-0.03,0.32c0,0.43,0.19,0.6,0.51,0.72l-0.39,0.95
			c-0.79-0.1-1.29-0.46-1.39-1.32c-0.62,0.79-1.43,1.32-2.35,1.32c-1.65,0-2.52-1.21-2.52-3.03c0-2.16,1.14-5.23,4.21-5.23
			C13.76,357.9,14.58,358.07,15.63,358.58z M10.07,363.15c0,1.32,0.5,1.92,1.38,1.92c0.84,0,1.46-0.63,2.07-1.46l0.66-4.36
			c-0.45-0.2-0.78-0.26-1.33-0.26C10.83,359,10.07,361.38,10.07,363.15z"/>
		<path fill="#222222" d="M23.46,358.77l-0.73,0.86c-0.48-0.42-0.93-0.59-1.54-0.59c-2,0-2.58,2.37-2.58,4.01
			c0,1.38,0.6,1.95,1.6,1.95c0.69,0,1.2-0.22,1.83-0.62l0.56,0.96c-0.78,0.55-1.6,0.82-2.48,0.82c-1.88,0-2.96-1.2-2.96-3.22
			c0-2.07,1.08-5.04,4-5.04C22.06,357.9,22.82,358.16,23.46,358.77z"/>
		<path fill="#222222" d="M31.07,360.39l-0.79,5.59h-1.36l0.78-5.52c0.15-1.11-0.23-1.41-0.79-1.41c-1.05,0-1.94,1.06-2.56,2.19
			l-0.65,4.74h-1.36l1.56-11.07l1.38-0.15l-0.69,4.8c0.66-0.99,1.51-1.66,2.61-1.66C30.56,357.9,31.28,358.86,31.07,360.39z"/>
		<path fill="#222222" d="M43.95,361.17c0,1.9-0.98,4.99-4.08,4.99c-1.97,0-3.03-1.26-3.03-3.27c0-1.95,1.01-4.99,4.1-4.99
			C42.9,357.9,43.95,359.16,43.95,361.17z M38.28,363.05c0,1.38,0.57,2.01,1.64,2.01c2.05,0,2.59-2.52,2.59-4.04
			c0-1.38-0.57-2.01-1.62-2.01C38.84,359.01,38.28,361.53,38.28,363.05z"/>
		<path fill="#222222" d="M52.32,360.44l-0.78,5.55h-1.36l0.78-5.52c0.15-1.11-0.24-1.41-0.84-1.41c-1,0-1.89,1.06-2.52,2.19
			l-0.65,4.74h-1.36l1.11-7.9h1.17l-0.12,1.54c0.74-1.04,1.6-1.72,2.75-1.72C51.81,357.9,52.55,358.86,52.32,360.44z"/>
		<path fill="#222222" d="M55.65,363.05c0.03,1.44,0.71,1.96,1.71,1.96c0.74,0,1.4-0.23,2.12-0.74l0.58,0.93
			c-0.85,0.61-1.79,0.96-2.83,0.96c-1.94,0-3.02-1.21-3.02-3.21c0-2.16,1.06-5.05,4.06-5.05c1.68,0,2.5,0.96,2.5,2.01
			C60.78,362.13,58.41,362.75,55.65,363.05z M59.34,359.96c0-0.38-0.23-0.96-1.08-0.96c-1.65,0-2.34,1.56-2.53,3
			C57.99,361.74,59.34,361.31,59.34,359.96z"/>
		<path fill="#222222" d="M67.37,365.99H66l1.11-7.9h1.37L67.37,365.99z M69.14,355.31c-0.07,0.5-0.46,0.86-1.02,0.86
			c-0.6,0-0.94-0.45-0.87-1.01c0.07-0.51,0.48-0.87,1.02-0.87C68.88,354.29,69.21,354.74,69.14,355.31z"/>
		<path fill="#222222" d="M76.92,360.44l-0.78,5.55h-1.36l0.78-5.52c0.15-1.11-0.24-1.41-0.84-1.41c-1,0-1.89,1.06-2.52,2.19
			l-0.65,4.74h-1.36l1.11-7.9h1.17l-0.12,1.54c0.74-1.04,1.6-1.72,2.75-1.72C76.41,357.9,77.15,358.86,76.92,360.44z"/>
		<path fill="#222222" d="M90.39,354.92l-1.56,11.07h-1.2l0.02-1.3c-0.56,0.91-1.37,1.48-2.39,1.48c-1.63,0-2.5-1.23-2.5-3.13
			c0-2.04,0.98-5.13,3.67-5.13c0.93,0,1.59,0.43,2.02,0.99l0.58-4.12L90.39,354.92z M84.21,363.14c0,1.33,0.5,1.93,1.32,1.93
			c0.98,0,1.62-0.72,2.33-1.83l0.46-3.28c-0.4-0.62-0.9-0.96-1.63-0.96C84.77,359,84.21,361.56,84.21,363.14z"/>
		<path fill="#222222" d="M93.02,365.99h-1.36l1.11-7.9h1.37L93.02,365.99z M94.79,355.31c-0.07,0.5-0.46,0.86-1.02,0.86
			c-0.6,0-0.94-0.45-0.87-1.01c0.07-0.51,0.48-0.87,1.02-0.87C94.53,354.29,94.86,354.74,94.79,355.31z"/>
		<path fill="#222222" d="M98.58,357.03l-0.15,1.05h1.91l-0.3,1.06h-1.75l-0.9,6.4c-0.31,2.24-1.2,2.88-2.96,3.63l-0.39-1.04
			c1.08-0.48,1.74-0.9,1.98-2.6l0.9-6.4h-1.4l0.15-1.06h1.4l0.17-1.12c0.18-1.32,1.12-2.22,2.68-2.22c0.77,0,1.28,0.21,1.86,0.57
			l-0.53,0.92c-0.46-0.32-0.91-0.38-1.29-0.38C99.08,355.85,98.69,356.27,98.58,357.03z"/>
		<path fill="#222222" d="M103.52,357.03l-0.15,1.05h1.91l-0.3,1.06h-1.75l-0.9,6.4c-0.31,2.24-1.2,2.88-2.96,3.63l-0.39-1.04
			c1.08-0.48,1.74-0.9,1.98-2.6l0.9-6.4h-1.4l0.15-1.06h1.4l0.17-1.12c0.18-1.32,1.12-2.22,2.68-2.22c0.77,0,1.28,0.21,1.86,0.57
			l-0.53,0.92c-0.46-0.32-0.91-0.38-1.29-0.38C104.01,355.85,103.62,356.27,103.52,357.03z"/>
		<path fill="#222222" d="M106.92,363.05c0.03,1.44,0.71,1.96,1.71,1.96c0.74,0,1.4-0.23,2.12-0.74l0.58,0.93
			c-0.85,0.61-1.79,0.96-2.83,0.96c-1.94,0-3.02-1.21-3.02-3.21c0-2.16,1.06-5.05,4.06-5.05c1.68,0,2.5,0.96,2.5,2.01
			C112.05,362.13,109.68,362.75,106.92,363.05z M110.61,359.96c0-0.38-0.23-0.96-1.08-0.96c-1.65,0-2.34,1.56-2.53,3
			C109.26,361.74,110.61,361.31,110.61,359.96z"/>
		<path fill="#222222" d="M118.67,358.01l-0.4,1.33c-0.23-0.06-0.39-0.08-0.65-0.08c-1.02,0-1.71,0.93-2.27,2.53l-0.6,4.19h-1.36
			l1.11-7.9h1.17l-0.09,1.62c0.6-1.23,1.42-1.8,2.29-1.8C118.16,357.9,118.43,357.95,118.67,358.01z"/>
		<path fill="#222222" d="M120.32,363.05c0.03,1.44,0.71,1.96,1.71,1.96c0.74,0,1.4-0.23,2.12-0.74l0.58,0.93
			c-0.85,0.61-1.79,0.96-2.83,0.96c-1.94,0-3.02-1.21-3.02-3.21c0-2.16,1.06-5.05,4.06-5.05c1.68,0,2.5,0.96,2.5,2.01
			C125.45,362.13,123.08,362.75,120.32,363.05z M124.01,359.96c0-0.38-0.23-0.96-1.08-0.96c-1.65,0-2.34,1.56-2.53,3
			C122.66,361.74,124.01,361.31,124.01,359.96z"/>
		<path fill="#222222" d="M133.52,360.44l-0.78,5.55h-1.36l0.78-5.52c0.15-1.11-0.24-1.41-0.84-1.41c-1,0-1.89,1.06-2.52,2.19
			l-0.65,4.74h-1.36l1.11-7.9h1.17l-0.12,1.54c0.74-1.04,1.6-1.72,2.75-1.72C133.01,357.9,133.74,358.86,133.52,360.44z"/>
		<path fill="#222222" d="M137.22,363.9c-0.12,0.79,0.06,1.11,0.71,1.11c0.36,0,0.69-0.12,1.11-0.36l0.45,0.99
			c-0.57,0.36-1.15,0.53-1.79,0.53c-1.36,0-2.05-0.82-1.84-2.29l0.66-4.72h-1.37l0.15-1.06h1.43l0.49-1.83l1.08-0.12l-0.27,1.95
			h1.86l-0.3,1.06h-1.71L137.22,363.9z"/>
		<path fill="#222222" d="M146.06,365.99h-1.36l1.11-7.9h1.37L146.06,365.99z M147.83,355.31c-0.07,0.5-0.46,0.86-1.02,0.86
			c-0.6,0-0.94-0.45-0.87-1.01c0.07-0.51,0.48-0.87,1.02-0.87C147.57,354.29,147.9,354.74,147.83,355.31z"/>
		<path fill="#222222" d="M155.61,360.44l-0.78,5.55h-1.36l0.78-5.52c0.15-1.11-0.24-1.41-0.84-1.41c-1,0-1.89,1.06-2.52,2.19
			l-0.65,4.74h-1.36l1.11-7.9h1.17l-0.12,1.54c0.74-1.04,1.6-1.72,2.75-1.72C155.1,357.9,155.84,358.86,155.61,360.44z"/>
		<path fill="#222222" d="M165.2,354.92l-1.56,11.07h-1.2l0.02-1.3c-0.56,0.91-1.37,1.48-2.39,1.48c-1.63,0-2.5-1.23-2.5-3.13
			c0-2.04,0.98-5.13,3.67-5.13c0.93,0,1.59,0.43,2.02,0.99l0.58-4.12L165.2,354.92z M159.02,363.14c0,1.33,0.5,1.93,1.32,1.93
			c0.98,0,1.62-0.72,2.33-1.83l0.46-3.28c-0.4-0.62-0.9-0.96-1.63-0.96C159.57,359,159.02,361.56,159.02,363.14z"/>
		<path fill="#222222" d="M167.82,365.99h-1.36l1.11-7.9h1.37L167.82,365.99z M169.59,355.31c-0.07,0.5-0.46,0.86-1.02,0.86
			c-0.6,0-0.94-0.45-0.87-1.01c0.07-0.51,0.48-0.87,1.02-0.87C169.34,354.29,169.67,354.74,169.59,355.31z"/>
		<path fill="#222222" d="M173.72,365.99h-1.63l-1.59-7.9h1.48l1.08,6.66l2.94-6.66h1.5L173.72,365.99z"/>
		<path fill="#222222" d="M179.3,365.99h-1.36l1.11-7.9h1.37L179.3,365.99z M181.07,355.31c-0.07,0.5-0.46,0.86-1.02,0.86
			c-0.6,0-0.94-0.45-0.87-1.01c0.07-0.51,0.48-0.87,1.02-0.87C180.81,354.29,181.14,354.74,181.07,355.31z"/>
		<path fill="#222222" d="M189.74,354.92l-1.56,11.07h-1.2l0.02-1.3c-0.56,0.91-1.37,1.48-2.39,1.48c-1.63,0-2.5-1.23-2.5-3.13
			c0-2.04,0.98-5.13,3.67-5.13c0.93,0,1.59,0.43,2.02,0.99l0.58-4.12L189.74,354.92z M183.56,363.14c0,1.33,0.5,1.93,1.32,1.93
			c0.98,0,1.62-0.72,2.33-1.83l0.46-3.28c-0.41-0.62-0.9-0.96-1.63-0.96C184.11,359,183.56,361.56,183.56,363.14z"/>
		<path fill="#222222" d="M196.82,365.99h-1.17l0.1-1.46c-0.73,1-1.52,1.63-2.61,1.63c-1.41,0-2.12-0.91-1.91-2.46l0.8-5.62h1.36
			l-0.78,5.56c-0.15,1.08,0.12,1.44,0.82,1.44c0.99,0,1.79-0.94,2.4-1.86l0.72-5.14h1.36L196.82,365.99z"/>
		<path fill="#222222" d="M206.57,358.58l-0.85,5.61c-0.02,0.12-0.03,0.23-0.03,0.32c0,0.43,0.19,0.6,0.51,0.72l-0.39,0.95
			c-0.79-0.1-1.29-0.46-1.39-1.32c-0.62,0.79-1.43,1.32-2.35,1.32c-1.65,0-2.52-1.21-2.52-3.03c0-2.16,1.14-5.23,4.21-5.23
			C204.69,357.9,205.52,358.07,206.57,358.58z M201,363.15c0,1.32,0.5,1.92,1.38,1.92c0.84,0,1.45-0.63,2.07-1.46l0.66-4.36
			c-0.45-0.2-0.78-0.26-1.33-0.26C201.77,359,201,361.38,201,363.15z"/>
		<path fill="#222222" d="M209.69,364.44c-0.05,0.42,0.03,0.58,0.36,0.58c0.18,0,0.36-0.04,0.54-0.12l0.28,1
			c-0.4,0.18-0.75,0.25-1.09,0.25c-1.05,0-1.6-0.64-1.42-1.95l1.32-9.31l1.38-0.17L209.69,364.44z"/>
		<path fill="#222222" d="M218.18,358.88l-0.66,0.82c-0.6-0.46-1.26-0.71-1.95-0.71c-0.96,0-1.57,0.41-1.57,1.07
			c0,0.63,0.52,0.87,1.59,1.2c1.48,0.46,2.23,1.12,2.23,2.37c0,1.76-1.63,2.54-3.28,2.54c-1.38,0-2.31-0.54-2.92-1.14l0.79-0.81
			c0.57,0.51,1.3,0.84,2.19,0.84c1.39,0,1.78-0.77,1.78-1.29c0-0.79-0.4-1.07-1.67-1.46c-1.51-0.46-2.11-1.08-2.11-2.16
			c0-1.05,0.93-2.25,2.98-2.25C216.68,357.9,217.5,358.28,218.18,358.88z"/>
		<path fill="#222222" d="M222.18,355.52c0,0.32-0.03,0.52-0.35,1.02l-1.3,2.1h-0.92l0.98-2.31c-0.21-0.15-0.33-0.38-0.33-0.69
			c0-0.54,0.45-0.95,1.04-0.95C221.82,354.69,222.18,355.05,222.18,355.52z"/>
		<path fill="#222222" d="M234.24,354.92l-1.56,11.07h-1.2l0.02-1.3c-0.56,0.91-1.37,1.48-2.39,1.48c-1.63,0-2.5-1.23-2.5-3.13
			c0-2.04,0.98-5.13,3.67-5.13c0.93,0,1.59,0.43,2.02,0.99l0.58-4.12L234.24,354.92z M228.06,363.14c0,1.33,0.5,1.93,1.32,1.93
			c0.98,0,1.62-0.72,2.33-1.83l0.46-3.28c-0.41-0.62-0.9-0.96-1.63-0.96C228.62,359,228.06,361.56,228.06,363.14z"/>
		<path fill="#222222" d="M242.43,358.58l-0.85,5.61c-0.02,0.12-0.03,0.23-0.03,0.32c0,0.43,0.19,0.6,0.51,0.72l-0.39,0.95
			c-0.79-0.1-1.29-0.46-1.39-1.32c-0.62,0.79-1.43,1.32-2.35,1.32c-1.65,0-2.52-1.21-2.52-3.03c0-2.16,1.14-5.23,4.21-5.23
			C240.56,357.9,241.38,358.07,242.43,358.58z M236.87,363.15c0,1.32,0.5,1.92,1.38,1.92c0.84,0,1.45-0.63,2.07-1.46l0.66-4.36
			c-0.45-0.2-0.78-0.26-1.33-0.26C237.63,359,236.87,361.38,236.87,363.15z"/>
		<path fill="#222222" d="M245.77,363.9c-0.12,0.79,0.06,1.11,0.71,1.11c0.36,0,0.69-0.12,1.11-0.36l0.45,0.99
			c-0.57,0.36-1.15,0.53-1.79,0.53c-1.36,0-2.05-0.82-1.84-2.29l0.66-4.72h-1.37l0.15-1.06h1.43l0.49-1.83l1.08-0.12l-0.27,1.95
			h1.86l-0.3,1.06h-1.71L245.77,363.9z"/>
		<path fill="#222222" d="M256.14,358.58l-0.85,5.61c-0.02,0.12-0.03,0.23-0.03,0.32c0,0.43,0.19,0.6,0.51,0.72l-0.39,0.95
			c-0.79-0.1-1.29-0.46-1.39-1.32c-0.62,0.79-1.43,1.32-2.35,1.32c-1.65,0-2.52-1.21-2.52-3.03c0-2.16,1.14-5.23,4.21-5.23
			C254.27,357.9,255.09,358.07,256.14,358.58z M250.58,363.15c0,1.32,0.5,1.92,1.38,1.92c0.84,0,1.45-0.63,2.07-1.46l0.66-4.36
			c-0.45-0.2-0.78-0.26-1.33-0.26C251.34,359,250.58,361.38,250.58,363.15z"/>
		<path fill="#222222" d="M268.69,361.01c0,2.22-1.11,5.16-4.2,5.16c-0.54,0-1-0.09-1.5-0.25l-0.45,3.14l-1.37,0.18l1.56-11.14h1.17
			l-0.03,1c0.84-0.93,1.59-1.18,2.41-1.18C267.79,357.9,268.69,359.01,268.69,361.01z M263.82,360.14l-0.65,4.7
			c0.5,0.18,0.84,0.24,1.4,0.24c1.96,0,2.7-2.4,2.7-4.17c0-1.41-0.58-1.91-1.41-1.91C265.03,359,264.39,359.54,263.82,360.14z"/>
		<path fill="#222222" d="M277.42,361.17c0,1.9-0.97,4.99-4.08,4.99c-1.97,0-3.03-1.26-3.03-3.27c0-1.95,1.01-4.99,4.1-4.99
			C276.37,357.9,277.42,359.16,277.42,361.17z M271.75,363.05c0,1.38,0.57,2.01,1.64,2.01c2.05,0,2.59-2.52,2.59-4.04
			c0-1.38-0.57-2.01-1.62-2.01C272.31,359.01,271.75,361.53,271.75,363.05z"/>
		<path fill="#222222" d="M286.68,354.92l-1.56,11.07h-1.2l0.01-1.3c-0.55,0.91-1.36,1.48-2.38,1.48c-1.63,0-2.5-1.23-2.5-3.13
			c0-2.04,0.97-5.13,3.67-5.13c0.93,0,1.59,0.43,2.03,0.99l0.58-4.12L286.68,354.92z M280.5,363.14c0,1.33,0.5,1.93,1.32,1.93
			c0.97,0,1.62-0.72,2.32-1.83l0.46-3.28c-0.4-0.62-0.9-0.96-1.63-0.96C281.05,359,280.5,361.56,280.5,363.14z"/>
		<path fill="#222222" d="M293.62,358.88l-0.66,0.82c-0.6-0.46-1.26-0.71-1.95-0.71c-0.96,0-1.58,0.41-1.58,1.07
			c0,0.63,0.53,0.87,1.59,1.2c1.48,0.46,2.23,1.12,2.23,2.37c0,1.76-1.63,2.54-3.29,2.54c-1.38,0-2.31-0.54-2.92-1.14l0.79-0.81
			c0.57,0.51,1.31,0.84,2.19,0.84c1.39,0,1.79-0.77,1.79-1.29c0-0.79-0.41-1.07-1.67-1.46c-1.52-0.46-2.12-1.08-2.12-2.16
			c0-1.05,0.93-2.25,2.99-2.25C292.12,357.9,292.95,358.28,293.62,358.88z"/>
	</g>
</g>
</svg>
