<?xml version="1.0" encoding="utf-8"?>
<svg version="1.1" xmlns="http://www.w3.org/2000/svg" xmlns:xlink="http://www.w3.org/1999/xlink" x="0px" y="0px" width="1280px"
	 height="460px" viewBox="0 0 1280 460" enable-background="new 0 0 1280 460" xml:space="preserve">
<g id="Pods">
	<polygon fill="#F6E6DC" points="195.75,0.19 107.25,0.19 63,76.83 107.25,153.47 195.75,153.47 240,76.83 	"/>
	<polygon fill="#F6E6DC" points="83.84,182.19 27.95,182.19 0,230.59 27.95,279 83.84,279 111.79,230.59 	"/>
	<polygon fill="#F6E6DC" points="221.95,204.19 186.26,204.19 168.41,235.09 186.26,266 221.95,266 239.79,235.09 	"/>
	<polygon fill="#F6E6DC" points="172.75,306.19 84.25,306.19 40,382.83 84.25,459.47 172.75,459.47 217,382.83 	"/>
	<polygon fill="#F6E6DC" points="461.02,135 351.05,135 296.06,230.24 351.05,325.47 461.02,325.47 516,230.24 	"/>
</g>
<g id="Annotations">
	<circle fill="#E1AB89" cx="369" cy="172" r="12"/>
	<circle fill="#E1AB89" cx="403" cy="214" r="12"/>
	<circle fill="#E1AB89" cx="433" cy="166" r="12"/>
	<circle fill="#E1AB89" cx="433" cy="255" r="12"/>
	<circle fill="#E1AB89" cx="472" cy="213" r="12"/>
	<circle fill="#E1AB89" cx="345" cy="225" r="12"/>
	<circle fill="#E1AB89" cx="369" cy="285" r="12"/>
	<circle fill="#E1AB89" cx="431" cy="297" r="12"/>
	<rect x="123" y="325" fill="#FCF7F3" stroke="#C45814" stroke-width="4" width="43" height="53.5"/>
	<rect x="69" y="361" fill="#FCF7F3" stroke="#C45814" stroke-width="4" width="43" height="53.5"/>
	<rect x="129" y="402" fill="#FCF7F3" stroke="#C45814" stroke-width="4" width="30" height="37.33"/>
	<rect x="97" y="74" fill="#FCF7F3" stroke="#C45814" stroke-width="4" width="30" height="37.33"/>
	<rect x="119" y="10" fill="#FCF7F3" stroke="#C45814" stroke-width="4" width="30" height="37.33"/>
	<rect x="154" y="62" fill="#FCF7F3" stroke="#C45814" stroke-width="4" width="45" height="67.33"/>
	<path fill="none" stroke="#E1AB89" stroke-width="2" d="M344.22,217c-2.45-21.96,16.69-36.16,16.69-36.16"
		/>
	<path fill="none" stroke="#E1AB89" stroke-width="2" d="M368.15,285.09c-23.87-23.82-23.65-52.8-23.65-52.8
		"/>
	<path fill="none" stroke="#E1AB89" stroke-width="2" d="M431.93,296.18c-32.74,8.11-57.42-7.06-57.42-7.06"
		/>
	<path fill="none" stroke="#E1AB89" stroke-width="2" d="M404.99,212.87
		c-23.19,24.63-58.27,17.09-58.27,17.09"/>
	<path fill="none" stroke="#E1AB89" stroke-width="2" d="M405,217c3,38-36.28,67.96-36.28,67.96"/>
	<path fill="none" stroke="#E1AB89" stroke-width="2" d="M429,255c16,18,1,44,1,44"/>
	<path fill="none" stroke="#E1AB89" stroke-width="2" d="M437.7,248.28c0.82-24.07,29.6-32.57,29.6-32.57"/>
	<path fill="none" stroke="#E1AB89" stroke-width="2" d="M404.7,209.28C405.51,185.21,433,168,433,168"/>
	<path fill="none" stroke="#E1AB89" stroke-width="2" d="M433,168c35.3,3.72,42,39,42,39"/>
	<g>
		<path fill="#C45814" d="M366.77,342.83l-2.09,3.2c-1.48-0.94-3.06-1.48-4.72-1.48c-1.55,0-2.3,0.58-2.3,1.44
			c0,1.01,0.5,1.44,3.92,2.45c3.78,1.08,5.9,2.66,5.9,6.08c0,3.96-3.74,6.3-8.5,6.3c-3.31,0-6.12-1.15-7.99-2.84l2.77-3.1
			c1.44,1.12,3.2,1.87,5.08,1.87c1.73,0,2.77-0.65,2.77-1.8c0-1.3-0.58-1.69-4.03-2.66c-3.78-1.08-5.65-3.02-5.65-5.98
			c0-3.28,2.99-5.83,7.81-5.83C362.52,340.49,365.01,341.39,366.77,342.83z"/>
		<path fill="#C45814" d="M387.87,352.34h-11.81c0.36,3.42,1.98,4.36,4.32,4.36c1.55,0,2.92-0.54,4.57-1.69l2.34,3.17
			c-1.91,1.51-4.36,2.66-7.45,2.66c-6.37,0-9.61-4.1-9.61-10.08c0-5.72,3.13-10.26,8.93-10.26c5.47,0,8.82,3.6,8.82,9.79
			C387.97,350.9,387.94,351.76,387.87,352.34z M382.4,348.67c-0.04-2.59-0.83-4.39-3.1-4.39c-1.91,0-2.99,1.19-3.28,4.64h6.37
			V348.67z"/>
		<path fill="#C45814" d="M404.43,340.82l-0.9,5.51c-0.61-0.14-1.08-0.25-1.73-0.25c-2.34,0-3.35,1.73-3.96,4.61v9.54h-5.69v-19.11
			h4.97l0.47,3.67c0.86-2.63,2.74-4.21,4.93-4.21C403.24,340.57,403.82,340.64,404.43,340.82z"/>
		<path fill="#C45814" d="M418.75,360.22h-6.73l-6.16-19.11h6.19l3.38,14.79l3.53-14.79h5.79L418.75,360.22z"/>
		<path fill="#C45814" d="M443.88,352.34h-11.81c0.36,3.42,1.98,4.36,4.32,4.36c1.55,0,2.92-0.54,4.57-1.69l2.34,3.17
			c-1.91,1.51-4.36,2.66-7.45,2.66c-6.37,0-9.61-4.1-9.61-10.08c0-5.72,3.13-10.26,8.93-10.26c5.47,0,8.82,3.6,8.82,9.79
			C443.99,350.9,443.95,351.76,443.88,352.34z M438.41,348.67c-0.04-2.59-0.83-4.39-3.1-4.39c-1.91,0-2.99,1.19-3.28,4.64h6.37
			V348.67z"/>
		<path fill="#C45814" d="M460.44,340.82l-0.9,5.51c-0.61-0.14-1.08-0.25-1.73-0.25c-2.34,0-3.35,1.73-3.96,4.61v9.54h-5.69v-19.11
			h4.97l0.47,3.67c0.86-2.63,2.74-4.21,4.93-4.21C459.25,340.57,459.83,340.64,460.44,340.82z"/>
	</g>
</g>
<g id="Browser">
	<g>
		<g>
			<path fill="#F5F4F8" d="M1280.27,450.19c0,5.4-4.41,9.81-9.81,9.81H883.5c-5.4,0-9.81-4.42-9.81-9.81V9.64
				c0-5.4,4.41-9.81,9.81-9.81h386.96c5.4,0,9.81,4.41,9.81,9.81V450.19z"/>
		</g>
		<path fill="#D8D5E3" d="M1280.27,52.16H873.69V5.13c0-2.93,2.38-5.31,5.31-5.31h395.97c2.93,0,5.31,2.38,5.31,5.31V52.16z"/>
		<path fill="#DC9B72" d="M904.9,25.99c0,3.61-2.93,6.54-6.54,6.54c-3.61,0-6.54-2.93-6.54-6.54s2.93-6.54,6.54-6.54
			C901.97,19.45,904.9,22.38,904.9,25.99z"/>
		<path fill="#B0ABC7" d="M927.15,25.99c0,3.61-2.93,6.54-6.54,6.54c-3.61,0-6.54-2.93-6.54-6.54s2.93-6.54,6.54-6.54
			C924.23,19.45,927.15,22.38,927.15,25.99z"/>
		<path fill="#8981AA" d="M949.41,25.99c0,3.61-2.93,6.54-6.54,6.54c-3.61,0-6.54-2.93-6.54-6.54s2.93-6.54,6.54-6.54
			C946.48,19.45,949.41,22.38,949.41,25.99z"/>
		<g>
			<path fill="#FFFFFF" d="M996.37,39.89h-26.92c-0.24,0-0.44-0.2-0.44-0.44V12.53c0-0.24,0.2-0.44,0.44-0.44h26.92
				c0.24,0,0.44,0.2,0.44,0.44v26.92C996.81,39.69,996.62,39.89,996.37,39.89z"/>
			<g>
				<path fill="#8981AA" d="M985.37,34.98c-0.21,0-0.42-0.08-0.58-0.24l-8.17-8.18c-0.32-0.32-0.32-0.84,0-1.16l8.17-8.18
					c0.32-0.32,0.84-0.32,1.16,0c0.32,0.32,0.32,0.84,0,1.16l-7.6,7.6l7.6,7.6c0.32,0.32,0.32,0.84,0,1.16
					C985.78,34.9,985.58,34.98,985.37,34.98z"/>
			</g>
		</g>
		<g>
			<path fill="#FFFFFF" d="M1028.41,39.89h-26.92c-0.24,0-0.44-0.2-0.44-0.44V12.53c0-0.24,0.2-0.44,0.44-0.44h26.92
				c0.24,0,0.44,0.2,0.44,0.44v26.92C1028.85,39.69,1028.65,39.89,1028.41,39.89z"/>
			<g>
				<path fill="#8981AA" d="M1012.5,34.98c-0.21,0-0.42-0.08-0.58-0.24c-0.32-0.32-0.32-0.84,0-1.16l7.6-7.6l-7.6-7.6
					c-0.32-0.32-0.32-0.84,0-1.16c0.32-0.32,0.84-0.32,1.16,0l8.17,8.18c0.32,0.32,0.32,0.84,0,1.16l-8.17,8.18
					C1012.92,34.9,1012.71,34.98,1012.5,34.98z"/>
			</g>
		</g>
		<g>
			<g>
				<path fill="#FFFFFF" d="M1038.83,39.45V12.53c0-0.24,0.2-0.44,0.44-0.44h222.07c0.24,0,0.44,0.2,0.44,0.44v26.92
					c0,0.24-0.2,0.44-0.44,0.44h-222.07C1039.02,39.89,1038.83,39.69,1038.83,39.45z"/>
			</g>
			<g>
				<g>
					<path fill="#8981AA" d="M1052.7,30.7c-1.68,0-3.36-0.64-4.64-1.92c-1.24-1.24-1.92-2.89-1.92-4.64c0-1.75,0.68-3.4,1.92-4.64
						c2.56-2.56,6.72-2.56,9.28,0c0,0,0,0,0,0c2.56,2.56,2.56,6.72,0,9.28C1056.06,30.06,1054.38,30.7,1052.7,30.7z M1052.7,19.22
						c-1.26,0-2.52,0.48-3.48,1.44c-0.93,0.93-1.44,2.17-1.44,3.48c0,1.32,0.51,2.55,1.44,3.48c1.92,1.92,5.05,1.92,6.97,0
						c1.92-1.92,1.92-5.04,0-6.96C1055.22,19.7,1053.96,19.22,1052.7,19.22z"/>
				</g>
				<g>
					<path fill="#8981AA" d="M1062.13,34.39c-0.21,0-0.42-0.08-0.58-0.24l-5.37-5.37c-0.32-0.32-0.32-0.84,0-1.16
						c0.32-0.32,0.84-0.32,1.16,0l5.37,5.37c0.32,0.32,0.32,0.84,0,1.16C1062.55,34.31,1062.34,34.39,1062.13,34.39z"/>
				</g>
			</g>
		</g>
	</g>
</g>
<g id="App">
	<g>
		<path fill="#3A2D72" d="M904,400c0,16.57,13.43,30,30,30h286c16.57,0,30-13.43,30-30V112c0-16.57-13.43-30-30-30H934
			c-16.57,0-30,13.43-30,30V400z"/>
	</g>
	<g>
		<path fill="#FFFFFF" d="M924,305c0,16.57,13.43,30,30,30h246c16.57,0,30-13.43,30-30V132c0-16.57-13.43-30-30-30H954
			c-16.57,0-30,13.43-30,30V305z"/>
	</g>
	<g>
		<path fill="#FFFFFF" d="M998.03,389.69l-1.19,3.71c-2.23-0.18-3.71-0.86-4.61-2.74c-1.37,2.09-3.49,2.84-5.76,2.84
			c-3.82,0-6.23-2.48-6.23-5.98c0-4.18,3.17-6.44,8.96-6.44h1.94v-0.83c0-2.27-0.9-2.95-3.24-2.95c-1.22,0-3.1,0.36-5,1.01
			l-1.3-3.74c2.41-0.9,5.04-1.4,7.2-1.4c5.54,0,7.92,2.34,7.92,6.77v7.42C996.74,388.82,997.13,389.36,998.03,389.69z
			 M991.16,387.63v-3.42h-1.4c-2.59,0-3.85,0.9-3.85,2.81c0,1.51,0.83,2.41,2.23,2.41C989.43,389.43,990.47,388.75,991.16,387.63z"
			/>
		<path fill="#FFFFFF" d="M1020.1,383.28c0,5.9-2.88,10.22-7.59,10.22c-1.87,0-3.46-0.65-4.64-2.02v8.78l-5.69,0.61v-27.1h5
			l0.29,2.12c1.58-1.98,3.63-2.74,5.4-2.74C1017.91,373.16,1020.1,377.09,1020.1,383.28z M1014.2,383.35c0-4.75-1.15-6.01-3.13-6.01
			c-1.22,0-2.38,0.83-3.2,2.23v8.06c0.79,1.15,1.73,1.69,2.92,1.69C1012.9,389.33,1014.2,387.63,1014.2,383.35z"/>
		<path fill="#FFFFFF" d="M1042.49,383.28c0,5.9-2.88,10.22-7.59,10.22c-1.87,0-3.46-0.65-4.64-2.02v8.78l-5.69,0.61v-27.1h5
			l0.29,2.12c1.58-1.98,3.63-2.74,5.4-2.74C1040.3,373.16,1042.49,377.09,1042.49,383.28z M1036.59,383.35
			c0-4.75-1.15-6.01-3.13-6.01c-1.22,0-2.38,0.83-3.2,2.23v8.06c0.79,1.15,1.73,1.69,2.92,1.69
			C1035.29,389.33,1036.59,387.63,1036.59,383.35z"/>
		<path fill="#FFFFFF" d="M1046.78,388.03v-21.85l5.69-0.61v22.25c0,0.79,0.29,1.19,0.97,1.19c0.4,0,0.68-0.07,0.94-0.18l1.12,4.03
			c-0.86,0.36-2.09,0.65-3.46,0.65C1048.72,393.5,1046.78,391.52,1046.78,388.03z"/>
		<path fill="#FFFFFF" d="M1064.74,366.94c0,1.84-1.4,3.24-3.38,3.24c-1.98,0-3.35-1.4-3.35-3.24c0-1.83,1.37-3.24,3.35-3.24
			C1063.34,363.7,1064.74,365.1,1064.74,366.94z M1064.24,392.89h-5.69v-19.11h5.69V392.89z"/>
		<path fill="#FFFFFF" d="M1084.43,375.5l-2.45,3.38c-1.22-0.94-2.34-1.37-3.64-1.37c-2.45,0-3.85,1.66-3.85,5.94
			c0,4.25,1.51,5.54,3.78,5.54c1.37,0,2.3-0.43,3.67-1.3l2.48,3.53c-1.76,1.4-3.82,2.27-6.44,2.27c-5.87,0-9.47-3.96-9.47-10.01
			c0-6.08,3.64-10.33,9.36-10.33C1080.54,373.16,1082.6,373.96,1084.43,375.5z"/>
		<path fill="#FFFFFF" d="M1104.23,389.69l-1.19,3.71c-2.23-0.18-3.71-0.86-4.61-2.74c-1.37,2.09-3.49,2.84-5.76,2.84
			c-3.82,0-6.23-2.48-6.23-5.98c0-4.18,3.17-6.44,8.96-6.44h1.94v-0.83c0-2.27-0.9-2.95-3.24-2.95c-1.22,0-3.1,0.36-5,1.01
			l-1.3-3.74c2.41-0.9,5.04-1.4,7.2-1.4c5.54,0,7.92,2.34,7.92,6.77v7.42C1102.94,388.82,1103.33,389.36,1104.23,389.69z
			 M1097.36,387.63v-3.42h-1.4c-2.59,0-3.85,0.9-3.85,2.81c0,1.51,0.83,2.41,2.23,2.41
			C1095.63,389.43,1096.67,388.75,1097.36,387.63z"/>
		<path fill="#FFFFFF" d="M1120.36,391.99c-1.44,1.01-3.46,1.51-5.18,1.51c-4.21-0.04-6.26-2.41-6.26-6.91v-8.86h-2.7v-3.96h2.7
			v-4.14l5.69-0.65v4.79h4.39l-0.61,3.96h-3.78v8.78c0,1.84,0.61,2.48,1.8,2.48c0.65,0,1.3-0.18,2.05-0.65L1120.36,391.99z"/>
		<path fill="#FFFFFF" d="M1129.36,366.94c0,1.84-1.4,3.24-3.38,3.24c-1.98,0-3.35-1.4-3.35-3.24c0-1.83,1.37-3.24,3.35-3.24
			C1127.96,363.7,1129.36,365.1,1129.36,366.94z M1128.86,392.89h-5.69v-19.11h5.69V392.89z"/>
		<path fill="#FFFFFF" d="M1151.86,383.35c0,6.12-3.53,10.15-9.36,10.15c-5.79,0-9.36-3.74-9.36-10.19c0-6.12,3.53-10.15,9.36-10.15
			S1151.86,376.91,1151.86,383.35z M1139.04,383.31c0,4.25,1.15,6.01,3.46,6.01s3.46-1.84,3.46-5.98c0-4.25-1.15-6.01-3.46-6.01
			S1139.04,379.17,1139.04,383.31z"/>
		<path fill="#FFFFFF" d="M1172.63,378.92v13.97h-5.69v-12.99c0-2.02-0.68-2.56-1.8-2.56c-1.26,0-2.3,0.9-3.31,2.48v13.07h-5.69
			v-19.11h4.97l0.4,2.27c1.62-1.87,3.46-2.88,5.83-2.88C1170.65,373.16,1172.63,375.29,1172.63,378.92z"/>
	</g>
</g>
<g id="Arrows">
	<g>
		<g>
			<path fill="none" stroke="#61578E" stroke-width="4" d="M1002,219c-113.29-41.64-233.14-18.58-375.9,8.34
				"/>
			<g>
				<polygon fill="#61578E" points="627.13,217.01 612,230 630.81,236.61 				"/>
			</g>
		</g>
	</g>
	<g>
		<g>
			<path fill="none" stroke="#61578E" stroke-width="4" d="M1012,257
				c-131.51,50.81-291.18,134.01-688.65,127.28"/>
			<g>
				<polygon fill="#61578E" points="326.35,374.17 309,384 326.18,394.12 				"/>
			</g>
		</g>
	</g>
	<g>
		<g>
			<path fill="none" stroke="#61578E" stroke-width="4" d="M1015,172C854.95,90,739.8,56.8,351.33,76.26"/>
			<g>
				<polygon fill="#61578E" points="353.79,66.24 337,77 354.71,86.17 				"/>
			</g>
		</g>
	</g>
	<g>
		<g>
			<path fill="none" stroke="#D07943" stroke-width="4" d="M261,77c-21,11.76-24.36,21.41-45.65,23.6"/>
			<g>
				<polygon fill="#D07943" points="217.86,90.34 201,101 218.66,110.27 				"/>
			</g>
		</g>
	</g>
	<g>
		<g>
			<path fill="none" stroke="#D07943" stroke-width="4" d="M536,235c-11.27,7.8-45.07,17.85-76.66,19.74"/>
			<g>
				<polygon fill="#D07943" points="462.01,244.58 445,255 462.52,264.52 				"/>
			</g>
		</g>
	</g>
	<g>
		<g>
			<path fill="none" stroke="#D07943" stroke-width="4" d="M236,375c-13.31,23.08-25.84,46.94-60.65,49.22"
				/>
			<g>
				<polygon fill="#D07943" points="178.29,414.06 161,424 178.25,434.01 				"/>
			</g>
		</g>
	</g>
</g>
<g id="Results">
	<circle fill="none" stroke="#61578E" stroke-width="8" cx="1076.5" cy="218.5" r="74.5"/>
	<g>
		<path fill="#61578E" d="M1054.06,222.35h-2.3v9.54h-5.9v-24.95h8.17c6.77,0,10.26,2.41,10.26,7.6c0,3.28-1.55,5.22-4.79,6.73
			l6.33,10.62h-6.66L1054.06,222.35z M1051.75,218.28h2.48c2.59,0,3.96-1.12,3.96-3.74c0-2.41-1.4-3.46-4.32-3.46h-2.12V218.28z"/>
		<path fill="#61578E" d="M1088.87,219.29c0,10.04-6.05,12.6-12.42,12.6h-7.49v-24.95h6.95
			C1082.57,206.94,1088.87,209,1088.87,219.29z M1074.87,211.23v16.38h1.94c3.56,0,5.94-1.69,5.94-8.32c0-6.7-2.56-8.06-6.01-8.06
			H1074.87z"/>
		<path fill="#61578E" d="M1107.55,211.16h-8.35v6.62h7.27v4.21h-7.27v9.9h-5.9v-24.95h14.87L1107.55,211.16z"/>
	</g>
</g>
<g id="API">
	<g>
		<path fill="#C45814" d="M257,123c0,16.57,13.43,30,30,30h20c16.57,0,30-13.43,30-30V30c0-16.57-13.43-30-30-30h-20
			c-16.57,0-30,13.43-30,30V123z"/>
	</g>
	<g>
		<path fill="#FFFFFF" d="M281.94,68.11h5.49L287,71.38h-9.3v-15.9h4.23V68.11z"/>
		<path fill="#FFFFFF" d="M302.01,63.32c0,6.41-3.42,8.06-7.48,8.06h-4.79v-15.9h4.56C298.34,55.48,302.01,56.79,302.01,63.32z
			 M293.98,58.45v9.94h0.84c1.71,0,2.88-0.7,2.88-5.07c0-4.23-1.2-4.87-2.91-4.87H293.98z"/>
		<path fill="#FFFFFF" d="M316.43,60.74c0,3.72-2.38,5.49-6.08,5.49h-1.15v5.15h-4.23v-15.9h4.93
			C314.05,55.48,316.43,57.21,316.43,60.74z M312.23,60.74c0-1.68-0.84-2.32-2.18-2.32h-0.84v4.81h0.87
			C311.39,63.23,312.23,62.62,312.23,60.74z"/>
		<path fill="#FFFFFF" d="M287.51,92.11h-3.75l-0.62,3.28h-4.23l4.26-15.9h5.01l4.23,15.9h-4.26L287.51,92.11z M286.92,89.11
			l-1.32-6.72l-1.26,6.72H286.92z"/>
		<path fill="#FFFFFF" d="M305.71,84.74c0,3.72-2.38,5.49-6.08,5.49h-1.15v5.15h-4.23v-15.9h4.93
			C303.33,79.48,305.71,81.21,305.71,84.74z M301.51,84.74c0-1.68-0.84-2.32-2.18-2.32h-0.84v4.81h0.87
			C300.67,87.23,301.51,86.62,301.51,84.74z"/>
		<path fill="#FFFFFF" d="M312.45,95.38h-4.23v-15.9h4.23V95.38z"/>
	</g>
	<g>
		<path fill="#C45814" d="M532,276c0,16.57,13.43,30,30,30h20c16.57,0,30-13.43,30-30v-93c0-16.57-13.43-30-30-30h-20
			c-16.57,0-30,13.43-30,30V276z"/>
	</g>
	<g>
		<path fill="#FFFFFF" d="M548.41,210.21l-1.57,2.13c-0.81-0.81-1.69-1.23-2.62-1.23s-1.5,0.5-1.5,1.4s0.38,1.29,2.14,2.04
			c2.55,1.06,3.67,2.41,3.67,5.04c0,3.11-1.95,5.21-5.17,5.21c-2.33,0-4.07-1.06-5.07-2.35l1.69-2.24c0.95,0.95,1.93,1.54,3.12,1.54
			c1.14,0,1.71-0.67,1.71-1.74s-0.4-1.6-1.95-2.21c-3.07-1.29-3.83-2.74-3.83-4.93c0-3.11,2.26-4.79,4.9-4.79
			C545.81,208.09,547.29,208.84,548.41,210.21z"/>
		<path fill="#FFFFFF" d="M559.93,213.74c0,3.72-2.02,5.49-5.17,5.49h-0.98v5.15h-3.59v-15.9h4.19
			C557.9,208.48,559.93,210.21,559.93,213.74z M556.35,213.74c0-1.68-0.71-2.32-1.86-2.32h-0.71v4.81h0.74
			C555.64,216.23,556.35,215.62,556.35,213.74z"/>
		<path fill="#FFFFFF" d="M566.8,221.11h-3.19l-0.52,3.28h-3.59l3.62-15.9h4.26l3.59,15.9h-3.62L566.8,221.11z M566.3,218.11
			l-1.12-6.72l-1.07,6.72H566.3z"/>
		<path fill="#FFFFFF" d="M576.39,218.47h-0.86v5.91h-3.59v-15.9h4.31c3.71,0,5.47,1.74,5.47,4.85c0,2.04-0.64,3.36-2.14,4.34
			l2.98,6.72h-3.83L576.39,218.47z M575.54,215.73h0.98c1,0,1.62-0.67,1.62-2.27c0-1.43-0.6-2.1-1.83-2.1h-0.76V215.73z"/>
		<path fill="#FFFFFF" d="M595.53,224.91l-2.12,3.13c-1.05-1.65-2.5-3.3-4.83-3.3c-3.43,0-5.47-2.8-5.47-8.37
			c0-5.32,2.05-8.26,5.74-8.26c3.67,0,5.74,2.8,5.74,8.29c0,4.06-1.45,5.91-3.07,6.94C593.29,223.35,594.39,223.82,595.53,224.91z
			 M588.84,221.78c1.43,0,2-1.26,2-5.38c0-4.01-0.62-5.27-2-5.27c-1.41,0-2.05,1.26-2.05,5.24
			C586.79,220.52,587.41,221.78,588.84,221.78z"/>
		<path fill="#FFFFFF" d="M600.07,221.11h4.67l-0.36,3.28h-7.9v-15.9h3.59V221.11z"/>
		<path fill="#FFFFFF" d="M562.51,245.11h-3.75l-0.62,3.28h-4.23l4.26-15.9h5.01l4.23,15.9h-4.26L562.51,245.11z M561.92,242.11
			l-1.32-6.72l-1.26,6.72H561.92z"/>
		<path fill="#FFFFFF" d="M580.71,237.74c0,3.72-2.38,5.49-6.08,5.49h-1.15v5.15h-4.23v-15.9h4.93
			C578.33,232.48,580.71,234.21,580.71,237.74z M576.51,237.74c0-1.68-0.84-2.32-2.18-2.32h-0.84v4.81h0.87
			C575.67,240.23,576.51,239.62,576.51,237.74z"/>
		<path fill="#FFFFFF" d="M587.45,248.38h-4.23v-15.9h4.23V248.38z"/>
	</g>
	<g>
		<path fill="#C45814" d="M229,429c0,16.57,13.43,30,30,30h20c16.57,0,30-13.43,30-30v-93c0-16.57-13.43-30-30-30h-20
			c-16.57,0-30,13.43-30,30V429z"/>
	</g>
	<g>
		<path fill="#FFFFFF" d="M261.24,364.64h-3.3v12.74h-4.23v-12.74h-3.53v-3.16h11.48L261.24,364.64z"/>
		<path fill="#FFFFFF" d="M275.19,366.74c0,3.72-2.38,5.49-6.08,5.49h-1.15v5.15h-4.23v-15.9h4.93
			C272.81,361.48,275.19,363.21,275.19,366.74z M270.99,366.74c0-1.68-0.84-2.32-2.18-2.32h-0.84v4.81h0.87
			C270.15,369.23,270.99,368.62,270.99,366.74z"/>
		<path fill="#FFFFFF" d="M286.5,364.45h-4.56v3.84h3.89v3h-3.89v6.1h-4.23v-15.9h9.24L286.5,364.45z"/>
		<path fill="#FFFFFF" d="M259.51,398.11h-3.75l-0.62,3.28h-4.23l4.26-15.9h5.01l4.23,15.9h-4.26L259.51,398.11z M258.92,395.11
			l-1.32-6.72l-1.26,6.72H258.92z"/>
		<path fill="#FFFFFF" d="M277.71,390.74c0,3.72-2.38,5.49-6.08,5.49h-1.15v5.15h-4.23v-15.9h4.93
			C275.33,385.48,277.71,387.21,277.71,390.74z M273.51,390.74c0-1.68-0.84-2.32-2.18-2.32h-0.84v4.81h0.87
			C272.67,393.23,273.51,392.62,273.51,390.74z"/>
		<path fill="#FFFFFF" d="M284.45,401.38h-4.23v-15.9h4.23V401.38z"/>
	</g>
</g>
</svg>
