<?xml version="1.0" encoding="utf-8"?>
<svg version="1.1" xmlns="http://www.w3.org/2000/svg" width="900" height="480">
<style type="text/css">
	.st0{fill:#FF9900;}
	.st1{fill:#221F1F;}
	.st2{fill:#E53238;}
	.st3{fill:#0064D2;}
	.st4{fill:#F5AF02;}
	.st5{fill:#86B817;}
	.st6{fill:#33CCFF;}
	.st7{fill:#010202;}
</style>
<g>
	<path id="path8_1_" class="st0" d="M757,441.1c-20.6,15.2-50.5,23.3-76.2,23.3c-36.1,0-68.5-13.3-93.1-35.5
		c-1.9-1.7-0.2-4.1,2.1-2.8c26.5,15.4,59.3,24.7,93.1,24.7c22.8,0,47.9-4.7,71-14.5C757.5,434.8,760.4,438.5,757,441.1"/>
	<path id="path10_1_" class="st0" d="M765.6,431.3c-2.6-3.4-17.4-1.6-24-0.8c-2,0.2-2.3-1.5-0.5-2.8c11.8-8.3,31.1-5.9,33.4-3.1
		c2.3,2.8-0.6,22.2-11.7,31.4c-1.7,1.4-3.3,0.7-2.6-1.2C762.6,448.5,768.2,434.6,765.6,431.3"/>
	<path id="path12_1_" class="st1" d="M742,369v-8c0-1.2,0.9-2,2-2h36c1.1,0,1.9,0.8,1.9,2v6.9c0,1.2-0.9,2.7-2.5,5.1l-17.3,26.7
		c6.4-0.2,13.2,0.9,19,4.4c1.3,0.8,1.7,2,1.8,3.1v8.5c0,1.2-1.3,2.5-2.6,1.8c-11-5.8-25.6-6.5-37.8,0.1c-1.2,0.7-2.5-0.7-2.5-1.9
		v-8.2c0-1.3,0-3.5,1.3-5.5l21.5-31.1h-18.7C742.9,371,742,370.2,742,369"/>
	<path id="path14_1_" class="st1" d="M610,419h-10.1c-1-0.1-1.8-0.9-1.9-1.9V361c0-1.1,0.9-2,2.1-2h10c1,0,1.9,0.9,1.9,1.9v7.1h0.2
		c2.7-7.1,7.7-10.4,14.6-10.4c6.9,0,11.2,3.3,14.4,10.4c2.7-7.1,8.8-10.4,15.3-10.4c4.6,0,9.7,1.9,12.8,6.2
		c3.5,4.7,2.8,11.6,2.8,17.7l0,35.6c0,1.1-0.9,2-2.1,2h-11.9c-1.1-0.1-1.9-1-1.9-2v-29.8c0-2.4,0.2-8.3-0.3-10.6
		c-0.8-3.8-3.2-4.8-6.3-4.8c-2.6,0-5.3,1.8-6.4,4.6c-1.1,2.8-1,7.6-1,10.8V417c0,1.1-0.9,2-2.1,2h-11c-1.1-0.1-1.9-1-1.9-2l0-29.8
		c0-6.3,1-15.5-6.6-15.5c-7.7,0-7.4,9-7.4,15.5v30.3c0,1.1-0.9,2-2.1,2"/>
	<path id="path16_1_" class="st1" d="M813.2,358c16.3,0,25.1,14,25.1,31.8c0,17.2-9.7,30.8-25.1,30.8c-16,0-24.7-14-24.7-31.4
		C788.5,371.7,797.3,358,813.2,358 M813.3,369.5c-8.1,0-8.6,11-8.6,17.9c0,6.9-0.1,21.6,8.5,21.6c8.5,0,8.9-11.9,8.9-19.1
		c0-4.8-0.2-10.4-1.6-14.9C819.3,371.1,816.8,369.5,813.3,369.5"/>
	<path id="path18_1_" class="st1" d="M859,419h-10.1c-1.1-0.1-1.9-1-1.9-2l0-56.1c0.1-1,1-1.8,2.1-1.8h10c0.9,0,1.7,0.7,1.9,1.6v8.4
		h0.2c3.1-7.7,7.4-11.4,15-11.4c4.9,0,9.8,1.8,12.9,6.6c2.9,4.5,2.9,12.1,2.9,17.5v35.4c-0.1,1-1,1.8-2.1,1.8H879
		c-1-0.1-1.8-0.8-2-1.8v-30.6c0-6.2,0.7-15.2-6.9-15.2c-2.7,0-5.1,1.8-6.4,4.5c-1.5,3.4-1.7,6.9-1.7,10.7v30.8c0,1.1-1,2-2.1,2"/>
	<path id="path30_3_" class="st1" d="M713,393v-2.8c-7.9,0-16.3,1.7-16.3,11c0,4.7,2.5,7.9,6.7,7.9c3.1,0,5.8-1.9,7.6-5
		c2.2-3.8,2.1-7.4,2.1-11.6 M723.8,418.5c-0.7,0.6-1.7,0.7-2.5,0.3c-3.5-2.9-4.2-4.3-6.1-7.1c-5.9,6-10,7.8-17.6,7.8
		c-9,0-16-5.5-16-16.7c0-8.7,4.7-14.6,11.4-17.5c5.8-2.6,13.9-3,20.1-3.7v-1.4c0-2.5,0.2-5.5-1.3-7.7c-1.3-2-3.8-2.8-6-2.8
		c-4.1,0-7.7,2.1-8.6,6.4c-0.2,1-0.9,1.9-1.8,2l-10.4-1.1c-0.9-0.2-1.8-0.9-1.6-2.2c2.4-12.6,13.7-16.4,23.9-16.4
		c5.2,0,12,1.4,16.1,5.3c5.2,4.9,4.7,11.3,4.7,18.4v16.7c0,5,2.1,7.2,4,9.9c0.7,1,0.8,2.1,0,2.8
		C729.8,413.2,725.9,416.6,723.8,418.5L723.8,418.5"/>
	<path id="path30_2_" class="st1" d="M569,393v-2.8c-7.9,0-16.3,1.7-16.3,11c0,4.7,2.5,7.9,6.7,7.9c3.1,0,5.8-1.9,7.6-5
		c2.2-3.8,2.1-7.4,2.1-11.6 M580.8,418.5c-0.7,0.6-1.7,0.7-2.5,0.3c-3.5-2.9-4.2-4.3-6.1-7.1c-5.9,6-10,7.8-17.6,7.8
		c-9,0-16-5.5-16-16.7c0-8.7,4.7-14.6,11.4-17.5c5.8-2.6,13.9-3,20.1-3.7v-1.4c0-2.5,0.2-5.5-1.3-7.7c-1.3-2-3.8-2.8-6-2.8
		c-4.1,0-7.7,2.1-8.6,6.4c-0.2,1-0.9,1.9-1.8,2l-10.4-1.1c-0.9-0.2-1.8-0.9-1.6-2.2c2.4-12.6,13.7-16.4,23.9-16.4
		c5.2,0,12,1.4,16.1,5.3c5.2,4.9,4.7,11.3,4.7,18.4v16.7c0,5,2.1,7.2,4,9.9c0.7,1,0.8,2.1,0,2.8
		C586.8,413.2,582.9,416.6,580.8,418.5L580.8,418.5"/>
</g>
<g>
	<path id="e_1_" class="st2" d="M50.6,40.1c-25.1,0-46,10.6-46,42.8c0,25.4,14.1,41.5,46.6,41.5c38.4,0,40.8-25.3,40.8-25.3H73.5
		c0,0-4,13.6-23.4,13.6C34.3,112.6,23,101.9,23,87h71v-9.4C94,62.8,84.6,40.1,50.6,40.1L50.6,40.1z M48.6,51.4
		c15.4,0,25.9,9.4,25.9,23.6H21.4C21.4,60,35.1,51.4,48.6,51.4z"/>
	<path id="b_1_" class="st3" d="M94,7v102.1c0,5.8-0.4,13.9-0.4,13.9h18.6c0,0,0.7-5.8,0.7-11.2c0,0,9.2,14.1,34.1,14.1
		c26.3,0,44.1-17.9,44.1-43.6c0-23.9-16.4-43.1-44.1-43.1c-25.9,0-34,13.7-34,13.7V7L94,7z M140.9,51.6c17.5,0,28.6,13,28.6,30.3
		c0,18.6-12.8,30.8-28.4,30.8c-18.6,0-28.7-14.5-28.7-30.7C112.4,67.1,121.4,51.6,140.9,51.6z"/>
	<path id="a_1_" class="st4" d="M233.3,38.5c-39.5,0-42.1,21.1-42.1,24.5h19.7c0,0,1-12.3,21-12.3c13,0,23.1,5.8,23.1,17V72h-22.4
		c-29.7,0-45.4,8.7-45.4,26.3c0,17.3,14.5,26.8,34.1,26.8c26.7,0,35.3-14.8,35.3-14.8c0,5.9,0.5,11.7,0.5,11.7h17.6
		c0,0-0.7-7.2-0.7-11.8v-40C274,44,252.4,38.5,233.3,38.5L233.3,38.5z M255,83.9v5.3c0,6.9-4.3,24.2-29.5,24.2
		c-13.8,0-19.7-6.9-19.7-14.9C205.9,84,225.8,83.9,255,83.9L255,83.9z"/>
	<path id="y_1_" class="st5" d="M263.4,42H285l31.1,62.3l31-62.3h19.6l-56.6,111h-20.6l16.3-30.9L263.4,42z"/>
</g>
<g>
	<g transform="translate(-50.461389,-83.56061)">
		<g id="g4147_1_" transform="translate(394.28571,-405.71429)">
				<path id="path4223_1_" class="st6" d="
				M-267,797.2c-7.8-2.1-15-8-18.6-15.4c-2.8-5.7-2.8-5.6-2.8-31.7c-0.3-22.5-0.2-23.3,1.3-25.4c3.2-5.3,10.2-6.5,14.8-2.4
				c3.2,2.9,3.5,3.8,3.5,13.2v8.1h13.6c8.3,0,14.4,0.2,15.7,0.4c7.1,1.5,9.8,10,4.9,15.3c-0.6,0.6-1.8,1.5-2.7,2
				c-1.5,0.8-2.1,0.9-16.5,1l-14.9,0.1v3.6c0,5.2,0.5,7,3,9.4c2.8,2.8,3.6,3,16.9,3c10.3,0,11.3,0.1,13,0.8
				c6.4,2.9,7.9,10.5,3.3,15.7c-2.7,3-2.9,3.1-18.1,3.1C-262.7,798-264.6,797.9-267,797.2L-267,797.2z M-206.3,797.7
				c-6.2-1.5-12.6-6.2-16.6-12.2c-3.6-5.5-4.3-9.4-4.3-23.8c0-12.4,0.2-14,2.6-16.5c2.2-2.3,3.6-2.9,6.9-2.9c2.5,0,3.1,0.1,4.8,1.2
				c1.2,0.8,2.4,2,3.2,3.2c1.5,2.6,1.2,3.7,1.4,14.5c0.2,12.3,0.2,12.6,1.1,14.1c3.1,5,9.6,5.8,13.9,1.6c2.5-2.4,2.7-3.8,2.7-16.5
				c0-10.4,0-11.2,0.9-12.8c1.6-3.2,4-4.9,7.4-5.4c3.7-0.5,7.7,1.7,9.6,5.3c0.9,1.6,0.9,2.3,1.1,14c-0.1,9.8,0.4,12.7,1.3,14
				c3,4.5,9.2,5.4,13.1,2c2.8-2.4,2.8-2.4,3-16.1c0.2-11.7,0.3-12.4,1.1-14c3.6-6.7,12.6-7.1,16.5-0.8c2.5,3.5,1.4,10.9,1.4,15.7
				c0.2,6.3-0.2,14.4-1.3,16.9c-3,8.5-9.7,15.2-17.7,17.8c-3.6,1.2-11.7,1.5-15.3,0.5c-3.5-0.9-6.5-2.3-9.4-4.3l-2.4-1.7l-2.4,1.7
				c-2.9,2-5.9,3.4-9.1,4.3C-195.6,798.5-203.1,798.5-206.3,797.7L-206.3,797.7z M-122.3,797.8c-1.8-0.8-4.1-3-5.1-4.8
				c-0.9-1.6-0.9-1.8-0.9-22.5c0-19.9,0-20.9,0.8-22.4c3.1-6.3,11.3-7.8,16.2-2.8c3.1,3.1,3.1,3,2.9,25.9c-0.1,19.8-0.1,20.2-1,21.8
				c-1.1,2.1-3.2,4-5.1,4.8C-116.3,798.5-120.6,798.5-122.3,797.8L-122.3,797.8z M-79.5,797.1c-8.9-2.3-16.6-9.3-19.9-18
				c-1.8-4.7-1.9-7.1-1.8-30.3c0.1-21.4,0.1-21.8,1-23.3c4.2-7.8,15.8-6.8,18.3,1.6c0.4,1.4,0.6,4,0.6,9.2v7.3l9.5,0.1
				c8.8,0.1,9.6,0.2,11.1,1c6.9,3.7,7,12.9,0.1,16.6c-1.5,0.8-2.2,0.9-11.2,1l-9.5,0.1l0.1,4.7c0.2,5.4,0.8,7.1,3.5,9.1
				c2.4,1.8,3.8,2.1,10.6,2.1c5.4,0,6.2,0.1,8,0.9c7.7,3.6,7.7,14.4,0,17.9C-61.4,798.2-75.3,798.1-79.5,797.1L-79.5,797.1z
				 M-28.5,797.6c-10.2-2.8-18.5-11.3-21.2-21.7c-0.6-2.5-0.7-5.1-0.7-25.9c0.2-21.5-0.9-20.7,1.1-25.1c2.3-4.4,7.1-6.3,12.2-4.9
				c2.1,0.6,5.7,4.1,6.3,6.3c0.2,0.9,0.9,9.4,0.9,9.4l0,7.9h8.1c9.3,0,11.8,0.3,14,2c4.9,3.5,5,11.3,0.2,14.8c-2.4,1.7-4.6,2-14,2
				h-9.6v3.8c0.8,4.8,1.4,6.8,3.3,9c2.6,3,3.6,3.2,11.9,3.5c7.3,0.2,7.3,0.2,9.3,1.4c2.3,1.4,4.4,4.5,4.8,7c0.6,3.7-1.3,7.8-4.7,10
				l-1.7,1.5H-17C-24.4,798.3-26.1,798.2-28.5,797.6L-28.5,797.6z M21.5,798.1c-5.9-1.6-10.3-4.2-14.5-8.7
				c-5.2-5.5-7.5-11.6-7.5-19.5c0-4.8,0.8-8.6,2.8-12.6c2-4.2,4.3-7,7.5-9.3c9.6-6.8,26.6-7.3,37.3-0.9c3.8,2.3,7.8,6.5,9.8,10.5
				c3.9,8,3.5,15.2-1,17.5c-1.6,0.8-2.3,0.8-18.7,1l-17.1,0.1v1.1c0,1.7,2.6,3.9,5.5,4.7c2,0.6,4.4,0.7,13.3,0.7
				c6,0,11.5,0.2,12.3,0.4c7,1.9,8.4,11.1,2.2,14.7c-2,1.3-3.2,1-15.9,1C27.2,798.7,23,798.6,21.5,798.1L21.5,798.1z M39.8,761.3
				c-0.8-2.6-2.9-4.1-6.9-4.8c-4.2-0.8-10.2,1-11.3,3.3c-0.5,1-1,2.2-1,2.2s3.5,0.1,9.8,0.1H40L39.8,761.3z M70.3,797.6
				c-2.1-1.1-4.3-3.8-4.8-5.7c-0.3-1.1-0.4-5.6-0.3-13.9c0.1-12,0.2-12.2,1.3-15.5c2.9-8.6,10.5-15.8,19.5-18.1
				c3.3-0.9,18.4-1.3,21.7-0.6c4.6,1,7.6,4.5,7.6,9c0,3.8-1.7,6.8-5,8.5c-1.5,0.8-2.4,0.9-11.2,1.1c-9.1,0.2-9.6,0.3-11,1.2
				c-1.9,1.2-3.3,3-3.9,5.1c-0.3,1-0.4,5.8-0.4,12.1c0,10.5,0,10.5-1.1,12.6c-0.7,1.4-1.7,2.5-2.9,3.4c-1.7,1.1-2.2,1.3-4.9,1.4
				C72.4,798.3,71.4,798.2,70.3,797.6L70.3,797.6z M-122.8,736.2c-6.4-3.2-7.6-11.6-2.3-16.3c2.1-1.8,3.7-2.4,6.6-2.4
				c4,0,7.1,1.9,9,5.4C-105.2,731.3-114.4,740.5-122.8,736.2L-122.8,736.2z"/>
		</g>
	</g>
</g>
<g>
	<g>
		<path class="st7" d="M549.8,150.4c1.1,2.8,2.6,5.2,4.5,7.2c1.9,2,4.2,3.5,6.8,4.6c2.6,1.1,5.4,1.6,8.5,1.6c3,0,5.8-0.6,8.4-1.7
			c2.6-1.1,4.9-2.7,6.8-4.7c1.9-2,3.5-4.4,4.5-7.2c1.1-2.8,1.6-5.9,1.6-9.3V88h12.5v85.5h-13.4v-7.9c-2.9,3-6.2,5.3-10.1,7
			c-3.9,1.6-8.1,2.4-12.6,2.4c-4.6,0-8.9-0.8-12.8-2.4c-4-1.6-7.4-3.8-10.3-6.8c-2.9-2.9-5.2-6.5-6.9-10.6
			c-1.7-4.1-2.5-8.7-2.5-13.7V88h13.4v53C548.2,144.5,548.8,147.6,549.8,150.4z"/>
		<path class="st7" d="M624.8,88v30.8c0,0,6.8-5.1,10.6-6.8c3.8-1.7,7.9-2.5,12.3-2.5c4.6,0,8.9,0.9,12.9,2.6c4,1.7,7.5,4.1,10.4,7
			c2.9,2.9,5.3,6.4,7,10.4c1.7,4,2.6,8.3,2.6,12.8c0,4.5-0.9,8.7-2.6,12.7c-1.7,4-4.1,7.4-7,10.4c-2.9,2.9-6.4,5.3-10.4,7
			c-4,1.7-8.3,2.6-12.9,2.6c-4.4,0-8.5-0.8-12.3-2.5c-3.8-1.7-7.1-3.9-9.7-6.8v7.9h-12.5V88H624.8z M626.9,150.8
			c1.1,2.6,2.6,4.9,4.6,6.9c2,2,4.3,3.5,6.9,4.7c2.6,1.1,5.4,1.7,8.5,1.7c2.9,0,5.7-0.6,8.3-1.7s4.9-2.7,6.8-4.7
			c1.9-2,3.5-4.3,4.6-6.9c1.1-2.6,1.7-5.4,1.7-8.5c0-3-0.6-5.9-1.7-8.5c-1.1-2.7-2.7-5-4.6-6.9c-1.9-2-4.2-3.5-6.8-4.6
			s-5.4-1.7-8.3-1.7c-2.9,0-5.7,0.6-8.3,1.7c-2.6,1.1-4.9,2.6-6.9,4.6c-2,2-3.5,4.3-4.7,6.9c-1.1,2.7-1.7,5.5-1.7,8.5
			C625.3,145.3,625.8,148.1,626.9,150.8z"/>
		<path class="st7" d="M687.7,129.3c1.6-3.9,3.9-7.4,6.8-10.4c2.9-3,6.3-5.3,10.2-7.1c3.9-1.7,8.2-2.6,12.8-2.6
			c4.5,0,8.7,0.8,12.5,2.5c3.8,1.6,7.2,3.9,9.9,6.8c2.8,2.9,5,6.3,6.5,10.3c1.6,4,2.3,8.3,2.3,13v4.1h-51c0.4,2.5,1.2,4.9,2.5,7.1
			c1.2,2.2,2.8,4.1,4.6,5.6c1.8,1.6,3.9,2.8,6.3,3.7c2.3,0.9,4.8,1.4,7.4,1.4c7.4,0,13.5-3.1,18-9.2l9,6.6c-3.1,4.2-7,7.4-11.5,9.8
			c-4.6,2.4-9.7,3.6-15.5,3.6c-4.7,0-9-0.8-13.1-2.5s-7.6-3.9-10.6-6.9c-3-2.9-5.3-6.4-7.1-10.4c-1.7-4-2.6-8.3-2.6-13
			C685.2,137.4,686,133.3,687.7,129.3z M704.9,124.5c-3.5,2.9-5.8,6.8-6.9,11.6h38.2c-1.1-4.8-3.3-8.7-6.8-11.6
			c-3.5-2.9-7.6-4.4-12.2-4.4C712.4,120.2,708.4,121.6,704.9,124.5z"/>
		<path class="st7" d="M772.1,126.2c-2.6,2.9-3.8,6.8-3.8,11.7v35.7h-12.5v-62.4h12.5v7.4c1.1-2.5,3.1-4.5,5.6-6
			c2.5-1.5,8.9-2.3,8.9-2.3h4.2v11.6h-5C778,121.9,774.7,123.3,772.1,126.2z"/>
	</g>
</g>
</svg>
