<?xml version="1.0" encoding="utf-8"?>
<svg version="1.1" xmlns="http://www.w3.org/2000/svg" xmlns:xlink="http://www.w3.org/1999/xlink" x="0px" y="0px" width="1280px"
	 height="460px" viewBox="0 0 1280 460" enable-background="new 0 0 1280 460" xml:space="preserve">
<g id="Pods">
	<polygon fill="#F6E6DC" points="195.75,0.19 107.25,0.19 63,76.83 107.25,153.47 195.75,153.47 240,76.83 	"/>
	<polygon fill="#F6E6DC" points="83.84,182.19 27.95,182.19 0,230.59 27.95,279 83.84,279 111.79,230.59 	"/>
	<polygon fill="#F6E6DC" points="221.95,204.19 186.26,204.19 168.41,235.09 186.26,266 221.95,266 239.79,235.09 	"/>
	<polygon fill="#F6E6DC" points="172.75,306.19 84.25,306.19 40,382.83 84.25,459.47 172.75,459.47 217,382.83 	"/>
	<polygon fill="#F6E6DC" points="461.02,135 351.05,135 296.06,230.24 351.05,325.47 461.02,325.47 516,230.24 	"/>
</g>
<g id="Knowledge">
	<g>
		<g>
			<path fill="#F8F8F8" d="M72.33,346.97c11.28,10.11,24.96,17.47,38.7,23.63c18.36,8.22,37.66,14.34,57.28,18.72
				c44.34,9.9,91.9,11.51,135.84-1.2c37.79-10.93,76.31-33.62,92.73-70.91c14.43-32.78,14.01-70.62,8.49-105.37
				c-6.37-40.08-20.23-79.21-39.36-114.95c-16.15-30.17-36.87-60.5-65.04-80.66C285.29,5.01,261.43-6.25,243.11,5.51
				c-16.24,10.43-24.77,31.02-30.91,48.44c-9.76,27.7-14.91,57.01-18.6,86.06c-4.37,34.36-6.31,69.03-6.49,103.66
				c-0.18,33.85,1.28,67.79,5.24,101.42c3.08,26.16,7.26,52.83,16.3,77.68c4.68,12.86,12.21,31.74,27.08,35.68
				c8.08,2.14,17.4-1.06,24.79-4.17c12.19-5.13,23.28-12.7,33.7-20.77c28.79-22.29,53.68-49.75,76.21-78.22
				c24.79-31.33,47.15-64.96,64.89-100.81c13.91-28.12,27.07-59.81,27.05-91.72c-0.01-11.54-2.11-23.41-8.23-33.36
				c-5.82-9.46-14.7-16.72-24.05-22.49c-26.36-16.26-58.22-23.57-88.41-28.67c-38.22-6.45-77.18-8.73-115.91-8.36
				c-36.78,0.35-73.79,3.01-109.98,9.76c-14.61,2.72-29.16,6.12-43.2,11.04c-10.25,3.59-20.63,7.96-29.3,14.62
				c-5.06,3.89-10.2,8.84-10.88,15.52c-0.61,6.02,1.97,11.99,4.96,17.05c10.45,17.72,28.02,31.55,44.1,43.85
				c24.27,18.57,50.37,34.76,76.96,49.77c30.41,17.16,61.74,32.72,93.78,46.59c30.23,13.09,61.16,24.85,92.91,33.7
				c24.43,6.81,50.24,12.68,75.77,11.85c15.69-0.51,34.44-4.07,43.17-18.7c11.6-19.45,3.61-46.21-4.93-65.11
				c-14.02-31.04-36.46-58.27-59.75-82.78c-27.09-28.52-57.22-54.24-89.13-77.22c-28.75-20.7-59.34-39.75-92.19-53.26
				c-12.43-5.11-25.37-9.51-38.71-11.52c-9.42-1.42-19.6-1.83-28.68,1.58c-13.83,5.2-14.61,20.14-12.22,32.78
				c4.21,22.22,15.74,43.3,26.91,62.67c15.96,27.68,34.38,53.94,53.73,79.33c20.87,27.4,43.02,53.84,66.37,79.16
				c21.09,22.87,43.15,45.03,67.06,64.97c15.92,13.27,33.57,27.65,53.52,34.31c9.26,3.09,24.87,3.99,27.61-8.56
				c2.53-11.61-13.99-20.28-22.03-24.56c-20.3-10.79-42.76-17.76-64.78-24.05c-29.75-8.49-60.03-15.15-90.45-20.7
				c-31.65-5.77-63.57-10.31-95.62-13.2c-27.7-2.49-55.73-4.01-83.51-2.09c-16.68,1.15-37.17,2.63-51.22,12.82
				c-11.44,8.29-10.23,21.36-2.52,32c12.54,17.31,36.11,23.97,56.06,27.65c31.15,5.74,63.41,5.31,94.88,3
				c36.93-2.71,73.67-8.54,109.79-16.68c35.01-7.89,69.72-17.92,103.01-31.42c24.9-10.1,50.59-22.01,70.84-40.05
				c11.86-10.57,24.03-26.48,18.42-43.3c-5.71-17.12-24.42-27.91-39.56-35.47c-25.58-12.78-53.55-20.82-81.27-27.42
				c-33.9-8.07-68.41-13.61-103.03-17.5c-34.76-3.91-69.77-6.12-104.76-6.02c-28.76,0.08-57.94,1.41-86.19,7.13
				c-16,3.24-37.13,7.92-47.67,21.73c-11.19,14.66-0.13,37.65,7.01,51.6c15.19,29.65,37.05,56.06,59.32,80.61
				c27.04,29.81,56.55,57.49,87.91,82.71c27.29,21.95,56.3,42.95,88.08,57.95c11.5,5.43,23.63,10.27,36.26,12.3
				c8.46,1.36,18.2,1.74,26.02-2.38c15.04-7.92,18.72-29.73,20.68-44.79c3.75-28.83,1.77-58.46-1.3-87.26
				c-3.79-35.6-10.11-70.93-18.08-105.82c-7.98-34.96-17.64-69.62-29.77-103.38c-9.44-26.28-20.11-52.99-35.62-76.36
				c-7.78-11.72-20.23-28.97-36.35-27.72C210.1,1.28,202.9,5.93,196.88,11c-8.79,7.4-16.02,16.62-22.58,25.99
				c-18.45,26.36-32.34,55.97-44.72,85.57c-14.72,35.2-27.01,71.47-37,108.29c-8.92,32.87-16.33,66.5-19.31,100.48
				c-1.14,13.01-1.65,26.2-0.31,39.21c0.94,9.1,2.66,18.68,7.38,26.67c8.01,13.53,22.64,12.86,36.1,8.66
				c22.76-7.11,43.52-21.25,62.67-35.07c26.68-19.26,51.7-40.84,75.61-63.42c26.22-24.75,51.17-50.9,74.46-78.44
				c20.63-24.4,40.29-49.95,56.6-77.48c11.26-19.01,22.98-40.75,24.53-63.24c0.52-7.5-0.43-15.39-4.37-21.93
				c-4.33-7.19-11.88-11.82-19.56-14.74c-23.73-9.01-52-4.87-76.15-0.05c-35.26,7.04-69.49,19.26-102.49,33.36
				c-35.53,15.19-70.03,33.05-102.72,53.67c-27.41,17.29-54.57,36.58-76.71,60.44c-12.61,13.59-28.7,33.29-25.4,53.35
				c2.62,15.95,19.9,20.31,33.72,21.07c24.56,1.34,49.73-4.84,73.16-11.51c30.67-8.73,60.57-20.29,89.58-33.5
				c28.02-12.76,55.52-27.14,81.13-44.28c17.4-11.65,37.07-25.28,47.91-43.74c7.07-12.04,5.92-25.95-7.59-32.75
				c-7.72-3.89-17.51-1.8-25.36,0.52c-13.09,3.87-25.45,10.28-37.21,17.1c-31.12,18.06-59.83,40.81-85.96,65.48
				c-22.93,21.65-47.13,46.41-60.21,75.59c-4.01,8.93-7.36,19.39-4.96,29.22c2.14,8.74,9.14,14.57,17.1,18.04
				c11.25,4.9,24.02,6.11,36.16,6.39c16.35,0.38,32.72-1.29,48.85-3.84c36.69-5.79,73.01-16.31,107.02-31.26
				c14.94-6.57,29.62-14.1,43-23.5c10.04-7.05,19.99-15.37,26.34-26.04c12.44-20.91-0.97-40.96-17.52-54.66
				c-25.77-21.33-59.01-34.06-90.9-42.9c-34.71-9.62-72.2-15.39-108.19-10.85c-26.59,3.35-54.79,13.83-64.61,41.03
				c-12.38,34.29,4.31,72.79,22.33,101.77c20.58,33.1,48.25,63.32,80.18,85.78c11.19,7.87,23.78,15.73,37.35,18.62
				c8.16,1.74,15.01,0.74,21.11-5.14c7.14-6.87,11.66-16.43,15.4-25.45c5.44-13.1,9.28-26.86,12.39-40.69
				c7.54-33.6,10.96-68.42,10.23-102.84c-0.63-29.43-3.58-61.78-17.86-88.13c-5.23-9.64-12.55-18.65-22.5-23.67
				c-13.86-6.99-31.57-5.6-46.17-2.05c-41.83,10.16-75.2,44.77-97.13,80.24c-10.64,17.21-19.4,35.98-24.3,55.66
				c-3.1,12.45-6.5,29.12-1.06,41.42c4.07,9.2,12.94,15.59,21.46,20.33c12.43,6.92,26.2,11.41,39.9,15.01
				c34.49,9.06,70.59,12.72,106.17,13.52c30.44,0.68,63.06,0.24,92.4-8.89c10.59-3.29,32.79-13.03,21.46-27.13
				c-5.03-6.26-12.83-10.39-19.83-14c-10.96-5.66-22.45-10.3-33.93-14.77c-29.35-11.43-59.22-21.46-88.58-32.87
				c-26.92-10.46-54.99-21.51-78.47-38.67c-14.49-10.59-29.48-27.15-18.68-45.62c5-8.54,13.11-15.74,22.97-17.79
				c9.95-2.07,20.23,1.15,29.04,5.66c25.51,13.04,45.7,36.73,62.88,59.05c20.46,26.57,38.19,55.44,53,85.52
				c6.38,12.95,12.25,26.2,16.94,39.87c3.33,9.71,6.5,19.97,6.98,30.29c0.24,5.16,0.03,12.41-5.6,14.67
				c-7.23,2.9-14.21-3.05-18.56-8.19c-7.52-8.88-12.19-20.23-15.59-31.23c-4.4-14.23-6.65-29.12-6.91-44
				c-0.58-32.84,9.19-66.65,33.39-89.87c6.63-6.35,14.13-11.73,22.19-16.11c9.05-4.92,18.56-7.59,28.14-11.11
				c13.5-4.96,22.76-17.26,27.98-30.22c12.33-30.6,4.88-70.15-25.11-87.47c-9.17-5.3-20.31-9.81-30.89-6.56
				c-8.08,2.48-15.18,7.72-21.5,13.17C295.62,53.21,280,75.67,265.7,97.54c-19.34,29.56-36.36,60.64-52.06,92.26
				c-16.18,32.6-30.95,65.95-43.93,99.96c-10.94,28.69-21.01,58.04-27.27,88.15c-2.21,10.62-4.01,21.47-4.24,32.34
				c-0.15,7.08,0.18,14.87,3.38,21.34c1.93,3.91,5.75,8.16,10.5,8.08c4.52-0.07,7.59-4.19,9.55-7.78
				c3.55-6.48,5.39-13.95,6.95-21.12c2.27-10.48,3.68-21.15,4.78-31.81c3-28.9,3.64-58.07,3.33-87.11
				c-0.34-32.61-2.06-65.24-5.4-97.68c-2.96-28.77-6.98-57.68-14.3-85.7c-4.48-17.17-10.04-38.48-23.43-51.15
				c-10.19-9.65-24.3-6.88-32.27,4.32c-11.8,16.58-6.68,41.91-2.28,60.05c7.55,31.12,20.72,60.94,35.06,89.46
				c16.35,32.52,35.1,63.91,55.95,93.74c17.25,24.68,35.94,49.2,58.29,69.54c10.79,9.82,28.48,25.85,44.63,20.45
				c16.18-5.41-2.42-19.38-9.05-23.98c-23.28-16.14-49.35-28.55-74.42-41.58c-31.14-16.18-62.44-32.2-92.52-50.3
				c-13.11-7.89-26.08-16.16-38.15-25.58c-8.66-6.77-17.63-14.31-23.51-23.74c-3.51-5.63-5.93-12.38-2.25-18.51
				c3.88-6.47,11.6-10.31,18.29-13.13c24.11-10.16,51.82-12.68,77.66-14.19c34.1-1.99,68.49-0.73,102.39,3.43
				c31.88,3.91,64.26,10.21,93.99,22.71c20.2,8.49,44.29,21.77,51.12,44.27c7.1,23.39-5.41,48.15-22.71,63.46
				c-19.08,16.88-45.22,26.4-70.6,26.84c-23.84,0.41-48.53-8.31-60.94-29.87c-7.28-12.65-9.36-27.56-8.75-41.97
				c0.41-9.62,1.99-19.15,4.27-28.49c2.45-10.1,5.38-20.39,10.4-29.54c7.41-13.49,19.36-21.41,34.9-21.38
				c17.88,0.04,35.64,7.25,51.94,13.88c42.56,17.31,83.69,37.5,127.67,51.24c1.85,0.58,2.64-2.32,0.8-2.89
				c-27.53-8.61-54.27-19.39-80.7-30.92c-20.53-8.95-40.87-18.57-61.99-26.09c-14.34-5.11-30.33-10.04-45.72-7.62
				c-13.59,2.14-23.62,11.21-29.93,23.09c-8.65,16.28-12.96,36.16-14.38,54.44c-1.09,14.06,0.15,28.61,5.84,41.65
				c9.39,21.54,30.05,33.83,52.8,36.73c23.97,3.05,49.22-3.02,70-15.1c20.01-11.63,37.25-30.37,41.07-53.87
				c1.67-10.27,1.04-20.92-3.4-30.43c-4.27-9.13-11.44-16.61-19.35-22.7c-21.49-16.56-48.92-25.18-74.97-31.39
				c-32.32-7.71-65.62-11.53-98.79-12.86c-30.74-1.24-61.83-0.45-92.28,4.22c-11.79,1.81-23.59,4.2-34.89,8.1
				c-7.79,2.69-15.9,6.1-22.04,11.76c-12.66,11.66-3.69,26.54,6.05,36.83c19.03,20.14,44.57,34.6,68.37,48.26
				c29.78,17.1,60.44,32.64,90.87,48.53c22.56,11.78,46.63,23.02,66.91,38.59c2.8,2.15,10.76,7.62,9.64,11.94
				c-1.14,4.41-9.85,4.48-13.25,3.89c-8.22-1.42-15.76-6.51-22.28-11.44c-9.8-7.41-18.58-16.18-26.88-25.21
				c-21.89-23.82-40.83-50.39-58.25-77.6c-19.02-29.72-36.26-60.72-50.77-92.9c-11.92-26.42-23.17-54.61-26.81-83.57
				c-1.96-15.63-2.29-38.82,14.95-46.35c13.23-5.78,22.77,7.73,28.07,17.96c10.5,20.3,15.31,43.78,19.38,66.08
				c5.47,30.01,8.62,60.45,10.63,90.87c2.07,31.34,2.88,62.8,2.18,94.2c-0.56,25.36-1.8,50.96-6.05,76
				c-1.4,8.26-3.08,16.63-6.07,24.48c-1.42,3.73-3.64,9.56-7.69,11.18c-3.64,1.45-7.23-2.09-8.98-5.16c-3.43-6-3.66-13.7-3.55-20.42
				c0.39-24.07,7.4-48.27,14.41-71.11c9.9-32.28,22.22-63.83,35.69-94.77c14.32-32.88,30.08-65.18,47.47-96.55
				c15.33-27.67,31.84-54.99,51.27-80.01c7.36-9.48,15.2-18.7,24-26.89c6.34-5.9,13.44-11.73,21.61-14.9
				c10.15-3.94,20.14-0.33,29.42,4.72c15.65,8.5,25.81,23.69,29.29,40.99c3.26,16.19,1.06,33.89-6.37,48.66
				c-3.31,6.59-7.74,12.72-13.49,17.4c-6.63,5.38-14.38,6.95-22.23,9.8c-32.19,11.69-56.58,36.29-67.22,68.9
				c-9.15,28.03-8.72,59.36-0.94,87.66c3.08,11.21,7.39,22.49,14,32.13c4.21,6.14,10.07,12.91,17.79,14.32
				c16.93,3.11,15.87-17.49,13.85-28.16c-4.78-25.28-16.6-49.65-28.44-72.26c-15.11-28.87-32.77-56.62-53.2-82.03
				c-16.57-20.61-36.03-42.4-60.32-53.98c-8.49-4.05-17.99-6.75-27.45-5.34c-9.45,1.41-17.36,7.03-23.19,14.42
				c-5.22,6.62-8.73,14.66-7.61,23.23c1.11,8.44,6.23,15.71,12.07,21.63c17.7,17.97,42.82,28.85,65.62,38.62
				c28.79,12.33,58.39,22.63,87.79,33.38c22.92,8.38,47.37,16.19,68.17,29.24c4.57,2.87,11.78,7.27,12.67,13.22
				c0.95,6.33-6.94,10.91-11.61,13.25c-10.42,5.21-22.39,7.52-33.81,9.31c-15.77,2.46-31.77,3.44-47.72,3.73
				c-35.53,0.65-71.45-2.02-106.33-8.91c-15.15-2.99-30.27-6.81-44.65-12.5c-10.63-4.21-21.8-9.59-29.63-18.17
				c-8.2-9-7.96-20.89-6.58-32.39c2.32-19.36,9.65-38.13,18.64-55.3c19.61-37.43,50.98-74.21,91.52-89.38
				c15.75-5.89,35.9-9.57,52.18-3.51c10.42,3.88,18.18,12.4,23.69,21.8c14.92,25.46,17.93,57.71,18.73,86.58
				c0.94,33.79-2.22,67.94-9.31,100.99c-2.98,13.88-6.67,27.7-11.85,40.93c-3.65,9.33-8.08,19.3-15.17,26.58
				c-6.15,6.33-12.99,6.78-21.32,4.56c-13.62-3.62-26.11-11.75-37.37-19.98c-31.71-23.17-59.35-53.97-79.22-87.82
				c-16.89-28.76-32.75-68.72-15.81-101.01c13.42-25.56,46.71-31.92,72.9-33.16c36.33-1.72,73.28,5.17,107.75,16.32
				c29.46,9.53,61.82,22.78,83.58,45.69c7.03,7.4,13.48,16.93,13.36,27.54c-0.12,10.46-6.76,19.69-13.78,26.88
				c-21.9,22.43-53.57,35.86-82.5,46.41c-33.72,12.3-69.3,21.22-105.1,24.43c-14.49,1.3-29.35,1.78-43.78-0.47
				c-9.72-1.51-20.78-4.26-27.77-11.71c-15.52-16.57,3.3-44.87,13.26-59.08c19.93-28.45,45.81-53.02,72.49-75.06
				c25.19-20.82,52.7-41.08,82.92-54c13.27-5.68,37.36-14.19,45.33,4.04c6.01,13.74-9.75,29.17-18.55,37.46
				c-19.03,17.91-41.88,31.89-64.62,44.54c-27.63,15.37-56.44,28.69-85.93,40.1c-27.2,10.52-55.21,19.73-83.92,25.13
				c-11.23,2.11-22.66,3.65-34.1,3.61c-8.19-0.03-16.96-0.73-24.46-4.32c-15.51-7.42-13.03-25.14-6.48-38.23
				c11.76-23.49,33.67-42,54.02-57.84c28.49-22.18,59.67-40.98,91.64-57.67c33.32-17.39,67.94-32.56,103.65-44.35
				c29.39-9.71,60.45-18.06,91.6-18.51c17.33-0.25,42.75,1.87,52.17,19.19c8.45,15.54,0.97,36.41-5.34,51.29
				c-10.92,25.74-26.94,49.37-43.59,71.69c-20.47,27.44-43.04,53.32-66.71,78.04c-23.82,24.87-48.86,48.62-75.28,70.71
				c-21.89,18.31-44.81,35.95-69.76,49.93c-8.87,4.97-18.09,9.57-27.83,12.58c-6.56,2.03-14.01,3.72-20.84,2.05
				c-16.24-3.96-18.4-27.85-19.13-41.24c-1.6-29.38,3.41-59.21,9.36-87.87c7.46-35.93,17.69-71.32,29.81-105.94
				c11.68-33.37,25.12-66.32,41.76-97.55c11.5-21.57,24.83-45.53,44.46-60.85c5.69-4.44,12.9-8.64,20.4-7.99
				c6.84,0.6,12.79,5.19,17.53,9.82c16.43,16.07,26.74,38.84,35.73,59.61c13.05,30.18,23.15,61.66,31.85,93.34
				c9.51,34.65,17.22,69.83,22.94,105.31c5.12,31.75,8.87,63.95,8.89,96.15c0.01,20.81-0.28,45.27-10.48,64.08
				c-3.29,6.07-7.94,11.1-14.73,13.02c-9.58,2.7-20.06,0.89-29.46-1.7c-29.27-8.07-56.17-25.52-80.74-42.83
				c-31.87-22.45-61.63-47.98-89.48-75.23c-26.16-25.6-51.16-52.94-72.05-83.07C33.23,230.63,25.75,218.6,20,205.78
				c-4.15-9.26-7.87-19.61-7.5-29.91c0.55-15.29,18.16-22.5,30.5-26.53c23.84-7.8,49.57-10.03,74.48-11.27
				c32.84-1.63,65.81-0.64,98.57,1.82c34.91,2.63,69.71,7.02,104.12,13.48c30.13,5.66,60.23,12.77,89.05,23.33
				c19.8,7.26,41.95,16.28,56.5,32.2c4.75,5.19,8.63,11.6,9.09,18.78c0.51,7.87-2.82,15.34-7.3,21.63
				c-13.51,18.98-36.48,31.22-56.93,41.14c-30.01,14.56-61.94,25.19-94.08,33.91c-35.61,9.67-71.95,16.9-108.57,21.45
				c-32.96,4.1-66.47,6.27-99.66,3.88c-23.72-1.71-50.35-5.2-70.55-18.81c-9.59-6.46-23.38-21.57-15.11-33.88
				c8.11-12.06,28.31-14.44,41.33-16.07c25.19-3.14,50.91-2.38,76.18-0.76c31.04,1.99,61.97,5.8,92.67,10.77
				c30.64,4.95,61.13,11.07,91.22,18.7c24.43,6.2,48.94,13.17,72.16,23.08c7.88,3.37,15.73,7.09,22.86,11.88
				c4.23,2.85,9.28,6.52,11.2,11.47c1.52,3.91-0.22,7.72-3.41,10.22c-4.25,3.33-10.09,3.1-15.09,2.01
				c-18.56-4.06-35.54-17.59-50.04-29.14c-22.98-18.3-44.09-38.95-64.3-60.23c-23.21-24.44-45.22-50.05-66.05-76.55
				c-19.77-25.15-38.59-51.16-55.39-78.4c-12.7-20.61-25.24-42.38-32.22-65.71c-3.29-10.97-7.76-29.55,4.25-37.11
				c7.16-4.51,16.97-4.59,25.09-3.9c12.51,1.06,24.77,4.77,36.48,9.14c31.87,11.9,61.58,29.84,89.46,49.13
				c31.87,22.05,61.91,46.94,89.27,74.4c24.28,24.38,47.44,51.2,63.54,81.81c10.32,19.61,21.08,47.16,11,69.03
				c-6.98,15.12-25.17,19.05-40.26,19.77c-24.86,1.18-50.03-4.41-73.87-10.9c-31.1-8.46-61.41-19.79-91.02-32.45
				c-31.14-13.32-61.61-28.24-91.23-44.65c-26.61-14.74-52.72-30.65-77.22-48.71c-16.95-12.49-34.99-26.34-47.02-43.92
				c-3.41-4.99-6.84-10.92-6.91-17.15c-0.07-6.35,4.52-10.95,9.21-14.67c8.44-6.69,18.78-11.01,28.86-14.54
				c13.61-4.77,27.71-8.11,41.86-10.79c35.46-6.73,71.73-9.4,107.79-9.87c38.19-0.5,76.62,1.56,114.36,7.65
				c30.26,4.88,62.03,11.88,88.77,27.49c9.52,5.56,18.73,12.56,24.8,21.92c6.36,9.81,8.45,21.62,8.41,33.15
				c-0.09,31.92-13.53,63.68-27.57,91.72c-17.56,35.07-39.49,68.05-63.83,98.76c-22.09,27.87-46.45,54.74-74.52,76.74
				c-10.38,8.13-21.51,15.83-33.68,21.03c-7.06,3.01-16.41,6.44-24.11,3.93c-14.42-4.7-21.31-24.81-25.58-37.57
				c-8.49-25.33-12.53-52.2-15.39-78.67c-3.57-32.95-4.85-66.15-4.53-99.29c0.32-33.63,2.29-67.3,6.58-100.66
				c3.66-28.48,8.81-57.21,18.38-84.36c5.96-16.92,14.43-37.84,30.75-47.4c19.21-11.25,44.28,3.66,59.24,15.73
				c27.48,22.17,47.57,53.37,63.18,84.65c17.81,35.7,30.61,74.6,35.56,114.25c4.28,34.26,3.16,72.07-14.1,102.91
				c-20.64,36.85-64.87,56.95-104.66,64.74c-44.16,8.65-90.77,4.46-133.85-7.75c-26.72-7.57-55.74-18.2-76.76-37.05
				C73.01,343.57,70.88,345.68,72.33,346.97L72.33,346.97z"/>
		</g>
	</g>
	<g>
		<defs>
			<path id="SVGID_1_" d="M240,76.83l-44.25,76.64h-88.5L63,76.83l44.25-76.64h88.5L240,76.83z M83.84,182.19h-55.9L0,230.59
				L27.95,279h55.9l27.95-48.41L83.84,182.19z M221.95,206.19h-35.69l-17.84,30.91L186.26,268h35.69l17.84-30.91L221.95,206.19z
				 M172.75,306.19h-88.5L40,382.83l44.25,76.64h88.5L217,382.83L172.75,306.19z M461.02,135H351.05l-54.98,95.24l54.98,95.24
				h109.97L516,230.24L461.02,135z"/>
		</defs>
		<clipPath id="SVGID_2_">
			<use xlink:href="#SVGID_1_"  overflow="visible"/>
		</clipPath>
		<g clip-path="url(#SVGID_2_)">
			<g>
				<path fill="#ABABAB" d="M72.33,346.97c11.28,10.11,24.96,17.47,38.7,23.63c18.36,8.22,37.66,14.34,57.28,18.72
					c44.34,9.9,91.9,11.51,135.84-1.2c37.79-10.93,76.31-33.62,92.73-70.91c14.43-32.78,14.01-70.62,8.49-105.37
					c-6.37-40.08-20.23-79.21-39.36-114.95c-16.15-30.17-36.87-60.5-65.04-80.66C285.29,5.01,261.43-6.25,243.11,5.51
					c-16.24,10.43-24.77,31.02-30.91,48.44c-9.76,27.7-14.91,57.01-18.6,86.06c-4.37,34.36-6.31,69.03-6.49,103.66
					c-0.18,33.85,1.28,67.79,5.24,101.42c3.08,26.16,7.26,52.83,16.3,77.68c4.68,12.86,12.21,31.74,27.08,35.68
					c8.08,2.14,17.4-1.06,24.79-4.17c12.19-5.13,23.28-12.7,33.7-20.77c28.79-22.29,53.68-49.75,76.21-78.22
					c24.79-31.33,47.15-64.96,64.89-100.81c13.91-28.12,27.07-59.81,27.05-91.72c-0.01-11.54-2.11-23.41-8.23-33.36
					c-5.82-9.46-14.7-16.72-24.05-22.49c-26.36-16.26-58.22-23.57-88.41-28.67c-38.22-6.45-77.18-8.73-115.91-8.36
					c-36.78,0.35-73.79,3.01-109.98,9.76c-14.61,2.72-29.16,6.12-43.2,11.04c-10.25,3.59-20.63,7.96-29.3,14.62
					c-5.06,3.89-10.2,8.84-10.88,15.52c-0.61,6.02,1.97,11.99,4.96,17.05c10.45,17.72,28.02,31.55,44.1,43.85
					c24.27,18.57,50.37,34.76,76.96,49.77c30.41,17.16,61.74,32.72,93.78,46.59c30.23,13.09,61.16,24.85,92.91,33.7
					c24.43,6.81,50.24,12.68,75.77,11.85c15.69-0.51,34.44-4.07,43.17-18.7c11.6-19.45,3.61-46.21-4.93-65.11
					c-14.02-31.04-36.46-58.27-59.75-82.78c-27.09-28.52-57.22-54.24-89.13-77.22c-28.75-20.7-59.34-39.75-92.19-53.26
					c-12.43-5.11-25.37-9.51-38.71-11.52c-9.42-1.42-19.6-1.83-28.68,1.58c-13.83,5.2-14.61,20.14-12.22,32.78
					c4.21,22.22,15.74,43.3,26.91,62.67c15.96,27.68,34.38,53.94,53.73,79.33c20.87,27.4,43.02,53.84,66.37,79.16
					c21.09,22.87,43.15,45.03,67.06,64.97c15.92,13.27,33.57,27.65,53.52,34.31c9.26,3.09,24.87,3.99,27.61-8.56
					c2.53-11.61-13.99-20.28-22.03-24.56c-20.3-10.79-42.76-17.76-64.78-24.05c-29.75-8.49-60.03-15.15-90.45-20.7
					c-31.65-5.77-63.57-10.31-95.62-13.2c-27.7-2.49-55.73-4.01-83.51-2.09c-16.68,1.15-37.17,2.63-51.22,12.82
					c-11.44,8.29-10.23,21.36-2.52,32c12.54,17.31,36.11,23.97,56.06,27.65c31.15,5.74,63.41,5.31,94.88,3
					c36.93-2.71,73.67-8.54,109.79-16.68c35.01-7.89,69.72-17.92,103.01-31.42c24.9-10.1,50.59-22.01,70.84-40.05
					c11.86-10.57,24.03-26.48,18.42-43.3c-5.71-17.12-24.42-27.91-39.56-35.47c-25.58-12.78-53.55-20.82-81.27-27.42
					c-33.9-8.07-68.41-13.61-103.03-17.5c-34.76-3.91-69.77-6.12-104.76-6.02c-28.76,0.08-57.94,1.41-86.19,7.13
					c-16,3.24-37.13,7.92-47.67,21.73c-11.19,14.66-0.13,37.65,7.01,51.6c15.19,29.65,37.05,56.06,59.32,80.61
					c27.04,29.81,56.55,57.49,87.91,82.71c27.29,21.95,56.3,42.95,88.08,57.95c11.5,5.43,23.63,10.27,36.26,12.3
					c8.46,1.36,18.2,1.74,26.02-2.38c15.04-7.92,18.72-29.73,20.68-44.79c3.75-28.83,1.77-58.46-1.3-87.26
					c-3.79-35.6-10.11-70.93-18.08-105.82c-7.98-34.96-17.64-69.62-29.77-103.38c-9.44-26.28-20.11-52.99-35.62-76.36
					c-7.78-11.72-20.23-28.97-36.35-27.72C210.1,1.28,202.9,5.93,196.88,11c-8.79,7.4-16.02,16.62-22.58,25.99
					c-18.45,26.36-32.34,55.97-44.72,85.57c-14.72,35.2-27.01,71.47-37,108.29c-8.92,32.87-16.33,66.5-19.31,100.48
					c-1.14,13.01-1.65,26.2-0.31,39.21c0.94,9.1,2.66,18.68,7.38,26.67c8.01,13.53,22.64,12.86,36.1,8.66
					c22.76-7.11,43.52-21.25,62.67-35.07c26.68-19.26,51.7-40.84,75.61-63.42c26.22-24.75,51.17-50.9,74.46-78.44
					c20.63-24.4,40.29-49.95,56.6-77.48c11.26-19.01,22.98-40.75,24.53-63.24c0.52-7.5-0.43-15.39-4.37-21.93
					c-4.33-7.19-11.88-11.82-19.56-14.74c-23.73-9.01-52-4.87-76.15-0.05c-35.26,7.04-69.49,19.26-102.49,33.36
					c-35.53,15.19-70.03,33.05-102.72,53.67c-27.41,17.29-54.57,36.58-76.71,60.44c-12.61,13.59-28.7,33.29-25.4,53.35
					c2.62,15.95,19.9,20.31,33.72,21.07c24.56,1.34,49.73-4.84,73.16-11.51c30.67-8.73,60.57-20.29,89.58-33.5
					c28.02-12.76,55.52-27.14,81.13-44.28c17.4-11.65,37.07-25.28,47.91-43.74c7.07-12.04,5.92-25.95-7.59-32.75
					c-7.72-3.89-17.51-1.8-25.36,0.52c-13.09,3.87-25.45,10.28-37.21,17.1c-31.12,18.06-59.83,40.81-85.96,65.48
					c-22.93,21.65-47.13,46.41-60.21,75.59c-4.01,8.93-7.36,19.39-4.96,29.22c2.14,8.74,9.14,14.57,17.1,18.04
					c11.25,4.9,24.02,6.11,36.16,6.39c16.35,0.38,32.72-1.29,48.85-3.84c36.69-5.79,73.01-16.31,107.02-31.26
					c14.94-6.57,29.62-14.1,43-23.5c10.04-7.05,19.99-15.37,26.34-26.04c12.44-20.91-0.97-40.96-17.52-54.66
					c-25.77-21.33-59.01-34.06-90.9-42.9c-34.71-9.62-72.2-15.39-108.19-10.85c-26.59,3.35-54.79,13.83-64.61,41.03
					c-12.38,34.29,4.31,72.79,22.33,101.77c20.58,33.1,48.25,63.32,80.18,85.78c11.19,7.87,23.78,15.73,37.35,18.62
					c8.16,1.74,15.01,0.74,21.11-5.14c7.14-6.87,11.66-16.43,15.4-25.45c5.44-13.1,9.28-26.86,12.39-40.69
					c7.54-33.6,10.96-68.42,10.23-102.84c-0.63-29.43-3.58-61.78-17.86-88.13c-5.23-9.64-12.55-18.65-22.5-23.67
					c-13.86-6.99-31.57-5.6-46.17-2.05c-41.83,10.16-75.2,44.77-97.13,80.24c-10.64,17.21-19.4,35.98-24.3,55.66
					c-3.1,12.45-6.5,29.12-1.06,41.42c4.07,9.2,12.94,15.59,21.46,20.33c12.43,6.92,26.2,11.41,39.9,15.01
					c34.49,9.06,70.59,12.72,106.17,13.52c30.44,0.68,63.06,0.24,92.4-8.89c10.59-3.29,32.79-13.03,21.46-27.13
					c-5.03-6.26-12.83-10.39-19.83-14c-10.96-5.66-22.45-10.3-33.93-14.77c-29.35-11.43-59.22-21.46-88.58-32.87
					c-26.92-10.46-54.99-21.51-78.47-38.67c-14.49-10.59-29.48-27.15-18.68-45.62c5-8.54,13.11-15.74,22.97-17.79
					c9.95-2.07,20.23,1.15,29.04,5.66c25.51,13.04,45.7,36.73,62.88,59.05c20.46,26.57,38.19,55.44,53,85.52
					c6.38,12.95,12.25,26.2,16.94,39.87c3.33,9.71,6.5,19.97,6.98,30.29c0.24,5.16,0.03,12.41-5.6,14.67
					c-7.23,2.9-14.21-3.05-18.56-8.19c-7.52-8.88-12.19-20.23-15.59-31.23c-4.4-14.23-6.65-29.12-6.91-44
					c-0.58-32.84,9.19-66.65,33.39-89.87c6.63-6.35,14.13-11.73,22.19-16.11c9.05-4.92,18.56-7.59,28.14-11.11
					c13.5-4.96,22.76-17.26,27.98-30.22c12.33-30.6,4.88-70.15-25.11-87.47c-9.17-5.3-20.31-9.81-30.89-6.56
					c-8.08,2.48-15.18,7.72-21.5,13.17C295.62,53.21,280,75.67,265.7,97.54c-19.34,29.56-36.36,60.64-52.06,92.26
					c-16.18,32.6-30.95,65.95-43.93,99.96c-10.94,28.69-21.01,58.04-27.27,88.15c-2.21,10.62-4.01,21.47-4.24,32.34
					c-0.15,7.08,0.18,14.87,3.38,21.34c1.93,3.91,5.75,8.16,10.5,8.08c4.52-0.07,7.59-4.19,9.55-7.78
					c3.55-6.48,5.39-13.95,6.95-21.12c2.27-10.48,3.68-21.15,4.78-31.81c3-28.9,3.64-58.07,3.33-87.11
					c-0.34-32.61-2.06-65.24-5.4-97.68c-2.96-28.77-6.98-57.68-14.3-85.7c-4.48-17.17-10.04-38.48-23.43-51.15
					c-10.19-9.65-24.3-6.88-32.27,4.32c-11.8,16.58-6.68,41.91-2.28,60.05c7.55,31.12,20.72,60.94,35.06,89.46
					c16.35,32.52,35.1,63.91,55.95,93.74c17.25,24.68,35.94,49.2,58.29,69.54c10.79,9.82,28.48,25.85,44.63,20.45
					c16.18-5.41-2.42-19.38-9.05-23.98c-23.28-16.14-49.35-28.55-74.42-41.58c-31.14-16.18-62.44-32.2-92.52-50.3
					c-13.11-7.89-26.08-16.16-38.15-25.58c-8.66-6.77-17.63-14.31-23.51-23.74c-3.51-5.63-5.93-12.38-2.25-18.51
					c3.88-6.47,11.6-10.31,18.29-13.13c24.11-10.16,51.82-12.68,77.66-14.19c34.1-1.99,68.49-0.73,102.39,3.43
					c31.88,3.91,64.26,10.21,93.99,22.71c20.2,8.49,44.29,21.77,51.12,44.27c7.1,23.39-5.41,48.15-22.71,63.46
					c-19.08,16.88-45.22,26.4-70.6,26.84c-23.84,0.41-48.53-8.31-60.94-29.87c-7.28-12.65-9.36-27.56-8.75-41.97
					c0.41-9.62,1.99-19.15,4.27-28.49c2.45-10.1,5.38-20.39,10.4-29.54c7.41-13.49,19.36-21.41,34.9-21.38
					c17.88,0.04,35.64,7.25,51.94,13.88c42.56,17.31,83.69,37.5,127.67,51.24c1.85,0.58,2.64-2.32,0.8-2.89
					c-27.53-8.61-54.27-19.39-80.7-30.92c-20.53-8.95-40.87-18.57-61.99-26.09c-14.34-5.11-30.33-10.04-45.72-7.62
					c-13.59,2.14-23.62,11.21-29.93,23.09c-8.65,16.28-12.96,36.16-14.38,54.44c-1.09,14.06,0.15,28.61,5.84,41.65
					c9.39,21.54,30.05,33.83,52.8,36.73c23.97,3.05,49.22-3.02,70-15.1c20.01-11.63,37.25-30.37,41.07-53.87
					c1.67-10.27,1.04-20.92-3.4-30.43c-4.27-9.13-11.44-16.61-19.35-22.7c-21.49-16.56-48.92-25.18-74.97-31.39
					c-32.32-7.71-65.62-11.53-98.79-12.86c-30.74-1.24-61.83-0.45-92.28,4.22c-11.79,1.81-23.59,4.2-34.89,8.1
					c-7.79,2.69-15.9,6.1-22.04,11.76c-12.66,11.66-3.69,26.54,6.05,36.83c19.03,20.14,44.57,34.6,68.37,48.26
					c29.78,17.1,60.44,32.64,90.87,48.53c22.56,11.78,46.63,23.02,66.91,38.59c2.8,2.15,10.76,7.62,9.64,11.94
					c-1.14,4.41-9.85,4.48-13.25,3.89c-8.22-1.42-15.76-6.51-22.28-11.44c-9.8-7.41-18.58-16.18-26.88-25.21
					c-21.89-23.82-40.83-50.39-58.25-77.6c-19.02-29.72-36.26-60.72-50.77-92.9c-11.92-26.42-23.17-54.61-26.81-83.57
					c-1.96-15.63-2.29-38.82,14.95-46.35c13.23-5.78,22.77,7.73,28.07,17.96c10.5,20.3,15.31,43.78,19.38,66.08
					c5.47,30.01,8.62,60.45,10.63,90.87c2.07,31.34,2.88,62.8,2.18,94.2c-0.56,25.36-1.8,50.96-6.05,76
					c-1.4,8.26-3.08,16.63-6.07,24.48c-1.42,3.73-3.64,9.56-7.69,11.18c-3.64,1.45-7.23-2.09-8.98-5.16
					c-3.43-6-3.66-13.7-3.55-20.42c0.39-24.07,7.4-48.27,14.41-71.11c9.9-32.28,22.22-63.83,35.69-94.77
					c14.32-32.88,30.08-65.18,47.47-96.55c15.33-27.67,31.84-54.99,51.27-80.01c7.36-9.48,15.2-18.7,24-26.89
					c6.34-5.9,13.44-11.73,21.61-14.9c10.15-3.94,20.14-0.33,29.42,4.72c15.65,8.5,25.81,23.69,29.29,40.99
					c3.26,16.19,1.06,33.89-6.37,48.66c-3.31,6.59-7.74,12.72-13.49,17.4c-6.63,5.38-14.38,6.95-22.23,9.8
					c-32.19,11.69-56.58,36.29-67.22,68.9c-9.15,28.03-8.72,59.36-0.94,87.66c3.08,11.21,7.39,22.49,14,32.13
					c4.21,6.14,10.07,12.91,17.79,14.32c16.93,3.11,15.87-17.49,13.85-28.16c-4.78-25.28-16.6-49.65-28.44-72.26
					c-15.11-28.87-32.77-56.62-53.2-82.03c-16.57-20.61-36.03-42.4-60.32-53.98c-8.49-4.05-17.99-6.75-27.45-5.34
					c-9.45,1.41-17.36,7.03-23.19,14.42c-5.22,6.62-8.73,14.66-7.61,23.23c1.11,8.44,6.23,15.71,12.07,21.63
					c17.7,17.97,42.82,28.85,65.62,38.62c28.79,12.33,58.39,22.63,87.79,33.38c22.92,8.38,47.37,16.19,68.17,29.24
					c4.57,2.87,11.78,7.27,12.67,13.22c0.95,6.33-6.94,10.91-11.61,13.25c-10.42,5.21-22.39,7.52-33.81,9.31
					c-15.77,2.46-31.77,3.44-47.72,3.73c-35.53,0.65-71.45-2.02-106.33-8.91c-15.15-2.99-30.27-6.81-44.65-12.5
					c-10.63-4.21-21.8-9.59-29.63-18.17c-8.2-9-7.96-20.89-6.58-32.39c2.32-19.36,9.65-38.13,18.64-55.3
					c19.61-37.43,50.98-74.21,91.52-89.38c15.75-5.89,35.9-9.57,52.18-3.51c10.42,3.88,18.18,12.4,23.69,21.8
					c14.92,25.46,17.93,57.71,18.73,86.58c0.94,33.79-2.22,67.94-9.31,100.99c-2.98,13.88-6.67,27.7-11.85,40.93
					c-3.65,9.33-8.08,19.3-15.17,26.58c-6.15,6.33-12.99,6.78-21.32,4.56c-13.62-3.62-26.11-11.75-37.37-19.98
					c-31.71-23.17-59.35-53.97-79.22-87.82c-16.89-28.76-32.75-68.72-15.81-101.01c13.42-25.56,46.71-31.92,72.9-33.16
					c36.33-1.72,73.28,5.17,107.75,16.32c29.46,9.53,61.82,22.78,83.58,45.69c7.03,7.4,13.48,16.93,13.36,27.54
					c-0.12,10.46-6.76,19.69-13.78,26.88c-21.9,22.43-53.57,35.86-82.5,46.41c-33.72,12.3-69.3,21.22-105.1,24.43
					c-14.49,1.3-29.35,1.78-43.78-0.47c-9.72-1.51-20.78-4.26-27.77-11.71c-15.52-16.57,3.3-44.87,13.26-59.08
					c19.93-28.45,45.81-53.02,72.49-75.06c25.19-20.82,52.7-41.08,82.92-54c13.27-5.68,37.36-14.19,45.33,4.04
					c6.01,13.74-9.75,29.17-18.55,37.46c-19.03,17.91-41.88,31.89-64.62,44.54c-27.63,15.37-56.44,28.69-85.93,40.1
					c-27.2,10.52-55.21,19.73-83.92,25.13c-11.23,2.11-22.66,3.65-34.1,3.61c-8.19-0.03-16.96-0.73-24.46-4.32
					c-15.51-7.42-13.03-25.14-6.48-38.23c11.76-23.49,33.67-42,54.02-57.84c28.49-22.18,59.67-40.98,91.64-57.67
					c33.32-17.39,67.94-32.56,103.65-44.35c29.39-9.71,60.45-18.06,91.6-18.51c17.33-0.25,42.75,1.87,52.17,19.19
					c8.45,15.54,0.97,36.41-5.34,51.29c-10.92,25.74-26.94,49.37-43.59,71.69c-20.47,27.44-43.04,53.32-66.71,78.04
					c-23.82,24.87-48.86,48.62-75.28,70.71c-21.89,18.31-44.81,35.95-69.76,49.93c-8.87,4.97-18.09,9.57-27.83,12.58
					c-6.56,2.03-14.01,3.72-20.84,2.05c-16.24-3.96-18.4-27.85-19.13-41.24c-1.6-29.38,3.41-59.21,9.36-87.87
					c7.46-35.93,17.69-71.32,29.81-105.94c11.68-33.37,25.12-66.32,41.76-97.55c11.5-21.57,24.83-45.53,44.46-60.85
					c5.69-4.44,12.9-8.64,20.4-7.99c6.84,0.6,12.79,5.19,17.53,9.82c16.43,16.07,26.74,38.84,35.73,59.61
					c13.05,30.18,23.15,61.66,31.85,93.34c9.51,34.65,17.22,69.83,22.94,105.31c5.12,31.75,8.87,63.95,8.89,96.15
					c0.01,20.81-0.28,45.27-10.48,64.08c-3.29,6.07-7.94,11.1-14.73,13.02c-9.58,2.7-20.06,0.89-29.46-1.7
					c-29.27-8.07-56.17-25.52-80.74-42.83c-31.87-22.45-61.63-47.98-89.48-75.23c-26.16-25.6-51.16-52.94-72.05-83.07
					C33.23,230.63,25.75,218.6,20,205.78c-4.15-9.26-7.87-19.61-7.5-29.91c0.55-15.29,18.16-22.5,30.5-26.53
					c23.84-7.8,49.57-10.03,74.48-11.27c32.84-1.63,65.81-0.64,98.57,1.82c34.91,2.63,69.71,7.02,104.12,13.48
					c30.13,5.66,60.23,12.77,89.05,23.33c19.8,7.26,41.95,16.28,56.5,32.2c4.75,5.19,8.63,11.6,9.09,18.78
					c0.51,7.87-2.82,15.34-7.3,21.63c-13.51,18.98-36.48,31.22-56.93,41.14c-30.01,14.56-61.94,25.19-94.08,33.91
					c-35.61,9.67-71.95,16.9-108.57,21.45c-32.96,4.1-66.47,6.27-99.66,3.88c-23.72-1.71-50.35-5.2-70.55-18.81
					c-9.59-6.46-23.38-21.57-15.11-33.88c8.11-12.06,28.31-14.44,41.33-16.07c25.19-3.14,50.91-2.38,76.18-0.76
					c31.04,1.99,61.97,5.8,92.67,10.77c30.64,4.95,61.13,11.07,91.22,18.7c24.43,6.2,48.94,13.17,72.16,23.08
					c7.88,3.37,15.73,7.09,22.86,11.88c4.23,2.85,9.28,6.52,11.2,11.47c1.52,3.91-0.22,7.72-3.41,10.22
					c-4.25,3.33-10.09,3.1-15.09,2.01c-18.56-4.06-35.54-17.59-50.04-29.14c-22.98-18.3-44.09-38.95-64.3-60.23
					c-23.21-24.44-45.22-50.05-66.05-76.55c-19.77-25.15-38.59-51.16-55.39-78.4c-12.7-20.61-25.24-42.38-32.22-65.71
					c-3.29-10.97-7.76-29.55,4.25-37.11c7.16-4.51,16.97-4.59,25.09-3.9c12.51,1.06,24.77,4.77,36.48,9.14
					c31.87,11.9,61.58,29.84,89.46,49.13c31.87,22.05,61.91,46.94,89.27,74.4c24.28,24.38,47.44,51.2,63.54,81.81
					c10.32,19.61,21.08,47.16,11,69.03c-6.98,15.12-25.17,19.05-40.26,19.77c-24.86,1.18-50.03-4.41-73.87-10.9
					c-31.1-8.46-61.41-19.79-91.02-32.45c-31.14-13.32-61.61-28.24-91.23-44.65c-26.61-14.74-52.72-30.65-77.22-48.71
					c-16.95-12.49-34.99-26.34-47.02-43.92c-3.41-4.99-6.84-10.92-6.91-17.15c-0.07-6.35,4.52-10.95,9.21-14.67
					c8.44-6.69,18.78-11.01,28.86-14.54c13.61-4.77,27.71-8.11,41.86-10.79c35.46-6.73,71.73-9.4,107.79-9.87
					c38.19-0.5,76.62,1.56,114.36,7.65c30.26,4.88,62.03,11.88,88.77,27.49c9.52,5.56,18.73,12.56,24.8,21.92
					c6.36,9.81,8.45,21.62,8.41,33.15c-0.09,31.92-13.53,63.68-27.57,91.72c-17.56,35.07-39.49,68.05-63.83,98.76
					c-22.09,27.87-46.45,54.74-74.52,76.74c-10.38,8.13-21.51,15.83-33.68,21.03c-7.06,3.01-16.41,6.44-24.11,3.93
					c-14.42-4.7-21.31-24.81-25.58-37.57c-8.49-25.33-12.53-52.2-15.39-78.67c-3.57-32.95-4.85-66.15-4.53-99.29
					c0.32-33.63,2.29-67.3,6.58-100.66c3.66-28.48,8.81-57.21,18.38-84.36c5.96-16.92,14.43-37.84,30.75-47.4
					c19.21-11.25,44.28,3.66,59.24,15.73c27.48,22.17,47.57,53.37,63.18,84.65c17.81,35.7,30.61,74.6,35.56,114.25
					c4.28,34.26,3.16,72.07-14.1,102.91c-20.64,36.85-64.87,56.95-104.66,64.74c-44.16,8.65-90.77,4.46-133.85-7.75
					c-26.72-7.57-55.74-18.2-76.76-37.05C73.01,343.57,70.88,345.68,72.33,346.97L72.33,346.97z"/>
			</g>
		</g>
	</g>
</g>
<g id="Annotations">
	<circle fill="none" stroke="#C45814" stroke-width="8" cx="450.5" cy="241.5" r="26.5"/>
	<circle fill="none" stroke="#C45814" stroke-width="8" cx="124" cy="393" r="44"/>
	<circle fill="none" stroke="#C45814" stroke-width="8" cx="167" cy="85" r="39"/>
	<g>
		<path fill="#C45814" d="M366.77,342.83l-2.09,3.2c-1.48-0.94-3.06-1.48-4.72-1.48c-1.55,0-2.3,0.58-2.3,1.44
			c0,1.01,0.5,1.44,3.92,2.45c3.78,1.08,5.9,2.66,5.9,6.08c0,3.96-3.74,6.3-8.5,6.3c-3.31,0-6.12-1.15-7.99-2.84l2.77-3.1
			c1.44,1.12,3.2,1.87,5.08,1.87c1.73,0,2.77-0.65,2.77-1.8c0-1.3-0.58-1.69-4.03-2.66c-3.78-1.08-5.65-3.02-5.65-5.98
			c0-3.28,2.99-5.83,7.81-5.83C362.52,340.49,365.01,341.39,366.77,342.83z"/>
		<path fill="#C45814" d="M387.87,352.34h-11.81c0.36,3.42,1.98,4.36,4.32,4.36c1.55,0,2.92-0.54,4.57-1.69l2.34,3.17
			c-1.91,1.51-4.36,2.66-7.45,2.66c-6.37,0-9.61-4.1-9.61-10.08c0-5.72,3.13-10.26,8.93-10.26c5.47,0,8.82,3.6,8.82,9.79
			C387.97,350.9,387.94,351.76,387.87,352.34z M382.4,348.67c-0.04-2.59-0.83-4.39-3.1-4.39c-1.91,0-2.99,1.19-3.28,4.64h6.37
			V348.67z"/>
		<path fill="#C45814" d="M404.43,340.82l-0.9,5.51c-0.61-0.14-1.08-0.25-1.73-0.25c-2.34,0-3.35,1.73-3.96,4.61v9.54h-5.69v-19.11
			h4.97l0.47,3.67c0.86-2.63,2.74-4.21,4.93-4.21C403.24,340.57,403.82,340.64,404.43,340.82z"/>
		<path fill="#C45814" d="M418.75,360.22h-6.73l-6.16-19.11h6.19l3.38,14.79l3.53-14.79h5.79L418.75,360.22z"/>
		<path fill="#C45814" d="M443.88,352.34h-11.81c0.36,3.42,1.98,4.36,4.32,4.36c1.55,0,2.92-0.54,4.57-1.69l2.34,3.17
			c-1.91,1.51-4.36,2.66-7.45,2.66c-6.37,0-9.61-4.1-9.61-10.08c0-5.72,3.13-10.26,8.93-10.26c5.47,0,8.82,3.6,8.82,9.79
			C443.99,350.9,443.95,351.76,443.88,352.34z M438.41,348.67c-0.04-2.59-0.83-4.39-3.1-4.39c-1.91,0-2.99,1.19-3.28,4.64h6.37
			V348.67z"/>
		<path fill="#C45814" d="M460.44,340.82l-0.9,5.51c-0.61-0.14-1.08-0.25-1.73-0.25c-2.34,0-3.35,1.73-3.96,4.61v9.54h-5.69v-19.11
			h4.97l0.47,3.67c0.86-2.63,2.74-4.21,4.93-4.21C459.25,340.57,459.83,340.64,460.44,340.82z"/>
	</g>
</g>
<g id="Browser">
	<g>
		<g>
			<path fill="#F5F4F8" d="M1280.27,450.19c0,5.4-4.41,9.81-9.81,9.81H883.5c-5.4,0-9.81-4.42-9.81-9.81V9.64
				c0-5.4,4.41-9.81,9.81-9.81h386.96c5.4,0,9.81,4.41,9.81,9.81V450.19z"/>
		</g>
		<path fill="#D8D5E3" d="M1280.27,52.16H873.69V5.13c0-2.93,2.38-5.31,5.31-5.31h395.97c2.93,0,5.31,2.38,5.31,5.31V52.16z"/>
		<path fill="#DC9B72" d="M904.9,25.99c0,3.61-2.93,6.54-6.54,6.54c-3.61,0-6.54-2.93-6.54-6.54s2.93-6.54,6.54-6.54
			C901.97,19.45,904.9,22.38,904.9,25.99z"/>
		<path fill="#B0ABC7" d="M927.15,25.99c0,3.61-2.93,6.54-6.54,6.54c-3.61,0-6.54-2.93-6.54-6.54s2.93-6.54,6.54-6.54
			C924.23,19.45,927.15,22.38,927.15,25.99z"/>
		<path fill="#8981AA" d="M949.41,25.99c0,3.61-2.93,6.54-6.54,6.54c-3.61,0-6.54-2.93-6.54-6.54s2.93-6.54,6.54-6.54
			C946.48,19.45,949.41,22.38,949.41,25.99z"/>
		<g>
			<path fill="#FFFFFF" d="M996.37,39.89h-26.92c-0.24,0-0.44-0.2-0.44-0.44V12.53c0-0.24,0.2-0.44,0.44-0.44h26.92
				c0.24,0,0.44,0.2,0.44,0.44v26.92C996.81,39.69,996.62,39.89,996.37,39.89z"/>
			<g>
				<path fill="#8981AA" d="M985.37,34.98c-0.21,0-0.42-0.08-0.58-0.24l-8.17-8.18c-0.32-0.32-0.32-0.84,0-1.16l8.17-8.18
					c0.32-0.32,0.84-0.32,1.16,0c0.32,0.32,0.32,0.84,0,1.16l-7.6,7.6l7.6,7.6c0.32,0.32,0.32,0.84,0,1.16
					C985.78,34.9,985.58,34.98,985.37,34.98z"/>
			</g>
		</g>
		<g>
			<path fill="#FFFFFF" d="M1028.41,39.89h-26.92c-0.24,0-0.44-0.2-0.44-0.44V12.53c0-0.24,0.2-0.44,0.44-0.44h26.92
				c0.24,0,0.44,0.2,0.44,0.44v26.92C1028.85,39.69,1028.65,39.89,1028.41,39.89z"/>
			<g>
				<path fill="#8981AA" d="M1012.5,34.98c-0.21,0-0.42-0.08-0.58-0.24c-0.32-0.32-0.32-0.84,0-1.16l7.6-7.6l-7.6-7.6
					c-0.32-0.32-0.32-0.84,0-1.16c0.32-0.32,0.84-0.32,1.16,0l8.17,8.18c0.32,0.32,0.32,0.84,0,1.16l-8.17,8.18
					C1012.92,34.9,1012.71,34.98,1012.5,34.98z"/>
			</g>
		</g>
		<g>
			<g>
				<path fill="#FFFFFF" d="M1038.83,39.45V12.53c0-0.24,0.2-0.44,0.44-0.44h222.07c0.24,0,0.44,0.2,0.44,0.44v26.92
					c0,0.24-0.2,0.44-0.44,0.44h-222.07C1039.02,39.89,1038.83,39.69,1038.83,39.45z"/>
			</g>
			<g>
				<g>
					<path fill="#8981AA" d="M1052.7,30.7c-1.68,0-3.36-0.64-4.64-1.92c-1.24-1.24-1.92-2.89-1.92-4.64c0-1.75,0.68-3.4,1.92-4.64
						c2.56-2.56,6.72-2.56,9.28,0c0,0,0,0,0,0c2.56,2.56,2.56,6.72,0,9.28C1056.06,30.06,1054.38,30.7,1052.7,30.7z M1052.7,19.22
						c-1.26,0-2.52,0.48-3.48,1.44c-0.93,0.93-1.44,2.17-1.44,3.48c0,1.32,0.51,2.55,1.44,3.48c1.92,1.92,5.05,1.92,6.97,0
						c1.92-1.92,1.92-5.04,0-6.96C1055.22,19.7,1053.96,19.22,1052.7,19.22z"/>
				</g>
				<g>
					<path fill="#8981AA" d="M1062.13,34.39c-0.21,0-0.42-0.08-0.58-0.24l-5.37-5.37c-0.32-0.32-0.32-0.84,0-1.16
						c0.32-0.32,0.84-0.32,1.16,0l5.37,5.37c0.32,0.32,0.32,0.84,0,1.16C1062.55,34.31,1062.34,34.39,1062.13,34.39z"/>
				</g>
			</g>
		</g>
	</g>
</g>
<g id="App">
	<g>
		<path fill="#3A2D72" d="M904,400c0,16.57,13.43,30,30,30h286c16.57,0,30-13.43,30-30V112c0-16.57-13.43-30-30-30H934
			c-16.57,0-30,13.43-30,30V400z"/>
	</g>
	<g>
		<path fill="#FFFFFF" d="M924,305c0,16.57,13.43,30,30,30h246c16.57,0,30-13.43,30-30V132c0-16.57-13.43-30-30-30H954
			c-16.57,0-30,13.43-30,30V305z"/>
	</g>
	<g>
		<path fill="#FFFFFF" d="M998.03,389.69l-1.19,3.71c-2.23-0.18-3.71-0.86-4.61-2.74c-1.37,2.09-3.49,2.84-5.76,2.84
			c-3.82,0-6.23-2.48-6.23-5.98c0-4.18,3.17-6.44,8.96-6.44h1.94v-0.83c0-2.27-0.9-2.95-3.24-2.95c-1.22,0-3.1,0.36-5,1.01
			l-1.3-3.74c2.41-0.9,5.04-1.4,7.2-1.4c5.54,0,7.92,2.34,7.92,6.77v7.42C996.74,388.82,997.13,389.36,998.03,389.69z
			 M991.16,387.63v-3.42h-1.4c-2.59,0-3.85,0.9-3.85,2.81c0,1.51,0.83,2.41,2.23,2.41C989.43,389.43,990.47,388.75,991.16,387.63z"
			/>
		<path fill="#FFFFFF" d="M1020.1,383.28c0,5.9-2.88,10.22-7.59,10.22c-1.87,0-3.46-0.65-4.64-2.02v8.78l-5.69,0.61v-27.1h5
			l0.29,2.12c1.58-1.98,3.63-2.74,5.4-2.74C1017.91,373.16,1020.1,377.09,1020.1,383.28z M1014.2,383.35c0-4.75-1.15-6.01-3.13-6.01
			c-1.22,0-2.38,0.83-3.2,2.23v8.06c0.79,1.15,1.73,1.69,2.92,1.69C1012.9,389.33,1014.2,387.63,1014.2,383.35z"/>
		<path fill="#FFFFFF" d="M1042.49,383.28c0,5.9-2.88,10.22-7.59,10.22c-1.87,0-3.46-0.65-4.64-2.02v8.78l-5.69,0.61v-27.1h5
			l0.29,2.12c1.58-1.98,3.63-2.74,5.4-2.74C1040.3,373.16,1042.49,377.09,1042.49,383.28z M1036.59,383.35
			c0-4.75-1.15-6.01-3.13-6.01c-1.22,0-2.38,0.83-3.2,2.23v8.06c0.79,1.15,1.73,1.69,2.92,1.69
			C1035.29,389.33,1036.59,387.63,1036.59,383.35z"/>
		<path fill="#FFFFFF" d="M1046.78,388.03v-21.85l5.69-0.61v22.25c0,0.79,0.29,1.19,0.97,1.19c0.4,0,0.68-0.07,0.94-0.18l1.12,4.03
			c-0.86,0.36-2.09,0.65-3.46,0.65C1048.72,393.5,1046.78,391.52,1046.78,388.03z"/>
		<path fill="#FFFFFF" d="M1064.74,366.94c0,1.84-1.4,3.24-3.38,3.24c-1.98,0-3.35-1.4-3.35-3.24c0-1.83,1.37-3.24,3.35-3.24
			C1063.34,363.7,1064.74,365.1,1064.74,366.94z M1064.24,392.89h-5.69v-19.11h5.69V392.89z"/>
		<path fill="#FFFFFF" d="M1084.43,375.5l-2.45,3.38c-1.22-0.94-2.34-1.37-3.64-1.37c-2.45,0-3.85,1.66-3.85,5.94
			c0,4.25,1.51,5.54,3.78,5.54c1.37,0,2.3-0.43,3.67-1.3l2.48,3.53c-1.76,1.4-3.82,2.27-6.44,2.27c-5.87,0-9.47-3.96-9.47-10.01
			c0-6.08,3.64-10.33,9.36-10.33C1080.54,373.16,1082.6,373.96,1084.43,375.5z"/>
		<path fill="#FFFFFF" d="M1104.23,389.69l-1.19,3.71c-2.23-0.18-3.71-0.86-4.61-2.74c-1.37,2.09-3.49,2.84-5.76,2.84
			c-3.82,0-6.23-2.48-6.23-5.98c0-4.18,3.17-6.44,8.96-6.44h1.94v-0.83c0-2.27-0.9-2.95-3.24-2.95c-1.22,0-3.1,0.36-5,1.01
			l-1.3-3.74c2.41-0.9,5.04-1.4,7.2-1.4c5.54,0,7.92,2.34,7.92,6.77v7.42C1102.94,388.82,1103.33,389.36,1104.23,389.69z
			 M1097.36,387.63v-3.42h-1.4c-2.59,0-3.85,0.9-3.85,2.81c0,1.51,0.83,2.41,2.23,2.41
			C1095.63,389.43,1096.67,388.75,1097.36,387.63z"/>
		<path fill="#FFFFFF" d="M1120.36,391.99c-1.44,1.01-3.46,1.51-5.18,1.51c-4.21-0.04-6.26-2.41-6.26-6.91v-8.86h-2.7v-3.96h2.7
			v-4.14l5.69-0.65v4.79h4.39l-0.61,3.96h-3.78v8.78c0,1.84,0.61,2.48,1.8,2.48c0.65,0,1.3-0.18,2.05-0.65L1120.36,391.99z"/>
		<path fill="#FFFFFF" d="M1129.36,366.94c0,1.84-1.4,3.24-3.38,3.24c-1.98,0-3.35-1.4-3.35-3.24c0-1.83,1.37-3.24,3.35-3.24
			C1127.96,363.7,1129.36,365.1,1129.36,366.94z M1128.86,392.89h-5.69v-19.11h5.69V392.89z"/>
		<path fill="#FFFFFF" d="M1151.86,383.35c0,6.12-3.53,10.15-9.36,10.15c-5.79,0-9.36-3.74-9.36-10.19c0-6.12,3.53-10.15,9.36-10.15
			S1151.86,376.91,1151.86,383.35z M1139.04,383.31c0,4.25,1.15,6.01,3.46,6.01s3.46-1.84,3.46-5.98c0-4.25-1.15-6.01-3.46-6.01
			S1139.04,379.17,1139.04,383.31z"/>
		<path fill="#FFFFFF" d="M1172.63,378.92v13.97h-5.69v-12.99c0-2.02-0.68-2.56-1.8-2.56c-1.26,0-2.3,0.9-3.31,2.48v13.07h-5.69
			v-19.11h4.97l0.4,2.27c1.62-1.87,3.46-2.88,5.83-2.88C1170.65,373.16,1172.63,375.29,1172.63,378.92z"/>
	</g>
</g>
<g id="Arrows">
	<g>
		<g>
			<path fill="none" stroke="#61578E" stroke-width="4" d="M1002,219c-113.29-41.64-233.14-18.58-375.9,8.34
				"/>
			<g>
				<polygon fill="#61578E" points="627.13,217.01 612,230 630.81,236.61 				"/>
			</g>
		</g>
	</g>
	<g>
		<g>
			<path fill="none" stroke="#61578E" stroke-width="4" d="M1012,257
				c-131.51,50.81-291.18,134.01-688.65,127.28"/>
			<g>
				<polygon fill="#61578E" points="326.35,374.17 309,384 326.18,394.12 				"/>
			</g>
		</g>
	</g>
	<g>
		<g>
			<path fill="none" stroke="#61578E" stroke-width="4" d="M1015,172C854.95,90,739.8,56.8,351.33,76.26"/>
			<g>
				<polygon fill="#61578E" points="353.79,66.24 337,77 354.71,86.17 				"/>
			</g>
		</g>
	</g>
	<g>
		<g>
			<path fill="none" stroke="#D07943" stroke-width="4" d="M261,77c-20.86,11.68-20.14,21.27-39.65,23.55"/>
			<g>
				<polygon fill="#D07943" points="223.79,90.24 207,101 224.71,110.16 				"/>
			</g>
		</g>
	</g>
	<g>
		<g>
			<path fill="none" stroke="#D07943" stroke-width="4" d="M536,235c-11.02,7.63-19.88,17.41-43.65,19.61"/>
			<g>
				<polygon fill="#D07943" points="494.87,244.37 478,255 495.64,264.3 				"/>
			</g>
		</g>
	</g>
	<g>
		<g>
			<path fill="none" stroke="#D07943" stroke-width="4" d="M236,375c-12.75,22.1-34.16,52.86-55.65,43.8"/>
			<g>
				<polygon fill="#D07943" points="188.86,411.83 169,410 177.34,428.11 				"/>
			</g>
		</g>
	</g>
</g>
<g id="Results">
	<circle fill="none" stroke="#61578E" stroke-width="8" cx="1076.5" cy="218.5" r="74.5"/>
	<g>
		<path fill="#61578E" d="M1054.06,222.35h-2.3v9.54h-5.9v-24.95h8.17c6.77,0,10.26,2.41,10.26,7.6c0,3.28-1.55,5.22-4.79,6.73
			l6.33,10.62h-6.66L1054.06,222.35z M1051.75,218.28h2.48c2.59,0,3.96-1.12,3.96-3.74c0-2.41-1.4-3.46-4.32-3.46h-2.12V218.28z"/>
		<path fill="#61578E" d="M1088.87,219.29c0,10.04-6.05,12.6-12.42,12.6h-7.49v-24.95h6.95
			C1082.57,206.94,1088.87,209,1088.87,219.29z M1074.87,211.23v16.38h1.94c3.56,0,5.94-1.69,5.94-8.32c0-6.7-2.56-8.06-6.01-8.06
			H1074.87z"/>
		<path fill="#61578E" d="M1107.55,211.16h-8.35v6.62h7.27v4.21h-7.27v9.9h-5.9v-24.95h14.87L1107.55,211.16z"/>
	</g>
</g>
<g id="API">
	<g>
		<path fill="#C45814" d="M257,123c0,16.57,13.43,30,30,30h20c16.57,0,30-13.43,30-30V30c0-16.57-13.43-30-30-30h-20
			c-16.57,0-30,13.43-30,30V123z"/>
	</g>
	<g>
		<path fill="#FFFFFF" d="M282.98,65.47h-1.01v5.91h-4.23v-15.9h5.07c4.37,0,6.44,1.74,6.44,4.85c0,2.04-0.76,3.36-2.52,4.34
			l3.5,6.72h-4.51L282.98,65.47z M281.98,62.73h1.15c1.18,0,1.9-0.67,1.9-2.27c0-1.43-0.7-2.1-2.16-2.1h-0.9V62.73z"/>
		<path fill="#FFFFFF" d="M304.43,63.32c0,6.41-3.42,8.06-7.48,8.06h-4.79v-15.9h4.56C300.77,55.48,304.43,56.79,304.43,63.32z
			 M296.4,58.45v9.94h0.84c1.71,0,2.88-0.7,2.88-5.07c0-4.23-1.2-4.87-2.91-4.87H296.4z"/>
		<path fill="#FFFFFF" d="M316.19,58.45h-4.56v3.84h3.89v3h-3.89v6.1h-4.23v-15.9h9.24L316.19,58.45z"/>
		<path fill="#FFFFFF" d="M287.51,92.11h-3.75l-0.62,3.28h-4.23l4.26-15.9h5.01l4.23,15.9h-4.26L287.51,92.11z M286.92,89.11
			l-1.32-6.72l-1.26,6.72H286.92z"/>
		<path fill="#FFFFFF" d="M305.71,84.74c0,3.72-2.38,5.49-6.08,5.49h-1.15v5.15h-4.23v-15.9h4.93
			C303.33,79.48,305.71,81.21,305.71,84.74z M301.51,84.74c0-1.68-0.84-2.32-2.18-2.32h-0.84v4.81h0.87
			C300.67,87.23,301.51,86.62,301.51,84.74z"/>
		<path fill="#FFFFFF" d="M312.45,95.38h-4.23v-15.9h4.23V95.38z"/>
	</g>
	<g>
		<path fill="#C45814" d="M532,276c0,16.57,13.43,30,30,30h20c16.57,0,30-13.43,30-30v-93c0-16.57-13.43-30-30-30h-20
			c-16.57,0-30,13.43-30,30V276z"/>
	</g>
	<g>
		<path fill="#FFFFFF" d="M557.98,218.47h-1.01v5.91h-4.23v-15.9h5.07c4.37,0,6.44,1.74,6.44,4.85c0,2.04-0.76,3.36-2.52,4.34
			l3.5,6.72h-4.51L557.98,218.47z M556.98,215.73h1.15c1.18,0,1.9-0.67,1.9-2.27c0-1.43-0.7-2.1-2.16-2.1h-0.9V215.73z"/>
		<path fill="#FFFFFF" d="M579.43,216.32c0,6.41-3.42,8.06-7.48,8.06h-4.79v-15.9h4.56C575.77,208.48,579.43,209.79,579.43,216.32z
			 M571.4,211.45v9.94h0.84c1.71,0,2.88-0.7,2.88-5.07c0-4.23-1.2-4.87-2.91-4.87H571.4z"/>
		<path fill="#FFFFFF" d="M591.19,211.45h-4.56v3.84h3.89v3h-3.89v6.1h-4.23v-15.9h9.24L591.19,211.45z"/>
		<path fill="#FFFFFF" d="M562.51,245.11h-3.75l-0.62,3.28h-4.23l4.26-15.9h5.01l4.23,15.9h-4.26L562.51,245.11z M561.92,242.11
			l-1.32-6.72l-1.26,6.72H561.92z"/>
		<path fill="#FFFFFF" d="M580.71,237.74c0,3.72-2.38,5.49-6.08,5.49h-1.15v5.15h-4.23v-15.9h4.93
			C578.33,232.48,580.71,234.21,580.71,237.74z M576.51,237.74c0-1.68-0.84-2.32-2.18-2.32h-0.84v4.81h0.87
			C575.67,240.23,576.51,239.62,576.51,237.74z"/>
		<path fill="#FFFFFF" d="M587.45,248.38h-4.23v-15.9h4.23V248.38z"/>
	</g>
	<g>
		<path fill="#C45814" d="M229,429c0,16.57,13.43,30,30,30h20c16.57,0,30-13.43,30-30v-93c0-16.57-13.43-30-30-30h-20
			c-16.57,0-30,13.43-30,30V429z"/>
	</g>
	<g>
		<path fill="#FFFFFF" d="M254.98,371.47h-1.01v5.91h-4.23v-15.9h5.07c4.37,0,6.44,1.74,6.44,4.85c0,2.04-0.76,3.36-2.52,4.34
			l3.5,6.72h-4.51L254.98,371.47z M253.98,368.73h1.15c1.18,0,1.9-0.67,1.9-2.27c0-1.43-0.7-2.1-2.16-2.1h-0.9V368.73z"/>
		<path fill="#FFFFFF" d="M276.43,369.32c0,6.41-3.42,8.06-7.48,8.06h-4.79v-15.9h4.56C272.77,361.48,276.43,362.79,276.43,369.32z
			 M268.4,364.45v9.94h0.84c1.71,0,2.88-0.7,2.88-5.07c0-4.23-1.2-4.87-2.91-4.87H268.4z"/>
		<path fill="#FFFFFF" d="M288.19,364.45h-4.56v3.84h3.89v3h-3.89v6.1h-4.23v-15.9h9.24L288.19,364.45z"/>
		<path fill="#FFFFFF" d="M259.51,398.11h-3.75l-0.62,3.28h-4.23l4.26-15.9h5.01l4.23,15.9h-4.26L259.51,398.11z M258.92,395.11
			l-1.32-6.72l-1.26,6.72H258.92z"/>
		<path fill="#FFFFFF" d="M277.71,390.74c0,3.72-2.38,5.49-6.08,5.49h-1.15v5.15h-4.23v-15.9h4.93
			C275.33,385.48,277.71,387.21,277.71,390.74z M273.51,390.74c0-1.68-0.84-2.32-2.18-2.32h-0.84v4.81h0.87
			C272.67,393.23,273.51,392.62,273.51,390.74z"/>
		<path fill="#FFFFFF" d="M284.45,401.38h-4.23v-15.9h4.23V401.38z"/>
	</g>
</g>
</svg>
