<?xml version="1.0" encoding="utf-8"?>
<svg version="1.1" xmlns="http://www.w3.org/2000/svg" xmlns:xlink="http://www.w3.org/1999/xlink" x="0px" y="0px" width="1280px"
	 height="460px" viewBox="0 0 1280 460" enable-background="new 0 0 1280 460" xml:space="preserve">
<g id="Pods">
	<polygon fill="#F6E6DC" points="195.75,0.19 107.25,0.19 63,76.83 107.25,153.47 195.75,153.47 240,76.83 	"/>
	<polygon fill="#F6E6DC" points="83.84,182.19 27.95,182.19 0,230.59 27.95,279 83.84,279 111.79,230.59 	"/>
	<polygon fill="#F6E6DC" points="221.95,204.19 186.26,204.19 168.41,235.09 186.26,266 221.95,266 239.79,235.09 	"/>
	<polygon fill="#F6E6DC" points="172.75,306.19 84.25,306.19 40,382.83 84.25,459.47 172.75,459.47 217,382.83 	"/>
	<polygon fill="#F6E6DC" points="461.02,135 351.05,135 296.06,230.24 351.05,325.47 461.02,325.47 516,230.24 	"/>
</g>
<g id="Knowledge">
	<g>
		<g>
			<path fill="#F8F8F8" d="M72.33,346.97c11.28,10.11,24.96,17.47,38.7,23.63c18.36,8.22,37.66,14.34,57.28,18.72
				c44.34,9.9,91.9,11.51,135.84-1.2c37.79-10.93,76.31-33.62,92.73-70.91c14.43-32.78,14.01-70.62,8.49-105.37
				c-6.37-40.08-20.23-79.21-39.36-114.95c-16.15-30.17-36.87-60.5-65.04-80.66C285.29,5.01,261.43-6.25,243.11,5.51
				c-16.24,10.43-24.77,31.02-30.91,48.44c-9.76,27.7-14.91,57.01-18.6,86.06c-4.37,34.36-6.31,69.03-6.49,103.66
				c-0.18,33.85,1.28,67.79,5.24,101.42c3.08,26.16,7.26,52.83,16.3,77.68c4.68,12.86,12.21,31.74,27.08,35.68
				c8.08,2.14,17.4-1.06,24.79-4.17c12.19-5.13,23.28-12.7,33.7-20.77c28.79-22.29,53.68-49.75,76.21-78.22
				c24.79-31.33,47.15-64.96,64.89-100.81c13.91-28.12,27.07-59.81,27.05-91.72c-0.01-11.54-2.11-23.41-8.23-33.36
				c-5.82-9.46-14.7-16.72-24.05-22.49c-26.36-16.26-58.22-23.57-88.41-28.67c-38.22-6.45-77.18-8.73-115.91-8.36
				c-36.78,0.35-73.79,3.01-109.98,9.76c-14.61,2.72-29.16,6.12-43.2,11.04c-10.25,3.59-20.63,7.96-29.3,14.62
				c-5.06,3.89-10.2,8.84-10.88,15.52c-0.61,6.02,1.97,11.99,4.96,17.05c10.45,17.72,28.02,31.55,44.1,43.85
				c24.27,18.57,50.37,34.76,76.96,49.77c30.41,17.16,61.74,32.72,93.78,46.59c30.23,13.09,61.16,24.85,92.91,33.7
				c24.43,6.81,50.24,12.68,75.77,11.85c15.69-0.51,34.44-4.07,43.17-18.7c11.6-19.45,3.61-46.21-4.93-65.11
				c-14.02-31.04-36.46-58.27-59.75-82.78c-27.09-28.52-57.22-54.24-89.13-77.22c-28.75-20.7-59.34-39.75-92.19-53.26
				c-12.43-5.11-25.37-9.51-38.71-11.52c-9.42-1.42-19.6-1.83-28.68,1.58c-13.83,5.2-14.61,20.14-12.22,32.78
				c4.21,22.22,15.74,43.3,26.91,62.67c15.96,27.68,34.38,53.94,53.73,79.33c20.87,27.4,43.02,53.84,66.37,79.16
				c21.09,22.87,43.15,45.03,67.06,64.97c15.92,13.27,33.57,27.65,53.52,34.31c9.26,3.09,24.87,3.99,27.61-8.56
				c2.53-11.61-13.99-20.28-22.03-24.56c-20.3-10.79-42.76-17.76-64.78-24.05c-29.75-8.49-60.03-15.15-90.45-20.7
				c-31.65-5.77-63.57-10.31-95.62-13.2c-27.7-2.49-55.73-4.01-83.51-2.09c-16.68,1.15-37.17,2.63-51.22,12.82
				c-11.44,8.29-10.23,21.36-2.52,32c12.54,17.31,36.11,23.97,56.06,27.65c31.15,5.74,63.41,5.31,94.88,3
				c36.93-2.71,73.67-8.54,109.79-16.68c35.01-7.89,69.72-17.92,103.01-31.42c24.9-10.1,50.59-22.01,70.84-40.05
				c11.86-10.57,24.03-26.48,18.42-43.3c-5.71-17.12-24.42-27.91-39.56-35.47c-25.58-12.78-53.55-20.82-81.27-27.42
				c-33.9-8.07-68.41-13.61-103.03-17.5c-34.76-3.91-69.77-6.12-104.76-6.02c-28.76,0.08-57.94,1.41-86.19,7.13
				c-16,3.24-37.13,7.92-47.67,21.73c-11.19,14.66-0.13,37.65,7.01,51.6c15.19,29.65,37.05,56.06,59.32,80.61
				c27.04,29.81,56.55,57.49,87.91,82.71c27.29,21.95,56.3,42.95,88.08,57.95c11.5,5.43,23.63,10.27,36.26,12.3
				c8.46,1.36,18.2,1.74,26.02-2.38c15.04-7.92,18.72-29.73,20.68-44.79c3.75-28.83,1.77-58.46-1.3-87.26
				c-3.79-35.6-10.11-70.93-18.08-105.82c-7.98-34.96-17.64-69.62-29.77-103.38c-9.44-26.28-20.11-52.99-35.62-76.36
				c-7.78-11.72-20.23-28.97-36.35-27.72C210.1,1.28,202.9,5.93,196.88,11c-8.79,7.4-16.02,16.62-22.58,25.99
				c-18.45,26.36-32.34,55.97-44.72,85.57c-14.72,35.2-27.01,71.47-37,108.29c-8.92,32.87-16.33,66.5-19.31,100.48
				c-1.14,13.01-1.65,26.2-0.31,39.21c0.94,9.1,2.66,18.68,7.38,26.67c8.01,13.53,22.64,12.86,36.1,8.66
				c22.76-7.11,43.52-21.25,62.67-35.07c26.68-19.26,51.7-40.84,75.61-63.42c26.22-24.75,51.17-50.9,74.46-78.44
				c20.63-24.4,40.29-49.95,56.6-77.48c11.26-19.01,22.98-40.75,24.53-63.24c0.52-7.5-0.43-15.39-4.37-21.93
				c-4.33-7.19-11.88-11.82-19.56-14.74c-23.73-9.01-52-4.87-76.15-0.05c-35.26,7.04-69.49,19.26-102.49,33.36
				c-35.53,15.19-70.03,33.05-102.72,53.67c-27.41,17.29-54.57,36.58-76.71,60.44c-12.61,13.59-28.7,33.29-25.4,53.35
				c2.62,15.95,19.9,20.31,33.72,21.07c24.56,1.34,49.73-4.84,73.16-11.51c30.67-8.73,60.57-20.29,89.58-33.5
				c28.02-12.76,55.52-27.14,81.13-44.28c17.4-11.65,37.07-25.28,47.91-43.74c7.07-12.04,5.92-25.95-7.59-32.75
				c-7.72-3.89-17.51-1.8-25.36,0.52c-13.09,3.87-25.45,10.28-37.21,17.1c-31.12,18.06-59.83,40.81-85.96,65.48
				c-22.93,21.65-47.13,46.41-60.21,75.59c-4.01,8.93-7.36,19.39-4.96,29.22c2.14,8.74,9.14,14.57,17.1,18.04
				c11.25,4.9,24.02,6.11,36.16,6.39c16.35,0.38,32.72-1.29,48.85-3.84c36.69-5.79,73.01-16.31,107.02-31.26
				c14.94-6.57,29.62-14.1,43-23.5c10.04-7.05,19.99-15.37,26.34-26.04c12.44-20.91-0.97-40.96-17.52-54.66
				c-25.77-21.33-59.01-34.06-90.9-42.9c-34.71-9.62-72.2-15.39-108.19-10.85c-26.59,3.35-54.79,13.83-64.61,41.03
				c-12.38,34.29,4.31,72.79,22.33,101.77c20.58,33.1,48.25,63.32,80.18,85.78c11.19,7.87,23.78,15.73,37.35,18.62
				c8.16,1.74,15.01,0.74,21.11-5.14c7.14-6.87,11.66-16.43,15.4-25.45c5.44-13.1,9.28-26.86,12.39-40.69
				c7.54-33.6,10.96-68.42,10.23-102.84c-0.63-29.43-3.58-61.78-17.86-88.13c-5.23-9.64-12.55-18.65-22.5-23.67
				c-13.86-6.99-31.57-5.6-46.17-2.05c-41.83,10.16-75.2,44.77-97.13,80.24c-10.64,17.21-19.4,35.98-24.3,55.66
				c-3.1,12.45-6.5,29.12-1.06,41.42c4.07,9.2,12.94,15.59,21.46,20.33c12.43,6.92,26.2,11.41,39.9,15.01
				c34.49,9.06,70.59,12.72,106.17,13.52c30.44,0.68,63.06,0.24,92.4-8.89c10.59-3.29,32.79-13.03,21.46-27.13
				c-5.03-6.26-12.83-10.39-19.83-14c-10.96-5.66-22.45-10.3-33.93-14.77c-29.35-11.43-59.22-21.46-88.58-32.87
				c-26.92-10.46-54.99-21.51-78.47-38.67c-14.49-10.59-29.48-27.15-18.68-45.62c5-8.54,13.11-15.74,22.97-17.79
				c9.95-2.07,20.23,1.15,29.04,5.66c25.51,13.04,45.7,36.73,62.88,59.05c20.46,26.57,38.19,55.44,53,85.52
				c6.38,12.95,12.25,26.2,16.94,39.87c3.33,9.71,6.5,19.97,6.98,30.29c0.24,5.16,0.03,12.41-5.6,14.67
				c-7.23,2.9-14.21-3.05-18.56-8.19c-7.52-8.88-12.19-20.23-15.59-31.23c-4.4-14.23-6.65-29.12-6.91-44
				c-0.58-32.84,9.19-66.65,33.39-89.87c6.63-6.35,14.13-11.73,22.19-16.11c9.05-4.92,18.56-7.59,28.14-11.11
				c13.5-4.96,22.76-17.26,27.98-30.22c12.33-30.6,4.88-70.15-25.11-87.47c-9.17-5.3-20.31-9.81-30.89-6.56
				c-8.08,2.48-15.18,7.72-21.5,13.17C295.62,53.21,280,75.67,265.7,97.54c-19.34,29.56-36.36,60.64-52.06,92.26
				c-16.18,32.6-30.95,65.95-43.93,99.96c-10.94,28.69-21.01,58.04-27.27,88.15c-2.21,10.62-4.01,21.47-4.24,32.34
				c-0.15,7.08,0.18,14.87,3.38,21.34c1.93,3.91,5.75,8.16,10.5,8.08c4.52-0.07,7.59-4.19,9.55-7.78
				c3.55-6.48,5.39-13.95,6.95-21.12c2.27-10.48,3.68-21.15,4.78-31.81c3-28.9,3.64-58.07,3.33-87.11
				c-0.34-32.61-2.06-65.24-5.4-97.68c-2.96-28.77-6.98-57.68-14.3-85.7c-4.48-17.17-10.04-38.48-23.43-51.15
				c-10.19-9.65-24.3-6.88-32.27,4.32c-11.8,16.58-6.68,41.91-2.28,60.05c7.55,31.12,20.72,60.94,35.06,89.46
				c16.35,32.52,35.1,63.91,55.95,93.74c17.25,24.68,35.94,49.2,58.29,69.54c10.79,9.82,28.48,25.85,44.63,20.45
				c16.18-5.41-2.42-19.38-9.05-23.98c-23.28-16.14-49.35-28.55-74.42-41.58c-31.14-16.18-62.44-32.2-92.52-50.3
				c-13.11-7.89-26.08-16.16-38.15-25.58c-8.66-6.77-17.63-14.31-23.51-23.74c-3.51-5.63-5.93-12.38-2.25-18.51
				c3.88-6.47,11.6-10.31,18.29-13.13c24.11-10.16,51.82-12.68,77.66-14.19c34.1-1.99,68.49-0.73,102.39,3.43
				c31.88,3.91,64.26,10.21,93.99,22.71c20.2,8.49,44.29,21.77,51.12,44.27c7.1,23.39-5.41,48.15-22.71,63.46
				c-19.08,16.88-45.22,26.4-70.6,26.84c-23.84,0.41-48.53-8.31-60.94-29.87c-7.28-12.65-9.36-27.56-8.75-41.97
				c0.41-9.62,1.99-19.15,4.27-28.49c2.45-10.1,5.38-20.39,10.4-29.54c7.41-13.49,19.36-21.41,34.9-21.38
				c17.88,0.04,35.64,7.25,51.94,13.88c42.56,17.31,83.69,37.5,127.67,51.24c1.85,0.58,2.64-2.32,0.8-2.89
				c-27.53-8.61-54.27-19.39-80.7-30.92c-20.53-8.95-40.87-18.57-61.99-26.09c-14.34-5.11-30.33-10.04-45.72-7.62
				c-13.59,2.14-23.62,11.21-29.93,23.09c-8.65,16.28-12.96,36.16-14.38,54.44c-1.09,14.06,0.15,28.61,5.84,41.65
				c9.39,21.54,30.05,33.83,52.8,36.73c23.97,3.05,49.22-3.02,70-15.1c20.01-11.63,37.25-30.37,41.07-53.87
				c1.67-10.27,1.04-20.92-3.4-30.43c-4.27-9.13-11.44-16.61-19.35-22.7c-21.49-16.56-48.92-25.18-74.97-31.39
				c-32.32-7.71-65.62-11.53-98.79-12.86c-30.74-1.24-61.83-0.45-92.28,4.22c-11.79,1.81-23.59,4.2-34.89,8.1
				c-7.79,2.69-15.9,6.1-22.04,11.76c-12.66,11.66-3.69,26.54,6.05,36.83c19.03,20.14,44.57,34.6,68.37,48.26
				c29.78,17.1,60.44,32.64,90.87,48.53c22.56,11.78,46.63,23.02,66.91,38.59c2.8,2.15,10.76,7.62,9.64,11.94
				c-1.14,4.41-9.85,4.48-13.25,3.89c-8.22-1.42-15.76-6.51-22.28-11.44c-9.8-7.41-18.58-16.18-26.88-25.21
				c-21.89-23.82-40.83-50.39-58.25-77.6c-19.02-29.72-36.26-60.72-50.77-92.9c-11.92-26.42-23.17-54.61-26.81-83.57
				c-1.96-15.63-2.29-38.82,14.95-46.35c13.23-5.78,22.77,7.73,28.07,17.96c10.5,20.3,15.31,43.78,19.38,66.08
				c5.47,30.01,8.62,60.45,10.63,90.87c2.07,31.34,2.88,62.8,2.18,94.2c-0.56,25.36-1.8,50.96-6.05,76
				c-1.4,8.26-3.08,16.63-6.07,24.48c-1.42,3.73-3.64,9.56-7.69,11.18c-3.64,1.45-7.23-2.09-8.98-5.16c-3.43-6-3.66-13.7-3.55-20.42
				c0.39-24.07,7.4-48.27,14.41-71.11c9.9-32.28,22.22-63.83,35.69-94.77c14.32-32.88,30.08-65.18,47.47-96.55
				c15.33-27.67,31.84-54.99,51.27-80.01c7.36-9.48,15.2-18.7,24-26.89c6.34-5.9,13.44-11.73,21.61-14.9
				c10.15-3.94,20.14-0.33,29.42,4.72c15.65,8.5,25.81,23.69,29.29,40.99c3.26,16.19,1.06,33.89-6.37,48.66
				c-3.31,6.59-7.74,12.72-13.49,17.4c-6.63,5.38-14.38,6.95-22.23,9.8c-32.19,11.69-56.58,36.29-67.22,68.9
				c-9.15,28.03-8.72,59.36-0.94,87.66c3.08,11.21,7.39,22.49,14,32.13c4.21,6.14,10.07,12.91,17.79,14.32
				c16.93,3.11,15.87-17.49,13.85-28.16c-4.78-25.28-16.6-49.65-28.44-72.26c-15.11-28.87-32.77-56.62-53.2-82.03
				c-16.57-20.61-36.03-42.4-60.32-53.98c-8.49-4.05-17.99-6.75-27.45-5.34c-9.45,1.41-17.36,7.03-23.19,14.42
				c-5.22,6.62-8.73,14.66-7.61,23.23c1.11,8.44,6.23,15.71,12.07,21.63c17.7,17.97,42.82,28.85,65.62,38.62
				c28.79,12.33,58.39,22.63,87.79,33.38c22.92,8.38,47.37,16.19,68.17,29.24c4.57,2.87,11.78,7.27,12.67,13.22
				c0.95,6.33-6.94,10.91-11.61,13.25c-10.42,5.21-22.39,7.52-33.81,9.31c-15.77,2.46-31.77,3.44-47.72,3.73
				c-35.53,0.65-71.45-2.02-106.33-8.91c-15.15-2.99-30.27-6.81-44.65-12.5c-10.63-4.21-21.8-9.59-29.63-18.17
				c-8.2-9-7.96-20.89-6.58-32.39c2.32-19.36,9.65-38.13,18.64-55.3c19.61-37.43,50.98-74.21,91.52-89.38
				c15.75-5.89,35.9-9.57,52.18-3.51c10.42,3.88,18.18,12.4,23.69,21.8c14.92,25.46,17.93,57.71,18.73,86.58
				c0.94,33.79-2.22,67.94-9.31,100.99c-2.98,13.88-6.67,27.7-11.85,40.93c-3.65,9.33-8.08,19.3-15.17,26.58
				c-6.15,6.33-12.99,6.78-21.32,4.56c-13.62-3.62-26.11-11.75-37.37-19.98c-31.71-23.17-59.35-53.97-79.22-87.82
				c-16.89-28.76-32.75-68.72-15.81-101.01c13.42-25.56,46.71-31.92,72.9-33.16c36.33-1.72,73.28,5.17,107.75,16.32
				c29.46,9.53,61.82,22.78,83.58,45.69c7.03,7.4,13.48,16.93,13.36,27.54c-0.12,10.46-6.76,19.69-13.78,26.88
				c-21.9,22.43-53.57,35.86-82.5,46.41c-33.72,12.3-69.3,21.22-105.1,24.43c-14.49,1.3-29.35,1.78-43.78-0.47
				c-9.72-1.51-20.78-4.26-27.77-11.71c-15.52-16.57,3.3-44.87,13.26-59.08c19.93-28.45,45.81-53.02,72.49-75.06
				c25.19-20.82,52.7-41.08,82.92-54c13.27-5.68,37.36-14.19,45.33,4.04c6.01,13.74-9.75,29.17-18.55,37.46
				c-19.03,17.91-41.88,31.89-64.62,44.54c-27.63,15.37-56.44,28.69-85.93,40.1c-27.2,10.52-55.21,19.73-83.92,25.13
				c-11.23,2.11-22.66,3.65-34.1,3.61c-8.19-0.03-16.96-0.73-24.46-4.32c-15.51-7.42-13.03-25.14-6.48-38.23
				c11.76-23.49,33.67-42,54.02-57.84c28.49-22.18,59.67-40.98,91.64-57.67c33.32-17.39,67.94-32.56,103.65-44.35
				c29.39-9.71,60.45-18.06,91.6-18.51c17.33-0.25,42.75,1.87,52.17,19.19c8.45,15.54,0.97,36.41-5.34,51.29
				c-10.92,25.74-26.94,49.37-43.59,71.69c-20.47,27.44-43.04,53.32-66.71,78.04c-23.82,24.87-48.86,48.62-75.28,70.71
				c-21.89,18.31-44.81,35.95-69.76,49.93c-8.87,4.97-18.09,9.57-27.83,12.58c-6.56,2.03-14.01,3.72-20.84,2.05
				c-16.24-3.96-18.4-27.85-19.13-41.24c-1.6-29.38,3.41-59.21,9.36-87.87c7.46-35.93,17.69-71.32,29.81-105.94
				c11.68-33.37,25.12-66.32,41.76-97.55c11.5-21.57,24.83-45.53,44.46-60.85c5.69-4.44,12.9-8.64,20.4-7.99
				c6.84,0.6,12.79,5.19,17.53,9.82c16.43,16.07,26.74,38.84,35.73,59.61c13.05,30.18,23.15,61.66,31.85,93.34
				c9.51,34.65,17.22,69.83,22.94,105.31c5.12,31.75,8.87,63.95,8.89,96.15c0.01,20.81-0.28,45.27-10.48,64.08
				c-3.29,6.07-7.94,11.1-14.73,13.02c-9.58,2.7-20.06,0.89-29.46-1.7c-29.27-8.07-56.17-25.52-80.74-42.83
				c-31.87-22.45-61.63-47.98-89.48-75.23c-26.16-25.6-51.16-52.94-72.05-83.07C33.23,230.63,25.75,218.6,20,205.78
				c-4.15-9.26-7.87-19.61-7.5-29.91c0.55-15.29,18.16-22.5,30.5-26.53c23.84-7.8,49.57-10.03,74.48-11.27
				c32.84-1.63,65.81-0.64,98.57,1.82c34.91,2.63,69.71,7.02,104.12,13.48c30.13,5.66,60.23,12.77,89.05,23.33
				c19.8,7.26,41.95,16.28,56.5,32.2c4.75,5.19,8.63,11.6,9.09,18.78c0.51,7.87-2.82,15.34-7.3,21.63
				c-13.51,18.98-36.48,31.22-56.93,41.14c-30.01,14.56-61.94,25.19-94.08,33.91c-35.61,9.67-71.95,16.9-108.57,21.45
				c-32.96,4.1-66.47,6.27-99.66,3.88c-23.72-1.71-50.35-5.2-70.55-18.81c-9.59-6.46-23.38-21.57-15.11-33.88
				c8.11-12.06,28.31-14.44,41.33-16.07c25.19-3.14,50.91-2.38,76.18-0.76c31.04,1.99,61.97,5.8,92.67,10.77
				c30.64,4.95,61.13,11.07,91.22,18.7c24.43,6.2,48.94,13.17,72.16,23.08c7.88,3.37,15.73,7.09,22.86,11.88
				c4.23,2.85,9.28,6.52,11.2,11.47c1.52,3.91-0.22,7.72-3.41,10.22c-4.25,3.33-10.09,3.1-15.09,2.01
				c-18.56-4.06-35.54-17.59-50.04-29.14c-22.98-18.3-44.09-38.95-64.3-60.23c-23.21-24.44-45.22-50.05-66.05-76.55
				c-19.77-25.15-38.59-51.16-55.39-78.4c-12.7-20.61-25.24-42.38-32.22-65.71c-3.29-10.97-7.76-29.55,4.25-37.11
				c7.16-4.51,16.97-4.59,25.09-3.9c12.51,1.06,24.77,4.77,36.48,9.14c31.87,11.9,61.58,29.84,89.46,49.13
				c31.87,22.05,61.91,46.94,89.27,74.4c24.28,24.38,47.44,51.2,63.54,81.81c10.32,19.61,21.08,47.16,11,69.03
				c-6.98,15.12-25.17,19.05-40.26,19.77c-24.86,1.18-50.03-4.41-73.87-10.9c-31.1-8.46-61.41-19.79-91.02-32.45
				c-31.14-13.32-61.61-28.24-91.23-44.65c-26.61-14.74-52.72-30.65-77.22-48.71c-16.95-12.49-34.99-26.34-47.02-43.92
				c-3.41-4.99-6.84-10.92-6.91-17.15c-0.07-6.35,4.52-10.95,9.21-14.67c8.44-6.69,18.78-11.01,28.86-14.54
				c13.61-4.77,27.71-8.11,41.86-10.79c35.46-6.73,71.73-9.4,107.79-9.87c38.19-0.5,76.62,1.56,114.36,7.65
				c30.26,4.88,62.03,11.88,88.77,27.49c9.52,5.56,18.73,12.56,24.8,21.92c6.36,9.81,8.45,21.62,8.41,33.15
				c-0.09,31.92-13.53,63.68-27.57,91.72c-17.56,35.07-39.49,68.05-63.83,98.76c-22.09,27.87-46.45,54.74-74.52,76.74
				c-10.38,8.13-21.51,15.83-33.68,21.03c-7.06,3.01-16.41,6.44-24.11,3.93c-14.42-4.7-21.31-24.81-25.58-37.57
				c-8.49-25.33-12.53-52.2-15.39-78.67c-3.57-32.95-4.85-66.15-4.53-99.29c0.32-33.63,2.29-67.3,6.58-100.66
				c3.66-28.48,8.81-57.21,18.38-84.36c5.96-16.92,14.43-37.84,30.75-47.4c19.21-11.25,44.28,3.66,59.24,15.73
				c27.48,22.17,47.57,53.37,63.18,84.65c17.81,35.7,30.61,74.6,35.56,114.25c4.28,34.26,3.16,72.07-14.1,102.91
				c-20.64,36.85-64.87,56.95-104.66,64.74c-44.16,8.65-90.77,4.46-133.85-7.75c-26.72-7.57-55.74-18.2-76.76-37.05
				C73.01,343.57,70.88,345.68,72.33,346.97L72.33,346.97z"/>
		</g>
	</g>
	<g>
		<defs>
			<path id="SVGID_3_" d="M240,76.83l-44.25,76.64h-88.5L63,76.83l44.25-76.64h88.5L240,76.83z M83.84,182.19h-55.9L0,230.59
				L27.95,279h55.9l27.95-48.41L83.84,182.19z M221.95,206.19h-35.69l-17.84,30.91L186.26,268h35.69l17.84-30.91L221.95,206.19z
				 M172.75,306.19h-88.5L40,382.83l44.25,76.64h88.5L217,382.83L172.75,306.19z M461.02,135H351.05l-54.98,95.24l54.98,95.24
				h109.97L516,230.24L461.02,135z"/>
		</defs>
		<clipPath id="SVGID_2_">
			<use xlink:href="#SVGID_3_"  overflow="visible"/>
		</clipPath>
		<g clip-path="url(#SVGID_2_)">
			<g>
				<path fill="#ABABAB" d="M72.33,346.97c11.28,10.11,24.96,17.47,38.7,23.63c18.36,8.22,37.66,14.34,57.28,18.72
					c44.34,9.9,91.9,11.51,135.84-1.2c37.79-10.93,76.31-33.62,92.73-70.91c14.43-32.78,14.01-70.62,8.49-105.37
					c-6.37-40.08-20.23-79.21-39.36-114.95c-16.15-30.17-36.87-60.5-65.04-80.66C285.29,5.01,261.43-6.25,243.11,5.51
					c-16.24,10.43-24.77,31.02-30.91,48.44c-9.76,27.7-14.91,57.01-18.6,86.06c-4.37,34.36-6.31,69.03-6.49,103.66
					c-0.18,33.85,1.28,67.79,5.24,101.42c3.08,26.16,7.26,52.83,16.3,77.68c4.68,12.86,12.21,31.74,27.08,35.68
					c8.08,2.14,17.4-1.06,24.79-4.17c12.19-5.13,23.28-12.7,33.7-20.77c28.79-22.29,53.68-49.75,76.21-78.22
					c24.79-31.33,47.15-64.96,64.89-100.81c13.91-28.12,27.07-59.81,27.05-91.72c-0.01-11.54-2.11-23.41-8.23-33.36
					c-5.82-9.46-14.7-16.72-24.05-22.49c-26.36-16.26-58.22-23.57-88.41-28.67c-38.22-6.45-77.18-8.73-115.91-8.36
					c-36.78,0.35-73.79,3.01-109.98,9.76c-14.61,2.72-29.16,6.12-43.2,11.04c-10.25,3.59-20.63,7.96-29.3,14.62
					c-5.06,3.89-10.2,8.84-10.88,15.52c-0.61,6.02,1.97,11.99,4.96,17.05c10.45,17.72,28.02,31.55,44.1,43.85
					c24.27,18.57,50.37,34.76,76.96,49.77c30.41,17.16,61.74,32.72,93.78,46.59c30.23,13.09,61.16,24.85,92.91,33.7
					c24.43,6.81,50.24,12.68,75.77,11.85c15.69-0.51,34.44-4.07,43.17-18.7c11.6-19.45,3.61-46.21-4.93-65.11
					c-14.02-31.04-36.46-58.27-59.75-82.78c-27.09-28.52-57.22-54.24-89.13-77.22c-28.75-20.7-59.34-39.75-92.19-53.26
					c-12.43-5.11-25.37-9.51-38.71-11.52c-9.42-1.42-19.6-1.83-28.68,1.58c-13.83,5.2-14.61,20.14-12.22,32.78
					c4.21,22.22,15.74,43.3,26.91,62.67c15.96,27.68,34.38,53.94,53.73,79.33c20.87,27.4,43.02,53.84,66.37,79.16
					c21.09,22.87,43.15,45.03,67.06,64.97c15.92,13.27,33.57,27.65,53.52,34.31c9.26,3.09,24.87,3.99,27.61-8.56
					c2.53-11.61-13.99-20.28-22.03-24.56c-20.3-10.79-42.76-17.76-64.78-24.05c-29.75-8.49-60.03-15.15-90.45-20.7
					c-31.65-5.77-63.57-10.31-95.62-13.2c-27.7-2.49-55.73-4.01-83.51-2.09c-16.68,1.15-37.17,2.63-51.22,12.82
					c-11.44,8.29-10.23,21.36-2.52,32c12.54,17.31,36.11,23.97,56.06,27.65c31.15,5.74,63.41,5.31,94.88,3
					c36.93-2.71,73.67-8.54,109.79-16.68c35.01-7.89,69.72-17.92,103.01-31.42c24.9-10.1,50.59-22.01,70.84-40.05
					c11.86-10.57,24.03-26.48,18.42-43.3c-5.71-17.12-24.42-27.91-39.56-35.47c-25.58-12.78-53.55-20.82-81.27-27.42
					c-33.9-8.07-68.41-13.61-103.03-17.5c-34.76-3.91-69.77-6.12-104.76-6.02c-28.76,0.08-57.94,1.41-86.19,7.13
					c-16,3.24-37.13,7.92-47.67,21.73c-11.19,14.66-0.13,37.65,7.01,51.6c15.19,29.65,37.05,56.06,59.32,80.61
					c27.04,29.81,56.55,57.49,87.91,82.71c27.29,21.95,56.3,42.95,88.08,57.95c11.5,5.43,23.63,10.27,36.26,12.3
					c8.46,1.36,18.2,1.74,26.02-2.38c15.04-7.92,18.72-29.73,20.68-44.79c3.75-28.83,1.77-58.46-1.3-87.26
					c-3.79-35.6-10.11-70.93-18.08-105.82c-7.98-34.96-17.64-69.62-29.77-103.38c-9.44-26.28-20.11-52.99-35.62-76.36
					c-7.78-11.72-20.23-28.97-36.35-27.72C210.1,1.28,202.9,5.93,196.88,11c-8.79,7.4-16.02,16.62-22.58,25.99
					c-18.45,26.36-32.34,55.97-44.72,85.57c-14.72,35.2-27.01,71.47-37,108.29c-8.92,32.87-16.33,66.5-19.31,100.48
					c-1.14,13.01-1.65,26.2-0.31,39.21c0.94,9.1,2.66,18.68,7.38,26.67c8.01,13.53,22.64,12.86,36.1,8.66
					c22.76-7.11,43.52-21.25,62.67-35.07c26.68-19.26,51.7-40.84,75.61-63.42c26.22-24.75,51.17-50.9,74.46-78.44
					c20.63-24.4,40.29-49.95,56.6-77.48c11.26-19.01,22.98-40.75,24.53-63.24c0.52-7.5-0.43-15.39-4.37-21.93
					c-4.33-7.19-11.88-11.82-19.56-14.74c-23.73-9.01-52-4.87-76.15-0.05c-35.26,7.04-69.49,19.26-102.49,33.36
					c-35.53,15.19-70.03,33.05-102.72,53.67c-27.41,17.29-54.57,36.58-76.71,60.44c-12.61,13.59-28.7,33.29-25.4,53.35
					c2.62,15.95,19.9,20.31,33.72,21.07c24.56,1.34,49.73-4.84,73.16-11.51c30.67-8.73,60.57-20.29,89.58-33.5
					c28.02-12.76,55.52-27.14,81.13-44.28c17.4-11.65,37.07-25.28,47.91-43.74c7.07-12.04,5.92-25.95-7.59-32.75
					c-7.72-3.89-17.51-1.8-25.36,0.52c-13.09,3.87-25.45,10.28-37.21,17.1c-31.12,18.06-59.83,40.81-85.96,65.48
					c-22.93,21.65-47.13,46.41-60.21,75.59c-4.01,8.93-7.36,19.39-4.96,29.22c2.14,8.74,9.14,14.57,17.1,18.04
					c11.25,4.9,24.02,6.11,36.16,6.39c16.35,0.38,32.72-1.29,48.85-3.84c36.69-5.79,73.01-16.31,107.02-31.26
					c14.94-6.57,29.62-14.1,43-23.5c10.04-7.05,19.99-15.37,26.34-26.04c12.44-20.91-0.97-40.96-17.52-54.66
					c-25.77-21.33-59.01-34.06-90.9-42.9c-34.71-9.62-72.2-15.39-108.19-10.85c-26.59,3.35-54.79,13.83-64.61,41.03
					c-12.38,34.29,4.31,72.79,22.33,101.77c20.58,33.1,48.25,63.32,80.18,85.78c11.19,7.87,23.78,15.73,37.35,18.62
					c8.16,1.74,15.01,0.74,21.11-5.14c7.14-6.87,11.66-16.43,15.4-25.45c5.44-13.1,9.28-26.86,12.39-40.69
					c7.54-33.6,10.96-68.42,10.23-102.84c-0.63-29.43-3.58-61.78-17.86-88.13c-5.23-9.64-12.55-18.65-22.5-23.67
					c-13.86-6.99-31.57-5.6-46.17-2.05c-41.83,10.16-75.2,44.77-97.13,80.24c-10.64,17.21-19.4,35.98-24.3,55.66
					c-3.1,12.45-6.5,29.12-1.06,41.42c4.07,9.2,12.94,15.59,21.46,20.33c12.43,6.92,26.2,11.41,39.9,15.01
					c34.49,9.06,70.59,12.72,106.17,13.52c30.44,0.68,63.06,0.24,92.4-8.89c10.59-3.29,32.79-13.03,21.46-27.13
					c-5.03-6.26-12.83-10.39-19.83-14c-10.96-5.66-22.45-10.3-33.93-14.77c-29.35-11.43-59.22-21.46-88.58-32.87
					c-26.92-10.46-54.99-21.51-78.47-38.67c-14.49-10.59-29.48-27.15-18.68-45.62c5-8.54,13.11-15.74,22.97-17.79
					c9.95-2.07,20.23,1.15,29.04,5.66c25.51,13.04,45.7,36.73,62.88,59.05c20.46,26.57,38.19,55.44,53,85.52
					c6.38,12.95,12.25,26.2,16.94,39.87c3.33,9.71,6.5,19.97,6.98,30.29c0.24,5.16,0.03,12.41-5.6,14.67
					c-7.23,2.9-14.21-3.05-18.56-8.19c-7.52-8.88-12.19-20.23-15.59-31.23c-4.4-14.23-6.65-29.12-6.91-44
					c-0.58-32.84,9.19-66.65,33.39-89.87c6.63-6.35,14.13-11.73,22.19-16.11c9.05-4.92,18.56-7.59,28.14-11.11
					c13.5-4.96,22.76-17.26,27.98-30.22c12.33-30.6,4.88-70.15-25.11-87.47c-9.17-5.3-20.31-9.81-30.89-6.56
					c-8.08,2.48-15.18,7.72-21.5,13.17C295.62,53.21,280,75.67,265.7,97.54c-19.34,29.56-36.36,60.64-52.06,92.26
					c-16.18,32.6-30.95,65.95-43.93,99.96c-10.94,28.69-21.01,58.04-27.27,88.15c-2.21,10.62-4.01,21.47-4.24,32.34
					c-0.15,7.08,0.18,14.87,3.38,21.34c1.93,3.91,5.75,8.16,10.5,8.08c4.52-0.07,7.59-4.19,9.55-7.78
					c3.55-6.48,5.39-13.95,6.95-21.12c2.27-10.48,3.68-21.15,4.78-31.81c3-28.9,3.64-58.07,3.33-87.11
					c-0.34-32.61-2.06-65.24-5.4-97.68c-2.96-28.77-6.98-57.68-14.3-85.7c-4.48-17.17-10.04-38.48-23.43-51.15
					c-10.19-9.65-24.3-6.88-32.27,4.32c-11.8,16.58-6.68,41.91-2.28,60.05c7.55,31.12,20.72,60.94,35.06,89.46
					c16.35,32.52,35.1,63.91,55.95,93.74c17.25,24.68,35.94,49.2,58.29,69.54c10.79,9.82,28.48,25.85,44.63,20.45
					c16.18-5.41-2.42-19.38-9.05-23.98c-23.28-16.14-49.35-28.55-74.42-41.58c-31.14-16.18-62.44-32.2-92.52-50.3
					c-13.11-7.89-26.08-16.16-38.15-25.58c-8.66-6.77-17.63-14.31-23.51-23.74c-3.51-5.63-5.93-12.38-2.25-18.51
					c3.88-6.47,11.6-10.31,18.29-13.13c24.11-10.16,51.82-12.68,77.66-14.19c34.1-1.99,68.49-0.73,102.39,3.43
					c31.88,3.91,64.26,10.21,93.99,22.71c20.2,8.49,44.29,21.77,51.12,44.27c7.1,23.39-5.41,48.15-22.71,63.46
					c-19.08,16.88-45.22,26.4-70.6,26.84c-23.84,0.41-48.53-8.31-60.94-29.87c-7.28-12.65-9.36-27.56-8.75-41.97
					c0.41-9.62,1.99-19.15,4.27-28.49c2.45-10.1,5.38-20.39,10.4-29.54c7.41-13.49,19.36-21.41,34.9-21.38
					c17.88,0.04,35.64,7.25,51.94,13.88c42.56,17.31,83.69,37.5,127.67,51.24c1.85,0.58,2.64-2.32,0.8-2.89
					c-27.53-8.61-54.27-19.39-80.7-30.92c-20.53-8.95-40.87-18.57-61.99-26.09c-14.34-5.11-30.33-10.04-45.72-7.62
					c-13.59,2.14-23.62,11.21-29.93,23.09c-8.65,16.28-12.96,36.16-14.38,54.44c-1.09,14.06,0.15,28.61,5.84,41.65
					c9.39,21.54,30.05,33.83,52.8,36.73c23.97,3.05,49.22-3.02,70-15.1c20.01-11.63,37.25-30.37,41.07-53.87
					c1.67-10.27,1.04-20.92-3.4-30.43c-4.27-9.13-11.44-16.61-19.35-22.7c-21.49-16.56-48.92-25.18-74.97-31.39
					c-32.32-7.71-65.62-11.53-98.79-12.86c-30.74-1.24-61.83-0.45-92.28,4.22c-11.79,1.81-23.59,4.2-34.89,8.1
					c-7.79,2.69-15.9,6.1-22.04,11.76c-12.66,11.66-3.69,26.54,6.05,36.83c19.03,20.14,44.57,34.6,68.37,48.26
					c29.78,17.1,60.44,32.64,90.87,48.53c22.56,11.78,46.63,23.02,66.91,38.59c2.8,2.15,10.76,7.62,9.64,11.94
					c-1.14,4.41-9.85,4.48-13.25,3.89c-8.22-1.42-15.76-6.51-22.28-11.44c-9.8-7.41-18.58-16.18-26.88-25.21
					c-21.89-23.82-40.83-50.39-58.25-77.6c-19.02-29.72-36.26-60.72-50.77-92.9c-11.92-26.42-23.17-54.61-26.81-83.57
					c-1.96-15.63-2.29-38.82,14.95-46.35c13.23-5.78,22.77,7.73,28.07,17.96c10.5,20.3,15.31,43.78,19.38,66.08
					c5.47,30.01,8.62,60.45,10.63,90.87c2.07,31.34,2.88,62.8,2.18,94.2c-0.56,25.36-1.8,50.96-6.05,76
					c-1.4,8.26-3.08,16.63-6.07,24.48c-1.42,3.73-3.64,9.56-7.69,11.18c-3.64,1.45-7.23-2.09-8.98-5.16
					c-3.43-6-3.66-13.7-3.55-20.42c0.39-24.07,7.4-48.27,14.41-71.11c9.9-32.28,22.22-63.83,35.69-94.77
					c14.32-32.88,30.08-65.18,47.47-96.55c15.33-27.67,31.84-54.99,51.27-80.01c7.36-9.48,15.2-18.7,24-26.89
					c6.34-5.9,13.44-11.73,21.61-14.9c10.15-3.94,20.14-0.33,29.42,4.72c15.65,8.5,25.81,23.69,29.29,40.99
					c3.26,16.19,1.06,33.89-6.37,48.66c-3.31,6.59-7.74,12.72-13.49,17.4c-6.63,5.38-14.38,6.95-22.23,9.8
					c-32.19,11.69-56.58,36.29-67.22,68.9c-9.15,28.03-8.72,59.36-0.94,87.66c3.08,11.21,7.39,22.49,14,32.13
					c4.21,6.14,10.07,12.91,17.79,14.32c16.93,3.11,15.87-17.49,13.85-28.16c-4.78-25.28-16.6-49.65-28.44-72.26
					c-15.11-28.87-32.77-56.62-53.2-82.03c-16.57-20.61-36.03-42.4-60.32-53.98c-8.49-4.05-17.99-6.75-27.45-5.34
					c-9.45,1.41-17.36,7.03-23.19,14.42c-5.22,6.62-8.73,14.66-7.61,23.23c1.11,8.44,6.23,15.71,12.07,21.63
					c17.7,17.97,42.82,28.85,65.62,38.62c28.79,12.33,58.39,22.63,87.79,33.38c22.92,8.38,47.37,16.19,68.17,29.24
					c4.57,2.87,11.78,7.27,12.67,13.22c0.95,6.33-6.94,10.91-11.61,13.25c-10.42,5.21-22.39,7.52-33.81,9.31
					c-15.77,2.46-31.77,3.44-47.72,3.73c-35.53,0.65-71.45-2.02-106.33-8.91c-15.15-2.99-30.27-6.81-44.65-12.5
					c-10.63-4.21-21.8-9.59-29.63-18.17c-8.2-9-7.96-20.89-6.58-32.39c2.32-19.36,9.65-38.13,18.64-55.3
					c19.61-37.43,50.98-74.21,91.52-89.38c15.75-5.89,35.9-9.57,52.18-3.51c10.42,3.88,18.18,12.4,23.69,21.8
					c14.92,25.46,17.93,57.71,18.73,86.58c0.94,33.79-2.22,67.94-9.31,100.99c-2.98,13.88-6.67,27.7-11.85,40.93
					c-3.65,9.33-8.08,19.3-15.17,26.58c-6.15,6.33-12.99,6.78-21.32,4.56c-13.62-3.62-26.11-11.75-37.37-19.98
					c-31.71-23.17-59.35-53.97-79.22-87.82c-16.89-28.76-32.75-68.72-15.81-101.01c13.42-25.56,46.71-31.92,72.9-33.16
					c36.33-1.72,73.28,5.17,107.75,16.32c29.46,9.53,61.82,22.78,83.58,45.69c7.03,7.4,13.48,16.93,13.36,27.54
					c-0.12,10.46-6.76,19.69-13.78,26.88c-21.9,22.43-53.57,35.86-82.5,46.41c-33.72,12.3-69.3,21.22-105.1,24.43
					c-14.49,1.3-29.35,1.78-43.78-0.47c-9.72-1.51-20.78-4.26-27.77-11.71c-15.52-16.57,3.3-44.87,13.26-59.08
					c19.93-28.45,45.81-53.02,72.49-75.06c25.19-20.82,52.7-41.08,82.92-54c13.27-5.68,37.36-14.19,45.33,4.04
					c6.01,13.74-9.75,29.17-18.55,37.46c-19.03,17.91-41.88,31.89-64.62,44.54c-27.63,15.37-56.44,28.69-85.93,40.1
					c-27.2,10.52-55.21,19.73-83.92,25.13c-11.23,2.11-22.66,3.65-34.1,3.61c-8.19-0.03-16.96-0.73-24.46-4.32
					c-15.51-7.42-13.03-25.14-6.48-38.23c11.76-23.49,33.67-42,54.02-57.84c28.49-22.18,59.67-40.98,91.64-57.67
					c33.32-17.39,67.94-32.56,103.65-44.35c29.39-9.71,60.45-18.06,91.6-18.51c17.33-0.25,42.75,1.87,52.17,19.19
					c8.45,15.54,0.97,36.41-5.34,51.29c-10.92,25.74-26.94,49.37-43.59,71.69c-20.47,27.44-43.04,53.32-66.71,78.04
					c-23.82,24.87-48.86,48.62-75.28,70.71c-21.89,18.31-44.81,35.95-69.76,49.93c-8.87,4.97-18.09,9.57-27.83,12.58
					c-6.56,2.03-14.01,3.72-20.84,2.05c-16.24-3.96-18.4-27.85-19.13-41.24c-1.6-29.38,3.41-59.21,9.36-87.87
					c7.46-35.93,17.69-71.32,29.81-105.94c11.68-33.37,25.12-66.32,41.76-97.55c11.5-21.57,24.83-45.53,44.46-60.85
					c5.69-4.44,12.9-8.64,20.4-7.99c6.84,0.6,12.79,5.19,17.53,9.82c16.43,16.07,26.74,38.84,35.73,59.61
					c13.05,30.18,23.15,61.66,31.85,93.34c9.51,34.65,17.22,69.83,22.94,105.31c5.12,31.75,8.87,63.95,8.89,96.15
					c0.01,20.81-0.28,45.27-10.48,64.08c-3.29,6.07-7.94,11.1-14.73,13.02c-9.58,2.7-20.06,0.89-29.46-1.7
					c-29.27-8.07-56.17-25.52-80.74-42.83c-31.87-22.45-61.63-47.98-89.48-75.23c-26.16-25.6-51.16-52.94-72.05-83.07
					C33.23,230.63,25.75,218.6,20,205.78c-4.15-9.26-7.87-19.61-7.5-29.91c0.55-15.29,18.16-22.5,30.5-26.53
					c23.84-7.8,49.57-10.03,74.48-11.27c32.84-1.63,65.81-0.64,98.57,1.82c34.91,2.63,69.71,7.02,104.12,13.48
					c30.13,5.66,60.23,12.77,89.05,23.33c19.8,7.26,41.95,16.28,56.5,32.2c4.75,5.19,8.63,11.6,9.09,18.78
					c0.51,7.87-2.82,15.34-7.3,21.63c-13.51,18.98-36.48,31.22-56.93,41.14c-30.01,14.56-61.94,25.19-94.08,33.91
					c-35.61,9.67-71.95,16.9-108.57,21.45c-32.96,4.1-66.47,6.27-99.66,3.88c-23.72-1.71-50.35-5.2-70.55-18.81
					c-9.59-6.46-23.38-21.57-15.11-33.88c8.11-12.06,28.31-14.44,41.33-16.07c25.19-3.14,50.91-2.38,76.18-0.76
					c31.04,1.99,61.97,5.8,92.67,10.77c30.64,4.95,61.13,11.07,91.22,18.7c24.43,6.2,48.94,13.17,72.16,23.08
					c7.88,3.37,15.73,7.09,22.86,11.88c4.23,2.85,9.28,6.52,11.2,11.47c1.52,3.91-0.22,7.72-3.41,10.22
					c-4.25,3.33-10.09,3.1-15.09,2.01c-18.56-4.06-35.54-17.59-50.04-29.14c-22.98-18.3-44.09-38.95-64.3-60.23
					c-23.21-24.44-45.22-50.05-66.05-76.55c-19.77-25.15-38.59-51.16-55.39-78.4c-12.7-20.61-25.24-42.38-32.22-65.71
					c-3.29-10.97-7.76-29.55,4.25-37.11c7.16-4.51,16.97-4.59,25.09-3.9c12.51,1.06,24.77,4.77,36.48,9.14
					c31.87,11.9,61.58,29.84,89.46,49.13c31.87,22.05,61.91,46.94,89.27,74.4c24.28,24.38,47.44,51.2,63.54,81.81
					c10.32,19.61,21.08,47.16,11,69.03c-6.98,15.12-25.17,19.05-40.26,19.77c-24.86,1.18-50.03-4.41-73.87-10.9
					c-31.1-8.46-61.41-19.79-91.02-32.45c-31.14-13.32-61.61-28.24-91.23-44.65c-26.61-14.74-52.72-30.65-77.22-48.71
					c-16.95-12.49-34.99-26.34-47.02-43.92c-3.41-4.99-6.84-10.92-6.91-17.15c-0.07-6.35,4.52-10.95,9.21-14.67
					c8.44-6.69,18.78-11.01,28.86-14.54c13.61-4.77,27.71-8.11,41.86-10.79c35.46-6.73,71.73-9.4,107.79-9.87
					c38.19-0.5,76.62,1.56,114.36,7.65c30.26,4.88,62.03,11.88,88.77,27.49c9.52,5.56,18.73,12.56,24.8,21.92
					c6.36,9.81,8.45,21.62,8.41,33.15c-0.09,31.92-13.53,63.68-27.57,91.72c-17.56,35.07-39.49,68.05-63.83,98.76
					c-22.09,27.87-46.45,54.74-74.52,76.74c-10.38,8.13-21.51,15.83-33.68,21.03c-7.06,3.01-16.41,6.44-24.11,3.93
					c-14.42-4.7-21.31-24.81-25.58-37.57c-8.49-25.33-12.53-52.2-15.39-78.67c-3.57-32.95-4.85-66.15-4.53-99.29
					c0.32-33.63,2.29-67.3,6.58-100.66c3.66-28.48,8.81-57.21,18.38-84.36c5.96-16.92,14.43-37.84,30.75-47.4
					c19.21-11.25,44.28,3.66,59.24,15.73c27.48,22.17,47.57,53.37,63.18,84.65c17.81,35.7,30.61,74.6,35.56,114.25
					c4.28,34.26,3.16,72.07-14.1,102.91c-20.64,36.85-64.87,56.95-104.66,64.74c-44.16,8.65-90.77,4.46-133.85-7.75
					c-26.72-7.57-55.74-18.2-76.76-37.05C73.01,343.57,70.88,345.68,72.33,346.97L72.33,346.97z"/>
			</g>
		</g>
	</g>
</g>
<g id="Annotations">
	<circle fill="none" stroke="#C45814" stroke-width="8" cx="450.5" cy="241.5" r="26.5"/>
	<circle fill="none" stroke="#C45814" stroke-width="8" cx="124" cy="393" r="44"/>
	<circle fill="none" stroke="#C45814" stroke-width="8" cx="167" cy="85" r="39"/>
	<g>
		<path fill="#C45814" d="M366.77,342.83l-2.09,3.2c-1.48-0.94-3.06-1.48-4.72-1.48c-1.55,0-2.3,0.58-2.3,1.44
			c0,1.01,0.5,1.44,3.92,2.45c3.78,1.08,5.9,2.66,5.9,6.08c0,3.96-3.74,6.3-8.5,6.3c-3.31,0-6.12-1.15-7.99-2.84l2.77-3.1
			c1.44,1.12,3.2,1.87,5.08,1.87c1.73,0,2.77-0.65,2.77-1.8c0-1.3-0.58-1.69-4.03-2.66c-3.78-1.08-5.65-3.02-5.65-5.98
			c0-3.28,2.99-5.83,7.81-5.83C362.52,340.49,365.01,341.39,366.77,342.83z"/>
		<path fill="#C45814" d="M387.87,352.34h-11.81c0.36,3.42,1.98,4.36,4.32,4.36c1.55,0,2.92-0.54,4.57-1.69l2.34,3.17
			c-1.91,1.51-4.36,2.66-7.45,2.66c-6.37,0-9.61-4.1-9.61-10.08c0-5.72,3.13-10.26,8.93-10.26c5.47,0,8.82,3.6,8.82,9.79
			C387.98,350.9,387.94,351.76,387.87,352.34z M382.4,348.67c-0.04-2.59-0.83-4.39-3.1-4.39c-1.91,0-2.99,1.19-3.28,4.64h6.37
			V348.67z"/>
		<path fill="#C45814" d="M404.43,340.82l-0.9,5.51c-0.61-0.14-1.08-0.25-1.73-0.25c-2.34,0-3.35,1.73-3.96,4.61v9.54h-5.69v-19.11
			h4.97l0.47,3.67c0.86-2.63,2.74-4.21,4.93-4.21C403.24,340.57,403.82,340.64,404.43,340.82z"/>
		<path fill="#C45814" d="M418.76,360.22h-6.73l-6.16-19.11h6.19l3.38,14.79l3.53-14.79h5.79L418.76,360.22z"/>
		<path fill="#C45814" d="M443.88,352.34h-11.81c0.36,3.42,1.98,4.36,4.32,4.36c1.55,0,2.92-0.54,4.57-1.69l2.34,3.17
			c-1.91,1.51-4.36,2.66-7.45,2.66c-6.37,0-9.61-4.1-9.61-10.08c0-5.72,3.13-10.26,8.93-10.26c5.47,0,8.82,3.6,8.82,9.79
			C443.99,350.9,443.95,351.76,443.88,352.34z M438.41,348.67c-0.04-2.59-0.83-4.39-3.1-4.39c-1.91,0-2.99,1.19-3.28,4.64h6.37
			V348.67z"/>
		<path fill="#C45814" d="M460.44,340.82l-0.9,5.51c-0.61-0.14-1.08-0.25-1.73-0.25c-2.34,0-3.35,1.73-3.96,4.61v9.54h-5.69v-19.11
			h4.97l0.47,3.67c0.86-2.63,2.74-4.21,4.93-4.21C459.25,340.57,459.83,340.64,460.44,340.82z"/>
	</g>
</g>
<g id="Browser">
	<g>
		<g>
			<path fill="#F5F4F8" d="M1280.27,450.19c0,5.4-4.41,9.81-9.81,9.81H883.5c-5.4,0-9.81-4.42-9.81-9.81V9.64
				c0-5.4,4.41-9.81,9.81-9.81h386.96c5.4,0,9.81,4.41,9.81,9.81V450.19z"/>
		</g>
		<path fill="#D8D5E3" d="M1280.27,52.16H873.69V5.13c0-2.93,2.38-5.31,5.31-5.31h395.97c2.93,0,5.31,2.38,5.31,5.31V52.16z"/>
		<path fill="#DC9B72" d="M904.9,25.99c0,3.61-2.93,6.54-6.54,6.54c-3.61,0-6.54-2.93-6.54-6.54s2.93-6.54,6.54-6.54
			C901.97,19.45,904.9,22.38,904.9,25.99z"/>
		<path fill="#B0ABC7" d="M927.15,25.99c0,3.61-2.93,6.54-6.54,6.54c-3.61,0-6.54-2.93-6.54-6.54s2.93-6.54,6.54-6.54
			C924.23,19.45,927.15,22.38,927.15,25.99z"/>
		<path fill="#8981AA" d="M949.41,25.99c0,3.61-2.93,6.54-6.54,6.54c-3.61,0-6.54-2.93-6.54-6.54s2.93-6.54,6.54-6.54
			C946.48,19.45,949.41,22.38,949.41,25.99z"/>
		<g>
			<path fill="#FFFFFF" d="M996.37,39.89h-26.92c-0.24,0-0.44-0.2-0.44-0.44V12.53c0-0.24,0.2-0.44,0.44-0.44h26.92
				c0.24,0,0.44,0.2,0.44,0.44v26.92C996.81,39.69,996.62,39.89,996.37,39.89z"/>
			<g>
				<path fill="#8981AA" d="M985.37,34.98c-0.21,0-0.42-0.08-0.58-0.24l-8.17-8.18c-0.32-0.32-0.32-0.84,0-1.16l8.17-8.18
					c0.32-0.32,0.84-0.32,1.16,0c0.32,0.32,0.32,0.84,0,1.16l-7.6,7.6l7.6,7.6c0.32,0.32,0.32,0.84,0,1.16
					C985.78,34.9,985.58,34.98,985.37,34.98z"/>
			</g>
		</g>
		<g>
			<path fill="#FFFFFF" d="M1028.41,39.89h-26.92c-0.24,0-0.44-0.2-0.44-0.44V12.53c0-0.24,0.2-0.44,0.44-0.44h26.92
				c0.24,0,0.44,0.2,0.44,0.44v26.92C1028.85,39.69,1028.65,39.89,1028.41,39.89z"/>
			<g>
				<path fill="#8981AA" d="M1012.5,34.98c-0.21,0-0.42-0.08-0.58-0.24c-0.32-0.32-0.32-0.84,0-1.16l7.6-7.6l-7.6-7.6
					c-0.32-0.32-0.32-0.84,0-1.16c0.32-0.32,0.84-0.32,1.16,0l8.17,8.18c0.32,0.32,0.32,0.84,0,1.16l-8.17,8.18
					C1012.92,34.9,1012.71,34.98,1012.5,34.98z"/>
			</g>
		</g>
		<g>
			<g>
				<path fill="#FFFFFF" d="M1038.83,39.45V12.53c0-0.24,0.2-0.44,0.44-0.44h222.07c0.24,0,0.44,0.2,0.44,0.44v26.92
					c0,0.24-0.2,0.44-0.44,0.44h-222.07C1039.02,39.89,1038.83,39.69,1038.83,39.45z"/>
			</g>
			<g>
				<g>
					<path fill="#8981AA" d="M1052.7,30.7c-1.68,0-3.36-0.64-4.64-1.92c-1.24-1.24-1.92-2.89-1.92-4.64c0-1.75,0.68-3.4,1.92-4.64
						c2.56-2.56,6.72-2.56,9.28,0c0,0,0,0,0,0c2.56,2.56,2.56,6.72,0,9.28C1056.06,30.06,1054.38,30.7,1052.7,30.7z M1052.7,19.22
						c-1.26,0-2.52,0.48-3.48,1.44c-0.93,0.93-1.44,2.17-1.44,3.48c0,1.32,0.51,2.55,1.44,3.48c1.92,1.92,5.05,1.92,6.97,0
						c1.92-1.92,1.92-5.04,0-6.96C1055.22,19.7,1053.96,19.22,1052.7,19.22z"/>
				</g>
				<g>
					<path fill="#8981AA" d="M1062.13,34.39c-0.21,0-0.42-0.08-0.58-0.24l-5.37-5.37c-0.32-0.32-0.32-0.84,0-1.16
						c0.32-0.32,0.84-0.32,1.16,0l5.37,5.37c0.32,0.32,0.32,0.84,0,1.16C1062.55,34.31,1062.34,34.39,1062.13,34.39z"/>
				</g>
			</g>
		</g>
	</g>
</g>
<g id="App">
	<g>
		<path fill="#3A2D72" d="M904,400c0,16.57,13.43,30,30,30h286c16.57,0,30-13.43,30-30V112c0-16.57-13.43-30-30-30H934
			c-16.57,0-30,13.43-30,30V400z"/>
	</g>
	<g>
		<path fill="#FFFFFF" d="M924,305c0,16.57,13.43,30,30,30h246c16.57,0,30-13.43,30-30V132c0-16.57-13.43-30-30-30H954
			c-16.57,0-30,13.43-30,30V305z"/>
	</g>
	<g>
		<path fill="#FFFFFF" d="M998.03,389.69l-1.19,3.71c-2.23-0.18-3.71-0.86-4.61-2.74c-1.37,2.09-3.49,2.84-5.76,2.84
			c-3.82,0-6.23-2.48-6.23-5.98c0-4.18,3.17-6.44,8.96-6.44h1.94v-0.83c0-2.27-0.9-2.95-3.24-2.95c-1.22,0-3.1,0.36-5,1.01
			l-1.3-3.74c2.41-0.9,5.04-1.4,7.2-1.4c5.54,0,7.92,2.34,7.92,6.77v7.42C996.74,388.82,997.13,389.36,998.03,389.69z
			 M991.16,387.63v-3.42h-1.4c-2.59,0-3.85,0.9-3.85,2.81c0,1.51,0.83,2.41,2.23,2.41C989.43,389.43,990.47,388.75,991.16,387.63z"
			/>
		<path fill="#FFFFFF" d="M1020.1,383.28c0,5.9-2.88,10.22-7.59,10.22c-1.87,0-3.46-0.65-4.64-2.02v8.78l-5.69,0.61v-27.1h5
			l0.29,2.12c1.58-1.98,3.63-2.74,5.4-2.74C1017.91,373.16,1020.1,377.09,1020.1,383.28z M1014.2,383.35c0-4.75-1.15-6.01-3.13-6.01
			c-1.22,0-2.38,0.83-3.2,2.23v8.06c0.79,1.15,1.73,1.69,2.92,1.69C1012.9,389.33,1014.2,387.63,1014.2,383.35z"/>
		<path fill="#FFFFFF" d="M1042.49,383.28c0,5.9-2.88,10.22-7.59,10.22c-1.87,0-3.46-0.65-4.64-2.02v8.78l-5.69,0.61v-27.1h5
			l0.29,2.12c1.58-1.98,3.63-2.74,5.4-2.74C1040.3,373.16,1042.49,377.09,1042.49,383.28z M1036.59,383.35
			c0-4.75-1.15-6.01-3.13-6.01c-1.22,0-2.38,0.83-3.2,2.23v8.06c0.79,1.15,1.73,1.69,2.92,1.69
			C1035.29,389.33,1036.59,387.63,1036.59,383.35z"/>
		<path fill="#FFFFFF" d="M1046.78,388.03v-21.85l5.69-0.61v22.25c0,0.79,0.29,1.19,0.97,1.19c0.4,0,0.68-0.07,0.94-0.18l1.12,4.03
			c-0.86,0.36-2.09,0.65-3.46,0.65C1048.72,393.5,1046.78,391.52,1046.78,388.03z"/>
		<path fill="#FFFFFF" d="M1064.74,366.94c0,1.84-1.4,3.24-3.38,3.24c-1.98,0-3.35-1.4-3.35-3.24c0-1.83,1.37-3.24,3.35-3.24
			C1063.34,363.7,1064.74,365.1,1064.74,366.94z M1064.24,392.89h-5.69v-19.11h5.69V392.89z"/>
		<path fill="#FFFFFF" d="M1084.43,375.5l-2.45,3.38c-1.22-0.94-2.34-1.37-3.64-1.37c-2.45,0-3.85,1.66-3.85,5.94
			c0,4.25,1.51,5.54,3.78,5.54c1.37,0,2.3-0.43,3.67-1.3l2.48,3.53c-1.76,1.4-3.82,2.27-6.44,2.27c-5.87,0-9.47-3.96-9.47-10.01
			c0-6.08,3.63-10.33,9.36-10.33C1080.54,373.16,1082.6,373.96,1084.43,375.5z"/>
		<path fill="#FFFFFF" d="M1104.23,389.69l-1.19,3.71c-2.23-0.18-3.71-0.86-4.61-2.74c-1.37,2.09-3.49,2.84-5.76,2.84
			c-3.82,0-6.23-2.48-6.23-5.98c0-4.18,3.17-6.44,8.96-6.44h1.94v-0.83c0-2.27-0.9-2.95-3.24-2.95c-1.22,0-3.1,0.36-5,1.01
			l-1.3-3.74c2.41-0.9,5.04-1.4,7.2-1.4c5.54,0,7.92,2.34,7.92,6.77v7.42C1102.93,388.82,1103.33,389.36,1104.23,389.69z
			 M1097.36,387.63v-3.42h-1.4c-2.59,0-3.85,0.9-3.85,2.81c0,1.51,0.83,2.41,2.23,2.41
			C1095.63,389.43,1096.67,388.75,1097.36,387.63z"/>
		<path fill="#FFFFFF" d="M1120.36,391.99c-1.44,1.01-3.46,1.51-5.18,1.51c-4.21-0.04-6.26-2.41-6.26-6.91v-8.86h-2.7v-3.96h2.7
			v-4.14l5.69-0.65v4.79h4.39l-0.61,3.96h-3.78v8.78c0,1.84,0.61,2.48,1.8,2.48c0.65,0,1.3-0.18,2.05-0.65L1120.36,391.99z"/>
		<path fill="#FFFFFF" d="M1129.36,366.94c0,1.84-1.4,3.24-3.38,3.24c-1.98,0-3.35-1.4-3.35-3.24c0-1.83,1.37-3.24,3.35-3.24
			C1127.96,363.7,1129.36,365.1,1129.36,366.94z M1128.85,392.89h-5.69v-19.11h5.69V392.89z"/>
		<path fill="#FFFFFF" d="M1151.86,383.35c0,6.12-3.53,10.15-9.36,10.15c-5.79,0-9.36-3.74-9.36-10.19c0-6.12,3.53-10.15,9.36-10.15
			S1151.86,376.91,1151.86,383.35z M1139.04,383.31c0,4.25,1.15,6.01,3.46,6.01s3.46-1.84,3.46-5.98c0-4.25-1.15-6.01-3.46-6.01
			S1139.04,379.17,1139.04,383.31z"/>
		<path fill="#FFFFFF" d="M1172.63,378.92v13.97h-5.69v-12.99c0-2.02-0.68-2.56-1.8-2.56c-1.26,0-2.3,0.9-3.31,2.48v13.07h-5.69
			v-19.11h4.97l0.4,2.27c1.62-1.87,3.46-2.88,5.83-2.88C1170.65,373.16,1172.63,375.29,1172.63,378.92z"/>
	</g>
</g>
<g id="Arrows">
	<g>
		<g>
			<linearGradient id="SVGID_4_" gradientUnits="userSpaceOnUse" x1="209.6067" y1="104.1455" x2="1021.3996" y2="104.1455">
				<stop  offset="0.2" style="stop-color:#C45814"/>
				<stop  offset="0.8" style="stop-color:#61578E"/>
			</linearGradient>
			<path fill="none" stroke="url(#SVGID_4_)" stroke-width="4" d="M1021,153
				C817.74,111.56,573.07,11.2,224.09,77.25"/>
			<g>
				<linearGradient id="SVGID_5_" gradientUnits="userSpaceOnUse" x1="209.6067" y1="76.8209" x2="1021.3996" y2="76.8209">
					<stop  offset="0.2" style="stop-color:#C45814"/>
					<stop  offset="0.8" style="stop-color:#61578E"/>
				</linearGradient>
				<polygon fill="url(#SVGID_5_)" points="225.14,67.02 210,80 228.81,86.62 				"/>
			</g>
		</g>
	</g>
	<g>
		<g>
			<linearGradient id="SVGID_6_" gradientUnits="userSpaceOnUse" x1="480.5185" y1="218.3953" x2="1150.5596" y2="218.3953">
				<stop  offset="0.2" style="stop-color:#C45814"/>
				<stop  offset="0.8" style="stop-color:#61578E"/>
			</linearGradient>
			<path fill="none" stroke="url(#SVGID_6_)" stroke-width="4" d="M1150,240
				c-98.08-28.58-337.49-79.02-655.05-3.39"/>
			<g>
				<linearGradient id="SVGID_7_" gradientUnits="userSpaceOnUse" x1="480.5185" y1="236.0118" x2="1150.5596" y2="236.0118">
					<stop  offset="0.2" style="stop-color:#C45814"/>
					<stop  offset="0.8" style="stop-color:#61578E"/>
				</linearGradient>
				<polygon fill="url(#SVGID_7_)" points="495.5,226.31 481,240 500.11,245.71 				"/>
			</g>
		</g>
	</g>
	<g>
		<g>
			<linearGradient id="SVGID_8_" gradientUnits="userSpaceOnUse" x1="167.9352" y1="349.6355" x2="981.6085" y2="349.6355">
				<stop  offset="0.2" style="stop-color:#C45814"/>
				<stop  offset="0.8" style="stop-color:#61578E"/>
			</linearGradient>
			<path fill="none" stroke="url(#SVGID_8_)" stroke-width="4" d="M981,288
				c-158.91,50.75-435.71,131.86-798.65,122.42"/>
			<g>
				<linearGradient id="SVGID_9_" gradientUnits="userSpaceOnUse" x1="167.9352" y1="410.4271" x2="981.6085" y2="410.4271">
					<stop  offset="0.2" style="stop-color:#C45814"/>
					<stop  offset="0.8" style="stop-color:#61578E"/>
				</linearGradient>
				<polygon fill="url(#SVGID_9_)" points="185.51,400.46 168,410 185.02,420.4 				"/>
			</g>
		</g>
	</g>
</g>
<g id="Results">
	<g>
		<g>
			<defs>
				<path id="SVGID_21_" d="M1021.43,239.14c-21.22,0-38.43,17.21-38.43,38.43s17.21,38.43,38.43,38.43
					c21.22,0,38.43-17.21,38.43-38.43S1042.66,239.14,1021.43,239.14z"/>
			</defs>
			<clipPath id="SVGID_10_">
				<use xlink:href="#SVGID_21_"  overflow="visible"/>
			</clipPath>
			<g clip-path="url(#SVGID_10_)">
				<g>
					<path fill="#ABABAB" d="M976.16,237.5c9.96,8.92,22.03,15.4,34.17,20.82c16.22,7.23,33.27,12.59,50.6,16.41
						c38.86,8.55,80.56,9.84,118.99-1.56c32.81-9.73,65.97-29.58,80.16-62.02c12.54-28.67,12.11-61.75,7.26-92.1
						c-5.58-34.89-17.65-68.96-34.3-100.09c-14.22-26.59-32.53-53.42-57.5-71.03c-13.71-9.67-34.36-19.16-50.22-8.93
						c-14.2,9.15-21.66,27.13-27.04,42.39c-8.5,24.11-12.99,49.63-16.22,74.92c-3.86,30.24-5.56,60.76-5.71,91.23
						c-0.15,29.64,1.15,59.35,4.65,88.79c2.71,22.81,6.37,46.09,14.34,67.74c4.12,11.19,10.72,27.45,23.65,30.86
						c7.1,1.87,15.27-0.93,21.76-3.67c10.52-4.43,20.11-10.94,29.12-17.89c25.38-19.58,47.31-43.78,67.12-68.86
						c21.7-27.46,41.27-56.93,56.76-88.35c12.1-24.56,23.57-52.28,23.39-80.14c-0.06-10.02-1.96-20.31-7.31-28.93
						c-5.09-8.2-12.79-14.5-20.93-19.53c-23.02-14.22-50.85-20.62-77.22-25.08c-33.42-5.65-67.48-7.65-101.34-7.33
						c-32.29,0.3-64.79,2.64-96.56,8.6c-21.12,3.96-45.51,8.95-62.98,22.36c-4.43,3.4-8.93,7.72-9.58,13.55
						c-0.6,5.28,1.62,10.51,4.22,14.98c8.98,15.41,24.22,27.44,38.13,38.13c45.37,34.84,97.46,61.98,149.8,84.64
						c26.34,11.4,53.28,21.65,80.95,29.36c21.39,5.97,43.99,11.12,66.35,10.39c13.7-0.45,30-3.53,37.74-16.19
						c10.39-16.99,3.36-40.63-4.12-57.21c-12.16-26.96-31.61-50.63-51.8-71.96c-23.62-24.94-49.9-47.42-77.74-67.52
						c-25.04-18.07-51.67-34.7-80.24-46.59c-17.33-7.21-40.44-15.91-59.28-9.27c-12.38,4.36-13.56,17.1-11.51,28.48
						c3.48,19.34,13.5,37.73,23.16,54.58c28.71,50.05,65.61,96.03,104.59,138.41c18.42,20.02,37.68,39.43,58.54,56.92
						c14.08,11.81,29.67,24.56,47.31,30.59c8.21,2.8,21.87,3.77,24.63-7.2c2.53-10.05-11.36-17.66-18.33-21.45
						c-17.49-9.51-36.97-15.59-56.02-21.08c-25.82-7.45-52.12-13.28-78.54-18.15c-28-5.16-56.24-9.22-84.6-11.81
						c-24.23-2.21-48.75-3.56-73.06-1.97c-14.76,0.97-32.77,2.22-45.32,11.02c-9.96,6.99-9.7,18.09-3.23,27.6
						c10.42,15.32,30.7,21.41,47.93,24.77c27.17,5.3,55.42,5.01,82.93,3.09c63.08-4.42,127.24-17.94,186.01-41.47
						c22.01-8.81,44.63-19.21,62.69-34.89c10.52-9.14,21.62-22.89,17.37-37.81c-4.32-15.15-20.7-24.85-33.77-31.51
						c-22-11.21-46.14-18.26-70.06-24.05c-58.98-14.28-120.54-21.02-181.19-21.07c-25.28-0.02-50.89,1.06-75.77,5.83
						c-14.45,2.77-33.39,6.73-43.28,18.79c-10.13,12.35-1.48,31.63,4.54,43.86c12.73,25.81,31.57,48.78,50.69,70.09
						c23.39,26.08,48.99,50.28,76.15,72.39c24,19.53,49.49,38.17,77.39,51.78c10.26,5,21.07,9.5,32.34,11.61
						c7.68,1.44,16.44,2.04,23.73-1.33c13.41-6.19,17-24.93,18.83-37.92c3.49-24.7,1.94-50.15-0.56-74.87
						c-3.14-31.06-8.54-61.89-15.38-92.34c-6.87-30.62-15.22-60.98-25.67-90.58c-8.29-23.48-17.68-47.31-31.26-68.31
						c-6.78-10.48-17.52-26.01-31.72-25.81c-16.31,0.23-29.48,17.82-38,29.63c-16.37,22.7-28.6,48.47-39.47,74.15
						c-12.86,30.39-23.63,61.71-32.45,93.5c-8.11,29.26-14.85,59.18-17.74,89.45c-1.77,18.52-3.79,41.61,5.29,58.73
						c6.47,12.21,18.58,12.86,30.72,9.4c19.56-5.57,37.47-17.63,53.87-29.27c49-34.8,92.94-77.94,131.85-123.59
						c18.26-21.42,35.66-43.86,50.21-68.01c10.12-16.8,20.51-35.82,22.47-55.7c4.42-44.89-55.86-39.78-84.38-34.43
						c-30.91,5.8-60.93,16.35-89.85,28.55c-30.99,13.08-61.09,28.48-89.66,46.26c-24.24,15.08-48.2,31.91-68.02,52.6
						c-11.57,12.07-26.19,29.21-24.37,47.27c1.42,14.08,15.21,18.88,27.5,19.93c21.07,1.81,42.96-3.45,63.11-9.01
						c26.62-7.34,52.55-17.22,77.74-28.49c24.77-11.09,49.05-23.61,71.77-38.5c14.51-9.51,71.68-47.83,39.58-68.08
						c-6.16-3.88-13.83-3-20.59-1.36c-11.17,2.71-21.77,7.98-31.76,13.54c-27.24,15.14-52.28,34.71-75.15,55.78
						c-20.76,19.13-42.13,40.75-54.94,66.25c-7.51,14.94-11.43,34.18,5.94,43.63c9.03,4.91,19.8,6.32,29.91,6.89
						c13.99,0.79,28.07-0.4,41.92-2.33c32.21-4.51,64.12-13.4,94.1-26c22.62-9.5,48.99-21.81,63.66-42.45c4.98-7,7.84-15.29,6-23.88
						c-2.01-9.39-8.55-17.36-15.43-23.73c-20.9-19.36-49.48-30.77-76.36-38.9c-30.68-9.28-63.8-14.95-95.9-12.12
						c-22.59,1.99-49.6,9.16-60.18,31.51c-13.42,28.37-1.2,61.77,13.28,87.16c17.12,30.01,41.21,57.07,68.73,77.92
						c10.31,7.81,21.66,15.37,34.13,19.24c6.86,2.13,14.19,3.1,20.25-1.41c6.51-4.84,10.66-12.71,13.97-19.91
						c5.02-10.91,8.52-22.5,11.38-34.14c7.1-28.88,10.41-58.93,10.39-88.64c-0.01-26.52-2.12-55.09-13.38-79.5
						c-4.16-9.03-10.01-17.68-18.4-23.27c-10.38-6.92-23.7-7.18-35.67-5.54c-36.85,5.07-67.13,33.39-87.52,62.8
						c-10.55,15.22-19.27,31.96-24.86,49.64c-3.93,12.44-7.72,27.99-4.34,41c2.05,7.91,8.55,13.81,15.11,18.17
						c9.83,6.53,21.24,10.7,32.49,14.05c29.42,8.77,60.59,12.32,91.19,13.57c27.69,1.13,56.69,0.9,83.73-5.85
						c8.61-2.15,33.44-9.34,26.47-23.05c-2.82-5.55-9.1-9.26-14.29-12.25c-8.82-5.07-18.27-9.03-27.69-12.83
						c-25.18-10.16-50.96-18.76-76.34-28.4c-24.34-9.24-49.36-18.87-71.22-33.24c-12.52-8.23-29.93-22.22-23.21-39.32
						c3.13-7.97,10.17-15.34,18.28-18.25c8.01-2.88,16.68-1.31,24.35,1.87c22.62,9.4,40.6,30.11,55.51,48.79
						c18.41,23.05,34.23,48.33,47.6,74.6c9.89,19.43,20.78,41.28,23.08,63.29c0.47,4.51,1.11,11.9-3.35,14.8
						c-5.45,3.55-11.91-0.88-15.67-4.79c-6.87-7.14-11.11-16.86-14.22-26.13c-4.04-12.04-6.25-24.71-6.81-37.38
						c-1.28-28.93,6.39-59.22,27.14-80.33c12.11-12.32,27.18-19.79,43.52-24.84c12.2-3.77,20.82-13.69,25.88-25.1
						c11.46-25.84,6.57-60.14-17.89-76.74c-8.04-5.46-19.06-10.62-29.01-8.14c-6.83,1.7-12.9,5.92-18.28,10.31
						c-17.43,14.23-30.98,33.5-43.34,52.09c-17.11,25.72-32.1,52.86-45.93,80.46c-14.3,28.53-27.33,57.72-38.83,87.49
						c-9.76,25.27-18.72,51.11-24.51,77.61c-2.09,9.57-3.81,19.32-4.22,29.12c-0.27,6.4-0.13,13.34,2.37,19.34
						c3.58,8.58,12.24,11.3,17.62,2.83c3.29-5.17,4.93-11.49,6.32-17.39c2.12-9,3.4-18.21,4.42-27.39
						c2.77-24.86,3.41-49.98,3.26-74.98c-0.18-28.54-1.58-57.1-4.37-85.51c-2.49-25.36-5.91-50.82-12.08-75.57
						c-3.91-15.69-8.65-34.36-20.01-46.56c-8.37-9-20.6-8.62-28.59,0.93c-11.1,13.27-7.5,34.79-4.13,50.16
						c5.89,26.87,17.03,52.66,29.12,77.26c13.98,28.46,30.13,55.91,48.04,82.07c15.26,22.28,31.81,44.31,51.47,62.95
						c9.56,9.06,25.19,24.16,39.94,21.01c3.83-0.82,8.68-3.04,7.83-7.74c-0.93-5.14-7.02-9.21-10.86-12.05
						c-19.01-14.07-41.09-24.42-61.98-35.3c-27.28-14.2-54.73-28.16-81.25-43.76c-11.85-6.97-23.56-14.25-34.62-22.44
						c-8.26-6.11-16.7-12.84-22.82-21.19c-3.43-4.68-7.03-11.07-4.59-16.97c2.42-5.83,8.91-9.41,14.32-11.94
						c20.11-9.42,44.05-11.67,65.9-13.18c29.54-2.03,59.37-1.15,88.79,2.15c28.21,3.17,56.77,8.46,83.27,18.91
						c18.21,7.18,40.22,18.36,47.5,37.98c7.44,20.05-2.96,42.33-17.69,56.01c-16.31,15.14-39.04,23.8-61.18,24.61
						c-20.86,0.76-42.89-6.27-54.22-24.93c-6.64-10.93-8.66-23.94-8.26-36.56c0.54-16.76,4.41-35.49,12.2-50.43
						c5.7-10.94,14.84-18.67,27.43-19.63c13.82-1.05,27.84,3.92,40.56,8.74c18.4,6.97,36.23,15.39,54.29,23.18
						c21.45,9.25,43.18,17.85,65.48,24.83c1.85,0.58,2.64-2.32,0.8-2.89c-24.41-7.64-48.1-17.23-71.52-27.46
						c-17.7-7.73-35.26-16.01-53.48-22.47c-12.4-4.39-26.21-8.6-39.51-6.54c-11.82,1.83-20.62,9.59-26.2,19.9
						c-7.6,14.04-11.34,31.25-12.71,47.07c-1.07,12.37-0.11,25.21,4.76,36.75c7.9,18.73,25.46,29.82,45.15,32.66
						c38.62,5.58,90.05-16.78,98.28-58.36c9.22-46.55-45.92-66.05-81.38-74.96c-28.15-7.07-57.22-10.61-86.18-11.99
						c-27.04-1.29-54.36-0.76-81.19,3.03c-17,2.4-37.74,5.45-51.61,16.56c-4.05,3.24-7.42,7.68-7.42,13.08
						c0,6.7,4.41,12.95,8.55,17.84c15.2,17.92,37.4,30.5,57.4,42.2c25.75,15.05,52.35,28.61,78.8,42.38
						c20.63,10.74,42.15,21.02,61.16,34.54c3.13,2.23,10.93,6.9,11.13,11.45c0.16,3.6-6.52,4.44-9.26,4.3
						c-6.86-0.34-13.38-4.42-18.83-8.24c-8.5-5.96-16.06-13.28-23.19-20.79c-19.1-20.15-35.55-42.86-50.69-66.08
						c-16.75-25.69-31.93-52.51-44.88-80.32c-10.89-23.39-20.98-48.08-25.26-73.66c-2.34-13.98-4.29-35.66,10.18-44.15
						c11.09-6.51,19.85,3,25.04,12.21c9.45,16.76,13.69,36.68,17.3,55.38c5,25.88,7.87,52.17,9.77,78.44
						c1.99,27.61,2.83,55.33,2.37,83.01c-0.37,22.63-1.36,45.44-4.84,67.83c-1.17,7.57-2.59,15.19-5.05,22.46
						c-1.26,3.74-2.99,9.14-6.57,11.38c-8.83,5.52-11.42-14.45-11.5-19.01c-0.39-20.58,5.63-41.54,11.46-61.06
						c8.31-27.83,18.78-55.03,30.24-81.7c23.14-53.87,49.98-108.04,85.33-155.06c10.88-14.47,23.87-31.58,40.74-39.44
						c7.71-3.59,14.15-2.49,21.99,0.68c14.99,6.06,25.78,18.66,30.02,34.19c3.79,13.86,2.7,29.2-2.76,42.47
						c-2.55,6.19-6.14,12.06-10.93,16.76c-4.98,4.89-10.58,7.18-17.11,9.24c-28.64,9-51.41,29.15-62.09,57.38
						c-9.28,24.52-9.56,52.39-3.36,77.68c2.49,10.13,6.07,20.27,11.57,29.19c3.59,5.83,8.5,12.26,15.25,14.55
						c4.67,1.58,10.49,0.64,13.28-3.75c3.05-4.8,2.42-11.48,1.68-16.82c-2.96-21.25-12.86-41.96-22.41-60.92
						c-12.83-25.47-28.02-49.92-45.48-72.48c-14.63-18.89-31.5-38.39-52.64-50.19c-14.69-8.2-32.29-10.83-45.22,1.96
						c-11.61,11.49-13.41,26.46-3.04,39.33c13.24,16.45,34.98,26.19,53.77,34.6c24.78,11.09,50.42,20.14,75.92,29.4
						c21.23,7.71,43.31,14.89,63.12,25.88c5.04,2.79,11.74,6.32,14.48,11.71c2.45,4.81-1.56,8.84-5.4,11.4
						c-7.73,5.16-17.5,7.37-26.48,9.12c-13.17,2.57-26.61,3.68-40.01,4.21c-30.9,1.22-62.16-0.71-92.65-5.94
						c-13.71-2.35-27.37-5.4-40.54-9.9c-10.19-3.48-20.73-7.81-29.07-14.78c-7.57-6.33-10.18-13.39-10.1-23.16
						c0.12-16.1,5.35-32.17,11.89-46.72c15.36-34.14,41.41-67.16,75.45-84.06c15.04-7.46,33.49-12.09,50.24-8.44
						c9.32,2.03,16.83,8.15,22.25,15.81c14.32,20.24,17.58,47.88,18.88,71.95c1.59,29.58-0.73,59.56-6.27,88.64
						c-2.42,12.72-5.49,25.38-9.77,37.61c-3.16,9.05-6.94,18.45-12.9,26.07c-4.31,5.5-9.08,8.56-16.2,7.65
						c-11.37-1.45-22.17-8.08-31.49-14.35c-27.97-18.81-52.16-44.96-70.31-73.25c-16.15-25.18-31.79-58.98-21.06-89.2
						c8.85-24.91,36.53-32.77,60.4-34.73c31.25-2.57,63.3,2.86,93.19,11.79c28.76,8.59,119.65,42.37,82.12,86.06
						c-17.4,20.26-44.98,32.24-69.34,41.57c-29.44,11.27-60.56,19.41-91.92,22.86c-12.91,1.42-26.06,2.09-39,0.72
						c-9.08-0.96-19.39-2.88-26.65-8.84c-15.52-12.74-1.54-36.57,6.79-49.22c16.61-25.22,39.09-46.85,62.05-66.24
						c22.14-18.71,46.22-36.6,72.65-48.81c11.92-5.51,33.23-14.73,42.27,0.28c6.76,11.22-5.97,24.77-13.28,31.99
						c-15.99,15.78-35.66,27.97-55.1,38.99c-23.9,13.55-48.89,25.27-74.44,35.36c-23.79,9.4-48.27,17.62-73.36,22.73
						c-16.38,3.34-36.56,7.19-52.78,1.06c-14.13-5.34-14.2-19.71-8.72-31.89c9.12-20.29,27.77-36.35,44.78-49.94
						c24.27-19.39,50.99-35.78,78.38-50.37c29.04-15.48,59.24-28.98,90.38-39.65c26.17-8.96,53.74-16.69,81.53-17.79
						c15.53-0.61,38.5,0.36,48.06,15.09c8.23,12.68,2.45,30.54-2.61,43.25c-8.84,22.21-22.45,42.59-36.52,61.78
						c-35.37,48.28-77.83,92.19-123.46,130.83c-19.24,16.29-39.36,31.96-61.2,44.64c-12.21,7.09-28.93,17.03-43.78,14.74
						c-14.54-2.24-17.08-22.04-17.94-33.74c-1.84-25.19,2.34-50.92,7.29-75.53c6.25-31.11,14.95-61.74,25.25-91.74
						c10.06-29.28,21.66-58.18,35.95-85.67c10.24-19.7,21.98-41.16,39.25-55.67c4.97-4.18,11.28-8.3,18.03-8.26
						c5.83,0.04,11.01,3.59,15.15,7.39c14.36,13.16,23.32,32.62,31.07,50.11c11.52,26,20.38,53.2,28.04,80.56
						c8.5,30.37,15.39,61.23,20.55,92.34c4.62,27.83,8.03,56.04,8.33,84.28c0.2,18.73,0.13,40.35-8.29,57.59
						c-2.55,5.23-6.24,10.2-11.85,12.32c-7.81,2.96-16.94,1.65-24.82-0.28c-25.55-6.26-49.12-21.44-70.46-36.27
						c-27.72-19.26-53.59-41.25-77.84-64.71c-23.04-22.29-45.03-46.11-63.63-72.28c-7.27-10.23-14.09-20.89-19.47-32.25
						c-3.91-8.25-7.48-17.39-7.68-26.64c-0.3-13.88,13.58-20.43,24.95-24.35c20.39-7.01,42.56-9.04,63.96-10.22
						c58.47-3.21,117.99,2,175.53,12.47c26.81,4.88,53.58,11.04,79.27,20.2c17.66,6.29,37.16,14.04,50.57,27.67
						c29.46,29.94-21.04,59.41-43.95,70.84c-25.97,12.96-53.73,22.36-81.65,30.1c-30.87,8.56-62.39,14.99-94.15,19.14
						c-28.95,3.78-58.37,5.88-87.56,4.13c-21.11-1.27-44.54-4.02-62.95-15.31c-8.75-5.37-22.32-18.49-15.62-29.95
						c6.21-10.63,23.64-12.9,34.49-14.39c21.63-2.97,43.81-2.38,65.55-1.09c27.01,1.6,53.92,4.84,80.63,9.08
						c26.99,4.28,53.84,9.59,80.36,16.22c21.44,5.36,42.92,11.43,63.37,19.9c7.18,2.97,14.33,6.27,20.87,10.49
						c3.91,2.53,8.57,5.71,10.58,10.1c4.17,9.11-8.14,12.4-14.69,11.2c-16.17-2.97-31.18-14.98-43.7-24.88
						c-19.9-15.73-38.18-33.53-55.68-51.87c-39.41-41.29-76.03-86.31-106.23-134.82c-11.37-18.26-22.56-37.51-28.99-58.16
						c-2.96-9.53-7.33-25.9,2.73-32.97c5.89-4.14,14.42-4.3,21.3-3.83c10.73,0.74,21.28,3.83,31.34,7.49
						c27.53,10.01,53.19,25.36,77.28,41.84c28.16,19.26,54.69,41.07,78.87,65.15c21.28,21.18,41.54,44.46,55.91,70.98
						c9.44,17.43,19.06,41.15,11.04,60.93c-5.45,13.46-21.02,17.32-34.13,18.12c-21.49,1.31-43.34-3.44-63.97-8.96
						c-27.1-7.24-53.52-17.03-79.33-27.99c-51.41-21.82-102.09-48.13-147.31-81.08c-15.17-11.06-31.25-23.27-42.2-38.77
						c-3.11-4.41-6.3-9.64-6.56-15.19c-0.26-5.47,3.36-9.37,7.34-12.67c7.11-5.87,15.97-9.65,24.56-12.74
						c11.65-4.19,23.74-7.12,35.88-9.49c30.74-6,62.22-8.41,93.51-8.94c33.37-0.56,66.95,1.12,99.96,6.27
						c26.67,4.16,54.59,10.15,78.34,23.51c8.52,4.79,16.84,10.83,22.45,18.98c5.71,8.31,7.8,18.38,7.95,28.32
						c0.42,27.53-11.03,55.1-22.97,79.34c-15.2,30.86-34.34,59.87-55.6,86.87c-19.31,24.53-40.61,48.16-65.12,67.62
						c-9.1,7.22-18.83,14.04-29.48,18.79c-6.23,2.78-14.56,6.01-21.47,4.03c-12.61-3.61-18.73-21.14-22.45-32.05
						c-7.49-21.96-11.04-45.32-13.58-68.31c-3.17-28.7-4.32-57.63-4.1-86.5c0.23-29.36,1.9-58.75,5.58-87.89
						c3.14-24.88,7.58-49.95,15.77-73.72c5.16-14.97,12.45-33.49,26.63-42.23c16.61-10.24,38.47,2.48,51.63,12.98
						c23.91,19.09,41.4,46.06,55.03,73.1c15.69,31.13,26.97,65.07,31.47,99.7c3.9,29.98,3.12,63.11-11.75,90.24
						c-17.75,32.4-56.27,50.12-91.04,57.05c-35.96,7.17-73.79,4.46-109.2-4.43c-26.04-6.54-54.84-16.27-75.22-34.52
						C976.85,234.1,974.72,236.21,976.16,237.5L976.16,237.5z"/>
				</g>
			</g>
		</g>
		<g>
			<path fill="#61578E" d="M1021.43,239.14c21.22,0,38.43,17.21,38.43,38.43c0,21.22-17.21,38.43-38.43,38.43
				c-21.22,0-38.43-17.21-38.43-38.43C983,256.34,1000.21,239.14,1021.43,239.14 M1021.43,231.14c-25.6,0-46.43,20.83-46.43,46.43
				S995.83,324,1021.43,324c25.6,0,46.43-20.83,46.43-46.43S1047.03,231.14,1021.43,231.14L1021.43,231.14z"/>
		</g>
	</g>
	<g>
		<g>
			<defs>
				<path id="SVGID_23_" d="M1060.73,121c-18.81,0-34.06,15.25-34.06,34.06s15.25,34.06,34.06,34.06s34.06-15.25,34.06-34.06
					S1079.54,121,1060.73,121z"/>
			</defs>
			<clipPath id="SVGID_11_">
				<use xlink:href="#SVGID_23_"  overflow="visible"/>
			</clipPath>
			<g clip-path="url(#SVGID_11_)">
				<g>
					<path fill="#ABABAB" d="M977.91,384.01c9.96,8.92,22.03,15.4,34.17,20.82c16.22,7.23,33.27,12.59,50.6,16.41
						c38.86,8.55,80.56,9.84,118.99-1.56c32.81-9.73,65.97-29.58,80.16-62.02c12.54-28.67,12.11-61.75,7.26-92.1
						c-5.58-34.89-17.65-68.96-34.3-100.09c-14.22-26.59-32.53-53.42-57.5-71.03c-13.71-9.67-34.36-19.16-50.22-8.93
						c-14.2,9.15-21.66,27.13-27.04,42.39c-8.5,24.11-12.99,49.63-16.22,74.92c-3.86,30.24-5.56,60.76-5.71,91.23
						c-0.15,29.64,1.15,59.35,4.65,88.79c2.71,22.81,6.37,46.09,14.34,67.74c4.12,11.19,10.72,27.45,23.65,30.86
						c7.1,1.87,15.27-0.93,21.76-3.67c10.52-4.43,20.11-10.94,29.12-17.89c25.38-19.58,47.31-43.78,67.12-68.86
						c21.7-27.46,41.27-56.93,56.76-88.35c12.1-24.56,23.57-52.28,23.39-80.14c-0.06-10.02-1.96-20.31-7.31-28.93
						c-5.09-8.2-12.79-14.5-20.93-19.53c-23.02-14.22-50.85-20.62-77.22-25.08c-33.42-5.65-67.48-7.65-101.34-7.33
						c-32.29,0.3-64.79,2.64-96.56,8.6c-21.12,3.96-45.51,8.95-62.98,22.36c-4.43,3.4-8.93,7.72-9.58,13.55
						c-0.6,5.28,1.62,10.51,4.22,14.98c8.98,15.41,24.22,27.44,38.13,38.13c45.37,34.84,97.46,61.98,149.8,84.64
						c26.34,11.4,53.28,21.65,80.95,29.36c21.39,5.97,43.99,11.12,66.35,10.39c13.7-0.45,30-3.53,37.74-16.19
						c10.39-16.99,3.36-40.63-4.12-57.21c-12.16-26.96-31.61-50.63-51.8-71.96c-23.62-24.94-49.9-47.42-77.74-67.52
						c-25.04-18.07-51.67-34.7-80.24-46.59c-17.33-7.21-40.44-15.91-59.28-9.27c-12.38,4.36-13.56,17.1-11.51,28.48
						c3.48,19.34,13.5,37.73,23.16,54.58c28.71,50.05,65.61,96.03,104.59,138.41c18.42,20.02,37.68,39.43,58.54,56.92
						c14.08,11.81,29.67,24.56,47.31,30.59c8.21,2.8,21.87,3.77,24.63-7.2c2.53-10.05-11.36-17.66-18.33-21.45
						c-17.49-9.51-36.97-15.59-56.02-21.08c-25.82-7.45-52.12-13.28-78.54-18.15c-28-5.16-56.24-9.22-84.6-11.81
						c-24.23-2.21-48.75-3.56-73.06-1.97c-14.76,0.97-32.77,2.22-45.32,11.02c-9.96,6.99-9.7,18.09-3.23,27.6
						c10.42,15.32,30.7,21.41,47.93,24.77c27.17,5.3,55.42,5.01,82.93,3.09c63.08-4.42,127.24-17.94,186.01-41.47
						c22.01-8.81,44.63-19.21,62.69-34.89c10.52-9.14,21.62-22.89,17.37-37.81c-4.32-15.15-20.7-24.85-33.77-31.51
						c-22-11.21-46.14-18.26-70.06-24.05c-58.98-14.28-120.54-21.02-181.19-21.07c-25.28-0.02-50.89,1.06-75.77,5.83
						c-14.45,2.77-33.39,6.73-43.28,18.79c-10.13,12.35-1.48,31.63,4.54,43.86c12.73,25.81,31.57,48.78,50.69,70.09
						c23.39,26.08,48.99,50.28,76.15,72.39c24,19.53,49.49,38.17,77.39,51.78c10.26,5,21.07,9.5,32.34,11.61
						c7.68,1.44,16.44,2.04,23.73-1.33c13.41-6.19,17-24.93,18.83-37.92c3.49-24.7,1.94-50.15-0.56-74.87
						c-3.14-31.06-8.54-61.89-15.38-92.34c-6.87-30.62-15.22-60.98-25.67-90.58c-8.29-23.48-17.68-47.31-31.26-68.31
						c-6.78-10.48-17.52-26.01-31.72-25.81c-16.31,0.23-29.48,17.82-38,29.63c-16.37,22.7-28.6,48.47-39.47,74.15
						c-12.86,30.39-23.63,61.71-32.45,93.5c-8.11,29.26-14.85,59.18-17.74,89.45c-1.77,18.52-3.79,41.61,5.29,58.73
						c6.47,12.21,18.58,12.86,30.72,9.4c19.56-5.57,37.47-17.63,53.87-29.27c49-34.8,92.94-77.94,131.85-123.59
						c18.26-21.42,35.66-43.86,50.21-68.01c10.12-16.8,20.51-35.82,22.47-55.7c4.42-44.89-55.86-39.78-84.38-34.43
						c-30.91,5.8-60.93,16.35-89.85,28.55c-30.99,13.08-61.09,28.48-89.66,46.26c-24.24,15.08-48.2,31.91-68.02,52.6
						c-11.57,12.07-26.19,29.21-24.37,47.27c1.42,14.08,15.21,18.88,27.5,19.93c21.07,1.81,42.96-3.45,63.11-9.01
						c26.62-7.34,52.55-17.22,77.74-28.49c24.77-11.09,49.05-23.61,71.77-38.5c14.51-9.51,71.68-47.83,39.58-68.08
						c-6.16-3.88-13.83-3-20.59-1.36c-11.17,2.71-21.77,7.98-31.76,13.54c-27.24,15.14-52.28,34.71-75.15,55.78
						c-20.76,19.13-42.13,40.75-54.94,66.25c-7.51,14.94-11.43,34.18,5.94,43.63c9.03,4.91,19.8,6.32,29.91,6.89
						c13.99,0.79,28.07-0.4,41.92-2.33c32.21-4.51,64.12-13.4,94.1-26c22.62-9.5,48.99-21.81,63.66-42.45c4.98-7,7.84-15.29,6-23.88
						c-2.01-9.39-8.55-17.36-15.43-23.73c-20.9-19.36-49.48-30.77-76.36-38.9c-30.68-9.28-63.8-14.95-95.9-12.12
						c-22.59,1.99-49.6,9.16-60.18,31.51c-13.42,28.37-1.2,61.77,13.28,87.16c17.12,30.01,41.21,57.07,68.73,77.92
						c10.31,7.81,21.66,15.37,34.13,19.24c6.87,2.13,14.19,3.1,20.25-1.41c6.51-4.84,10.66-12.71,13.97-19.91
						c5.02-10.91,8.52-22.5,11.38-34.14c7.1-28.88,10.41-58.93,10.39-88.64c-0.01-26.52-2.12-55.09-13.38-79.5
						c-4.16-9.03-10.01-17.68-18.4-23.27c-10.38-6.92-23.7-7.18-35.67-5.54c-36.85,5.07-67.13,33.39-87.52,62.8
						c-10.55,15.22-19.27,31.96-24.86,49.64c-3.93,12.44-7.72,27.99-4.34,41c2.05,7.91,8.55,13.81,15.11,18.17
						c9.83,6.53,21.24,10.7,32.49,14.05c29.42,8.77,60.59,12.32,91.19,13.57c27.69,1.13,56.69,0.9,83.73-5.85
						c8.61-2.15,33.44-9.34,26.47-23.05c-2.82-5.55-9.1-9.26-14.29-12.25c-8.82-5.07-18.27-9.03-27.69-12.83
						c-25.18-10.16-50.96-18.76-76.34-28.4c-24.34-9.24-49.36-18.87-71.22-33.24c-12.52-8.23-29.93-22.22-23.21-39.32
						c3.13-7.97,10.17-15.34,18.28-18.25c8.01-2.88,16.68-1.31,24.35,1.87c22.62,9.4,40.6,30.11,55.51,48.79
						c18.41,23.05,34.23,48.33,47.6,74.6c9.89,19.43,20.78,41.28,23.08,63.29c0.47,4.51,1.11,11.9-3.35,14.8
						c-5.45,3.55-11.91-0.88-15.67-4.79c-6.87-7.14-11.11-16.86-14.22-26.13c-4.04-12.04-6.25-24.71-6.81-37.38
						c-1.28-28.93,6.39-59.22,27.14-80.33c12.11-12.32,27.18-19.79,43.52-24.84c12.2-3.77,20.82-13.69,25.88-25.1
						c11.46-25.84,6.57-60.14-17.89-76.74c-8.04-5.46-19.06-10.62-29.01-8.14c-6.83,1.7-12.9,5.92-18.28,10.31
						c-17.43,14.23-30.98,33.5-43.34,52.09c-17.11,25.72-32.1,52.86-45.93,80.46c-14.3,28.53-27.33,57.72-38.83,87.49
						c-9.76,25.27-18.72,51.11-24.51,77.61c-2.09,9.57-3.81,19.32-4.22,29.12c-0.27,6.4-0.13,13.34,2.37,19.34
						c3.58,8.58,12.24,11.3,17.62,2.83c3.29-5.17,4.93-11.49,6.32-17.39c2.12-9,3.4-18.21,4.42-27.39
						c2.77-24.86,3.41-49.98,3.26-74.98c-0.18-28.54-1.58-57.1-4.37-85.51c-2.49-25.36-5.91-50.82-12.08-75.57
						c-3.91-15.69-8.65-34.36-20.01-46.56c-8.37-9-20.6-8.62-28.59,0.93c-11.1,13.27-7.5,34.79-4.13,50.16
						c5.89,26.87,17.03,52.66,29.12,77.26c13.98,28.46,30.13,55.91,48.04,82.07c15.26,22.28,31.81,44.31,51.47,62.95
						c9.56,9.06,25.19,24.16,39.94,21.01c3.83-0.82,8.68-3.04,7.83-7.74c-0.93-5.14-7.02-9.21-10.86-12.05
						c-19.01-14.07-41.09-24.42-61.98-35.3c-27.28-14.2-54.73-28.16-81.25-43.76c-11.85-6.97-23.56-14.25-34.62-22.44
						c-8.26-6.11-16.7-12.84-22.82-21.19c-3.43-4.68-7.03-11.07-4.59-16.97c2.42-5.83,8.91-9.41,14.32-11.94
						c20.11-9.42,44.05-11.67,65.9-13.18c29.54-2.03,59.37-1.15,88.79,2.15c28.21,3.17,56.77,8.46,83.27,18.91
						c18.21,7.18,40.22,18.36,47.5,37.98c7.44,20.05-2.96,42.33-17.69,56.01c-16.31,15.14-39.04,23.8-61.18,24.61
						c-20.86,0.76-42.89-6.27-54.22-24.93c-6.64-10.93-8.66-23.94-8.26-36.56c0.54-16.76,4.41-35.49,12.2-50.43
						c5.7-10.94,14.84-18.67,27.43-19.63c13.82-1.05,27.84,3.92,40.56,8.74c18.4,6.97,36.23,15.39,54.29,23.18
						c21.45,9.25,43.18,17.85,65.48,24.83c1.85,0.58,2.64-2.32,0.8-2.89c-24.41-7.64-48.1-17.23-71.52-27.46
						c-17.7-7.73-35.26-16.01-53.48-22.47c-12.4-4.39-26.21-8.6-39.51-6.54c-11.82,1.83-20.62,9.59-26.2,19.9
						c-7.6,14.04-11.34,31.25-12.71,47.07c-1.07,12.37-0.11,25.21,4.76,36.75c7.9,18.73,25.46,29.82,45.15,32.66
						c38.62,5.58,90.05-16.78,98.28-58.36c9.22-46.55-45.92-66.05-81.38-74.96c-28.15-7.07-57.22-10.61-86.18-11.99
						c-27.04-1.29-54.36-0.76-81.19,3.03c-17,2.4-37.74,5.45-51.61,16.56c-4.05,3.24-7.42,7.68-7.42,13.08
						c0,6.7,4.41,12.95,8.55,17.84c15.2,17.92,37.4,30.5,57.4,42.2c25.75,15.05,52.35,28.61,78.8,42.38
						c20.63,10.74,42.15,21.02,61.16,34.54c3.13,2.23,10.93,6.9,11.13,11.45c0.16,3.6-6.52,4.44-9.26,4.3
						c-6.86-0.34-13.38-4.42-18.83-8.24c-8.5-5.96-16.06-13.28-23.19-20.79c-19.1-20.15-35.55-42.86-50.69-66.08
						c-16.75-25.69-31.93-52.51-44.88-80.32c-10.89-23.39-20.98-48.08-25.26-73.66c-2.34-13.98-4.29-35.66,10.18-44.15
						c11.09-6.51,19.85,3,25.04,12.21c9.45,16.76,13.69,36.68,17.3,55.38c5,25.88,7.87,52.17,9.77,78.44
						c1.99,27.61,2.83,55.33,2.37,83.01c-0.37,22.63-1.36,45.44-4.84,67.83c-1.17,7.57-2.59,15.19-5.05,22.46
						c-1.26,3.74-2.99,9.14-6.57,11.38c-8.83,5.52-11.42-14.45-11.5-19.01c-0.39-20.58,5.63-41.54,11.46-61.06
						c8.31-27.83,18.78-55.03,30.24-81.7c23.14-53.87,49.98-108.04,85.33-155.06c10.88-14.47,23.87-31.58,40.74-39.44
						c7.71-3.59,14.15-2.49,21.99,0.68c14.99,6.06,25.78,18.66,30.02,34.19c3.79,13.86,2.7,29.2-2.76,42.47
						c-2.55,6.19-6.14,12.06-10.93,16.76c-4.98,4.89-10.58,7.18-17.11,9.24c-28.64,9-51.41,29.15-62.09,57.38
						c-9.28,24.52-9.56,52.39-3.36,77.68c2.49,10.13,6.07,20.27,11.57,29.19c3.59,5.83,8.5,12.26,15.25,14.55
						c4.67,1.58,10.49,0.64,13.28-3.75c3.05-4.8,2.42-11.48,1.68-16.82c-2.96-21.25-12.86-41.96-22.41-60.92
						c-12.83-25.47-28.02-49.92-45.48-72.48c-14.63-18.89-31.5-38.39-52.64-50.19c-14.69-8.2-32.29-10.83-45.22,1.96
						c-11.61,11.49-13.41,26.46-3.04,39.33c13.24,16.45,34.98,26.19,53.77,34.6c24.78,11.09,50.42,20.14,75.92,29.4
						c21.23,7.71,43.31,14.89,63.12,25.88c5.04,2.79,11.74,6.32,14.48,11.71c2.45,4.81-1.56,8.84-5.4,11.4
						c-7.73,5.16-17.5,7.37-26.48,9.12c-13.17,2.57-26.61,3.68-40.01,4.21c-30.9,1.22-62.16-0.71-92.65-5.94
						c-13.71-2.35-27.37-5.4-40.54-9.9c-10.19-3.48-20.73-7.81-29.07-14.78c-7.57-6.33-10.18-13.39-10.1-23.16
						c0.12-16.1,5.35-32.17,11.89-46.72c15.36-34.14,41.41-67.16,75.45-84.06c15.04-7.46,33.49-12.09,50.24-8.44
						c9.32,2.03,16.83,8.15,22.25,15.81c14.32,20.24,17.58,47.88,18.88,71.95c1.59,29.58-0.73,59.56-6.27,88.64
						c-2.42,12.72-5.49,25.38-9.77,37.61c-3.16,9.05-6.94,18.45-12.9,26.07c-4.31,5.5-9.08,8.56-16.2,7.65
						c-11.37-1.45-22.17-8.08-31.49-14.35c-27.97-18.81-52.16-44.96-70.31-73.25c-16.15-25.18-31.79-58.98-21.06-89.2
						c8.85-24.91,36.53-32.77,60.4-34.73c31.25-2.57,63.3,2.86,93.19,11.79c28.76,8.59,119.65,42.37,82.12,86.06
						c-17.4,20.26-44.98,32.24-69.34,41.57c-29.44,11.27-60.56,19.41-91.92,22.86c-12.91,1.42-26.06,2.09-39,0.72
						c-9.08-0.96-19.39-2.88-26.65-8.84c-15.52-12.74-1.54-36.57,6.79-49.22c16.61-25.22,39.09-46.85,62.05-66.24
						c22.14-18.71,46.22-36.6,72.65-48.81c11.92-5.51,33.23-14.73,42.27,0.28c6.76,11.22-5.97,24.77-13.28,31.99
						c-15.99,15.78-35.66,27.97-55.1,38.99c-23.9,13.55-48.89,25.27-74.44,35.36c-23.79,9.4-48.27,17.62-73.36,22.73
						c-16.38,3.34-36.56,7.19-52.78,1.06c-14.13-5.34-14.2-19.71-8.72-31.89c9.12-20.29,27.77-36.35,44.78-49.94
						c24.27-19.39,50.99-35.78,78.38-50.37c29.04-15.48,59.24-28.98,90.38-39.65c26.17-8.96,53.74-16.69,81.53-17.79
						c15.53-0.61,38.5,0.36,48.06,15.09c8.23,12.68,2.45,30.54-2.61,43.25c-8.84,22.21-22.45,42.59-36.52,61.78
						c-35.37,48.28-77.83,92.19-123.46,130.83c-19.24,16.29-39.36,31.96-61.2,44.64c-12.21,7.09-28.93,17.03-43.78,14.74
						c-14.54-2.24-17.08-22.04-17.94-33.74c-1.84-25.19,2.34-50.92,7.29-75.53c6.25-31.11,14.95-61.74,25.25-91.74
						c10.06-29.28,21.66-58.18,35.95-85.67c10.24-19.7,21.98-41.16,39.25-55.67c4.97-4.18,11.28-8.3,18.03-8.26
						c5.83,0.04,11.01,3.59,15.15,7.39c14.36,13.16,23.32,32.62,31.07,50.11c11.52,26,20.38,53.2,28.04,80.56
						c8.5,30.37,15.39,61.23,20.55,92.34c4.62,27.83,8.03,56.04,8.33,84.28c0.2,18.73,0.13,40.35-8.29,57.59
						c-2.55,5.23-6.24,10.2-11.85,12.32c-7.81,2.96-16.94,1.65-24.82-0.28c-25.55-6.26-49.12-21.44-70.46-36.27
						c-27.72-19.26-53.59-41.25-77.84-64.71c-23.04-22.29-45.03-46.11-63.63-72.28c-7.27-10.23-14.09-20.89-19.47-32.25
						c-3.91-8.25-7.48-17.39-7.68-26.64c-0.3-13.88,13.58-20.43,24.95-24.35c20.39-7.01,42.56-9.04,63.96-10.22
						c58.47-3.21,117.99,2,175.53,12.47c26.81,4.88,53.58,11.04,79.27,20.2c17.66,6.29,37.16,14.04,50.57,27.67
						c29.46,29.94-21.04,59.41-43.95,70.84c-25.97,12.96-53.73,22.36-81.65,30.1c-30.87,8.56-62.39,14.99-94.15,19.14
						c-28.95,3.78-58.37,5.88-87.56,4.13c-21.11-1.27-44.54-4.02-62.95-15.31c-8.75-5.37-22.32-18.49-15.62-29.95
						c6.21-10.63,23.64-12.9,34.49-14.39c21.63-2.97,43.81-2.38,65.55-1.09c27.01,1.6,53.92,4.84,80.63,9.08
						c26.99,4.28,53.84,9.59,80.36,16.22c21.44,5.36,42.92,11.43,63.37,19.9c7.18,2.97,14.33,6.27,20.87,10.49
						c3.91,2.53,8.57,5.71,10.58,10.1c4.17,9.11-8.14,12.4-14.69,11.2c-16.17-2.97-31.18-14.98-43.7-24.88
						c-19.9-15.73-38.18-33.53-55.68-51.87c-39.41-41.29-76.03-86.31-106.23-134.82c-11.37-18.26-22.56-37.51-28.99-58.16
						c-2.96-9.53-7.33-25.9,2.73-32.97c5.89-4.14,14.42-4.3,21.3-3.83c10.73,0.74,21.28,3.83,31.34,7.49
						c27.53,10.01,53.19,25.36,77.28,41.84c28.16,19.26,54.69,41.07,78.87,65.15c21.28,21.18,41.54,44.46,55.91,70.98
						c9.44,17.43,19.06,41.15,11.04,60.93c-5.45,13.46-21.02,17.32-34.13,18.12c-21.49,1.31-43.34-3.44-63.97-8.96
						c-27.1-7.24-53.52-17.03-79.33-27.99c-51.41-21.82-102.09-48.13-147.31-81.08c-15.17-11.06-31.25-23.27-42.2-38.77
						c-3.11-4.41-6.3-9.64-6.56-15.19c-0.26-5.47,3.36-9.37,7.34-12.67c7.11-5.87,15.97-9.65,24.56-12.74
						c11.65-4.19,23.74-7.12,35.88-9.49c30.74-6,62.22-8.41,93.51-8.94c33.37-0.56,66.95,1.12,99.96,6.27
						c26.67,4.16,54.59,10.15,78.34,23.51c8.52,4.79,16.84,10.83,22.45,18.98c5.71,8.31,7.8,18.38,7.95,28.32
						c0.42,27.53-11.03,55.1-22.97,79.34c-15.2,30.86-34.34,59.87-55.6,86.87c-19.31,24.53-40.61,48.16-65.12,67.62
						c-9.1,7.22-18.83,14.04-29.48,18.79c-6.23,2.78-14.56,6.01-21.47,4.03c-12.61-3.61-18.73-21.14-22.45-32.05
						c-7.49-21.96-11.04-45.32-13.58-68.31c-3.17-28.7-4.32-57.63-4.1-86.5c0.23-29.36,1.9-58.75,5.58-87.89
						c3.14-24.88,7.58-49.95,15.77-73.72c5.16-14.97,12.45-33.49,26.63-42.23c16.61-10.24,38.47,2.48,51.63,12.98
						c23.91,19.09,41.4,46.06,55.03,73.1c15.69,31.13,26.97,65.07,31.47,99.7c3.9,29.98,3.12,63.11-11.75,90.24
						c-17.75,32.4-56.27,50.12-91.04,57.05c-35.96,7.17-73.79,4.46-109.2-4.43c-26.04-6.54-54.84-16.27-75.22-34.52
						C978.59,380.61,976.46,382.72,977.91,384.01L977.91,384.01z"/>
				</g>
			</g>
		</g>
		<g>
			<path fill="#61578E" d="M1060.73,121c18.81,0,34.06,15.25,34.06,34.06s-15.25,34.06-34.06,34.06s-34.06-15.25-34.06-34.06
				S1041.92,121,1060.73,121 M1060.73,113c-23.19,0-42.06,18.87-42.06,42.06s18.87,42.06,42.06,42.06s42.06-18.87,42.06-42.06
				S1083.92,113,1060.73,113L1060.73,113z"/>
		</g>
	</g>
	<g>
		<g>
			<defs>
				<path id="SVGID_25_" d="M1196.27,254.27c0,12.78-10.36,23.15-23.15,23.15c-12.78,0-23.15-10.36-23.15-23.15
					c0-12.78,10.36-23.15,23.15-23.15C1185.91,231.12,1196.27,241.48,1196.27,254.27z"/>
			</defs>
			<clipPath id="SVGID_12_">
				<use xlink:href="#SVGID_25_"  overflow="visible"/>
			</clipPath>
			<g clip-path="url(#SVGID_12_)">
				<g>
					<path fill="#ABABAB" d="M842.69,346.53c9.96,8.92,22.03,15.4,34.17,20.82c16.22,7.23,33.27,12.59,50.6,16.41
						c38.86,8.55,80.56,9.84,118.99-1.56c32.81-9.73,65.97-29.58,80.16-62.02c12.54-28.67,12.11-61.75,7.26-92.1
						c-5.58-34.89-17.65-68.96-34.3-100.09c-14.22-26.59-32.53-53.42-57.5-71.03c-13.71-9.67-34.36-19.16-50.22-8.93
						c-14.2,9.15-21.66,27.13-27.04,42.39c-8.5,24.11-12.99,49.63-16.22,74.92c-3.86,30.24-5.56,60.76-5.71,91.23
						c-0.15,29.64,1.15,59.35,4.65,88.79c2.71,22.81,6.37,46.09,14.34,67.74c4.12,11.19,10.72,27.45,23.65,30.86
						c7.1,1.87,15.27-0.93,21.76-3.67c10.52-4.43,20.11-10.94,29.12-17.89c25.38-19.58,47.31-43.78,67.12-68.86
						c21.7-27.46,41.27-56.93,56.76-88.35c12.1-24.56,23.57-52.28,23.39-80.14c-0.06-10.02-1.96-20.31-7.31-28.93
						c-5.09-8.2-12.79-14.5-20.93-19.53c-23.02-14.22-50.85-20.62-77.22-25.08c-33.42-5.65-67.48-7.65-101.34-7.33
						c-32.29,0.3-64.79,2.64-96.56,8.6c-21.12,3.96-45.51,8.95-62.98,22.36c-4.43,3.4-8.93,7.72-9.58,13.55
						c-0.6,5.28,1.62,10.51,4.22,14.98c8.98,15.41,24.22,27.44,38.13,38.13c45.37,34.84,97.46,61.98,149.8,84.64
						c26.34,11.4,53.28,21.65,80.95,29.36c21.39,5.97,43.99,11.12,66.35,10.39c13.7-0.45,30-3.53,37.74-16.19
						c10.39-16.99,3.36-40.63-4.12-57.21c-12.16-26.96-31.61-50.63-51.8-71.96c-23.62-24.94-49.9-47.42-77.74-67.52
						c-25.04-18.07-51.67-34.7-80.24-46.59c-17.33-7.21-40.44-15.91-59.28-9.27c-12.38,4.36-13.56,17.1-11.51,28.48
						c3.48,19.34,13.5,37.73,23.16,54.58c28.71,50.05,65.61,96.03,104.59,138.41c18.42,20.02,37.68,39.43,58.54,56.92
						c14.08,11.81,29.67,24.56,47.31,30.59c8.21,2.8,21.87,3.77,24.63-7.2c2.53-10.05-11.36-17.66-18.33-21.45
						c-17.49-9.51-36.97-15.59-56.02-21.08c-25.82-7.45-52.12-13.28-78.54-18.15c-28-5.16-56.24-9.22-84.6-11.81
						c-24.23-2.21-48.75-3.56-73.06-1.97c-14.76,0.97-32.77,2.22-45.32,11.02c-9.96,6.99-9.7,18.09-3.23,27.6
						c10.42,15.32,30.7,21.41,47.93,24.77c27.17,5.3,55.42,5.01,82.93,3.09c63.08-4.42,127.24-17.94,186.01-41.47
						c22.01-8.81,44.63-19.21,62.69-34.89c10.52-9.14,21.62-22.89,17.37-37.81c-4.32-15.15-20.7-24.85-33.77-31.51
						c-22-11.21-46.14-18.26-70.06-24.05c-58.98-14.28-120.54-21.02-181.19-21.07c-25.28-0.02-50.89,1.06-75.77,5.83
						c-14.45,2.77-33.39,6.73-43.28,18.79c-10.13,12.35-1.48,31.63,4.54,43.86c12.73,25.81,31.57,48.78,50.69,70.09
						c23.39,26.08,48.99,50.28,76.15,72.39c24,19.53,49.49,38.17,77.39,51.78c10.26,5,21.07,9.5,32.34,11.61
						c7.68,1.44,16.44,2.04,23.73-1.33c13.41-6.19,17-24.93,18.83-37.92c3.49-24.7,1.94-50.15-0.56-74.87
						c-3.14-31.06-8.54-61.89-15.38-92.34c-6.87-30.62-15.22-60.98-25.67-90.58c-8.29-23.48-17.68-47.31-31.26-68.31
						c-6.78-10.48-17.52-26.01-31.72-25.81c-16.31,0.23-29.48,17.82-38,29.63c-16.37,22.7-28.6,48.47-39.47,74.15
						c-12.86,30.39-23.63,61.71-32.45,93.5c-8.11,29.26-14.85,59.18-17.74,89.45c-1.77,18.52-3.79,41.61,5.29,58.73
						c6.47,12.21,18.58,12.86,30.72,9.4c19.56-5.57,37.47-17.63,53.87-29.27c49-34.8,92.94-77.94,131.85-123.59
						c18.26-21.42,35.66-43.86,50.21-68.01c10.12-16.8,20.51-35.82,22.47-55.7c4.42-44.89-55.86-39.78-84.38-34.43
						c-30.91,5.8-60.93,16.35-89.85,28.55c-30.99,13.08-61.09,28.48-89.66,46.26c-24.24,15.08-48.2,31.91-68.02,52.6
						c-11.57,12.07-26.19,29.21-24.37,47.27c1.42,14.08,15.21,18.88,27.5,19.93c21.07,1.81,42.96-3.45,63.11-9.01
						c26.62-7.34,52.55-17.22,77.74-28.49c24.77-11.09,49.05-23.61,71.77-38.5c14.51-9.51,71.68-47.83,39.58-68.08
						c-6.16-3.88-13.83-3-20.59-1.36c-11.17,2.71-21.77,7.98-31.76,13.54c-27.24,15.14-52.28,34.71-75.15,55.78
						c-20.76,19.13-42.13,40.75-54.94,66.25c-7.51,14.94-11.43,34.18,5.94,43.63c9.03,4.91,19.8,6.32,29.91,6.89
						c13.99,0.79,28.07-0.4,41.92-2.33c32.21-4.51,64.12-13.4,94.1-26c22.62-9.5,48.99-21.81,63.66-42.45c4.98-7,7.84-15.29,6-23.88
						c-2.01-9.39-8.55-17.36-15.43-23.73c-20.9-19.36-49.48-30.77-76.36-38.9c-30.68-9.28-63.8-14.95-95.9-12.12
						c-22.59,1.99-49.6,9.16-60.18,31.51c-13.42,28.37-1.2,61.77,13.28,87.16c17.12,30.01,41.21,57.07,68.73,77.92
						c10.31,7.81,21.66,15.37,34.13,19.24c6.87,2.13,14.19,3.1,20.25-1.41c6.51-4.84,10.66-12.71,13.97-19.91
						c5.02-10.91,8.52-22.5,11.38-34.14c7.1-28.88,10.41-58.93,10.39-88.64c-0.01-26.52-2.12-55.09-13.38-79.5
						c-4.16-9.03-10.01-17.68-18.4-23.27c-10.38-6.92-23.7-7.18-35.67-5.54c-36.85,5.07-67.13,33.39-87.52,62.8
						c-10.55,15.22-19.27,31.96-24.86,49.64c-3.93,12.44-7.72,27.99-4.34,41c2.05,7.91,8.55,13.81,15.11,18.17
						c9.83,6.53,21.24,10.7,32.49,14.05c29.42,8.77,60.59,12.32,91.19,13.57c27.69,1.13,56.69,0.9,83.73-5.85
						c8.61-2.15,33.44-9.34,26.47-23.05c-2.82-5.55-9.1-9.26-14.29-12.25c-8.82-5.07-18.27-9.03-27.69-12.83
						c-25.18-10.16-50.96-18.76-76.34-28.4c-24.34-9.24-49.36-18.87-71.22-33.24c-12.52-8.23-29.93-22.22-23.21-39.32
						c3.13-7.97,10.17-15.34,18.28-18.25c8.01-2.88,16.68-1.31,24.35,1.87c22.62,9.4,40.6,30.11,55.51,48.79
						c18.41,23.05,34.23,48.33,47.6,74.6c9.89,19.43,20.78,41.28,23.08,63.29c0.47,4.51,1.11,11.9-3.35,14.8
						c-5.45,3.55-11.91-0.88-15.67-4.79c-6.87-7.14-11.11-16.86-14.22-26.13c-4.04-12.04-6.25-24.71-6.81-37.38
						c-1.28-28.93,6.39-59.22,27.14-80.33c12.11-12.32,27.18-19.79,43.52-24.84c12.2-3.77,20.82-13.69,25.88-25.1
						c11.46-25.84,6.57-60.14-17.89-76.74c-8.04-5.46-19.06-10.62-29.01-8.14c-6.83,1.7-12.9,5.92-18.28,10.31
						c-17.43,14.23-30.98,33.5-43.34,52.09c-17.11,25.72-32.1,52.86-45.93,80.46c-14.3,28.53-27.33,57.72-38.83,87.49
						c-9.76,25.27-18.72,51.11-24.51,77.61c-2.09,9.57-3.81,19.32-4.22,29.12c-0.27,6.4-0.13,13.34,2.37,19.34
						c3.58,8.58,12.24,11.3,17.62,2.83c3.29-5.17,4.93-11.49,6.32-17.39c2.12-9,3.4-18.21,4.42-27.39
						c2.77-24.86,3.41-49.98,3.26-74.98c-0.18-28.54-1.58-57.1-4.37-85.51c-2.49-25.36-5.91-50.82-12.08-75.57
						c-3.91-15.69-8.65-34.36-20.01-46.56c-8.37-9-20.6-8.62-28.59,0.93c-11.1,13.27-7.5,34.79-4.13,50.16
						c5.89,26.87,17.03,52.66,29.12,77.26c13.98,28.46,30.13,55.91,48.04,82.07c15.26,22.28,31.81,44.31,51.47,62.95
						c9.56,9.06,25.19,24.16,39.94,21.01c3.83-0.82,8.68-3.04,7.83-7.74c-0.93-5.14-7.02-9.21-10.86-12.05
						c-19.01-14.07-41.09-24.42-61.98-35.3c-27.28-14.2-54.73-28.16-81.25-43.76c-11.85-6.97-23.56-14.25-34.62-22.44
						c-8.26-6.11-16.7-12.84-22.82-21.19c-3.43-4.68-7.03-11.07-4.59-16.97c2.42-5.83,8.91-9.41,14.32-11.94
						c20.11-9.42,44.05-11.67,65.9-13.18c29.54-2.03,59.37-1.15,88.79,2.15c28.21,3.17,56.77,8.46,83.27,18.91
						c18.21,7.18,40.22,18.36,47.5,37.98c7.44,20.05-2.96,42.33-17.69,56.01c-16.31,15.14-39.04,23.8-61.18,24.61
						c-20.86,0.76-42.89-6.27-54.22-24.93c-6.64-10.93-8.66-23.94-8.26-36.56c0.54-16.76,4.41-35.49,12.2-50.43
						c5.7-10.94,14.84-18.67,27.43-19.63c13.82-1.05,27.84,3.92,40.56,8.74c18.4,6.97,36.23,15.39,54.29,23.18
						c21.45,9.25,43.18,17.85,65.48,24.83c1.85,0.58,2.64-2.32,0.8-2.89c-24.41-7.64-48.1-17.23-71.52-27.46
						c-17.7-7.73-35.26-16.01-53.48-22.47c-12.4-4.39-26.21-8.6-39.51-6.54c-11.82,1.83-20.62,9.59-26.2,19.9
						c-7.6,14.04-11.34,31.25-12.71,47.07c-1.07,12.37-0.11,25.21,4.76,36.75c7.9,18.73,25.46,29.82,45.15,32.66
						c38.62,5.58,90.05-16.78,98.28-58.36c9.22-46.55-45.92-66.05-81.38-74.96c-28.15-7.07-57.22-10.61-86.18-11.99
						c-27.04-1.29-54.36-0.76-81.19,3.03c-17,2.4-37.74,5.45-51.61,16.56c-4.05,3.24-7.42,7.68-7.42,13.08
						c0,6.7,4.41,12.95,8.55,17.84c15.2,17.92,37.4,30.5,57.4,42.2c25.75,15.05,52.35,28.61,78.8,42.38
						c20.63,10.74,42.15,21.02,61.16,34.54c3.13,2.23,10.93,6.9,11.13,11.45c0.16,3.6-6.52,4.44-9.26,4.3
						c-6.86-0.34-13.38-4.42-18.83-8.24c-8.5-5.96-16.06-13.28-23.19-20.79c-19.1-20.15-35.55-42.86-50.69-66.08
						c-16.75-25.69-31.93-52.51-44.88-80.32c-10.89-23.39-20.98-48.08-25.26-73.66c-2.34-13.98-4.29-35.66,10.18-44.15
						c11.09-6.51,19.85,3,25.04,12.21c9.45,16.76,13.69,36.68,17.3,55.38c5,25.88,7.87,52.17,9.77,78.44
						c1.99,27.61,2.83,55.33,2.37,83.01c-0.37,22.63-1.36,45.44-4.84,67.83c-1.17,7.57-2.59,15.19-5.05,22.46
						c-1.26,3.74-2.99,9.14-6.57,11.38c-8.83,5.52-11.42-14.45-11.5-19.01c-0.39-20.58,5.63-41.54,11.46-61.06
						c8.31-27.83,18.78-55.03,30.24-81.7c23.14-53.87,49.98-108.04,85.33-155.06c10.88-14.47,23.87-31.58,40.74-39.44
						c7.71-3.59,14.15-2.49,21.99,0.68c14.99,6.06,25.78,18.66,30.02,34.19c3.79,13.86,2.7,29.2-2.76,42.47
						c-2.55,6.19-6.14,12.06-10.93,16.76c-4.98,4.89-10.58,7.18-17.11,9.24c-28.64,9-51.41,29.15-62.09,57.38
						c-9.28,24.52-9.56,52.39-3.36,77.68c2.49,10.13,6.07,20.27,11.57,29.19c3.59,5.83,8.5,12.26,15.25,14.55
						c4.67,1.58,10.49,0.64,13.28-3.75c3.05-4.8,2.42-11.48,1.68-16.82c-2.96-21.25-12.86-41.96-22.41-60.92
						c-12.83-25.47-28.02-49.92-45.48-72.48c-14.63-18.89-31.5-38.39-52.64-50.19c-14.69-8.2-32.29-10.83-45.22,1.96
						c-11.61,11.49-13.41,26.46-3.04,39.33c13.24,16.45,34.98,26.19,53.77,34.6c24.78,11.09,50.42,20.14,75.92,29.4
						c21.23,7.71,43.31,14.89,63.12,25.88c5.04,2.79,11.74,6.32,14.48,11.71c2.45,4.81-1.56,8.84-5.4,11.4
						c-7.73,5.16-17.5,7.37-26.48,9.12c-13.17,2.57-26.61,3.68-40.01,4.21c-30.9,1.22-62.16-0.71-92.65-5.94
						c-13.71-2.35-27.37-5.4-40.54-9.9c-10.19-3.48-20.73-7.81-29.07-14.78c-7.57-6.33-10.18-13.39-10.1-23.16
						c0.12-16.1,5.35-32.17,11.89-46.72c15.36-34.14,41.41-67.16,75.45-84.06c15.04-7.46,33.49-12.09,50.24-8.44
						c9.32,2.03,16.83,8.15,22.25,15.81c14.32,20.24,17.58,47.88,18.88,71.95c1.59,29.58-0.73,59.56-6.27,88.64
						c-2.42,12.72-5.49,25.38-9.77,37.61c-3.16,9.05-6.94,18.45-12.9,26.07c-4.31,5.5-9.08,8.56-16.2,7.65
						c-11.37-1.45-22.17-8.08-31.49-14.35c-27.97-18.81-52.16-44.96-70.31-73.25c-16.15-25.18-31.79-58.98-21.06-89.2
						c8.85-24.91,36.53-32.77,60.4-34.73c31.25-2.57,63.3,2.86,93.19,11.79c28.76,8.59,119.65,42.37,82.12,86.06
						c-17.4,20.26-44.98,32.24-69.34,41.57c-29.44,11.27-60.56,19.41-91.92,22.86c-12.91,1.42-26.06,2.09-39,0.72
						c-9.08-0.96-19.39-2.88-26.65-8.84c-15.52-12.74-1.54-36.57,6.79-49.22c16.61-25.22,39.09-46.85,62.05-66.24
						c22.14-18.71,46.22-36.6,72.65-48.81c11.92-5.51,33.23-14.73,42.27,0.28c6.76,11.22-5.97,24.77-13.28,31.99
						c-15.99,15.78-35.66,27.97-55.1,38.99c-23.9,13.55-48.89,25.27-74.44,35.36c-23.79,9.4-48.27,17.62-73.36,22.73
						c-16.38,3.34-36.56,7.19-52.78,1.06c-14.13-5.34-14.2-19.71-8.72-31.89c9.12-20.29,27.77-36.35,44.78-49.94
						c24.27-19.39,50.99-35.78,78.38-50.37c29.04-15.48,59.24-28.98,90.38-39.65c26.17-8.96,53.74-16.69,81.53-17.79
						c15.53-0.61,38.5,0.36,48.06,15.09c8.23,12.68,2.45,30.54-2.61,43.25c-8.84,22.21-22.45,42.59-36.52,61.78
						c-35.37,48.28-77.83,92.19-123.46,130.83c-19.24,16.29-39.36,31.96-61.2,44.64c-12.21,7.09-28.93,17.03-43.78,14.74
						c-14.54-2.24-17.08-22.04-17.94-33.74c-1.84-25.19,2.34-50.92,7.29-75.53c6.25-31.11,14.95-61.74,25.25-91.74
						c10.06-29.28,21.66-58.18,35.95-85.67c10.24-19.7,21.98-41.16,39.25-55.67c4.97-4.18,11.28-8.3,18.03-8.26
						c5.83,0.04,11.01,3.59,15.15,7.39c14.36,13.16,23.32,32.62,31.07,50.11c11.52,26,20.38,53.2,28.04,80.56
						c8.5,30.37,15.39,61.23,20.55,92.34c4.62,27.83,8.03,56.04,8.33,84.28c0.2,18.73,0.13,40.35-8.29,57.59
						c-2.55,5.23-6.24,10.2-11.85,12.32c-7.81,2.96-16.94,1.65-24.82-0.28c-25.55-6.26-49.12-21.44-70.46-36.27
						c-27.72-19.26-53.59-41.25-77.84-64.71c-23.04-22.29-45.03-46.11-63.63-72.28c-7.27-10.23-14.09-20.89-19.47-32.25
						c-3.91-8.25-7.48-17.39-7.68-26.64c-0.3-13.88,13.58-20.43,24.95-24.35c20.39-7.01,42.56-9.04,63.96-10.22
						c58.47-3.21,117.99,2,175.53,12.47c26.81,4.88,53.58,11.04,79.27,20.2c17.66,6.29,37.16,14.04,50.57,27.67
						c29.46,29.94-21.04,59.41-43.95,70.84c-25.97,12.96-53.73,22.36-81.65,30.1c-30.87,8.56-62.39,14.99-94.15,19.14
						c-28.95,3.78-58.37,5.88-87.56,4.13c-21.11-1.27-44.54-4.02-62.95-15.31c-8.75-5.37-22.32-18.49-15.62-29.95
						c6.21-10.63,23.64-12.9,34.49-14.39c21.63-2.97,43.81-2.38,65.55-1.09c27.01,1.6,53.92,4.84,80.63,9.08
						c26.99,4.28,53.84,9.59,80.36,16.22c21.44,5.36,42.92,11.43,63.37,19.9c7.18,2.97,14.33,6.27,20.87,10.49
						c3.91,2.53,8.57,5.71,10.58,10.1c4.17,9.11-8.14,12.4-14.69,11.2c-16.17-2.97-31.18-14.98-43.7-24.88
						c-19.9-15.73-38.18-33.53-55.68-51.87c-39.41-41.29-76.03-86.31-106.23-134.82c-11.37-18.26-22.56-37.51-28.99-58.16
						c-2.96-9.53-7.33-25.9,2.73-32.97c5.89-4.14,14.42-4.3,21.3-3.83c10.73,0.74,21.28,3.83,31.34,7.49
						c27.53,10.01,53.19,25.36,77.28,41.84c28.16,19.26,54.69,41.07,78.87,65.15c21.28,21.18,41.54,44.46,55.91,70.98
						c9.44,17.43,19.06,41.15,11.04,60.93c-5.45,13.46-21.02,17.32-34.13,18.12c-21.49,1.31-43.34-3.44-63.97-8.96
						c-27.1-7.24-53.52-17.03-79.33-27.99C955.33,264.3,904.65,238,859.43,205.05c-15.17-11.06-31.25-23.27-42.2-38.77
						c-3.11-4.41-6.3-9.64-6.56-15.19c-0.26-5.47,3.36-9.37,7.34-12.67c7.11-5.87,15.97-9.65,24.56-12.74
						c11.65-4.19,23.74-7.12,35.88-9.49c30.74-6,62.22-8.41,93.51-8.94c33.37-0.56,66.95,1.12,99.96,6.27
						c26.67,4.16,54.59,10.15,78.34,23.51c8.52,4.79,16.84,10.83,22.45,18.98c5.71,8.31,7.8,18.38,7.95,28.32
						c0.42,27.53-11.03,55.1-22.97,79.34c-15.2,30.86-34.34,59.87-55.6,86.87c-19.31,24.53-40.61,48.16-65.12,67.62
						c-9.1,7.22-18.83,14.04-29.48,18.79c-6.23,2.78-14.56,6.01-21.47,4.03c-12.61-3.61-18.73-21.14-22.45-32.05
						c-7.49-21.96-11.04-45.32-13.58-68.31c-3.17-28.7-4.32-57.63-4.1-86.5c0.23-29.36,1.9-58.75,5.58-87.89
						c3.14-24.88,7.58-49.95,15.77-73.72c5.16-14.97,12.45-33.49,26.63-42.23c16.61-10.24,38.47,2.48,51.63,12.98
						c23.91,19.09,41.4,46.06,55.03,73.1c15.69,31.13,26.97,65.07,31.47,99.7c3.9,29.98,3.12,63.11-11.75,90.24
						c-17.75,32.4-56.27,50.12-91.04,57.05c-35.96,7.17-73.79,4.46-109.2-4.43c-26.04-6.54-54.84-16.27-75.22-34.52
						C843.37,343.12,841.25,345.23,842.69,346.53L842.69,346.53z"/>
				</g>
			</g>
		</g>
		<g>
			<path fill="#61578E" d="M1173.13,231.12c12.78,0,23.15,10.36,23.15,23.15c0,12.78-10.36,23.15-23.15,23.15
				c-12.78,0-23.15-10.36-23.15-23.15C1149.98,241.48,1160.34,231.12,1173.13,231.12 M1173.13,223.12
				c-17.17,0-31.15,13.97-31.15,31.15c0,17.17,13.97,31.15,31.15,31.15c17.17,0,31.15-13.97,31.15-31.15
				C1204.27,237.09,1190.3,223.12,1173.13,223.12L1173.13,223.12z"/>
		</g>
	</g>
</g>
</svg>
