<?xml version="1.0" encoding="utf-8"?>
<svg version="1.1" xmlns="http://www.w3.org/2000/svg" width="640" height="275">
<style type="text/css">
	.st0{fill:none;stroke:#8B80A9;stroke-width:1.5}
	.st1{fill:#8B80A9}
	.st2{fill:#3D2C70}
	.st3{fill:#FFFFFF}
	.st4{fill:#222222}
	.st5{stroke:#222222;stroke-width:2}
</style>
<line class="st0" x1="200" y1="205" x2="105.38" y2="205"/>
<polygon class="st1" points="106.48,201.28 100,205.02 106.48,208.76"/>
<line class="st0" x1="200" y1="225" x2="105.38" y2="225"/>
<polygon class="st1" points="106.48,221.28 100,225.02 106.48,228.76"/>
<line class="st0" x1="200" y1="185" x2="105.38" y2="185"/>
<polygon class="st1" points="106.48,181.28 100,185.02 106.48,188.76"/>
<path class="st1" d="M0,225c0,11.05,8.95,20,20,20h60c11.05,0,20-8.95,20-20v-40c0-11.05-8.95-20-20-20H20
c-11.05,0-20,8.95-20,20V225z"/>
<path class="st2" d="M200,225c0,11.05,8.95,20,20,20h60c11.05,0,20-8.95,20-20v-40c0-11.05-8.95-20-20-20h-60
c-11.05,0-20,8.95-20,20V225z"/>
<path class="st3" d="M21.82,205.73c0,2.46-1.18,4.23-3.17,4.23c-0.88,0-1.6-0.38-2.08-1.02l-0.12,0.76h-2.1v-11.13l2.37-0.26
v4.23c0.46-0.65,1.28-1.07,2.1-1.07C20.79,201.49,21.82,203.06,21.82,205.73z M19.36,205.73c0-2.03-0.54-2.5-1.27-2.5
c-0.57,0-1.02,0.34-1.37,0.93v3.3c0.3,0.5,0.74,0.78,1.26,0.78C18.79,208.24,19.36,207.59,19.36,205.73z"/>
<path class="st3" d="M30.33,208.37l-0.5,1.54c-0.93-0.08-1.54-0.36-1.92-1.14c-0.57,0.87-1.46,1.18-2.4,1.18
c-1.59,0-2.6-1.03-2.6-2.49c0-1.74,1.32-2.69,3.74-2.69h0.81v-0.34c0-0.95-0.38-1.23-1.35-1.23c-0.51,0-1.29,0.15-2.08,0.42
l-0.54-1.56c1-0.38,2.1-0.58,3-0.58c2.31,0,3.3,0.98,3.3,2.82v3.09C29.79,208.01,29.95,208.24,30.33,208.37z M27.46,207.52v-1.42
h-0.58c-1.08,0-1.6,0.38-1.6,1.17c0,0.63,0.34,1,0.93,1C26.74,208.27,27.18,207.98,27.46,207.52z"/>
<path class="st3" d="M38.01,202.46l-1.02,1.41c-0.51-0.39-0.97-0.57-1.51-0.57c-1.02,0-1.61,0.69-1.61,2.47
c0,1.77,0.63,2.31,1.58,2.31c0.57,0,0.96-0.18,1.53-0.54l1.03,1.47c-0.73,0.58-1.59,0.94-2.68,0.94c-2.45,0-3.94-1.65-3.94-4.17
c0-2.53,1.51-4.3,3.9-4.3C36.39,201.49,37.24,201.82,38.01,202.46z"/>
<path class="st3" d="M41.53,209.71h-2.37v-11.13l2.37-0.26V209.71z M44.04,205.24l2.61,4.47h-2.67l-2.37-4.35l2.43-3.62h2.42
L44.04,205.24z"/>
<path class="st3" d="M54.25,206.42h-4.92c0.15,1.42,0.82,1.81,1.8,1.81c0.64,0,1.21-0.22,1.9-0.71l0.98,1.32
c-0.79,0.63-1.82,1.11-3.11,1.11c-2.65,0-4-1.71-4-4.2c0-2.38,1.31-4.28,3.72-4.28c2.28,0,3.67,1.5,3.67,4.08
C54.3,205.82,54.28,206.18,54.25,206.42z M51.97,204.89c-0.01-1.08-0.34-1.83-1.29-1.83c-0.79,0-1.25,0.5-1.37,1.93h2.66V204.89z
"/>
<path class="st3" d="M62.68,203.89v5.82h-2.37v-5.41c0-0.84-0.29-1.07-0.75-1.07c-0.52,0-0.96,0.38-1.38,1.04v5.44h-2.37v-7.96
h2.07l0.17,0.95c0.67-0.78,1.44-1.2,2.43-1.2C61.86,201.49,62.68,202.37,62.68,203.89z"/>
<path class="st3" d="M71.76,198.58v11.13h-2.1l-0.12-0.93c-0.45,0.66-1.18,1.18-2.26,1.18c-2.03,0-3.03-1.68-3.03-4.26
c0-2.46,1.25-4.21,3.3-4.21c0.72,0,1.37,0.29,1.85,0.75v-3.92L71.76,198.58z M69.39,207.34v-3.45c-0.36-0.42-0.72-0.67-1.23-0.67
c-0.85,0-1.46,0.72-1.46,2.5c0,1.98,0.54,2.5,1.32,2.5C68.58,208.22,69.01,207.92,69.39,207.34z"/>
<path class="st3" d="M82.12,205.81l-0.54,3.9h-2.43l0.55-3.88l-2.37-6.51h2.58l1.26,4.58l2.54-4.58h2.61L82.12,205.81z"/>
<path class="st3" d="M237.64,208.37l-0.5,1.54c-0.93-0.08-1.54-0.36-1.92-1.14c-0.57,0.87-1.46,1.19-2.4,1.19
c-1.59,0-2.6-1.04-2.6-2.49c0-1.74,1.32-2.68,3.74-2.68h0.81v-0.34c0-0.95-0.38-1.23-1.35-1.23c-0.51,0-1.29,0.15-2.08,0.42
l-0.54-1.56c1-0.38,2.1-0.58,3-0.58c2.31,0,3.3,0.97,3.3,2.82v3.09C237.1,208.01,237.27,208.24,237.64,208.37z M234.78,207.52
v-1.42h-0.58c-1.08,0-1.6,0.38-1.6,1.17c0,0.63,0.34,1,0.93,1C234.06,208.27,234.49,207.98,234.78,207.52z"/>
<path class="st3" d="M246.61,205.7c0,2.46-1.2,4.26-3.17,4.26c-0.78,0-1.44-0.27-1.93-0.84v3.66l-2.37,0.26v-11.29h2.08
l0.12,0.88c0.66-0.83,1.51-1.14,2.25-1.14C245.7,201.49,246.61,203.12,246.61,205.7z M244.15,205.73c0-1.98-0.48-2.5-1.3-2.5
c-0.51,0-0.99,0.34-1.33,0.93v3.36c0.33,0.48,0.72,0.71,1.21,0.71C243.61,208.22,244.15,207.52,244.15,205.73z"/>
<path class="st3" d="M255.72,205.7c0,2.46-1.2,4.26-3.17,4.26c-0.78,0-1.44-0.27-1.93-0.84v3.66l-2.37,0.26v-11.29h2.08
l0.12,0.88c0.66-0.83,1.51-1.14,2.25-1.14C254.8,201.49,255.72,203.12,255.72,205.7z M253.26,205.73c0-1.98-0.48-2.5-1.3-2.5
c-0.51,0-0.99,0.34-1.33,0.93v3.36c0.33,0.48,0.72,0.71,1.21,0.71C252.72,208.22,253.26,207.52,253.26,205.73z"/>
<path class="st3" d="M265.71,205.81l-0.54,3.9h-2.43l0.55-3.88l-2.37-6.51h2.58l1.26,4.57l2.54-4.57h2.61L265.71,205.81z"/>
<path class="st1" d="M123.36,170.84l-0.57,0.71c-0.52-0.4-1.09-0.61-1.69-0.61c-0.83,0-1.37,0.35-1.37,0.92
c0,0.55,0.46,0.75,1.38,1.04c1.29,0.4,1.94,0.98,1.94,2.05c0,1.52-1.42,2.2-2.85,2.2c-1.2,0-2-0.47-2.54-0.99l0.69-0.7
c0.49,0.44,1.13,0.73,1.9,0.73c1.21,0,1.55-0.66,1.55-1.12c0-0.69-0.35-0.92-1.44-1.26c-1.31-0.4-1.83-0.94-1.83-1.87
c0-0.91,0.81-1.95,2.59-1.95C122.06,169.99,122.78,170.32,123.36,170.84z"/>
<path class="st1" d="M130.55,172.68c0,1.92-0.96,4.47-3.64,4.47c-0.47,0-0.87-0.08-1.3-0.22l-0.39,2.72l-1.18,0.16l1.35-9.66
h1.01l-0.03,0.87c0.73-0.81,1.38-1.03,2.09-1.03C129.77,169.99,130.55,170.95,130.55,172.68z M126.33,171.93l-0.56,4.07
c0.43,0.16,0.73,0.21,1.21,0.21c1.7,0,2.34-2.08,2.34-3.61c0-1.22-0.51-1.65-1.22-1.65S126.82,171.41,126.33,171.93z"/>
<path class="st1" d="M133.2,174.45c0.03,1.25,0.61,1.7,1.48,1.7c0.64,0,1.21-0.19,1.83-0.64l0.51,0.81
c-0.74,0.53-1.55,0.83-2.46,0.83c-1.68,0-2.61-1.05-2.61-2.78c0-1.87,0.92-4.38,3.52-4.38c1.46,0,2.17,0.83,2.17,1.74
C137.65,173.66,135.59,174.19,133.2,174.45z M136.4,171.77c0-0.33-0.2-0.83-0.94-0.83c-1.43,0-2.03,1.35-2.2,2.6
C135.23,173.32,136.4,172.94,136.4,171.77z"/>
<path class="st1" d="M144.2,170.75l-0.64,0.74c-0.42-0.36-0.81-0.51-1.34-0.51c-1.73,0-2.24,2.05-2.24,3.47
c0,1.2,0.52,1.69,1.39,1.69c0.6,0,1.04-0.2,1.59-0.53l0.48,0.83c-0.68,0.48-1.39,0.72-2.14,0.72c-1.62,0-2.56-1.04-2.56-2.8
c0-1.79,0.94-4.37,3.47-4.37C142.98,169.99,143.64,170.21,144.2,170.75z"/>
<path class="st1" d="M146.12,177h-1.18l0.96-6.85h1.18L146.12,177z M147.66,167.74c-0.06,0.43-0.4,0.74-0.88,0.74
c-0.52,0-0.82-0.39-0.75-0.87c0.06-0.44,0.42-0.75,0.88-0.75C147.44,166.86,147.72,167.25,147.66,167.74z"/>
<path class="st1" d="M153.66,177h-1.2l0.83-5.93h-2.61l-0.78,5.55c-0.27,1.94-1.04,2.5-2.56,3.15l-0.34-0.9
c0.94-0.42,1.51-0.78,1.72-2.25l0.78-5.55h-1.21l0.13-0.92h1.21l0.14-0.97c0.16-1.14,1.01-1.92,2.5-1.92
c0.81,0,1.39,0.25,1.9,0.58l-0.46,0.79c-0.4-0.27-0.94-0.42-1.4-0.42c-0.9,0-1.27,0.36-1.37,1.03l-0.13,0.91h3.81L153.66,177z"/>
<path class="st1" d="M161.5,170.75l-0.64,0.74c-0.42-0.36-0.81-0.51-1.34-0.51c-1.73,0-2.24,2.05-2.24,3.47
c0,1.2,0.52,1.69,1.39,1.69c0.6,0,1.04-0.2,1.59-0.53l0.48,0.83c-0.68,0.48-1.39,0.72-2.14,0.72c-1.62,0-2.56-1.04-2.56-2.8
c0-1.79,0.94-4.37,3.47-4.37C160.28,169.99,160.94,170.21,161.5,170.75z"/>
<path class="st1" d="M167.12,175.19c-0.1,0.69,0.05,0.96,0.61,0.96c0.31,0,0.6-0.1,0.96-0.31l0.39,0.86
c-0.49,0.31-1,0.46-1.55,0.46c-1.18,0-1.78-0.72-1.6-1.99l0.57-4.1h-1.18l0.13-0.92h1.24l0.43-1.59l0.94-0.1l-0.23,1.69h1.61
l-0.26,0.92h-1.48L167.12,175.19z"/>
<path class="st1" d="M176.19,172.83c0,1.65-0.84,4.33-3.54,4.33c-1.7,0-2.63-1.09-2.63-2.83c0-1.69,0.87-4.33,3.55-4.33
C175.28,169.99,176.19,171.08,176.19,172.83z M171.28,174.45c0,1.2,0.49,1.74,1.42,1.74c1.78,0,2.25-2.18,2.25-3.5
c0-1.2-0.49-1.74-1.4-1.74C171.76,170.95,171.28,173.14,171.28,174.45z"/>
<path class="st1" d="M184.4,173.55l-0.48,3.45h-1.25l0.49-3.43l-2.08-5.53h1.29l1.53,4.43l2.79-4.43h1.34L184.4,173.55z"/>
<line class="st0" x1="200" y1="65" x2="105.38" y2="65"/>
<polygon class="st1" points="106.48,61.28 100,65.02 106.48,68.76"/>
<line class="st0" x1="200" y1="85" x2="105.38" y2="85"/>
<polygon class="st1" points="106.48,81.28 100,85.02 106.48,88.76"/>
<line class="st0" x1="200" y1="105" x2="105.38" y2="105"/>
<polygon class="st1" points="106.48,101.28 100,105.02 106.48,108.76"/>
<path class="st1" d="M0,105c0,11.05,8.95,20,20,20h60c11.05,0,20-8.95,20-20V65c0-11.05-8.95-20-20-20H20C8.95,45,0,53.95,0,65
V105z"/>
<path class="st2" d="M200,105c0,11.05,8.95,20,20,20h60c11.05,0,20-8.95,20-20V65c0-11.05-8.95-20-20-20h-60
c-11.05,0-20,8.95-20,20V105z"/>
<path class="st3" d="M21.92,85.73c0,2.46-1.18,4.23-3.17,4.23c-0.88,0-1.6-0.38-2.08-1.02l-0.12,0.77h-2.1V78.58l2.37-0.26v4.23
c0.46-0.65,1.28-1.06,2.1-1.06C20.89,81.49,21.92,83.06,21.92,85.73z M19.46,85.73c0-2.03-0.54-2.5-1.27-2.5
c-0.57,0-1.02,0.34-1.37,0.93v3.3c0.3,0.5,0.74,0.78,1.26,0.78C18.89,88.24,19.46,87.59,19.46,85.73z"/>
<path class="st3" d="M30.43,88.37l-0.5,1.54c-0.93-0.08-1.54-0.36-1.92-1.14c-0.57,0.87-1.46,1.19-2.4,1.19
c-1.59,0-2.6-1.03-2.6-2.49c0-1.74,1.32-2.69,3.74-2.69h0.81v-0.34c0-0.95-0.38-1.23-1.35-1.23c-0.51,0-1.29,0.15-2.08,0.42
l-0.54-1.56c1-0.38,2.1-0.58,3-0.58c2.31,0,3.3,0.98,3.3,2.82v3.09C29.89,88.01,30.05,88.24,30.43,88.37z M27.56,87.52v-1.42
h-0.58c-1.08,0-1.6,0.38-1.6,1.17c0,0.63,0.34,1,0.93,1C26.84,88.27,27.28,87.98,27.56,87.52z"/>
<path class="st3" d="M38.11,82.46l-1.02,1.41c-0.51-0.39-0.97-0.57-1.51-0.57c-1.02,0-1.61,0.69-1.61,2.48
c0,1.77,0.63,2.31,1.58,2.31c0.57,0,0.96-0.18,1.53-0.54l1.03,1.47c-0.73,0.58-1.59,0.94-2.68,0.94c-2.45,0-3.94-1.65-3.94-4.17
c0-2.53,1.51-4.3,3.9-4.3C36.49,81.49,37.34,81.82,38.11,82.46z"/>
<path class="st3" d="M41.63,89.71h-2.37V78.58l2.37-0.26V89.71z M44.14,85.24l2.61,4.47h-2.67l-2.37-4.35l2.43-3.62h2.42
L44.14,85.24z"/>
<path class="st3" d="M54.35,86.42h-4.92c0.15,1.42,0.82,1.81,1.8,1.81c0.64,0,1.21-0.23,1.9-0.71l0.98,1.32
c-0.79,0.63-1.82,1.11-3.11,1.11c-2.65,0-4-1.71-4-4.2c0-2.38,1.31-4.27,3.72-4.27c2.28,0,3.67,1.5,3.67,4.08
C54.4,85.82,54.38,86.18,54.35,86.42z M52.07,84.89c-0.01-1.08-0.34-1.83-1.29-1.83c-0.79,0-1.25,0.49-1.37,1.93h2.66V84.89z"/>
<path class="st3" d="M62.78,83.89v5.82h-2.37v-5.41c0-0.84-0.29-1.06-0.75-1.06c-0.52,0-0.96,0.37-1.38,1.03v5.44h-2.37v-7.96
h2.07l0.17,0.95c0.67-0.78,1.44-1.2,2.43-1.2C61.96,81.49,62.78,82.37,62.78,83.89z"/>
<path class="st3" d="M71.85,78.58v11.13h-2.1l-0.12-0.93c-0.45,0.66-1.18,1.19-2.26,1.19c-2.03,0-3.03-1.68-3.03-4.26
c0-2.46,1.25-4.21,3.3-4.21c0.72,0,1.37,0.29,1.85,0.75v-3.92L71.85,78.58z M69.49,87.34v-3.45c-0.36-0.42-0.72-0.67-1.23-0.67
c-0.85,0-1.46,0.72-1.46,2.5c0,1.98,0.54,2.5,1.32,2.5C68.68,88.22,69.11,87.92,69.49,87.34z"/>
<path class="st3" d="M82.55,84.11l2.17,5.59h-2.61l-1.2-4.05l-2.29,4.05h-2.61l3.63-5.52l0.01-0.02l-1.95-4.86h2.58l0.99,3.42
l2.05-3.42h2.59l-3.36,4.78L82.55,84.11z"/>
<path class="st3" d="M237.74,88.37l-0.5,1.54c-0.93-0.08-1.54-0.36-1.92-1.14c-0.57,0.87-1.46,1.19-2.4,1.19
c-1.59,0-2.6-1.03-2.6-2.49c0-1.74,1.32-2.69,3.74-2.69h0.81v-0.34c0-0.95-0.38-1.23-1.35-1.23c-0.51,0-1.29,0.15-2.08,0.42
l-0.54-1.56c1-0.38,2.1-0.58,3-0.58c2.31,0,3.3,0.98,3.3,2.82v3.09C237.2,88.01,237.36,88.24,237.74,88.37z M234.87,87.52v-1.42
h-0.58c-1.08,0-1.6,0.38-1.6,1.17c0,0.63,0.34,1,0.93,1C234.15,88.27,234.59,87.98,234.87,87.52z"/>
<path class="st3" d="M246.71,85.7c0,2.46-1.2,4.26-3.17,4.26c-0.78,0-1.44-0.27-1.93-0.84v3.66l-2.37,0.26V81.74h2.08l0.12,0.89
c0.66-0.83,1.51-1.14,2.25-1.14C245.79,81.49,246.71,83.12,246.71,85.7z M244.25,85.73c0-1.98-0.48-2.5-1.3-2.5
c-0.51,0-0.99,0.34-1.33,0.93v3.36c0.33,0.48,0.72,0.71,1.21,0.71C243.71,88.22,244.25,87.52,244.25,85.73z"/>
<path class="st3" d="M255.81,85.7c0,2.46-1.2,4.26-3.17,4.26c-0.78,0-1.44-0.27-1.93-0.84v3.66l-2.37,0.26V81.74h2.08l0.12,0.89
c0.66-0.83,1.51-1.14,2.25-1.14C254.9,81.49,255.81,83.12,255.81,85.7z M253.35,85.73c0-1.98-0.48-2.5-1.3-2.5
c-0.51,0-0.99,0.34-1.33,0.93v3.36c0.33,0.48,0.72,0.71,1.21,0.71C252.81,88.22,253.35,87.52,253.35,85.73z"/>
<path class="st3" d="M266.13,84.11l2.17,5.59h-2.61l-1.2-4.05l-2.29,4.05h-2.61l3.63-5.52l0.01-0.02l-1.95-4.86h2.58l0.99,3.42
l2.05-3.42h2.59l-3.36,4.78L266.13,84.11z"/>
<path class="st1" d="M123.43,50.84l-0.57,0.71c-0.52-0.4-1.09-0.61-1.69-0.61c-0.83,0-1.37,0.35-1.37,0.92
c0,0.55,0.46,0.75,1.38,1.04c1.29,0.4,1.94,0.98,1.94,2.05c0,1.52-1.42,2.2-2.85,2.2c-1.2,0-2-0.47-2.54-0.99l0.69-0.7
c0.49,0.44,1.13,0.73,1.9,0.73c1.21,0,1.55-0.66,1.55-1.12c0-0.69-0.35-0.92-1.44-1.26c-1.31-0.4-1.83-0.94-1.83-1.87
c0-0.91,0.81-1.95,2.59-1.95C122.13,49.99,122.84,50.32,123.43,50.84z"/>
<path class="st1" d="M130.62,52.68c0,1.92-0.96,4.47-3.64,4.47c-0.47,0-0.87-0.08-1.3-0.22l-0.39,2.72l-1.18,0.16l1.35-9.66h1.01
l-0.03,0.87c0.73-0.81,1.38-1.03,2.09-1.03C129.83,49.99,130.62,50.95,130.62,52.68z M126.39,51.93L125.83,56
c0.43,0.16,0.73,0.21,1.21,0.21c1.7,0,2.34-2.08,2.34-3.61c0-1.22-0.51-1.65-1.22-1.65S126.88,51.41,126.39,51.93z"/>
<path class="st1" d="M133.27,54.45c0.03,1.25,0.61,1.7,1.48,1.7c0.64,0,1.21-0.19,1.83-0.64l0.51,0.81
c-0.74,0.53-1.55,0.83-2.46,0.83c-1.68,0-2.61-1.05-2.61-2.78c0-1.87,0.92-4.38,3.52-4.38c1.46,0,2.17,0.83,2.17,1.74
C137.71,53.66,135.66,54.19,133.27,54.45z M136.46,51.77c0-0.33-0.2-0.83-0.94-0.83c-1.43,0-2.03,1.35-2.2,2.6
C135.29,53.32,136.46,52.94,136.46,51.77z"/>
<path class="st1" d="M144.27,50.75l-0.64,0.74c-0.42-0.36-0.81-0.51-1.34-0.51c-1.73,0-2.24,2.05-2.24,3.47
c0,1.2,0.52,1.69,1.39,1.69c0.6,0,1.04-0.2,1.59-0.53l0.48,0.83c-0.68,0.48-1.39,0.72-2.14,0.72c-1.62,0-2.56-1.04-2.56-2.8
c0-1.79,0.94-4.37,3.47-4.37C143.04,49.99,143.71,50.21,144.27,50.75z"/>
<path class="st1" d="M146.19,57h-1.18l0.96-6.85h1.18L146.19,57z M147.72,47.74c-0.06,0.43-0.4,0.74-0.88,0.74
c-0.52,0-0.82-0.39-0.75-0.87c0.06-0.44,0.42-0.75,0.88-0.75C147.5,46.86,147.79,47.25,147.72,47.74z"/>
<path class="st1" d="M153.73,57h-1.2l0.83-5.93h-2.61l-0.78,5.55c-0.27,1.94-1.04,2.5-2.56,3.15l-0.34-0.9
c0.94-0.42,1.51-0.78,1.72-2.25l0.78-5.55h-1.21l0.13-0.92h1.21l0.14-0.98c0.16-1.14,1.01-1.92,2.5-1.92
c0.81,0,1.39,0.25,1.9,0.58l-0.46,0.79c-0.4-0.27-0.94-0.42-1.4-0.42c-0.9,0-1.27,0.36-1.37,1.03l-0.13,0.91h3.81L153.73,57z"/>
<path class="st1" d="M161.57,50.75l-0.64,0.74c-0.42-0.36-0.81-0.51-1.34-0.51c-1.73,0-2.24,2.05-2.24,3.47
c0,1.2,0.52,1.69,1.39,1.69c0.6,0,1.04-0.2,1.59-0.53l0.48,0.83c-0.68,0.48-1.39,0.72-2.14,0.72c-1.62,0-2.56-1.04-2.56-2.8
c0-1.79,0.94-4.37,3.47-4.37C160.35,49.99,161.01,50.21,161.57,50.75z"/>
<path class="st1" d="M167.18,55.19c-0.1,0.69,0.05,0.96,0.61,0.96c0.31,0,0.6-0.1,0.96-0.31l0.39,0.86
c-0.49,0.31-1,0.46-1.55,0.46c-1.18,0-1.78-0.72-1.6-1.99l0.57-4.1h-1.18l0.13-0.92h1.24l0.43-1.59l0.94-0.1l-0.23,1.69h1.61
l-0.26,0.92h-1.48L167.18,55.19z"/>
<path class="st1" d="M176.26,52.83c0,1.65-0.84,4.33-3.54,4.33c-1.7,0-2.63-1.09-2.63-2.83c0-1.69,0.87-4.33,3.55-4.33
C175.35,49.99,176.26,51.08,176.26,52.83z M171.34,54.45c0,1.2,0.49,1.74,1.42,1.74c1.78,0,2.25-2.18,2.25-3.5
c0-1.2-0.49-1.74-1.4-1.74C171.82,50.95,171.34,53.14,171.34,54.45z"/>
<path class="st1" d="M184.67,52.19L186.7,57h-1.34l-1.47-3.97L181.24,57h-1.37l3.33-4.77l0.03-0.03l-1.85-4.16h1.34l1.29,3.37
l2.31-3.37h1.35l-2.98,4.12L184.67,52.19z"/>
<path class="st4" d="M44.77,10.25l-1.23,1.73c-0.48-0.39-0.93-0.56-1.41-0.56c-0.87,0-1.35,0.51-1.35,2.13
c0,1.6,0.56,1.95,1.32,1.95c0.49,0,0.84-0.17,1.39-0.51l1.27,1.81c-0.73,0.6-1.63,0.99-2.83,0.99c-2.64,0-4.25-1.74-4.25-4.24
c0-2.53,1.64-4.36,4.17-4.36C43.09,9.19,44,9.58,44.77,10.25z"/>
<path class="st4" d="M52.58,14.33h-4.86c0.17,1.16,0.74,1.37,1.6,1.37c0.57,0,1.12-0.23,1.82-0.71l1.2,1.62
c-0.79,0.64-1.91,1.18-3.3,1.18c-2.94,0-4.32-1.81-4.32-4.29c0-2.34,1.33-4.32,3.99-4.32c2.37,0,3.93,1.51,3.93,4.2
C52.64,13.64,52.61,14.05,52.58,14.33z M49.72,12.55c-0.02-0.81-0.18-1.48-0.95-1.48c-0.63,0-0.96,0.36-1.06,1.59h2.01V12.55z"/>
<path class="st4" d="M60.85,11.59v5.91h-2.97v-5.37c0-0.63-0.18-0.78-0.45-0.78c-0.31,0-0.66,0.26-1,0.79v5.35h-2.97V9.49h2.59
l0.21,0.83c0.74-0.78,1.47-1.12,2.43-1.12C60.02,9.19,60.85,10.06,60.85,11.59z"/>
<path class="st4" d="M67.64,17.11c-0.66,0.47-1.65,0.69-2.4,0.69c-2.01-0.01-2.91-1.14-2.91-3.25V11.5h-0.96V9.49h0.96V7.81
l2.97-0.35v2.02h1.8l-0.3,2.01h-1.5v3.02c0,0.75,0.26,0.96,0.63,0.96c0.22,0,0.48-0.06,0.75-0.21L67.64,17.11z"/>
<path class="st4" d="M73.72,9.37l-0.46,2.87c-0.25-0.08-0.48-0.12-0.74-0.12c-0.96,0-1.27,0.72-1.5,1.74v3.65h-2.97V9.49h2.59
l0.24,1.5c0.33-1.05,1.14-1.75,2.03-1.75C73.22,9.23,73.43,9.28,73.72,9.37z"/>
<path class="st4" d="M81.31,15.83l-0.6,1.91c-1.04-0.08-1.71-0.35-2.16-1.11c-0.59,0.89-1.5,1.17-2.42,1.17
c-1.61,0-2.64-1.06-2.64-2.55c0-1.77,1.35-2.74,3.87-2.74h0.57v-0.2c0-0.81-0.27-1.02-1.16-1.02c-0.46,0-1.27,0.15-2.07,0.42
l-0.65-1.89c1-0.4,2.25-0.63,3.17-0.63c2.55,0,3.6,0.98,3.6,2.95v2.76C80.83,15.47,80.95,15.7,81.31,15.83z M77.93,15.23v-1.18
h-0.32c-0.84,0-1.23,0.28-1.23,0.92c0,0.45,0.25,0.75,0.66,0.75C77.42,15.71,77.74,15.5,77.93,15.23z"/>
<path class="st4" d="M82.09,15.19V6.34l2.97-0.3v9.03c0,0.27,0.12,0.4,0.36,0.4c0.13,0,0.24-0.03,0.32-0.06l0.52,2.11
c-0.39,0.15-0.97,0.27-1.65,0.27C82.99,17.8,82.09,16.85,82.09,15.19z"/>
<path class="st4" d="M89.81,6.65c0,0.9-0.69,1.59-1.67,1.59c-0.98,0-1.67-0.69-1.67-1.59s0.69-1.59,1.67-1.59
C89.12,5.06,89.81,5.75,89.81,6.65z M89.63,17.5h-2.97V9.49h2.97V17.5z"/>
<path class="st4" d="M97.09,11.54l-3.29,3.76h3.39l-0.25,2.19h-6.6v-2.07l3.33-3.78h-3.03V9.49h6.45V11.54z"/>
<path class="st4" d="M105.46,14.33h-4.86c0.17,1.16,0.74,1.37,1.6,1.37c0.57,0,1.12-0.23,1.82-0.71l1.2,1.62
c-0.79,0.64-1.91,1.18-3.3,1.18c-2.94,0-4.32-1.81-4.32-4.29c0-2.34,1.33-4.32,3.99-4.32c2.37,0,3.93,1.51,3.93,4.2
C105.52,13.64,105.49,14.05,105.46,14.33z M102.59,12.55c-0.02-0.81-0.18-1.48-0.95-1.48c-0.63,0-0.96,0.36-1.06,1.59h2.01V12.55z
"/>
<path class="st4" d="M114.08,6.34V17.5h-2.64l-0.11-0.83c-0.42,0.56-1.11,1.12-2.26,1.12c-2.08,0-3.04-1.71-3.04-4.35
c0-2.49,1.29-4.26,3.42-4.26c0.6,0,1.21,0.23,1.67,0.63V6.04L114.08,6.34z M111.11,14.96v-3.21c-0.27-0.29-0.51-0.45-0.87-0.45
c-0.66,0-1.17,0.56-1.17,2.17c0,1.92,0.46,2.19,1.04,2.19C110.48,15.67,110.83,15.46,111.11,14.96z"/>
<path class="st4" d="M118.06,11.27c0,0.84-0.69,1.54-1.54,1.54c-0.85,0-1.54-0.71-1.54-1.54c0-0.84,0.69-1.54,1.54-1.54
C117.37,9.73,118.06,10.43,118.06,11.27z M118.06,16.25c0,0.84-0.69,1.54-1.54,1.54c-0.85,0-1.54-0.7-1.54-1.54
c0-0.84,0.69-1.54,1.54-1.54C117.37,14.71,118.06,15.41,118.06,16.25z"/>
<path class="st4" d="M132,10.33l-0.54,0.8c-0.7-0.47-1.3-0.69-2.05-0.69c-0.93,0-1.53,0.44-1.53,1.11c0,0.67,0.45,0.97,1.75,1.32
c1.67,0.44,2.59,1.06,2.59,2.44c0,1.6-1.46,2.37-3.04,2.37c-1.33,0-2.26-0.44-2.96-1.04l0.67-0.77c0.65,0.48,1.37,0.78,2.25,0.78
c1.05,0,1.75-0.48,1.75-1.27c0-0.83-0.41-1.12-1.96-1.54c-1.7-0.45-2.37-1.16-2.37-2.27c0-1.25,1.19-2.15,2.79-2.15
C130.45,9.43,131.25,9.76,132,10.33z"/>
<path class="st4" d="M135.79,6.76c0,0.5-0.36,0.87-0.9,0.87c-0.53,0-0.88-0.38-0.88-0.87c0-0.49,0.36-0.87,0.88-0.87
C135.43,5.89,135.79,6.27,135.79,6.76z M135.53,17.5h-1.26V9.61h1.26V17.5z"/>
<path class="st4" d="M144.38,11.84v5.65h-1.26v-5.47c0-1.22-0.5-1.6-1.3-1.6c-0.93,0-1.56,0.58-2.1,1.45v5.62h-1.26V9.61h1.08
l0.11,1.2c0.57-0.82,1.41-1.38,2.47-1.38C143.55,9.43,144.38,10.34,144.38,11.84z"/>
<path class="st4" d="M153.47,9.92c-0.63,0.19-1.37,0.23-2.28,0.24c0.92,0.4,1.38,1.06,1.38,2.02c0,1.54-1.11,2.65-2.97,2.65
c-0.36,0-0.69-0.04-1-0.15c-0.27,0.18-0.44,0.46-0.44,0.78c0,0.38,0.24,0.67,1.08,0.67h1.26c1.6,0,2.65,0.92,2.65,2.15
c0,1.52-1.21,2.37-3.63,2.37c-2.54,0-3.36-0.77-3.36-2.35h1.14c0,0.94,0.45,1.36,2.22,1.36c1.74,0,2.36-0.46,2.36-1.29
c0-0.78-0.62-1.17-1.64-1.17H149c-1.38,0-2.01-0.69-2.01-1.47c0-0.52,0.3-1.02,0.86-1.38c-0.9-0.48-1.32-1.17-1.32-2.21
c0-1.6,1.26-2.73,3-2.73c2,0.04,2.69-0.25,3.57-0.66L153.47,9.92z M147.82,12.16c0,1.11,0.63,1.85,1.74,1.85
c1.12,0,1.72-0.68,1.72-1.85s-0.58-1.81-1.75-1.81C148.4,10.34,147.82,11.11,147.82,12.16z"/>
<path class="st4" d="M154.89,16V6.43l1.26-0.15v9.69c0,0.44,0.15,0.66,0.52,0.66c0.2,0,0.36-0.03,0.51-0.09l0.33,0.88
c-0.29,0.15-0.66,0.26-1.05,0.26C155.51,17.68,154.89,17.09,154.89,16z"/>
<path class="st4" d="M165.02,13.99h-5.08c0.12,1.9,1.02,2.65,2.21,2.65c0.79,0,1.38-0.23,2.07-0.71l0.55,0.75
c-0.76,0.62-1.63,0.99-2.71,0.99c-2.17,0-3.45-1.54-3.45-4.05c0-2.48,1.23-4.2,3.24-4.2c2.12,0,3.21,1.48,3.21,3.87
C165.05,13.57,165.03,13.82,165.02,13.99z M163.8,12.94c0-1.59-0.63-2.51-1.93-2.51c-1.1,0-1.83,0.78-1.94,2.62h3.87V12.94z"/>
<path class="st4" d="M177.29,16.79l-0.3,0.89c-0.76-0.1-1.26-0.44-1.47-1.22c-0.54,0.84-1.38,1.22-2.37,1.22
c-1.56,0-2.49-0.98-2.49-2.39c0-1.68,1.26-2.58,3.42-2.58h1.29v-0.63c0-1.17-0.55-1.62-1.7-1.62c-0.6,0-1.32,0.15-2.13,0.44
l-0.31-0.93c0.95-0.36,1.8-0.54,2.67-0.54c1.88,0,2.73,0.96,2.73,2.6v3.66C176.63,16.42,176.87,16.64,177.29,16.79z M175.37,15.44
v-1.89h-1.12c-1.47,0-2.25,0.56-2.25,1.68c0,0.96,0.5,1.49,1.44,1.49C174.29,16.72,174.9,16.28,175.37,15.44z"/>
<path class="st4" d="M185.97,13.54c0,2.42-1.05,4.14-3.07,4.14c-0.88,0-1.61-0.33-2.1-0.95v3.78l-1.26,0.15V9.61h1.08l0.09,1.09
c0.58-0.81,1.42-1.27,2.36-1.27C185.13,9.43,185.97,11.03,185.97,13.54z M184.62,13.54c0-2.1-0.63-3.1-1.86-3.1
c-0.87,0-1.53,0.62-1.96,1.26v3.93c0.42,0.65,1.05,1.02,1.82,1.02C183.92,16.64,184.62,15.65,184.62,13.54z"/>
<path class="st4" d="M194.84,13.54c0,2.42-1.05,4.14-3.07,4.14c-0.88,0-1.61-0.33-2.1-0.95v3.78l-1.26,0.15V9.61h1.08l0.09,1.09
c0.58-0.81,1.42-1.27,2.36-1.27C194,9.43,194.84,11.03,194.84,13.54z M193.49,13.54c0-2.1-0.63-3.1-1.86-3.1
c-0.87,0-1.53,0.62-1.96,1.26v3.93c0.42,0.65,1.05,1.02,1.82,1.02C192.78,16.64,193.49,15.65,193.49,13.54z"/>
<path class="st4" d="M207.03,9.26c0,1.27-0.96,2.06-2.16,2.76l2.75,2.58c0.36-0.75,0.69-1.6,0.92-2.61l1.18,0.33
c-0.38,1.25-0.83,2.22-1.32,3.01l1.72,1.6l-0.92,0.74l-1.51-1.46c-0.83,0.93-1.86,1.46-3.32,1.46c-1.93,0-3.31-1.1-3.31-2.79
c0-1.32,0.83-2.17,2.12-2.98c-0.92-0.87-1.49-1.54-1.49-2.58c0-1.3,0.96-2.32,2.66-2.32C205.94,7,207.03,7.96,207.03,9.26z
M202.35,14.84c0,1.14,0.9,1.83,2.16,1.83c1.02,0,1.77-0.42,2.45-1.15l-3.06-2.92C202.86,13.25,202.35,13.93,202.35,14.84z
M202.94,9.31c0,0.76,0.42,1.27,1.21,2.02c1.02-0.6,1.63-1.19,1.63-2c0-0.88-0.57-1.4-1.42-1.4
C203.45,7.94,202.94,8.53,202.94,9.31z"/>
<path class="st4" d="M223.11,13.54c0,2.49-1.15,4.14-3.07,4.14c-0.88,0-1.61-0.42-2.13-1.08l-0.14,0.9h-1.09V6.43l1.26-0.15v4.35
c0.54-0.75,1.29-1.2,2.27-1.2C221.99,9.43,223.11,10.91,223.11,13.54z M221.76,13.54c0-2.26-0.75-3.1-1.91-3.1
c-0.9,0-1.5,0.62-1.92,1.26v3.87c0.42,0.65,1.07,1.11,1.82,1.11C220.95,16.67,221.76,15.73,221.76,13.54z"/>
<path class="st4" d="M231.42,16.79l-0.3,0.89c-0.76-0.1-1.26-0.44-1.47-1.22c-0.54,0.84-1.38,1.22-2.37,1.22
c-1.56,0-2.49-0.98-2.49-2.39c0-1.68,1.26-2.58,3.42-2.58h1.29v-0.63c0-1.17-0.55-1.62-1.7-1.62c-0.6,0-1.32,0.15-2.13,0.44
l-0.31-0.93c0.95-0.36,1.8-0.54,2.67-0.54c1.88,0,2.73,0.96,2.73,2.6v3.66C230.76,16.42,231,16.64,231.42,16.79z M229.5,15.44
v-1.89h-1.12c-1.47,0-2.25,0.56-2.25,1.68c0,0.96,0.5,1.49,1.44,1.49C228.42,16.72,229.04,16.28,229.5,15.44z"/>
<path class="st4" d="M238.88,10.27l-0.62,0.79c-0.52-0.39-1.04-0.58-1.71-0.58c-1.29,0-2.11,1-2.11,3.12c0,2.1,0.82,3,2.11,3
c0.67,0,1.16-0.21,1.74-0.62l0.58,0.83c-0.67,0.57-1.47,0.87-2.37,0.87c-2.1,0-3.42-1.52-3.42-4.06c0-2.52,1.3-4.19,3.42-4.19
C237.42,9.43,238.16,9.67,238.88,10.27z"/>
<path class="st4" d="M242.07,17.5h-1.26V6.43l1.26-0.15V17.5z M243.57,13.1l3.34,4.4h-1.51l-3.24-4.3l3-3.58h1.41L243.57,13.1z"/>
<path class="st4" d="M247.56,12.26h4.19v1.08h-4.19V12.26z"/>
<path class="st4" d="M259.97,13.99h-5.08c0.12,1.9,1.02,2.65,2.21,2.65c0.79,0,1.38-0.23,2.07-0.71l0.55,0.75
c-0.76,0.62-1.63,0.99-2.71,0.99c-2.17,0-3.45-1.54-3.45-4.05c0-2.48,1.23-4.2,3.24-4.2c2.12,0,3.21,1.48,3.21,3.87
C260,13.57,259.98,13.82,259.97,13.99z M258.75,12.94c0-1.59-0.63-2.51-1.93-2.51c-1.1,0-1.83,0.78-1.94,2.62h3.87V12.94z"/>
<path class="st4" d="M268.26,11.84v5.65H267v-5.47c0-1.22-0.5-1.6-1.3-1.6c-0.93,0-1.56,0.58-2.1,1.45v5.62h-1.26V9.61h1.08
l0.11,1.2c0.57-0.82,1.41-1.38,2.47-1.38C267.44,9.43,268.26,10.34,268.26,11.84z"/>
<path class="st4" d="M277.1,6.43V17.5H276l-0.13-1.11c-0.5,0.78-1.29,1.29-2.29,1.29c-1.9,0-2.97-1.62-2.97-4.1
c0-2.41,1.16-4.15,3.09-4.15c0.96,0,1.65,0.45,2.14,0.99V6.28L277.1,6.43z M275.84,15.43v-3.92c-0.48-0.65-1.05-1.08-1.88-1.08
c-1.23,0-2.01,1.04-2.01,3.14c0,2.1,0.69,3.1,1.88,3.1C274.76,16.67,275.31,16.21,275.84,15.43z"/>
<path class="st0" d="M545,75.66c-20.94-12.58-44.39-18.74-69.62-20.38"/>
<polygon class="st1" points="476.7,51.7 470,55.02 476.22,59.16"/>
<path class="st0" d="M545,85c-47.32-4.08-87.31,16.69-100.44,24.48"/>
<polygon class="st1" points="443.59,105.78 440.01,112.35 447.49,112.16"/>
<path class="st0" d="M545,98.67c-34.37,4.3-58.38,29.19-78.06,62.67"/>
<polygon class="st1" points="464.39,158.53 464.27,166.01 470.81,162.38"/>
<path class="st0" d="M545,205c-18.87-39.94-54.56-63.28-100.45-76.55"/>
<polygon class="st1" points="446.61,125.21 439.36,127.02 444.55,132.4"/>
<path class="st0" d="M545,205c-24.74-1.48-48.05-7.62-70.13-17.7"/>
<polygon class="st1" points="477.44,184.32 469.99,185.02 474.32,191.12"/>
<path class="st0" d="M545,205c-9.21,25.25-38.14,38.68-49.93,43.21"/>
<polygon class="st1" points="494.83,244.3 490.01,250.02 497.37,251.33"/>
<path class="st1" d="M340,125c0,11.05,8.95,20,20,20h60c11.05,0,20-8.95,20-20v-10c0-11.05-8.95-20-20-20h-60
c-11.05,0-20,8.95-20,20V125z"/>
<path class="st1" d="M370,60c0,11.05,8.95,20,20,20h60c11.05,0,20-8.95,20-20V50c0-11.05-8.95-20-20-20h-60
c-11.05,0-20,8.95-20,20V60z"/>
<path class="st1" d="M370,190c0,11.05,8.95,20,20,20h60c11.05,0,20-8.95,20-20v-10c0-11.05-8.95-20-20-20h-60
c-11.05,0-20,8.95-20,20V190z"/>
<path class="st1" d="M390,255c0,11.05,8.95,20,20,20h60c11.05,0,20-8.95,20-20v-10c0-11.05-8.95-20-20-20h-60
c-11.05,0-20,8.95-20,20V255z"/>
<path class="st2" d="M540,225c0,11.05,8.95,20,20,20h60c11.05,0,20-8.95,20-20v-40c0-11.05-8.95-20-20-20h-60
c-11.05,0-20,8.95-20,20V225z"/>
<path class="st2" d="M540,105c0,11.05,8.95,20,20,20h60c11.05,0,20-8.95,20-20V65c0-11.05-8.95-20-20-20h-60
c-11.05,0-20,8.95-20,20V105z"/>
<path class="st3" d="M577.64,208.37l-0.5,1.54c-0.93-0.08-1.54-0.36-1.92-1.14c-0.57,0.87-1.46,1.18-2.4,1.18
c-1.59,0-2.6-1.03-2.6-2.49c0-1.74,1.32-2.69,3.74-2.69h0.81v-0.34c0-0.95-0.38-1.23-1.35-1.23c-0.51,0-1.29,0.15-2.08,0.42
l-0.54-1.56c1-0.38,2.1-0.58,3-0.58c2.31,0,3.3,0.98,3.3,2.82v3.09C577.1,208.01,577.27,208.24,577.64,208.37z M574.78,207.52
v-1.42h-0.58c-1.08,0-1.6,0.38-1.6,1.17c0,0.63,0.34,1,0.93,1C574.06,208.27,574.49,207.98,574.78,207.52z"/>
<path class="st3" d="M586.61,205.7c0,2.46-1.2,4.26-3.17,4.26c-0.78,0-1.44-0.27-1.93-0.84v3.66l-2.37,0.25v-11.29h2.08l0.12,0.89
c0.66-0.83,1.51-1.14,2.25-1.14C585.7,201.49,586.61,203.12,586.61,205.7z M584.15,205.73c0-1.98-0.48-2.5-1.3-2.5
c-0.51,0-0.99,0.34-1.33,0.93v3.36c0.33,0.48,0.72,0.71,1.21,0.71C583.61,208.22,584.15,207.52,584.15,205.73z"/>
<path class="st3" d="M595.71,205.7c0,2.46-1.2,4.26-3.17,4.26c-0.78,0-1.44-0.27-1.93-0.84v3.66l-2.37,0.25v-11.29h2.08l0.12,0.89
c0.66-0.83,1.51-1.14,2.25-1.14C594.8,201.49,595.71,203.12,595.71,205.7z M593.25,205.73c0-1.98-0.48-2.5-1.3-2.5
c-0.51,0-0.99,0.34-1.33,0.93v3.36c0.33,0.48,0.72,0.71,1.21,0.71C592.71,208.22,593.25,207.52,593.25,205.73z"/>
<path class="st3" d="M605.71,205.81l-0.54,3.9h-2.43l0.55-3.88l-2.37-6.51h2.58l1.26,4.58l2.54-4.58h2.61L605.71,205.81z"/>
<path class="st3" d="M577.74,88.37l-0.5,1.54c-0.93-0.08-1.54-0.36-1.92-1.14c-0.57,0.87-1.46,1.19-2.4,1.19
c-1.59,0-2.6-1.03-2.6-2.49c0-1.74,1.32-2.69,3.74-2.69h0.81v-0.34c0-0.95-0.38-1.23-1.35-1.23c-0.51,0-1.29,0.15-2.08,0.42
l-0.54-1.56c1-0.38,2.1-0.58,3-0.58c2.31,0,3.3,0.98,3.3,2.82v3.09C577.2,88.01,577.36,88.24,577.74,88.37z M574.87,87.52v-1.42
h-0.58c-1.08,0-1.6,0.38-1.6,1.17c0,0.63,0.34,1,0.93,1C574.15,88.27,574.59,87.98,574.87,87.52z"/>
<path class="st3" d="M586.71,85.7c0,2.46-1.2,4.26-3.17,4.26c-0.78,0-1.44-0.27-1.93-0.84v3.66l-2.37,0.26V81.74h2.08l0.12,0.89
c0.66-0.83,1.51-1.14,2.25-1.14C585.79,81.49,586.71,83.12,586.71,85.7z M584.25,85.73c0-1.98-0.48-2.5-1.3-2.5
c-0.51,0-0.99,0.34-1.33,0.93v3.36c0.33,0.48,0.72,0.71,1.21,0.71C583.71,88.22,584.25,87.52,584.25,85.73z"/>
<path class="st3" d="M595.81,85.7c0,2.46-1.2,4.26-3.17,4.26c-0.78,0-1.44-0.27-1.93-0.84v3.66l-2.37,0.26V81.74h2.08l0.12,0.89
c0.66-0.83,1.51-1.14,2.25-1.14C594.9,81.49,595.81,83.12,595.81,85.7z M593.35,85.73c0-1.98-0.48-2.5-1.3-2.5
c-0.51,0-0.99,0.34-1.33,0.93v3.36c0.33,0.48,0.72,0.71,1.21,0.71C592.81,88.22,593.35,87.52,593.35,85.73z"/>
<path class="st3" d="M606.13,84.11l2.17,5.59h-2.61l-1.2-4.05l-2.29,4.05h-2.61l3.63-5.52l0.01-0.02l-1.95-4.86h2.58l0.99,3.42
l2.05-3.42h2.59l-3.36,4.78L606.13,84.11z"/>
<path class="st3" d="M366.16,113.58v11.13h-2.1l-0.12-0.93c-0.45,0.66-1.18,1.19-2.26,1.19c-2.03,0-3.03-1.68-3.03-4.26
c0-2.46,1.25-4.21,3.3-4.21c0.72,0,1.37,0.29,1.85,0.75v-3.92L366.16,113.58z M363.79,122.34v-3.45
c-0.36-0.42-0.72-0.67-1.23-0.67c-0.85,0-1.46,0.72-1.46,2.5c0,1.98,0.54,2.5,1.32,2.5C362.98,123.22,363.41,122.92,363.79,122.34
z"/>
<path class="st3" d="M375.04,123.37l-0.5,1.54c-0.93-0.08-1.54-0.36-1.92-1.14c-0.57,0.87-1.46,1.19-2.4,1.19
c-1.59,0-2.6-1.04-2.6-2.49c0-1.74,1.32-2.68,3.74-2.68h0.81v-0.34c0-0.95-0.38-1.23-1.35-1.23c-0.51,0-1.29,0.15-2.08,0.42
l-0.54-1.56c1-0.38,2.1-0.58,3-0.58c2.31,0,3.3,0.97,3.3,2.82v3.09C374.5,123.01,374.66,123.24,375.04,123.37z M372.17,122.52
v-1.42h-0.58c-1.08,0-1.6,0.38-1.6,1.17c0,0.63,0.34,1,0.93,1C371.45,123.27,371.89,122.98,372.17,122.52z"/>
<path class="st3" d="M381.53,124.33c-0.6,0.42-1.44,0.63-2.16,0.63c-1.75-0.01-2.61-1-2.61-2.88v-3.69h-1.12v-1.65h1.12v-1.72
l2.37-0.27v2h1.83l-0.25,1.65h-1.58v3.66c0,0.76,0.26,1.04,0.75,1.04c0.27,0,0.54-0.08,0.86-0.27L381.53,124.33z"/>
<path class="st3" d="M389.35,123.37l-0.5,1.54c-0.93-0.08-1.54-0.36-1.92-1.14c-0.57,0.87-1.46,1.19-2.4,1.19
c-1.59,0-2.6-1.04-2.6-2.49c0-1.74,1.32-2.68,3.74-2.68h0.81v-0.34c0-0.95-0.38-1.23-1.35-1.23c-0.51,0-1.29,0.15-2.08,0.42
l-0.54-1.56c1-0.38,2.1-0.58,3-0.58c2.31,0,3.3,0.97,3.3,2.82v3.09C388.81,123.01,388.97,123.24,389.35,123.37z M386.48,122.52
v-1.42h-0.58c-1.08,0-1.6,0.38-1.6,1.17c0,0.63,0.34,1,0.93,1C385.76,123.27,386.2,122.98,386.48,122.52z"/>
<path class="st3" d="M402.02,120.7c0,2.46-1.2,4.26-3.17,4.26c-0.78,0-1.44-0.27-1.93-0.84v3.66l-2.37,0.26v-11.29h2.08l0.12,0.88
c0.66-0.83,1.51-1.14,2.25-1.14C401.11,116.49,402.02,118.12,402.02,120.7z M399.56,120.73c0-1.98-0.48-2.5-1.3-2.5
c-0.51,0-0.99,0.34-1.33,0.93v3.36c0.33,0.48,0.72,0.71,1.21,0.71C399.02,123.22,399.56,122.52,399.56,120.73z"/>
<path class="st3" d="M411.01,120.73c0,2.55-1.47,4.23-3.9,4.23c-2.42,0-3.9-1.56-3.9-4.25c0-2.55,1.47-4.23,3.9-4.23
S411.01,118.05,411.01,120.73z M405.67,120.72c0,1.77,0.48,2.5,1.44,2.5s1.44-0.76,1.44-2.49c0-1.77-0.48-2.5-1.44-2.5
S405.67,118.99,405.67,120.72z"/>
<path class="st3" d="M419.71,113.58v11.13h-2.1l-0.12-0.93c-0.45,0.66-1.18,1.19-2.26,1.19c-2.03,0-3.03-1.68-3.03-4.26
c0-2.46,1.25-4.21,3.3-4.21c0.72,0,1.37,0.29,1.85,0.75v-3.92L419.71,113.58z M417.34,122.34v-3.45
c-0.36-0.42-0.72-0.67-1.23-0.67c-0.85,0-1.46,0.72-1.46,2.5c0,1.98,0.54,2.5,1.32,2.5C416.53,123.22,416.96,122.92,417.34,122.34
z"/>
<path class="st3" d="M396.16,48.58v11.13h-2.1l-0.12-0.93c-0.45,0.66-1.18,1.19-2.26,1.19c-2.03,0-3.03-1.68-3.03-4.26
c0-2.46,1.25-4.21,3.3-4.21c0.72,0,1.37,0.29,1.85,0.75v-3.92L396.16,48.58z M393.79,57.34v-3.45c-0.36-0.42-0.72-0.67-1.23-0.67
c-0.85,0-1.46,0.72-1.46,2.5c0,1.98,0.54,2.5,1.32,2.5C392.98,58.22,393.41,57.92,393.79,57.34z"/>
<path class="st3" d="M405.04,58.37l-0.5,1.54c-0.93-0.08-1.54-0.36-1.92-1.14c-0.57,0.87-1.46,1.19-2.4,1.19
c-1.59,0-2.6-1.03-2.6-2.49c0-1.74,1.32-2.69,3.74-2.69h0.81v-0.34c0-0.95-0.38-1.23-1.35-1.23c-0.51,0-1.29,0.15-2.08,0.42
l-0.54-1.56c1-0.38,2.1-0.58,3-0.58c2.31,0,3.3,0.98,3.3,2.82v3.09C404.5,58.01,404.66,58.24,405.04,58.37z M402.17,57.52v-1.42
h-0.58c-1.08,0-1.6,0.38-1.6,1.17c0,0.63,0.34,1,0.93,1C401.45,58.27,401.89,57.98,402.17,57.52z"/>
<path class="st3" d="M411.53,59.33c-0.6,0.42-1.44,0.63-2.16,0.63c-1.75-0.01-2.61-1-2.61-2.88v-3.69h-1.12v-1.65h1.12v-1.72
l2.37-0.27v1.99h1.83l-0.25,1.65h-1.58v3.66c0,0.76,0.26,1.03,0.75,1.03c0.27,0,0.54-0.07,0.86-0.27L411.53,59.33z"/>
<path class="st3" d="M419.35,58.37l-0.5,1.54c-0.93-0.08-1.54-0.36-1.92-1.14c-0.57,0.87-1.46,1.19-2.4,1.19
c-1.59,0-2.6-1.03-2.6-2.49c0-1.74,1.32-2.69,3.74-2.69h0.81v-0.34c0-0.95-0.38-1.23-1.35-1.23c-0.51,0-1.29,0.15-2.08,0.42
l-0.54-1.56c1-0.38,2.1-0.58,3-0.58c2.31,0,3.3,0.98,3.3,2.82v3.09C418.81,58.01,418.97,58.24,419.35,58.37z M416.48,57.52v-1.42
h-0.58c-1.08,0-1.6,0.38-1.6,1.17c0,0.63,0.34,1,0.93,1C415.76,58.27,416.2,57.98,416.48,57.52z"/>
<path class="st3" d="M432.02,55.7c0,2.46-1.2,4.26-3.17,4.26c-0.78,0-1.44-0.27-1.93-0.84v3.66l-2.37,0.26V51.74h2.08l0.12,0.89
c0.66-0.83,1.51-1.14,2.25-1.14C431.11,51.49,432.02,53.12,432.02,55.7z M429.56,55.73c0-1.98-0.48-2.5-1.3-2.5
c-0.51,0-0.99,0.34-1.33,0.93v3.36c0.33,0.48,0.72,0.71,1.21,0.71C429.02,58.22,429.56,57.52,429.56,55.73z"/>
<path class="st3" d="M441.01,55.73c0,2.55-1.47,4.23-3.9,4.23c-2.42,0-3.9-1.56-3.9-4.24c0-2.55,1.47-4.23,3.9-4.23
S441.01,53.05,441.01,55.73z M435.67,55.72c0,1.77,0.48,2.5,1.44,2.5s1.44-0.77,1.44-2.49c0-1.77-0.48-2.5-1.44-2.5
S435.67,53.99,435.67,55.72z"/>
<path class="st3" d="M449.71,48.58v11.13h-2.1l-0.12-0.93c-0.45,0.66-1.18,1.19-2.26,1.19c-2.03,0-3.03-1.68-3.03-4.26
c0-2.46,1.25-4.21,3.3-4.21c0.72,0,1.37,0.29,1.85,0.75v-3.92L449.71,48.58z M447.34,57.34v-3.45c-0.36-0.42-0.72-0.67-1.23-0.67
c-0.85,0-1.46,0.72-1.46,2.5c0,1.98,0.54,2.5,1.32,2.5C446.53,58.22,446.96,57.92,447.34,57.34z"/>
<path class="st3" d="M396.16,178.58v11.13h-2.1l-0.12-0.93c-0.45,0.66-1.18,1.19-2.26,1.19c-2.03,0-3.03-1.68-3.03-4.26
c0-2.46,1.25-4.21,3.3-4.21c0.72,0,1.37,0.29,1.85,0.75v-3.92L396.16,178.58z M393.79,187.34v-3.45
c-0.36-0.42-0.72-0.67-1.23-0.67c-0.85,0-1.46,0.72-1.46,2.5c0,1.98,0.54,2.5,1.32,2.5C392.98,188.22,393.41,187.92,393.79,187.34
z"/>
<path class="st3" d="M405.04,188.37l-0.5,1.54c-0.93-0.08-1.54-0.36-1.92-1.14c-0.57,0.87-1.46,1.19-2.4,1.19
c-1.59,0-2.6-1.04-2.6-2.49c0-1.74,1.32-2.68,3.74-2.68h0.81v-0.34c0-0.95-0.38-1.23-1.35-1.23c-0.51,0-1.29,0.15-2.08,0.42
l-0.54-1.56c1-0.38,2.1-0.58,3-0.58c2.31,0,3.3,0.97,3.3,2.82v3.09C404.5,188.01,404.66,188.24,405.04,188.37z M402.17,187.52
v-1.42h-0.58c-1.08,0-1.6,0.38-1.6,1.17c0,0.63,0.34,1,0.93,1C401.45,188.27,401.89,187.98,402.17,187.52z"/>
<path class="st3" d="M411.53,189.33c-0.6,0.42-1.44,0.63-2.16,0.63c-1.75-0.01-2.61-1-2.61-2.88v-3.69h-1.12v-1.65h1.12v-1.72
l2.37-0.27v2h1.83l-0.25,1.65h-1.58v3.66c0,0.76,0.26,1.04,0.75,1.04c0.27,0,0.54-0.08,0.86-0.27L411.53,189.33z"/>
<path class="st3" d="M419.35,188.37l-0.5,1.54c-0.93-0.08-1.54-0.36-1.92-1.14c-0.57,0.87-1.46,1.19-2.4,1.19
c-1.59,0-2.6-1.04-2.6-2.49c0-1.74,1.32-2.68,3.74-2.68h0.81v-0.34c0-0.95-0.38-1.23-1.35-1.23c-0.51,0-1.29,0.15-2.08,0.42
l-0.54-1.56c1-0.38,2.1-0.58,3-0.58c2.31,0,3.3,0.97,3.3,2.82v3.09C418.81,188.01,418.97,188.24,419.35,188.37z M416.48,187.52
v-1.42h-0.58c-1.08,0-1.6,0.38-1.6,1.17c0,0.63,0.34,1,0.93,1C415.76,188.27,416.2,187.98,416.48,187.52z"/>
<path class="st3" d="M432.02,185.7c0,2.46-1.2,4.26-3.17,4.26c-0.78,0-1.44-0.27-1.93-0.84v3.66l-2.37,0.26v-11.29h2.08l0.12,0.88
c0.66-0.83,1.51-1.14,2.25-1.14C431.11,181.49,432.02,183.12,432.02,185.7z M429.56,185.73c0-1.98-0.48-2.5-1.3-2.5
c-0.51,0-0.99,0.34-1.33,0.93v3.36c0.33,0.48,0.72,0.71,1.21,0.71C429.02,188.22,429.56,187.52,429.56,185.73z"/>
<path class="st3" d="M441.01,185.73c0,2.55-1.47,4.23-3.9,4.23c-2.42,0-3.9-1.56-3.9-4.25c0-2.55,1.47-4.23,3.9-4.23
S441.01,183.05,441.01,185.73z M435.67,185.72c0,1.77,0.48,2.5,1.44,2.5s1.44-0.76,1.44-2.49c0-1.77-0.48-2.5-1.44-2.5
S435.67,183.99,435.67,185.72z"/>
<path class="st3" d="M449.71,178.58v11.13h-2.1l-0.12-0.93c-0.45,0.66-1.18,1.19-2.26,1.19c-2.03,0-3.03-1.68-3.03-4.26
c0-2.46,1.25-4.21,3.3-4.21c0.72,0,1.37,0.29,1.85,0.75v-3.92L449.71,178.58z M447.34,187.34v-3.45
c-0.36-0.42-0.72-0.67-1.23-0.67c-0.85,0-1.46,0.72-1.46,2.5c0,1.98,0.54,2.5,1.32,2.5C446.53,188.22,446.96,187.92,447.34,187.34
z"/>
<path class="st3" d="M416.16,243.58v11.13h-2.1l-0.12-0.93c-0.45,0.66-1.18,1.19-2.26,1.19c-2.03,0-3.03-1.68-3.03-4.26
c0-2.46,1.25-4.21,3.3-4.21c0.72,0,1.37,0.29,1.85,0.75v-3.92L416.16,243.58z M413.79,252.34v-3.45
c-0.36-0.42-0.72-0.67-1.23-0.67c-0.85,0-1.46,0.72-1.46,2.5c0,1.98,0.54,2.5,1.32,2.5C412.98,253.22,413.41,252.92,413.79,252.34
z"/>
<path class="st3" d="M425.04,253.37l-0.5,1.54c-0.93-0.08-1.54-0.36-1.92-1.14c-0.57,0.87-1.46,1.19-2.4,1.19
c-1.59,0-2.6-1.04-2.6-2.49c0-1.74,1.32-2.68,3.74-2.68h0.81v-0.34c0-0.95-0.38-1.23-1.35-1.23c-0.51,0-1.29,0.15-2.08,0.42
l-0.54-1.56c1-0.38,2.1-0.58,3-0.58c2.31,0,3.3,0.97,3.3,2.82v3.09C424.5,253.01,424.66,253.24,425.04,253.37z M422.17,252.52
v-1.42h-0.58c-1.08,0-1.6,0.38-1.6,1.17c0,0.63,0.34,1,0.93,1C421.45,253.27,421.89,252.98,422.17,252.52z"/>
<path class="st3" d="M431.53,254.33c-0.6,0.42-1.44,0.63-2.16,0.63c-1.75-0.01-2.61-1-2.61-2.88v-3.69h-1.12v-1.65h1.12v-1.72
l2.37-0.27v2h1.83l-0.25,1.65h-1.58v3.66c0,0.76,0.26,1.04,0.75,1.04c0.27,0,0.54-0.08,0.86-0.27L431.53,254.33z"/>
<path class="st3" d="M439.35,253.37l-0.5,1.54c-0.93-0.08-1.54-0.36-1.92-1.14c-0.57,0.87-1.46,1.19-2.4,1.19
c-1.59,0-2.6-1.04-2.6-2.49c0-1.74,1.32-2.68,3.74-2.68h0.81v-0.34c0-0.95-0.38-1.23-1.35-1.23c-0.51,0-1.29,0.15-2.08,0.42
l-0.54-1.56c1-0.38,2.1-0.58,3-0.58c2.31,0,3.3,0.97,3.3,2.82v3.09C438.81,253.01,438.97,253.24,439.35,253.37z M436.48,252.52
v-1.42h-0.58c-1.08,0-1.6,0.38-1.6,1.17c0,0.63,0.34,1,0.93,1C435.76,253.27,436.2,252.98,436.48,252.52z"/>
<path class="st3" d="M452.02,250.7c0,2.46-1.2,4.26-3.17,4.26c-0.78,0-1.44-0.27-1.93-0.84v3.66l-2.37,0.26v-11.29h2.08l0.12,0.88
c0.66-0.83,1.51-1.14,2.25-1.14C451.11,246.49,452.02,248.12,452.02,250.7z M449.56,250.73c0-1.98-0.48-2.5-1.3-2.5
c-0.51,0-0.99,0.34-1.33,0.93v3.36c0.33,0.48,0.72,0.71,1.21,0.71C449.02,253.22,449.56,252.52,449.56,250.73z"/>
<path class="st3" d="M461.01,250.73c0,2.55-1.47,4.23-3.9,4.23c-2.42,0-3.9-1.56-3.9-4.25c0-2.55,1.47-4.23,3.9-4.23
S461.01,248.05,461.01,250.73z M455.67,250.72c0,1.77,0.48,2.5,1.44,2.5s1.44-0.76,1.44-2.49c0-1.77-0.48-2.5-1.44-2.5
S455.67,248.99,455.67,250.72z"/>
<path class="st3" d="M469.71,243.58v11.13h-2.1l-0.12-0.93c-0.45,0.66-1.18,1.19-2.26,1.19c-2.03,0-3.03-1.68-3.03-4.26
c0-2.46,1.25-4.21,3.3-4.21c0.72,0,1.37,0.29,1.85,0.75v-3.92L469.71,243.58z M467.34,252.34v-3.45
c-0.36-0.42-0.72-0.67-1.23-0.67c-0.85,0-1.46,0.72-1.46,2.5c0,1.98,0.54,2.5,1.32,2.5C466.53,253.22,466.96,252.92,467.34,252.34
z"/>
<path class="st4" d="M343.83,6.34V17.5h-2.64l-0.1-0.83c-0.42,0.56-1.11,1.12-2.26,1.12c-2.08,0-3.04-1.71-3.04-4.35
c0-2.49,1.29-4.26,3.42-4.26c0.6,0,1.21,0.23,1.66,0.63V6.04L343.83,6.34z M340.86,14.96v-3.21c-0.27-0.29-0.51-0.45-0.87-0.45
c-0.66,0-1.17,0.56-1.17,2.17c0,1.92,0.46,2.19,1.04,2.19C340.23,15.67,340.58,15.46,340.86,14.96z"/>
<path class="st4" d="M352.58,14.33h-4.86c0.17,1.16,0.74,1.37,1.61,1.37c0.57,0,1.12-0.23,1.81-0.71l1.2,1.62
c-0.79,0.64-1.91,1.18-3.3,1.18c-2.94,0-4.32-1.81-4.32-4.29c0-2.34,1.34-4.32,3.99-4.32c2.37,0,3.93,1.51,3.93,4.2
C352.64,13.64,352.61,14.05,352.58,14.33z M349.71,12.55c-0.02-0.81-0.18-1.48-0.95-1.48c-0.63,0-0.96,0.36-1.07,1.59h2.01V12.55z
"/>
<path class="st4" d="M360.15,10.25l-1.23,1.73c-0.48-0.39-0.93-0.56-1.41-0.56c-0.87,0-1.35,0.51-1.35,2.13
c0,1.6,0.55,1.95,1.32,1.95c0.49,0,0.84-0.17,1.39-0.51l1.27,1.81c-0.74,0.6-1.63,0.99-2.83,0.99c-2.64,0-4.24-1.74-4.24-4.24
c0-2.53,1.63-4.36,4.17-4.36C358.47,9.19,359.39,9.58,360.15,10.25z"/>
<path class="st4" d="M367.97,14.33h-4.86c0.16,1.16,0.73,1.37,1.6,1.37c0.57,0,1.12-0.23,1.82-0.71l1.2,1.62
c-0.79,0.64-1.9,1.18-3.3,1.18c-2.94,0-4.32-1.81-4.32-4.29c0-2.34,1.33-4.32,3.99-4.32c2.37,0,3.93,1.51,3.93,4.2
C368.03,13.64,368,14.05,367.97,14.33z M365.1,12.55c-0.01-0.81-0.18-1.48-0.95-1.48c-0.63,0-0.96,0.36-1.06,1.59h2.01V12.55z"/>
<path class="st4" d="M376.23,11.59v5.91h-2.97v-5.37c0-0.63-0.18-0.78-0.45-0.78c-0.31,0-0.66,0.26-1,0.79v5.35h-2.97V9.49h2.59
l0.21,0.83c0.74-0.78,1.47-1.12,2.43-1.12C375.41,9.19,376.23,10.06,376.23,11.59z"/>
<path class="st4" d="M383.03,17.11c-0.66,0.47-1.65,0.69-2.4,0.69c-2.01-0.01-2.91-1.14-2.91-3.25V11.5h-0.96V9.49h0.96V7.81
l2.97-0.35v2.02h1.8l-0.3,2.01h-1.5v3.02c0,0.75,0.26,0.96,0.63,0.96c0.22,0,0.48-0.06,0.75-0.21L383.03,17.11z"/>
<path class="st4" d="M389.1,9.37l-0.46,2.87c-0.25-0.08-0.48-0.12-0.74-0.12c-0.96,0-1.27,0.72-1.5,1.74v3.65h-2.97V9.49h2.59
l0.24,1.5c0.33-1.05,1.14-1.75,2.03-1.75C388.61,9.23,388.82,9.28,389.1,9.37z"/>
<path class="st4" d="M396.69,15.83l-0.6,1.91c-1.04-0.08-1.71-0.35-2.16-1.11c-0.59,0.89-1.5,1.17-2.42,1.17
c-1.61,0-2.64-1.06-2.64-2.55c0-1.77,1.35-2.74,3.87-2.74h0.57v-0.2c0-0.81-0.27-1.02-1.16-1.02c-0.46,0-1.27,0.15-2.07,0.42
l-0.65-1.89c1-0.4,2.25-0.63,3.17-0.63c2.55,0,3.6,0.98,3.6,2.95v2.76C396.21,15.47,396.33,15.7,396.69,15.83z M393.32,15.23
v-1.18H393c-0.84,0-1.23,0.28-1.23,0.92c0,0.45,0.25,0.75,0.66,0.75C392.81,15.71,393.12,15.5,393.32,15.23z"/>
<path class="st4" d="M397.47,15.19V6.34l2.97-0.3v9.03c0,0.27,0.12,0.4,0.36,0.4c0.13,0,0.24-0.03,0.32-0.06l0.52,2.11
c-0.39,0.15-0.97,0.27-1.65,0.27C398.37,17.8,397.47,16.85,397.47,15.19z"/>
<path class="st4" d="M405.2,6.65c0,0.9-0.69,1.59-1.67,1.59c-0.98,0-1.67-0.69-1.67-1.59s0.69-1.59,1.67-1.59
C404.51,5.06,405.2,5.75,405.2,6.65z M405.02,17.5h-2.97V9.49h2.97V17.5z"/>
<path class="st4" d="M412.47,11.54l-3.29,3.76h3.39l-0.25,2.19h-6.6v-2.07l3.33-3.78h-3.03V9.49h6.45V11.54z"/>
<path class="st4" d="M420.84,14.33h-4.86c0.17,1.16,0.74,1.37,1.6,1.37c0.57,0,1.12-0.23,1.82-0.71l1.2,1.62
c-0.79,0.64-1.91,1.18-3.3,1.18c-2.94,0-4.32-1.81-4.32-4.29c0-2.34,1.33-4.32,3.99-4.32c2.37,0,3.93,1.51,3.93,4.2
C420.9,13.64,420.87,14.05,420.84,14.33z M417.98,12.55c-0.02-0.81-0.18-1.48-0.95-1.48c-0.63,0-0.96,0.36-1.06,1.59h2.01V12.55z"
/>
<path class="st4" d="M429.47,6.34V17.5h-2.64l-0.11-0.83c-0.42,0.56-1.11,1.12-2.26,1.12c-2.08,0-3.04-1.71-3.04-4.35
c0-2.49,1.29-4.26,3.42-4.26c0.6,0,1.21,0.23,1.67,0.63V6.04L429.47,6.34z M426.5,14.96v-3.21c-0.27-0.29-0.51-0.45-0.87-0.45
c-0.66,0-1.17,0.56-1.17,2.17c0,1.92,0.46,2.19,1.04,2.19C425.87,15.67,426.21,15.46,426.5,14.96z"/>
<path class="st4" d="M433.44,11.27c0,0.84-0.69,1.54-1.54,1.54c-0.85,0-1.54-0.71-1.54-1.54c0-0.84,0.69-1.54,1.54-1.54
C432.75,9.73,433.44,10.43,433.44,11.27z M433.44,16.25c0,0.84-0.69,1.54-1.54,1.54c-0.85,0-1.54-0.7-1.54-1.54
c0-0.84,0.69-1.54,1.54-1.54C432.75,14.71,433.44,15.41,433.44,16.25z"/>
<path class="st4" d="M452.64,11.84v5.65h-1.26v-5.47c0-1.22-0.51-1.6-1.16-1.6c-0.88,0-1.39,0.58-1.95,1.45v5.62h-1.26v-5.47
c0-1.22-0.51-1.6-1.15-1.6c-0.87,0-1.4,0.58-1.94,1.45v5.62h-1.26V9.61h1.08l0.11,1.2c0.54-0.82,1.29-1.38,2.31-1.38
c0.97,0,1.7,0.54,1.98,1.46c0.58-0.87,1.32-1.46,2.39-1.46C451.81,9.43,452.64,10.36,452.64,11.84z"/>
<path class="st4" d="M461.29,17.5h-1.08l-0.1-1.27c-0.58,0.96-1.33,1.46-2.48,1.46c-1.39,0-2.21-0.87-2.21-2.42V9.61h1.26v5.52
c0,1.12,0.39,1.54,1.29,1.54c0.9,0,1.56-0.58,2.05-1.41V9.61h1.26V17.5z"/>
<path class="st4" d="M464.14,16V6.43l1.26-0.15v9.69c0,0.44,0.15,0.66,0.52,0.66c0.2,0,0.36-0.03,0.51-0.09l0.33,0.88
c-0.29,0.15-0.66,0.26-1.05,0.26C464.76,17.68,464.14,17.09,464.14,16z"/>
<path class="st4" d="M472.47,17.15c-0.51,0.35-1.08,0.53-1.74,0.53c-1.31,0-2.08-0.77-2.08-2.21v-4.89h-1.37V9.61h1.37V7.79
l1.26-0.14v1.95h1.9l-0.13,0.98h-1.77v4.83c0,0.83,0.29,1.21,0.99,1.21c0.38,0,0.7-0.1,1.09-0.34L472.47,17.15z"/>
<path class="st4" d="M475.44,6.76c0,0.5-0.36,0.87-0.9,0.87c-0.53,0-0.88-0.38-0.88-0.87c0-0.49,0.36-0.87,0.88-0.87
C475.08,5.89,475.44,6.27,475.44,6.76z M475.18,17.5h-1.26V9.61h1.26V17.5z"/>
<path class="st4" d="M484.54,13.54c0,2.42-1.05,4.14-3.07,4.14c-0.88,0-1.61-0.33-2.1-0.95v3.78l-1.26,0.15V9.61h1.08l0.09,1.09
c0.58-0.81,1.42-1.27,2.36-1.27C483.7,9.43,484.54,11.03,484.54,13.54z M483.19,13.54c0-2.1-0.63-3.1-1.86-3.1
c-0.87,0-1.53,0.62-1.96,1.26v3.93c0.42,0.65,1.05,1.02,1.82,1.02C482.49,16.64,483.19,15.65,483.19,13.54z"/>
<path class="st4" d="M486.9,16V6.43l1.26-0.15v9.69c0,0.44,0.15,0.66,0.52,0.66c0.2,0,0.36-0.03,0.51-0.09l0.33,0.88
c-0.29,0.15-0.66,0.26-1.05,0.26C487.51,17.68,486.9,17.09,486.9,16z"/>
<path class="st4" d="M497.02,13.99h-5.08c0.12,1.9,1.02,2.65,2.21,2.65c0.79,0,1.38-0.23,2.07-0.71l0.55,0.75
c-0.76,0.62-1.63,0.99-2.71,0.99c-2.17,0-3.45-1.54-3.45-4.05c0-2.48,1.23-4.2,3.24-4.2c2.11,0,3.21,1.48,3.21,3.87
C497.05,13.57,497.04,13.82,497.02,13.99z M495.81,12.94c0-1.59-0.63-2.51-1.93-2.51c-1.1,0-1.83,0.78-1.94,2.62h3.87V12.94z"/>
<path class="st4" d="M509.29,16.79l-0.3,0.89c-0.76-0.1-1.26-0.44-1.47-1.22c-0.54,0.84-1.38,1.22-2.37,1.22
c-1.56,0-2.49-0.98-2.49-2.39c0-1.68,1.26-2.58,3.42-2.58h1.29v-0.63c0-1.17-0.55-1.62-1.7-1.62c-0.6,0-1.32,0.15-2.13,0.44
l-0.31-0.93c0.95-0.36,1.8-0.54,2.67-0.54c1.88,0,2.73,0.96,2.73,2.6v3.66C508.63,16.42,508.87,16.64,509.29,16.79z M507.37,15.44
v-1.89h-1.12c-1.47,0-2.25,0.56-2.25,1.68c0,0.96,0.5,1.49,1.44,1.49C506.29,16.72,506.91,16.28,507.37,15.44z"/>
<path class="st4" d="M517.98,13.54c0,2.42-1.05,4.14-3.07,4.14c-0.88,0-1.61-0.33-2.1-0.95v3.78l-1.26,0.15V9.61h1.08l0.09,1.09
c0.58-0.81,1.42-1.27,2.36-1.27C517.14,9.43,517.98,11.03,517.98,13.54z M516.63,13.54c0-2.1-0.63-3.1-1.86-3.1
c-0.87,0-1.53,0.62-1.96,1.26v3.93c0.42,0.65,1.05,1.02,1.82,1.02C515.92,16.64,516.63,15.65,516.63,13.54z"/>
<path class="st4" d="M526.84,13.54c0,2.42-1.05,4.14-3.07,4.14c-0.88,0-1.61-0.33-2.1-0.95v3.78l-1.26,0.15V9.61h1.08l0.09,1.09
c0.58-0.81,1.42-1.27,2.36-1.27C526,9.43,526.84,11.03,526.84,13.54z M525.49,13.54c0-2.1-0.63-3.1-1.86-3.1
c-0.87,0-1.53,0.62-1.96,1.26v3.93c0.42,0.65,1.05,1.02,1.82,1.02C524.79,16.64,525.49,15.65,525.49,13.54z"/>
<path class="st4" d="M534,10.33l-0.54,0.8c-0.7-0.47-1.3-0.69-2.05-0.69c-0.93,0-1.53,0.44-1.53,1.11c0,0.67,0.45,0.97,1.75,1.32
c1.67,0.44,2.59,1.06,2.59,2.44c0,1.6-1.46,2.37-3.04,2.37c-1.33,0-2.26-0.44-2.96-1.04l0.67-0.77c0.65,0.48,1.37,0.78,2.25,0.78
c1.05,0,1.75-0.48,1.75-1.27c0-0.83-0.41-1.12-1.96-1.54c-1.69-0.45-2.37-1.16-2.37-2.27c0-1.25,1.19-2.15,2.79-2.15
C532.44,9.43,533.25,9.76,534,10.33z"/>
<path class="st4" d="M546.03,9.26c0,1.27-0.96,2.06-2.16,2.76l2.75,2.58c0.36-0.75,0.69-1.6,0.92-2.61l1.18,0.33
c-0.38,1.25-0.83,2.22-1.32,3.01l1.72,1.6l-0.92,0.74l-1.51-1.46c-0.83,0.93-1.86,1.46-3.32,1.46c-1.93,0-3.31-1.1-3.31-2.79
c0-1.32,0.83-2.17,2.12-2.98c-0.92-0.87-1.49-1.54-1.49-2.58c0-1.3,0.96-2.32,2.66-2.32C544.93,7,546.03,7.96,546.03,9.26z
M541.35,14.84c0,1.14,0.9,1.83,2.16,1.83c1.02,0,1.77-0.42,2.45-1.15l-3.06-2.92C541.86,13.25,541.35,13.93,541.35,14.84z
M541.93,9.31c0,0.76,0.42,1.27,1.21,2.02c1.02-0.6,1.63-1.19,1.63-2c0-0.88-0.57-1.4-1.42-1.4
C542.44,7.94,541.93,8.53,541.93,9.31z"/>
<path class="st4" d="M562.11,13.54c0,2.49-1.15,4.14-3.07,4.14c-0.88,0-1.61-0.42-2.13-1.08l-0.14,0.9h-1.09V6.43l1.26-0.15v4.35
c0.54-0.75,1.29-1.2,2.27-1.2C560.98,9.43,562.11,10.91,562.11,13.54z M560.76,13.54c0-2.26-0.75-3.1-1.91-3.1
c-0.9,0-1.5,0.62-1.92,1.26v3.87c0.42,0.65,1.07,1.11,1.82,1.11C559.95,16.67,560.76,15.73,560.76,13.54z"/>
<path class="st4" d="M570.42,16.79l-0.3,0.89c-0.76-0.1-1.26-0.44-1.47-1.22c-0.54,0.84-1.38,1.22-2.37,1.22
c-1.56,0-2.49-0.98-2.49-2.39c0-1.68,1.26-2.58,3.42-2.58h1.29v-0.63c0-1.17-0.55-1.62-1.7-1.62c-0.6,0-1.32,0.15-2.13,0.44
l-0.31-0.93c0.95-0.36,1.8-0.54,2.67-0.54c1.88,0,2.73,0.96,2.73,2.6v3.66C569.76,16.42,570,16.64,570.42,16.79z M568.5,15.44
v-1.89h-1.12c-1.47,0-2.25,0.56-2.25,1.68c0,0.96,0.5,1.49,1.44,1.49C567.42,16.72,568.03,16.28,568.5,15.44z"/>
<path class="st4" d="M577.87,10.27l-0.62,0.79c-0.52-0.39-1.04-0.58-1.71-0.58c-1.29,0-2.11,1-2.11,3.12c0,2.1,0.82,3,2.11,3
c0.67,0,1.16-0.21,1.74-0.62l0.58,0.83c-0.67,0.57-1.47,0.87-2.37,0.87c-2.1,0-3.42-1.52-3.42-4.06c0-2.52,1.3-4.19,3.42-4.19
C576.42,9.43,577.15,9.67,577.87,10.27z"/>
<path class="st4" d="M581.07,17.5h-1.26V6.43l1.26-0.15V17.5z M582.57,13.1l3.34,4.4h-1.51l-3.24-4.3l3-3.58h1.41L582.57,13.1z"/>
<path class="st4" d="M586.56,12.26h4.19v1.08h-4.19V12.26z"/>
<path class="st4" d="M598.96,13.99h-5.08c0.12,1.9,1.02,2.65,2.21,2.65c0.79,0,1.38-0.23,2.07-0.71l0.55,0.75
c-0.76,0.62-1.63,0.99-2.71,0.99c-2.17,0-3.45-1.54-3.45-4.05c0-2.48,1.23-4.2,3.24-4.2c2.12,0,3.21,1.48,3.21,3.87
C598.99,13.57,598.98,13.82,598.96,13.99z M597.75,12.94c0-1.59-0.63-2.51-1.93-2.51c-1.1,0-1.83,0.78-1.94,2.62h3.87V12.94z"/>
<path class="st4" d="M607.26,11.84v5.65H606v-5.47c0-1.22-0.5-1.6-1.3-1.6c-0.93,0-1.56,0.58-2.1,1.45v5.62h-1.26V9.61h1.08
l0.11,1.2c0.57-0.82,1.41-1.38,2.47-1.38C606.43,9.43,607.26,10.34,607.26,11.84z"/>
<path class="st4" d="M616.09,6.43V17.5H615l-0.13-1.11c-0.5,0.78-1.29,1.29-2.29,1.29c-1.9,0-2.97-1.62-2.97-4.1
c0-2.41,1.16-4.15,3.09-4.15c0.96,0,1.65,0.45,2.14,0.99V6.28L616.09,6.43z M614.83,15.43v-3.92c-0.48-0.65-1.05-1.08-1.88-1.08
c-1.23,0-2.01,1.04-2.01,3.14c0,2.1,0.69,3.1,1.88,3.1C613.75,16.67,614.31,16.21,614.83,15.43z"/>
<path class="st4" d="M623.76,10.33l-0.54,0.8c-0.7-0.47-1.3-0.69-2.05-0.69c-0.93,0-1.53,0.44-1.53,1.11
c0,0.67,0.45,0.97,1.75,1.32c1.67,0.44,2.59,1.06,2.59,2.44c0,1.6-1.46,2.37-3.04,2.37c-1.33,0-2.26-0.44-2.96-1.04l0.67-0.77
c0.65,0.48,1.37,0.78,2.25,0.78c1.05,0,1.75-0.48,1.75-1.27c0-0.83-0.41-1.12-1.96-1.54c-1.7-0.45-2.37-1.16-2.37-2.27
c0-1.25,1.19-2.15,2.79-2.15C622.2,9.43,623.01,9.76,623.76,10.33z"/>
<line class="st5" x1="320" y1="0" x2="320" y2="275"/>
</svg>
