<?xml version="1.0" encoding="utf-8"?>
<!DOCTYPE svg PUBLIC "-//W3C//DTD SVG 1.1//EN" "http://www.w3.org/Graphics/SVG/1.1/DTD/svg11.dtd">
<svg version="1.1" xmlns="http://www.w3.org/2000/svg" xmlns:xlink="http://www.w3.org/1999/xlink" width="900" height="400">
<style>
line {
  stroke: #B1ABC6;
  stroke-width: 2px;
}
path {
  fill: #B1ABC6;
}
circle {
  fill: #3D2C6F;
}
</style>
<g id="Nodes">
	<circle cx="31.67"  cy="156.67" r="29.67"/>
	<circle cx="41.67"  cy="267.33" r="29.67"/>
	<circle cx="117.67" cy="73.67"  r="29.67"/>
	<circle cx="126.33" cy="333.33" r="29.67"/>
	<circle cx="257.33" cy="357.67" r="29.67"/>
	<circle cx="395.33" cy="366.33" r="29.67"/>
	<circle cx="521.67" cy="364.33" r="29.67"/>
	<circle cx="867"    cy="170.33" r="29.67"/>
	<circle cx="751.34" cy="322"    r="29.67"/>
	<circle cx="843.33" cy="267.33" r="29.67"/>
	<circle cx="641.67" cy="350"    r="29.67"/>
	<circle cx="253.33" cy="44"     r="29.67"/>
	<circle cx="402.33" cy="31.33"  r="29.67"/>
	<circle cx="539"    cy="32.67"  r="29.67"/>
	<circle cx="801.67" cy="88.67"  r="29.67"/>
	<circle cx="680.33" cy="48.67"  r="29.67"/>
</g>
<g id="Arrows">
	<line x1="71.33"  y1="258.33" x2="533"    y2="62.33"/>
	<line x1="138.28" y1="94.99"  x2="837.33" y2="175.5"/>
	<line x1="265.67" y1="69.67"  x2="509.62" y2="337.69"/>
	<line x1="265.67" y1="69.67"  x2="631.87" y2="322"/>
	<line x1="409.78" y1="60.06"  x2="509.62" y2="337.69"/>
	<line x1="61.33"  y1="159"    x2="387.61" y2="337.69"/>
	<line x1="813.67" y1="261"    x2="533"    y2="62.33"/>
	<line x1="775.4"  y1="102.46" x2="257.33" y2="328"/>
	<line x1="665.25" y1="73.67"  x2="539"    y2="340.26"/>
	<line x1="837.33" y1="175.5"  x2="61.33"  y2="159"/>
	<line x1="151.99" y1="318.44" x2="533"    y2="62.33"/>
	<line x1="509.62" y1="337.69" x2="138.28" y2="94.99"/>
	<line x1="257.33" y1="328"    x2="409.78" y2="60.06"/>
	<line x1="387.61" y1="337.69" x2="665.25" y2="73.67"/>
	<line x1="265.67" y1="69.67"  x2="387.61" y2="337.69"/>
	<line x1="539"    y1="340.26" x2="775.4"  y2="102.46"/>
	<line x1="728.02" y1="303.67" x2="409.78" y2="60.06"/>
	<line x1="631.87" y1="322"    x2="533"    y2="62.33"/>
</g>
</svg>
