<?xml version="1.0" encoding="utf-8"?>
<!DOCTYPE svg PUBLIC "-//W3C//DTD SVG 1.1//EN" "http://www.w3.org/Graphics/SVG/1.1/DTD/svg11.dtd">
<svg version="1.1" xmlns="http://www.w3.org/2000/svg" xmlns:xlink="http://www.w3.org/1999/xlink" width="900" height="400">
<style>
line {
  stroke: #B1ABC6;
  stroke-width: 2px;
}
path {
  fill: #B1ABC6;
}
circle {
  fill: #3D2C6F;
}
#Aggregators circle {
  opacity: .3;
}
</style>
<g id="Nodes">
	<circle cx="31.67"  cy="156.67" r="29.67"/>
	<circle cx="41.67"  cy="267.33" r="29.67"/>
	<circle cx="117.67" cy="73.67"  r="29.67"/>
	<circle cx="126.33" cy="333.33" r="29.67"/>
	<circle cx="257.33" cy="357.67" r="29.67"/>
	<circle cx="395.33" cy="366.33" r="29.67"/>
	<circle cx="521.67" cy="364.33" r="29.67"/>
	<circle cx="867"    cy="170.33" r="29.67"/>
	<circle cx="751.34" cy="322"    r="29.67"/>
	<circle cx="843.33" cy="267.33" r="29.67"/>
	<circle cx="641.67" cy="350"    r="29.67"/>
	<circle cx="253.33" cy="44"     r="29.67"/>
	<circle cx="402.33" cy="31.33"  r="29.67"/>
	<circle cx="539"    cy="32.67"  r="29.67"/>
	<circle cx="801.67" cy="88.67"  r="29.67"/>
	<circle cx="680.33" cy="48.67"  r="29.67"/>
</g>
<g id="Arrows">
	<line x1="71.33"  y1="266.25" x2="219.17" y2="242.14"/>
	<line x1="126.33" y1="102.04" x2="237.95" y2="187.67"/>
	<line x1="257.33" y1="73.67"  x2="263.66" y2="180"/>
	<line x1="530.18" y1="61"     x2="472.89" y2="117.51"/>
	<line x1="276.65" y1="62.33"  x2="386.72" y2="128.07"/>
	<line x1="306.33" y1="207.29" x2="389.89" y2="161.55"/>
	<line x1="476.2"  y1="156.67" x2="568.67" y2="200"/>
	<line x1="409.78" y1="60.06"  x2="420.89" y2="94.99"/>
	<line x1="61.33"  y1="159"    x2="217.66" y2="217.33"/>
	<line x1="813.67" y1="261"    x2="658.63" y2="223.27"/>
	<line x1="775.4"  y1="102.46" x2="645.22" y2="184.09"/>
	<line x1="664.37" y1="73.67"  x2="615.67" y2="170.33"/>
	<line x1="837.33" y1="175.5"  x2="656.29" y2="201.59"/>
	<line x1="151.99" y1="318.44" x2="231.4"  y2="261.16"/>
	<line x1="509.62" y1="337.69" x2="450"    y2="184.09"/>
	<line x1="257.33" y1="328"    x2="263.66" y2="274"/>
	<line x1="403.06" y1="337.69" x2="415.33" y2="184.62"/>
	<line x1="298.22" y1="258.85" x2="373.2"  y2="346.59"/>
	<line x1="539"    y1="340.26" x2="582.86" y2="254.2"/>
	<line x1="728.02" y1="303.67" x2="648.54" y2="246.88"/>
	<line x1="631.87" y1="322"    x2="612"    y2="264.33"/>
</g>
<g id="Aggregators">
	<circle cx="263.66" cy="227"    r="47"/>
	<circle cx="432"    cy="140.67" r="47"/>
	<circle cx="612"    cy="217.33" r="47"/>
</g>
</svg>
