<?xml version="1.0" encoding="utf-8"?>
<!DOCTYPE svg PUBLIC "-//W3C//DTD SVG 1.1//EN" "http://www.w3.org/Graphics/SVG/1.1/DTD/svg11.dtd">
<svg version="1.1" xmlns="http://www.w3.org/2000/svg" width="640" height="230">
<rect x="530" y="35" fill="#D8D5E2" width="70" height="35"/>
<g>
	<path fill="#3D2C70" d="M540,130c0,11.05,8.95,20,20,20h60c11.05,0,20-8.95,20-20v-30c0-11.05-8.95-20-20-20h-60
		c-11.05,0-20,8.95-20,20V130z"/>
</g>
<g>
	<path fill="#FFFFFF" d="M577.42,111.81l-1.02,1.41c-0.51-0.39-0.97-0.57-1.51-0.57c-1.02,0-1.61,0.69-1.61,2.48
		c0,1.77,0.63,2.31,1.57,2.31c0.57,0,0.96-0.18,1.53-0.54l1.03,1.47c-0.73,0.59-1.59,0.95-2.68,0.95c-2.45,0-3.95-1.65-3.95-4.17
		c0-2.54,1.52-4.3,3.9-4.3C575.8,110.83,576.66,111.16,577.42,111.81z"/>
	<path fill="#FFFFFF" d="M578.5,117.03v-9.11l2.37-0.25v9.27c0,0.33,0.12,0.49,0.4,0.49c0.17,0,0.29-0.03,0.39-0.07l0.46,1.68
		c-0.36,0.15-0.87,0.27-1.44,0.27C579.31,119.31,578.5,118.48,578.5,117.03z"/>
	<path fill="#FFFFFF" d="M585.76,108.24c0,0.76-0.58,1.35-1.41,1.35c-0.82,0-1.39-0.58-1.39-1.35s0.57-1.35,1.39-1.35
		C585.18,106.89,585.76,107.47,585.76,108.24z M585.55,119.05h-2.37v-7.96h2.37V119.05z"/>
	<path fill="#FFFFFF" d="M594.46,115.77h-4.92c0.15,1.42,0.82,1.81,1.8,1.81c0.64,0,1.21-0.22,1.9-0.71l0.98,1.32
		c-0.79,0.63-1.82,1.11-3.11,1.11c-2.65,0-4.01-1.71-4.01-4.2c0-2.38,1.31-4.28,3.72-4.28c2.28,0,3.68,1.5,3.68,4.08
		C594.51,115.17,594.49,115.53,594.46,115.77z M592.18,114.24c-0.01-1.08-0.34-1.83-1.29-1.83c-0.79,0-1.25,0.5-1.37,1.93h2.65
		V114.24z"/>
	<path fill="#FFFFFF" d="M602.89,113.23v5.82h-2.37v-5.42c0-0.84-0.29-1.06-0.75-1.06c-0.53,0-0.96,0.38-1.38,1.04v5.44h-2.37v-7.96
		h2.07l0.16,0.95c0.68-0.78,1.44-1.2,2.43-1.2C602.07,110.83,602.89,111.72,602.89,113.23z"/>
	<path fill="#FFFFFF" d="M609.82,118.68c-0.6,0.42-1.44,0.63-2.16,0.63c-1.76-0.01-2.61-1-2.61-2.88v-3.69h-1.12v-1.65h1.12v-1.72
		l2.37-0.27v2h1.83l-0.26,1.65h-1.57v3.66c0,0.77,0.26,1.04,0.75,1.04c0.27,0,0.54-0.07,0.86-0.27L609.82,118.68z"/>
</g>
<g>
	<path fill="#8B80A9" d="M270,130c0,11.05,8.95,20,20,20h60c11.05,0,20-8.95,20-20v-30c0-11.05-8.95-20-20-20h-60
		c-11.05,0-20,8.95-20,20V130z"/>
</g>
<g>
	<path fill="#FFFFFF" d="M289.21,117.72l-0.5,1.54c-0.93-0.08-1.54-0.36-1.92-1.14c-0.57,0.87-1.46,1.19-2.4,1.19
		c-1.59,0-2.6-1.04-2.6-2.49c0-1.74,1.32-2.68,3.74-2.68h0.81v-0.34c0-0.95-0.38-1.23-1.35-1.23c-0.51,0-1.29,0.15-2.08,0.42
		l-0.54-1.56c1-0.38,2.1-0.58,3-0.58c2.31,0,3.3,0.97,3.3,2.82v3.09C288.67,117.36,288.84,117.58,289.21,117.72z M286.35,116.86
		v-1.42h-0.58c-1.08,0-1.6,0.38-1.6,1.17c0,0.63,0.34,1,0.93,1C285.63,117.61,286.06,117.33,286.35,116.86z"/>
	<path fill="#FFFFFF" d="M298.05,111.55c-0.55,0.22-1.29,0.31-2.29,0.31c1,0.44,1.5,1.02,1.5,2.05c0,1.54-1.28,2.67-3.34,2.67
		c-0.33,0-0.63-0.03-0.92-0.09c-0.17,0.09-0.25,0.27-0.25,0.45c0,0.24,0.1,0.48,0.87,0.48h1.2c1.86,0,3.04,0.97,3.04,2.31
		c0,1.63-1.44,2.64-4.17,2.64c-3.01,0-3.81-0.99-3.81-2.57H292c0,0.69,0.3,0.99,1.74,0.99c1.39,0,1.72-0.39,1.72-0.9
		c0-0.46-0.34-0.78-1.14-0.78h-1.16c-1.74,0-2.44-0.72-2.44-1.58c0-0.58,0.38-1.17,0.94-1.53c-1.02-0.54-1.42-1.24-1.42-2.28
		c0-1.8,1.41-2.91,3.5-2.91c1.77,0.04,2.79-0.46,3.75-1.04L298.05,111.55z M292.6,113.71c0,0.87,0.48,1.35,1.2,1.35
		c0.78,0,1.2-0.46,1.2-1.38c0-0.88-0.41-1.29-1.2-1.29C293.07,112.39,292.6,112.89,292.6,113.71z"/>
	<path fill="#FFFFFF" d="M306.46,111.55c-0.55,0.22-1.29,0.31-2.29,0.31c1,0.44,1.5,1.02,1.5,2.05c0,1.54-1.28,2.67-3.34,2.67
		c-0.33,0-0.63-0.03-0.92-0.09c-0.17,0.09-0.25,0.27-0.25,0.45c0,0.24,0.1,0.48,0.87,0.48h1.2c1.86,0,3.04,0.97,3.04,2.31
		c0,1.63-1.44,2.64-4.17,2.64c-3.01,0-3.81-0.99-3.81-2.57h2.13c0,0.69,0.3,0.99,1.74,0.99c1.39,0,1.72-0.39,1.72-0.9
		c0-0.46-0.34-0.78-1.14-0.78h-1.16c-1.74,0-2.44-0.72-2.44-1.58c0-0.58,0.38-1.17,0.94-1.53c-1.02-0.54-1.42-1.24-1.42-2.28
		c0-1.8,1.41-2.91,3.5-2.91c1.77,0.04,2.79-0.46,3.75-1.04L306.46,111.55z M301.02,113.71c0,0.87,0.48,1.35,1.2,1.35
		c0.78,0,1.2-0.46,1.2-1.38c0-0.88-0.41-1.29-1.2-1.29C301.48,112.39,301.02,112.89,301.02,113.71z"/>
	<path fill="#FFFFFF" d="M312.66,110.97l-0.38,2.29c-0.25-0.06-0.45-0.1-0.72-0.1c-0.98,0-1.4,0.72-1.65,1.92v3.97h-2.37v-7.96h2.07
		l0.2,1.53c0.36-1.1,1.14-1.75,2.05-1.75C312.16,110.86,312.4,110.89,312.66,110.97z"/>
	<path fill="#FFFFFF" d="M320.46,115.77h-4.92c0.15,1.42,0.82,1.81,1.8,1.81c0.64,0,1.21-0.22,1.9-0.71l0.98,1.32
		c-0.79,0.63-1.82,1.11-3.11,1.11c-2.65,0-4-1.71-4-4.2c0-2.38,1.31-4.28,3.72-4.28c2.28,0,3.67,1.5,3.67,4.08
		C320.5,115.17,320.49,115.53,320.46,115.77z M318.18,114.24c-0.01-1.08-0.34-1.83-1.29-1.83c-0.79,0-1.25,0.5-1.37,1.93h2.66
		V114.24z"/>
	<path fill="#FFFFFF" d="M329.35,111.55c-0.55,0.22-1.29,0.31-2.29,0.31c1,0.44,1.5,1.02,1.5,2.05c0,1.54-1.28,2.67-3.35,2.67
		c-0.33,0-0.63-0.03-0.91-0.09c-0.17,0.09-0.26,0.27-0.26,0.45c0,0.24,0.11,0.48,0.87,0.48h1.2c1.86,0,3.04,0.97,3.04,2.31
		c0,1.63-1.44,2.64-4.17,2.64c-3.02,0-3.81-0.99-3.81-2.57h2.13c0,0.69,0.3,0.99,1.74,0.99c1.39,0,1.72-0.39,1.72-0.9
		c0-0.46-0.35-0.78-1.14-0.78h-1.15c-1.74,0-2.45-0.72-2.45-1.58c0-0.58,0.38-1.17,0.95-1.53c-1.02-0.54-1.43-1.24-1.43-2.28
		c0-1.8,1.41-2.91,3.5-2.91c1.77,0.04,2.79-0.46,3.75-1.04L329.35,111.55z M323.91,113.71c0,0.87,0.48,1.35,1.2,1.35
		c0.78,0,1.2-0.46,1.2-1.38c0-0.88-0.41-1.29-1.2-1.29C324.37,112.39,323.91,112.89,323.91,113.71z"/>
	<path fill="#FFFFFF" d="M337.3,117.72l-0.49,1.54c-0.93-0.08-1.54-0.36-1.92-1.14c-0.57,0.87-1.46,1.19-2.4,1.19
		c-1.59,0-2.6-1.04-2.6-2.49c0-1.74,1.32-2.68,3.74-2.68h0.81v-0.34c0-0.95-0.38-1.23-1.35-1.23c-0.51,0-1.29,0.15-2.08,0.42
		l-0.54-1.56c1.01-0.38,2.1-0.58,3-0.58c2.31,0,3.3,0.97,3.3,2.82v3.09C336.76,117.36,336.93,117.58,337.3,117.72z M334.44,116.86
		v-1.42h-0.58c-1.08,0-1.61,0.38-1.61,1.17c0,0.63,0.35,1,0.93,1C333.72,117.61,334.15,117.33,334.44,116.86z"/>
	<path fill="#FFFFFF" d="M343.79,118.68c-0.6,0.42-1.44,0.63-2.16,0.63c-1.75-0.01-2.61-1-2.61-2.88v-3.69h-1.12v-1.65h1.12v-1.72
		l2.37-0.27v2h1.83l-0.25,1.65h-1.58v3.66c0,0.77,0.26,1.04,0.75,1.04c0.27,0,0.54-0.07,0.86-0.27L343.79,118.68z"/>
	<path fill="#FFFFFF" d="M351.94,115.08c0,2.55-1.47,4.23-3.9,4.23c-2.41,0-3.9-1.56-3.9-4.24c0-2.55,1.47-4.23,3.9-4.23
		S351.94,112.39,351.94,115.08z M346.6,115.06c0,1.77,0.48,2.5,1.44,2.5c0.96,0,1.44-0.76,1.44-2.49c0-1.77-0.48-2.5-1.44-2.5
		C347.08,112.57,346.6,113.34,346.6,115.06z"/>
	<path fill="#FFFFFF" d="M358.62,110.97l-0.38,2.29c-0.25-0.06-0.45-0.1-0.72-0.1c-0.98,0-1.4,0.72-1.65,1.92v3.97h-2.37v-7.96h2.07
		l0.2,1.53c0.36-1.1,1.14-1.75,2.05-1.75C358.12,110.86,358.36,110.89,358.62,110.97z"/>
</g>
<g>
	<path fill="#3D2C70" d="M553.06,50.04v11.29l-2.37-0.26v-3.84c-0.46,0.58-1.14,1.02-2.12,1.02c-2.03,0-3.03-1.68-3.03-4.26
		c0-2.46,1.25-4.21,3.3-4.21c0.77,0,1.46,0.31,2.03,0.93l0.12-0.68H553.06z M550.69,55.63v-3.45c-0.36-0.42-0.72-0.67-1.23-0.67
		c-0.86,0-1.46,0.72-1.46,2.5c0,1.98,0.54,2.5,1.32,2.5C549.88,56.52,550.31,56.21,550.69,55.63z"/>
	<path fill="#3D2C70" d="M561.79,58h-2.05l-0.11-1c-0.58,0.84-1.37,1.26-2.41,1.26c-1.49,0-2.22-0.96-2.22-2.5v-5.71h2.37v5.42
		c0,0.81,0.27,1.05,0.77,1.05s0.95-0.33,1.29-0.93v-5.54h2.37V58z"/>
	<path fill="#3D2C70" d="M570.7,54.72h-4.92c0.15,1.42,0.82,1.81,1.8,1.81c0.64,0,1.21-0.23,1.9-0.71l0.98,1.32
		c-0.79,0.63-1.82,1.11-3.11,1.11c-2.65,0-4.01-1.71-4.01-4.2c0-2.38,1.31-4.27,3.72-4.27c2.28,0,3.68,1.5,3.68,4.08
		C570.74,54.12,570.73,54.48,570.7,54.72z M568.42,53.19c-0.01-1.08-0.34-1.83-1.29-1.83c-0.79,0-1.25,0.49-1.37,1.93h2.65V53.19z"
		/>
	<path fill="#3D2C70" d="M577.37,49.92L577,52.21c-0.25-0.06-0.45-0.1-0.72-0.1c-0.98,0-1.4,0.72-1.65,1.92V58h-2.37v-7.96h2.07
		l0.2,1.53c0.36-1.1,1.14-1.75,2.05-1.75C576.88,49.81,577.12,49.84,577.37,49.92z"/>
	<path fill="#3D2C70" d="M583.16,58.02c-0.63,2.01-1.98,3.18-4.49,3.31l-0.25-1.67c1.56-0.2,2.13-0.65,2.56-1.67h-0.81l-2.43-7.96
		h2.52l1.43,6.45l1.56-6.45h2.44L583.16,58.02z"/>
</g>
<g>
	<g>
		<line fill="none" stroke="#3D2C70" x1="540" y1="115" x2="372.83" y2="115"/>
		<g>
			<polygon fill="#3D2C70" points="378.74,111.82 379.08,112.76 372.92,115 379.08,117.24 378.74,118.18 370,115 			"/>
		</g>
	</g>
</g>
<g>
	<g>
		<line fill="none" stroke="#8B80A9" x1="270" y1="115" x2="139.93" y2="129.55"/>
		<g>
			<polygon fill="#8B80A9" points="145.45,125.73 145.9,126.63 140.03,129.54 146.4,131.08 146.16,132.05 137.12,129.86 			"/>
		</g>
	</g>
</g>
<g>
	<g>
		<line fill="none" stroke="#8B80A9" x1="270" y1="115" x2="96.33" y2="63.62"/>
		<g>
			<polygon fill="#8B80A9" points="102.9,62.25 102.96,63.25 96.43,63.65 101.69,67.54 101.1,68.35 93.62,62.82 			"/>
		</g>
	</g>
</g>
<g>
	<g>
		<line fill="none" stroke="#8B80A9" x1="270" y1="115" x2="205.85" y2="52.83"/>
		<g>
			<polygon fill="#8B80A9" points="212.3,54.66 211.9,55.57 205.92,52.9 208.78,58.79 207.88,59.23 203.82,50.87 			"/>
		</g>
	</g>
</g>
<g>
	<g>
		<line fill="none" stroke="#8B80A9" x1="270" y1="115" x2="85.74" y2="189.31"/>
		<g>
			<polygon fill="#8B80A9" points="90.04,184.15 90.71,184.89 85.83,189.27 92.38,189.05 92.42,190.04 83.12,190.36 			"/>
		</g>
	</g>
</g>
<g>
	<g>
		<line fill="none" stroke="#8B80A9" x1="270" y1="115" x2="222.69" y2="173.02"/>
		<g>
			<polygon fill="#8B80A9" points="223.96,166.43 224.91,166.76 222.76,172.94 228.38,169.59 228.89,170.45 220.91,175.21 			"/>
		</g>
	</g>
</g>
<g>
	<g>
		<line fill="none" stroke="#3D2C70" x1="540" y1="115" x2="420.05" y2="57.09"/>
		<g>
			<polygon fill="#3D2C70" points="426.76,56.8 426.66,57.79 420.14,57.14 424.71,61.83 423.99,62.53 417.51,55.87 			"/>
		</g>
	</g>
</g>
<g>
	<g>
		<line fill="none" stroke="#3D2C70" x1="540" y1="115" x2="443.75" y2="175.82"/>
		<g>
			<polygon fill="#3D2C70" points="447.05,169.97 447.84,170.58 443.83,175.77 450.23,174.37 450.44,175.35 441.36,177.33 			"/>
		</g>
	</g>
</g>
<path fill="#FFFFFF" stroke="#3D2C70" stroke-width="2" d="M84.46,190.36c0,15.36-18.23,27.82-40.73,27.82
	C21.24,218.18,3,205.73,3,190.36c0-15.36,18.24-27.82,40.73-27.82C66.22,162.55,84.46,175,84.46,190.36z"/>
<g>
	<path fill="#3D2C70" d="M20.03,184.07v11.13h-2.1l-0.12-0.93c-0.45,0.66-1.18,1.19-2.26,1.19c-2.03,0-3.03-1.68-3.03-4.26
		c0-2.46,1.25-4.21,3.3-4.21c0.72,0,1.37,0.29,1.85,0.75v-3.92L20.03,184.07z M17.66,192.83v-3.45c-0.36-0.42-0.72-0.67-1.23-0.67
		c-0.85,0-1.46,0.72-1.46,2.5c0,1.98,0.54,2.5,1.32,2.5C16.85,193.72,17.28,193.42,17.66,192.83z"/>
	<path fill="#3D2C70" d="M28.91,193.87l-0.5,1.54c-0.93-0.08-1.54-0.36-1.92-1.14c-0.57,0.87-1.46,1.19-2.4,1.19
		c-1.59,0-2.6-1.04-2.6-2.49c0-1.74,1.32-2.69,3.74-2.69h0.81v-0.34c0-0.95-0.38-1.23-1.35-1.23c-0.51,0-1.29,0.15-2.08,0.42
		l-0.54-1.56c1-0.38,2.1-0.58,3-0.58c2.31,0,3.3,0.97,3.3,2.82v3.09C28.37,193.51,28.53,193.73,28.91,193.87z M26.04,193.01v-1.42
		h-0.58c-1.08,0-1.6,0.38-1.6,1.17c0,0.63,0.34,1,0.93,1C25.32,193.76,25.76,193.48,26.04,193.01z"/>
	<path fill="#3D2C70" d="M35.4,194.83c-0.6,0.42-1.44,0.63-2.16,0.63c-1.75-0.02-2.61-1.01-2.61-2.88v-3.69h-1.12v-1.65h1.12v-1.72
		l2.37-0.27v1.99h1.83l-0.25,1.65H33v3.66c0,0.76,0.26,1.04,0.75,1.04c0.27,0,0.54-0.08,0.86-0.27L35.4,194.83z"/>
	<path fill="#3D2C70" d="M43.22,193.87l-0.5,1.54c-0.93-0.08-1.54-0.36-1.92-1.14c-0.57,0.87-1.46,1.19-2.4,1.19
		c-1.59,0-2.6-1.04-2.6-2.49c0-1.74,1.32-2.69,3.74-2.69h0.81v-0.34c0-0.95-0.38-1.23-1.35-1.23c-0.51,0-1.29,0.15-2.08,0.42
		l-0.54-1.56c1-0.38,2.1-0.58,3-0.58c2.31,0,3.3,0.97,3.3,2.82v3.09C42.68,193.51,42.84,193.73,43.22,193.87z M40.35,193.01v-1.42
		h-0.58c-1.08,0-1.6,0.38-1.6,1.17c0,0.63,0.34,1,0.93,1C39.63,193.76,40.07,193.48,40.35,193.01z"/>
	<path fill="#3D2C70" d="M55.89,191.2c0,2.46-1.2,4.26-3.17,4.26c-0.78,0-1.44-0.27-1.93-0.84v3.66l-2.37,0.25v-11.29h2.08
		l0.12,0.89c0.66-0.83,1.51-1.14,2.25-1.14C54.98,186.98,55.89,188.62,55.89,191.2z M53.43,191.23c0-1.98-0.48-2.5-1.3-2.5
		c-0.51,0-0.99,0.34-1.33,0.93v3.36c0.33,0.48,0.72,0.71,1.21,0.71C52.89,193.72,53.43,193.01,53.43,191.23z"/>
	<path fill="#3D2C70" d="M64.88,191.23c0,2.55-1.47,4.23-3.9,4.23c-2.42,0-3.9-1.56-3.9-4.25c0-2.55,1.47-4.23,3.9-4.23
		S64.88,188.54,64.88,191.23z M59.54,191.21c0,1.77,0.48,2.5,1.44,2.5s1.44-0.77,1.44-2.49c0-1.77-0.48-2.5-1.44-2.5
		S59.54,189.49,59.54,191.21z"/>
	<path fill="#3D2C70" d="M73.58,184.07v11.13h-2.1l-0.12-0.93c-0.45,0.66-1.18,1.19-2.26,1.19c-2.03,0-3.03-1.68-3.03-4.26
		c0-2.46,1.25-4.21,3.3-4.21c0.72,0,1.37,0.29,1.85,0.75v-3.92L73.58,184.07z M71.21,192.83v-3.45c-0.36-0.42-0.72-0.67-1.23-0.67
		c-0.85,0-1.46,0.72-1.46,2.5c0,1.98,0.54,2.5,1.32,2.5C70.4,193.72,70.83,193.42,71.21,192.83z"/>
</g>
<path fill="#FFFFFF" stroke="#3D2C70" stroke-width="2" d="M138.46,129.86c0,15.36-18.23,27.82-40.73,27.82
	c-22.49,0-40.73-12.46-40.73-27.82c0-15.36,18.24-27.82,40.73-27.82C120.22,102.05,138.46,114.5,138.46,129.86z"/>
<g>
	<path fill="#3D2C70" d="M74.02,123.57v11.13h-2.1l-0.12-0.93c-0.45,0.66-1.18,1.19-2.26,1.19c-2.03,0-3.03-1.68-3.03-4.26
		c0-2.46,1.25-4.21,3.3-4.21c0.72,0,1.37,0.29,1.85,0.75v-3.92L74.02,123.57z M71.65,132.33v-3.45c-0.36-0.42-0.72-0.68-1.23-0.68
		c-0.85,0-1.46,0.72-1.46,2.51c0,1.98,0.54,2.5,1.32,2.5C70.84,133.22,71.28,132.92,71.65,132.33z"/>
	<path fill="#3D2C70" d="M82.9,133.37l-0.5,1.54c-0.93-0.08-1.54-0.36-1.92-1.14c-0.57,0.87-1.46,1.19-2.4,1.19
		c-1.59,0-2.6-1.04-2.6-2.49c0-1.74,1.32-2.68,3.74-2.68h0.81v-0.34c0-0.95-0.38-1.23-1.35-1.23c-0.51,0-1.29,0.15-2.08,0.42
		l-0.54-1.56c1-0.38,2.1-0.58,3-0.58c2.31,0,3.3,0.97,3.3,2.82v3.09C82.36,133.01,82.53,133.23,82.9,133.37z M80.04,132.51v-1.42
		h-0.58c-1.08,0-1.6,0.38-1.6,1.17c0,0.63,0.34,1,0.93,1C79.32,133.26,79.75,132.98,80.04,132.51z"/>
	<path fill="#3D2C70" d="M89.4,134.33c-0.6,0.42-1.44,0.63-2.16,0.63c-1.75-0.01-2.61-1-2.61-2.88v-3.69H83.5v-1.65h1.12v-1.72
		l2.37-0.27v2h1.83l-0.25,1.65H87v3.66c0,0.77,0.26,1.04,0.75,1.04c0.27,0,0.54-0.07,0.86-0.27L89.4,134.33z"/>
	<path fill="#3D2C70" d="M97.21,133.37l-0.5,1.54c-0.93-0.08-1.54-0.36-1.92-1.14c-0.57,0.87-1.46,1.19-2.4,1.19
		c-1.59,0-2.6-1.04-2.6-2.49c0-1.74,1.32-2.68,3.74-2.68h0.81v-0.34c0-0.95-0.38-1.23-1.35-1.23c-0.51,0-1.29,0.15-2.08,0.42
		l-0.54-1.56c1-0.38,2.1-0.58,3-0.58c2.31,0,3.3,0.97,3.3,2.82v3.09C96.67,133.01,96.84,133.23,97.21,133.37z M94.35,132.51v-1.42
		h-0.58c-1.08,0-1.6,0.38-1.6,1.17c0,0.63,0.34,1,0.93,1C93.63,133.26,94.06,132.98,94.35,132.51z"/>
	<path fill="#3D2C70" d="M109.89,130.7c0,2.46-1.2,4.26-3.17,4.26c-0.78,0-1.44-0.27-1.93-0.84v3.66l-2.37,0.25v-11.29h2.08
		l0.12,0.89c0.66-0.83,1.51-1.14,2.25-1.14C108.97,126.48,109.89,128.12,109.89,130.7z M107.43,130.73c0-1.98-0.48-2.5-1.3-2.5
		c-0.51,0-0.99,0.34-1.33,0.93v3.36c0.33,0.48,0.72,0.71,1.21,0.71C106.89,133.22,107.43,132.51,107.43,130.73z"/>
	<path fill="#3D2C70" d="M118.87,130.73c0,2.55-1.47,4.23-3.9,4.23c-2.42,0-3.9-1.56-3.9-4.24c0-2.55,1.47-4.23,3.9-4.23
		S118.87,128.04,118.87,130.73z M113.53,130.71c0,1.77,0.48,2.5,1.44,2.5s1.44-0.76,1.44-2.49c0-1.77-0.48-2.5-1.44-2.5
		S113.53,128.99,113.53,130.71z"/>
	<path fill="#3D2C70" d="M127.57,123.57v11.13h-2.1l-0.12-0.93c-0.45,0.66-1.18,1.19-2.26,1.19c-2.03,0-3.03-1.68-3.03-4.26
		c0-2.46,1.25-4.21,3.3-4.21c0.72,0,1.37,0.29,1.85,0.75v-3.92L127.57,123.57z M125.2,132.33v-3.45c-0.36-0.42-0.72-0.68-1.23-0.68
		c-0.85,0-1.46,0.72-1.46,2.51c0,1.98,0.54,2.5,1.32,2.5C124.39,133.22,124.83,132.92,125.2,132.33z"/>
</g>
<path fill="#FFFFFF" stroke="#3D2C70" stroke-width="2" d="M447.96,192.5c0,15.36-18.23,27.82-40.73,27.82
	c-22.49,0-40.73-12.46-40.73-27.82c0-15.36,18.24-27.82,40.73-27.82C429.72,164.68,447.96,177.14,447.96,192.5z"/>
<g>
	<path fill="#3D2C70" d="M383.53,186.21v11.13h-2.1l-0.12-0.93c-0.45,0.66-1.18,1.19-2.26,1.19c-2.03,0-3.03-1.68-3.03-4.26
		c0-2.46,1.25-4.21,3.3-4.21c0.72,0,1.37,0.29,1.85,0.75v-3.92L383.53,186.21z M381.16,194.97v-3.45c-0.36-0.42-0.72-0.68-1.23-0.68
		c-0.85,0-1.46,0.72-1.46,2.51c0,1.98,0.54,2.5,1.32,2.5C380.35,195.85,380.78,195.55,381.16,194.97z"/>
	<path fill="#3D2C70" d="M392.41,196l-0.5,1.54c-0.93-0.08-1.54-0.36-1.92-1.14c-0.57,0.87-1.46,1.19-2.4,1.19
		c-1.59,0-2.6-1.04-2.6-2.49c0-1.74,1.32-2.68,3.74-2.68h0.81v-0.34c0-0.95-0.38-1.23-1.35-1.23c-0.51,0-1.29,0.15-2.08,0.42
		l-0.54-1.56c1-0.38,2.1-0.58,3-0.58c2.31,0,3.3,0.97,3.3,2.82v3.09C391.87,195.64,392.03,195.87,392.41,196z M389.54,195.15v-1.42
		h-0.58c-1.08,0-1.6,0.38-1.6,1.17c0,0.63,0.34,1,0.93,1C388.82,195.9,389.26,195.61,389.54,195.15z"/>
	<path fill="#3D2C70" d="M398.9,196.96c-0.6,0.42-1.44,0.63-2.16,0.63c-1.75-0.01-2.61-1-2.61-2.88v-3.69h-1.12v-1.65h1.12v-1.72
		l2.37-0.27v2h1.83l-0.25,1.65h-1.58v3.66c0,0.77,0.26,1.04,0.75,1.04c0.27,0,0.54-0.07,0.86-0.27L398.9,196.96z"/>
	<path fill="#3D2C70" d="M406.72,196l-0.5,1.54c-0.93-0.08-1.54-0.36-1.92-1.14c-0.57,0.87-1.46,1.19-2.4,1.19
		c-1.59,0-2.6-1.04-2.6-2.49c0-1.74,1.32-2.68,3.74-2.68h0.81v-0.34c0-0.95-0.38-1.23-1.35-1.23c-0.51,0-1.29,0.15-2.08,0.42
		l-0.54-1.56c1-0.38,2.1-0.58,3-0.58c2.31,0,3.3,0.97,3.3,2.82v3.09C406.18,195.64,406.34,195.87,406.72,196z M403.85,195.15v-1.42
		h-0.58c-1.08,0-1.6,0.38-1.6,1.17c0,0.63,0.34,1,0.93,1C403.13,195.9,403.57,195.61,403.85,195.15z"/>
	<path fill="#3D2C70" d="M419.39,193.33c0,2.46-1.2,4.26-3.17,4.26c-0.78,0-1.44-0.27-1.93-0.84v3.66l-2.37,0.25v-11.29h2.08
		l0.12,0.89c0.66-0.83,1.51-1.14,2.25-1.14C418.48,189.12,419.39,190.75,419.39,193.33z M416.93,193.36c0-1.98-0.48-2.5-1.3-2.5
		c-0.51,0-0.99,0.34-1.33,0.93v3.36c0.33,0.48,0.72,0.71,1.21,0.71C416.39,195.85,416.93,195.15,416.93,193.36z"/>
	<path fill="#3D2C70" d="M428.38,193.36c0,2.55-1.47,4.23-3.9,4.23c-2.42,0-3.9-1.56-3.9-4.24c0-2.55,1.47-4.23,3.9-4.23
		S428.38,190.68,428.38,193.36z M423.04,193.35c0,1.77,0.48,2.5,1.44,2.5s1.44-0.76,1.44-2.49c0-1.77-0.48-2.5-1.44-2.5
		S423.04,191.62,423.04,193.35z"/>
	<path fill="#3D2C70" d="M437.08,186.21v11.13h-2.1l-0.12-0.93c-0.45,0.66-1.18,1.19-2.26,1.19c-2.03,0-3.03-1.68-3.03-4.26
		c0-2.46,1.25-4.21,3.3-4.21c0.72,0,1.37,0.29,1.85,0.75v-3.92L437.08,186.21z M434.71,194.97v-3.45c-0.36-0.42-0.72-0.68-1.23-0.68
		c-0.85,0-1.46,0.72-1.46,2.51c0,1.98,0.54,2.5,1.32,2.5C433.9,195.85,434.33,195.55,434.71,194.97z"/>
</g>
<path fill="#FFFFFF" stroke="#3D2C70" stroke-width="2" d="M94.96,55.86c0,15.36-18.23,27.82-40.73,27.82
	c-22.49,0-40.73-12.46-40.73-27.82c0-15.36,18.24-27.82,40.73-27.82C76.72,28.05,94.96,40.5,94.96,55.86z"/>
<g>
	<path fill="#3D2C70" d="M30.53,49.57V60.7h-2.1l-0.12-0.93c-0.45,0.66-1.18,1.19-2.26,1.19c-2.03,0-3.03-1.68-3.03-4.26
		c0-2.46,1.25-4.21,3.3-4.21c0.72,0,1.37,0.29,1.85,0.75v-3.92L30.53,49.57z M28.16,58.33v-3.45c-0.36-0.42-0.72-0.67-1.23-0.67
		c-0.85,0-1.46,0.72-1.46,2.5c0,1.98,0.54,2.5,1.32,2.5C27.35,59.22,27.78,58.92,28.16,58.33z"/>
	<path fill="#3D2C70" d="M39.41,59.37l-0.5,1.54c-0.93-0.08-1.54-0.36-1.92-1.14c-0.57,0.87-1.46,1.19-2.4,1.19
		c-1.59,0-2.6-1.03-2.6-2.49c0-1.74,1.32-2.69,3.74-2.69h0.81v-0.34c0-0.95-0.38-1.23-1.35-1.23c-0.51,0-1.29,0.15-2.08,0.42
		l-0.54-1.56c1-0.38,2.1-0.58,3-0.58c2.31,0,3.3,0.98,3.3,2.82v3.09C38.87,59.01,39.03,59.23,39.41,59.37z M36.54,58.51v-1.42h-0.58
		c-1.08,0-1.6,0.38-1.6,1.17c0,0.63,0.34,1,0.93,1C35.82,59.26,36.26,58.98,36.54,58.51z"/>
	<path fill="#3D2C70" d="M45.9,60.33c-0.6,0.42-1.44,0.63-2.16,0.63c-1.75-0.01-2.61-1-2.61-2.88v-3.69h-1.12v-1.65h1.12v-1.72
		l2.37-0.27v1.99h1.83l-0.25,1.65H43.5v3.66c0,0.76,0.26,1.03,0.75,1.03c0.27,0,0.54-0.07,0.86-0.27L45.9,60.33z"/>
	<path fill="#3D2C70" d="M53.72,59.37l-0.5,1.54c-0.93-0.08-1.54-0.36-1.92-1.14c-0.57,0.87-1.46,1.19-2.4,1.19
		c-1.59,0-2.6-1.03-2.6-2.49c0-1.74,1.32-2.69,3.74-2.69h0.81v-0.34c0-0.95-0.38-1.23-1.35-1.23c-0.51,0-1.29,0.15-2.08,0.42
		l-0.54-1.56c1-0.38,2.1-0.58,3-0.58c2.31,0,3.3,0.98,3.3,2.82v3.09C53.18,59.01,53.34,59.23,53.72,59.37z M50.85,58.51v-1.42h-0.58
		c-1.08,0-1.6,0.38-1.6,1.17c0,0.63,0.34,1,0.93,1C50.13,59.26,50.57,58.98,50.85,58.51z"/>
	<path fill="#3D2C70" d="M66.39,56.7c0,2.46-1.2,4.26-3.17,4.26c-0.78,0-1.44-0.27-1.93-0.84v3.66l-2.37,0.26V52.74h2.08l0.12,0.89
		c0.66-0.83,1.51-1.14,2.25-1.14C65.48,52.48,66.39,54.12,66.39,56.7z M63.93,56.73c0-1.98-0.48-2.5-1.3-2.5
		c-0.51,0-0.99,0.34-1.33,0.93v3.36c0.33,0.48,0.72,0.71,1.21,0.71C63.39,59.22,63.93,58.51,63.93,56.73z"/>
	<path fill="#3D2C70" d="M75.38,56.73c0,2.55-1.47,4.23-3.9,4.23c-2.42,0-3.9-1.56-3.9-4.24c0-2.55,1.47-4.23,3.9-4.23
		S75.38,54.04,75.38,56.73z M70.04,56.71c0,1.77,0.48,2.5,1.44,2.5s1.44-0.77,1.44-2.49c0-1.77-0.48-2.5-1.44-2.5
		S70.04,54.99,70.04,56.71z"/>
	<path fill="#3D2C70" d="M84.08,49.57V60.7h-2.1l-0.12-0.93c-0.45,0.66-1.18,1.19-2.26,1.19c-2.03,0-3.03-1.68-3.03-4.26
		c0-2.46,1.25-4.21,3.3-4.21c0.72,0,1.37,0.29,1.85,0.75v-3.92L84.08,49.57z M81.71,58.33v-3.45c-0.36-0.42-0.72-0.67-1.23-0.67
		c-0.85,0-1.46,0.72-1.46,2.5c0,1.98,0.54,2.5,1.32,2.5C80.9,59.22,81.33,58.92,81.71,58.33z"/>
</g>
<path fill="#FFFFFF" stroke="#3D2C70" stroke-width="2" d="M218.96,30c0,15.36-18.23,27.82-40.73,27.82
	c-22.49,0-40.73-12.46-40.73-27.82c0-15.36,18.24-27.82,40.73-27.82C200.72,2.18,218.96,14.64,218.96,30z"/>
<g>
	<path fill="#3D2C70" d="M154.53,23.71v11.13h-2.1l-0.12-0.93c-0.45,0.66-1.18,1.19-2.26,1.19c-2.03,0-3.03-1.68-3.03-4.26
		c0-2.46,1.25-4.21,3.3-4.21c0.72,0,1.37,0.29,1.85,0.75v-3.92L154.53,23.71z M152.16,32.47v-3.45c-0.36-0.42-0.72-0.67-1.23-0.67
		c-0.85,0-1.46,0.72-1.46,2.5c0,1.98,0.54,2.5,1.32,2.5C151.35,33.35,151.78,33.05,152.16,32.47z"/>
	<path fill="#3D2C70" d="M163.41,33.5l-0.5,1.54c-0.93-0.08-1.54-0.36-1.92-1.14c-0.57,0.87-1.46,1.19-2.4,1.19
		c-1.59,0-2.6-1.03-2.6-2.49c0-1.74,1.32-2.69,3.74-2.69h0.81v-0.34c0-0.95-0.38-1.23-1.35-1.23c-0.51,0-1.29,0.15-2.08,0.42
		l-0.54-1.56c1-0.38,2.1-0.58,3-0.58c2.31,0,3.3,0.98,3.3,2.82v3.09C162.87,33.14,163.03,33.37,163.41,33.5z M160.54,32.65v-1.42
		h-0.58c-1.08,0-1.6,0.38-1.6,1.17c0,0.63,0.34,1,0.93,1C159.82,33.4,160.26,33.11,160.54,32.65z"/>
	<path fill="#3D2C70" d="M169.9,34.46c-0.6,0.42-1.44,0.63-2.16,0.63c-1.75-0.01-2.61-1-2.61-2.88v-3.69h-1.12v-1.65h1.12v-1.72
		l2.37-0.27v1.99h1.83l-0.25,1.65h-1.58v3.66c0,0.76,0.26,1.03,0.75,1.03c0.27,0,0.54-0.07,0.86-0.27L169.9,34.46z"/>
	<path fill="#3D2C70" d="M177.72,33.5l-0.5,1.54c-0.93-0.08-1.54-0.36-1.92-1.14c-0.57,0.87-1.46,1.19-2.4,1.19
		c-1.59,0-2.6-1.03-2.6-2.49c0-1.74,1.32-2.69,3.74-2.69h0.81v-0.34c0-0.95-0.38-1.23-1.35-1.23c-0.51,0-1.29,0.15-2.08,0.42
		l-0.54-1.56c1-0.38,2.1-0.58,3-0.58c2.31,0,3.3,0.98,3.3,2.82v3.09C177.18,33.14,177.34,33.37,177.72,33.5z M174.85,32.65v-1.42
		h-0.58c-1.08,0-1.6,0.38-1.6,1.17c0,0.63,0.34,1,0.93,1C174.13,33.4,174.57,33.11,174.85,32.65z"/>
	<path fill="#3D2C70" d="M190.39,30.83c0,2.46-1.2,4.26-3.17,4.26c-0.78,0-1.44-0.27-1.93-0.84v3.66l-2.37,0.26V26.87H185l0.12,0.89
		c0.66-0.83,1.51-1.14,2.25-1.14C189.47,26.62,190.39,28.25,190.39,30.83z M187.93,30.86c0-1.98-0.48-2.5-1.3-2.5
		c-0.51,0-0.99,0.34-1.33,0.93v3.36c0.33,0.48,0.72,0.71,1.21,0.71C187.39,33.35,187.93,32.65,187.93,30.86z"/>
	<path fill="#3D2C70" d="M199.38,30.86c0,2.55-1.47,4.23-3.9,4.23c-2.42,0-3.9-1.56-3.9-4.24c0-2.55,1.47-4.23,3.9-4.23
		S199.38,28.18,199.38,30.86z M194.04,30.85c0,1.77,0.48,2.5,1.44,2.5s1.44-0.77,1.44-2.49c0-1.77-0.48-2.5-1.44-2.5
		S194.04,29.12,194.04,30.85z"/>
	<path fill="#3D2C70" d="M208.07,23.71v11.13h-2.1l-0.12-0.93c-0.45,0.66-1.18,1.19-2.26,1.19c-2.03,0-3.03-1.68-3.03-4.26
		c0-2.46,1.25-4.21,3.3-4.21c0.72,0,1.37,0.29,1.85,0.75v-3.92L208.07,23.71z M205.71,32.47v-3.45c-0.36-0.42-0.72-0.67-1.23-0.67
		c-0.85,0-1.46,0.72-1.46,2.5c0,1.98,0.54,2.5,1.32,2.5C204.89,33.35,205.33,33.05,205.71,32.47z"/>
</g>
<path fill="#FFFFFF" stroke="#3D2C70" stroke-width="2" d="M424.96,39.83c0,15.36-18.23,27.82-40.73,27.82
	c-22.49,0-40.73-12.46-40.73-27.82c0-15.36,18.24-27.82,40.73-27.82C406.72,12.02,424.96,24.47,424.96,39.83z"/>
<g>
	<path fill="#3D2C70" d="M360.53,33.54v11.13h-2.1l-0.12-0.93c-0.45,0.66-1.18,1.19-2.26,1.19c-2.03,0-3.03-1.68-3.03-4.26
		c0-2.46,1.25-4.21,3.3-4.21c0.72,0,1.37,0.29,1.85,0.75v-3.92L360.53,33.54z M358.16,42.3v-3.45c-0.36-0.42-0.72-0.67-1.23-0.67
		c-0.85,0-1.46,0.72-1.46,2.5c0,1.98,0.54,2.5,1.32,2.5C357.35,43.19,357.78,42.89,358.16,42.3z"/>
	<path fill="#3D2C70" d="M369.41,43.34l-0.5,1.54c-0.93-0.08-1.54-0.36-1.92-1.14c-0.57,0.87-1.46,1.19-2.4,1.19
		c-1.59,0-2.6-1.03-2.6-2.49c0-1.74,1.32-2.69,3.74-2.69h0.81v-0.34c0-0.95-0.38-1.23-1.35-1.23c-0.51,0-1.29,0.15-2.08,0.42
		l-0.54-1.56c1-0.38,2.1-0.58,3-0.58c2.31,0,3.3,0.98,3.3,2.82v3.09C368.87,42.98,369.03,43.2,369.41,43.34z M366.54,42.48v-1.42
		h-0.58c-1.08,0-1.6,0.38-1.6,1.17c0,0.63,0.34,1,0.93,1C365.82,43.23,366.26,42.95,366.54,42.48z"/>
	<path fill="#3D2C70" d="M375.9,44.3c-0.6,0.42-1.44,0.63-2.16,0.63c-1.75-0.01-2.61-1-2.61-2.88v-3.69h-1.12v-1.65h1.12v-1.72
		l2.37-0.27v1.99h1.83l-0.25,1.65h-1.58v3.66c0,0.76,0.26,1.03,0.75,1.03c0.27,0,0.54-0.07,0.86-0.27L375.9,44.3z"/>
	<path fill="#3D2C70" d="M383.72,43.34l-0.5,1.54c-0.93-0.08-1.54-0.36-1.92-1.14c-0.57,0.87-1.46,1.19-2.4,1.19
		c-1.59,0-2.6-1.03-2.6-2.49c0-1.74,1.32-2.69,3.74-2.69h0.81v-0.34c0-0.95-0.38-1.23-1.35-1.23c-0.51,0-1.29,0.15-2.08,0.42
		l-0.54-1.56c1-0.38,2.1-0.58,3-0.58c2.31,0,3.3,0.98,3.3,2.82v3.09C383.18,42.98,383.34,43.2,383.72,43.34z M380.85,42.48v-1.42
		h-0.58c-1.08,0-1.6,0.38-1.6,1.17c0,0.63,0.34,1,0.93,1C380.13,43.23,380.57,42.95,380.85,42.48z"/>
	<path fill="#3D2C70" d="M396.39,40.67c0,2.46-1.2,4.26-3.17,4.26c-0.78,0-1.44-0.27-1.93-0.84v3.66L388.92,48V36.71h2.08l0.12,0.89
		c0.66-0.83,1.51-1.14,2.25-1.14C395.48,36.45,396.39,38.09,396.39,40.67z M393.93,40.7c0-1.98-0.48-2.5-1.3-2.5
		c-0.51,0-0.99,0.34-1.33,0.93v3.36c0.33,0.48,0.72,0.71,1.21,0.71C393.39,43.19,393.93,42.48,393.93,40.7z"/>
	<path fill="#3D2C70" d="M405.38,40.7c0,2.55-1.47,4.23-3.9,4.23c-2.42,0-3.9-1.56-3.9-4.24c0-2.55,1.47-4.23,3.9-4.23
		S405.38,38.01,405.38,40.7z M400.04,40.68c0,1.77,0.48,2.5,1.44,2.5s1.44-0.77,1.44-2.49c0-1.77-0.48-2.5-1.44-2.5
		S400.04,38.96,400.04,40.68z"/>
	<path fill="#3D2C70" d="M414.08,33.54v11.13h-2.1l-0.12-0.93c-0.45,0.66-1.18,1.19-2.26,1.19c-2.03,0-3.03-1.68-3.03-4.26
		c0-2.46,1.25-4.21,3.3-4.21c0.72,0,1.37,0.29,1.85,0.75v-3.92L414.08,33.54z M411.71,42.3v-3.45c-0.36-0.42-0.72-0.67-1.23-0.67
		c-0.85,0-1.46,0.72-1.46,2.5c0,1.98,0.54,2.5,1.32,2.5C410.9,43.19,411.33,42.89,411.71,42.3z"/>
</g>
<path fill="#FFFFFF" stroke="#3D2C70" stroke-width="2" d="M243.68,200.18c0,15.36-18.23,27.82-40.73,27.82
	c-22.49,0-40.73-12.46-40.73-27.82c0-15.36,18.24-27.82,40.73-27.82C225.45,172.36,243.68,184.82,243.68,200.18z"/>
<g>
	<path fill="#3D2C70" d="M179.25,193.89v11.13h-2.1l-0.12-0.93c-0.45,0.66-1.18,1.18-2.26,1.18c-2.03,0-3.03-1.68-3.03-4.26
		c0-2.46,1.25-4.21,3.3-4.21c0.72,0,1.37,0.29,1.85,0.75v-3.91L179.25,193.89z M176.88,202.65v-3.45c-0.36-0.42-0.72-0.67-1.23-0.67
		c-0.85,0-1.46,0.72-1.46,2.5c0,1.98,0.54,2.5,1.32,2.5C176.07,203.53,176.51,203.23,176.88,202.65z"/>
	<path fill="#3D2C70" d="M188.13,203.68l-0.5,1.54c-0.93-0.07-1.54-0.36-1.92-1.14c-0.57,0.87-1.46,1.18-2.4,1.18
		c-1.59,0-2.6-1.03-2.6-2.49c0-1.74,1.32-2.68,3.74-2.68h0.81v-0.35c0-0.95-0.38-1.23-1.35-1.23c-0.51,0-1.29,0.15-2.08,0.42
		l-0.54-1.56c1-0.38,2.1-0.59,3-0.59c2.31,0,3.3,0.98,3.3,2.82v3.09C187.59,203.32,187.76,203.55,188.13,203.68z M185.27,202.83
		v-1.42h-0.58c-1.08,0-1.6,0.38-1.6,1.17c0,0.63,0.34,1,0.93,1C184.55,203.58,184.98,203.29,185.27,202.83z"/>
	<path fill="#3D2C70" d="M194.63,204.64c-0.6,0.42-1.44,0.63-2.16,0.63c-1.75-0.01-2.61-1-2.61-2.88v-3.69h-1.12v-1.65h1.12v-1.72
		l2.37-0.27v2h1.83l-0.25,1.65h-1.58v3.66c0,0.76,0.26,1.03,0.75,1.03c0.27,0,0.54-0.07,0.86-0.27L194.63,204.64z"/>
	<path fill="#3D2C70" d="M202.44,203.68l-0.5,1.54c-0.93-0.07-1.54-0.36-1.92-1.14c-0.57,0.87-1.46,1.18-2.4,1.18
		c-1.59,0-2.6-1.03-2.6-2.49c0-1.74,1.32-2.68,3.74-2.68h0.81v-0.35c0-0.95-0.38-1.23-1.35-1.23c-0.51,0-1.29,0.15-2.08,0.42
		l-0.54-1.56c1-0.38,2.1-0.59,3-0.59c2.31,0,3.3,0.98,3.3,2.82v3.09C201.9,203.32,202.07,203.55,202.44,203.68z M199.58,202.83
		v-1.42h-0.58c-1.08,0-1.6,0.38-1.6,1.17c0,0.63,0.34,1,0.93,1C198.86,203.58,199.29,203.29,199.58,202.83z"/>
	<path fill="#3D2C70" d="M215.12,201.01c0,2.46-1.2,4.26-3.17,4.26c-0.78,0-1.44-0.27-1.93-0.84v3.66l-2.37,0.26v-11.29h2.08
		l0.12,0.88c0.66-0.83,1.51-1.14,2.25-1.14C214.2,196.8,215.12,198.43,215.12,201.01z M212.66,201.04c0-1.98-0.48-2.51-1.3-2.51
		c-0.51,0-0.99,0.35-1.33,0.93v3.36c0.33,0.48,0.72,0.71,1.21,0.71C212.12,203.53,212.66,202.83,212.66,201.04z"/>
	<path fill="#3D2C70" d="M224.1,201.04c0,2.55-1.47,4.23-3.9,4.23c-2.42,0-3.9-1.56-3.9-4.24c0-2.55,1.47-4.23,3.9-4.23
		S224.1,198.36,224.1,201.04z M218.76,201.03c0,1.77,0.48,2.5,1.44,2.5s1.44-0.76,1.44-2.49c0-1.77-0.48-2.51-1.44-2.51
		S218.76,199.3,218.76,201.03z"/>
	<path fill="#3D2C70" d="M232.8,193.89v11.13h-2.1l-0.12-0.93c-0.45,0.66-1.18,1.18-2.26,1.18c-2.03,0-3.03-1.68-3.03-4.26
		c0-2.46,1.25-4.21,3.3-4.21c0.72,0,1.37,0.29,1.85,0.75v-3.91L232.8,193.89z M230.43,202.65v-3.45c-0.36-0.42-0.72-0.67-1.23-0.67
		c-0.85,0-1.46,0.72-1.46,2.5c0,1.98,0.54,2.5,1.32,2.5C229.62,203.53,230.06,203.23,230.43,202.65z"/>
</g>
</svg>
