<?xml version="1.0" encoding="utf-8"?>
<!DOCTYPE svg PUBLIC "-//W3C//DTD SVG 1.1//EN" "http://www.w3.org/Graphics/SVG/1.1/DTD/svg11.dtd">
<svg version="1.1" xmlns="http://www.w3.org/2000/svg" width="640" height="230">
<g>
	<path fill="#3D2C70" d="M369.83,210c0,11.05,8.95,20,20,20h230c11.05,0,20-8.95,20-20V20c0-11.05-8.95-20-20-20h-230
		c-11.05,0-20,8.95-20,20V210z"/>
</g>
<line fill="none" stroke="#B1ABC6" stroke-width="2" stroke-miterlimit="10" stroke-dasharray="2" x1="369.83" y1="102.5" x2="639.83" y2="102.5"/>
<line fill="none" stroke="#8B80A9" stroke-width="2" stroke-miterlimit="10" stroke-dasharray="2" x1="320" y1="230" x2="320" y2="0"/>
<g>
	<path fill="#D8D5E2" d="M385,180c0,5.52,4.48,10,10,10h220c5.52,0,10-4.48,10-10v-40c0-5.52-4.48-10-10-10H395
		c-5.52,0-10,4.48-10,10V180z"/>
</g>
<ellipse fill="#FFFFFF" stroke="#3D2C70" stroke-width="2" stroke-miterlimit="10" cx="182.65" cy="41.37" rx="68.98" ry="39.37"/>
<g>
	<path fill="#3D2C70" d="M130.7,35.63v11.13h-2.1l-0.12-0.93c-0.45,0.66-1.18,1.19-2.26,1.19c-2.03,0-3.03-1.68-3.03-4.26
		c0-2.46,1.25-4.21,3.3-4.21c0.72,0,1.37,0.29,1.85,0.75v-3.92L130.7,35.63z M128.33,44.39v-3.45c-0.36-0.42-0.72-0.67-1.23-0.67
		c-0.85,0-1.46,0.72-1.46,2.5c0,1.98,0.54,2.5,1.32,2.5C127.52,45.27,127.95,44.97,128.33,44.39z"/>
	<path fill="#3D2C70" d="M139.58,45.42l-0.5,1.54c-0.93-0.08-1.54-0.36-1.92-1.14c-0.57,0.87-1.46,1.19-2.4,1.19
		c-1.59,0-2.6-1.03-2.6-2.49c0-1.74,1.32-2.69,3.74-2.69h0.81v-0.34c0-0.95-0.38-1.23-1.35-1.23c-0.51,0-1.29,0.15-2.08,0.42
		l-0.54-1.56c1-0.38,2.1-0.58,3-0.58c2.31,0,3.3,0.98,3.3,2.82v3.09C139.04,45.06,139.2,45.29,139.58,45.42z M136.71,44.57v-1.42
		h-0.58c-1.08,0-1.6,0.38-1.6,1.17c0,0.63,0.34,1,0.93,1C135.99,45.32,136.43,45.03,136.71,44.57z"/>
	<path fill="#3D2C70" d="M146.07,46.38c-0.6,0.42-1.44,0.63-2.16,0.63c-1.75-0.01-2.61-1-2.61-2.88v-3.69h-1.12v-1.65h1.12v-1.72
		l2.37-0.27v1.99h1.83l-0.25,1.65h-1.58v3.66c0,0.76,0.26,1.03,0.75,1.03c0.27,0,0.54-0.07,0.86-0.27L146.07,46.38z"/>
	<path fill="#3D2C70" d="M153.89,45.42l-0.5,1.54c-0.93-0.08-1.54-0.36-1.92-1.14c-0.57,0.87-1.46,1.19-2.4,1.19
		c-1.59,0-2.6-1.03-2.6-2.49c0-1.74,1.32-2.69,3.74-2.69h0.81v-0.34c0-0.95-0.38-1.23-1.35-1.23c-0.51,0-1.29,0.15-2.08,0.42
		l-0.54-1.56c1-0.38,2.1-0.58,3-0.58c2.31,0,3.3,0.98,3.3,2.82v3.09C153.35,45.06,153.51,45.29,153.89,45.42z M151.02,44.57v-1.42
		h-0.58c-1.08,0-1.6,0.38-1.6,1.17c0,0.63,0.34,1,0.93,1C150.3,45.32,150.74,45.03,151.02,44.57z"/>
	<path fill="#3D2C70" d="M166.56,42.75c0,2.46-1.2,4.26-3.17,4.26c-0.78,0-1.44-0.27-1.93-0.84v3.66l-2.37,0.26V38.79h2.08
		l0.12,0.89c0.66-0.83,1.51-1.14,2.25-1.14C165.65,38.54,166.56,40.17,166.56,42.75z M164.1,42.78c0-1.98-0.48-2.5-1.3-2.5
		c-0.51,0-0.99,0.34-1.33,0.93v3.36c0.33,0.48,0.72,0.71,1.21,0.71C163.56,45.27,164.1,44.57,164.1,42.78z"/>
	<path fill="#3D2C70" d="M175.55,42.78c0,2.55-1.47,4.23-3.9,4.23c-2.42,0-3.9-1.56-3.9-4.24c0-2.55,1.47-4.23,3.9-4.23
		S175.55,40.1,175.55,42.78z M170.21,42.77c0,1.77,0.48,2.5,1.44,2.5s1.44-0.77,1.44-2.49c0-1.77-0.48-2.5-1.44-2.5
		S170.21,41.04,170.21,42.77z"/>
	<path fill="#3D2C70" d="M184.25,35.63v11.13h-2.1l-0.12-0.93c-0.45,0.66-1.18,1.19-2.26,1.19c-2.03,0-3.03-1.68-3.03-4.26
		c0-2.46,1.25-4.21,3.3-4.21c0.72,0,1.37,0.29,1.85,0.75v-3.92L184.25,35.63z M181.88,44.39v-3.45c-0.36-0.42-0.72-0.67-1.23-0.67
		c-0.85,0-1.46,0.72-1.46,2.5c0,1.98,0.54,2.5,1.32,2.5C181.07,45.27,181.5,44.97,181.88,44.39z"/>
</g>
<g>
	<path fill="#FFFFFF" d="M409.18,203.42v11.13h-2.1l-0.12-0.93c-0.45,0.66-1.19,1.19-2.27,1.19c-2.02,0-3.03-1.68-3.03-4.26
		c0-2.46,1.24-4.21,3.3-4.21c0.72,0,1.36,0.29,1.84,0.75v-3.92L409.18,203.42z M406.81,212.18v-3.45c-0.36-0.42-0.72-0.68-1.23-0.68
		c-0.85,0-1.46,0.72-1.46,2.51c0,1.98,0.54,2.5,1.32,2.5C406,213.07,406.44,212.77,406.81,212.18z"/>
	<path fill="#FFFFFF" d="M418.09,211.27h-4.92c0.15,1.42,0.83,1.81,1.8,1.81c0.64,0,1.21-0.22,1.9-0.71l0.98,1.32
		c-0.79,0.63-1.82,1.11-3.1,1.11c-2.66,0-4.01-1.71-4.01-4.2c0-2.38,1.31-4.28,3.72-4.28c2.28,0,3.67,1.5,3.67,4.08
		C418.14,210.67,418.12,211.03,418.09,211.27z M415.81,209.74c-0.02-1.08-0.35-1.83-1.29-1.83c-0.79,0-1.25,0.5-1.36,1.93h2.65
		V209.74z"/>
	<path fill="#FFFFFF" d="M425.83,207.31l-1.02,1.41c-0.51-0.39-0.98-0.57-1.52-0.57c-1.02,0-1.61,0.69-1.61,2.48
		c0,1.77,0.63,2.31,1.58,2.31c0.57,0,0.96-0.18,1.53-0.54l1.04,1.47c-0.74,0.59-1.59,0.95-2.69,0.95c-2.44,0-3.94-1.65-3.94-4.17
		c0-2.54,1.51-4.3,3.9-4.3C424.21,206.33,425.07,206.66,425.83,207.31z"/>
	<path fill="#FFFFFF" d="M433.74,211.27h-4.92c0.15,1.42,0.83,1.81,1.8,1.81c0.65,0,1.21-0.22,1.91-0.71l0.98,1.32
		c-0.79,0.63-1.82,1.11-3.11,1.11c-2.65,0-4-1.71-4-4.2c0-2.38,1.31-4.28,3.72-4.28c2.28,0,3.67,1.5,3.67,4.08
		C433.78,210.67,433.77,211.03,433.74,211.27z M431.46,209.74c-0.01-1.08-0.34-1.83-1.29-1.83c-0.79,0-1.25,0.5-1.37,1.93h2.65
		V209.74z"/>
	<path fill="#FFFFFF" d="M442.17,208.73v5.82h-2.37v-5.42c0-0.84-0.29-1.06-0.75-1.06c-0.53,0-0.96,0.38-1.38,1.04v5.44h-2.37v-7.96
		h2.07l0.17,0.95c0.67-0.78,1.44-1.2,2.43-1.2C441.34,206.33,442.17,207.22,442.17,208.73z"/>
	<path fill="#FFFFFF" d="M449.1,214.18c-0.6,0.42-1.44,0.63-2.16,0.63c-1.76-0.01-2.61-1-2.61-2.88v-3.69h-1.12v-1.65h1.12v-1.72
		l2.37-0.27v2h1.83l-0.26,1.65h-1.57v3.66c0,0.77,0.25,1.04,0.75,1.04c0.27,0,0.54-0.07,0.85-0.27L449.1,214.18z"/>
	<path fill="#FFFFFF" d="M455.16,206.47l-0.38,2.29c-0.25-0.06-0.45-0.1-0.72-0.1c-0.98,0-1.4,0.72-1.65,1.92v3.97h-2.37v-7.96h2.07
		l0.2,1.53c0.36-1.1,1.14-1.75,2.05-1.75C454.66,206.36,454.9,206.39,455.16,206.47z"/>
	<path fill="#FFFFFF" d="M462.78,213.22l-0.49,1.54c-0.93-0.08-1.54-0.36-1.92-1.14c-0.57,0.87-1.46,1.19-2.4,1.19
		c-1.59,0-2.6-1.04-2.6-2.49c0-1.74,1.32-2.68,3.74-2.68h0.81v-0.34c0-0.95-0.38-1.23-1.35-1.23c-0.51,0-1.29,0.15-2.08,0.42
		l-0.54-1.56c1.01-0.38,2.1-0.58,3-0.58c2.31,0,3.3,0.97,3.3,2.82v3.09C462.24,212.86,462.4,213.08,462.78,213.22z M459.91,212.36
		v-1.42h-0.58c-1.08,0-1.61,0.38-1.61,1.17c0,0.63,0.35,1,0.93,1C459.19,213.11,459.62,212.83,459.91,212.36z"/>
	<path fill="#FFFFFF" d="M464.2,212.53v-9.11l2.37-0.25v9.27c0,0.33,0.12,0.49,0.41,0.49c0.16,0,0.29-0.03,0.39-0.07l0.46,1.68
		c-0.36,0.15-0.87,0.27-1.44,0.27C465.01,214.81,464.2,213.98,464.2,212.53z"/>
	<path fill="#FFFFFF" d="M471.46,203.74c0,0.76-0.59,1.35-1.41,1.35s-1.39-0.58-1.39-1.35s0.57-1.35,1.39-1.35
		S471.46,202.97,471.46,203.74z M471.25,214.55h-2.37v-7.96h2.37V214.55z"/>
	<path fill="#FFFFFF" d="M478.87,208.25l-3.6,4.5h3.68l-0.21,1.8h-6.21v-1.68l3.62-4.5h-3.3v-1.79h6.03V208.25z"/>
	<path fill="#FFFFFF" d="M487.2,211.27h-4.92c0.15,1.42,0.82,1.81,1.8,1.81c0.64,0,1.21-0.22,1.9-0.71l0.97,1.32
		c-0.79,0.63-1.81,1.11-3.11,1.11c-2.65,0-4-1.71-4-4.2c0-2.38,1.3-4.28,3.72-4.28c2.28,0,3.67,1.5,3.67,4.08
		C487.24,210.67,487.22,211.03,487.2,211.27z M484.92,209.74c-0.02-1.08-0.35-1.83-1.29-1.83c-0.79,0-1.24,0.5-1.37,1.93h2.66
		V209.74z"/>
	<path fill="#FFFFFF" d="M495.89,203.42v11.13h-2.1l-0.12-0.93c-0.45,0.66-1.18,1.19-2.26,1.19c-2.03,0-3.03-1.68-3.03-4.26
		c0-2.46,1.25-4.21,3.3-4.21c0.72,0,1.37,0.29,1.85,0.75v-3.92L495.89,203.42z M493.53,212.18v-3.45c-0.36-0.42-0.72-0.68-1.23-0.68
		c-0.86,0-1.46,0.72-1.46,2.51c0,1.98,0.54,2.5,1.32,2.5C492.71,213.07,493.15,212.77,493.53,212.18z"/>
	<path fill="#FFFFFF" d="M511.49,214.55h-3.2l-1.29-7.93l-1.37,7.93h-3.12l-1.71-10.39h2.46l1.04,8.53l1.44-8.53h2.58l1.35,8.53
		l1.21-8.53h2.34L511.49,214.55z"/>
	<path fill="#FFFFFF" d="M520.92,211.27H516c0.15,1.42,0.82,1.81,1.8,1.81c0.64,0,1.21-0.22,1.9-0.71l0.98,1.32
		c-0.79,0.63-1.82,1.11-3.11,1.11c-2.65,0-4.01-1.71-4.01-4.2c0-2.38,1.31-4.28,3.72-4.28c2.28,0,3.68,1.5,3.68,4.08
		C520.96,210.67,520.95,211.03,520.92,211.27z M518.63,209.74c-0.01-1.08-0.34-1.83-1.29-1.83c-0.79,0-1.25,0.5-1.37,1.93h2.65
		V209.74z"/>
	<path fill="#FFFFFF" d="M529.95,210.58c0,2.46-1.19,4.23-3.17,4.23c-0.88,0-1.6-0.38-2.08-1.02l-0.12,0.76h-2.1v-11.13l2.37-0.25
		v4.23c0.46-0.64,1.28-1.06,2.1-1.06C528.91,206.33,529.95,207.91,529.95,210.58z M527.48,210.58c0-2.03-0.54-2.5-1.27-2.5
		c-0.57,0-1.02,0.34-1.37,0.93v3.3c0.3,0.5,0.73,0.78,1.26,0.78C526.92,213.08,527.48,212.44,527.48,210.58z"/>
	<path fill="#FFFFFF" d="M542.15,213.22l-0.49,1.54c-0.93-0.08-1.54-0.36-1.92-1.14c-0.57,0.87-1.46,1.19-2.4,1.19
		c-1.59,0-2.6-1.04-2.6-2.49c0-1.74,1.32-2.68,3.74-2.68h0.81v-0.34c0-0.95-0.38-1.23-1.35-1.23c-0.51,0-1.29,0.15-2.08,0.42
		l-0.54-1.56c1.01-0.38,2.1-0.58,3-0.58c2.31,0,3.3,0.97,3.3,2.82v3.09C541.62,212.86,541.78,213.08,542.15,213.22z M539.29,212.36
		v-1.42h-0.58c-1.08,0-1.61,0.38-1.61,1.17c0,0.63,0.35,1,0.93,1C538.57,213.11,539,212.83,539.29,212.36z"/>
	<path fill="#FFFFFF" d="M551.12,210.55c0,2.46-1.2,4.26-3.16,4.26c-0.78,0-1.44-0.27-1.94-0.84v3.66l-2.37,0.25v-11.29h2.08
		l0.12,0.89c0.66-0.83,1.51-1.14,2.25-1.14C550.21,206.33,551.12,207.97,551.12,210.55z M548.66,210.58c0-1.98-0.48-2.5-1.3-2.5
		c-0.51,0-0.99,0.34-1.34,0.93v3.36c0.33,0.48,0.72,0.71,1.21,0.71C548.12,213.07,548.66,212.36,548.66,210.58z"/>
	<path fill="#FFFFFF" d="M560.23,210.55c0,2.46-1.2,4.26-3.16,4.26c-0.78,0-1.44-0.27-1.94-0.84v3.66l-2.37,0.25v-11.29h2.08
		l0.12,0.89c0.66-0.83,1.51-1.14,2.25-1.14C559.31,206.33,560.23,207.97,560.23,210.55z M557.77,210.58c0-1.98-0.48-2.5-1.3-2.5
		c-0.51,0-0.99,0.34-1.34,0.93v3.36c0.33,0.48,0.72,0.71,1.21,0.71C557.23,213.07,557.77,212.36,557.77,210.58z"/>
	<path fill="#FFFFFF" d="M561.79,212.53v-9.11l2.37-0.25v9.27c0,0.33,0.12,0.49,0.4,0.49c0.17,0,0.29-0.03,0.39-0.07l0.46,1.68
		c-0.36,0.15-0.87,0.27-1.44,0.27C562.6,214.81,561.79,213.98,561.79,212.53z"/>
	<path fill="#FFFFFF" d="M569.05,203.74c0,0.76-0.58,1.35-1.41,1.35c-0.82,0-1.39-0.58-1.39-1.35s0.57-1.35,1.39-1.35
		C568.46,202.39,569.05,202.97,569.05,203.74z M568.84,214.55h-2.37v-7.96h2.37V214.55z"/>
	<path fill="#FFFFFF" d="M577.03,207.31l-1.02,1.41c-0.51-0.39-0.97-0.57-1.52-0.57c-1.02,0-1.61,0.69-1.61,2.48
		c0,1.77,0.63,2.31,1.58,2.31c0.57,0,0.96-0.18,1.53-0.54l1.04,1.47c-0.73,0.59-1.59,0.95-2.69,0.95c-2.45,0-3.95-1.65-3.95-4.17
		c0-2.54,1.52-4.3,3.9-4.3C575.41,206.33,576.26,206.66,577.03,207.31z"/>
	<path fill="#FFFFFF" d="M585.05,213.22l-0.49,1.54c-0.93-0.08-1.54-0.36-1.92-1.14c-0.57,0.87-1.46,1.19-2.4,1.19
		c-1.59,0-2.6-1.04-2.6-2.49c0-1.74,1.32-2.68,3.74-2.68h0.81v-0.34c0-0.95-0.38-1.23-1.35-1.23c-0.51,0-1.29,0.15-2.08,0.42
		l-0.54-1.56c1.01-0.38,2.1-0.58,3-0.58c2.31,0,3.3,0.97,3.3,2.82v3.09C584.51,212.86,584.68,213.08,585.05,213.22z M582.19,212.36
		v-1.42h-0.58c-1.08,0-1.61,0.38-1.61,1.17c0,0.63,0.35,1,0.93,1C581.47,213.11,581.9,212.83,582.19,212.36z"/>
	<path fill="#FFFFFF" d="M591.55,214.18c-0.6,0.42-1.44,0.63-2.16,0.63c-1.76-0.01-2.61-1-2.61-2.88v-3.69h-1.12v-1.65h1.12v-1.72
		l2.37-0.27v2h1.83l-0.26,1.65h-1.57v3.66c0,0.77,0.26,1.04,0.75,1.04c0.27,0,0.54-0.07,0.86-0.27L591.55,214.18z"/>
	<path fill="#FFFFFF" d="M595.07,203.74c0,0.76-0.59,1.35-1.41,1.35s-1.39-0.58-1.39-1.35s0.57-1.35,1.39-1.35
		S595.07,202.97,595.07,203.74z M594.86,214.55h-2.37v-7.96h2.37V214.55z"/>
	<path fill="#FFFFFF" d="M604.22,210.58c0,2.55-1.47,4.23-3.9,4.23c-2.41,0-3.9-1.56-3.9-4.24c0-2.55,1.47-4.23,3.9-4.23
		S604.22,207.89,604.22,210.58z M598.88,210.56c0,1.77,0.48,2.5,1.44,2.5c0.96,0,1.44-0.76,1.44-2.49c0-1.77-0.48-2.5-1.44-2.5
		C599.36,208.07,598.88,208.84,598.88,210.56z"/>
	<path fill="#FFFFFF" d="M612.65,208.73v5.82h-2.37v-5.42c0-0.84-0.29-1.06-0.75-1.06c-0.53,0-0.96,0.38-1.38,1.04v5.44h-2.37v-7.96
		h2.07l0.16,0.95c0.68-0.78,1.44-1.2,2.43-1.2C611.83,206.33,612.65,207.22,612.65,208.73z"/>
</g>
<rect x="196.79" y="7.68" fill="#3D2C70" width="80.33" height="20.61"/>
<g>
	<path fill="#FFFFFF" d="M204.92,22.7h-1.27l1.04-7.38h1.27L204.92,22.7z M206.57,12.73c-0.07,0.46-0.43,0.8-0.95,0.8
		c-0.56,0-0.88-0.42-0.81-0.94c0.07-0.48,0.45-0.81,0.95-0.81C206.34,11.78,206.65,12.2,206.57,12.73z"/>
	<path fill="#FFFFFF" d="M213.84,17.52l-0.73,5.18h-1.27l0.73-5.15c0.14-1.04-0.22-1.32-0.79-1.32c-0.94,0-1.76,0.99-2.35,2.05
		l-0.6,4.43h-1.27l1.04-7.38h1.09l-0.11,1.44c0.69-0.97,1.5-1.61,2.56-1.61C213.37,15.15,214.05,16.05,213.84,17.52z"/>
	<path fill="#FFFFFF" d="M217.3,20.76c-0.11,0.74,0.06,1.04,0.66,1.04c0.34,0,0.64-0.11,1.04-0.34l0.42,0.92
		c-0.53,0.34-1.08,0.49-1.67,0.49c-1.27,0-1.92-0.77-1.72-2.14l0.62-4.41h-1.27l0.14-0.99h1.33l0.46-1.71l1.01-0.11l-0.25,1.82h1.74
		l-0.28,0.99h-1.6L217.3,20.76z"/>
	<path fill="#FFFFFF" d="M221.78,19.96c0.03,1.34,0.66,1.83,1.6,1.83c0.69,0,1.3-0.21,1.98-0.69l0.55,0.87
		c-0.8,0.57-1.67,0.9-2.65,0.9c-1.81,0-2.82-1.13-2.82-3c0-2.02,0.99-4.72,3.8-4.72c1.57,0,2.34,0.9,2.34,1.88
		C226.57,19.1,224.36,19.68,221.78,19.96z M225.22,17.07c0-0.35-0.21-0.9-1.01-0.9c-1.54,0-2.19,1.46-2.37,2.8
		C223.96,18.74,225.22,18.33,225.22,17.07z"/>
	<path fill="#FFFFFF" d="M232.74,15.25l-0.38,1.25c-0.21-0.06-0.36-0.07-0.6-0.07c-0.95,0-1.6,0.87-2.12,2.37l-0.56,3.91h-1.27
		l1.04-7.38h1.09l-0.08,1.51c0.56-1.15,1.33-1.68,2.14-1.68C232.27,15.15,232.52,15.2,232.74,15.25z"/>
	<path fill="#FFFFFF" d="M235.71,14.34l-0.14,0.98h1.78l-0.28,0.99h-1.64l-0.84,5.98c-0.29,2.09-1.12,2.69-2.76,3.39l-0.36-0.97
		c1.01-0.45,1.62-0.84,1.85-2.42l0.84-5.98h-1.3l0.14-0.99h1.3l0.15-1.05c0.17-1.23,1.05-2.07,2.51-2.07c0.71,0,1.19,0.2,1.74,0.53
		l-0.49,0.85c-0.43-0.29-0.85-0.35-1.21-0.35C236.17,13.23,235.81,13.63,235.71,14.34z"/>
	<path fill="#FFFFFF" d="M244.08,15.78l-0.8,5.24c-0.01,0.11-0.03,0.21-0.03,0.29c0,0.41,0.18,0.56,0.48,0.67l-0.36,0.88
		c-0.74-0.1-1.21-0.43-1.3-1.23c-0.57,0.74-1.33,1.23-2.2,1.23c-1.54,0-2.35-1.13-2.35-2.83c0-2.02,1.06-4.89,3.94-4.89
		C242.33,15.15,243.1,15.31,244.08,15.78z M238.89,20.06c0,1.23,0.46,1.79,1.29,1.79c0.79,0,1.36-0.59,1.93-1.36l0.62-4.08
		c-0.42-0.18-0.73-0.24-1.25-0.24C239.6,16.18,238.89,18.4,238.89,20.06z"/>
	<path fill="#FFFFFF" d="M251.39,15.97l-0.69,0.8c-0.45-0.39-0.87-0.55-1.44-0.55c-1.86,0-2.41,2.21-2.41,3.74
		c0,1.29,0.56,1.82,1.5,1.82c0.64,0,1.12-0.21,1.71-0.57l0.52,0.9c-0.73,0.52-1.5,0.77-2.31,0.77c-1.75,0-2.76-1.12-2.76-3.01
		c0-1.93,1.01-4.71,3.74-4.71C250.07,15.15,250.79,15.39,251.39,15.97z"/>
	<path fill="#FFFFFF" d="M253.32,19.96c0.03,1.34,0.66,1.83,1.6,1.83c0.69,0,1.3-0.21,1.98-0.69l0.55,0.87
		c-0.8,0.57-1.67,0.9-2.65,0.9c-1.81,0-2.82-1.13-2.82-3c0-2.02,0.99-4.72,3.8-4.72c1.57,0,2.34,0.9,2.34,1.88
		C258.11,19.1,255.9,19.68,253.32,19.96z M256.76,17.07c0-0.35-0.21-0.9-1.01-0.9c-1.54,0-2.19,1.46-2.37,2.8
		C255.5,18.74,256.76,18.33,256.76,17.07z"/>
	<path fill="#FFFFFF" d="M267.78,20.28h-3.63l-1.06,2.42h-1.36l4.43-9.65h1.67l1.69,9.65h-1.36L267.78,20.28z M267.61,19.2
		l-0.78-5.04l-2.21,5.04H267.61z"/>
</g>
<rect x="196.79" y="31.01" fill="#3D2C70" width="80.33" height="20.61"/>
<g>
	<path fill="#FFFFFF" d="M204.92,46.04h-1.27l1.04-7.38h1.27L204.92,46.04z M206.57,36.06c-0.07,0.46-0.43,0.8-0.95,0.8
		c-0.56,0-0.88-0.42-0.81-0.94c0.07-0.48,0.45-0.81,0.95-0.81C206.34,35.11,206.65,35.53,206.57,36.06z"/>
	<path fill="#FFFFFF" d="M213.84,40.85l-0.73,5.18h-1.27l0.73-5.15c0.14-1.04-0.22-1.32-0.79-1.32c-0.94,0-1.76,0.99-2.35,2.05
		l-0.6,4.43h-1.27l1.04-7.38h1.09l-0.11,1.44c0.69-0.97,1.5-1.61,2.56-1.61C213.37,38.49,214.05,39.38,213.84,40.85z"/>
	<path fill="#FFFFFF" d="M217.3,44.09c-0.11,0.74,0.06,1.04,0.66,1.04c0.34,0,0.64-0.11,1.04-0.34l0.42,0.92
		c-0.53,0.34-1.08,0.49-1.67,0.49c-1.27,0-1.92-0.77-1.72-2.14l0.62-4.41h-1.27l0.14-0.99h1.33l0.46-1.71l1.01-0.11l-0.25,1.82h1.74
		l-0.28,0.99h-1.6L217.3,44.09z"/>
	<path fill="#FFFFFF" d="M221.78,43.29c0.03,1.34,0.66,1.83,1.6,1.83c0.69,0,1.3-0.21,1.98-0.69l0.55,0.87
		c-0.8,0.57-1.67,0.9-2.65,0.9c-1.81,0-2.82-1.13-2.82-3c0-2.02,0.99-4.72,3.8-4.72c1.57,0,2.34,0.9,2.34,1.88
		C226.57,42.44,224.36,43.01,221.78,43.29z M225.22,40.41c0-0.35-0.21-0.9-1.01-0.9c-1.54,0-2.19,1.46-2.37,2.8
		C223.96,42.07,225.22,41.67,225.22,40.41z"/>
	<path fill="#FFFFFF" d="M232.74,38.59l-0.38,1.25c-0.21-0.06-0.36-0.07-0.6-0.07c-0.95,0-1.6,0.87-2.12,2.37l-0.56,3.91h-1.27
		l1.04-7.38h1.09l-0.08,1.51c0.56-1.15,1.33-1.68,2.14-1.68C232.27,38.49,232.52,38.53,232.74,38.59z"/>
	<path fill="#FFFFFF" d="M235.71,37.68l-0.14,0.98h1.78l-0.28,0.99h-1.64l-0.84,5.98c-0.29,2.09-1.12,2.69-2.76,3.39l-0.36-0.97
		c1.01-0.45,1.62-0.84,1.85-2.42l0.84-5.98h-1.3l0.14-0.99h1.3l0.15-1.05c0.17-1.23,1.05-2.07,2.51-2.07c0.71,0,1.19,0.2,1.74,0.53
		l-0.49,0.85c-0.43-0.29-0.85-0.35-1.21-0.35C236.17,36.57,235.81,36.96,235.71,37.68z"/>
	<path fill="#FFFFFF" d="M244.08,39.12l-0.8,5.24c-0.01,0.11-0.03,0.21-0.03,0.29c0,0.41,0.18,0.56,0.48,0.67l-0.36,0.88
		c-0.74-0.1-1.21-0.43-1.3-1.23c-0.57,0.74-1.33,1.23-2.2,1.23c-1.54,0-2.35-1.13-2.35-2.83c0-2.02,1.06-4.89,3.94-4.89
		C242.33,38.49,243.1,38.64,244.08,39.12z M238.89,43.39c0,1.23,0.46,1.79,1.29,1.79c0.79,0,1.36-0.59,1.93-1.36l0.62-4.08
		c-0.42-0.18-0.73-0.24-1.25-0.24C239.6,39.51,238.89,41.74,238.89,43.39z"/>
	<path fill="#FFFFFF" d="M251.39,39.3l-0.69,0.8c-0.45-0.39-0.87-0.55-1.44-0.55c-1.86,0-2.41,2.21-2.41,3.74
		c0,1.29,0.56,1.82,1.5,1.82c0.64,0,1.12-0.21,1.71-0.57l0.52,0.9c-0.73,0.52-1.5,0.77-2.31,0.77c-1.75,0-2.76-1.12-2.76-3.01
		c0-1.93,1.01-4.71,3.74-4.71C250.07,38.49,250.79,38.73,251.39,39.3z"/>
	<path fill="#FFFFFF" d="M253.32,43.29c0.03,1.34,0.66,1.83,1.6,1.83c0.69,0,1.3-0.21,1.98-0.69l0.55,0.87
		c-0.8,0.57-1.67,0.9-2.65,0.9c-1.81,0-2.82-1.13-2.82-3c0-2.02,0.99-4.72,3.8-4.72c1.57,0,2.34,0.9,2.34,1.88
		C258.11,42.44,255.9,43.01,253.32,43.29z M256.76,40.41c0-0.35-0.21-0.9-1.01-0.9c-1.54,0-2.19,1.46-2.37,2.8
		C255.5,42.07,256.76,41.67,256.76,40.41z"/>
	<path fill="#FFFFFF" d="M269.88,42.96c0,1.69-1.01,3.08-4.17,3.08h-2.66l1.36-9.65h2.66c1.75,0,3.03,0.67,3.03,2.16
		c0,1.36-1.01,2.16-2.16,2.4C268.93,41.12,269.88,41.6,269.88,42.96z M268.51,42.93c0-1.11-0.85-1.43-1.9-1.43h-1.6l-0.49,3.47h1.25
		C267.94,44.97,268.51,44.09,268.51,42.93z M265.57,37.44l-0.42,3.04h1.42c1.16,0,2.18-0.56,2.18-1.89c0-0.94-0.77-1.15-1.64-1.15
		H265.57z"/>
</g>
<rect x="196.79" y="54.34" fill="#3D2C70" width="80.33" height="20.61"/>
<g>
	<path fill="#FFFFFF" d="M204.92,69.37h-1.27l1.04-7.38h1.27L204.92,69.37z M206.57,59.4c-0.07,0.46-0.43,0.8-0.95,0.8
		c-0.56,0-0.88-0.42-0.81-0.94c0.07-0.48,0.45-0.81,0.95-0.81C206.34,58.44,206.65,58.86,206.57,59.4z"/>
	<path fill="#FFFFFF" d="M213.84,64.19l-0.73,5.18h-1.27l0.73-5.15c0.14-1.04-0.22-1.32-0.79-1.32c-0.94,0-1.76,0.99-2.35,2.05
		l-0.6,4.43h-1.27l1.04-7.38h1.09l-0.11,1.44c0.69-0.97,1.5-1.61,2.56-1.61C213.37,61.82,214.05,62.72,213.84,64.19z"/>
	<path fill="#FFFFFF" d="M217.3,67.42c-0.11,0.74,0.06,1.04,0.66,1.04c0.34,0,0.64-0.11,1.04-0.34l0.42,0.92
		c-0.53,0.34-1.08,0.49-1.67,0.49c-1.27,0-1.92-0.77-1.72-2.14l0.62-4.41h-1.27l0.14-0.99h1.33l0.46-1.71l1.01-0.11l-0.25,1.82h1.74
		l-0.28,0.99h-1.6L217.3,67.42z"/>
	<path fill="#FFFFFF" d="M221.78,66.62c0.03,1.34,0.66,1.83,1.6,1.83c0.69,0,1.3-0.21,1.98-0.69l0.55,0.87
		c-0.8,0.57-1.67,0.9-2.65,0.9c-1.81,0-2.82-1.13-2.82-3c0-2.02,0.99-4.72,3.8-4.72c1.57,0,2.34,0.9,2.34,1.88
		C226.57,65.77,224.36,66.35,221.78,66.62z M225.22,63.74c0-0.35-0.21-0.9-1.01-0.9c-1.54,0-2.19,1.46-2.37,2.8
		C223.96,65.41,225.22,65,225.22,63.74z"/>
	<path fill="#FFFFFF" d="M232.74,61.92l-0.38,1.25c-0.21-0.06-0.36-0.07-0.6-0.07c-0.95,0-1.6,0.87-2.12,2.37l-0.56,3.91h-1.27
		l1.04-7.38h1.09l-0.08,1.51c0.56-1.15,1.33-1.68,2.14-1.68C232.27,61.82,232.52,61.86,232.74,61.92z"/>
	<path fill="#FFFFFF" d="M235.71,61.01l-0.14,0.98h1.78l-0.28,0.99h-1.64l-0.84,5.98c-0.29,2.09-1.12,2.69-2.76,3.39l-0.36-0.97
		c1.01-0.45,1.62-0.84,1.85-2.42l0.84-5.98h-1.3l0.14-0.99h1.3l0.15-1.05c0.17-1.23,1.05-2.07,2.51-2.07c0.71,0,1.19,0.2,1.74,0.53
		l-0.49,0.85c-0.43-0.29-0.85-0.35-1.21-0.35C236.17,59.9,235.81,60.29,235.71,61.01z"/>
	<path fill="#FFFFFF" d="M244.08,62.45l-0.8,5.24c-0.01,0.11-0.03,0.21-0.03,0.29c0,0.41,0.18,0.56,0.48,0.67l-0.36,0.88
		c-0.74-0.1-1.21-0.43-1.3-1.23c-0.57,0.74-1.33,1.23-2.2,1.23c-1.54,0-2.35-1.13-2.35-2.83c0-2.02,1.06-4.89,3.94-4.89
		C242.33,61.82,243.1,61.97,244.08,62.45z M238.89,66.72c0,1.23,0.46,1.79,1.29,1.79c0.79,0,1.36-0.59,1.93-1.36l0.62-4.08
		c-0.42-0.18-0.73-0.24-1.25-0.24C239.6,62.84,238.89,65.07,238.89,66.72z"/>
	<path fill="#FFFFFF" d="M251.39,62.63l-0.69,0.8c-0.45-0.39-0.87-0.55-1.44-0.55c-1.86,0-2.41,2.21-2.41,3.74
		c0,1.29,0.56,1.82,1.5,1.82c0.64,0,1.12-0.21,1.71-0.57l0.52,0.9c-0.73,0.52-1.5,0.77-2.31,0.77c-1.75,0-2.76-1.12-2.76-3.01
		c0-1.93,1.01-4.71,3.74-4.71C250.07,61.82,250.79,62.06,251.39,62.63z"/>
	<path fill="#FFFFFF" d="M253.32,66.62c0.03,1.34,0.66,1.83,1.6,1.83c0.69,0,1.3-0.21,1.98-0.69l0.55,0.87
		c-0.8,0.57-1.67,0.9-2.65,0.9c-1.81,0-2.82-1.13-2.82-3c0-2.02,0.99-4.72,3.8-4.72c1.57,0,2.34,0.9,2.34,1.88
		C258.11,65.77,255.9,66.35,253.32,66.62z M256.76,63.74c0-0.35-0.21-0.9-1.01-0.9c-1.54,0-2.19,1.46-2.37,2.8
		C255.5,65.41,256.76,65,256.76,63.74z"/>
	<path fill="#FFFFFF" d="M270.29,60.55l-0.78,0.77c-0.55-0.48-1.09-0.67-1.75-0.67c-2.51,0-3.33,2.91-3.33,5.08
		c0,1.93,0.9,2.69,2.13,2.69c0.94,0,1.58-0.43,2.17-0.84l0.59,0.91c-0.63,0.53-1.58,1.05-2.84,1.05c-2.06,0-3.43-1.37-3.43-3.92
		c0-2.58,1.32-6.07,4.66-6.07C268.82,59.55,269.62,59.92,270.29,60.55z"/>
</g>
<ellipse fill="#FFFFFF" stroke="#3D2C70" stroke-width="2" stroke-miterlimit="10" cx="121.98" cy="189" rx="68.98" ry="39.37"/>
<g>
	<path fill="#3D2C70" d="M70.02,183.26v11.13h-2.1l-0.12-0.93c-0.45,0.66-1.18,1.19-2.26,1.19c-2.03,0-3.03-1.68-3.03-4.26
		c0-2.46,1.25-4.21,3.3-4.21c0.72,0,1.37,0.29,1.85,0.75v-3.92L70.02,183.26z M67.65,192.02v-3.45c-0.36-0.42-0.72-0.67-1.23-0.67
		c-0.85,0-1.46,0.72-1.46,2.5c0,1.98,0.54,2.5,1.32,2.5C66.84,192.91,67.28,192.61,67.65,192.02z"/>
	<path fill="#3D2C70" d="M78.9,193.06l-0.5,1.54c-0.93-0.08-1.54-0.36-1.92-1.14c-0.57,0.87-1.46,1.19-2.4,1.19
		c-1.59,0-2.6-1.04-2.6-2.49c0-1.74,1.32-2.69,3.74-2.69h0.81v-0.34c0-0.95-0.38-1.23-1.35-1.23c-0.51,0-1.29,0.15-2.08,0.42
		l-0.54-1.56c1-0.38,2.1-0.58,3-0.58c2.31,0,3.3,0.97,3.3,2.82v3.09C78.36,192.7,78.53,192.92,78.9,193.06z M76.04,192.2v-1.42
		h-0.58c-1.08,0-1.6,0.38-1.6,1.17c0,0.63,0.34,1,0.93,1C75.32,192.95,75.75,192.67,76.04,192.2z"/>
	<path fill="#3D2C70" d="M85.39,194.02c-0.6,0.42-1.44,0.63-2.16,0.63c-1.75-0.02-2.61-1.01-2.61-2.88v-3.69H79.5v-1.65h1.12v-1.72
		l2.37-0.27v1.99h1.83l-0.25,1.65h-1.58v3.66c0,0.76,0.26,1.04,0.75,1.04c0.27,0,0.54-0.08,0.86-0.27L85.39,194.02z"/>
	<path fill="#3D2C70" d="M93.21,193.06l-0.5,1.54c-0.93-0.08-1.54-0.36-1.92-1.14c-0.57,0.87-1.46,1.19-2.4,1.19
		c-1.59,0-2.6-1.04-2.6-2.49c0-1.74,1.32-2.69,3.74-2.69h0.81v-0.34c0-0.95-0.38-1.23-1.35-1.23c-0.51,0-1.29,0.15-2.08,0.42
		l-0.54-1.56c1-0.38,2.1-0.58,3-0.58c2.31,0,3.3,0.97,3.3,2.82v3.09C92.67,192.7,92.83,192.92,93.21,193.06z M90.34,192.2v-1.42
		h-0.58c-1.08,0-1.6,0.38-1.6,1.17c0,0.63,0.34,1,0.93,1C89.62,192.95,90.06,192.67,90.34,192.2z"/>
	<path fill="#3D2C70" d="M105.88,190.39c0,2.46-1.2,4.26-3.17,4.26c-0.78,0-1.44-0.27-1.93-0.84v3.66l-2.37,0.25v-11.29h2.08
		l0.12,0.89c0.66-0.83,1.51-1.14,2.25-1.14C104.97,186.17,105.88,187.81,105.88,190.39z M103.42,190.42c0-1.98-0.48-2.5-1.3-2.5
		c-0.51,0-0.99,0.34-1.33,0.93v3.36c0.33,0.48,0.72,0.71,1.21,0.71C102.88,192.91,103.42,192.2,103.42,190.42z"/>
	<path fill="#3D2C70" d="M114.87,190.42c0,2.55-1.47,4.23-3.9,4.23c-2.42,0-3.9-1.56-3.9-4.25c0-2.55,1.47-4.23,3.9-4.23
		S114.87,187.73,114.87,190.42z M109.53,190.4c0,1.77,0.48,2.5,1.44,2.5s1.44-0.77,1.44-2.49c0-1.77-0.48-2.5-1.44-2.5
		S109.53,188.68,109.53,190.4z"/>
	<path fill="#3D2C70" d="M123.57,183.26v11.13h-2.1l-0.12-0.93c-0.45,0.66-1.18,1.19-2.26,1.19c-2.03,0-3.03-1.68-3.03-4.26
		c0-2.46,1.25-4.21,3.3-4.21c0.72,0,1.37,0.29,1.85,0.75v-3.92L123.57,183.26z M121.2,192.02v-3.45c-0.36-0.42-0.72-0.67-1.23-0.67
		c-0.85,0-1.46,0.72-1.46,2.5c0,1.98,0.54,2.5,1.32,2.5C120.39,192.91,120.82,192.61,121.2,192.02z"/>
</g>
<g>
	<path fill="#3D2C70" d="M426.34,158.04l-0.72,4.95c-0.01,0.13-0.03,0.24-0.03,0.34c0,0.35,0.12,0.5,0.39,0.6l-0.75,1.71
		c-0.92-0.06-1.71-0.47-1.98-1.32c-0.54,0.79-1.29,1.37-2.36,1.37c-1.75,0-2.64-1.25-2.64-3.21c0-2.31,1.23-5.32,4.68-5.32
		C424.03,157.16,425.24,157.42,426.34,158.04z M420.96,162.48c0,1.05,0.36,1.29,0.79,1.29c0.46,0,0.91-0.36,1.32-1.01l0.54-3.63
		c-0.27-0.09-0.46-0.12-0.76-0.12C421.43,159.02,420.96,161,420.96,162.48z"/>
	<path fill="#3D2C70" d="M435.19,160.27c0,2.31-1.05,5.43-4.25,5.43c-0.71,0-1.14-0.11-1.41-0.21l-0.45,3.03l-2.62,0.29l1.59-11.37
		h2.33v0.86c0.81-0.84,1.63-1.12,2.34-1.12C434.36,157.16,435.19,158.29,435.19,160.27z M430.33,159.95l-0.53,3.66
		c0.25,0.11,0.53,0.17,0.88,0.17c1.33,0,1.8-2.01,1.8-3.42c0-1.02-0.36-1.26-0.83-1.26C431.18,159.1,430.73,159.38,430.33,159.95z"
		/>
	<path fill="#3D2C70" d="M444.14,160.27c0,2.31-1.05,5.43-4.25,5.43c-0.71,0-1.14-0.11-1.41-0.21l-0.45,3.03l-2.62,0.29l1.59-11.37
		h2.33v0.86c0.81-0.84,1.63-1.12,2.34-1.12C443.32,157.16,444.14,158.29,444.14,160.27z M439.28,159.95l-0.52,3.66
		c0.25,0.11,0.52,0.17,0.89,0.17c1.33,0,1.8-2.01,1.8-3.42c0-1.02-0.36-1.26-0.82-1.26C440.14,159.1,439.69,159.38,439.28,159.95z"
		/>
	<path fill="#3D2C70" d="M447.7,163.05c-0.06,0.44,0.07,0.54,0.3,0.54c0.1,0,0.22-0.03,0.34-0.06l0.27,1.86
		c-0.43,0.2-1.05,0.3-1.6,0.3c-1.44,0-2.18-0.86-1.95-2.46l1.26-8.95l2.66-0.27L447.7,163.05z"/>
	<path fill="#3D2C70" d="M451.94,165.42h-2.62l1.11-8h2.62L451.94,165.42z M453.64,154.66c-0.11,0.79-0.81,1.41-1.68,1.41
		c-0.9,0-1.44-0.66-1.34-1.51c0.12-0.81,0.81-1.43,1.68-1.43C453.22,153.12,453.74,153.79,453.64,154.66z"/>
	<path fill="#3D2C70" d="M460.91,158.22l-1.26,1.52c-0.44-0.41-0.86-0.55-1.35-0.55c-1.5,0-1.86,1.83-1.86,3.1
		c0,1.03,0.46,1.33,1.15,1.33c0.53,0,0.93-0.2,1.5-0.54l0.95,1.68c-0.79,0.58-1.7,0.93-2.8,0.93c-2.25,0-3.53-1.37-3.53-3.48
		c0-2.07,1.26-5.05,4.57-5.05C459.35,157.16,460.25,157.54,460.91,158.22z"/>
	<path fill="#3D2C70" d="M468.82,158.04L468.1,163c-0.02,0.13-0.03,0.24-0.03,0.34c0,0.35,0.12,0.5,0.39,0.6l-0.75,1.71
		c-0.91-0.06-1.71-0.47-1.98-1.32c-0.54,0.79-1.29,1.37-2.35,1.37c-1.76,0-2.64-1.25-2.64-3.21c0-2.31,1.23-5.32,4.68-5.32
		C466.51,157.16,467.72,157.42,468.82,158.04z M463.43,162.48c0,1.05,0.36,1.29,0.79,1.29c0.46,0,0.92-0.36,1.32-1.01l0.54-3.63
		c-0.27-0.09-0.46-0.12-0.77-0.12C463.91,159.02,463.43,161,463.43,162.48z"/>
	<path fill="#3D2C70" d="M473.99,163.36l0.67,1.74c-0.69,0.41-1.61,0.6-2.31,0.6c-1.86,0-2.59-1.08-2.32-3.08l0.48-3.36h-1.02
		l0.24-1.83h1.14l0.5-1.74l2.29-0.27l-0.29,2.01h1.79l-0.51,1.83h-1.51l-0.46,3.36c-0.12,0.76,0.07,0.97,0.48,0.97
		C473.42,163.59,473.69,163.52,473.99,163.36z"/>
	<path fill="#3D2C70" d="M477.94,165.42h-2.62l1.11-8h2.62L477.94,165.42z M479.63,154.66c-0.11,0.79-0.81,1.41-1.68,1.41
		c-0.9,0-1.44-0.66-1.33-1.51c0.12-0.81,0.81-1.43,1.68-1.43C479.21,153.12,479.74,153.79,479.63,154.66z"/>
	<path fill="#3D2C70" d="M487.69,160.58c-0.01,2.29-1.12,5.12-4.56,5.12c-2.16,0-3.42-1.28-3.42-3.42c0-2.31,1.12-5.12,4.54-5.12
		C486.43,157.16,487.7,158.48,487.69,160.58z M482.39,162.42c0,0.96,0.3,1.33,0.94,1.33c1.43,0,1.65-2.21,1.67-3.33
		c0.01-0.95-0.3-1.33-0.95-1.33C482.63,159.1,482.39,161.3,482.39,162.42z"/>
	<path fill="#3D2C70" d="M496.18,159.59l-0.81,5.83h-2.62l0.73-5.19c0.11-0.72-0.07-0.9-0.36-0.9c-0.48,0-0.99,0.69-1.53,1.82
		l-0.6,4.27h-2.62l1.11-8h2.28l-0.02,1.37c0.64-0.99,1.65-1.63,2.7-1.63C495.7,157.16,496.39,158.06,496.18,159.59z"/>
	<path fill="#3D2C70" d="M497.56,159.71h4.86l-0.28,2.04h-4.86L497.56,159.71z"/>
	<path fill="#3D2C70" d="M509.98,158.2l-1.12,1.42c-0.57-0.38-1.26-0.58-1.86-0.58c-0.63,0-0.9,0.21-0.9,0.53
		c0,0.34,0.25,0.45,1.51,0.87c1.3,0.44,2.03,1.17,2.03,2.43c0,1.4-0.96,2.84-3.66,2.84c-1.42,0-2.71-0.56-3.42-1.35l1.29-1.36
		c0.53,0.46,1.23,0.84,2.14,0.84c0.64,0,1.05-0.24,1.05-0.65c0-0.42-0.29-0.55-1.54-0.99c-1.34-0.47-2.01-1.16-2.01-2.37
		c0-1.44,1.25-2.65,3.5-2.65C508.19,157.16,509.24,157.58,509.98,158.2z"/>
	<path fill="#3D2C70" d="M518.65,160.27c0,2.31-1.05,5.43-4.24,5.43c-0.71,0-1.14-0.11-1.41-0.21l-0.45,3.03l-2.62,0.29l1.59-11.37
		h2.32v0.86c0.81-0.84,1.63-1.12,2.34-1.12C517.82,157.16,518.65,158.29,518.65,160.27z M513.79,159.95l-0.53,3.66
		c0.26,0.11,0.53,0.17,0.88,0.17c1.34,0,1.8-2.01,1.8-3.42c0-1.02-0.36-1.26-0.83-1.26C514.64,159.1,514.19,159.38,513.79,159.95z"
		/>
	<path fill="#3D2C70" d="M522.07,162.54c0.06,0.93,0.6,1.23,1.3,1.23c0.68,0,1.26-0.24,2.01-0.74l0.93,1.56
		c-0.88,0.63-1.98,1.1-3.29,1.1c-2.44,0-3.58-1.38-3.58-3.41c0-2.17,1.19-5.13,4.63-5.13c2.01,0,3.09,0.97,3.09,2.23
		C527.17,161.63,524.48,162.32,522.07,162.54z M524.53,159.56c0-0.38-0.16-0.68-0.72-0.68c-0.96,0-1.43,1.05-1.63,2.1
		C524.08,160.87,524.53,160.03,524.53,159.56z"/>
	<path fill="#3D2C70" d="M534.88,158.22l-1.26,1.52c-0.44-0.41-0.86-0.55-1.35-0.55c-1.5,0-1.86,1.83-1.86,3.1
		c0,1.03,0.46,1.33,1.15,1.33c0.53,0,0.93-0.2,1.5-0.54l0.95,1.68c-0.79,0.58-1.7,0.93-2.8,0.93c-2.25,0-3.53-1.37-3.53-3.48
		c0-2.07,1.26-5.05,4.58-5.05C533.32,157.16,534.22,157.54,534.88,158.22z"/>
	<path fill="#3D2C70" d="M537.41,165.42h-2.62l1.11-8h2.62L537.41,165.42z M539.11,154.66c-0.11,0.79-0.81,1.41-1.68,1.41
		c-0.9,0-1.44-0.66-1.33-1.51c0.12-0.81,0.81-1.43,1.68-1.43C538.69,153.12,539.21,153.79,539.11,154.66z"/>
	<path fill="#3D2C70" d="M546.38,165.42h-2.62l0.86-6.17h-1.71l-0.72,5.16c-0.38,2.71-1.96,3.71-3.95,4.37l-0.64-1.91
		c1.15-0.42,1.77-0.96,1.96-2.34l0.72-5.28h-1.11l0.24-1.83h1.12l0.09-0.6c0.21-1.59,1.52-2.82,3.66-2.82c1.08,0,1.89,0.2,2.76,0.65
		l-0.9,1.68c-0.62-0.27-1.11-0.39-1.61-0.39c-0.84,0-1.21,0.3-1.32,1.05l-0.06,0.43h4.33L546.38,165.42z"/>
	<path fill="#3D2C70" d="M555.35,158.22l-1.26,1.52c-0.44-0.41-0.86-0.55-1.35-0.55c-1.5,0-1.86,1.83-1.86,3.1
		c0,1.03,0.46,1.33,1.15,1.33c0.53,0,0.93-0.2,1.5-0.54l0.95,1.68c-0.79,0.58-1.7,0.93-2.8,0.93c-2.25,0-3.53-1.37-3.53-3.48
		c0-2.07,1.26-5.05,4.57-5.05C553.79,157.16,554.69,157.54,555.35,158.22z"/>
	<path fill="#3D2C70" d="M561.53,163.05c-0.06,0.44,0.07,0.54,0.3,0.54c0.1,0,0.22-0.03,0.34-0.06l0.27,1.86
		c-0.43,0.2-1.05,0.3-1.6,0.3c-1.44,0-2.18-0.86-1.95-2.46l1.26-8.95l2.66-0.27L561.53,163.05z"/>
	<path fill="#3D2C70" d="M571.07,160.58c-0.02,2.29-1.12,5.12-4.56,5.12c-2.16,0-3.42-1.28-3.42-3.42c0-2.31,1.12-5.12,4.54-5.12
		C569.81,157.16,571.09,158.48,571.07,160.58z M565.78,162.42c0,0.96,0.3,1.33,0.95,1.33c1.42,0,1.65-2.21,1.66-3.33
		c0.02-0.95-0.3-1.33-0.95-1.33C566.02,159.1,565.78,161.3,565.78,162.42z"/>
	<path fill="#3D2C70" d="M579.97,158.04l-0.95,6.64c-0.42,2.88-1.67,4.11-4.38,4.11c-0.99,0-2.17-0.34-3.06-0.92l0.86-1.71
		c0.82,0.45,1.54,0.63,2.19,0.63c0.81,0,1.57-0.24,1.79-1.67l0.12-0.7c-0.51,0.58-1.21,0.99-2.07,0.99c-1.74,0-2.64-1.27-2.64-3.13
		c0-2.16,1.23-5.13,4.74-5.13C577.66,157.16,578.87,157.42,579.97,158.04z M574.52,162.21c0,1,0.4,1.25,0.82,1.25
		c0.5,0,0.96-0.39,1.38-0.98l0.51-3.34c-0.27-0.09-0.46-0.12-0.75-0.12C575,159.02,574.52,160.96,574.52,162.21z"/>
	<path fill="#3D2C70" d="M583.16,165.42h-2.62l1.11-8h2.62L583.16,165.42z M584.86,154.66c-0.11,0.79-0.81,1.41-1.68,1.41
		c-0.9,0-1.44-0.66-1.33-1.51c0.12-0.81,0.81-1.43,1.68-1.43C584.44,153.12,584.96,153.79,584.86,154.66z"/>
	<path fill="#3D2C70" d="M592.13,158.22l-1.26,1.52c-0.44-0.41-0.86-0.55-1.35-0.55c-1.5,0-1.86,1.83-1.86,3.1
		c0,1.03,0.46,1.33,1.15,1.33c0.53,0,0.93-0.2,1.5-0.54l0.95,1.68c-0.79,0.58-1.7,0.93-2.8,0.93c-2.25,0-3.53-1.37-3.53-3.48
		c0-2.07,1.26-5.05,4.57-5.05C590.57,157.16,591.47,157.54,592.13,158.22z"/>
</g>
<rect x="136.11" y="166.64" fill="#3D2C70" width="80.33" height="20.61"/>
<g>
	<path fill="#FFFFFF" d="M144.25,181.67h-1.27l1.04-7.38h1.27L144.25,181.67z M145.9,171.7c-0.07,0.46-0.43,0.8-0.95,0.8
		c-0.56,0-0.88-0.42-0.81-0.94c0.07-0.48,0.45-0.81,0.95-0.81C145.66,170.75,145.97,171.17,145.9,171.7z"/>
	<path fill="#FFFFFF" d="M153.17,176.49l-0.73,5.18h-1.27l0.73-5.16c0.14-1.04-0.22-1.32-0.79-1.32c-0.94,0-1.76,1-2.35,2.05
		l-0.6,4.43h-1.27l1.04-7.38h1.09l-0.11,1.44c0.69-0.97,1.5-1.61,2.56-1.61C152.69,174.12,153.38,175.02,153.17,176.49z"/>
	<path fill="#FFFFFF" d="M156.62,179.72c-0.11,0.74,0.06,1.04,0.66,1.04c0.34,0,0.64-0.11,1.04-0.34l0.42,0.92
		c-0.53,0.34-1.08,0.49-1.67,0.49c-1.27,0-1.92-0.77-1.72-2.14l0.62-4.41h-1.27l0.14-0.99h1.33l0.46-1.71l1.01-0.11l-0.25,1.82h1.74
		l-0.28,0.99h-1.6L156.62,179.72z"/>
	<path fill="#FFFFFF" d="M161.1,178.93c0.03,1.34,0.66,1.83,1.6,1.83c0.69,0,1.3-0.21,1.98-0.69l0.55,0.87
		c-0.8,0.57-1.67,0.9-2.65,0.9c-1.81,0-2.82-1.13-2.82-3c0-2.02,0.99-4.72,3.8-4.72c1.57,0,2.34,0.9,2.34,1.88
		C165.89,178.07,163.68,178.65,161.1,178.93z M164.55,176.04c0-0.35-0.21-0.9-1.01-0.9c-1.54,0-2.19,1.46-2.37,2.8
		C163.29,177.71,164.55,177.3,164.55,176.04z"/>
	<path fill="#FFFFFF" d="M172.07,174.22l-0.38,1.25c-0.21-0.06-0.36-0.07-0.6-0.07c-0.95,0-1.6,0.87-2.12,2.37l-0.56,3.91h-1.27
		l1.04-7.38h1.09l-0.08,1.51c0.56-1.15,1.33-1.68,2.14-1.68C171.59,174.12,171.84,174.16,172.07,174.22z"/>
	<path fill="#FFFFFF" d="M175.03,173.31l-0.14,0.98h1.78l-0.28,0.99h-1.64l-0.84,5.98c-0.29,2.09-1.12,2.69-2.76,3.39l-0.36-0.97
		c1.01-0.45,1.62-0.84,1.85-2.42l0.84-5.98h-1.3l0.14-0.99h1.3l0.15-1.05c0.17-1.23,1.05-2.07,2.51-2.07c0.71,0,1.19,0.2,1.74,0.53
		l-0.49,0.86c-0.43-0.29-0.85-0.35-1.21-0.35C175.49,172.2,175.13,172.59,175.03,173.31z"/>
	<path fill="#FFFFFF" d="M183.4,174.75l-0.8,5.24c-0.01,0.11-0.03,0.21-0.03,0.29c0,0.41,0.18,0.56,0.48,0.67l-0.36,0.88
		c-0.74-0.1-1.21-0.43-1.3-1.23c-0.57,0.74-1.33,1.23-2.2,1.23c-1.54,0-2.35-1.13-2.35-2.83c0-2.02,1.06-4.89,3.94-4.89
		C181.65,174.12,182.42,174.28,183.4,174.75z M178.21,179.02c0,1.23,0.46,1.79,1.29,1.79c0.79,0,1.36-0.59,1.93-1.36l0.62-4.08
		c-0.42-0.18-0.73-0.24-1.25-0.24C178.92,175.14,178.21,177.37,178.21,179.02z"/>
	<path fill="#FFFFFF" d="M190.71,174.93l-0.69,0.8c-0.45-0.39-0.87-0.55-1.44-0.55c-1.86,0-2.41,2.21-2.41,3.74
		c0,1.29,0.56,1.82,1.5,1.82c0.64,0,1.12-0.21,1.71-0.58l0.52,0.9c-0.73,0.52-1.5,0.77-2.31,0.77c-1.75,0-2.76-1.12-2.76-3.01
		c0-1.93,1.01-4.71,3.74-4.71C189.4,174.12,190.11,174.36,190.71,174.93z"/>
	<path fill="#FFFFFF" d="M192.64,178.93c0.03,1.34,0.66,1.83,1.6,1.83c0.69,0,1.3-0.21,1.98-0.69l0.55,0.87
		c-0.8,0.57-1.67,0.9-2.65,0.9c-1.81,0-2.82-1.13-2.82-3c0-2.02,0.99-4.72,3.8-4.72c1.57,0,2.34,0.9,2.34,1.88
		C197.43,178.07,195.22,178.65,192.64,178.93z M196.09,176.04c0-0.35-0.21-0.9-1.01-0.9c-1.54,0-2.19,1.46-2.37,2.8
		C194.83,177.71,196.09,177.3,196.09,176.04z"/>
	<path fill="#FFFFFF" d="M209.61,172.85l-0.78,0.77c-0.55-0.48-1.09-0.67-1.75-0.67c-2.51,0-3.33,2.91-3.33,5.08
		c0,1.93,0.9,2.69,2.13,2.69c0.94,0,1.58-0.43,2.17-0.84l0.59,0.91c-0.63,0.53-1.58,1.05-2.84,1.05c-2.06,0-3.43-1.37-3.43-3.92
		c0-2.58,1.32-6.07,4.66-6.07C208.14,171.85,208.94,172.22,209.61,172.85z"/>
</g>
<rect x="136.11" y="189.98" fill="#3D2C70" width="80.33" height="20.61"/>
<g>
	<path fill="#FFFFFF" d="M144.25,205h-1.27l1.04-7.38h1.27L144.25,205z M145.9,195.03c-0.07,0.46-0.43,0.8-0.95,0.8
		c-0.56,0-0.88-0.42-0.81-0.94c0.07-0.48,0.45-0.81,0.95-0.81C145.66,194.08,145.97,194.5,145.9,195.03z"/>
	<path fill="#FFFFFF" d="M153.17,199.82l-0.73,5.18h-1.27l0.73-5.15c0.14-1.04-0.22-1.32-0.79-1.32c-0.94,0-1.76,0.99-2.35,2.04
		l-0.6,4.43h-1.27l1.04-7.38h1.09l-0.11,1.44c0.69-0.97,1.5-1.61,2.56-1.61C152.69,197.45,153.38,198.35,153.17,199.82z"/>
	<path fill="#FFFFFF" d="M156.62,203.06c-0.11,0.74,0.06,1.04,0.66,1.04c0.34,0,0.64-0.11,1.04-0.34l0.42,0.92
		c-0.53,0.34-1.08,0.49-1.67,0.49c-1.27,0-1.92-0.77-1.72-2.14l0.62-4.41h-1.27l0.14-0.99h1.33l0.46-1.71l1.01-0.11l-0.25,1.82h1.74
		l-0.28,0.99h-1.6L156.62,203.06z"/>
	<path fill="#FFFFFF" d="M161.1,202.26c0.03,1.34,0.66,1.83,1.6,1.83c0.69,0,1.3-0.21,1.98-0.69l0.55,0.87
		c-0.8,0.57-1.67,0.9-2.65,0.9c-1.81,0-2.82-1.13-2.82-3c0-2.02,0.99-4.72,3.8-4.72c1.57,0,2.34,0.9,2.34,1.88
		C165.89,201.4,163.68,201.98,161.1,202.26z M164.55,199.37c0-0.35-0.21-0.9-1.01-0.9c-1.54,0-2.19,1.46-2.37,2.8
		C163.29,201.04,164.55,200.63,164.55,199.37z"/>
	<path fill="#FFFFFF" d="M172.07,197.55l-0.38,1.25c-0.21-0.06-0.36-0.07-0.6-0.07c-0.95,0-1.6,0.87-2.12,2.37l-0.56,3.91h-1.27
		l1.04-7.38h1.09l-0.08,1.51c0.56-1.15,1.33-1.68,2.14-1.68C171.59,197.45,171.84,197.5,172.07,197.55z"/>
	<path fill="#FFFFFF" d="M175.03,196.64l-0.14,0.98h1.78l-0.28,0.99h-1.64l-0.84,5.98c-0.29,2.09-1.12,2.69-2.76,3.39l-0.36-0.97
		c1.01-0.45,1.62-0.84,1.85-2.42l0.84-5.98h-1.3l0.14-0.99h1.3l0.15-1.05c0.17-1.23,1.05-2.07,2.51-2.07c0.71,0,1.19,0.2,1.74,0.53
		l-0.49,0.85c-0.43-0.29-0.85-0.35-1.21-0.35C175.49,195.54,175.13,195.93,175.03,196.64z"/>
	<path fill="#FFFFFF" d="M183.4,198.08l-0.8,5.24c-0.01,0.11-0.03,0.21-0.03,0.29c0,0.41,0.18,0.56,0.48,0.67l-0.36,0.88
		c-0.74-0.1-1.21-0.43-1.3-1.23c-0.57,0.74-1.33,1.23-2.2,1.23c-1.54,0-2.35-1.13-2.35-2.83c0-2.02,1.06-4.89,3.94-4.89
		C181.65,197.45,182.42,197.61,183.4,198.08z M178.21,202.36c0,1.23,0.46,1.79,1.29,1.79c0.79,0,1.36-0.59,1.93-1.36l0.62-4.08
		c-0.42-0.18-0.73-0.24-1.25-0.24C178.92,198.48,178.21,200.7,178.21,202.36z"/>
	<path fill="#FFFFFF" d="M190.71,198.27l-0.69,0.8c-0.45-0.39-0.87-0.54-1.44-0.54c-1.86,0-2.41,2.21-2.41,3.74
		c0,1.29,0.56,1.82,1.5,1.82c0.64,0,1.12-0.21,1.71-0.57l0.52,0.9c-0.73,0.52-1.5,0.77-2.31,0.77c-1.75,0-2.76-1.12-2.76-3.01
		c0-1.93,1.01-4.71,3.74-4.71C189.4,197.45,190.11,197.69,190.71,198.27z"/>
	<path fill="#FFFFFF" d="M192.64,202.26c0.03,1.34,0.66,1.83,1.6,1.83c0.69,0,1.3-0.21,1.98-0.69l0.55,0.87
		c-0.8,0.57-1.67,0.9-2.65,0.9c-1.81,0-2.82-1.13-2.82-3c0-2.02,0.99-4.72,3.8-4.72c1.57,0,2.34,0.9,2.34,1.88
		C197.43,201.4,195.22,201.98,192.64,202.26z M196.09,199.37c0-0.35-0.21-0.9-1.01-0.9c-1.54,0-2.19,1.46-2.37,2.8
		C194.83,201.04,196.09,200.63,196.09,199.37z"/>
	<path fill="#FFFFFF" d="M209.92,199.01c0,3.1-1.42,5.99-5.23,5.99h-2.33l1.36-9.65h1.97C207.89,195.35,209.92,196,209.92,199.01z
		 M204.89,196.42l-1.05,7.54h1.05c2.8,0,3.68-2.66,3.68-4.97c0-2.25-1.33-2.56-2.68-2.56H204.89z"/>
</g>
<g>
	<path fill="#D8D5E2" d="M456.05,115.36l-1.47,10.48l-1.92,0.21l0.57-4.11c-0.38,0.49-1.17,1.03-2.12,1.03
		c-1.68,0-2.55-1.23-2.55-3.1c0-2.28,1.19-5.28,4.42-5.28C453.99,114.59,454.98,114.8,456.05,115.36z M450.54,119.87
		c0,1.2,0.45,1.65,1.14,1.65c0.71,0,1.23-0.51,1.77-1.26l0.6-4.05c-0.38-0.15-0.65-0.21-1.09-0.21
		C451.2,116,450.54,118.22,450.54,119.87z"/>
	<path fill="#D8D5E2" d="M463.47,122.75h-1.63l0.07-1.3c-0.7,0.93-1.51,1.53-2.56,1.53c-1.46,0-2.1-0.96-1.89-2.5l0.79-5.65h1.89
		l-0.75,5.43c-0.13,0.93,0.11,1.21,0.65,1.21c0.76,0,1.41-0.76,1.93-1.56l0.72-5.08h1.89L463.47,122.75z"/>
	<path fill="#D8D5E2" d="M467.69,119.83c0.03,1.25,0.66,1.67,1.53,1.67c0.72,0,1.35-0.23,2.07-0.74l0.73,1.2
		c-0.87,0.62-1.86,1.02-3.01,1.02c-2.16,0-3.27-1.29-3.27-3.3c0-2.16,1.12-5.08,4.32-5.08c1.82,0,2.75,0.98,2.75,2.1
		C472.8,118.93,470.3,119.57,467.69,119.83z M470.85,116.78c0-0.36-0.19-0.83-0.93-0.83c-1.35,0-1.95,1.33-2.16,2.62
		C469.89,118.37,470.85,117.77,470.85,116.78z"/>
	<path fill="#D8D5E2" d="M479.45,114.72l-0.55,1.85c-0.24-0.06-0.41-0.09-0.66-0.09c-1,0-1.61,0.95-2.1,2.35l-0.56,3.92h-1.89
		l1.11-7.93h1.63l-0.06,1.54c0.57-1.16,1.42-1.75,2.28-1.75C478.95,114.61,479.19,114.65,479.45,114.72z"/>
	<path fill="#D8D5E2" d="M483.71,122.79c-0.83,1.88-2.22,3.04-4.56,3.22l-0.06-1.39c1.59-0.24,2.22-0.76,2.85-1.91l-0.71,0.03
		l-1.38-7.93h1.98l0.79,6.61l2.68-6.61h1.98L483.71,122.79z"/>
</g>
<g>
	<path fill="#D8D5E2" d="M529.59,82.99l-0.55,1.85c-0.24-0.06-0.41-0.09-0.66-0.09c-1,0-1.61,0.94-2.1,2.35l-0.56,3.92h-1.89
		l1.11-7.93h1.63l-0.06,1.54c0.57-1.16,1.42-1.75,2.28-1.75C529.1,82.87,529.34,82.92,529.59,82.99z"/>
	<path fill="#D8D5E2" d="M531.42,88.09c0.03,1.25,0.66,1.67,1.53,1.67c0.72,0,1.35-0.23,2.07-0.74l0.73,1.2
		c-0.87,0.62-1.86,1.02-3.01,1.02c-2.16,0-3.27-1.29-3.27-3.3c0-2.16,1.12-5.08,4.32-5.08c1.82,0,2.75,0.98,2.75,2.1
		C536.54,87.19,534.03,87.84,531.42,88.09z M534.59,85.05c0-0.36-0.19-0.83-0.93-0.83c-1.35,0-1.95,1.33-2.16,2.62
		C533.63,86.64,534.59,86.04,534.59,85.05z"/>
	<path fill="#D8D5E2" d="M543.62,83.86l-0.87,1.06c-0.58-0.42-1.25-0.65-1.91-0.65c-0.83,0-1.29,0.31-1.29,0.84
		c0,0.51,0.41,0.69,1.56,1.06c1.41,0.45,2.15,1.14,2.15,2.38c0,1.61-1.35,2.67-3.45,2.67c-1.39,0-2.47-0.55-3.12-1.23l0.99-1.05
		c0.55,0.5,1.28,0.84,2.17,0.84c1.08,0,1.49-0.54,1.49-1.02c0-0.63-0.36-0.84-1.62-1.26c-1.44-0.47-2.07-1.11-2.07-2.25
		c0-1.22,1.07-2.42,3.2-2.42C541.98,82.86,542.91,83.25,543.62,83.86z"/>
	<path fill="#D8D5E2" d="M550.7,91.02h-1.63l0.08-1.3c-0.71,0.93-1.52,1.53-2.57,1.53c-1.46,0-2.1-0.96-1.89-2.5l0.79-5.65h1.89
		l-0.75,5.43c-0.13,0.93,0.11,1.21,0.65,1.21c0.76,0,1.41-0.76,1.93-1.56l0.72-5.08h1.89L550.7,91.02z"/>
	<path fill="#D8D5E2" d="M555.05,89.13c-0.04,0.42,0.06,0.57,0.34,0.57c0.13,0,0.3-0.04,0.45-0.1l0.28,1.37
		c-0.42,0.19-0.88,0.28-1.32,0.28c-1.2,0-1.83-0.73-1.63-2.17l1.29-9.16l1.92-0.21L555.05,89.13z"/>
	<path fill="#D8D5E2" d="M559.67,88.63c-0.12,0.78,0.08,1.05,0.62,1.05c0.31,0,0.63-0.09,1-0.3l0.54,1.29
		c-0.63,0.39-1.35,0.57-2.01,0.57c-1.57-0.01-2.28-0.94-2.04-2.62l0.58-4.15h-1.23l0.2-1.38h1.3l0.5-1.8l1.59-0.18l-0.29,1.98h1.83
		l-0.39,1.38h-1.62L559.67,88.63z"/>
	<path fill="#D8D5E2" d="M572.63,83.86l-0.87,1.06c-0.58-0.42-1.25-0.65-1.91-0.65c-0.83,0-1.29,0.31-1.29,0.84
		c0,0.51,0.41,0.69,1.56,1.06c1.41,0.45,2.15,1.14,2.15,2.38c0,1.61-1.35,2.67-3.45,2.67c-1.39,0-2.47-0.55-3.12-1.23l0.99-1.05
		c0.55,0.5,1.28,0.84,2.17,0.84c1.08,0,1.49-0.54,1.49-1.02c0-0.63-0.36-0.84-1.62-1.26c-1.44-0.47-2.07-1.11-2.07-2.25
		c0-1.22,1.07-2.42,3.2-2.42C570.99,82.86,571.92,83.25,572.63,83.86z"/>
	<path fill="#D8D5E2" d="M575.82,88.63c-0.12,0.78,0.08,1.05,0.62,1.05c0.31,0,0.63-0.09,1-0.3l0.54,1.29
		c-0.63,0.39-1.35,0.57-2.01,0.57c-1.57-0.01-2.28-0.94-2.04-2.62l0.58-4.15h-1.23l0.2-1.38h1.3l0.5-1.8l1.59-0.18l-0.29,1.98h1.83
		l-0.39,1.38h-1.62L575.82,88.63z"/>
	<path fill="#D8D5E2" d="M584.72,82.99l-0.55,1.85c-0.24-0.06-0.41-0.09-0.66-0.09c-1,0-1.61,0.94-2.1,2.35l-0.56,3.92h-1.89
		l1.11-7.93h1.63l-0.06,1.54c0.57-1.16,1.42-1.75,2.28-1.75C584.22,82.87,584.46,82.92,584.72,82.99z"/>
	<path fill="#D8D5E2" d="M586.55,88.09c0.03,1.25,0.66,1.67,1.53,1.67c0.72,0,1.35-0.23,2.07-0.74l0.73,1.2
		c-0.87,0.62-1.86,1.02-3.01,1.02c-2.16,0-3.27-1.29-3.27-3.3c0-2.16,1.12-5.08,4.32-5.08c1.82,0,2.75,0.98,2.75,2.1
		C591.66,87.19,589.16,87.84,586.55,88.09z M589.71,85.05c0-0.36-0.19-0.83-0.93-0.83c-1.35,0-1.95,1.33-2.16,2.62
		C588.75,86.64,589.71,86.04,589.71,85.05z"/>
	<path fill="#D8D5E2" d="M599.99,83.62l-0.79,5.32c-0.01,0.14-0.03,0.24-0.03,0.33c0,0.41,0.17,0.56,0.45,0.67l-0.54,1.26
		c-0.84-0.09-1.46-0.46-1.63-1.32c-0.58,0.79-1.37,1.35-2.35,1.35c-1.7,0-2.57-1.23-2.57-3.1c0-2.23,1.17-5.28,4.41-5.28
		C597.93,82.86,598.92,83.07,599.99,83.62z M594.5,88.14c0,1.2,0.43,1.65,1.12,1.65c0.69,0,1.23-0.51,1.77-1.26l0.6-4.05
		c-0.38-0.15-0.64-0.21-1.09-0.21C595.14,84.27,594.5,86.49,594.5,88.14z"/>
	<path fill="#D8D5E2" d="M612.3,85.3l-0.81,5.71h-1.89l0.77-5.38c0.13-0.99-0.2-1.2-0.63-1.2c-0.66,0-1.31,0.89-1.85,1.98l-0.66,4.6
		h-1.89l0.77-5.38c0.13-0.99-0.2-1.2-0.63-1.2c-0.66,0-1.31,0.92-1.85,2.03L603,91.02h-1.89l1.11-7.93h1.63l-0.08,1.4
		c0.67-0.99,1.51-1.62,2.54-1.62c0.88,0,1.59,0.54,1.74,1.54c0.68-0.98,1.56-1.54,2.5-1.54C611.79,82.86,612.51,83.79,612.3,85.3z"
		/>
</g>
<g>
	<path fill="#8B80A9" d="M260.45,155.33l-1.56,11.1h-1.67l0.01-1.21c-0.54,0.83-1.32,1.44-2.38,1.44c-1.67,0-2.5-1.23-2.5-3.18
		c0-2.11,1-5.2,3.79-5.2c0.83,0,1.46,0.36,1.88,0.87l0.57-4L260.45,155.33z M254.33,163.53c0,1.21,0.43,1.67,1.08,1.67
		c0.81,0,1.41-0.69,2-1.62l0.44-3.12c-0.35-0.48-0.74-0.75-1.33-0.75C254.81,159.71,254.33,162.09,254.33,163.53z"/>
	<path fill="#8B80A9" d="M264.63,166.47c-0.83,1.88-2.22,3.04-4.56,3.22l-0.06-1.39c1.59-0.24,2.22-0.76,2.85-1.91l-0.71,0.03
		l-1.38-7.93h1.98l0.79,6.61l2.68-6.61h1.98L264.63,166.47z"/>
	<path fill="#8B80A9" d="M275.07,160.75l-0.79,5.67h-1.89l0.76-5.38c0.13-0.94-0.18-1.2-0.64-1.2c-0.78,0-1.5,0.92-2.1,2.04
		l-0.63,4.54h-1.89l1.11-7.93h1.63l-0.08,1.47c0.71-1.02,1.62-1.69,2.73-1.69C274.58,158.27,275.3,159.2,275.07,160.75z"/>
	<path fill="#8B80A9" d="M283.55,159.03l-0.79,5.32c-0.01,0.14-0.03,0.24-0.03,0.33c0,0.41,0.16,0.56,0.45,0.67l-0.54,1.26
		c-0.84-0.09-1.46-0.46-1.63-1.32c-0.58,0.79-1.37,1.35-2.35,1.35c-1.7,0-2.57-1.23-2.57-3.1c0-2.23,1.17-5.28,4.41-5.28
		C281.49,158.27,282.48,158.48,283.55,159.03z M278.06,163.54c0,1.2,0.43,1.65,1.12,1.65c0.69,0,1.23-0.51,1.77-1.26l0.6-4.05
		c-0.38-0.15-0.64-0.21-1.09-0.21C278.7,159.68,278.06,161.9,278.06,163.54z"/>
	<path fill="#8B80A9" d="M295.49,160.71l-0.81,5.71h-1.89l0.77-5.38c0.13-0.99-0.2-1.2-0.63-1.2c-0.66,0-1.31,0.89-1.85,1.98
		l-0.66,4.6h-1.89l0.77-5.38c0.13-0.99-0.2-1.2-0.63-1.2c-0.66,0-1.31,0.92-1.85,2.03l-0.63,4.56h-1.89l1.11-7.93h1.63l-0.08,1.4
		c0.67-0.99,1.51-1.62,2.54-1.62c0.88,0,1.59,0.54,1.74,1.54c0.68-0.98,1.56-1.54,2.5-1.54C294.98,158.27,295.7,159.2,295.49,160.71
		z"/>
	<path fill="#8B80A9" d="M298.4,166.42h-1.89l1.11-7.93h1.89L298.4,166.42z M300.15,155.7c-0.09,0.63-0.61,1.1-1.3,1.1
		c-0.72,0-1.16-0.54-1.06-1.22c0.09-0.64,0.61-1.11,1.3-1.11C299.82,154.47,300.24,155.01,300.15,155.7z"/>
	<path fill="#8B80A9" d="M306.98,159.21l-0.96,1.14c-0.46-0.42-0.9-0.57-1.46-0.57c-1.8,0-2.28,2.14-2.28,3.63
		c0,1.23,0.54,1.68,1.41,1.68c0.62,0,1.08-0.21,1.7-0.58l0.72,1.28c-0.79,0.55-1.65,0.87-2.62,0.87c-2.02,0-3.19-1.27-3.19-3.34
		c0-2.07,1.17-5.04,4.26-5.04C305.49,158.27,306.32,158.57,306.98,159.21z"/>
	<path fill="#8B80A9" d="M250.33,184.42h-1.89l1.11-7.93h1.89L250.33,184.42z M252.08,173.7c-0.09,0.63-0.61,1.09-1.3,1.09
		c-0.72,0-1.16-0.54-1.06-1.21c0.09-0.64,0.61-1.11,1.3-1.11C251.75,172.47,252.18,173.01,252.08,173.7z"/>
	<path fill="#8B80A9" d="M259.42,178.75l-0.79,5.67h-1.89l0.76-5.38c0.13-0.95-0.18-1.2-0.64-1.2c-0.78,0-1.5,0.92-2.1,2.04
		l-0.63,4.54h-1.89l1.11-7.93h1.63l-0.08,1.47c0.71-1.02,1.62-1.7,2.73-1.7C258.92,176.26,259.65,177.2,259.42,178.75z"/>
	<path fill="#8B80A9" d="M262.82,182.04c-0.12,0.78,0.08,1.05,0.62,1.05c0.31,0,0.63-0.09,1-0.3l0.54,1.29
		c-0.63,0.39-1.35,0.57-2.01,0.57c-1.57-0.01-2.28-0.94-2.04-2.62l0.58-4.15h-1.23l0.2-1.38h1.3l0.5-1.8l1.59-0.18l-0.29,1.98h1.83
		l-0.39,1.38h-1.62L262.82,182.04z"/>
	<path fill="#8B80A9" d="M267.37,181.5c0.03,1.25,0.66,1.67,1.53,1.67c0.72,0,1.35-0.23,2.07-0.74l0.73,1.2
		c-0.87,0.62-1.86,1.02-3.01,1.02c-2.16,0-3.27-1.29-3.27-3.3c0-2.16,1.12-5.08,4.32-5.08c1.82,0,2.75,0.98,2.75,2.1
		C272.48,180.6,269.98,181.25,267.37,181.5z M270.53,178.46c0-0.36-0.19-0.83-0.93-0.83c-1.35,0-1.95,1.33-2.16,2.62
		C269.57,180.04,270.53,179.45,270.53,178.46z"/>
	<path fill="#8B80A9" d="M278.75,176.4l-0.55,1.84c-0.24-0.06-0.41-0.09-0.66-0.09c-1,0-1.61,0.94-2.1,2.35l-0.56,3.92h-1.89
		l1.11-7.93h1.63l-0.06,1.54c0.57-1.16,1.42-1.75,2.28-1.75C278.26,176.28,278.5,176.33,278.75,176.4z"/>
	<path fill="#8B80A9" d="M281.75,175.7l-0.12,0.79h1.88l-0.39,1.38h-1.68l-0.83,5.88c-0.34,2.43-1.51,3.22-3.36,3.94l-0.51-1.41
		c1.12-0.45,1.75-0.92,1.98-2.49l0.83-5.92h-1.28l0.2-1.38h1.28l0.13-0.92c0.2-1.44,1.23-2.47,3-2.47c0.87,0,1.5,0.25,2.05,0.61
		l-0.67,1.2c-0.45-0.29-0.9-0.36-1.25-0.36C282.23,174.56,281.86,174.93,281.75,175.7z"/>
	<path fill="#8B80A9" d="M290.42,177.03l-0.79,5.32c-0.01,0.14-0.03,0.24-0.03,0.33c0,0.41,0.17,0.56,0.45,0.67l-0.54,1.26
		c-0.84-0.09-1.46-0.46-1.63-1.32c-0.58,0.79-1.37,1.35-2.35,1.35c-1.7,0-2.57-1.23-2.57-3.1c0-2.24,1.17-5.28,4.41-5.28
		C288.37,176.26,289.36,176.48,290.42,177.03z M284.94,181.54c0,1.2,0.43,1.65,1.12,1.65c0.69,0,1.23-0.51,1.77-1.26l0.6-4.05
		c-0.38-0.15-0.64-0.21-1.09-0.21C285.58,177.67,284.94,179.89,284.94,181.54z"/>
	<path fill="#8B80A9" d="M297.85,177.21l-0.96,1.14c-0.46-0.42-0.9-0.57-1.46-0.57c-1.8,0-2.28,2.14-2.28,3.63
		c0,1.23,0.54,1.68,1.41,1.68c0.62,0,1.08-0.21,1.7-0.58l0.72,1.28c-0.79,0.55-1.65,0.87-2.62,0.87c-2.02,0-3.19-1.27-3.19-3.34
		c0-2.07,1.17-5.04,4.26-5.04C296.36,176.26,297.19,176.57,297.85,177.21z"/>
	<path fill="#8B80A9" d="M299.65,181.5c0.03,1.25,0.66,1.67,1.53,1.67c0.72,0,1.35-0.23,2.07-0.74l0.73,1.2
		c-0.87,0.62-1.86,1.02-3.01,1.02c-2.16,0-3.27-1.29-3.27-3.3c0-2.16,1.12-5.08,4.32-5.08c1.82,0,2.75,0.98,2.75,2.1
		C304.76,180.6,302.26,181.25,299.65,181.5z M302.81,178.46c0-0.36-0.19-0.83-0.93-0.83c-1.35,0-1.95,1.33-2.16,2.62
		C301.85,180.04,302.81,179.45,302.81,178.46z"/>
	<path fill="#8B80A9" d="M305.63,178.96h4.48l-0.22,1.53h-4.49L305.63,178.96z"/>
	<path fill="#8B80A9" d="M261.77,195.27l-0.87,1.06c-0.58-0.42-1.25-0.64-1.91-0.64c-0.83,0-1.29,0.31-1.29,0.84
		c0,0.51,0.41,0.69,1.56,1.06c1.41,0.45,2.15,1.14,2.15,2.38c0,1.61-1.35,2.67-3.45,2.67c-1.39,0-2.47-0.55-3.12-1.23l0.99-1.05
		c0.55,0.5,1.28,0.84,2.17,0.84c1.08,0,1.49-0.54,1.49-1.02c0-0.63-0.36-0.84-1.62-1.26c-1.44-0.46-2.07-1.11-2.07-2.25
		c0-1.21,1.07-2.42,3.2-2.42C260.13,194.26,261.06,194.66,261.77,195.27z"/>
	<path fill="#8B80A9" d="M269.78,197.37c0,2.26-1.08,5.28-4.21,5.28c-0.62,0-1.06-0.1-1.47-0.24l-0.45,3.09l-1.89,0.22l1.58-11.23
		h1.65l-0.01,0.93c0.83-0.88,1.62-1.16,2.38-1.16C268.91,194.26,269.78,195.39,269.78,197.37z M264.9,196.72l-0.58,4.28
		c0.39,0.13,0.71,0.21,1.19,0.21c1.69,0,2.32-2.25,2.32-3.87c0-1.25-0.49-1.63-1.17-1.63C265.97,195.71,265.41,196.14,264.9,196.72z
		"/>
	<path fill="#8B80A9" d="M272.55,199.5c0.03,1.25,0.66,1.67,1.53,1.67c0.72,0,1.35-0.23,2.07-0.74l0.73,1.2
		c-0.87,0.62-1.86,1.02-3.01,1.02c-2.16,0-3.27-1.29-3.27-3.3c0-2.16,1.12-5.08,4.32-5.08c1.82,0,2.75,0.98,2.75,2.1
		C277.67,198.6,275.16,199.25,272.55,199.5z M275.72,196.46c0-0.36-0.19-0.83-0.93-0.83c-1.35,0-1.95,1.33-2.16,2.62
		C274.76,198.04,275.72,197.45,275.72,196.46z"/>
	<path fill="#8B80A9" d="M284.85,195.21l-0.96,1.14c-0.46-0.42-0.9-0.57-1.46-0.57c-1.8,0-2.28,2.14-2.28,3.63
		c0,1.23,0.54,1.68,1.41,1.68c0.62,0,1.08-0.21,1.7-0.58l0.72,1.28c-0.79,0.55-1.65,0.87-2.62,0.87c-2.02,0-3.19-1.27-3.19-3.34
		c0-2.07,1.17-5.04,4.26-5.04C283.37,194.26,284.19,194.57,284.85,195.21z"/>
	<path fill="#8B80A9" d="M286.76,202.42h-1.89l1.11-7.93h1.89L286.76,202.42z M288.51,191.7c-0.09,0.63-0.61,1.09-1.3,1.09
		c-0.72,0-1.16-0.54-1.06-1.21c0.09-0.64,0.61-1.11,1.3-1.11C288.18,190.47,288.6,191.01,288.51,191.7z"/>
	<path fill="#8B80A9" d="M295.13,202.42h-1.89l0.92-6.55h-2.48l-0.83,5.88c-0.34,2.43-1.51,3.22-3.36,3.94l-0.51-1.41
		c1.12-0.45,1.75-0.92,1.98-2.49l0.83-5.92h-1.28l0.2-1.38h1.28l0.13-0.92c0.2-1.44,1.32-2.47,3.19-2.47c1.01,0,1.74,0.25,2.43,0.67
		l-0.68,1.23c-0.52-0.3-1.09-0.45-1.62-0.45c-0.95,0-1.35,0.38-1.46,1.14l-0.12,0.79h4.37L295.13,202.42z"/>
	<path fill="#8B80A9" d="M303.71,195.21l-0.96,1.14c-0.46-0.42-0.9-0.57-1.46-0.57c-1.8,0-2.28,2.14-2.28,3.63
		c0,1.23,0.54,1.68,1.41,1.68c0.62,0,1.08-0.21,1.7-0.58l0.72,1.28c-0.79,0.55-1.65,0.87-2.62,0.87c-2.02,0-3.19-1.27-3.19-3.34
		c0-2.07,1.17-5.04,4.26-5.04C302.22,194.26,303.05,194.57,303.71,195.21z"/>
	<path fill="#8B80A9" d="M257.79,212.4l-0.55,1.84c-0.24-0.06-0.41-0.09-0.66-0.09c-1,0-1.61,0.94-2.1,2.35l-0.56,3.92h-1.89
		l1.11-7.93h1.63l-0.06,1.54c0.57-1.16,1.42-1.75,2.28-1.75C257.3,212.28,257.54,212.33,257.79,212.4z"/>
	<path fill="#8B80A9" d="M259.25,217.5c0.03,1.25,0.66,1.67,1.53,1.67c0.72,0,1.35-0.23,2.07-0.74l0.73,1.2
		c-0.87,0.62-1.86,1.02-3.01,1.02c-2.16,0-3.27-1.29-3.27-3.3c0-2.16,1.12-5.08,4.32-5.08c1.82,0,2.75,0.98,2.75,2.1
		C264.36,216.6,261.86,217.25,259.25,217.5z M262.41,214.46c0-0.36-0.19-0.83-0.93-0.83c-1.35,0-1.95,1.33-2.16,2.62
		C261.45,216.04,262.41,215.45,262.41,214.46z"/>
	<path fill="#8B80A9" d="M272.33,213.03l-1.47,10.48l-1.92,0.21l0.57-4.11c-0.38,0.49-1.17,1.03-2.12,1.03
		c-1.68,0-2.55-1.23-2.55-3.1c0-2.28,1.19-5.28,4.42-5.28C270.27,212.26,271.26,212.48,272.33,213.03z M266.82,217.54
		c0,1.2,0.45,1.65,1.14,1.65c0.71,0,1.23-0.51,1.77-1.26l0.6-4.05c-0.38-0.15-0.65-0.21-1.09-0.21
		C267.48,213.67,266.82,215.89,266.82,217.54z"/>
	<path fill="#8B80A9" d="M279.38,220.42h-1.63l0.08-1.3c-0.71,0.93-1.52,1.53-2.57,1.53c-1.46,0-2.1-0.96-1.89-2.5l0.79-5.65h1.89
		l-0.75,5.43c-0.13,0.93,0.11,1.21,0.65,1.21c0.76,0,1.41-0.76,1.93-1.56l0.72-5.08h1.89L279.38,220.42z"/>
	<path fill="#8B80A9" d="M283.22,217.5c0.03,1.25,0.66,1.67,1.53,1.67c0.72,0,1.35-0.23,2.07-0.74l0.73,1.2
		c-0.87,0.62-1.86,1.02-3.01,1.02c-2.16,0-3.27-1.29-3.27-3.3c0-2.16,1.12-5.08,4.32-5.08c1.82,0,2.75,0.98,2.75,2.1
		C288.33,216.6,285.83,217.25,283.22,217.5z M286.38,214.46c0-0.36-0.19-0.83-0.93-0.83c-1.35,0-1.95,1.33-2.16,2.62
		C285.42,216.04,286.38,215.45,286.38,214.46z"/>
	<path fill="#8B80A9" d="M295.04,213.27l-0.87,1.06c-0.58-0.42-1.25-0.64-1.91-0.64c-0.83,0-1.29,0.31-1.29,0.84
		c0,0.51,0.41,0.69,1.56,1.06c1.41,0.45,2.15,1.14,2.15,2.38c0,1.61-1.35,2.67-3.45,2.67c-1.39,0-2.47-0.55-3.12-1.23l0.99-1.05
		c0.55,0.5,1.28,0.84,2.17,0.84c1.08,0,1.49-0.54,1.49-1.02c0-0.63-0.36-0.84-1.62-1.26c-1.44-0.46-2.07-1.11-2.07-2.25
		c0-1.21,1.07-2.42,3.2-2.42C293.4,212.26,294.33,212.66,295.04,213.27z"/>
	<path fill="#8B80A9" d="M297.86,218.04c-0.12,0.78,0.08,1.05,0.62,1.05c0.31,0,0.63-0.09,1-0.3l0.54,1.29
		c-0.63,0.39-1.35,0.57-2.01,0.57c-1.57-0.01-2.28-0.94-2.04-2.62l0.58-4.15h-1.23l0.2-1.38h1.3l0.5-1.8l1.59-0.18l-0.29,1.98h1.83
		l-0.39,1.38h-1.62L297.86,218.04z"/>
	<path fill="#8B80A9" d="M306.81,213.27l-0.87,1.06c-0.58-0.42-1.25-0.64-1.91-0.64c-0.83,0-1.29,0.31-1.29,0.84
		c0,0.51,0.41,0.69,1.56,1.06c1.41,0.45,2.15,1.14,2.15,2.38c0,1.61-1.35,2.67-3.45,2.67c-1.39,0-2.47-0.55-3.12-1.23l0.99-1.05
		c0.55,0.5,1.28,0.84,2.17,0.84c1.08,0,1.49-0.54,1.49-1.02c0-0.63-0.36-0.84-1.62-1.26c-1.44-0.46-2.07-1.11-2.07-2.25
		c0-1.21,1.07-2.42,3.2-2.42C305.18,212.26,306.11,212.66,306.81,213.27z"/>
</g>
<g>
	<g>
		<line fill="none" stroke="#D8D5E2" stroke-width="2" stroke-miterlimit="10" x1="495" y1="130" x2="495" y2="82.18"/>
		<g>
			<polygon fill="#D8D5E2" points="499.96,83.64 494.97,75 489.99,83.64 			"/>
		</g>
	</g>
</g>
<g>
	<g>
		<line fill="none" stroke="#D8D5E2" stroke-width="2" stroke-miterlimit="10" x1="515" y1="122.82" x2="515" y2="75"/>
		<g>
			<polygon fill="#D8D5E2" points="519.96,121.37 514.97,130 509.99,121.37 			"/>
		</g>
	</g>
</g>
<g>
	<g>
		<line fill="none" stroke="#8B80A9" stroke-width="1.5" stroke-miterlimit="10" x1="385" y1="45" x2="282.33" y2="18.33"/>
		<g>
			<polygon fill="#8B80A9" points="284.33,15.01 277.12,17 282.45,22.25 			"/>
		</g>
	</g>
</g>
<g>
	<g>
		<line fill="none" stroke="#8B80A9" stroke-width="1.5" stroke-miterlimit="10" x1="385" y1="45" x2="282.41" y2="64.08"/>
		<g>
			<polygon fill="#8B80A9" points="282.81,60.22 277.13,65.08 284.18,67.58 			"/>
		</g>
	</g>
</g>
<g>
	<g>
		<line fill="none" stroke="#8B80A9" stroke-width="1.5" stroke-miterlimit="10" x1="385" y1="45" x2="232.44" y2="116.55"/>
		<g>
			<polygon fill="#8B80A9" points="231.85,112.72 227.57,118.86 235.02,119.49 			"/>
		</g>
	</g>
</g>
<g>
	<g>
		<line fill="none" stroke="#8B80A9" stroke-width="1.5" stroke-miterlimit="10" x1="385" y1="45" x2="220.67" y2="174.67"/>
		<g>
			<polygon fill="#8B80A9" points="219.23,171.07 216.46,178.02 223.86,176.94 			"/>
		</g>
	</g>
</g>
<g>
	<path fill="#D8D5E2" d="M385,65c0,5.52,4.48,10,10,10h220c5.52,0,10-4.48,10-10V25c0-5.52-4.48-10-10-10H395c-5.52,0-10,4.48-10,10
		V65z"/>
</g>
<g>
	<path fill="#3D2C70" d="M409.55,42.32l-0.73,2.58c-0.25-0.08-0.45-0.12-0.69-0.12c-0.98,0-1.46,0.94-1.86,2.11l-0.5,3.52h-2.62
		l1.11-7.99h2.28l-0.02,1.46c0.53-1.05,1.42-1.7,2.23-1.7C409.09,42.19,409.31,42.23,409.55,42.32z"/>
	<path fill="#3D2C70" d="M411.8,47.54c0.06,0.93,0.6,1.23,1.31,1.23c0.67,0,1.26-0.24,2.01-0.73l0.93,1.56
		c-0.89,0.63-1.98,1.1-3.29,1.1c-2.45,0-3.59-1.38-3.59-3.4c0-2.17,1.19-5.13,4.63-5.13c2.01,0,3.09,0.98,3.09,2.23
		C416.91,46.63,414.22,47.32,411.8,47.54z M414.27,44.56c0-0.38-0.17-0.67-0.72-0.67c-0.96,0-1.42,1.05-1.63,2.1
		C413.81,45.86,414.27,45.02,414.27,44.56z"/>
	<path fill="#3D2C70" d="M424.17,50.42h-2.28l0.04-1.09c-0.67,0.82-1.5,1.36-2.49,1.36c-1.53,0-2.1-1-1.89-2.54l0.81-5.73h2.62
		l-0.72,5.25c-0.11,0.72,0.07,0.9,0.42,0.9c0.43,0,0.88-0.5,1.27-1.12l0.71-5.02h2.61L424.17,50.42z"/>
	<path fill="#3D2C70" d="M432.73,43.19l-1.12,1.42c-0.57-0.38-1.26-0.58-1.86-0.58c-0.63,0-0.9,0.21-0.9,0.52
		c0,0.35,0.25,0.45,1.51,0.87c1.31,0.44,2.02,1.17,2.02,2.43c0,1.4-0.96,2.83-3.66,2.83c-1.42,0-2.71-0.56-3.42-1.35l1.29-1.36
		c0.53,0.46,1.23,0.84,2.14,0.84c0.65,0,1.05-0.24,1.05-0.65c0-0.42-0.29-0.55-1.54-0.99c-1.34-0.47-2.01-1.16-2.01-2.37
		c0-1.44,1.24-2.65,3.49-2.65C430.95,42.16,432,42.58,432.73,43.19z"/>
	<path fill="#3D2C70" d="M441.29,43.04l-0.72,4.95c-0.01,0.13-0.03,0.24-0.03,0.34c0,0.35,0.12,0.5,0.39,0.6l-0.75,1.71
		c-0.92-0.06-1.71-0.47-1.98-1.32c-0.54,0.79-1.29,1.36-2.36,1.36c-1.75,0-2.64-1.25-2.64-3.21c0-2.31,1.23-5.32,4.68-5.32
		C438.99,42.16,440.2,42.41,441.29,43.04z M435.91,47.48c0,1.05,0.36,1.29,0.79,1.29c0.46,0,0.92-0.36,1.32-1l0.54-3.63
		c-0.27-0.09-0.47-0.12-0.76-0.12C436.39,44.02,435.91,46,435.91,47.48z"/>
	<path fill="#3D2C70" d="M445.53,43.07c0.55-0.56,1.38-0.92,2.16-0.92c1.63,0,2.44,1.12,2.44,3.1c0,2.31-0.9,5.43-4.78,5.43
		c-1.23,0-2.34-0.25-3.41-0.71l1.5-10.71l2.66-0.27L445.53,43.07z M445.27,44.95l-0.51,3.66c0.24,0.1,0.53,0.17,0.88,0.17
		c1.32,0,1.8-2.01,1.8-3.42c0-1.02-0.38-1.26-0.84-1.26C446.12,44.09,445.68,44.39,445.27,44.95z"/>
	<path fill="#3D2C70" d="M453.62,48.05c-0.06,0.44,0.07,0.54,0.3,0.54c0.1,0,0.22-0.03,0.34-0.06l0.27,1.86
		c-0.43,0.19-1.05,0.3-1.6,0.3c-1.44,0-2.18-0.85-1.95-2.46l1.26-8.95l2.66-0.27L453.62,48.05z"/>
	<path fill="#3D2C70" d="M457.81,47.54c0.06,0.93,0.6,1.23,1.3,1.23c0.68,0,1.26-0.24,2.01-0.73l0.93,1.56
		c-0.88,0.63-1.98,1.1-3.29,1.1c-2.44,0-3.58-1.38-3.58-3.4c0-2.17,1.19-5.13,4.63-5.13c2.01,0,3.09,0.98,3.09,2.23
		C462.91,46.63,460.22,47.32,457.81,47.54z M460.27,44.56c0-0.38-0.16-0.67-0.72-0.67c-0.96,0-1.43,1.05-1.63,2.1
		C459.82,45.86,460.27,45.02,460.27,44.56z"/>
	<path fill="#3D2C70" d="M474.94,43.04l-1.47,10.48l-2.64,0.27l0.57-3.99c-0.25,0.36-1.02,0.88-1.99,0.88c-1.7,0-2.6-1.25-2.6-3.21
		c0-2.43,1.26-5.32,4.73-5.32C472.62,42.16,473.83,42.41,474.94,43.04z M469.51,47.48c0,1.05,0.38,1.29,0.82,1.29
		c0.48,0,0.92-0.36,1.32-1l0.54-3.63c-0.25-0.09-0.46-0.12-0.75-0.12C470.02,44.02,469.51,46,469.51,47.48z"/>
	<path fill="#3D2C70" d="M482.35,50.42h-2.28l0.04-1.09c-0.67,0.82-1.5,1.36-2.49,1.36c-1.53,0-2.1-1-1.89-2.54l0.81-5.73h2.62
		l-0.72,5.25c-0.11,0.72,0.07,0.9,0.42,0.9c0.44,0,0.88-0.5,1.28-1.12l0.71-5.02h2.61L482.35,50.42z"/>
	<path fill="#3D2C70" d="M486.74,47.54c0.06,0.93,0.6,1.23,1.3,1.23c0.68,0,1.26-0.24,2.01-0.73l0.93,1.56
		c-0.88,0.63-1.98,1.1-3.29,1.1c-2.45,0-3.59-1.38-3.59-3.4c0-2.17,1.19-5.13,4.63-5.13c2.01,0,3.09,0.98,3.09,2.23
		C491.84,46.63,489.16,47.32,486.74,47.54z M489.21,44.56c0-0.38-0.17-0.67-0.72-0.67c-0.96,0-1.42,1.05-1.63,2.1
		C488.75,45.86,489.21,45.02,489.21,44.56z"/>
	<path fill="#3D2C70" d="M498.67,42.32l-0.73,2.58c-0.25-0.08-0.45-0.12-0.69-0.12c-0.97,0-1.46,0.94-1.86,2.11l-0.5,3.52h-2.62
		l1.11-7.99h2.28l-0.02,1.46c0.53-1.05,1.43-1.7,2.23-1.7C498.2,42.19,498.43,42.23,498.67,42.32z"/>
	<path fill="#3D2C70" d="M503.57,50.44c-0.93,2.11-2.62,3.25-5.19,3.36l-0.06-1.85c1.56-0.17,2.23-0.58,2.82-1.54l-0.93,0.02
		l-1.2-7.99h2.73l0.34,6.31l2.22-6.31h2.74L503.57,50.44z"/>
	<path fill="#3D2C70" d="M512.83,47.54c0.06,0.93,0.6,1.23,1.3,1.23c0.68,0,1.26-0.24,2.01-0.73l0.93,1.56
		c-0.88,0.63-1.98,1.1-3.29,1.1c-2.44,0-3.58-1.38-3.58-3.4c0-2.17,1.19-5.13,4.63-5.13c2.01,0,3.09,0.98,3.09,2.23
		C517.93,46.63,515.24,47.32,512.83,47.54z M515.29,44.56c0-0.38-0.16-0.67-0.72-0.67c-0.96,0-1.43,1.05-1.63,2.1
		C514.84,45.86,515.29,45.02,515.29,44.56z"/>
	<path fill="#3D2C70" d="M526.16,44.59l-0.81,5.83h-2.62l0.73-5.19c0.11-0.72-0.07-0.9-0.36-0.9c-0.48,0-0.99,0.69-1.53,1.81
		l-0.6,4.27h-2.62l1.11-7.99h2.28l-0.02,1.36c0.64-0.99,1.65-1.63,2.7-1.63C525.68,42.16,526.37,43.06,526.16,44.59z"/>
	<path fill="#3D2C70" d="M535.18,43.04l-0.95,6.65c-0.42,2.88-1.67,4.11-4.38,4.11c-0.99,0-2.17-0.35-3.06-0.92l0.86-1.71
		c0.82,0.45,1.54,0.63,2.19,0.63c0.81,0,1.57-0.24,1.79-1.67l0.12-0.7c-0.51,0.58-1.21,0.99-2.07,0.99c-1.74,0-2.64-1.27-2.64-3.13
		c0-2.16,1.23-5.13,4.74-5.13C532.87,42.16,534.08,42.41,535.18,43.04z M529.73,47.21c0,1,0.4,1.25,0.82,1.25
		c0.5,0,0.96-0.39,1.38-0.98l0.51-3.34c-0.27-0.09-0.46-0.12-0.75-0.12C530.21,44.02,529.73,45.95,529.73,47.21z"/>
	<path fill="#3D2C70" d="M538.37,50.42h-2.62l1.11-7.99h2.62L538.37,50.42z M540.07,39.65c-0.11,0.79-0.81,1.41-1.68,1.41
		c-0.9,0-1.44-0.66-1.33-1.52c0.12-0.81,0.81-1.42,1.68-1.42C539.65,38.12,540.17,38.78,540.07,39.65z"/>
	<path fill="#3D2C70" d="M547.87,44.59l-0.81,5.83h-2.62l0.74-5.19c0.1-0.72-0.08-0.9-0.36-0.9c-0.48,0-0.99,0.69-1.53,1.81
		l-0.6,4.27h-2.62l1.11-7.99h2.28l-0.01,1.36c0.64-0.99,1.65-1.63,2.7-1.63C547.39,42.16,548.08,43.06,547.87,44.59z"/>
	<path fill="#3D2C70" d="M551.38,47.54c0.06,0.93,0.6,1.23,1.3,1.23c0.68,0,1.26-0.24,2.01-0.73l0.93,1.56
		c-0.88,0.63-1.98,1.1-3.29,1.1c-2.45,0-3.59-1.38-3.59-3.4c0-2.17,1.19-5.13,4.63-5.13c2.01,0,3.09,0.98,3.09,2.23
		C556.48,46.63,553.79,47.32,551.38,47.54z M553.84,44.56c0-0.38-0.17-0.67-0.72-0.67c-0.96,0-1.42,1.05-1.63,2.1
		C553.39,45.86,553.84,45.02,553.84,44.56z"/>
	<path fill="#3D2C70" d="M563.17,48.05c-0.06,0.44,0.08,0.54,0.3,0.54c0.11,0,0.22-0.03,0.35-0.06l0.27,1.86
		c-0.44,0.19-1.05,0.3-1.61,0.3c-1.44,0-2.17-0.85-1.95-2.46l1.26-8.95l2.65-0.27L563.17,48.05z"/>
	<path fill="#3D2C70" d="M567.41,50.42h-2.62l1.11-7.99h2.62L567.41,50.42z M569.11,39.65c-0.11,0.79-0.81,1.41-1.68,1.41
		c-0.9,0-1.44-0.66-1.34-1.52c0.12-0.81,0.81-1.42,1.68-1.42C568.69,38.12,569.21,38.78,569.11,39.65z"/>
	<path fill="#3D2C70" d="M572.72,43.07c0.55-0.56,1.38-0.92,2.16-0.92c1.63,0,2.44,1.12,2.44,3.1c0,2.31-0.9,5.43-4.78,5.43
		c-1.23,0-2.34-0.25-3.41-0.71l1.5-10.71l2.66-0.27L572.72,43.07z M572.47,44.95l-0.51,3.66c0.24,0.1,0.53,0.17,0.88,0.17
		c1.32,0,1.8-2.01,1.8-3.42c0-1.02-0.38-1.26-0.84-1.26C573.32,44.09,572.87,44.39,572.47,44.95z"/>
	<path fill="#3D2C70" d="M584.38,42.32l-0.73,2.58c-0.26-0.08-0.45-0.12-0.69-0.12c-0.97,0-1.46,0.94-1.86,2.11l-0.49,3.52h-2.62
		l1.11-7.99h2.28l-0.01,1.46c0.52-1.05,1.42-1.7,2.23-1.7C583.91,42.19,584.14,42.23,584.38,42.32z"/>
	<path fill="#3D2C70" d="M592.06,43.04l-0.72,4.95c-0.01,0.13-0.03,0.24-0.03,0.34c0,0.35,0.12,0.5,0.39,0.6l-0.75,1.71
		c-0.92-0.06-1.71-0.47-1.98-1.32c-0.54,0.79-1.29,1.36-2.36,1.36c-1.75,0-2.64-1.25-2.64-3.21c0-2.31,1.23-5.32,4.68-5.32
		C589.75,42.16,590.96,42.41,592.06,43.04z M586.67,47.48c0,1.05,0.36,1.29,0.79,1.29c0.46,0,0.91-0.36,1.32-1l0.54-3.63
		c-0.27-0.09-0.46-0.12-0.77-0.12C587.15,44.02,586.67,46,586.67,47.48z"/>
	<path fill="#3D2C70" d="M599.06,42.32l-0.73,2.58c-0.26-0.08-0.45-0.12-0.69-0.12c-0.97,0-1.46,0.94-1.86,2.11l-0.49,3.52h-2.62
		l1.11-7.99h2.28l-0.01,1.46c0.52-1.05,1.42-1.7,2.23-1.7C598.6,42.19,598.82,42.23,599.06,42.32z"/>
	<path fill="#3D2C70" d="M603.97,50.44c-0.93,2.11-2.62,3.25-5.19,3.36l-0.06-1.85c1.56-0.17,2.23-0.58,2.82-1.54l-0.93,0.02
		l-1.2-7.99h2.73l0.34,6.31l2.22-6.31h2.74L603.97,50.44z"/>
</g>
<ellipse fill="#FFFFFF" stroke="#3D2C70" stroke-width="2" stroke-miterlimit="10" cx="42.73" cy="39.36" rx="40.73" ry="27.82"/>
<g>
	<path fill="#3D2C70" d="M19.02,33.07V44.2h-2.1l-0.12-0.93c-0.45,0.66-1.18,1.19-2.26,1.19c-2.03,0-3.03-1.68-3.03-4.26
		c0-2.46,1.25-4.21,3.3-4.21c0.72,0,1.37,0.29,1.85,0.75v-3.92L19.02,33.07z M16.66,41.83v-3.45c-0.36-0.42-0.72-0.67-1.23-0.67
		c-0.85,0-1.46,0.72-1.46,2.5c0,1.98,0.54,2.5,1.32,2.5C15.84,42.72,16.28,42.42,16.66,41.83z"/>
	<path fill="#3D2C70" d="M27.9,42.87l-0.5,1.54c-0.93-0.08-1.54-0.36-1.92-1.14c-0.57,0.87-1.46,1.19-2.4,1.19
		c-1.59,0-2.6-1.03-2.6-2.49c0-1.74,1.32-2.69,3.74-2.69h0.81v-0.34c0-0.95-0.38-1.23-1.35-1.23c-0.51,0-1.29,0.15-2.08,0.42
		l-0.54-1.56c1-0.38,2.1-0.58,3-0.58c2.31,0,3.3,0.98,3.3,2.82v3.09C27.36,42.51,27.53,42.73,27.9,42.87z M25.04,42.01v-1.42h-0.58
		c-1.08,0-1.6,0.38-1.6,1.17c0,0.63,0.34,1,0.93,1C24.32,42.76,24.75,42.48,25.04,42.01z"/>
	<path fill="#3D2C70" d="M34.4,43.83c-0.6,0.42-1.44,0.63-2.16,0.63c-1.75-0.01-2.61-1-2.61-2.88v-3.69H28.5v-1.65h1.12v-1.72
		L32,34.24v1.99h1.83l-0.25,1.65H32v3.66c0,0.76,0.26,1.03,0.75,1.03c0.27,0,0.54-0.07,0.86-0.27L34.4,43.83z"/>
	<path fill="#3D2C70" d="M42.21,42.87l-0.5,1.54c-0.93-0.08-1.54-0.36-1.92-1.14c-0.57,0.87-1.46,1.19-2.4,1.19
		c-1.59,0-2.6-1.03-2.6-2.49c0-1.74,1.32-2.69,3.74-2.69h0.81v-0.34c0-0.95-0.38-1.23-1.35-1.23c-0.51,0-1.29,0.15-2.08,0.42
		l-0.54-1.56c1-0.38,2.1-0.58,3-0.58c2.31,0,3.3,0.98,3.3,2.82v3.09C41.67,42.51,41.84,42.73,42.21,42.87z M39.35,42.01v-1.42h-0.58
		c-1.08,0-1.6,0.38-1.6,1.17c0,0.63,0.34,1,0.93,1C38.63,42.76,39.06,42.48,39.35,42.01z"/>
	<path fill="#3D2C70" d="M54.89,40.2c0,2.46-1.2,4.26-3.17,4.26c-0.78,0-1.44-0.27-1.93-0.84v3.66l-2.37,0.26V36.24h2.08l0.12,0.89
		c0.66-0.83,1.51-1.14,2.25-1.14C53.97,35.98,54.89,37.62,54.89,40.2z M52.43,40.23c0-1.98-0.48-2.5-1.3-2.5
		c-0.51,0-0.99,0.34-1.33,0.93v3.36c0.33,0.48,0.72,0.71,1.21,0.71C51.89,42.72,52.43,42.01,52.43,40.23z"/>
	<path fill="#3D2C70" d="M63.87,40.23c0,2.55-1.47,4.23-3.9,4.23c-2.42,0-3.9-1.56-3.9-4.24c0-2.55,1.47-4.23,3.9-4.23
		S63.87,37.54,63.87,40.23z M58.53,40.21c0,1.77,0.48,2.5,1.44,2.5s1.44-0.77,1.44-2.49c0-1.77-0.48-2.5-1.44-2.5
		S58.53,38.49,58.53,40.21z"/>
	<path fill="#3D2C70" d="M72.57,33.07V44.2h-2.1l-0.12-0.93c-0.45,0.66-1.18,1.19-2.26,1.19c-2.03,0-3.03-1.68-3.03-4.26
		c0-2.46,1.25-4.21,3.3-4.21c0.72,0,1.37,0.29,1.85,0.75v-3.92L72.57,33.07z M70.2,41.83v-3.45c-0.36-0.42-0.72-0.67-1.23-0.67
		c-0.85,0-1.46,0.72-1.46,2.5c0,1.98,0.54,2.5,1.32,2.5C69.39,42.72,69.83,42.42,70.2,41.83z"/>
</g>
<ellipse fill="#FFFFFF" stroke="#3D2C70" stroke-width="2" stroke-miterlimit="10" cx="185.72" cy="118.84" rx="40.73" ry="27.82"/>
<g>
	<path fill="#3D2C70" d="M162.01,112.54v11.13h-2.1l-0.12-0.93c-0.45,0.66-1.18,1.18-2.26,1.18c-2.03,0-3.03-1.68-3.03-4.26
		c0-2.46,1.25-4.21,3.3-4.21c0.72,0,1.37,0.29,1.85,0.75v-3.92L162.01,112.54z M159.64,121.3v-3.45c-0.36-0.42-0.72-0.67-1.23-0.67
		c-0.85,0-1.46,0.72-1.46,2.5c0,1.98,0.54,2.5,1.32,2.5C158.83,122.19,159.27,121.89,159.64,121.3z"/>
	<path fill="#3D2C70" d="M170.89,122.34l-0.5,1.54c-0.93-0.08-1.54-0.36-1.92-1.14c-0.57,0.87-1.46,1.18-2.4,1.18
		c-1.59,0-2.6-1.03-2.6-2.49c0-1.74,1.32-2.69,3.74-2.69h0.81v-0.34c0-0.95-0.38-1.23-1.35-1.23c-0.51,0-1.29,0.15-2.08,0.42
		l-0.54-1.56c1-0.38,2.1-0.58,3-0.58c2.31,0,3.3,0.98,3.3,2.82v3.09C170.35,121.98,170.52,122.2,170.89,122.34z M168.03,121.48
		v-1.42h-0.58c-1.08,0-1.6,0.38-1.6,1.17c0,0.63,0.34,1,0.93,1C167.31,122.23,167.74,121.95,168.03,121.48z"/>
	<path fill="#3D2C70" d="M177.39,123.3c-0.6,0.42-1.44,0.63-2.16,0.63c-1.75-0.01-2.61-1-2.61-2.88v-3.69h-1.12v-1.65h1.12v-1.72
		l2.37-0.27v1.99h1.83l-0.25,1.65h-1.58v3.66c0,0.76,0.26,1.03,0.75,1.03c0.27,0,0.54-0.07,0.86-0.27L177.39,123.3z"/>
	<path fill="#3D2C70" d="M185.2,122.34l-0.5,1.54c-0.93-0.08-1.54-0.36-1.92-1.14c-0.57,0.87-1.46,1.18-2.4,1.18
		c-1.59,0-2.6-1.03-2.6-2.49c0-1.74,1.32-2.69,3.74-2.69h0.81v-0.34c0-0.95-0.38-1.23-1.35-1.23c-0.51,0-1.29,0.15-2.08,0.42
		l-0.54-1.56c1-0.38,2.1-0.58,3-0.58c2.31,0,3.3,0.98,3.3,2.82v3.09C184.66,121.98,184.83,122.2,185.2,122.34z M182.34,121.48v-1.42
		h-0.58c-1.08,0-1.6,0.38-1.6,1.17c0,0.63,0.34,1,0.93,1C181.62,122.23,182.05,121.95,182.34,121.48z"/>
	<path fill="#3D2C70" d="M197.88,119.67c0,2.46-1.2,4.26-3.17,4.26c-0.78,0-1.44-0.27-1.93-0.84v3.66l-2.37,0.25v-11.29h2.08
		l0.12,0.89c0.66-0.83,1.51-1.14,2.25-1.14C196.96,115.45,197.88,117.09,197.88,119.67z M195.42,119.7c0-1.98-0.48-2.5-1.3-2.5
		c-0.51,0-0.99,0.34-1.33,0.93v3.36c0.33,0.48,0.72,0.71,1.21,0.71C194.88,122.19,195.42,121.48,195.42,119.7z"/>
	<path fill="#3D2C70" d="M206.86,119.7c0,2.55-1.47,4.23-3.9,4.23c-2.42,0-3.9-1.56-3.9-4.24c0-2.55,1.47-4.23,3.9-4.23
		S206.86,117.01,206.86,119.7z M201.52,119.68c0,1.77,0.48,2.5,1.44,2.5s1.44-0.77,1.44-2.49c0-1.77-0.48-2.5-1.44-2.5
		S201.52,117.96,201.52,119.68z"/>
	<path fill="#3D2C70" d="M215.56,112.54v11.13h-2.1l-0.12-0.93c-0.45,0.66-1.18,1.18-2.26,1.18c-2.03,0-3.03-1.68-3.03-4.26
		c0-2.46,1.25-4.21,3.3-4.21c0.72,0,1.37,0.29,1.85,0.75v-3.92L215.56,112.54z M213.19,121.3v-3.45c-0.36-0.42-0.72-0.67-1.23-0.67
		c-0.85,0-1.46,0.72-1.46,2.5c0,1.98,0.54,2.5,1.32,2.5C212.38,122.19,212.82,121.89,213.19,121.3z"/>
</g>
<ellipse fill="#FFFFFF" stroke="#3D2C70" stroke-width="2" stroke-miterlimit="10" cx="55.67" cy="113.75" rx="40.73" ry="27.82"/>
<g>
	<path fill="#3D2C70" d="M31.96,107.46v11.13h-2.1l-0.12-0.93c-0.45,0.66-1.18,1.19-2.26,1.19c-2.03,0-3.03-1.68-3.03-4.26
		c0-2.46,1.25-4.21,3.3-4.21c0.72,0,1.37,0.29,1.85,0.75v-3.92L31.96,107.46z M29.6,116.22v-3.45c-0.36-0.42-0.72-0.67-1.23-0.67
		c-0.85,0-1.46,0.72-1.46,2.5c0,1.98,0.54,2.5,1.32,2.5C28.79,117.1,29.22,116.8,29.6,116.22z"/>
	<path fill="#3D2C70" d="M40.84,117.25l-0.5,1.54c-0.93-0.08-1.54-0.36-1.92-1.14c-0.57,0.87-1.46,1.19-2.4,1.19
		c-1.59,0-2.6-1.04-2.6-2.49c0-1.74,1.32-2.68,3.74-2.68h0.81v-0.34c0-0.95-0.38-1.23-1.35-1.23c-0.51,0-1.29,0.15-2.08,0.42
		L34,110.95c1-0.38,2.1-0.58,3-0.58c2.31,0,3.3,0.97,3.3,2.82v3.09C40.3,116.89,40.47,117.12,40.84,117.25z M37.98,116.4v-1.42
		h-0.58c-1.08,0-1.6,0.38-1.6,1.17c0,0.63,0.34,1,0.93,1C37.26,117.15,37.69,116.86,37.98,116.4z"/>
	<path fill="#3D2C70" d="M47.34,118.21c-0.6,0.42-1.44,0.63-2.16,0.63c-1.75-0.01-2.61-1-2.61-2.88v-3.69h-1.12v-1.65h1.12v-1.72
		l2.37-0.27v2h1.83l-0.25,1.65h-1.58v3.66c0,0.76,0.26,1.04,0.75,1.04c0.27,0,0.54-0.08,0.86-0.27L47.34,118.21z"/>
	<path fill="#3D2C70" d="M55.16,117.25l-0.5,1.54c-0.93-0.08-1.54-0.36-1.92-1.14c-0.57,0.87-1.46,1.19-2.4,1.19
		c-1.59,0-2.6-1.04-2.6-2.49c0-1.74,1.32-2.68,3.74-2.68h0.81v-0.34c0-0.95-0.38-1.23-1.35-1.23c-0.51,0-1.29,0.15-2.08,0.42
		l-0.54-1.56c1-0.38,2.1-0.58,3-0.58c2.31,0,3.3,0.97,3.3,2.82v3.09C54.62,116.89,54.78,117.12,55.16,117.25z M52.29,116.4v-1.42
		h-0.58c-1.08,0-1.6,0.38-1.6,1.17c0,0.63,0.34,1,0.93,1C51.57,117.15,52,116.86,52.29,116.4z"/>
	<path fill="#3D2C70" d="M67.83,114.58c0,2.46-1.2,4.26-3.17,4.26c-0.78,0-1.44-0.27-1.93-0.84v3.66l-2.37,0.26v-11.29h2.08
		l0.12,0.88c0.66-0.83,1.51-1.14,2.25-1.14C66.91,110.37,67.83,112,67.83,114.58z M65.37,114.61c0-1.98-0.48-2.5-1.3-2.5
		c-0.51,0-0.99,0.34-1.33,0.93v3.36c0.33,0.48,0.72,0.71,1.21,0.71C64.83,117.1,65.37,116.4,65.37,114.61z"/>
	<path fill="#3D2C70" d="M76.81,114.61c0,2.55-1.47,4.23-3.9,4.23c-2.42,0-3.9-1.56-3.9-4.25c0-2.55,1.47-4.23,3.9-4.23
		S76.81,111.93,76.81,114.61z M71.47,114.6c0,1.77,0.48,2.5,1.44,2.5s1.44-0.76,1.44-2.49c0-1.77-0.48-2.5-1.44-2.5
		S71.47,112.87,71.47,114.6z"/>
	<path fill="#3D2C70" d="M85.51,107.46v11.13h-2.1l-0.12-0.93c-0.45,0.66-1.18,1.19-2.26,1.19c-2.03,0-3.03-1.68-3.03-4.26
		c0-2.46,1.25-4.21,3.3-4.21c0.72,0,1.37,0.29,1.85,0.75v-3.92L85.51,107.46z M83.14,116.22v-3.45c-0.36-0.42-0.72-0.67-1.23-0.67
		c-0.85,0-1.46,0.72-1.46,2.5c0,1.98,0.54,2.5,1.32,2.5C82.33,117.1,82.77,116.8,83.14,116.22z"/>
</g>
</svg>
