<?xml version="1.0" encoding="utf-8"?>
<!DOCTYPE svg PUBLIC "-//W3C//DTD SVG 1.1//EN" "http://www.w3.org/Graphics/SVG/1.1/DTD/svg11.dtd">
<svg version="1.1" xmlns="http://www.w3.org/2000/svg" width="640" height="230">
<g>
	<path fill="#3D2C70" d="M155,210c0,11.05,8.95,20,20,20h76.12c11.05,0,20-8.95,20-20V20c0-11.05-8.95-20-20-20H175
		c-11.05,0-20,8.95-20,20V210z"/>
</g>
<g>
	<path fill="#3D2C70" d="M369.83,210c0,11.05,8.95,20,20,20h230c11.05,0,20-8.95,20-20V20c0-11.05-8.95-20-20-20h-230
		c-11.05,0-20,8.95-20,20V210z"/>
</g>
<line fill="none" stroke="#8B80A9" stroke-width="2" stroke-miterlimit="10" stroke-dasharray="2" x1="320" y1="129" x2="320" y2="14"/>
<g>
	<path fill="#D8D5E2" d="M385,180c0,5.52,4.48,10,10,10h220c5.52,0,10-4.48,10-10V24c0-5.52-4.48-10-10-10H395
		c-5.52,0-10,4.48-10,10V180z"/>
</g>
<g>
	<path fill="#D8D5E2" d="M172,180c0,5.52,4.48,10,10,10h63.5c5.52,0,10-4.48,10-10V24c0-5.52-4.48-10-10-10H182
		c-5.52,0-10,4.48-10,10V180z"/>
</g>
<g>
	<path fill="#FFFFFF" d="M412.72,207.31l-1.02,1.41c-0.51-0.39-0.98-0.57-1.52-0.57c-1.02,0-1.61,0.69-1.61,2.48
		c0,1.77,0.63,2.31,1.58,2.31c0.57,0,0.96-0.18,1.53-0.54l1.04,1.47c-0.74,0.59-1.59,0.95-2.69,0.95c-2.44,0-3.94-1.65-3.94-4.17
		c0-2.54,1.51-4.3,3.9-4.3C411.1,206.33,411.96,206.66,412.72,207.31z"/>
	<path fill="#FFFFFF" d="M413.8,212.53v-9.11l2.37-0.25v9.27c0,0.33,0.12,0.49,0.41,0.49c0.16,0,0.29-0.03,0.39-0.07l0.46,1.68
		c-0.36,0.15-0.87,0.27-1.44,0.27C414.61,214.81,413.8,213.98,413.8,212.53z"/>
	<path fill="#FFFFFF" d="M421.06,203.74c0,0.76-0.58,1.35-1.41,1.35c-0.82,0-1.39-0.58-1.39-1.35s0.57-1.35,1.39-1.35
		C420.48,202.39,421.06,202.97,421.06,203.74z M420.85,214.55h-2.37v-7.96h2.37V214.55z"/>
	<path fill="#FFFFFF" d="M429.76,211.27h-4.92c0.15,1.42,0.83,1.81,1.8,1.81c0.64,0,1.21-0.22,1.9-0.71l0.98,1.32
		c-0.79,0.63-1.82,1.11-3.1,1.11c-2.66,0-4.01-1.71-4.01-4.2c0-2.38,1.31-4.28,3.72-4.28c2.28,0,3.67,1.5,3.67,4.08
		C429.81,210.67,429.79,211.03,429.76,211.27z M427.48,209.74c-0.02-1.08-0.35-1.83-1.29-1.83c-0.79,0-1.25,0.5-1.36,1.93h2.65
		V209.74z"/>
	<path fill="#FFFFFF" d="M438.19,208.73v5.82h-2.37v-5.42c0-0.84-0.29-1.06-0.75-1.06c-0.53,0-0.96,0.38-1.38,1.04v5.44h-2.37v-7.96
		h2.07l0.16,0.95c0.68-0.78,1.44-1.2,2.43-1.2C437.37,206.33,438.19,207.22,438.19,208.73z"/>
	<path fill="#FFFFFF" d="M445.12,214.18c-0.6,0.42-1.44,0.63-2.16,0.63c-1.75-0.01-2.61-1-2.61-2.88v-3.69h-1.12v-1.65h1.12v-1.72
		l2.37-0.27v2h1.83l-0.26,1.65h-1.57v3.66c0,0.77,0.25,1.04,0.75,1.04c0.27,0,0.54-0.07,0.85-0.27L445.12,214.18z"/>
	<path fill="#FFFFFF" d="M457.12,210.58c0,2.55-1.47,4.23-3.9,4.23c-2.42,0-3.9-1.56-3.9-4.24c0-2.55,1.47-4.23,3.9-4.23
		S457.12,207.89,457.12,210.58z M451.78,210.56c0,1.77,0.48,2.5,1.44,2.5c0.96,0,1.44-0.76,1.44-2.49c0-1.77-0.48-2.5-1.44-2.5
		C452.26,208.07,451.78,208.84,451.78,210.56z"/>
	<path fill="#FFFFFF" d="M461.37,205.97v0.61h1.88l-0.26,1.65h-1.62v6.32H459v-6.32h-1.2v-1.65h1.2v-0.7c0-1.53,1-2.72,3.04-2.72
		c0.82,0,1.59,0.21,2.17,0.51l-0.64,1.54c-0.45-0.23-0.9-0.3-1.24-0.3C461.64,204.92,461.37,205.22,461.37,205.97z"/>
	<path fill="#FFFFFF" d="M474.06,207.31l-1.02,1.41c-0.51-0.39-0.97-0.57-1.52-0.57c-1.02,0-1.61,0.69-1.61,2.48
		c0,1.77,0.63,2.31,1.58,2.31c0.57,0,0.96-0.18,1.53-0.54l1.04,1.47c-0.73,0.59-1.59,0.95-2.69,0.95c-2.45,0-3.95-1.65-3.95-4.17
		c0-2.54,1.52-4.3,3.9-4.3C472.44,206.33,473.29,206.66,474.06,207.31z"/>
	<path fill="#FFFFFF" d="M481.96,211.27h-4.92c0.15,1.42,0.82,1.81,1.8,1.81c0.64,0,1.21-0.22,1.9-0.71l0.97,1.32
		c-0.79,0.63-1.81,1.11-3.11,1.11c-2.65,0-4-1.71-4-4.2c0-2.38,1.3-4.28,3.72-4.28c2.28,0,3.67,1.5,3.67,4.08
		C482.01,210.67,481.99,211.03,481.96,211.27z M479.68,209.74c-0.02-1.08-0.35-1.83-1.29-1.83c-0.79,0-1.24,0.5-1.37,1.93h2.66
		V209.74z"/>
	<path fill="#FFFFFF" d="M490.39,208.73v5.82h-2.37v-5.42c0-0.84-0.29-1.06-0.75-1.06c-0.53,0-0.96,0.38-1.38,1.04v5.44h-2.37v-7.96
		h2.07l0.16,0.95c0.68-0.78,1.44-1.2,2.43-1.2C489.57,206.33,490.39,207.22,490.39,208.73z"/>
	<path fill="#FFFFFF" d="M497.32,214.18c-0.6,0.42-1.44,0.63-2.16,0.63c-1.76-0.01-2.61-1-2.61-2.88v-3.69h-1.12v-1.65h1.12v-1.72
		l2.37-0.27v2h1.83l-0.26,1.65h-1.57v3.66c0,0.77,0.26,1.04,0.75,1.04c0.27,0,0.54-0.07,0.86-0.27L497.32,214.18z"/>
	<path fill="#FFFFFF" d="M503.38,206.47l-0.38,2.29c-0.25-0.06-0.45-0.1-0.72-0.1c-0.98,0-1.4,0.72-1.65,1.92v3.97h-2.37v-7.96h2.07
		l0.2,1.53c0.36-1.1,1.14-1.75,2.05-1.75C502.89,206.36,503.13,206.39,503.38,206.47z"/>
	<path fill="#FFFFFF" d="M511,213.22l-0.5,1.54c-0.93-0.08-1.54-0.36-1.92-1.14c-0.57,0.87-1.46,1.19-2.4,1.19
		c-1.59,0-2.6-1.04-2.6-2.49c0-1.74,1.32-2.68,3.73-2.68h0.81v-0.34c0-0.95-0.38-1.23-1.35-1.23c-0.51,0-1.29,0.15-2.09,0.42
		l-0.54-1.56c1-0.38,2.1-0.58,3-0.58c2.31,0,3.3,0.97,3.3,2.82v3.09C510.46,212.86,510.63,213.08,511,213.22z M508.14,212.36v-1.42
		h-0.59c-1.08,0-1.6,0.38-1.6,1.17c0,0.63,0.34,1,0.93,1C507.42,213.11,507.85,212.83,508.14,212.36z"/>
	<path fill="#FFFFFF" d="M512.43,212.53v-9.11l2.37-0.25v9.27c0,0.33,0.12,0.49,0.41,0.49c0.16,0,0.29-0.03,0.39-0.07l0.46,1.68
		c-0.36,0.15-0.87,0.27-1.44,0.27C513.24,214.81,512.43,213.98,512.43,212.53z"/>
	<path fill="#FFFFFF" d="M519.69,203.74c0,0.76-0.58,1.35-1.41,1.35c-0.82,0-1.39-0.58-1.39-1.35s0.57-1.35,1.39-1.35
		C519.1,202.39,519.69,202.97,519.69,203.74z M519.48,214.55h-2.37v-7.96h2.37V214.55z"/>
	<path fill="#FFFFFF" d="M527.1,208.25l-3.6,4.5h3.67l-0.21,1.8h-6.21v-1.68l3.61-4.5h-3.3v-1.79h6.03V208.25z"/>
	<path fill="#FFFFFF" d="M535.42,211.27h-4.92c0.15,1.42,0.82,1.81,1.8,1.81c0.64,0,1.21-0.22,1.9-0.71l0.98,1.32
		c-0.79,0.63-1.82,1.11-3.11,1.11c-2.65,0-4.01-1.71-4.01-4.2c0-2.38,1.31-4.28,3.72-4.28c2.28,0,3.68,1.5,3.68,4.08
		C535.47,210.67,535.45,211.03,535.42,211.27z M533.14,209.74c-0.01-1.08-0.34-1.83-1.29-1.83c-0.79,0-1.25,0.5-1.37,1.93h2.65
		V209.74z"/>
	<path fill="#FFFFFF" d="M544.12,203.42v11.13h-2.1l-0.12-0.93c-0.45,0.66-1.19,1.19-2.27,1.19c-2.03,0-3.03-1.68-3.03-4.26
		c0-2.46,1.24-4.21,3.3-4.21c0.72,0,1.37,0.29,1.85,0.75v-3.92L544.12,203.42z M541.75,212.18v-3.45c-0.36-0.42-0.72-0.68-1.23-0.68
		c-0.85,0-1.46,0.72-1.46,2.51c0,1.98,0.54,2.5,1.32,2.5C540.94,213.07,541.38,212.77,541.75,212.18z"/>
	<path fill="#FFFFFF" d="M559.72,214.55h-3.2l-1.29-7.93l-1.37,7.93h-3.12l-1.71-10.39h2.46l1.04,8.53l1.44-8.53h2.58l1.35,8.53
		l1.21-8.53h2.34L559.72,214.55z"/>
	<path fill="#FFFFFF" d="M569.14,211.27h-4.92c0.15,1.42,0.82,1.81,1.8,1.81c0.64,0,1.21-0.22,1.9-0.71l0.98,1.32
		c-0.79,0.63-1.82,1.11-3.11,1.11c-2.65,0-4.01-1.71-4.01-4.2c0-2.38,1.31-4.28,3.72-4.28c2.28,0,3.68,1.5,3.68,4.08
		C569.19,210.67,569.17,211.03,569.14,211.27z M566.86,209.74c-0.01-1.08-0.34-1.83-1.29-1.83c-0.79,0-1.25,0.5-1.37,1.93h2.65
		V209.74z"/>
	<path fill="#FFFFFF" d="M578.17,210.58c0,2.46-1.19,4.23-3.17,4.23c-0.88,0-1.6-0.38-2.08-1.02l-0.12,0.76h-2.1v-11.13l2.37-0.25
		v4.23c0.46-0.64,1.28-1.06,2.1-1.06C577.13,206.33,578.17,207.91,578.17,210.58z M575.71,210.58c0-2.03-0.54-2.5-1.27-2.5
		c-0.57,0-1.02,0.34-1.37,0.93v3.3c0.3,0.5,0.73,0.78,1.26,0.78C575.14,213.08,575.71,212.44,575.71,210.58z"/>
	<path fill="#FFFFFF" d="M590.38,213.22l-0.49,1.54c-0.93-0.08-1.54-0.36-1.92-1.14c-0.57,0.87-1.46,1.19-2.4,1.19
		c-1.59,0-2.6-1.04-2.6-2.49c0-1.74,1.32-2.68,3.74-2.68h0.81v-0.34c0-0.95-0.38-1.23-1.35-1.23c-0.51,0-1.29,0.15-2.08,0.42
		l-0.54-1.56c1.01-0.38,2.1-0.58,3-0.58c2.31,0,3.3,0.97,3.3,2.82v3.09C589.84,212.86,590,213.08,590.38,213.22z M587.51,212.36
		v-1.42h-0.58c-1.08,0-1.61,0.38-1.61,1.17c0,0.63,0.35,1,0.93,1C586.79,213.11,587.23,212.83,587.51,212.36z"/>
	<path fill="#FFFFFF" d="M599.35,210.55c0,2.46-1.2,4.26-3.17,4.26c-0.78,0-1.44-0.27-1.93-0.84v3.66l-2.37,0.25v-11.29h2.09
		l0.12,0.89c0.66-0.83,1.52-1.14,2.25-1.14C598.43,206.33,599.35,207.97,599.35,210.55z M596.89,210.58c0-1.98-0.48-2.5-1.3-2.5
		c-0.51,0-0.99,0.34-1.33,0.93v3.36c0.33,0.48,0.72,0.71,1.21,0.71C596.35,213.07,596.89,212.36,596.89,210.58z"/>
	<path fill="#FFFFFF" d="M608.45,210.55c0,2.46-1.2,4.26-3.16,4.26c-0.78,0-1.44-0.27-1.94-0.84v3.66l-2.37,0.25v-11.29h2.08
		l0.12,0.89c0.66-0.83,1.51-1.14,2.25-1.14C607.54,206.33,608.45,207.97,608.45,210.55z M605.99,210.58c0-1.98-0.48-2.5-1.3-2.5
		c-0.51,0-0.99,0.34-1.34,0.93v3.36c0.33,0.48,0.72,0.71,1.21,0.71C605.45,213.07,605.99,212.36,605.99,210.58z"/>
</g>
<g>
	<path fill="#FFFFFF" d="M197.45,207.31l-0.87,1.34c-0.62-0.39-1.28-0.62-1.96-0.62c-0.65,0-0.96,0.24-0.96,0.6
		c0,0.42,0.21,0.6,1.63,1.02c1.58,0.45,2.46,1.11,2.46,2.54c0,1.65-1.56,2.62-3.54,2.62c-1.38,0-2.55-0.48-3.33-1.19l1.16-1.29
		c0.6,0.46,1.33,0.78,2.12,0.78c0.72,0,1.15-0.27,1.15-0.75c0-0.54-0.24-0.71-1.68-1.11c-1.58-0.45-2.36-1.26-2.36-2.49
		c0-1.37,1.25-2.43,3.25-2.43C195.68,206.33,196.72,206.71,197.45,207.31z"/>
	<path fill="#FFFFFF" d="M206.02,211.27h-4.92c0.15,1.42,0.82,1.81,1.8,1.81c0.64,0,1.21-0.22,1.9-0.71l0.98,1.32
		c-0.79,0.63-1.82,1.11-3.11,1.11c-2.65,0-4-1.71-4-4.2c0-2.38,1.31-4.28,3.72-4.28c2.28,0,3.67,1.5,3.67,4.08
		C206.06,210.67,206.05,211.03,206.02,211.27z M203.74,209.74c-0.01-1.08-0.34-1.83-1.29-1.83c-0.79,0-1.25,0.5-1.37,1.93h2.66
		V209.74z"/>
	<path fill="#FFFFFF" d="M212.69,206.47l-0.38,2.29c-0.25-0.06-0.45-0.1-0.72-0.1c-0.98,0-1.4,0.72-1.65,1.92v3.97h-2.37v-7.96h2.07
		l0.2,1.53c0.36-1.1,1.14-1.75,2.05-1.75C212.2,206.36,212.44,206.39,212.69,206.47z"/>
	<path fill="#FFFFFF" d="M218.44,214.55h-2.8l-2.56-7.96h2.58l1.41,6.17l1.47-6.17h2.42L218.44,214.55z"/>
	<path fill="#FFFFFF" d="M228.68,211.27h-4.92c0.15,1.42,0.82,1.81,1.8,1.81c0.64,0,1.21-0.22,1.9-0.71l0.98,1.32
		c-0.79,0.63-1.82,1.11-3.11,1.11c-2.65,0-4-1.71-4-4.2c0-2.38,1.3-4.28,3.72-4.28c2.28,0,3.67,1.5,3.67,4.08
		C228.73,210.67,228.71,211.03,228.68,211.27z M226.4,209.74c-0.01-1.08-0.34-1.83-1.29-1.83c-0.79,0-1.25,0.5-1.37,1.93h2.66
		V209.74z"/>
	<path fill="#FFFFFF" d="M235.36,206.47l-0.38,2.29c-0.25-0.06-0.45-0.1-0.72-0.1c-0.98,0-1.4,0.72-1.65,1.92v3.97h-2.37v-7.96h2.07
		l0.2,1.53c0.36-1.1,1.14-1.75,2.05-1.75C234.86,206.36,235.1,206.39,235.36,206.47z"/>
</g>
<g>
	<path fill="#3D2C70" d="M426.34,96.54l-0.72,4.95c-0.01,0.13-0.03,0.24-0.03,0.34c0,0.35,0.12,0.5,0.39,0.6l-0.75,1.71
		c-0.92-0.06-1.71-0.47-1.98-1.32c-0.54,0.79-1.29,1.37-2.36,1.37c-1.75,0-2.64-1.25-2.64-3.21c0-2.31,1.23-5.32,4.68-5.32
		C424.03,95.66,425.24,95.92,426.34,96.54z M420.96,100.98c0,1.05,0.36,1.29,0.79,1.29c0.46,0,0.91-0.36,1.32-1.01l0.54-3.63
		c-0.27-0.09-0.46-0.12-0.76-0.12C421.43,97.52,420.96,99.5,420.96,100.98z"/>
	<path fill="#3D2C70" d="M435.19,98.77c0,2.31-1.05,5.43-4.24,5.43c-0.71,0-1.14-0.11-1.41-0.21l-0.45,3.03l-2.62,0.29l1.59-11.37
		h2.33v0.85c0.81-0.84,1.63-1.12,2.34-1.12C434.37,95.66,435.19,96.79,435.19,98.77z M430.33,98.45l-0.53,3.66
		c0.26,0.11,0.53,0.17,0.88,0.17c1.34,0,1.8-2.01,1.8-3.42c0-1.02-0.36-1.26-0.83-1.26C431.18,97.6,430.73,97.88,430.33,98.45z"/>
	<path fill="#3D2C70" d="M444.14,98.77c0,2.31-1.05,5.43-4.25,5.43c-0.71,0-1.14-0.11-1.41-0.21l-0.45,3.03l-2.62,0.29L437,95.93
		h2.33v0.85c0.81-0.84,1.63-1.12,2.34-1.12C443.32,95.66,444.14,96.79,444.14,98.77z M439.29,98.45l-0.53,3.66
		c0.25,0.11,0.53,0.17,0.88,0.17c1.33,0,1.8-2.01,1.8-3.42c0-1.02-0.36-1.26-0.83-1.26C440.14,97.6,439.69,97.88,439.29,98.45z"/>
	<path fill="#3D2C70" d="M447.7,101.55c-0.06,0.44,0.07,0.54,0.3,0.54c0.1,0,0.22-0.03,0.34-0.06l0.27,1.86
		c-0.43,0.2-1.05,0.3-1.6,0.3c-1.44,0-2.18-0.86-1.95-2.46l1.26-8.95l2.66-0.27L447.7,101.55z"/>
	<path fill="#3D2C70" d="M451.95,103.92h-2.62l1.11-7.99h2.62L451.95,103.92z M453.64,93.16c-0.11,0.79-0.81,1.41-1.68,1.41
		c-0.9,0-1.44-0.66-1.33-1.52c0.12-0.81,0.81-1.42,1.68-1.42C453.22,91.63,453.74,92.29,453.64,93.16z"/>
	<path fill="#3D2C70" d="M460.91,96.73l-1.26,1.52c-0.44-0.41-0.86-0.56-1.35-0.56c-1.5,0-1.86,1.83-1.86,3.1
		c0,1.03,0.46,1.33,1.15,1.33c0.53,0,0.93-0.2,1.5-0.54l0.95,1.68c-0.79,0.58-1.7,0.93-2.8,0.93c-2.25,0-3.53-1.37-3.53-3.48
		c0-2.07,1.26-5.05,4.57-5.05C459.35,95.66,460.25,96.04,460.91,96.73z"/>
	<path fill="#3D2C70" d="M468.82,96.54l-0.72,4.95c-0.02,0.13-0.03,0.24-0.03,0.34c0,0.35,0.12,0.5,0.39,0.6l-0.75,1.71
		c-0.91-0.06-1.71-0.47-1.98-1.32c-0.54,0.79-1.29,1.37-2.35,1.37c-1.76,0-2.64-1.25-2.64-3.21c0-2.31,1.23-5.32,4.68-5.32
		C466.51,95.66,467.72,95.92,468.82,96.54z M463.43,100.98c0,1.05,0.36,1.29,0.79,1.29c0.46,0,0.92-0.36,1.32-1.01l0.54-3.63
		c-0.27-0.09-0.46-0.12-0.77-0.12C463.91,97.52,463.43,99.5,463.43,100.98z"/>
	<path fill="#3D2C70" d="M473.99,101.86l0.68,1.74c-0.69,0.41-1.61,0.6-2.31,0.6c-1.86,0-2.6-1.08-2.32-3.08l0.48-3.36h-1.02
		l0.24-1.83h1.14l0.49-1.74l2.29-0.27l-0.29,2.01h1.79l-0.51,1.83h-1.52l-0.46,3.36c-0.12,0.76,0.08,0.97,0.48,0.97
		C473.42,102.09,473.69,102.02,473.99,101.86z"/>
	<path fill="#3D2C70" d="M477.94,103.92h-2.62l1.11-7.99h2.62L477.94,103.92z M479.63,93.16c-0.11,0.79-0.81,1.41-1.68,1.41
		c-0.9,0-1.44-0.66-1.33-1.52c0.12-0.81,0.81-1.42,1.68-1.42C479.21,91.63,479.74,92.29,479.63,93.16z"/>
	<path fill="#3D2C70" d="M487.69,99.08c-0.01,2.29-1.12,5.12-4.56,5.12c-2.16,0-3.42-1.28-3.42-3.42c0-2.31,1.12-5.11,4.54-5.11
		C486.43,95.66,487.7,96.98,487.69,99.08z M482.39,100.92c0,0.96,0.3,1.33,0.94,1.33c1.43,0,1.65-2.2,1.67-3.33
		c0.01-0.95-0.3-1.33-0.95-1.33C482.63,97.6,482.39,99.8,482.39,100.92z"/>
	<path fill="#3D2C70" d="M496.18,98.09l-0.81,5.83h-2.62l0.73-5.19c0.11-0.72-0.07-0.9-0.36-0.9c-0.48,0-0.99,0.69-1.53,1.81
		l-0.6,4.27h-2.62l1.11-7.99h2.28l-0.02,1.36c0.64-0.99,1.65-1.63,2.7-1.63C495.7,95.66,496.39,96.56,496.18,98.09z"/>
	<path fill="#3D2C70" d="M497.56,98.21h4.86l-0.28,2.04h-4.86L497.56,98.21z"/>
	<path fill="#3D2C70" d="M509.98,96.7l-1.12,1.42c-0.57-0.38-1.26-0.58-1.86-0.58c-0.63,0-0.9,0.21-0.9,0.52
		c0,0.35,0.26,0.45,1.52,0.87c1.3,0.44,2.03,1.17,2.03,2.43c0,1.4-0.96,2.84-3.66,2.84c-1.43,0-2.71-0.56-3.42-1.35l1.29-1.36
		c0.53,0.46,1.23,0.84,2.14,0.84c0.65,0,1.05-0.24,1.05-0.65c0-0.42-0.29-0.55-1.54-0.99c-1.33-0.47-2.01-1.16-2.01-2.37
		c0-1.44,1.24-2.65,3.49-2.65C508.19,95.66,509.24,96.08,509.98,96.7z"/>
	<path fill="#3D2C70" d="M518.65,98.77c0,2.31-1.05,5.43-4.24,5.43c-0.71,0-1.14-0.11-1.41-0.21l-0.45,3.03l-2.62,0.29l1.59-11.37
		h2.32v0.85c0.81-0.84,1.63-1.12,2.34-1.12C517.82,95.66,518.65,96.79,518.65,98.77z M513.79,98.45l-0.53,3.66
		c0.26,0.11,0.53,0.17,0.88,0.17c1.34,0,1.8-2.01,1.8-3.42c0-1.02-0.36-1.26-0.83-1.26C514.64,97.6,514.19,97.88,513.79,98.45z"/>
	<path fill="#3D2C70" d="M522.07,101.04c0.06,0.93,0.6,1.23,1.3,1.23c0.68,0,1.26-0.24,2.01-0.74l0.93,1.56
		c-0.88,0.63-1.98,1.1-3.29,1.1c-2.44,0-3.58-1.38-3.58-3.41c0-2.17,1.19-5.13,4.63-5.13c2.01,0,3.09,0.98,3.09,2.23
		C527.17,100.13,524.48,100.82,522.07,101.04z M524.53,98.06c0-0.38-0.16-0.67-0.72-0.67c-0.96,0-1.43,1.05-1.63,2.1
		C524.08,99.37,524.53,98.52,524.53,98.06z"/>
	<path fill="#3D2C70" d="M534.88,96.73l-1.26,1.52c-0.44-0.41-0.86-0.56-1.35-0.56c-1.5,0-1.86,1.83-1.86,3.1
		c0,1.03,0.46,1.33,1.15,1.33c0.53,0,0.93-0.2,1.5-0.54l0.95,1.68c-0.79,0.58-1.7,0.93-2.8,0.93c-2.25,0-3.53-1.37-3.53-3.48
		c0-2.07,1.26-5.05,4.58-5.05C533.32,95.66,534.22,96.04,534.88,96.73z"/>
	<path fill="#3D2C70" d="M537.41,103.92h-2.62l1.11-7.99h2.62L537.41,103.92z M539.11,93.16c-0.11,0.79-0.81,1.41-1.68,1.41
		c-0.9,0-1.44-0.66-1.34-1.52c0.12-0.81,0.81-1.42,1.68-1.42C538.69,91.63,539.21,92.29,539.11,93.16z"/>
	<path fill="#3D2C70" d="M546.38,103.92h-2.62l0.86-6.16h-1.71l-0.72,5.16c-0.38,2.71-1.96,3.71-3.95,4.37l-0.64-1.91
		c1.15-0.42,1.77-0.96,1.96-2.34l0.72-5.28h-1.11l0.24-1.83h1.12l0.09-0.6c0.21-1.59,1.52-2.82,3.66-2.82
		c1.08,0,1.89,0.19,2.76,0.65l-0.9,1.68c-0.62-0.27-1.11-0.39-1.61-0.39c-0.84,0-1.21,0.3-1.32,1.05l-0.06,0.44h4.33L546.38,103.92z
		"/>
	<path fill="#3D2C70" d="M555.35,96.73l-1.26,1.52c-0.44-0.41-0.86-0.56-1.35-0.56c-1.5,0-1.86,1.83-1.86,3.1
		c0,1.03,0.46,1.33,1.15,1.33c0.53,0,0.93-0.2,1.5-0.54l0.95,1.68c-0.79,0.58-1.7,0.93-2.8,0.93c-2.25,0-3.53-1.37-3.53-3.48
		c0-2.07,1.26-5.05,4.58-5.05C553.79,95.66,554.69,96.04,555.35,96.73z"/>
	<path fill="#3D2C70" d="M561.53,101.55c-0.06,0.44,0.08,0.54,0.3,0.54c0.11,0,0.22-0.03,0.35-0.06l0.27,1.86
		c-0.44,0.2-1.05,0.3-1.61,0.3c-1.44,0-2.17-0.86-1.95-2.46l1.26-8.95l2.65-0.27L561.53,101.55z"/>
	<path fill="#3D2C70" d="M571.07,99.08c-0.02,2.29-1.12,5.12-4.56,5.12c-2.16,0-3.42-1.28-3.42-3.42c0-2.31,1.12-5.11,4.54-5.11
		C569.81,95.66,571.09,96.98,571.07,99.08z M565.78,100.92c0,0.96,0.3,1.33,0.95,1.33c1.42,0,1.65-2.2,1.66-3.33
		c0.02-0.95-0.3-1.33-0.95-1.33C566.02,97.6,565.78,99.8,565.78,100.92z"/>
	<path fill="#3D2C70" d="M579.97,96.54l-0.95,6.64c-0.42,2.88-1.66,4.11-4.38,4.11c-0.99,0-2.18-0.34-3.06-0.92l0.86-1.71
		c0.82,0.45,1.54,0.63,2.19,0.63c0.81,0,1.58-0.24,1.79-1.67l0.12-0.7c-0.51,0.58-1.21,0.99-2.07,0.99c-1.74,0-2.64-1.27-2.64-3.13
		c0-2.16,1.23-5.13,4.74-5.13C577.66,95.66,578.87,95.92,579.97,96.54z M574.52,100.71c0,1,0.4,1.25,0.82,1.25
		c0.49,0,0.96-0.39,1.38-0.98l0.51-3.34c-0.27-0.09-0.47-0.12-0.75-0.12C575,97.52,574.52,99.46,574.52,100.71z"/>
	<path fill="#3D2C70" d="M583.16,103.92h-2.62l1.11-7.99h2.62L583.16,103.92z M584.86,93.16c-0.11,0.79-0.81,1.41-1.68,1.41
		c-0.9,0-1.44-0.66-1.34-1.52c0.12-0.81,0.81-1.42,1.68-1.42C584.44,91.63,584.96,92.29,584.86,93.16z"/>
	<path fill="#3D2C70" d="M592.13,96.73l-1.26,1.52c-0.44-0.41-0.86-0.56-1.35-0.56c-1.5,0-1.86,1.83-1.86,3.1
		c0,1.03,0.46,1.33,1.15,1.33c0.53,0,0.93-0.2,1.5-0.54l0.95,1.68c-0.79,0.58-1.7,0.93-2.8,0.93c-2.25,0-3.53-1.37-3.53-3.48
		c0-2.07,1.26-5.05,4.58-5.05C590.57,95.66,591.47,96.04,592.13,96.73z"/>
</g>
<g>
	<path fill="#3D2C70" d="M195.06,80.2l-1.12,1.42c-0.57-0.38-1.26-0.58-1.86-0.58c-0.63,0-0.9,0.21-0.9,0.52
		c0,0.35,0.25,0.45,1.51,0.87c1.3,0.44,2.03,1.17,2.03,2.43c0,1.4-0.96,2.83-3.66,2.83c-1.42,0-2.71-0.56-3.42-1.35l1.29-1.36
		c0.53,0.46,1.23,0.84,2.14,0.84c0.65,0,1.05-0.24,1.05-0.65c0-0.42-0.29-0.55-1.54-0.99c-1.33-0.47-2.01-1.16-2.01-2.37
		c0-1.44,1.25-2.65,3.5-2.65C193.28,79.16,194.33,79.58,195.06,80.2z"/>
	<path fill="#3D2C70" d="M198.2,84.54c0.06,0.93,0.6,1.23,1.3,1.23c0.68,0,1.26-0.24,2.01-0.73l0.93,1.56
		c-0.88,0.63-1.98,1.1-3.29,1.1c-2.44,0-3.58-1.38-3.58-3.4c0-2.17,1.19-5.13,4.63-5.13c2.01,0,3.09,0.98,3.09,2.23
		C203.3,83.63,200.61,84.32,198.2,84.54z M200.66,81.56c0-0.38-0.17-0.67-0.72-0.67c-0.96,0-1.42,1.05-1.63,2.1
		C200.21,82.87,200.66,82.02,200.66,81.56z"/>
	<path fill="#3D2C70" d="M210.12,79.33l-0.73,2.58c-0.25-0.08-0.45-0.12-0.69-0.12c-0.97,0-1.46,0.94-1.86,2.11l-0.5,3.52h-2.62
		l1.11-7.99h2.28l-0.01,1.46c0.52-1.05,1.42-1.7,2.23-1.7C209.66,79.19,209.88,79.24,210.12,79.33z"/>
	<path fill="#3D2C70" d="M214.95,87.42h-3.13l-1.35-7.99h2.81l0.39,6.01l2.02-6.01h2.75L214.95,87.42z"/>
	<path fill="#3D2C70" d="M220.64,84.54c0.06,0.93,0.6,1.23,1.3,1.23c0.68,0,1.26-0.24,2.01-0.73l0.93,1.56
		c-0.88,0.63-1.98,1.1-3.29,1.1c-2.44,0-3.58-1.38-3.58-3.4c0-2.17,1.19-5.13,4.63-5.13c2.01,0,3.09,0.98,3.09,2.23
		C225.73,83.63,223.05,84.32,220.64,84.54z M223.1,81.56c0-0.38-0.17-0.67-0.72-0.67c-0.96,0-1.42,1.05-1.63,2.1
		C222.65,82.87,223.1,82.02,223.1,81.56z"/>
	<path fill="#3D2C70" d="M232.56,79.33l-0.73,2.58c-0.25-0.08-0.45-0.12-0.69-0.12c-0.97,0-1.46,0.94-1.86,2.11l-0.5,3.52h-2.62
		l1.11-7.99h2.28l-0.01,1.46c0.52-1.05,1.42-1.7,2.23-1.7C232.1,79.19,232.32,79.24,232.56,79.33z"/>
	<path fill="#3D2C70" d="M232.98,81.71h4.86l-0.28,2.04h-4.86L232.98,81.71z"/>
	<path fill="#3D2C70" d="M194.15,98.2l-1.12,1.42c-0.57-0.38-1.26-0.58-1.86-0.58c-0.63,0-0.9,0.21-0.9,0.52
		c0,0.35,0.25,0.45,1.51,0.87c1.3,0.44,2.03,1.17,2.03,2.43c0,1.4-0.96,2.84-3.66,2.84c-1.42,0-2.71-0.56-3.42-1.35l1.29-1.36
		c0.53,0.46,1.23,0.84,2.14,0.84c0.65,0,1.05-0.24,1.05-0.65c0-0.42-0.29-0.55-1.54-0.99c-1.33-0.47-2.01-1.16-2.01-2.37
		c0-1.44,1.25-2.65,3.5-2.65C192.36,97.16,193.41,97.58,194.15,98.2z"/>
	<path fill="#3D2C70" d="M202.82,100.27c0,2.31-1.05,5.43-4.25,5.43c-0.71,0-1.14-0.11-1.41-0.21l-0.45,3.03l-2.62,0.29l1.59-11.37
		H198v0.85c0.81-0.84,1.63-1.12,2.34-1.12C201.99,97.16,202.82,98.29,202.82,100.27z M197.96,99.95l-0.52,3.66
		c0.25,0.11,0.52,0.17,0.88,0.17c1.33,0,1.8-2.01,1.8-3.42c0-1.02-0.36-1.26-0.83-1.26C198.81,99.1,198.36,99.38,197.96,99.95z"/>
	<path fill="#3D2C70" d="M206.24,102.54c0.06,0.93,0.6,1.23,1.3,1.23c0.68,0,1.26-0.24,2.01-0.74l0.93,1.56
		c-0.88,0.63-1.98,1.1-3.29,1.1c-2.45,0-3.58-1.38-3.58-3.41c0-2.17,1.19-5.13,4.63-5.13c2.01,0,3.09,0.98,3.09,2.23
		C211.34,101.63,208.65,102.32,206.24,102.54z M208.7,99.56c0-0.38-0.17-0.67-0.72-0.67c-0.96,0-1.42,1.05-1.63,2.1
		C208.25,100.87,208.7,100.02,208.7,99.56z"/>
	<path fill="#3D2C70" d="M219.05,98.23l-1.26,1.52c-0.44-0.41-0.86-0.56-1.35-0.56c-1.5,0-1.86,1.83-1.86,3.1
		c0,1.03,0.46,1.33,1.15,1.33c0.53,0,0.93-0.2,1.5-0.54l0.95,1.68c-0.79,0.58-1.7,0.93-2.8,0.93c-2.25,0-3.53-1.37-3.53-3.48
		c0-2.07,1.26-5.05,4.58-5.05C217.48,97.16,218.39,97.54,219.05,98.23z"/>
	<path fill="#3D2C70" d="M221.58,105.42h-2.62l1.11-7.99h2.62L221.58,105.42z M223.28,94.66c-0.11,0.79-0.81,1.41-1.68,1.41
		c-0.9,0-1.44-0.66-1.33-1.52c0.12-0.81,0.81-1.42,1.68-1.42C222.85,93.13,223.38,93.79,223.28,94.66z"/>
	<path fill="#3D2C70" d="M230.55,105.42h-2.62l0.85-6.16h-1.71l-0.72,5.16c-0.38,2.71-1.96,3.71-3.94,4.37l-0.65-1.91
		c1.16-0.42,1.77-0.96,1.96-2.34l0.72-5.28h-1.11l0.24-1.83h1.12l0.09-0.6c0.21-1.59,1.51-2.82,3.66-2.82
		c1.08,0,1.89,0.19,2.76,0.65l-0.9,1.68c-0.62-0.27-1.11-0.39-1.61-0.39c-0.84,0-1.21,0.3-1.32,1.05l-0.06,0.44h4.33L230.55,105.42z
		"/>
	<path fill="#3D2C70" d="M239.52,98.23l-1.26,1.52c-0.44-0.41-0.86-0.56-1.35-0.56c-1.5,0-1.86,1.83-1.86,3.1
		c0,1.03,0.46,1.33,1.15,1.33c0.53,0,0.93-0.2,1.5-0.54l0.95,1.68c-0.79,0.58-1.7,0.93-2.8,0.93c-2.25,0-3.53-1.37-3.53-3.48
		c0-2.07,1.26-5.05,4.58-5.05C237.96,97.16,238.86,97.54,239.52,98.23z"/>
	<path fill="#3D2C70" d="M184.82,123.42h-2.62l1.11-8h2.62L184.82,123.42z M186.52,112.66c-0.11,0.79-0.81,1.41-1.68,1.41
		c-0.9,0-1.44-0.66-1.33-1.51c0.12-0.81,0.81-1.43,1.68-1.43C186.1,111.12,186.62,111.79,186.52,112.66z"/>
	<path fill="#3D2C70" d="M194.32,117.59l-0.81,5.83h-2.62l0.74-5.19c0.1-0.72-0.08-0.9-0.36-0.9c-0.48,0-0.99,0.69-1.53,1.82
		l-0.6,4.27h-2.62l1.11-8h2.28l-0.01,1.37c0.64-0.99,1.65-1.63,2.7-1.63C193.84,115.16,194.53,116.06,194.32,117.59z"/>
	<path fill="#3D2C70" d="M199.69,121.36l0.67,1.74c-0.69,0.41-1.61,0.6-2.31,0.6c-1.86,0-2.59-1.08-2.32-3.08l0.48-3.36h-1.02
		l0.24-1.83h1.14l0.5-1.74l2.29-0.27l-0.29,2.01h1.79l-0.51,1.83h-1.51l-0.46,3.36c-0.12,0.76,0.08,0.97,0.48,0.97
		C199.12,121.59,199.39,121.52,199.69,121.36z"/>
	<path fill="#3D2C70" d="M203.57,120.54c0.06,0.93,0.6,1.23,1.3,1.23c0.68,0,1.26-0.24,2.01-0.74l0.93,1.56
		c-0.88,0.63-1.98,1.1-3.29,1.1c-2.45,0-3.58-1.38-3.58-3.41c0-2.17,1.19-5.13,4.63-5.13c2.01,0,3.09,0.97,3.09,2.23
		C208.67,119.63,205.99,120.32,203.57,120.54z M206.03,117.56c0-0.38-0.17-0.68-0.72-0.68c-0.96,0-1.42,1.05-1.63,2.1
		C205.58,118.87,206.03,118.03,206.03,117.56z"/>
	<path fill="#3D2C70" d="M215.5,115.33l-0.73,2.58c-0.25-0.08-0.45-0.12-0.69-0.12c-0.97,0-1.46,0.95-1.86,2.12l-0.5,3.52h-2.62
		l1.11-8h2.28l-0.01,1.46c0.52-1.05,1.42-1.7,2.23-1.7C215.03,115.19,215.26,115.24,215.5,115.33z"/>
	<path fill="#3D2C70" d="M219.31,115l-0.06,0.43h1.85l-0.54,1.83h-1.56l-0.72,5.16c-0.38,2.71-1.96,3.71-3.94,4.37l-0.65-1.91
		c1.16-0.42,1.77-0.96,1.96-2.34l0.72-5.28h-1.11l0.24-1.83h1.12l0.09-0.6c0.21-1.59,1.39-2.82,3.45-2.82c1,0,1.8,0.32,2.33,0.68
		l-0.9,1.57c-0.4-0.24-0.85-0.31-1.18-0.31C219.77,113.95,219.41,114.25,219.31,115z"/>
	<path fill="#3D2C70" d="M228.61,116.04l-0.72,4.95c-0.01,0.13-0.03,0.24-0.03,0.34c0,0.35,0.12,0.5,0.39,0.6l-0.75,1.71
		c-0.92-0.06-1.71-0.47-1.98-1.32c-0.54,0.79-1.29,1.37-2.35,1.37c-1.75,0-2.64-1.25-2.64-3.21c0-2.31,1.23-5.32,4.68-5.32
		C226.3,115.16,227.51,115.42,228.61,116.04z M223.22,120.48c0,1.05,0.36,1.29,0.79,1.29c0.46,0,0.92-0.36,1.32-1.01l0.54-3.63
		c-0.27-0.09-0.46-0.12-0.77-0.12C223.7,117.02,223.22,119,223.22,120.48z"/>
	<path fill="#3D2C70" d="M236.5,116.22l-1.26,1.52c-0.44-0.41-0.86-0.55-1.35-0.55c-1.5,0-1.86,1.83-1.86,3.1
		c0,1.03,0.46,1.33,1.15,1.33c0.53,0,0.93-0.2,1.5-0.54l0.95,1.68c-0.79,0.58-1.7,0.93-2.8,0.93c-2.25,0-3.53-1.37-3.53-3.48
		c0-2.07,1.26-5.05,4.58-5.05C234.94,115.16,235.84,115.54,236.5,116.22z"/>
	<path fill="#3D2C70" d="M238.97,120.54c0.06,0.93,0.6,1.23,1.3,1.23c0.68,0,1.26-0.24,2.01-0.74l0.93,1.56
		c-0.88,0.63-1.98,1.1-3.29,1.1c-2.44,0-3.58-1.38-3.58-3.41c0-2.17,1.19-5.13,4.63-5.13c2.01,0,3.09,0.97,3.09,2.23
		C244.07,119.63,241.39,120.32,238.97,120.54z M241.43,117.56c0-0.38-0.17-0.68-0.72-0.68c-0.96,0-1.42,1.05-1.63,2.1
		C240.98,118.87,241.43,118.03,241.43,117.56z"/>
</g>
<g>
	<g>
		<line fill="none" stroke="#8B80A9" stroke-width="1.5" stroke-miterlimit="10" x1="385" y1="32.01" x2="260.88" y2="32.01"/>
		<g>
			<polygon fill="#8B80A9" points="261.98,28.29 255.5,32.03 261.98,35.77 			"/>
		</g>
	</g>
</g>
<g>
	<g>
		<line fill="none" stroke="#8B80A9" stroke-width="1.5" stroke-miterlimit="10" x1="385" y1="51.88" x2="260.88" y2="51.88"/>
		<g>
			<polygon fill="#8B80A9" points="261.98,48.16 255.5,51.9 261.98,55.64 			"/>
		</g>
	</g>
</g>
<g>
	<g>
		<line fill="none" stroke="#8B80A9" stroke-width="1.5" stroke-miterlimit="10" x1="385" y1="71.75" x2="260.88" y2="71.75"/>
		<g>
			<polygon fill="#8B80A9" points="261.98,68.04 255.5,71.77 261.98,75.51 			"/>
		</g>
	</g>
</g>
<g>
	<g>
		<line fill="none" stroke="#8B80A9" stroke-width="1.5" stroke-miterlimit="10" x1="385" y1="91.63" x2="260.88" y2="91.63"/>
		<g>
			<polygon fill="#8B80A9" points="261.98,87.91 255.5,91.65 261.98,95.39 			"/>
		</g>
	</g>
</g>
<g>
	<g>
		<line fill="none" stroke="#8B80A9" stroke-width="1.5" stroke-miterlimit="10" x1="385" y1="111.5" x2="260.88" y2="111.5"/>
		<g>
			<polygon fill="#8B80A9" points="261.98,107.78 255.5,111.52 261.98,115.26 			"/>
		</g>
	</g>
</g>
<g id="incompatible_server_1_">
	<g>
		<path fill="#8B80A9" d="M0,47c0,11.05,8.95,20,20,20h67.54c11.05,0,20-8.95,20-20V20c0-11.05-8.95-20-20-20H20C8.95,0,0,8.95,0,20
			V47z"/>
	</g>
	<g>
		<path fill="#FFFFFF" d="M12.22,18.32c0,0.76-0.58,1.35-1.41,1.35c-0.82,0-1.39-0.58-1.39-1.35c0-0.77,0.57-1.35,1.39-1.35
			C11.64,16.97,12.22,17.56,12.22,18.32z M12.01,29.14H9.64v-7.96h2.37V29.14z"/>
		<path fill="#FFFFFF" d="M20.74,23.32v5.82h-2.37v-5.41c0-0.84-0.29-1.06-0.75-1.06c-0.52,0-0.96,0.37-1.38,1.03v5.44h-2.37v-7.96
			h2.07l0.17,0.95c0.67-0.78,1.44-1.2,2.43-1.2C19.92,20.92,20.74,21.8,20.74,23.32z"/>
		<path fill="#FFFFFF" d="M28.71,21.89l-1.02,1.41c-0.51-0.39-0.97-0.57-1.51-0.57c-1.02,0-1.61,0.69-1.61,2.48
			c0,1.77,0.63,2.31,1.58,2.31c0.57,0,0.96-0.18,1.53-0.54l1.03,1.47c-0.73,0.58-1.59,0.94-2.68,0.94c-2.45,0-3.95-1.65-3.95-4.17
			c0-2.53,1.52-4.3,3.9-4.3C27.09,20.92,27.94,21.25,28.71,21.89z"/>
		<path fill="#FFFFFF" d="M36.91,25.16c0,2.55-1.47,4.23-3.9,4.23c-2.42,0-3.9-1.56-3.9-4.24c0-2.55,1.47-4.23,3.9-4.23
			S36.91,22.48,36.91,25.16z M31.57,25.15c0,1.77,0.48,2.5,1.44,2.5s1.44-0.77,1.44-2.49c0-1.77-0.48-2.5-1.44-2.5
			S31.57,23.42,31.57,25.15z"/>
		<path fill="#FFFFFF" d="M49.21,23.32v5.82h-2.37v-5.41c0-0.84-0.31-1.06-0.67-1.06c-0.51,0-0.87,0.37-1.21,1.03v5.44h-2.37v-5.41
			c0-0.84-0.31-1.06-0.67-1.06c-0.5,0-0.87,0.37-1.21,1.03v5.44h-2.37v-7.96h2.07l0.17,0.93c0.62-0.78,1.33-1.19,2.31-1.19
			c0.88,0,1.56,0.45,1.88,1.26c0.63-0.82,1.37-1.26,2.38-1.26C48.36,20.92,49.21,21.8,49.21,23.32z"/>
		<path fill="#FFFFFF" d="M58.47,25.13c0,2.46-1.2,4.26-3.17,4.26c-0.78,0-1.44-0.27-1.93-0.84v3.66L51,32.47V21.17h2.08l0.12,0.89
			c0.66-0.83,1.51-1.14,2.25-1.14C57.55,20.92,58.47,22.55,58.47,25.13z M56.01,25.16c0-1.98-0.48-2.5-1.3-2.5
			c-0.51,0-0.99,0.34-1.33,0.93v3.36c0.33,0.48,0.72,0.71,1.21,0.71C55.47,27.65,56.01,26.95,56.01,25.16z"/>
		<path fill="#FFFFFF" d="M66.82,27.8l-0.5,1.54c-0.93-0.08-1.54-0.36-1.92-1.14c-0.57,0.87-1.46,1.19-2.4,1.19
			c-1.59,0-2.6-1.03-2.6-2.49c0-1.74,1.32-2.69,3.74-2.69h0.81v-0.34c0-0.95-0.38-1.23-1.35-1.23c-0.51,0-1.29,0.15-2.08,0.42
			l-0.54-1.56c1-0.38,2.1-0.58,3-0.58c2.31,0,3.3,0.98,3.3,2.82v3.09C66.28,27.44,66.45,27.67,66.82,27.8z M63.96,26.95v-1.42h-0.58
			c-1.08,0-1.6,0.38-1.6,1.17c0,0.63,0.34,1,0.93,1C63.24,27.7,63.67,27.41,63.96,26.95z"/>
		<path fill="#FFFFFF" d="M73.17,28.76c-0.6,0.42-1.44,0.63-2.16,0.63c-1.75-0.01-2.61-1-2.61-2.88v-3.69h-1.12v-1.65h1.12v-1.72
			l2.37-0.27v1.99h1.83l-0.25,1.65h-1.58v3.66c0,0.76,0.26,1.03,0.75,1.03c0.27,0,0.54-0.07,0.86-0.27L73.17,28.76z"/>
		<path fill="#FFFFFF" d="M76.54,18.32c0,0.76-0.58,1.35-1.41,1.35c-0.82,0-1.39-0.58-1.39-1.35c0-0.77,0.57-1.35,1.39-1.35
			C75.96,16.97,76.54,17.56,76.54,18.32z M76.33,29.14h-2.37v-7.96h2.37V29.14z"/>
		<path fill="#FFFFFF" d="M85.66,25.16c0,2.46-1.18,4.23-3.17,4.23c-0.88,0-1.6-0.38-2.08-1.02l-0.12,0.77h-2.1V18.01l2.37-0.26
			v4.23c0.46-0.65,1.28-1.06,2.1-1.06C84.62,20.92,85.66,22.49,85.66,25.16z M83.2,25.16c0-2.03-0.54-2.5-1.27-2.5
			c-0.57,0-1.02,0.34-1.37,0.93v3.3c0.3,0.5,0.74,0.78,1.26,0.78C82.63,27.67,83.2,27.02,83.2,25.16z"/>
		<path fill="#FFFFFF" d="M87.07,27.11v-9.1l2.37-0.26v9.27c0,0.33,0.12,0.49,0.41,0.49c0.17,0,0.29-0.03,0.39-0.07l0.46,1.68
			c-0.36,0.15-0.87,0.27-1.44,0.27C87.88,29.39,87.07,28.57,87.07,27.11z"/>
		<path fill="#FFFFFF" d="M98.35,25.85h-4.92c0.15,1.42,0.82,1.81,1.8,1.81c0.64,0,1.21-0.23,1.9-0.71l0.98,1.32
			c-0.79,0.63-1.82,1.11-3.11,1.11c-2.65,0-4-1.71-4-4.2c0-2.38,1.31-4.27,3.72-4.27c2.28,0,3.67,1.5,3.67,4.08
			C98.4,25.25,98.38,25.61,98.35,25.85z M96.07,24.32c-0.01-1.08-0.34-1.83-1.29-1.83c-0.79,0-1.25,0.49-1.37,1.93h2.66V24.32z"/>
		<path fill="#FFFFFF" d="M38.54,41.89l-0.87,1.33c-0.62-0.39-1.28-0.62-1.96-0.62c-0.65,0-0.96,0.24-0.96,0.6
			c0,0.42,0.21,0.6,1.63,1.02c1.58,0.45,2.46,1.11,2.46,2.53c0,1.65-1.56,2.62-3.54,2.62c-1.38,0-2.55-0.48-3.33-1.19l1.16-1.29
			c0.6,0.46,1.33,0.78,2.12,0.78c0.72,0,1.15-0.27,1.15-0.75c0-0.54-0.24-0.71-1.68-1.11c-1.58-0.45-2.36-1.26-2.36-2.49
			c0-1.37,1.25-2.43,3.25-2.43C36.77,40.92,37.8,41.29,38.54,41.89z"/>
		<path fill="#FFFFFF" d="M46.96,45.85h-4.92c0.15,1.42,0.82,1.81,1.8,1.81c0.64,0,1.21-0.23,1.9-0.71l0.98,1.32
			c-0.79,0.63-1.82,1.11-3.11,1.11c-2.65,0-4-1.71-4-4.2c0-2.38,1.3-4.27,3.72-4.27c2.28,0,3.67,1.5,3.67,4.08
			C47,45.25,46.98,45.61,46.96,45.85z M44.67,44.32c-0.01-1.08-0.34-1.83-1.29-1.83c-0.79,0-1.25,0.49-1.37,1.93h2.66V44.32z"/>
		<path fill="#FFFFFF" d="M53.48,41.05l-0.38,2.29c-0.25-0.06-0.45-0.1-0.72-0.1c-0.98,0-1.4,0.72-1.65,1.92v3.97h-2.37v-7.96h2.07
			l0.2,1.53c0.36-1.1,1.14-1.75,2.05-1.75C52.98,40.95,53.22,40.98,53.48,41.05z"/>
		<path fill="#FFFFFF" d="M59.07,49.14h-2.81l-2.56-7.96h2.58l1.41,6.17l1.47-6.17h2.42L59.07,49.14z"/>
		<path fill="#FFFFFF" d="M69.17,45.85h-4.92c0.15,1.42,0.82,1.81,1.8,1.81c0.64,0,1.21-0.23,1.9-0.71l0.98,1.32
			c-0.79,0.63-1.82,1.11-3.11,1.11c-2.65,0-4-1.71-4-4.2c0-2.38,1.31-4.27,3.72-4.27c2.28,0,3.67,1.5,3.67,4.08
			C69.21,45.25,69.2,45.61,69.17,45.85z M66.89,44.32c-0.01-1.08-0.34-1.83-1.29-1.83c-0.79,0-1.25,0.49-1.37,1.93h2.66V44.32z"/>
		<path fill="#FFFFFF" d="M75.69,41.05l-0.38,2.29c-0.25-0.06-0.45-0.1-0.72-0.1c-0.98,0-1.4,0.72-1.65,1.92v3.97h-2.37v-7.96h2.07
			l0.2,1.53c0.36-1.1,1.14-1.75,2.05-1.75C75.2,40.95,75.44,40.98,75.69,41.05z"/>
	</g>
</g>
<g id="incompatible_server_2_">
	<g>
		<path fill="#8B80A9" d="M31.5,128.5c0,11.05,8.95,20,20,20h67.54c11.05,0,20-8.95,20-20v-27c0-11.05-8.95-20-20-20H51.5
			c-11.05,0-20,8.95-20,20V128.5z"/>
	</g>
	<g>
		<path fill="#FFFFFF" d="M43.72,99.82c0,0.76-0.58,1.35-1.41,1.35c-0.82,0-1.39-0.58-1.39-1.35c0-0.77,0.57-1.35,1.39-1.35
			C43.14,98.47,43.72,99.06,43.72,99.82z M43.51,110.63h-2.37v-7.96h2.37V110.63z"/>
		<path fill="#FFFFFF" d="M52.24,104.82v5.82h-2.37v-5.41c0-0.84-0.29-1.06-0.75-1.06c-0.52,0-0.96,0.37-1.38,1.03v5.44h-2.37v-7.96
			h2.07l0.17,0.95c0.67-0.78,1.44-1.2,2.43-1.2C51.42,102.42,52.24,103.3,52.24,104.82z"/>
		<path fill="#FFFFFF" d="M60.21,103.39l-1.02,1.41c-0.51-0.39-0.97-0.57-1.51-0.57c-1.02,0-1.61,0.69-1.61,2.47
			c0,1.77,0.63,2.31,1.58,2.31c0.57,0,0.96-0.18,1.53-0.54l1.03,1.47c-0.73,0.58-1.59,0.95-2.68,0.95c-2.45,0-3.95-1.65-3.95-4.17
			c0-2.54,1.52-4.3,3.9-4.3C58.59,102.42,59.44,102.75,60.21,103.39z"/>
		<path fill="#FFFFFF" d="M68.41,106.66c0,2.55-1.47,4.23-3.9,4.23c-2.42,0-3.9-1.56-3.9-4.25c0-2.55,1.47-4.23,3.9-4.23
			S68.41,103.98,68.41,106.66z M63.07,106.65c0,1.77,0.48,2.5,1.44,2.5s1.44-0.77,1.44-2.49c0-1.77-0.48-2.5-1.44-2.5
			S63.07,104.92,63.07,106.65z"/>
		<path fill="#FFFFFF" d="M80.71,104.82v5.82h-2.37v-5.41c0-0.84-0.31-1.06-0.67-1.06c-0.51,0-0.87,0.37-1.21,1.03v5.44h-2.37v-5.41
			c0-0.84-0.31-1.06-0.67-1.06c-0.5,0-0.87,0.37-1.21,1.03v5.44h-2.37v-7.96h2.07l0.17,0.93c0.62-0.78,1.33-1.18,2.31-1.18
			c0.88,0,1.56,0.45,1.88,1.26c0.63-0.83,1.37-1.26,2.38-1.26C79.86,102.42,80.71,103.3,80.71,104.82z"/>
		<path fill="#FFFFFF" d="M89.97,106.63c0,2.46-1.2,4.26-3.17,4.26c-0.78,0-1.44-0.27-1.93-0.84v3.66l-2.37,0.25v-11.29h2.08
			l0.12,0.89c0.66-0.83,1.51-1.14,2.25-1.14C89.05,102.42,89.97,104.05,89.97,106.63z M87.51,106.66c0-1.98-0.48-2.5-1.3-2.5
			c-0.51,0-0.99,0.34-1.33,0.93v3.36c0.33,0.48,0.72,0.71,1.21,0.71C86.97,109.15,87.51,108.45,87.51,106.66z"/>
		<path fill="#FFFFFF" d="M98.32,109.3l-0.5,1.54c-0.93-0.08-1.54-0.36-1.92-1.14c-0.57,0.87-1.46,1.19-2.4,1.19
			c-1.59,0-2.6-1.04-2.6-2.49c0-1.74,1.32-2.69,3.74-2.69h0.81v-0.34c0-0.95-0.38-1.23-1.35-1.23c-0.51,0-1.29,0.15-2.08,0.42
			L91.48,103c1-0.38,2.1-0.58,3-0.58c2.31,0,3.3,0.97,3.3,2.82v3.09C97.78,108.94,97.95,109.17,98.32,109.3z M95.46,108.45v-1.42
			h-0.58c-1.08,0-1.6,0.38-1.6,1.17c0,0.63,0.34,1,0.93,1C94.74,109.2,95.17,108.91,95.46,108.45z"/>
		<path fill="#FFFFFF" d="M104.67,110.26c-0.6,0.42-1.44,0.63-2.16,0.63c-1.75-0.02-2.61-1.01-2.61-2.88v-3.69h-1.12v-1.65h1.12
			v-1.72l2.37-0.27v1.99h1.83l-0.25,1.65h-1.58v3.66c0,0.76,0.26,1.04,0.75,1.04c0.27,0,0.54-0.08,0.86-0.27L104.67,110.26z"/>
		<path fill="#FFFFFF" d="M108.04,99.82c0,0.76-0.58,1.35-1.41,1.35c-0.82,0-1.39-0.58-1.39-1.35c0-0.77,0.57-1.35,1.39-1.35
			C107.46,98.47,108.04,99.06,108.04,99.82z M107.83,110.63h-2.37v-7.96h2.37V110.63z"/>
		<path fill="#FFFFFF" d="M117.16,106.66c0,2.46-1.18,4.23-3.17,4.23c-0.88,0-1.6-0.38-2.08-1.02l-0.12,0.76h-2.1V99.51l2.37-0.26
			v4.23c0.46-0.64,1.28-1.06,2.1-1.06C116.12,102.42,117.16,103.99,117.16,106.66z M114.7,106.66c0-2.03-0.54-2.5-1.27-2.5
			c-0.57,0-1.02,0.34-1.37,0.93v3.3c0.3,0.5,0.74,0.78,1.26,0.78C114.13,109.17,114.7,108.52,114.7,106.66z"/>
		<path fill="#FFFFFF" d="M118.57,108.61v-9.1l2.37-0.26v9.27c0,0.33,0.12,0.5,0.41,0.5c0.17,0,0.29-0.03,0.39-0.08l0.46,1.68
			c-0.36,0.15-0.87,0.27-1.44,0.27C119.38,110.89,118.57,110.07,118.57,108.61z"/>
		<path fill="#FFFFFF" d="M129.85,107.35h-4.92c0.15,1.42,0.82,1.82,1.8,1.82c0.64,0,1.21-0.23,1.9-0.71l0.98,1.32
			c-0.79,0.63-1.82,1.11-3.11,1.11c-2.65,0-4-1.71-4-4.2c0-2.38,1.31-4.27,3.72-4.27c2.28,0,3.67,1.5,3.67,4.08
			C129.9,106.75,129.88,107.11,129.85,107.35z M127.57,105.82c-0.01-1.08-0.34-1.83-1.29-1.83c-0.79,0-1.25,0.5-1.37,1.94h2.66
			V105.82z"/>
		<path fill="#FFFFFF" d="M70.04,123.39l-0.87,1.33c-0.62-0.39-1.28-0.62-1.96-0.62c-0.65,0-0.96,0.24-0.96,0.6
			c0,0.42,0.21,0.6,1.63,1.02c1.58,0.45,2.46,1.11,2.46,2.54c0,1.65-1.56,2.62-3.54,2.62c-1.38,0-2.55-0.48-3.33-1.19l1.16-1.29
			c0.6,0.46,1.33,0.78,2.12,0.78c0.72,0,1.15-0.27,1.15-0.75c0-0.54-0.24-0.71-1.68-1.11c-1.58-0.45-2.36-1.26-2.36-2.49
			c0-1.37,1.25-2.43,3.25-2.43C68.27,122.42,69.3,122.79,70.04,123.39z"/>
		<path fill="#FFFFFF" d="M78.46,127.35h-4.92c0.15,1.42,0.82,1.82,1.8,1.82c0.64,0,1.21-0.23,1.9-0.71l0.98,1.32
			c-0.79,0.63-1.82,1.11-3.11,1.11c-2.65,0-4-1.71-4-4.2c0-2.38,1.3-4.27,3.72-4.27c2.28,0,3.67,1.5,3.67,4.08
			C78.5,126.75,78.48,127.11,78.46,127.35z M76.17,125.82c-0.01-1.08-0.34-1.83-1.29-1.83c-0.79,0-1.25,0.5-1.37,1.94h2.66V125.82z"
			/>
		<path fill="#FFFFFF" d="M84.98,122.55l-0.38,2.29c-0.25-0.06-0.45-0.11-0.72-0.11c-0.98,0-1.4,0.72-1.65,1.92v3.97h-2.37v-7.96
			h2.07l0.2,1.53c0.36-1.1,1.14-1.76,2.05-1.76C84.48,122.45,84.72,122.48,84.98,122.55z"/>
		<path fill="#FFFFFF" d="M90.57,130.63h-2.81l-2.56-7.96h2.58l1.41,6.17l1.47-6.17h2.42L90.57,130.63z"/>
		<path fill="#FFFFFF" d="M100.67,127.35h-4.92c0.15,1.42,0.82,1.82,1.8,1.82c0.64,0,1.21-0.23,1.9-0.71l0.98,1.32
			c-0.79,0.63-1.82,1.11-3.11,1.11c-2.65,0-4-1.71-4-4.2c0-2.38,1.31-4.27,3.72-4.27c2.28,0,3.67,1.5,3.67,4.08
			C100.71,126.75,100.7,127.11,100.67,127.35z M98.39,125.82c-0.01-1.08-0.34-1.83-1.29-1.83c-0.79,0-1.25,0.5-1.37,1.94h2.66
			V125.82z"/>
		<path fill="#FFFFFF" d="M107.19,122.55l-0.38,2.29c-0.25-0.06-0.45-0.11-0.72-0.11c-0.98,0-1.4,0.72-1.65,1.92v3.97h-2.37v-7.96
			h2.07l0.2,1.53c0.36-1.1,1.14-1.76,2.05-1.76C106.7,122.45,106.94,122.48,107.19,122.55z"/>
	</g>
</g>
<g id="incompatible_server">
	<g>
		<path fill="#8B80A9" d="M0,210c0,11.05,8.95,20,20,20h67.54c11.05,0,20-8.95,20-20v-27c0-11.05-8.95-20-20-20H20
			c-11.05,0-20,8.95-20,20V210z"/>
	</g>
	<g>
		<path fill="#FFFFFF" d="M12.22,181.32c0,0.77-0.58,1.35-1.41,1.35c-0.82,0-1.39-0.58-1.39-1.35c0-0.76,0.57-1.35,1.39-1.35
			C11.64,179.97,12.22,180.56,12.22,181.32z M12.01,192.13H9.64v-7.96h2.37V192.13z"/>
		<path fill="#FFFFFF" d="M20.74,186.32v5.82h-2.37v-5.41c0-0.84-0.29-1.06-0.75-1.06c-0.52,0-0.96,0.37-1.38,1.03v5.44h-2.37v-7.96
			h2.07l0.17,0.95c0.67-0.78,1.44-1.2,2.43-1.2C19.92,183.92,20.74,184.8,20.74,186.32z"/>
		<path fill="#FFFFFF" d="M28.71,184.89l-1.02,1.41c-0.51-0.39-0.97-0.57-1.51-0.57c-1.02,0-1.61,0.69-1.61,2.47
			c0,1.77,0.63,2.31,1.58,2.31c0.57,0,0.96-0.18,1.53-0.54l1.03,1.47c-0.73,0.58-1.59,0.95-2.68,0.95c-2.45,0-3.95-1.65-3.95-4.17
			c0-2.54,1.52-4.3,3.9-4.3C27.09,183.92,27.94,184.25,28.71,184.89z"/>
		<path fill="#FFFFFF" d="M36.91,188.16c0,2.55-1.47,4.23-3.9,4.23c-2.42,0-3.9-1.56-3.9-4.25c0-2.55,1.47-4.23,3.9-4.23
			S36.91,185.48,36.91,188.16z M31.57,188.15c0,1.77,0.48,2.5,1.44,2.5s1.44-0.77,1.44-2.49c0-1.77-0.48-2.5-1.44-2.5
			S31.57,186.42,31.57,188.15z"/>
		<path fill="#FFFFFF" d="M49.21,186.32v5.82h-2.37v-5.41c0-0.84-0.31-1.06-0.67-1.06c-0.51,0-0.87,0.37-1.21,1.03v5.44h-2.37v-5.41
			c0-0.84-0.31-1.06-0.67-1.06c-0.5,0-0.87,0.37-1.21,1.03v5.44h-2.37v-7.96h2.07l0.17,0.93c0.62-0.78,1.33-1.18,2.31-1.18
			c0.88,0,1.56,0.45,1.88,1.26c0.63-0.83,1.37-1.26,2.38-1.26C48.36,183.92,49.21,184.8,49.21,186.32z"/>
		<path fill="#FFFFFF" d="M58.47,188.13c0,2.46-1.2,4.26-3.17,4.26c-0.78,0-1.44-0.27-1.93-0.84v3.66L51,195.46v-11.29h2.08
			l0.12,0.89c0.66-0.83,1.51-1.14,2.25-1.14C57.55,183.92,58.47,185.55,58.47,188.13z M56.01,188.16c0-1.98-0.48-2.5-1.3-2.5
			c-0.51,0-0.99,0.34-1.33,0.93v3.36c0.33,0.48,0.72,0.71,1.21,0.71C55.47,190.65,56.01,189.95,56.01,188.16z"/>
		<path fill="#FFFFFF" d="M66.82,190.8l-0.5,1.54c-0.93-0.08-1.54-0.36-1.92-1.14c-0.57,0.87-1.46,1.19-2.4,1.19
			c-1.59,0-2.6-1.04-2.6-2.49c0-1.74,1.32-2.69,3.74-2.69h0.81v-0.34c0-0.95-0.38-1.23-1.35-1.23c-0.51,0-1.29,0.15-2.08,0.42
			l-0.54-1.56c1-0.38,2.1-0.58,3-0.58c2.31,0,3.3,0.97,3.3,2.82v3.09C66.28,190.44,66.45,190.67,66.82,190.8z M63.96,189.95v-1.42
			h-0.58c-1.08,0-1.6,0.38-1.6,1.17c0,0.63,0.34,1,0.93,1C63.24,190.7,63.67,190.41,63.96,189.95z"/>
		<path fill="#FFFFFF" d="M73.17,191.76c-0.6,0.42-1.44,0.63-2.16,0.63c-1.75-0.02-2.61-1.01-2.61-2.88v-3.69h-1.12v-1.65h1.12
			v-1.72l2.37-0.27v1.99h1.83l-0.25,1.65h-1.58v3.66c0,0.76,0.26,1.04,0.75,1.04c0.27,0,0.54-0.08,0.86-0.27L73.17,191.76z"/>
		<path fill="#FFFFFF" d="M76.54,181.32c0,0.77-0.58,1.35-1.41,1.35c-0.82,0-1.39-0.58-1.39-1.35c0-0.76,0.57-1.35,1.39-1.35
			C75.96,179.97,76.54,180.56,76.54,181.32z M76.33,192.13h-2.37v-7.96h2.37V192.13z"/>
		<path fill="#FFFFFF" d="M85.66,188.16c0,2.46-1.18,4.23-3.17,4.23c-0.88,0-1.6-0.38-2.08-1.02l-0.12,0.76h-2.1v-11.13l2.37-0.26
			v4.23c0.46-0.64,1.28-1.06,2.1-1.06C84.62,183.92,85.66,185.49,85.66,188.16z M83.2,188.16c0-2.03-0.54-2.5-1.27-2.5
			c-0.57,0-1.02,0.34-1.37,0.93v3.3c0.3,0.5,0.74,0.78,1.26,0.78C82.63,190.67,83.2,190.02,83.2,188.16z"/>
		<path fill="#FFFFFF" d="M87.07,190.11v-9.1l2.37-0.26v9.27c0,0.33,0.12,0.5,0.41,0.5c0.17,0,0.29-0.03,0.39-0.08l0.46,1.68
			c-0.36,0.15-0.87,0.27-1.44,0.27C87.88,192.39,87.07,191.57,87.07,190.11z"/>
		<path fill="#FFFFFF" d="M98.35,188.85h-4.92c0.15,1.42,0.82,1.82,1.8,1.82c0.64,0,1.21-0.23,1.9-0.71l0.98,1.32
			c-0.79,0.63-1.82,1.11-3.11,1.11c-2.65,0-4-1.71-4-4.2c0-2.38,1.31-4.27,3.72-4.27c2.28,0,3.67,1.5,3.67,4.08
			C98.4,188.25,98.38,188.61,98.35,188.85z M96.07,187.32c-0.01-1.08-0.34-1.83-1.29-1.83c-0.79,0-1.25,0.5-1.37,1.94h2.66V187.32z"
			/>
		<path fill="#FFFFFF" d="M38.54,204.89l-0.87,1.33c-0.62-0.39-1.28-0.62-1.96-0.62c-0.65,0-0.96,0.24-0.96,0.6
			c0,0.42,0.21,0.6,1.63,1.02c1.58,0.45,2.46,1.11,2.46,2.54c0,1.65-1.56,2.62-3.54,2.62c-1.38,0-2.55-0.48-3.33-1.19l1.16-1.29
			c0.6,0.46,1.33,0.78,2.12,0.78c0.72,0,1.15-0.27,1.15-0.75c0-0.54-0.24-0.71-1.68-1.11c-1.58-0.45-2.36-1.26-2.36-2.49
			c0-1.37,1.25-2.43,3.25-2.43C36.77,203.92,37.8,204.29,38.54,204.89z"/>
		<path fill="#FFFFFF" d="M46.96,208.85h-4.92c0.15,1.42,0.82,1.82,1.8,1.82c0.64,0,1.21-0.23,1.9-0.71l0.98,1.32
			c-0.79,0.63-1.82,1.11-3.11,1.11c-2.65,0-4-1.71-4-4.2c0-2.38,1.3-4.27,3.72-4.27c2.28,0,3.67,1.5,3.67,4.08
			C47,208.25,46.98,208.61,46.96,208.85z M44.67,207.32c-0.01-1.08-0.34-1.83-1.29-1.83c-0.79,0-1.25,0.5-1.37,1.94h2.66V207.32z"/>
		<path fill="#FFFFFF" d="M53.48,204.05l-0.38,2.29c-0.25-0.06-0.45-0.11-0.72-0.11c-0.98,0-1.4,0.72-1.65,1.92v3.97h-2.37v-7.96
			h2.07l0.2,1.53c0.36-1.1,1.14-1.76,2.05-1.76C52.98,203.95,53.22,203.98,53.48,204.05z"/>
		<path fill="#FFFFFF" d="M59.07,212.13h-2.81l-2.56-7.96h2.58l1.41,6.17l1.47-6.17h2.42L59.07,212.13z"/>
		<path fill="#FFFFFF" d="M69.17,208.85h-4.92c0.15,1.42,0.82,1.82,1.8,1.82c0.64,0,1.21-0.23,1.9-0.71l0.98,1.32
			c-0.79,0.63-1.82,1.11-3.11,1.11c-2.65,0-4-1.71-4-4.2c0-2.38,1.31-4.27,3.72-4.27c2.28,0,3.67,1.5,3.67,4.08
			C69.21,208.25,69.2,208.61,69.17,208.85z M66.89,207.32c-0.01-1.08-0.34-1.83-1.29-1.83c-0.79,0-1.25,0.5-1.37,1.94h2.66V207.32z"
			/>
		<path fill="#FFFFFF" d="M75.69,204.05l-0.38,2.29c-0.25-0.06-0.45-0.11-0.72-0.11c-0.98,0-1.4,0.72-1.65,1.92v3.97h-2.37v-7.96
			h2.07l0.2,1.53c0.36-1.1,1.14-1.76,2.05-1.76C75.2,203.95,75.44,203.98,75.69,204.05z"/>
	</g>
</g>
<g>
	<path fill="#8B80A9" d="M290.29,142.09l-0.81,5.7h-1.89l0.76-5.38c0.12-0.95-0.17-1.2-0.62-1.2c-0.81,0-1.54,0.92-2.13,2.04
		l-0.63,4.54h-1.89l1.56-11.1l1.91-0.2l-0.67,4.76c0.62-0.96,1.51-1.62,2.56-1.62C289.78,139.63,290.5,140.56,290.29,142.09z"/>
	<path fill="#8B80A9" d="M298.76,140.39l-0.79,5.32c-0.01,0.14-0.03,0.24-0.03,0.33c0,0.41,0.16,0.56,0.45,0.67l-0.54,1.26
		c-0.84-0.09-1.46-0.46-1.63-1.32c-0.58,0.79-1.37,1.35-2.35,1.35c-1.7,0-2.57-1.23-2.57-3.1c0-2.24,1.17-5.28,4.41-5.28
		C296.71,139.63,297.7,139.84,298.76,140.39z M293.27,144.91c0,1.2,0.43,1.65,1.12,1.65c0.69,0,1.23-0.51,1.77-1.26l0.6-4.05
		c-0.38-0.15-0.64-0.21-1.09-0.21C293.92,141.04,293.27,143.26,293.27,144.91z"/>
	<path fill="#8B80A9" d="M305.27,139.76l-0.55,1.85c-0.24-0.06-0.41-0.09-0.66-0.09c-1,0-1.61,0.95-2.1,2.35l-0.56,3.92h-1.89
		l1.11-7.93h1.63l-0.06,1.54c0.57-1.16,1.42-1.75,2.28-1.75C304.78,139.64,305.02,139.69,305.27,139.76z"/>
	<path fill="#8B80A9" d="M312.94,136.69l-1.56,11.1h-1.67l0.01-1.21c-0.54,0.83-1.32,1.44-2.38,1.44c-1.67,0-2.5-1.23-2.5-3.18
		c0-2.12,1-5.21,3.79-5.21c0.83,0,1.46,0.36,1.88,0.87l0.57-4.01L312.94,136.69z M306.82,144.89c0,1.21,0.43,1.67,1.08,1.67
		c0.81,0,1.41-0.69,2-1.62l0.44-3.12c-0.35-0.48-0.74-0.75-1.33-0.75C307.3,141.07,306.82,143.45,306.82,144.89z"/>
	<path fill="#8B80A9" d="M313.64,142.33h4.48l-0.22,1.53h-4.49L313.64,142.33z"/>
	<path fill="#8B80A9" d="M325.54,140.57l-0.96,1.14c-0.46-0.42-0.9-0.57-1.46-0.57c-1.8,0-2.28,2.14-2.28,3.63
		c0,1.23,0.54,1.68,1.41,1.68c0.62,0,1.08-0.21,1.7-0.58l0.72,1.28c-0.79,0.55-1.65,0.87-2.62,0.87c-2.02,0-3.19-1.27-3.19-3.34
		c0-2.07,1.17-5.04,4.26-5.04C324.05,139.63,324.88,139.93,325.54,140.57z"/>
	<path fill="#8B80A9" d="M332.87,142.96c0,2.07-1.04,5.05-4.27,5.05c-2.06,0-3.2-1.27-3.2-3.34c0-2.1,1.05-5.04,4.27-5.04
		C331.73,139.63,332.87,140.92,332.87,142.96z M327.35,144.82c0,1.2,0.46,1.74,1.35,1.74c1.79,0,2.21-2.4,2.21-3.75
		c0.02-1.2-0.45-1.72-1.33-1.72C327.79,141.08,327.35,143.47,327.35,144.82z"/>
	<path fill="#8B80A9" d="M341.81,136.69l-1.56,11.1h-1.67l0.02-1.21c-0.54,0.83-1.32,1.44-2.38,1.44c-1.67,0-2.51-1.23-2.51-3.18
		c0-2.12,1.01-5.21,3.79-5.21c0.83,0,1.46,0.36,1.88,0.87l0.57-4.01L341.81,136.69z M335.69,144.89c0,1.21,0.44,1.67,1.08,1.67
		c0.81,0,1.41-0.69,1.99-1.62l0.44-3.12c-0.35-0.48-0.73-0.75-1.33-0.75C336.17,141.07,335.69,143.45,335.69,144.89z"/>
	<path fill="#8B80A9" d="M344.09,144.86c0.03,1.25,0.66,1.67,1.53,1.67c0.72,0,1.35-0.23,2.07-0.74l0.73,1.2
		c-0.87,0.62-1.86,1.02-3.01,1.02c-2.16,0-3.27-1.29-3.27-3.3c0-2.16,1.12-5.08,4.32-5.08c1.82,0,2.75,0.98,2.75,2.1
		C349.21,143.96,346.7,144.61,344.09,144.86z M347.26,141.82c0-0.36-0.19-0.83-0.93-0.83c-1.35,0-1.95,1.33-2.16,2.62
		C346.3,143.41,347.26,142.81,347.26,141.82z"/>
	<path fill="#8B80A9" d="M357.86,136.69l-1.56,11.1h-1.66l0.01-1.21c-0.54,0.83-1.32,1.44-2.38,1.44c-1.66,0-2.5-1.23-2.5-3.18
		c0-2.12,1-5.21,3.79-5.21c0.82,0,1.46,0.36,1.88,0.87l0.57-4.01L357.86,136.69z M351.74,144.89c0,1.21,0.43,1.67,1.08,1.67
		c0.81,0,1.41-0.69,2-1.62l0.44-3.12c-0.35-0.48-0.74-0.75-1.34-0.75C352.22,141.07,351.74,143.45,351.74,144.89z"/>
	<path fill="#8B80A9" d="M288.48,158.63l-0.87,1.06c-0.58-0.42-1.25-0.64-1.91-0.64c-0.83,0-1.29,0.31-1.29,0.84
		c0,0.51,0.41,0.69,1.56,1.06c1.41,0.45,2.15,1.14,2.15,2.38c0,1.61-1.35,2.67-3.45,2.67c-1.39,0-2.47-0.55-3.12-1.23l0.99-1.05
		c0.55,0.5,1.28,0.84,2.17,0.84c1.08,0,1.49-0.54,1.49-1.02c0-0.63-0.36-0.84-1.62-1.26c-1.44-0.46-2.07-1.11-2.07-2.25
		c0-1.21,1.07-2.42,3.2-2.42C286.85,157.63,287.78,158.02,288.48,158.63z"/>
	<path fill="#8B80A9" d="M290.86,162.86c0.03,1.25,0.66,1.67,1.53,1.67c0.72,0,1.35-0.23,2.07-0.74l0.73,1.2
		c-0.87,0.62-1.86,1.02-3.01,1.02c-2.16,0-3.27-1.29-3.27-3.3c0-2.16,1.12-5.08,4.32-5.08c1.82,0,2.75,0.98,2.75,2.1
		C295.98,161.96,293.48,162.61,290.86,162.86z M294.03,159.82c0-0.36-0.19-0.83-0.93-0.83c-1.35,0-1.95,1.33-2.16,2.62
		C293.07,161.41,294.03,160.81,294.03,159.82z"/>
	<path fill="#8B80A9" d="M303.95,158.39l-1.47,10.48l-1.92,0.21l0.57-4.11c-0.38,0.49-1.17,1.03-2.12,1.03
		c-1.68,0-2.55-1.23-2.55-3.1c0-2.28,1.19-5.28,4.42-5.28C301.89,157.63,302.88,157.84,303.95,158.39z M298.44,162.91
		c0,1.2,0.45,1.65,1.14,1.65c0.71,0,1.23-0.51,1.77-1.26l0.6-4.05c-0.38-0.15-0.65-0.21-1.09-0.21
		C299.1,159.04,298.44,161.26,298.44,162.91z"/>
	<path fill="#8B80A9" d="M311,165.79h-1.63l0.07-1.3c-0.7,0.93-1.51,1.53-2.56,1.53c-1.46,0-2.1-0.96-1.89-2.5l0.79-5.65h1.89
		l-0.75,5.43c-0.13,0.93,0.11,1.21,0.65,1.21c0.76,0,1.41-0.76,1.93-1.56l0.72-5.08h1.89L311,165.79z"/>
	<path fill="#8B80A9" d="M314.83,162.86c0.03,1.25,0.66,1.67,1.53,1.67c0.72,0,1.35-0.23,2.07-0.74l0.73,1.2
		c-0.87,0.62-1.86,1.02-3.01,1.02c-2.16,0-3.27-1.29-3.27-3.3c0-2.16,1.12-5.08,4.32-5.08c1.82,0,2.75,0.98,2.75,2.1
		C319.95,161.96,317.44,162.61,314.83,162.86z M318,159.82c0-0.36-0.19-0.83-0.93-0.83c-1.35,0-1.95,1.33-2.16,2.62
		C317.04,161.41,318,160.81,318,159.82z"/>
	<path fill="#8B80A9" d="M327.64,160.12l-0.79,5.67h-1.89l0.77-5.38c0.13-0.95-0.18-1.2-0.64-1.2c-0.78,0-1.5,0.92-2.1,2.04
		l-0.63,4.54h-1.89l1.11-7.93h1.63l-0.08,1.47c0.71-1.02,1.62-1.7,2.73-1.7C327.15,157.63,327.87,158.56,327.64,160.12z"/>
	<path fill="#8B80A9" d="M335.36,158.57l-0.96,1.14c-0.46-0.42-0.9-0.57-1.46-0.57c-1.8,0-2.28,2.14-2.28,3.63
		c0,1.23,0.54,1.68,1.41,1.68c0.62,0,1.08-0.21,1.7-0.58l0.72,1.28c-0.79,0.55-1.65,0.87-2.62,0.87c-2.02,0-3.19-1.27-3.19-3.34
		c0-2.07,1.17-5.04,4.26-5.04C333.87,157.63,334.7,157.93,335.36,158.57z"/>
	<path fill="#8B80A9" d="M337.15,162.86c0.03,1.25,0.66,1.67,1.53,1.67c0.72,0,1.35-0.23,2.07-0.74l0.73,1.2
		c-0.87,0.62-1.86,1.02-3.02,1.02c-2.16,0-3.27-1.29-3.27-3.3c0-2.16,1.12-5.08,4.32-5.08c1.81,0,2.74,0.98,2.74,2.1
		C342.27,161.96,339.77,162.61,337.15,162.86z M340.32,159.82c0-0.36-0.2-0.83-0.93-0.83c-1.35,0-1.95,1.33-2.16,2.62
		C339.36,161.41,340.32,160.81,340.32,159.82z"/>
	<path fill="#8B80A9" d="M353.5,160.96c0,2.07-1.04,5.05-4.27,5.05c-2.06,0-3.2-1.27-3.2-3.34c0-2.1,1.05-5.04,4.27-5.04
		C352.37,157.63,353.5,158.92,353.5,160.96z M347.98,162.82c0,1.2,0.46,1.74,1.35,1.74c1.79,0,2.21-2.4,2.21-3.75
		c0.02-1.2-0.45-1.73-1.33-1.73C348.42,159.08,347.98,161.47,347.98,162.82z"/>
	<path fill="#8B80A9" d="M357.63,157.06l-0.12,0.79h1.88l-0.39,1.38h-1.68l-0.83,5.88c-0.34,2.43-1.51,3.22-3.36,3.94l-0.51-1.41
		c1.12-0.45,1.76-0.92,1.98-2.49l0.82-5.92h-1.28l0.2-1.38h1.28l0.13-0.92c0.2-1.44,1.23-2.47,3-2.47c0.87,0,1.5,0.25,2.05,0.61
		l-0.67,1.2c-0.45-0.29-0.9-0.36-1.25-0.36C358.11,155.92,357.73,156.29,357.63,157.06z"/>
	<path fill="#8B80A9" d="M291.33,183.79h-1.89l1.11-7.93h1.89L291.33,183.79z M293.08,173.06c-0.09,0.63-0.61,1.09-1.3,1.09
		c-0.72,0-1.16-0.54-1.06-1.21c0.09-0.64,0.61-1.11,1.3-1.11C292.75,171.83,293.18,172.37,293.08,173.06z"/>
	<path fill="#8B80A9" d="M300.42,178.12l-0.79,5.67h-1.89l0.76-5.38c0.13-0.95-0.18-1.2-0.64-1.2c-0.78,0-1.5,0.92-2.1,2.04
		l-0.63,4.54h-1.89l1.11-7.93h1.63l-0.08,1.47c0.71-1.02,1.62-1.7,2.73-1.7C299.92,175.63,300.65,176.56,300.42,178.12z"/>
	<path fill="#8B80A9" d="M303.82,181.4c-0.12,0.78,0.08,1.05,0.62,1.05c0.31,0,0.63-0.09,1-0.3l0.54,1.29
		c-0.63,0.39-1.35,0.57-2.01,0.57c-1.57-0.01-2.28-0.94-2.04-2.62l0.58-4.15h-1.23l0.2-1.38h1.3l0.5-1.8l1.59-0.18l-0.29,1.98h1.83
		l-0.39,1.38h-1.62L303.82,181.4z"/>
	<path fill="#8B80A9" d="M308.37,180.86c0.03,1.25,0.66,1.67,1.53,1.67c0.72,0,1.35-0.23,2.07-0.74l0.73,1.2
		c-0.87,0.62-1.86,1.02-3.01,1.02c-2.16,0-3.27-1.29-3.27-3.3c0-2.16,1.12-5.08,4.32-5.08c1.82,0,2.75,0.98,2.75,2.1
		C313.48,179.96,310.98,180.61,308.37,180.86z M311.53,177.82c0-0.36-0.19-0.83-0.93-0.83c-1.35,0-1.95,1.33-2.16,2.62
		C310.57,179.41,311.53,178.81,311.53,177.82z"/>
	<path fill="#8B80A9" d="M319.75,175.76l-0.55,1.84c-0.24-0.06-0.41-0.09-0.66-0.09c-1,0-1.61,0.94-2.1,2.35l-0.56,3.92h-1.89
		l1.11-7.93h1.63l-0.06,1.54c0.57-1.16,1.42-1.75,2.28-1.75C319.26,175.64,319.5,175.69,319.75,175.76z"/>
	<path fill="#8B80A9" d="M322.75,175.06l-0.12,0.79h1.88l-0.39,1.38h-1.68l-0.83,5.88c-0.34,2.43-1.51,3.22-3.36,3.94l-0.51-1.41
		c1.12-0.45,1.75-0.92,1.98-2.49l0.83-5.92h-1.28l0.2-1.38h1.28l0.13-0.92c0.19-1.44,1.23-2.47,3-2.47c0.87,0,1.5,0.25,2.05,0.61
		l-0.67,1.2c-0.45-0.29-0.9-0.36-1.25-0.36C323.23,173.92,322.86,174.29,322.75,175.06z"/>
	<path fill="#8B80A9" d="M331.42,176.39l-0.79,5.32c-0.01,0.14-0.03,0.24-0.03,0.33c0,0.41,0.16,0.56,0.45,0.67l-0.54,1.26
		c-0.84-0.09-1.46-0.46-1.63-1.32c-0.59,0.79-1.37,1.35-2.36,1.35c-1.7,0-2.56-1.23-2.56-3.1c0-2.24,1.17-5.28,4.41-5.28
		C329.37,175.63,330.36,175.84,331.42,176.39z M325.94,180.91c0,1.2,0.43,1.65,1.12,1.65c0.69,0,1.23-0.51,1.77-1.26l0.6-4.05
		c-0.38-0.15-0.64-0.21-1.1-0.21C326.58,177.04,325.94,179.26,325.94,180.91z"/>
	<path fill="#8B80A9" d="M338.85,176.57l-0.96,1.14c-0.46-0.42-0.9-0.57-1.46-0.57c-1.8,0-2.28,2.14-2.28,3.63
		c0,1.23,0.54,1.68,1.41,1.68c0.62,0,1.08-0.21,1.7-0.58l0.72,1.28c-0.79,0.55-1.65,0.87-2.62,0.87c-2.02,0-3.19-1.27-3.19-3.34
		c0-2.07,1.17-5.04,4.26-5.04C337.36,175.63,338.19,175.93,338.85,176.57z"/>
	<path fill="#8B80A9" d="M340.65,180.86c0.03,1.25,0.66,1.67,1.53,1.67c0.72,0,1.35-0.23,2.07-0.74l0.73,1.2
		c-0.87,0.62-1.86,1.02-3.02,1.02c-2.16,0-3.27-1.29-3.27-3.3c0-2.16,1.12-5.08,4.32-5.08c1.81,0,2.74,0.98,2.74,2.1
		C345.76,179.96,343.26,180.61,340.65,180.86z M343.81,177.82c0-0.36-0.2-0.83-0.93-0.83c-1.35,0-1.95,1.33-2.16,2.62
		C342.85,179.41,343.81,178.81,343.81,177.82z"/>
	<path fill="#8B80A9" d="M346.63,178.33h4.48l-0.22,1.53h-4.49L346.63,178.33z"/>
	<path fill="#8B80A9" d="M302.77,194.63l-0.87,1.06c-0.58-0.42-1.25-0.64-1.91-0.64c-0.83,0-1.29,0.31-1.29,0.84
		c0,0.51,0.41,0.69,1.56,1.06c1.41,0.45,2.15,1.14,2.15,2.38c0,1.61-1.35,2.67-3.45,2.67c-1.39,0-2.47-0.55-3.12-1.23l0.99-1.05
		c0.55,0.5,1.28,0.84,2.17,0.84c1.08,0,1.49-0.54,1.49-1.02c0-0.63-0.36-0.84-1.62-1.26c-1.44-0.46-2.07-1.11-2.07-2.25
		c0-1.21,1.07-2.42,3.2-2.42C301.13,193.63,302.06,194.02,302.77,194.63z"/>
	<path fill="#8B80A9" d="M310.78,196.73c0,2.26-1.08,5.28-4.21,5.28c-0.62,0-1.06-0.1-1.47-0.24l-0.45,3.09l-1.89,0.22l1.58-11.23
		h1.65l-0.01,0.93c0.83-0.88,1.62-1.16,2.38-1.16C309.91,193.63,310.78,194.75,310.78,196.73z M305.9,196.09l-0.58,4.28
		c0.39,0.13,0.71,0.21,1.19,0.21c1.69,0,2.32-2.25,2.32-3.87c0-1.25-0.49-1.63-1.17-1.63C306.97,195.07,306.41,195.5,305.9,196.09z"
		/>
	<path fill="#8B80A9" d="M313.55,198.86c0.03,1.25,0.66,1.67,1.53,1.67c0.72,0,1.35-0.23,2.07-0.74l0.73,1.2
		c-0.87,0.62-1.86,1.02-3.01,1.02c-2.16,0-3.27-1.29-3.27-3.3c0-2.16,1.12-5.08,4.32-5.08c1.82,0,2.75,0.98,2.75,2.1
		C318.67,197.96,316.16,198.61,313.55,198.86z M316.72,195.82c0-0.36-0.19-0.83-0.93-0.83c-1.35,0-1.95,1.33-2.16,2.62
		C315.76,197.41,316.72,196.81,316.72,195.82z"/>
	<path fill="#8B80A9" d="M325.85,194.57l-0.96,1.14c-0.46-0.42-0.9-0.57-1.46-0.57c-1.8,0-2.28,2.14-2.28,3.63
		c0,1.23,0.54,1.68,1.41,1.68c0.62,0,1.08-0.21,1.7-0.58l0.72,1.28c-0.79,0.55-1.65,0.87-2.62,0.87c-2.02,0-3.19-1.27-3.19-3.34
		c0-2.07,1.17-5.04,4.26-5.04C324.37,193.63,325.19,193.93,325.85,194.57z"/>
	<path fill="#8B80A9" d="M327.76,201.79h-1.89l1.11-7.93h1.89L327.76,201.79z M329.51,191.06c-0.09,0.63-0.61,1.09-1.3,1.09
		c-0.72,0-1.15-0.54-1.06-1.21c0.09-0.64,0.62-1.11,1.3-1.11C329.18,189.83,329.6,190.37,329.51,191.06z"/>
	<path fill="#8B80A9" d="M336.13,201.79h-1.89l0.91-6.55h-2.47l-0.83,5.88c-0.34,2.43-1.51,3.22-3.36,3.94l-0.51-1.41
		c1.12-0.45,1.76-0.92,1.98-2.49l0.82-5.92h-1.28l0.2-1.38h1.28l0.13-0.92c0.2-1.44,1.32-2.47,3.2-2.47c1.01,0,1.74,0.25,2.43,0.67
		l-0.68,1.23c-0.52-0.3-1.09-0.45-1.62-0.45c-0.95,0-1.35,0.38-1.46,1.14l-0.12,0.79h4.37L336.13,201.79z"/>
	<path fill="#8B80A9" d="M344.71,194.57l-0.96,1.14c-0.46-0.42-0.9-0.57-1.46-0.57c-1.8,0-2.28,2.14-2.28,3.63
		c0,1.23,0.54,1.68,1.41,1.68c0.62,0,1.08-0.21,1.7-0.58l0.72,1.28c-0.79,0.55-1.65,0.87-2.62,0.87c-2.02,0-3.19-1.27-3.19-3.34
		c0-2.07,1.17-5.04,4.26-5.04C343.22,193.63,344.05,193.93,344.71,194.57z"/>
	<path fill="#8B80A9" d="M298.79,211.76l-0.55,1.84c-0.24-0.06-0.41-0.09-0.66-0.09c-1,0-1.61,0.94-2.1,2.35l-0.56,3.92h-1.89
		l1.11-7.93h1.63l-0.06,1.54c0.57-1.16,1.42-1.75,2.28-1.75C298.3,211.64,298.54,211.69,298.79,211.76z"/>
	<path fill="#8B80A9" d="M300.25,216.86c0.03,1.25,0.66,1.67,1.53,1.67c0.72,0,1.35-0.23,2.07-0.74l0.73,1.2
		c-0.87,0.62-1.86,1.02-3.01,1.02c-2.16,0-3.27-1.29-3.27-3.3c0-2.16,1.12-5.08,4.32-5.08c1.82,0,2.75,0.98,2.75,2.1
		C305.36,215.96,302.86,216.61,300.25,216.86z M303.41,213.82c0-0.36-0.19-0.83-0.93-0.83c-1.35,0-1.95,1.33-2.16,2.62
		C302.45,215.41,303.41,214.81,303.41,213.82z"/>
	<path fill="#8B80A9" d="M313.33,212.39l-1.47,10.48l-1.92,0.21l0.57-4.11c-0.38,0.49-1.17,1.03-2.12,1.03
		c-1.68,0-2.55-1.23-2.55-3.1c0-2.28,1.19-5.28,4.42-5.28C311.27,211.63,312.26,211.84,313.33,212.39z M307.82,216.91
		c0,1.2,0.45,1.65,1.14,1.65c0.71,0,1.23-0.51,1.77-1.26l0.6-4.05c-0.38-0.15-0.65-0.21-1.09-0.21
		C308.48,213.04,307.82,215.26,307.82,216.91z"/>
	<path fill="#8B80A9" d="M320.38,219.79h-1.63l0.08-1.3c-0.71,0.93-1.52,1.53-2.57,1.53c-1.46,0-2.1-0.96-1.89-2.5l0.79-5.65h1.89
		l-0.75,5.43c-0.13,0.93,0.11,1.21,0.65,1.21c0.76,0,1.41-0.76,1.93-1.56l0.72-5.08h1.89L320.38,219.79z"/>
	<path fill="#8B80A9" d="M324.22,216.86c0.03,1.25,0.66,1.67,1.53,1.67c0.72,0,1.35-0.23,2.07-0.74l0.73,1.2
		c-0.87,0.62-1.86,1.02-3.02,1.02c-2.16,0-3.27-1.29-3.27-3.3c0-2.16,1.12-5.08,4.32-5.08c1.81,0,2.74,0.98,2.74,2.1
		C329.33,215.96,326.83,216.61,324.22,216.86z M327.38,213.82c0-0.36-0.2-0.83-0.93-0.83c-1.35,0-1.95,1.33-2.16,2.62
		C326.42,215.41,327.38,214.81,327.38,213.82z"/>
	<path fill="#8B80A9" d="M336.04,212.63l-0.87,1.06c-0.59-0.42-1.25-0.64-1.91-0.64c-0.82,0-1.29,0.31-1.29,0.84
		c0,0.51,0.4,0.69,1.56,1.06c1.41,0.45,2.15,1.14,2.15,2.38c0,1.61-1.35,2.67-3.45,2.67c-1.39,0-2.47-0.55-3.12-1.23l0.99-1.05
		c0.55,0.5,1.28,0.84,2.17,0.84c1.08,0,1.49-0.54,1.49-1.02c0-0.63-0.36-0.84-1.62-1.26c-1.44-0.46-2.07-1.11-2.07-2.25
		c0-1.21,1.07-2.42,3.2-2.42C334.4,211.63,335.33,212.02,336.04,212.63z"/>
	<path fill="#8B80A9" d="M338.86,217.4c-0.12,0.78,0.07,1.05,0.62,1.05c0.31,0,0.63-0.09,1-0.3l0.54,1.29
		c-0.63,0.39-1.35,0.57-2.01,0.57c-1.57-0.01-2.28-0.94-2.04-2.62l0.59-4.15h-1.23l0.2-1.38h1.3l0.49-1.8l1.59-0.18l-0.29,1.98h1.83
		l-0.39,1.38h-1.62L338.86,217.4z"/>
	<path fill="#8B80A9" d="M347.81,212.63l-0.87,1.06c-0.58-0.42-1.24-0.64-1.9-0.64c-0.83,0-1.29,0.31-1.29,0.84
		c0,0.51,0.41,0.69,1.56,1.06c1.41,0.45,2.14,1.14,2.14,2.38c0,1.61-1.35,2.67-3.45,2.67c-1.39,0-2.47-0.55-3.12-1.23l0.99-1.05
		c0.55,0.5,1.28,0.84,2.18,0.84c1.08,0,1.48-0.54,1.48-1.02c0-0.63-0.36-0.84-1.62-1.26c-1.44-0.46-2.07-1.11-2.07-2.25
		c0-1.21,1.06-2.42,3.2-2.42C346.18,211.63,347.11,212.02,347.81,212.63z"/>
</g>
</svg>
