<?xml version="1.0" encoding="utf-8"?>
<svg version="1.1" xmlns="http://www.w3.org/2000/svg" xmlns:xlink="http://www.w3.org/1999/xlink" x="0px" y="0px" width="1280px"
	 height="460px" viewBox="0 0 1280 460" enable-background="new 0 0 1280 460" xml:space="preserve">
<g id="Pods">
	<polygon fill="#F6E6DC" points="329.25,40 109.75,40 0,230.09 109.75,420.19 329.25,420.19 439,230.09 	"/>
	<g>
		<path fill="#C45814" d="M180.24,441.83l-2.09,3.2c-1.48-0.94-3.06-1.48-4.72-1.48c-1.55,0-2.3,0.58-2.3,1.44
			c0,1.01,0.5,1.44,3.92,2.45c3.78,1.08,5.9,2.66,5.9,6.08c0,3.96-3.74,6.3-8.5,6.3c-3.31,0-6.12-1.15-7.99-2.84l2.77-3.1
			c1.44,1.12,3.2,1.87,5.08,1.87c1.73,0,2.77-0.65,2.77-1.8c0-1.3-0.58-1.69-4.03-2.66c-3.78-1.08-5.65-3.02-5.65-5.98
			c0-3.28,2.99-5.83,7.81-5.83C175.99,439.49,178.48,440.39,180.24,441.83z"/>
		<path fill="#C45814" d="M201.34,451.34h-11.81c0.36,3.42,1.98,4.36,4.32,4.36c1.55,0,2.92-0.54,4.57-1.69l2.34,3.17
			c-1.91,1.51-4.36,2.66-7.45,2.66c-6.37,0-9.61-4.1-9.61-10.08c0-5.72,3.13-10.26,8.93-10.26c5.47,0,8.82,3.6,8.82,9.79
			C201.45,449.9,201.41,450.76,201.34,451.34z M195.87,447.67c-0.04-2.59-0.83-4.39-3.1-4.39c-1.91,0-2.99,1.19-3.28,4.64h6.37
			V447.67z"/>
		<path fill="#C45814" d="M217.9,439.82l-0.9,5.51c-0.61-0.14-1.08-0.25-1.73-0.25c-2.34,0-3.35,1.73-3.96,4.61v9.54h-5.69v-19.11
			h4.97l0.47,3.67c0.86-2.63,2.74-4.21,4.93-4.21C216.71,439.57,217.29,439.64,217.9,439.82z"/>
		<path fill="#C45814" d="M232.23,459.22h-6.73l-6.16-19.11h6.19l3.38,14.79l3.53-14.79h5.79L232.23,459.22z"/>
		<path fill="#C45814" d="M257.35,451.34h-11.81c0.36,3.42,1.98,4.36,4.32,4.36c1.55,0,2.92-0.54,4.57-1.69l2.34,3.17
			c-1.91,1.51-4.36,2.66-7.45,2.66c-6.37,0-9.61-4.1-9.61-10.08c0-5.72,3.13-10.26,8.93-10.26c5.47,0,8.82,3.6,8.82,9.79
			C257.46,449.9,257.42,450.76,257.35,451.34z M251.88,447.67c-0.04-2.59-0.83-4.39-3.1-4.39c-1.91,0-2.99,1.19-3.28,4.64h6.37
			V447.67z"/>
		<path fill="#C45814" d="M273.91,439.82l-0.9,5.51c-0.61-0.14-1.08-0.25-1.73-0.25c-2.34,0-3.35,1.73-3.96,4.61v9.54h-5.69v-19.11
			h4.97l0.47,3.67c0.86-2.63,2.74-4.21,4.93-4.21C272.72,439.57,273.3,439.64,273.91,439.82z"/>
	</g>
</g>
<g id="Knowledge">
	<g>
		<g>
			<path fill="#ABABAB" d="M94.74,317.98c19.4,17.39,47.2,26.37,72.11,31.97c33.45,7.52,69.39,8.77,102.54-0.91
				c28.29-8.26,56.98-25.26,69.29-53.17c10.88-24.64,10.58-53.09,6.46-79.22c-4.75-30.1-15.12-59.5-29.46-86.35
				c-12.12-22.7-27.71-45.55-48.93-60.68c-11.79-8.41-29.62-16.72-43.39-8.02c-12.28,7.75-18.76,23.2-23.42,36.29
				c-7.34,20.6-11.24,42.42-14.06,64.05c-3.39,25.93-4.91,52.12-5.1,78.27c-0.19,25.32,0.86,50.71,3.76,75.87
				c2.28,19.76,5.37,39.93,12.17,58.71c3.53,9.75,9.15,23.84,20.3,27c6,1.7,12.92-0.55,18.45-2.8c9.19-3.75,17.55-9.37,25.39-15.38
				c21.64-16.58,40.35-37.08,57.29-58.33c18.71-23.48,35.59-48.68,49.02-75.56c10.59-21.21,20.62-45.08,20.77-69.19
				c0.05-8.68-1.45-17.62-5.93-25.17c-4.21-7.09-10.73-12.58-17.62-16.95c-19.58-12.42-43.49-18.02-66.06-21.94
				c-28.41-4.93-57.39-6.75-86.2-6.61c-27.79,0.13-55.74,2.03-83.11,6.98c-18.41,3.33-39.46,7.52-54.9,18.82
				c-3.93,2.88-8.14,6.6-9.03,11.64c-0.79,4.48,0.95,9.04,3.07,12.91c7.32,13.34,20.46,23.77,32.27,32.93
				c38.61,29.95,83.02,53.27,127.65,72.82c22.75,9.96,46.02,18.92,69.92,25.73c18.55,5.28,38.13,9.85,57.55,9.4
				c11.88-0.28,26.07-2.74,33.03-13.54c9.09-14.1,3.58-34.13-2.5-48.18c-10-23.12-26.42-43.43-43.47-61.71
				c-20.21-21.67-42.78-41.18-66.69-58.65c-21.63-15.8-44.66-30.35-69.39-40.83c-15.04-6.37-34.82-13.98-51.31-8.71
				c-10.7,3.43-12.53,13.66-10.97,23.66c2.56,16.46,11.02,32.2,19.1,46.52c24.39,43.24,56.1,82.92,89.5,119.49
				c15.89,17.4,32.52,34.27,50.53,49.5c12.13,10.26,25.46,21.2,40.59,26.67c7.22,2.61,19.04,3.85,21.99-5.59
				c2.65-8.5-8.58-15.12-14.5-18.47c-14.71-8.32-31.3-13.56-47.44-18.31c-22.02-6.48-44.46-11.56-67.01-15.81
				c-44.35-8.37-90.67-15.14-135.91-12.56c-16.19,0.92-60.66,5.76-44.17,32.47c8.3,13.45,25.53,19.02,40.12,22.08
				c22.92,4.81,46.86,4.76,70.13,3.32c54.53-3.38,110.02-14.86,160.92-34.86c19.13-7.52,38.7-16.38,54.57-29.69
				c9.31-7.81,19.38-19.56,16.25-32.69c-3.05-12.79-16.48-21.24-27.25-26.98c-18.54-9.88-39.1-16.04-59.4-21.12
				c-50.77-12.7-103.87-18.69-156.16-19.01c-21.98-0.14-44.24,0.69-65.91,4.66c-12.65,2.31-28.92,5.58-37.95,15.68
				c-9.14,10.23-2.64,26.13,2.37,36.78c10.44,22.19,26.46,41.91,42.61,60.16c20.02,22.63,42,43.61,65.33,62.81
				c20.62,16.97,42.52,33.15,66.47,45.14c13.63,6.83,33.35,16.14,48.86,10.06c11.67-4.58,15.2-19.96,16.96-30.93
				c3.36-20.92,2.19-42.59,0.23-63.58c-2.5-26.68-7-53.19-12.73-79.36c-5.81-26.53-12.9-52.84-21.81-78.51
				c-7.05-20.33-15.04-40.9-26.48-59.22c-5.85-9.36-14.97-23.2-27.38-23.82c-13.76-0.69-25.25,13.97-32.52,23.71
				c-14.29,19.15-24.86,41.16-34.27,63.02c-11.25,26.13-20.65,53.07-28.39,80.45c-7.06,24.99-12.94,50.52-15.69,76.37
				c-1.75,16.44-3.69,36.48,3.69,51.94c5.13,10.76,14.96,12.42,25.73,9.68c16.5-4.2,31.71-14.28,45.5-23.89
				c42.09-29.31,79.76-66.02,113.24-104.73c16-18.5,31.24-37.87,44.12-58.7c9.07-14.68,18.35-31.18,20.63-48.57
				c5.05-38.5-43.61-36.47-69.1-32.12c-26.36,4.49-52.02,13.25-76.69,23.4c-26.88,11.06-52.97,24.16-77.79,39.29
				c-21.18,12.91-42.06,27.33-59.61,44.98c-10.46,10.52-23.58,25.17-23.07,41.12c0.38,12.05,10.76,17.27,21.49,18.64
				c17.49,2.23,35.96-1.97,52.78-6.36c45.27-11.82,90.11-31.4,129.55-56.56c12.55-8.01,63.16-40.12,38.54-59.25
				c-12.17-9.46-31.51,1.02-42.9,6.98c-23.47,12.28-44.97,28.78-64.68,46.38c-18.6,16.62-37.39,35.29-49.58,57.3
				c-6.7,12.1-12.8,29.69,1,39.29c6.8,4.73,15.51,6.32,23.59,7.14c11.64,1.19,23.47,0.5,35.07-0.86
				c27.45-3.22,54.64-10.35,80.35-20.44c20.64-8.1,44.05-18.44,58.57-35.91c4.68-5.63,8.45-12.54,8-20.08
				c-0.48-7.97-5.13-15.04-10.43-20.71c-16.21-17.37-40.43-27.49-62.53-34.83c-26.25-8.72-54.53-14.13-82.28-12.98
				c-19.89,0.82-44.22,5.31-55.97,23.3c-14.24,21.81-5.54,51.06,5.22,72.27c13.67,26.95,34.37,51.14,57.78,70.12
				c9.05,7.33,18.81,14.28,29.63,18.74c5.95,2.46,13.8,5.05,19.96,1.85c5.52-2.87,9.24-8.82,12.08-14.13
				c4.55-8.5,7.67-17.78,10.26-27.04c6.8-24.32,10.04-49.84,10.7-75.05c0.62-23.52-0.58-48.6-9.08-70.81
				c-3.14-8.22-7.48-16.38-14.14-22.31c-7.14-6.37-15.72-8.45-25.14-8.5c-32.26-0.18-60.19,22.46-79.08,46.67
				c-9.81,12.57-17.99,26.46-23.91,41.27c-4.87,12.18-8.66,25.68-7.82,38.93c1.12,17.65,19.63,25.82,34.25,30.98
				c24.4,8.62,50.82,12.04,76.53,13.71c24.85,1.61,50.54,1.7,75.08-3.09c8.04-1.57,32.19-6.23,29.77-19.01
				c-0.88-4.63-5.47-8-9.11-10.46c-6.64-4.5-14.11-7.8-21.46-10.93c-20.73-8.85-42.16-16.03-63.28-23.9
				c-21.74-8.11-43.84-16.41-63.87-28.26c-11.03-6.53-29.04-17.87-26.61-33.16c2.47-15.56,19.15-23.57,33.26-19.31
				c19.18,5.79,34.74,23.06,47.17,37.89c16.36,19.52,30.28,41.21,42.17,63.7c9.34,17.65,18.84,36.83,22.25,56.69
				c0.73,4.24,1.97,11.28-1.2,14.93c-3.47,4-9.37,1.31-12.6-1.49c-6.08-5.26-9.86-13.27-12.63-20.65c-3.82-10.2-6-21.04-6.77-31.9
				c-1.74-24.58,3.84-50.7,20.59-69.48c9.74-10.92,22.55-18.48,36.42-22.9c11.08-3.52,19-9.32,24.46-19.86
				c11.04-21.32,8.4-51.15-11.08-66.77c-6.82-5.47-17.14-11.04-26.25-9.56c-5.82,0.95-11.09,4.27-15.69,7.79
				c-14.87,11.4-26.38,27.39-36.84,42.73c-14.7,21.57-27.55,44.42-39.42,67.65c-12.55,24.55-23.97,49.7-34.11,75.34
				c-8.74,22.1-16.76,44.68-22.17,67.85c-3.09,13.22-7.39,30.09-2.89,43.5c2.35,7,9.74,12.27,15.21,5.03
				c7.16-9.46,8.22-24.54,9.65-35.82c2.65-20.99,3.34-42.24,3.37-63.38c0.07-46.42-2.49-94.15-13.03-139.49
				c-3.24-13.94-16.82-66.41-40.9-44.98c-10.86,9.66-8.89,27.75-6.59,40.48c4.12,22.79,13.29,44.73,23.15,65.57
				c11.72,24.76,25.44,48.63,40.65,71.42c13.18,19.74,27.49,39.18,44.34,55.97c8.59,8.56,21.9,22.23,35.34,21.29
				c3.37-0.24,8.61-1.73,9-5.78c0.39-4.09-4.2-7.69-6.96-9.94c-14.97-12.16-33.38-20.64-50.35-29.55
				c-23.47-12.32-47.14-24.32-70.09-37.6c-18.09-10.46-38.33-21.63-52.05-37.79c-3.36-3.97-7.59-9.73-6.39-15.29
				c1.09-5.04,6.18-8.33,10.41-10.57c16.37-8.66,36.82-10.63,54.95-12.05c25.19-1.97,50.64-1.37,75.76,1.23
				c24.64,2.55,49.55,6.97,72.8,15.71c16.04,6.03,35.38,15.26,42.71,31.93c7.36,16.74-0.99,36.31-13.24,48.28
				c-13.74,13.42-33.29,21.16-52.37,22.14c-17.97,0.93-37.24-4.74-47.26-20.72c-5.77-9.2-7.63-20.2-7.4-30.91
				c0.32-14.6,3.7-30.94,10.45-43.96c4.87-9.39,12.65-16.05,23.46-16.86c11.75-0.88,23.67,3.35,34.48,7.45
				c34.67,13.15,67.5,30.29,102.98,41.47c1.85,0.58,2.64-2.31,0.8-2.89c-20.77-6.54-40.93-14.72-60.86-23.46
				c-14.99-6.57-29.85-13.59-45.25-19.18c-10.8-3.91-22.78-7.71-34.41-6.15c-9.82,1.32-17.45,7.26-22.44,15.67
				c-7.01,11.82-10.27,26.73-11.71,40.27c-1.12,10.6-0.61,21.68,3.21,31.73c6.18,16.25,20.6,26.55,37.45,29.54
				c32.87,5.84,76.45-12.11,85.97-46.52c11.01-39.79-33.5-58.24-64.16-66.65c-23.6-6.47-48.1-9.8-72.49-11.36
				c-23.69-1.52-47.66-1.38-71.25,1.48c-17.11,2.08-71.54,9.81-50.87,38.52c10.96,15.22,29.07,25.8,44.79,35.34
				c21.84,13.25,44.57,25,67.2,36.81c18.77,9.79,38.04,19.19,55.77,30.83c4.18,2.75,10.24,6.14,12.71,10.74
				c1.76,3.27-1.49,4.52-4.61,4.98c-5.29,0.79-10.69-2.02-15.04-4.69c-7.08-4.35-13.31-10.04-19.16-15.89
				c-16.45-16.45-30.44-35.4-43.34-54.69c-14.69-21.96-27.97-44.94-39.45-68.74c-9.95-20.63-19.1-42.27-23.72-64.79
				c-2.5-12.21-5.58-31.27,5.21-40.7c8.5-7.43,16.97-2.19,22.21,5.98c8.53,13.3,12.19,29.95,15.33,45.21
				c4.51,21.87,7.07,44.15,8.81,66.4c3.37,43.2,4.66,87.83-1.26,130.88c-0.97,7.03-2.16,14.09-4.16,20.9
				c-1.11,3.79-2.45,8.63-5.43,11.46c-6.61,6.28-10.11-8.64-10.38-12.8c-1.07-16.69,3.81-34.04,8.36-49.91
				c6.77-23.6,15.51-46.66,25.06-69.26c19.77-46.78,42.93-93.54,72.95-134.69c9.64-13.21,20.75-28.07,35.26-36.31
				c17.85-10.13,38.75,6.83,45.25,23.48c7.87,20.16,2.81,53.89-20.35,62.15c-12.79,4.56-24.6,8.92-35.14,17.85
				c-9.27,7.86-16.46,17.92-21.26,29.06c-8.84,20.52-9.9,44.05-5.54,65.79c2.76,13.74,8.38,34.08,21.86,41.4
				c3.85,2.09,9.13,2.52,12.58-0.64c3.31-3.04,3.48-8.35,3.23-12.49c-1.05-17.15-9.12-34.35-16.38-49.61
				c-10.4-21.84-22.93-42.79-37.24-62.3c-12.58-17.14-26.83-34.34-44.62-46.33c-11.65-7.85-27.33-13.96-40.22-5.22
				c-10.82,7.33-16.88,20.87-10.15,32.9c8.03,14.37,25.67,23.09,39.82,30.01c20.67,10.12,42.38,18.03,63.97,25.91
				c19.53,7.14,39.48,13.74,58.23,22.8c5.51,2.66,25.04,10.95,17.9,19.77c-4.24,5.24-12.23,7.44-18.44,9.09
				c-10.09,2.67-20.55,3.92-30.94,4.69c-26.24,1.95-52.89,0.79-78.94-2.79c-21.92-3.01-46.11-7.19-65.33-18.85
				c-5.9-3.58-12.22-8.58-13.88-15.65c-2.73-11.62,1.06-25.32,4.83-36.26c10.44-30.3,31.29-59.39,58.08-77.26
				c18.44-12.3,50.77-24.1,69.1-5.46c14.24,14.47,17.9,38.14,19.67,57.44c2.33,25.36,0.83,51.21-3.23,76.31
				c-3.2,19.82-7.5,41.47-17.96,58.93c-2.64,4.41-6.47,10.12-11.94,11.16c-8.18,1.56-17.83-3.88-24.57-7.78
				c-24.33-14.09-45.17-35.82-61.4-58.53c-15.41-21.57-31.11-50.16-26.02-77.68c4.25-22.94,23.87-32.97,45.25-36.25
				c26.14-4.01,53.66,0,79.03,6.64c24.24,6.35,49.46,15.65,69.36,31.31c12.88,10.14,23.95,24.99,13.41,40.8
				c-5.36,8.05-13.47,14.21-21.47,19.43c-10.42,6.79-21.69,12.29-33.16,17.05c-25.02,10.38-51.59,17.74-78.4,21.59
				c-11.77,1.69-23.76,2.7-35.66,2.11c-8.53-0.42-17.79-1.49-25.4-5.67c-15.76-8.67-7.94-27.28-0.82-39.29
				c12.74-21.49,31.32-39.77,49.95-56.15c19.28-16.95,40.26-32.87,63.18-44.59c10.58-5.41,30.13-15.88,40.29-4.45
				c7.63,8.59-1.41,20.04-7.49,26.51c-12.64,13.44-28.81,23.69-44.63,32.93c-20.25,11.83-41.5,22.02-63.21,30.85
				c-20.68,8.41-41.94,15.77-63.75,20.65c-14.94,3.35-32.47,6.96-47.62,2.77c-12.02-3.33-15.21-13.33-11.28-24.61
				c6.03-17.31,21.82-31.22,35.49-42.57c20.27-16.82,42.83-30.93,65.92-43.52c24.93-13.6,50.89-25.47,77.66-34.98
				c22.72-8.07,46.53-15.04,70.69-16.81c14.15-1.04,34.44-1.17,44.55,10.87c8.21,9.78,4.09,24.9,0.19,35.57
				c-6.88,18.8-18.2,36.05-29.82,52.22c-29.67,41.29-65.66,78.68-104.13,111.83c-16.8,14.47-34.35,28.36-53.33,39.89
				c-11.25,6.83-25.55,15.64-39.28,15.1c-12.52-0.49-15.78-14.78-16.94-24.98c-2.36-20.7,0.95-42.18,4.77-62.49
				c9.92-52.67,27.26-105.34,51.36-153.24c8.9-17.7,18.98-36.47,33.52-50.26c8.58-8.14,18.77-13.06,29-4.93
				c12.49,9.92,20.17,26.4,26.66,40.53c10.04,21.86,17.68,44.85,24.3,67.95c14.07,49.1,24.65,100.65,25.95,151.85
				c0.43,16.94,0.54,35.79-5.93,51.77c-1.93,4.78-4.82,9.8-9.53,12.3c-5.86,3.1-13.41,2.43-19.67,1.2
				c-21.25-4.19-41.03-16.65-58.72-28.59c-23.89-16.13-46.12-34.76-66.99-54.6c-20.24-19.24-39.53-39.83-56.07-62.37
				c-10.89-14.85-24.08-33.07-25.95-52.02c-1.2-12.24,8.21-18.28,18.59-22.21c16.85-6.39,35.51-8.22,53.36-9.35
				c49.85-3.16,100.68,1.21,149.79,9.85c23.13,4.07,46.21,9.24,68.47,16.81c15.88,5.4,33.11,11.95,45.69,23.45
				c8.86,8.11,12.57,18.53,6.32,29.51c-8.21,14.44-24.88,23.8-39.15,31.15c-21.54,11.1-44.66,19.12-67.9,25.78
				c-26.27,7.52-53.11,13.17-80.17,16.97c-25.34,3.56-51.1,5.6-76.7,4.43c-18.71-0.85-39.26-2.93-55.96-12.15
				c-7.86-4.34-20.63-15.06-16.06-25.6c4.08-9.43,19.11-11.65,27.85-12.99c18.23-2.8,37.03-2.35,55.38-1.33
				c23.12,1.28,46.16,4,69.02,7.58c41.78,6.53,84.71,14.92,124.09,30.74c6.42,2.58,12.81,5.44,18.73,9.06
				c3.63,2.22,7.84,4.92,10.01,8.72c4.2,7.37-5.2,11.09-11.13,10.22c-13.48-1.98-26.24-12.16-36.62-20.26
				c-17.02-13.28-32.6-28.41-47.52-43.98c-33.98-35.47-65.48-74.2-91.58-115.86c-9.86-15.74-19.53-32.29-25.36-50.03
				c-2.69-8.2-7.07-22.73,1.23-29.32c4.59-3.64,11.63-3.94,17.2-3.7c9.08,0.4,18.04,2.91,26.57,5.92
				c23.58,8.31,45.54,21.38,66.14,35.38c24.02,16.32,46.65,34.83,67.34,55.22c18.54,18.28,36.19,38.35,48.9,61.2
				c8.48,15.23,17.12,35.69,10.59,53.22c-4.33,11.63-17.32,15.19-28.54,15.98c-18.22,1.27-36.8-2.72-54.31-7.36
				c-23.11-6.12-45.65-14.44-67.65-23.75c-44.29-18.74-87.91-41.42-126.89-69.72c-13.17-9.56-27.04-20.08-36.69-33.38
				c-2.77-3.82-5.65-8.36-6.03-13.19c-0.36-4.58,2.39-7.82,5.7-10.67c13.59-11.68,34.27-15.82,51.3-19.18
				c26.33-5.19,53.3-7.26,80.1-7.71c28.55-0.49,57.27,0.94,85.5,5.29c22.96,3.53,46.92,8.63,67.46,19.9
				c7.45,4.09,14.74,9.22,19.75,16.2c5.03,7,6.96,15.55,7.18,24.06c0.59,23.55-9.22,47.22-19.41,67.95
				c-12.95,26.36-29.28,51.13-47.4,74.2c-16.53,21.04-34.76,41.29-55.68,58.07c-7.8,6.26-16.13,12.15-25.22,16.38
				c-5.5,2.56-12.91,5.59-19.1,4c-10.85-2.78-16.14-18.01-19.29-27.24c-6.39-18.72-9.41-38.64-11.56-58.24
				c-2.67-24.32-3.65-48.83-3.47-73.29c0.19-25.24,1.62-50.5,4.75-75.55c2.69-21.49,6.5-43.13,13.5-63.68
				c4.41-12.94,10.59-28.92,22.67-36.68c14.02-9,32.54,1.5,43.85,10.39c20.46,16.08,35.43,39.07,47.09,62.02
				c13.5,26.56,23.2,55.52,27.25,85.08c3.55,25.91,3.09,54.63-9.54,78.21c-14.93,27.86-47.68,43.19-77.4,49.27
				c-30.99,6.34-63.64,4.04-94.18-3.61c-22.48-5.63-47.33-14.03-64.91-29.8C95.43,314.57,93.3,316.69,94.74,317.98L94.74,317.98z"/>
		</g>
	</g>
</g>
<g id="Annotations">
	<circle fill="none" stroke="#C45814" stroke-width="8" cx="300.54" cy="208.96" r="23.16"/>
	<circle fill="none" stroke="#C45814" stroke-width="8" cx="124.41" cy="257.47" r="38.46"/>
	<circle fill="none" stroke="#C45814" stroke-width="8" cx="243.29" cy="114.99" r="34.09"/>
</g>
<g id="Browser">
	<g>
		<g>
			<path fill="#F5F4F8" d="M1280.27,450.19c0,5.4-4.41,9.81-9.81,9.81H883.5c-5.4,0-9.81-4.42-9.81-9.81V9.64
				c0-5.4,4.41-9.81,9.81-9.81h386.96c5.4,0,9.81,4.41,9.81,9.81V450.19z"/>
		</g>
		<path fill="#D8D5E3" d="M1280.27,52.16H873.69V5.13c0-2.93,2.38-5.31,5.31-5.31h395.97c2.93,0,5.31,2.38,5.31,5.31V52.16z"/>
		<path fill="#DC9B72" d="M904.9,25.99c0,3.61-2.93,6.54-6.54,6.54c-3.61,0-6.54-2.93-6.54-6.54s2.93-6.54,6.54-6.54
			C901.97,19.45,904.9,22.38,904.9,25.99z"/>
		<path fill="#B0ABC7" d="M927.15,25.99c0,3.61-2.93,6.54-6.54,6.54c-3.61,0-6.54-2.93-6.54-6.54s2.93-6.54,6.54-6.54
			C924.23,19.45,927.15,22.38,927.15,25.99z"/>
		<path fill="#8981AA" d="M949.41,25.99c0,3.61-2.93,6.54-6.54,6.54c-3.61,0-6.54-2.93-6.54-6.54s2.93-6.54,6.54-6.54
			C946.48,19.45,949.41,22.38,949.41,25.99z"/>
		<g>
			<path fill="#FFFFFF" d="M996.37,39.89h-26.92c-0.24,0-0.44-0.2-0.44-0.44V12.53c0-0.24,0.2-0.44,0.44-0.44h26.92
				c0.24,0,0.44,0.2,0.44,0.44v26.92C996.81,39.69,996.62,39.89,996.37,39.89z"/>
			<g>
				<path fill="#8981AA" d="M985.37,34.98c-0.21,0-0.42-0.08-0.58-0.24l-8.17-8.18c-0.32-0.32-0.32-0.84,0-1.16l8.17-8.18
					c0.32-0.32,0.84-0.32,1.16,0c0.32,0.32,0.32,0.84,0,1.16l-7.6,7.6l7.6,7.6c0.32,0.32,0.32,0.84,0,1.16
					C985.78,34.9,985.58,34.98,985.37,34.98z"/>
			</g>
		</g>
		<g>
			<path fill="#FFFFFF" d="M1028.41,39.89h-26.92c-0.24,0-0.44-0.2-0.44-0.44V12.53c0-0.24,0.2-0.44,0.44-0.44h26.92
				c0.24,0,0.44,0.2,0.44,0.44v26.92C1028.85,39.69,1028.65,39.89,1028.41,39.89z"/>
			<g>
				<path fill="#8981AA" d="M1012.5,34.98c-0.21,0-0.42-0.08-0.58-0.24c-0.32-0.32-0.32-0.84,0-1.16l7.6-7.6l-7.6-7.6
					c-0.32-0.32-0.32-0.84,0-1.16c0.32-0.32,0.84-0.32,1.16,0l8.17,8.18c0.32,0.32,0.32,0.84,0,1.16l-8.17,8.18
					C1012.92,34.9,1012.71,34.98,1012.5,34.98z"/>
			</g>
		</g>
		<g>
			<g>
				<path fill="#FFFFFF" d="M1038.83,39.45V12.53c0-0.24,0.2-0.44,0.44-0.44h222.07c0.24,0,0.44,0.2,0.44,0.44v26.92
					c0,0.24-0.2,0.44-0.44,0.44h-222.07C1039.02,39.89,1038.83,39.69,1038.83,39.45z"/>
			</g>
			<g>
				<g>
					<path fill="#8981AA" d="M1052.7,30.7c-1.68,0-3.36-0.64-4.64-1.92c-1.24-1.24-1.92-2.89-1.92-4.64c0-1.75,0.68-3.4,1.92-4.64
						c2.56-2.56,6.72-2.56,9.28,0c0,0,0,0,0,0c2.56,2.56,2.56,6.72,0,9.28C1056.06,30.06,1054.38,30.7,1052.7,30.7z M1052.7,19.22
						c-1.26,0-2.52,0.48-3.48,1.44c-0.93,0.93-1.44,2.17-1.44,3.48c0,1.32,0.51,2.55,1.44,3.48c1.92,1.92,5.05,1.92,6.97,0
						c1.92-1.92,1.92-5.04,0-6.96C1055.22,19.7,1053.96,19.22,1052.7,19.22z"/>
				</g>
				<g>
					<path fill="#8981AA" d="M1062.13,34.39c-0.21,0-0.42-0.08-0.58-0.24l-5.37-5.37c-0.32-0.32-0.32-0.84,0-1.16
						c0.32-0.32,0.84-0.32,1.16,0l5.37,5.37c0.32,0.32,0.32,0.84,0,1.16C1062.55,34.31,1062.34,34.39,1062.13,34.39z"/>
				</g>
			</g>
		</g>
	</g>
</g>
<g id="App">
	<g>
		<path fill="#3A2D72" d="M904,400c0,16.57,13.43,30,30,30h286c16.57,0,30-13.43,30-30V112c0-16.57-13.43-30-30-30H934
			c-16.57,0-30,13.43-30,30V400z"/>
	</g>
	<g>
		<path fill="#FFFFFF" d="M924,305c0,16.57,13.43,30,30,30h246c16.57,0,30-13.43,30-30V132c0-16.57-13.43-30-30-30H954
			c-16.57,0-30,13.43-30,30V305z"/>
	</g>
	<g>
		<path fill="#FFFFFF" d="M998.03,389.69l-1.19,3.71c-2.23-0.18-3.71-0.86-4.61-2.74c-1.37,2.09-3.49,2.84-5.76,2.84
			c-3.82,0-6.23-2.48-6.23-5.98c0-4.18,3.17-6.44,8.96-6.44h1.94v-0.83c0-2.27-0.9-2.95-3.24-2.95c-1.22,0-3.1,0.36-5,1.01
			l-1.3-3.74c2.41-0.9,5.04-1.4,7.2-1.4c5.54,0,7.92,2.34,7.92,6.77v7.42C996.74,388.82,997.13,389.36,998.03,389.69z
			 M991.16,387.63v-3.42h-1.4c-2.59,0-3.85,0.9-3.85,2.81c0,1.51,0.83,2.41,2.23,2.41C989.43,389.43,990.47,388.75,991.16,387.63z"
			/>
		<path fill="#FFFFFF" d="M1020.1,383.28c0,5.9-2.88,10.22-7.59,10.22c-1.87,0-3.46-0.65-4.64-2.02v8.78l-5.69,0.61v-27.1h5
			l0.29,2.12c1.58-1.98,3.63-2.74,5.4-2.74C1017.91,373.16,1020.1,377.09,1020.1,383.28z M1014.2,383.35c0-4.75-1.15-6.01-3.13-6.01
			c-1.22,0-2.38,0.83-3.2,2.23v8.06c0.79,1.15,1.73,1.69,2.92,1.69C1012.9,389.33,1014.2,387.63,1014.2,383.35z"/>
		<path fill="#FFFFFF" d="M1042.49,383.28c0,5.9-2.88,10.22-7.59,10.22c-1.87,0-3.46-0.65-4.64-2.02v8.78l-5.69,0.61v-27.1h5
			l0.29,2.12c1.58-1.98,3.63-2.74,5.4-2.74C1040.3,373.16,1042.49,377.09,1042.49,383.28z M1036.59,383.35
			c0-4.75-1.15-6.01-3.13-6.01c-1.22,0-2.38,0.83-3.2,2.23v8.06c0.79,1.15,1.73,1.69,2.92,1.69
			C1035.29,389.33,1036.59,387.63,1036.59,383.35z"/>
		<path fill="#FFFFFF" d="M1046.78,388.03v-21.85l5.69-0.61v22.25c0,0.79,0.29,1.19,0.97,1.19c0.4,0,0.68-0.07,0.94-0.18l1.12,4.03
			c-0.86,0.36-2.09,0.65-3.46,0.65C1048.72,393.5,1046.78,391.52,1046.78,388.03z"/>
		<path fill="#FFFFFF" d="M1064.74,366.94c0,1.84-1.4,3.24-3.38,3.24c-1.98,0-3.35-1.4-3.35-3.24c0-1.83,1.37-3.24,3.35-3.24
			C1063.34,363.7,1064.74,365.1,1064.74,366.94z M1064.24,392.89h-5.69v-19.11h5.69V392.89z"/>
		<path fill="#FFFFFF" d="M1084.43,375.5l-2.45,3.38c-1.22-0.94-2.34-1.37-3.64-1.37c-2.45,0-3.85,1.66-3.85,5.94
			c0,4.25,1.51,5.54,3.78,5.54c1.37,0,2.3-0.43,3.67-1.3l2.48,3.53c-1.76,1.4-3.82,2.27-6.44,2.27c-5.87,0-9.47-3.96-9.47-10.01
			c0-6.08,3.63-10.33,9.36-10.33C1080.54,373.16,1082.6,373.96,1084.43,375.5z"/>
		<path fill="#FFFFFF" d="M1104.23,389.69l-1.19,3.71c-2.23-0.18-3.71-0.86-4.61-2.74c-1.37,2.09-3.49,2.84-5.76,2.84
			c-3.82,0-6.23-2.48-6.23-5.98c0-4.18,3.17-6.44,8.96-6.44h1.94v-0.83c0-2.27-0.9-2.95-3.24-2.95c-1.22,0-3.1,0.36-5,1.01
			l-1.3-3.74c2.41-0.9,5.04-1.4,7.2-1.4c5.54,0,7.92,2.34,7.92,6.77v7.42C1102.93,388.82,1103.33,389.36,1104.23,389.69z
			 M1097.36,387.63v-3.42h-1.4c-2.59,0-3.85,0.9-3.85,2.81c0,1.51,0.83,2.41,2.23,2.41
			C1095.63,389.43,1096.67,388.75,1097.36,387.63z"/>
		<path fill="#FFFFFF" d="M1120.36,391.99c-1.44,1.01-3.46,1.51-5.18,1.51c-4.21-0.04-6.26-2.41-6.26-6.91v-8.86h-2.7v-3.96h2.7
			v-4.14l5.69-0.65v4.79h4.39l-0.61,3.96h-3.78v8.78c0,1.84,0.61,2.48,1.8,2.48c0.65,0,1.3-0.18,2.05-0.65L1120.36,391.99z"/>
		<path fill="#FFFFFF" d="M1129.36,366.94c0,1.84-1.4,3.24-3.38,3.24c-1.98,0-3.35-1.4-3.35-3.24c0-1.83,1.37-3.24,3.35-3.24
			C1127.96,363.7,1129.36,365.1,1129.36,366.94z M1128.85,392.89h-5.69v-19.11h5.69V392.89z"/>
		<path fill="#FFFFFF" d="M1151.86,383.35c0,6.12-3.53,10.15-9.36,10.15c-5.79,0-9.36-3.74-9.36-10.19c0-6.12,3.53-10.15,9.36-10.15
			S1151.86,376.91,1151.86,383.35z M1139.04,383.31c0,4.25,1.15,6.01,3.46,6.01s3.46-1.84,3.46-5.98c0-4.25-1.15-6.01-3.46-6.01
			S1139.04,379.17,1139.04,383.31z"/>
		<path fill="#FFFFFF" d="M1172.63,378.92v13.97h-5.69v-12.99c0-2.02-0.68-2.56-1.8-2.56c-1.26,0-2.3,0.9-3.31,2.48v13.07h-5.69
			v-19.11h4.97l0.4,2.27c1.62-1.87,3.46-2.88,5.83-2.88C1170.65,373.16,1172.63,375.29,1172.63,378.92z"/>
	</g>
</g>
<g id="Arrows">
	<g>
		<g>
			<path fill="none" stroke="#61578E" stroke-width="4" d="M1005,197
				c-80.97-46.27-252.06-44.22-380.74-30.58"/>
			<g>
				<polygon fill="#61578E" points="626.2,156.38 610,168 628.17,176.22 				"/>
			</g>
		</g>
	</g>
	<g>
		<g>
			<path fill="none" stroke="#61578E" stroke-width="4" d="M1005,237
				c-86.88,52.13-249.11,86.98-380.91,63.68"/>
			<g>
				<polygon fill="#61578E" points="628.82,291.35 610,297.94 625.11,310.95 				"/>
			</g>
		</g>
	</g>
	<g>
		<g>
			<path fill="none" stroke="#D07943" stroke-width="4" d="M478,172c-70.15-47.07-120.49-63.66-182.66-62.55
				"/>
			<g>
				<polygon fill="#D07943" points="297.94,99.48 281,110 298.58,119.41 				"/>
			</g>
		</g>
	</g>
	<g>
		<g>
			<path fill="none" stroke="#D07943" stroke-width="4" d="M478,298c-29.11-50.71-64.39-89.07-135.65-90.25"
				/>
			<g>
				<polygon fill="#D07943" points="345.16,197.84 328,208 345.37,217.79 				"/>
			</g>
		</g>
	</g>
	<g>
		<g>
			<path fill="none" stroke="#D07943" stroke-width="4" d="M478,298
				c-133.31,85.36-249.14,85.17-330.74,10.03"/>
			<g>
				<polygon fill="#D07943" points="156.36,302.78 137,298 142.54,317.16 				"/>
			</g>
		</g>
	</g>
</g>
<g id="Results">
	<circle fill="none" stroke="#61578E" stroke-width="8" cx="1076.5" cy="216.5" r="74.5"/>
	<g>
		<path fill="#61578E" d="M1043.49,226.11c0,6.3-3.82,8.5-8.03,9.86l-1.58-4.17c3.24-1.26,3.71-2.95,3.71-5.9v-20.95h5.9V226.11z"/>
		<path fill="#61578E" d="M1065.59,207.54l-2.74,3.2c-1.73-1.4-3.46-2.09-5.47-2.09c-2.05,0-3.35,0.86-3.35,2.45
			c0,1.58,0.94,2.23,4.82,3.46c4.72,1.51,7.42,3.46,7.42,8.06c0,4.64-3.67,7.88-9.9,7.88c-4.32,0-7.42-1.58-9.47-3.56l2.99-3.28
			c1.84,1.55,3.82,2.45,6.3,2.45c2.45,0,3.96-1.15,3.96-3.06c0-1.84-0.94-2.66-4.57-3.78c-5.58-1.73-7.63-4.03-7.63-7.74
			c0-4.39,3.82-7.2,9-7.2C1060.77,204.33,1063.4,205.45,1065.59,207.54z"/>
		<path fill="#61578E" d="M1091.76,217.4c0,8.17-4.21,13.1-11.27,13.1c-7.02,0-11.23-4.79-11.23-13.1c0-8.13,4.21-13.07,11.23-13.07
			C1087.55,204.33,1091.76,209.08,1091.76,217.4z M1075.46,217.4c0,6.33,1.8,8.78,5.04,8.78c3.38,0,5.08-2.45,5.08-8.78
			c0-6.3-1.73-8.75-5.08-8.75C1077.19,208.65,1075.46,211.1,1075.46,217.4z"/>
		<path fill="#61578E" d="M1115.42,229.89h-7.52l-7.2-19.33c0.29,2.27,0.76,5.58,0.76,10.19v9.14h-5.25v-24.95h7.34l7.38,19.37
			c-0.32-2.02-0.79-5.29-0.79-9.29v-10.08h5.29V229.89z"/>
	</g>
</g>
<g id="API">
	<g>
		<path fill="#C45814" d="M468,348c0,16.57,13.43,30,30,30h82c16.57,0,30-13.43,30-30V112c0-16.57-13.43-30-30-30h-82
			c-16.57,0-30,13.43-30,30V348z"/>
	</g>
	<g>
		<path fill="#FFFFFF" d="M513.28,217.68c0,5.44-3.35,7.27-6.59,8.42l-1.44-3.71c2.38-1.12,2.63-2.34,2.63-4.75V200.4h5.4V217.68z"
			/>
		<path fill="#FFFFFF" d="M531.39,202.63l-2.38,2.74c-1.22-1.04-2.56-1.58-3.96-1.58c-1.4,0-2.27,0.65-2.27,1.8
			c0,1.15,0.58,1.66,3.24,2.63c3.85,1.37,5.54,3.1,5.54,6.48c0,4-2.95,6.7-7.81,6.7c-3.53,0-6.15-1.37-7.67-3.02l2.56-2.88
			c1.44,1.22,2.92,1.98,4.72,1.98c1.73,0,2.59-0.86,2.59-2.23s-0.61-2.05-2.95-2.84c-4.64-1.66-5.79-3.53-5.79-6.33
			c0-4,3.42-6.16,7.42-6.16C527.46,199.9,529.69,200.87,531.39,202.63z"/>
		<path fill="#FFFFFF" d="M551.58,210.59c0,7.09-3.13,10.8-8.67,10.8c-5.58,0-8.67-3.56-8.67-10.83c0-6.98,3.1-10.65,8.67-10.65
			C548.45,199.9,551.58,203.42,551.58,210.59z M539.81,210.55c0,5.36,0.97,6.98,3.1,6.98s3.02-1.62,3.02-6.95
			c0-5.22-0.97-6.8-3.02-6.8C540.82,203.79,539.81,205.37,539.81,210.55z"/>
		<path fill="#FFFFFF" d="M570.41,220.85h-6.66l-4.43-15.73c0.25,2.2,0.61,5.26,0.61,8.64v7.09h-4.57V200.4h6.62l4.46,15.73
			c-0.29-2.34-0.61-5.58-0.61-8.28v-7.45h4.57V220.85z"/>
		<path fill="#FFFFFF" d="M527.37,252.63h-4.82l-0.79,4.21h-5.44l5.47-20.45h6.44l5.44,20.45h-5.47L527.37,252.63z M526.62,248.78
			l-1.69-8.64l-1.62,8.64H526.62z"/>
		<path fill="#FFFFFF" d="M550.77,243.17c0,4.79-3.06,7.06-7.81,7.06h-1.48v6.62h-5.44V236.4h6.33
			C547.71,236.4,550.77,238.63,550.77,243.17z M545.37,243.17c0-2.16-1.08-2.99-2.81-2.99h-1.08v6.19h1.12
			C544.29,246.37,545.37,245.58,545.37,243.17z"/>
		<path fill="#FFFFFF" d="M559.45,256.85h-5.44V236.4h5.44V256.85z"/>
	</g>
</g>
</svg>
