<?xml version="1.0" encoding="utf-8"?>
<svg version="1.1" xmlns="http://www.w3.org/2000/svg" xmlns:xlink="http://www.w3.org/1999/xlink" x="0px" y="0px" width="1280px"
	 height="460px" viewBox="0 0 1280 460" enable-background="new 0 0 1280 460" xml:space="preserve">
<g id="Pods">
	<polygon fill="#F6E6DC" points="329.25,40 109.75,40 0,230.09 109.75,420.19 329.25,420.19 439,230.09 	"/>
	<g>
		<path fill="#C45814" d="M180.24,441.83l-2.09,3.2c-1.48-0.94-3.06-1.48-4.72-1.48c-1.55,0-2.3,0.58-2.3,1.44
			c0,1.01,0.5,1.44,3.92,2.45c3.78,1.08,5.9,2.66,5.9,6.08c0,3.96-3.74,6.3-8.5,6.3c-3.31,0-6.12-1.15-7.99-2.84l2.77-3.1
			c1.44,1.12,3.2,1.87,5.08,1.87c1.73,0,2.77-0.65,2.77-1.8c0-1.3-0.58-1.69-4.03-2.66c-3.78-1.08-5.65-3.02-5.65-5.98
			c0-3.28,2.99-5.83,7.81-5.83C175.99,439.49,178.48,440.39,180.24,441.83z"/>
		<path fill="#C45814" d="M201.34,451.34h-11.81c0.36,3.42,1.98,4.36,4.32,4.36c1.55,0,2.92-0.54,4.57-1.69l2.34,3.17
			c-1.91,1.51-4.36,2.66-7.45,2.66c-6.37,0-9.61-4.1-9.61-10.08c0-5.72,3.13-10.26,8.93-10.26c5.47,0,8.82,3.6,8.82,9.79
			C201.45,449.9,201.41,450.76,201.34,451.34z M195.87,447.67c-0.04-2.59-0.83-4.39-3.1-4.39c-1.91,0-2.99,1.19-3.28,4.64h6.37
			V447.67z"/>
		<path fill="#C45814" d="M217.9,439.82l-0.9,5.51c-0.61-0.14-1.08-0.25-1.73-0.25c-2.34,0-3.35,1.73-3.96,4.61v9.54h-5.69v-19.11
			h4.97l0.47,3.67c0.86-2.63,2.74-4.21,4.93-4.21C216.71,439.57,217.29,439.64,217.9,439.82z"/>
		<path fill="#C45814" d="M232.23,459.22h-6.73l-6.16-19.11h6.19l3.38,14.79l3.53-14.79h5.79L232.23,459.22z"/>
		<path fill="#C45814" d="M257.35,451.34h-11.81c0.36,3.42,1.98,4.36,4.32,4.36c1.55,0,2.92-0.54,4.57-1.69l2.34,3.17
			c-1.91,1.51-4.36,2.66-7.45,2.66c-6.37,0-9.61-4.1-9.61-10.08c0-5.72,3.13-10.26,8.93-10.26c5.47,0,8.82,3.6,8.82,9.79
			C257.46,449.9,257.42,450.76,257.35,451.34z M251.88,447.67c-0.04-2.59-0.83-4.39-3.1-4.39c-1.91,0-2.99,1.19-3.28,4.64h6.37
			V447.67z"/>
		<path fill="#C45814" d="M273.91,439.82l-0.9,5.51c-0.61-0.14-1.08-0.25-1.73-0.25c-2.34,0-3.35,1.73-3.96,4.61v9.54h-5.69v-19.11
			h4.97l0.47,3.67c0.86-2.63,2.74-4.21,4.93-4.21C272.72,439.57,273.3,439.64,273.91,439.82z"/>
	</g>
</g>
<g id="Annotations">
	<rect x="283" y="218" fill="#FCF7F3" stroke="#C45814" stroke-width="6" width="57.69" height="75"/>
	<rect x="83" y="140" fill="#FCF7F3" stroke="#C45814" stroke-width="6" width="57.69" height="75"/>
	<rect x="124" y="243" fill="#FCF7F3" stroke="#C45814" stroke-width="6" width="86" height="107"/>
	<rect x="183" y="81" fill="#FCF7F3" stroke="#C45814" stroke-width="6" width="94.69" height="119"/>
</g>
<g id="Browser">
	<g>
		<g>
			<path fill="#F5F4F8" d="M1280.27,450.19c0,5.4-4.41,9.81-9.81,9.81H883.5c-5.4,0-9.81-4.42-9.81-9.81V9.64
				c0-5.4,4.41-9.81,9.81-9.81h386.96c5.4,0,9.81,4.41,9.81,9.81V450.19z"/>
		</g>
		<path fill="#D8D5E3" d="M1280.27,52.16H873.69V5.13c0-2.93,2.38-5.31,5.31-5.31h395.97c2.93,0,5.31,2.38,5.31,5.31V52.16z"/>
		<path fill="#DC9B72" d="M904.9,25.99c0,3.61-2.93,6.54-6.54,6.54c-3.61,0-6.54-2.93-6.54-6.54s2.93-6.54,6.54-6.54
			C901.97,19.45,904.9,22.38,904.9,25.99z"/>
		<path fill="#B0ABC7" d="M927.15,25.99c0,3.61-2.93,6.54-6.54,6.54c-3.61,0-6.54-2.93-6.54-6.54s2.93-6.54,6.54-6.54
			C924.23,19.45,927.15,22.38,927.15,25.99z"/>
		<path fill="#8981AA" d="M949.41,25.99c0,3.61-2.93,6.54-6.54,6.54c-3.61,0-6.54-2.93-6.54-6.54s2.93-6.54,6.54-6.54
			C946.48,19.45,949.41,22.38,949.41,25.99z"/>
		<g>
			<path fill="#FFFFFF" d="M996.37,39.89h-26.92c-0.24,0-0.44-0.2-0.44-0.44V12.53c0-0.24,0.2-0.44,0.44-0.44h26.92
				c0.24,0,0.44,0.2,0.44,0.44v26.92C996.81,39.69,996.62,39.89,996.37,39.89z"/>
			<g>
				<path fill="#8981AA" d="M985.37,34.98c-0.21,0-0.42-0.08-0.58-0.24l-8.17-8.18c-0.32-0.32-0.32-0.84,0-1.16l8.17-8.18
					c0.32-0.32,0.84-0.32,1.16,0c0.32,0.32,0.32,0.84,0,1.16l-7.6,7.6l7.6,7.6c0.32,0.32,0.32,0.84,0,1.16
					C985.78,34.9,985.58,34.98,985.37,34.98z"/>
			</g>
		</g>
		<g>
			<path fill="#FFFFFF" d="M1028.41,39.89h-26.92c-0.24,0-0.44-0.2-0.44-0.44V12.53c0-0.24,0.2-0.44,0.44-0.44h26.92
				c0.24,0,0.44,0.2,0.44,0.44v26.92C1028.85,39.69,1028.65,39.89,1028.41,39.89z"/>
			<g>
				<path fill="#8981AA" d="M1012.5,34.98c-0.21,0-0.42-0.08-0.58-0.24c-0.32-0.32-0.32-0.84,0-1.16l7.6-7.6l-7.6-7.6
					c-0.32-0.32-0.32-0.84,0-1.16c0.32-0.32,0.84-0.32,1.16,0l8.17,8.18c0.32,0.32,0.32,0.84,0,1.16l-8.17,8.18
					C1012.92,34.9,1012.71,34.98,1012.5,34.98z"/>
			</g>
		</g>
		<g>
			<g>
				<path fill="#FFFFFF" d="M1038.83,39.45V12.53c0-0.24,0.2-0.44,0.44-0.44h222.07c0.24,0,0.44,0.2,0.44,0.44v26.92
					c0,0.24-0.2,0.44-0.44,0.44h-222.07C1039.02,39.89,1038.83,39.69,1038.83,39.45z"/>
			</g>
			<g>
				<g>
					<path fill="#8981AA" d="M1052.7,30.7c-1.68,0-3.36-0.64-4.64-1.92c-1.24-1.24-1.92-2.89-1.92-4.64c0-1.75,0.68-3.4,1.92-4.64
						c2.56-2.56,6.72-2.56,9.28,0c0,0,0,0,0,0c2.56,2.56,2.56,6.72,0,9.28C1056.06,30.06,1054.38,30.7,1052.7,30.7z M1052.7,19.22
						c-1.26,0-2.52,0.48-3.48,1.44c-0.93,0.93-1.44,2.17-1.44,3.48c0,1.32,0.51,2.55,1.44,3.48c1.92,1.92,5.05,1.92,6.97,0
						c1.92-1.92,1.92-5.04,0-6.96C1055.22,19.7,1053.96,19.22,1052.7,19.22z"/>
				</g>
				<g>
					<path fill="#8981AA" d="M1062.13,34.39c-0.21,0-0.42-0.08-0.58-0.24l-5.37-5.37c-0.32-0.32-0.32-0.84,0-1.16
						c0.32-0.32,0.84-0.32,1.16,0l5.37,5.37c0.32,0.32,0.32,0.84,0,1.16C1062.55,34.31,1062.34,34.39,1062.13,34.39z"/>
				</g>
			</g>
		</g>
	</g>
</g>
<g id="App">
	<g>
		<path fill="#3A2D72" d="M904,400c0,16.57,13.43,30,30,30h286c16.57,0,30-13.43,30-30V112c0-16.57-13.43-30-30-30H934
			c-16.57,0-30,13.43-30,30V400z"/>
	</g>
	<g>
		<path fill="#FFFFFF" d="M924,305c0,16.57,13.43,30,30,30h246c16.57,0,30-13.43,30-30V132c0-16.57-13.43-30-30-30H954
			c-16.57,0-30,13.43-30,30V305z"/>
	</g>
	<g>
		<path fill="#FFFFFF" d="M998.03,389.69l-1.19,3.71c-2.23-0.18-3.71-0.86-4.61-2.74c-1.37,2.09-3.49,2.84-5.76,2.84
			c-3.82,0-6.23-2.48-6.23-5.98c0-4.18,3.17-6.44,8.96-6.44h1.94v-0.83c0-2.27-0.9-2.95-3.24-2.95c-1.22,0-3.1,0.36-5,1.01
			l-1.3-3.74c2.41-0.9,5.04-1.4,7.2-1.4c5.54,0,7.92,2.34,7.92,6.77v7.42C996.74,388.82,997.13,389.36,998.03,389.69z
			 M991.16,387.63v-3.42h-1.4c-2.59,0-3.85,0.9-3.85,2.81c0,1.51,0.83,2.41,2.23,2.41C989.43,389.43,990.47,388.75,991.16,387.63z"
			/>
		<path fill="#FFFFFF" d="M1020.1,383.28c0,5.9-2.88,10.22-7.59,10.22c-1.87,0-3.46-0.65-4.64-2.02v8.78l-5.69,0.61v-27.1h5
			l0.29,2.12c1.58-1.98,3.63-2.74,5.4-2.74C1017.91,373.16,1020.1,377.09,1020.1,383.28z M1014.2,383.35c0-4.75-1.15-6.01-3.13-6.01
			c-1.22,0-2.38,0.83-3.2,2.23v8.06c0.79,1.15,1.73,1.69,2.92,1.69C1012.9,389.33,1014.2,387.63,1014.2,383.35z"/>
		<path fill="#FFFFFF" d="M1042.49,383.28c0,5.9-2.88,10.22-7.59,10.22c-1.87,0-3.46-0.65-4.64-2.02v8.78l-5.69,0.61v-27.1h5
			l0.29,2.12c1.58-1.98,3.63-2.74,5.4-2.74C1040.3,373.16,1042.49,377.09,1042.49,383.28z M1036.59,383.35
			c0-4.75-1.15-6.01-3.13-6.01c-1.22,0-2.38,0.83-3.2,2.23v8.06c0.79,1.15,1.73,1.69,2.92,1.69
			C1035.29,389.33,1036.59,387.63,1036.59,383.35z"/>
		<path fill="#FFFFFF" d="M1046.78,388.03v-21.85l5.69-0.61v22.25c0,0.79,0.29,1.19,0.97,1.19c0.4,0,0.68-0.07,0.94-0.18l1.12,4.03
			c-0.86,0.36-2.09,0.65-3.46,0.65C1048.72,393.5,1046.78,391.52,1046.78,388.03z"/>
		<path fill="#FFFFFF" d="M1064.74,366.94c0,1.84-1.4,3.24-3.38,3.24c-1.98,0-3.35-1.4-3.35-3.24c0-1.83,1.37-3.24,3.35-3.24
			C1063.34,363.7,1064.74,365.1,1064.74,366.94z M1064.24,392.89h-5.69v-19.11h5.69V392.89z"/>
		<path fill="#FFFFFF" d="M1084.43,375.5l-2.45,3.38c-1.22-0.94-2.34-1.37-3.64-1.37c-2.45,0-3.85,1.66-3.85,5.94
			c0,4.25,1.51,5.54,3.78,5.54c1.37,0,2.3-0.43,3.67-1.3l2.48,3.53c-1.76,1.4-3.82,2.27-6.44,2.27c-5.87,0-9.47-3.96-9.47-10.01
			c0-6.08,3.63-10.33,9.36-10.33C1080.54,373.16,1082.6,373.96,1084.43,375.5z"/>
		<path fill="#FFFFFF" d="M1104.23,389.69l-1.19,3.71c-2.23-0.18-3.71-0.86-4.61-2.74c-1.37,2.09-3.49,2.84-5.76,2.84
			c-3.82,0-6.23-2.48-6.23-5.98c0-4.18,3.17-6.44,8.96-6.44h1.94v-0.83c0-2.27-0.9-2.95-3.24-2.95c-1.22,0-3.1,0.36-5,1.01
			l-1.3-3.74c2.41-0.9,5.04-1.4,7.2-1.4c5.54,0,7.92,2.34,7.92,6.77v7.42C1102.93,388.82,1103.33,389.36,1104.23,389.69z
			 M1097.36,387.63v-3.42h-1.4c-2.59,0-3.85,0.9-3.85,2.81c0,1.51,0.83,2.41,2.23,2.41
			C1095.63,389.43,1096.67,388.75,1097.36,387.63z"/>
		<path fill="#FFFFFF" d="M1120.36,391.99c-1.44,1.01-3.46,1.51-5.18,1.51c-4.21-0.04-6.26-2.41-6.26-6.91v-8.86h-2.7v-3.96h2.7
			v-4.14l5.69-0.65v4.79h4.39l-0.61,3.96h-3.78v8.78c0,1.84,0.61,2.48,1.8,2.48c0.65,0,1.3-0.18,2.05-0.65L1120.36,391.99z"/>
		<path fill="#FFFFFF" d="M1129.36,366.94c0,1.84-1.4,3.24-3.38,3.24c-1.98,0-3.35-1.4-3.35-3.24c0-1.83,1.37-3.24,3.35-3.24
			C1127.96,363.7,1129.36,365.1,1129.36,366.94z M1128.85,392.89h-5.69v-19.11h5.69V392.89z"/>
		<path fill="#FFFFFF" d="M1151.86,383.35c0,6.12-3.53,10.15-9.36,10.15c-5.79,0-9.36-3.74-9.36-10.19c0-6.12,3.53-10.15,9.36-10.15
			S1151.86,376.91,1151.86,383.35z M1139.04,383.31c0,4.25,1.15,6.01,3.46,6.01s3.46-1.84,3.46-5.98c0-4.25-1.15-6.01-3.46-6.01
			S1139.04,379.17,1139.04,383.31z"/>
		<path fill="#FFFFFF" d="M1172.63,378.92v13.97h-5.69v-12.99c0-2.02-0.68-2.56-1.8-2.56c-1.26,0-2.3,0.9-3.31,2.48v13.07h-5.69
			v-19.11h4.97l0.4,2.27c1.62-1.87,3.46-2.88,5.83-2.88C1170.65,373.16,1172.63,375.29,1172.63,378.92z"/>
	</g>
</g>
<g id="Arrows">
	<g>
		<g>
			<path fill="none" stroke="#61578E" stroke-width="4" d="M1005,197
				c-80.97-46.27-252.06-44.22-380.74-30.58"/>
			<g>
				<polygon fill="#61578E" points="626.2,156.38 610,168 628.17,176.22 				"/>
			</g>
		</g>
	</g>
	<g>
		<g>
			<path fill="none" stroke="#61578E" stroke-width="4" d="M1005,237
				c-86.88,52.13-249.11,86.98-380.91,63.68"/>
			<g>
				<polygon fill="#61578E" points="628.82,291.35 610,297.94 625.11,310.95 				"/>
			</g>
		</g>
	</g>
	<g>
		<g>
			<path fill="none" stroke="#D07943" stroke-width="4" d="M478,172c-70.15-47.07-120.49-63.66-182.66-62.55
				"/>
			<g>
				<polygon fill="#D07943" points="297.94,99.48 281,110 298.58,119.41 				"/>
			</g>
		</g>
	</g>
	<g>
		<g>
			<path fill="none" stroke="#D07943" stroke-width="4" d="M478,298c-79.13,48.96-175.3,75.4-253.38,23.43"
				/>
			<g>
				<polygon fill="#D07943" points="232.85,314.9 213,313 221.28,331.14 				"/>
			</g>
		</g>
	</g>
</g>
<g id="Results">
	<circle fill="none" stroke="#61578E" stroke-width="8" cx="1076.5" cy="216.5" r="74.5"/>
	<g>
		<path fill="#61578E" d="M1043.49,226.11c0,6.3-3.82,8.5-8.03,9.86l-1.58-4.17c3.24-1.26,3.71-2.95,3.71-5.9v-20.95h5.9V226.11z"/>
		<path fill="#61578E" d="M1065.59,207.54l-2.74,3.2c-1.73-1.4-3.46-2.09-5.47-2.09c-2.05,0-3.35,0.86-3.35,2.45
			c0,1.58,0.94,2.23,4.82,3.46c4.72,1.51,7.42,3.46,7.42,8.06c0,4.64-3.67,7.88-9.9,7.88c-4.32,0-7.42-1.58-9.47-3.56l2.99-3.28
			c1.84,1.55,3.82,2.45,6.3,2.45c2.45,0,3.96-1.15,3.96-3.06c0-1.84-0.94-2.66-4.57-3.78c-5.58-1.73-7.63-4.03-7.63-7.74
			c0-4.39,3.82-7.2,9-7.2C1060.77,204.33,1063.4,205.45,1065.59,207.54z"/>
		<path fill="#61578E" d="M1091.76,217.4c0,8.17-4.21,13.1-11.27,13.1c-7.02,0-11.23-4.79-11.23-13.1c0-8.13,4.21-13.07,11.23-13.07
			C1087.55,204.33,1091.76,209.08,1091.76,217.4z M1075.46,217.4c0,6.33,1.8,8.78,5.04,8.78c3.38,0,5.08-2.45,5.08-8.78
			c0-6.3-1.73-8.75-5.08-8.75C1077.19,208.65,1075.46,211.1,1075.46,217.4z"/>
		<path fill="#61578E" d="M1115.42,229.89h-7.52l-7.2-19.33c0.29,2.27,0.76,5.58,0.76,10.19v9.14h-5.25v-24.95h7.34l7.38,19.37
			c-0.32-2.02-0.79-5.29-0.79-9.29v-10.08h5.29V229.89z"/>
	</g>
</g>
<g id="API">
	<g>
		<path fill="#C45814" d="M468,348c0,16.57,13.43,30,30,30h82c16.57,0,30-13.43,30-30V112c0-16.57-13.43-30-30-30h-82
			c-16.57,0-30,13.43-30,30V348z"/>
	</g>
	<g>
		<path fill="#FFFFFF" d="M513.28,217.68c0,5.44-3.35,7.27-6.59,8.42l-1.44-3.71c2.38-1.12,2.63-2.34,2.63-4.75V200.4h5.4V217.68z"
			/>
		<path fill="#FFFFFF" d="M531.39,202.63l-2.38,2.74c-1.22-1.04-2.56-1.58-3.96-1.58c-1.4,0-2.27,0.65-2.27,1.8
			c0,1.15,0.58,1.66,3.24,2.63c3.85,1.37,5.54,3.1,5.54,6.48c0,4-2.95,6.7-7.81,6.7c-3.53,0-6.15-1.37-7.67-3.02l2.56-2.88
			c1.44,1.22,2.92,1.98,4.72,1.98c1.73,0,2.59-0.86,2.59-2.23s-0.61-2.05-2.95-2.84c-4.64-1.66-5.79-3.53-5.79-6.33
			c0-4,3.42-6.16,7.42-6.16C527.46,199.9,529.69,200.87,531.39,202.63z"/>
		<path fill="#FFFFFF" d="M551.58,210.59c0,7.09-3.13,10.8-8.67,10.8c-5.58,0-8.67-3.56-8.67-10.83c0-6.98,3.1-10.65,8.67-10.65
			C548.45,199.9,551.58,203.42,551.58,210.59z M539.81,210.55c0,5.36,0.97,6.98,3.1,6.98s3.02-1.62,3.02-6.95
			c0-5.22-0.97-6.8-3.02-6.8C540.82,203.78,539.81,205.37,539.81,210.55z"/>
		<path fill="#FFFFFF" d="M570.41,220.85h-6.66l-4.43-15.73c0.25,2.2,0.61,5.26,0.61,8.64v7.09h-4.57V200.4h6.62l4.46,15.73
			c-0.29-2.34-0.61-5.58-0.61-8.28v-7.45h4.57V220.85z"/>
		<path fill="#FFFFFF" d="M527.37,252.63h-4.82l-0.79,4.21h-5.44l5.47-20.45h6.44l5.44,20.45h-5.47L527.37,252.63z M526.62,248.78
			l-1.69-8.64l-1.62,8.64H526.62z"/>
		<path fill="#FFFFFF" d="M550.77,243.17c0,4.79-3.06,7.06-7.81,7.06h-1.48v6.62h-5.44V236.4h6.33
			C547.71,236.4,550.77,238.63,550.77,243.17z M545.37,243.17c0-2.16-1.08-2.99-2.81-2.99h-1.08v6.19h1.12
			C544.29,246.37,545.37,245.58,545.37,243.17z"/>
		<path fill="#FFFFFF" d="M559.45,256.85h-5.44V236.4h5.44V256.85z"/>
	</g>
</g>
</svg>
