<svg xmlns="http://www.w3.org/2000/svg" width="1024" height="640" viewBox="0 0 1024 640"><defs><style>.cls-1{fill:#2a4b9a;}.cls-2{fill:#dcdcdc;}.cls-3{fill:#fafafa;}.cls-4,.cls-5{isolation:isolate;}.cls-5{font-size:63.2px;font-family:Arial-BoldMT, Arial;font-weight:700;}.cls-6{fill:#333;}.cls-7{fill:#2d61aa;}.cls-8{fill:#e62583;}.cls-9{fill:#d41316;}</style></defs><title>web2.0</title><rect id="rect3404" class="cls-1" x="148.42" y="166.35" width="58.32" height="59.59"/><rect id="rect3406" class="cls-2" x="148.42" y="224.03" width="58.32" height="59.59"/><rect id="rect3408" class="cls-3" x="90.73" y="166.35" width="58.32" height="59.59"/><rect id="rect3410" x="90.73" y="224.03" width="58.32" height="59.59"/><g id="text8934" class="cls-4"><text class="cls-5" transform="translate(221.35 242.09)">del.icio.us</text></g><path class="cls-6" d="M109.78,387v27H78.94v65.53h50.12V387Zm0,77.09H98.22V429.4h11.56Z"/><rect class="cls-6" x="136.77" y="413.98" width="19.27" height="65.53"/><rect class="cls-6" x="136.77" y="387" width="19.27" height="19.27"/><path class="cls-6" d="M163.75,414v65.53h30.84v7.71H163.75v15.42h50.11V414Zm30.84,50.11H183V429.4h11.57Z"/><path class="cls-6" d="M221.57,414v65.53h30.84v7.71H221.57v15.42h50.12V414Zm30.84,50.11H240.85V429.4h11.56Z"/><g id="g2403"><g id="g2405"><path id="path2407" class="cls-7" d="M475.12,357.46H454.53V332.11h21.18v-6.44c0-31.18,14.18-42.05,42.15-42.05a93.18,93.18,0,0,1,17.87,2l-2.14,24.95A31.08,31.08,0,0,0,522.52,309c-8.94,0-12.43,6.44-12.43,16.7v6.44H535v25.35H510.09v79.47h-35Z"/><rect id="rect2409" class="cls-7" x="553.21" y="286.04" width="34.96" height="150.89"/><rect id="rect2411" class="cls-7" x="618.08" y="288.45" width="34.96" height="26.56"/><rect id="rect2413" class="cls-7" x="618.08" y="332.11" width="34.96" height="104.82"/><path id="path2415" class="cls-7" d="M758.14,362.08c-6.41-4-12.82-5.83-21.18-5.83-15.15,0-26.8,10.86-26.8,29,0,16.7,13.6,27.56,28.75,27.56,8,0,15.93-1.81,21.75-5l.78,27a91.29,91.29,0,0,1-28.55,4.63c-33.42,0-58.86-20.12-58.86-54.72,0-34.81,25.44-54.92,58.86-54.92,10.49,0,19.81,1.81,27.77,5.83Z"/><polygon id="polygon2417" class="cls-7" points="776.01 286.04 810.97 286.04 810.97 376.17 811.36 376.17 840.5 332.11 878.76 332.11 843.61 380.19 881.68 436.93 839.33 436.93 811.36 385.02 810.97 385.02 810.97 436.93 776.01 436.93 776.01 286.04"/><path id="path2419" class="cls-8" d="M967,361.08c-3.89-1.21-7.77-1.21-11.85-1.21-16.31,0-25.45,12.27-25.45,32.8v44.26h-35V332.11h31.86v19.31h.39c6-13.28,14.76-21.73,29.91-21.73a72.16,72.16,0,0,1,11.85,1.21Z"/></g></g><g id="g3"><path id="path5" class="cls-9" d="M483.78,579.79l-5.4-14.7s-8.79,9.8-22,9.8c-11.65,0-19.93-10.13-19.93-26.35,0-20.77,10.47-28.2,20.78-28.2,14.86,0,19.59,9.62,23.64,21.95l5.41,16.89c5.4,16.39,15.53,29.56,44.75,29.56,20.95,0,35.13-6.42,35.13-23.31,0-13.68-7.77-20.77-22.29-24.15l-10.81-2.36c-7.43-1.69-9.63-4.73-9.63-9.8,0-5.74,4.56-9.12,12-9.12,8.11,0,12.5,3,13.18,10.3l16.89-2c-1.36-15.2-11.83-21.45-29-21.45-15.2,0-30.07,5.74-30.07,24.15,0,11.48,5.58,18.75,19.59,22.12l11.49,2.7c8.61,2,11.48,5.58,11.48,10.48,0,6.24-6.08,8.78-17.56,8.78-17.06,0-24.15-8.95-28.21-21.28l-5.57-16.89c-7.09-22-18.41-30.06-40.87-30.06-24.83,0-38,15.7-38,42.39,0,25.67,13.17,39.52,36.82,39.52,19.08,0,28.2-9,28.2-9Z"/><path id="path7" class="cls-9" d="M411.51,571.85a18.34,18.34,0,0,1-5.58.84c-4.05,0-6.92-1.85-6.92-6.75V473.89H381.27v96.27c0,12.67,8.79,17.9,19.09,17.9A42.12,42.12,0,0,0,411,586.54l.51-14.69Z"/><path id="path9" class="cls-9" d="M625.15,569.15c-4.4,3-8.11,4.56-13.18,4.56-6.42,0-10-3.38-10-11.66V522.53h23.31V508.68H602.18V489.93l-17.91,2.2v16.55H573v13.85h11.31v43.24c0,15.54,9,23,23.48,23,7.94,0,15-1.52,20.61-4.73l-3.21-14.86Z"/><path id="path11" class="cls-9" d="M640.55,575.23a12.5,12.5,0,1,0,12.33-12.5,12.33,12.33,0,0,0-12.33,12.5Z"/><path id="path13" class="cls-9" d="M683.91,522.53v64.18h17.73V522.53h19.93V508.68H701.64v-7.09c0-10.64,4.56-14,12-14A24.61,24.61,0,0,1,726.47,491l2.87-14.87a40,40,0,0,0-17.06-3.38c-14.86,0-28.37,7.1-28.37,28.21v7.77H672.59v13.85Z"/><path id="path15" class="cls-9" d="M792.24,524.05c-2-12.67-10.31-17.23-21.12-17.23S751,511.72,747,523.71l-2.19-15H730.42v78h17.73V542.63c0-15,7.77-20.78,16.05-20.78,8.61,0,12.16,5.75,12.16,15v49.82h17.57V542.46c0-14.86,7.93-20.61,16.21-20.61,8.45,0,12,5.75,12,15v49.82h17.74V530.64c0-16.72-9.8-23.82-22.81-23.82-11,0-20.77,4.9-24.82,17.23Z"/></g></svg>
