<?xml version="1.0" encoding="utf-8"?>
<!DOCTYPE svg PUBLIC "-//W3C//DTD SVG 1.1//EN" "http://www.w3.org/Graphics/SVG/1.1/DTD/svg11.dtd">
<svg version="1.1" xmlns="http://www.w3.org/2000/svg" width="900" height="400">
<style>
@font-face{font-family:'Open Sans';src:local("Open Sans"),local("OpenSans"),url(../../_shared/fonts/OpenSans.woff2) format("woff2"),url(../../_shared/fonts/OpenSans.woff) format("woff")}@font-face{font-weight:700;font-family:'Open Sans';src:local("Open Sans Bold"),local("OpenSans-Bold"),url(../../_shared/fonts/OpenSans.Bold.woff2) format("woff2"),url(../../_shared/fonts/OpenSans.Bold.woff) format("woff")}@font-face{font-style:italic;font-family:'Open Sans';src:local("Open Sans Italic"),local("OpenSans-Italic"),url(../../_shared/fonts/OpenSans.Italic.woff2) format("woff2"),url(../../_shared/fonts/OpenSans.Italic.woff) format("woff")}@font-face{font-style:italic;font-weight:700;font-family:'Open Sans';src:local("Open Sans Bold Italic"),local("OpenSans-BoldItalic"),url(../../_shared/fonts/OpenSans.Bold.Italic.woff2) format("woff2"),url(../../_shared/fonts/OpenSans.Bold.Italic.woff) format("woff")}@font-face{font-weight:300;font-family:'Open Sans';src:local("Open Sans Light"),local("OpenSans-Light"),url(../../_shared/fonts/OpenSans.Light.woff2) format("woff2"),url(../../_shared/fonts/OpenSans.Light.woff) format("woff")}@font-face{font-family:'Source Code Pro';src:local("Source Code Pro"),local("SourceCodePro-Regular"),url(../../_shared/fonts/SourceCodePro.woff2) format("woff2"),url(../../_shared/fonts/SourceCodePro.woff) format("woff")}@font-face{font-weight:700;font-family:'Source Code Pro';src:local("Source Code Pro Bold"),local("SourceCodePro-Bold"),url(../../_shared/fonts/SourceCodePro.Bold.woff2) format("woff2"),url(../../_shared/fonts/SourceCodePro.Bold.woff) format("woff")}

polyline {
  fill: none;
  stroke-width: 10px;
}
line {
  fill: none;
  stroke: black;
  stroke-width: 2px;
}

text   { font: 22px 'Open Sans'; }
.label { font-weight: bold; }
.title { font-size: 26px; }
#values text { font-style: italic; }
</style>
  <polyline stroke="#C0C2C5" points="10.55,69.24 10.55,69.24 58.65,150.73 113.16,181.12 218.97,213.3 430.61,246.14 789.74,261.23"/>
  <polyline stroke="#93B6DA" points="10.55,55.98 58.65,133.53 113.16,173.17 218.97,206.3 430.61,228.52 789.74,251.08"/>
  <polyline stroke="#979A9E" points="10.55,43.63 58.65,120.72 113.16,153.31 218.97,187.75 430.61,220.8 789.74,247.27"/>
  <polyline stroke="#453688" points="10.55,28.18 13.76,33.19 20.17,49.64 33,73.84 58.65,102.55 113.16,134.08 218.97,164.7 430.61,195.54 789.74,212.73"/>
  <polyline stroke="#D76016" points="10.55,217.66 13.76,233.98 20.17,239.92 33,270.38 58.65,275.97 113.16,289.25 218.97,292.33 430.61,282.27 789.74,276.05"/>

  <text x="804" y="216" fill="#453688" class="label">Virtuoso</text>
  <text x="804" y="251" fill="#979A9E" class="label">Fuseki</text>
  <text x="804" y="285" fill="#D76016" class="label">TPF</text>

  <g id="values">
    <text x="278" y="120" class="title">queries per client per hour (logarithmic scale)</text>
    <text x="7"   y="22"  fill="#453688">11,223</text>
    <text x="7"   y="212" fill="#D76016">130</text>
    <text x="756" y="201" fill="#453688">146</text>
    <text x="767" y="304" fill="#D76016">33</text>
  </g>

  <line x1="7"   y1="356" x2="790" y2="356"/>
  <line x1="7"   y1="348" x2="7"   y2="365"/>
  <line x1="790" y1="348" x2="790" y2="365"/>
  <text x="0"   y="395">1</text>
  <text x="769" y="395">244</text>
  <text x="250" y="395">number of simultaneous clients</text>
</svg>
