<?xml version="1.0" encoding="utf-8"?>
<!DOCTYPE svg PUBLIC "-//W3C//DTD SVG 1.1//EN" "http://www.w3.org/Graphics/SVG/1.1/DTD/svg11.dtd">
<svg version="1.1" xmlns="http://www.w3.org/2000/svg" width="900" height="400">
<style>
@font-face{
 font-family: 'Open Sans';
 src: url(../../_shared/fonts/OpenSans.woff) format('woff')
}
@font-face{
 font-style: italic;
 font-family: 'Open Sans';
 src: url(../../_shared/fonts/OpenSans.Italic.woff) format('woff')
}
@font-face{
 font-weight: 700;
 font-family: 'Open Sans';
 src: url(../../_shared/fonts/OpenSans.Bold.woff) format('woff')
}

polyline {
  fill: none;
  stroke-width: 10px;
}
line {
  fill: none;
  stroke: black;
  stroke-width: 2px;
}

text   { font: 22px 'Open Sans'; }
.label { font-weight: bold; }
.title { font-size: 26px; }
#values text { font-style: italic; }
</style>
  <polyline stroke="#4B86C2" points="7.22,352.81 10.45,348.35 10.45,347.55 16.9,341.4 16.9,340.22 29.81,333.1 29.81,331.79 55.61,324.58 55.61,324.02 110.45,317.33 216.91,313.68 429.82,325.61 791.13,315.34"/>
  <polyline stroke="#C0C2C5" points="7.22,353.98 55.61,344.09 110.45,343.55 216.91,343.14 429.82,343.68 791.13,343.67"/>
  <polyline stroke="#979A9E" points="7.22,353.54 55.61,334.18 110.45,331.96 216.91,331.5 429.82,335.44 791.13,333.62"/>
  <polyline stroke="#CC4320" points="7.22,343.31 10.45,328.13 16.9,304.15 29.81,256.77 55.61,167.09 110.45,87.41 216.91,62.79 429.82,58.43 789,19.85"/>
  <polyline stroke="#93B6DA" points="7.22,353.77 55.61,340.26 110.45,340.67 216.91,339.11 429.82,337.51 791.13,336.1"/>

  <text x="804" y="27"  fill="#CC4320" class="label">TPF</text>
  <text x="804" y="323" fill="#4B86C2" class="label">Virtuoso</text>
  <text x="804" y="353" fill="#979A9E" class="label">Fuseki</text>

  <g id="values">
    <text x="444" y="120" class="title">data reused by the cache (MB)</text>
    <text x="748" y="55" fill="#CC4320">21.9</text>
    <text x="761" y="300" fill="#4B86C2">2.8</text>
  </g>

  <line x1="7"   y1="356" x2="790" y2="356"/>
  <line x1="7"   y1="348" x2="7"   y2="365"/>
  <line x1="790" y1="348" x2="790" y2="365"/>
  <text x="0"   y="395">1</text>
  <text x="769" y="395">244</text>
  <text x="250" y="395">number of simultaneous clients</text>
</svg>
