<?xml version="1.0" encoding="utf-8"?>
<!DOCTYPE svg PUBLIC "-//W3C//DTD SVG 1.1//EN" "http://www.w3.org/Graphics/SVG/1.1/DTD/svg11.dtd">
<svg version="1.1" xmlns="http://www.w3.org/2000/svg" width="900" height="400">
<style>
@font-face{font-family:'Open Sans';src:local("Open Sans"),local("OpenSans"),url(../../_shared/fonts/OpenSans.woff2) format("woff2"),url(../../_shared/fonts/OpenSans.woff) format("woff")}@font-face{font-weight:700;font-family:'Open Sans';src:local("Open Sans Bold"),local("OpenSans-Bold"),url(../../_shared/fonts/OpenSans.Bold.woff2) format("woff2"),url(../../_shared/fonts/OpenSans.Bold.woff) format("woff")}@font-face{font-style:italic;font-family:'Open Sans';src:local("Open Sans Italic"),local("OpenSans-Italic"),url(../../_shared/fonts/OpenSans.Italic.woff2) format("woff2"),url(../../_shared/fonts/OpenSans.Italic.woff) format("woff")}@font-face{font-style:italic;font-weight:700;font-family:'Open Sans';src:local("Open Sans Bold Italic"),local("OpenSans-BoldItalic"),url(../../_shared/fonts/OpenSans.Bold.Italic.woff2) format("woff2"),url(../../_shared/fonts/OpenSans.Bold.Italic.woff) format("woff")}@font-face{font-weight:300;font-family:'Open Sans';src:local("Open Sans Light"),local("OpenSans-Light"),url(../../_shared/fonts/OpenSans.Light.woff2) format("woff2"),url(../../_shared/fonts/OpenSans.Light.woff) format("woff")}@font-face{font-family:'Source Code Pro';src:local("Source Code Pro"),local("SourceCodePro-Regular"),url(../../_shared/fonts/SourceCodePro.woff2) format("woff2"),url(../../_shared/fonts/SourceCodePro.woff) format("woff")}@font-face{font-weight:700;font-family:'Source Code Pro';src:local("Source Code Pro Bold"),local("SourceCodePro-Bold"),url(../../_shared/fonts/SourceCodePro.Bold.woff2) format("woff2"),url(../../_shared/fonts/SourceCodePro.Bold.woff) format("woff")}

polyline {
  fill: none;
  stroke-width: 10px;
}
line {
  fill: none;
  stroke: black;
  stroke-width: 2px;
}

text   { font: 22px 'Open Sans'; }
.label { font-weight: bold; }
.title { font-size: 26px; }
#values text { font-style: italic; }
</style>
  <polyline stroke="#C0C2C5" points="10.63,311.17 58.68,64.76 113.14,45.79 218.84,38.14 430.26,41.38 789.04,38.75 	"/>
  <polyline stroke="#979A9E" points="10.63,323.39 58.68,85.66 113.14,53.53 218.84,40.17 430.26,28.18 789.04,23.53 	"/>
  <polyline stroke="#CC4320" points="10.63,346 13.83,333.85 20.24,318.49 33.05,302.56 58.68,269.37 113.14,250.29 218.84,248.83 430.26,248.76 789.04,253.75 	"/>
  <polyline stroke="#93B6DA" points="10.63,321.66 58.68,95.74 113.14,86 218.84,68.84 430.26,50.68 789.04,39.64 	"/>
  <polyline stroke="#453688" points="10.63,338.18 10.63,334.06 13.83,316.54 13.83,309.46 20.24,255.6 20.24,240.3 33.05,193.64 33.05,180.54 58.68,136.27 58.68,124.73 113.14,81.12 218.84,58.95 430.26,53.08 789.04,45.19 	"/>

  <text x="804" y="262" fill="#CC4320" class="label">TPF</text>
  <text x="804" y="55"  fill="#453688" class="label">Virtuoso</text>
  <text x="804" y="29"  fill="#979A9E" class="label">Fuseki</text>

  <g id="values">
    <text x="489" y="120" class="title">server CPU usage per core</text>
    <text x="748" y="284" fill="#CC4320">30%</text>
    <text x="696" y="75"  fill="#453688">91%<tspan fill="#979A9E">–97%</tspan></text>
  </g>

  <line x1="7"   y1="356" x2="790" y2="356"/>
  <line x1="7"   y1="348" x2="7"   y2="365"/>
  <line x1="790" y1="348" x2="790" y2="365"/>
  <text x="0"   y="395">1</text>
  <text x="769" y="395">244</text>
  <text x="250" y="395">number of simultaneous clients</text>
</svg>
