<?xml version="1.0" encoding="utf-8"?>
<!DOCTYPE svg PUBLIC "-//W3C//DTD SVG 1.1//EN" "http://www.w3.org/Graphics/SVG/1.1/DTD/svg11.dtd">
<svg version="1.1" xmlns="http://www.w3.org/2000/svg" width="50px" height="41px">
<path fill="white" stroke="#CC4320" stroke-width="6" d="M7.69,37.9c-2.2,0-3.1-1.56-2-3.46L23,4.45c1.1-1.9,2.9-1.9,4,0l17.31,29.99c1.1,1.91,0.2,3.46-2,3.46H7.69z"/>
<path fill="#555555" d="M32.11,25.49c0,4.97-2.55,8.12-7.15,8.12c-4.6,0-7.15-3.04-7.15-8.12c0-4.97,2.55-8.07,7.15-8.07C29.56,17.41,32.11,20.4,32.11,25.49z M22.52,25.49c0,3.54,0.73,4.91,2.44,4.91c1.76,0,2.44-1.36,2.44-4.91c0-3.54-0.73-4.86-2.44-4.86S22.52,21.94,22.52,25.49z"/>
</svg>
