<?xml version="1.0" encoding="utf-8"?>
<!-- Generator: Adobe Illustrator 23.0.1, SVG Export Plug-In . SVG Version: 6.00 Build 0)  -->
<svg version="1.1" id="Layer_1" xmlns="http://www.w3.org/2000/svg" xmlns:xlink="http://www.w3.org/1999/xlink" x="0px" y="0px"
	 viewBox="0 0 1000 1000" style="enable-background:new 0 0 1000 1000;" xml:space="preserve">
<style type="text/css">
	.st0{fill:#9A4350;}
</style>
<path class="st0" d="M420.5,496.5c-0.1-28.1-19-52.6-46.2-59.7l59.2-174.7H139.9l59.4,175.3c-26.4,7.7-44.5,31.8-44.5,59.3
	c0,20.7,10.3,39,26.2,50.2c-6.2,8.8-13.4,16.9-21.5,24.7c-15.3,14.3-32.2,25.4-50.6,32.7c-16.5-11.2-23.7-30.9-17.2-48.5
	c25.1-7.7,43.5-31.4,43.5-59c-0.1-34-27.6-61.6-61.6-61.6c-34.1,0-61.7,27.7-61.7,61.7c0,16.8,6.9,32.2,17.9,43.3l-2.9,5.9
	c-9.2,19-19.7,40.5-23.7,64.6c-8,48.1,5.1,87,36.7,108.9c17.8,12.3,37.3,18.5,58.4,18.5c36.2,0,73-18.2,108.6-35.8
	c25.4-12.6,51.5-25.6,77.4-32c9.4-2.3,19.4-3.7,29.9-5.2c21.2-3.1,43.1-6.2,62.8-17.6c23-13.4,38.7-35.7,43.3-61.3
	c3.5-19.7,0-39.5-8.8-56.9c6.1-9.8,9.3-21.1,9.2-32.7L420.5,496.5z M393.6,496.5c0,19.1-15.7,34.7-34.7,34.7
	c-19.3-0.2-34.8-16-34.6-35.3c0.1-5.8,1.6-11.6,4.4-16.7c1.1-1.9,2.5-3.9,3.9-5.5c1.4-1.7,3.1-3.2,4.8-4.6l0.1-0.1
	c1.1-0.8,2.3-1.7,3.6-2.5c0.7-0.4,1.3-0.8,1.8-1.1c0.1,0,0.3-0.1,0.4-0.1c0.6-0.3,1.3-0.6,1.9-0.8c0.7-0.3,1.4-0.6,1.9-0.8
	c0.1,0,0.3-0.1,0.4-0.1c0.6-0.1,1.1-0.4,1.7-0.6c0.1,0,0.4-0.1,0.6-0.1l1.9-0.4h0.1l2.1-0.4c0.1,0,0.4,0,0.6-0.1
	c0.6,0,1.1-0.1,1.7-0.1h0.7c0.7,0,1.4-0.1,2.1-0.1h1.8c0.5,0,1,0,1.5,0.1h0.3c1.1,0.1,2.2,0.3,3.3,0.6c16.1,3.5,27.7,17.7,27.7,34.2
	L393.6,496.5z M178.3,289.6h216.8l-49.7,146.8c-2.1,0.4-4.1,1.1-6.2,1.8l-52.4-106.7l-52.5,106c-2.1-0.7-4.3-1.1-6.5-1.5
	L178.3,289.6z M276.9,484.5c-2.5-12.7-9.1-24.3-18.6-33.1l28.5-57.6l28.8,58.8c-8.5,8.5-14.6,19.4-17.2,31.8L276.9,484.5z
	 M207.8,462.7l1.9-0.4h0.4c0.6-0.1,1.1-0.1,1.7-0.3h0.6c0.6,0,1-0.1,1.5-0.1h5.4c0.6,0,1,0.1,1.4,0.1c0.3,0,0.4,0,0.7,0.1
	c0.6,0.1,1,0.1,1.5,0.3c0.1,0,0.3,0,0.6,0.1l1.9,0.4c0.6,0.1,1.2,0.3,1.8,0.6c0.1,0,0.3,0.1,0.6,0.1c0.4,0.1,1,0.3,1.4,0.6
	c0.1,0,0.3,0.1,0.4,0.1c0.6,0.3,1.1,0.4,1.7,0.7h0.1c0.6,0.2,1.2,0.6,1.8,1c0.7,0.3,1.3,0.7,1.8,1c0.1,0,0.1,0.1,0.3,0.1
	c0.6,0.3,1,0.7,1.5,1l0.1,0.1c1.6,1.3,3.2,2.6,4.7,4l0.1,0.1c1.4,1.5,2.7,3.2,3.9,5c3.7,5.7,5.7,12.3,5.6,19
	c0,19.1-15.7,34.7-34.7,34.7c-19.1-0.1-34.6-15.6-34.7-34.7C181.5,480.2,192.7,466.5,207.8,462.7L207.8,462.7z M72.2,461.7
	c19.1,0,34.7,15.7,34.7,34.7c-0.1,19.1-15.6,34.6-34.7,34.7c-19.1-0.1-34.6-15.6-34.7-34.7C37.6,477.3,53.1,461.9,72.2,461.7z
	 M392.7,581.2c-3.1,17.6-13.9,33.1-29.9,42.3c-15,8.7-33.5,11.4-52.9,14.2c-10.6,1.5-21.8,3.2-32.4,5.8c-28.7,7-56.2,20.9-82.9,34
	c-34.2,16.9-66.4,32.9-96.2,32.9c-15.7,0-29.5-4.4-42.7-13.6c-30.5-21.1-29-60.2-25.3-81.7c3.3-20.1,12.6-39,21.4-57
	c0.6-1.1,1-2.1,1.5-3.2c3.1,1.1,6.3,1.9,9.5,2.5c-5.2,29.2,9.6,59.4,38.7,74.3l5.2,2.8l5.6-2.1c24.1-8.5,46.4-22.5,66.1-41.1
	c10.9-10.2,20.5-21.6,28.7-34c3.1,0.5,6.3,0.7,9.4,0.7c28.1-0.1,52.6-19,59.7-46.2h23.1c6.9,26.6,31,46.2,59.7,46.2
	c11,0,21.7-3,31.1-8.5c3.6,10.3,4.7,21.1,2.8,31.8L392.7,581.2z M613.6,566.2c-1.9,6.3-5.1,12.2-9.5,17.1c-4.4,5-10.3,9-17.8,12
	c-7.4,3-16.5,4.6-27.4,4.6c-18.2,0-32.2-4.8-42-14.3c-9.8-9.5-14.6-23.7-14.6-42.2v-11.9h26v8.4c-0.1,5.3,0.4,10.5,1.4,15.7
	c1,4.8,2.5,8.8,4.8,12.3c2.4,3.5,5.7,6.3,9.5,8.1c4.1,1.9,9.4,2.9,15.7,2.9c11.9,0,19.9-3.2,24.5-9.4c4.4-6.3,6.8-14.9,6.8-25.6
	V400.3h25.9v146.6C616.7,553.5,615.6,560,613.6,566.2L613.6,566.2z M755.4,586.5c-10.6,8-23.8,12-40,12c-11.3,0-21.1-1.8-29.4-5.5
	c-8.1-3.4-15.2-8.7-20.9-15.3c-5.6-6.6-9.9-14.3-12.7-23.6c-2.9-9.1-4.4-19-4.8-29.8c0-10.8,1.7-20.5,5-29.5
	c3.1-8.6,7.7-16.5,13.8-23.3c5.8-6.6,13-11.8,21.1-15.3c8.1-3.6,16.9-5.5,26.6-5.5c12.6,0,23,2.6,31.4,7.8
	c8.4,5.2,14.9,11.9,19.9,19.8c5,8,8.5,16.9,10.3,26.2c1.8,8.9,2.6,17.9,2.3,27H672.4c-0.2,5.9,0.5,11.9,2.1,17.6
	c1.5,5.5,4.3,10.5,8,14.6c3.6,4.3,8.4,7.7,13.9,10.2c5.6,2.6,12.3,3.9,19.9,3.9c9.8,0,17.9-2.3,24.3-6.9
	c6.3-4.6,10.5-11.4,12.4-20.9h23c-3.2,16.1-9.9,28.1-20.5,36.1L755.4,586.5z M749.7,495.8c-2.1-5-5-9.1-8.4-12.7
	c-3.6-3.6-7.9-6.4-12.5-8.4c-4.8-2.1-10.2-3.2-16-3.2c-6.1,0-11.4,1.1-16.3,3.2s-9,5-12.4,8.5c-3.5,3.7-6.3,8-8.4,12.7
	c-2.2,4.8-3.2,9.9-3.6,15.4h81.2c-0.4-5.4-1.6-10.6-3.7-15.6H749.7z M819.9,563.8c2.1,3.5,5.1,6.3,8.5,8.4c3.7,2.1,7.8,3.7,12,4.6
	c4.4,1,9.1,1.4,13.8,1.4c3.8,0,7.6-0.3,11.4-0.8c3.8-0.5,7.5-1.5,11-3c3.3-1.5,6.2-3.6,8.4-6.5c2.1-2.8,3.3-6.5,3.3-10.8
	c0-6.1-2.3-10.6-6.9-13.6s-10.2-5.6-17.1-7.6l-22.3-5.2c-8-1.5-15.4-3.7-22.3-6.6c-6.6-2.6-12.4-6.6-17.1-11.9
	c-4.5-5.1-6.9-12.3-6.9-21.4c0-7.2,1.7-13.2,4.8-18.3c3.1-5,7.3-9.3,12.3-12.4c5-3.2,10.6-5.5,16.9-7.2c6.1-1.5,12.4-2.3,18.7-2.3
	c7.4-0.1,14.9,0.6,22.2,2.1c6.7,1.4,12.7,3.7,17.9,7.2c5.2,3.3,9.4,8,12.4,13.6c3.1,5.8,5,12.9,5.5,21.5h-23.3
	c-0.4-4.6-1.5-8.4-3.6-11.3c-2-2.9-4.7-5.4-7.7-7.3c-3.1-1.8-6.5-3.2-10.2-4s-7.6-1.3-11.3-1.3c-3.5,0-7,0.3-10.5,0.8
	c-3.3,0.5-6.6,1.5-9.6,2.9c-2.8,1.3-5.2,3.2-7.2,5.5c-1.8,2.3-2.8,5.2-2.8,8.8c0,4,1.4,7.3,4.3,9.9c2.8,2.6,6.5,4.8,10.8,6.6
	c4.4,1.8,9.2,3.2,14.6,4.4l16.4,3.7c5.8,1.3,11.5,2.8,17.1,4.7c5.2,1.7,10.2,4.1,14.6,7.3c4.2,3,7.8,6.8,10.3,11.3
	c2.6,4.6,4,10.2,4,16.9c0,8.5-1.8,15.7-5.4,21.4c-3.5,5.6-8.3,10.2-13.9,13.6c-5.8,3.5-12.3,5.9-19.4,7.3
	c-7.1,1.4-14.3,2.1-21.5,2.1c-7.6,0-15.1-0.8-22.5-2.5c-6.8-1.4-13.2-4.2-18.9-8.1c-5.5-3.7-9.8-8.7-13.1-14.6
	c-3.3-6-5.1-13.6-5.5-22.3h23.3c0.7,5.2,1.9,9.6,4.1,13.1L819.9,563.8z M999.2,454.2v20.5H971v87.8c0,2.8,0.3,5,0.7,6.6
	s1.4,2.9,2.6,3.9c1.2,1,3.1,1.5,5.4,1.8c2.2,0.3,5.2,0.4,8.8,0.4h10.6v20.5h-17.8c-6.1,0-11.2-0.4-15.4-1.3s-7.7-2.3-10.3-4.6
	s-4.6-5.2-5.9-9.2c-1.3-4-1.9-9.2-1.9-15.8v-90h-24.1v-20.5h24.1v-42.4H971v42.3L999.2,454.2z"/>
</svg>
