<?xml version="1.0" encoding="utf-8"?>
<!DOCTYPE svg PUBLIC "-//W3C//DTD SVG 1.1//EN" "http://www.w3.org/Graphics/SVG/1.1/DTD/svg11.dtd">
<svg version="1.1" xmlns="http://www.w3.org/2000/svg" width="420" height="180">
<polygon fill="#528299" points="19.66,40.01 36.22,23.46 19.66,23.46"/>
<polygon fill="#528299" points="62.04,40.01 78.60,23.46 62.04,23.46"/>
<path fill="#333333" d="M227.05,111.01v10.66h-54.3V23.46h11.23v87.56H227.05z M36.22,121.68V90.01V26.28L19.66,42.84v3.27v43.89 v31.67H36.22z M362.88,112.14c3.88-0.02,7.41-0.7,10.64-2.06c3.2-1.33,5.99-3.23,8.35-5.68c2.34-2.48,4.16-5.38,5.45-8.72 c1.29-3.34,1.92-7.02,1.94-11.04c-0.02-3.98-0.65-7.65-1.94-10.99c-1.29-3.35-3.11-6.24-5.45-8.7c-2.36-2.48-5.14-4.4-8.35-5.75 c-3.23-1.36-6.76-2.03-10.64-2.06c-3.9,0.02-7.48,0.7-10.71,2.04c-3.23,1.36-6.03,3.25-8.4,5.71c-2.36,2.46-4.19,5.38-5.45,8.72 c-1.29,3.34-1.94,7.01-1.96,11.04c0.02,4.05,0.68,7.76,1.96,11.11c1.26,3.34,3.09,6.24,5.45,8.7c2.36,2.43,5.17,4.33,8.4,5.66 C355.39,111.43,358.97,112.11,362.88,112.14 M379.2,50.07c4.35,1.82,8.09,4.4,11.22,7.72c3.16,3.34,5.59,7.32,7.32,11.9 c1.71,4.58,2.57,9.66,2.59,15.22c-0.02,5.5-0.86,10.5-2.57,15.04c-1.68,4.54-4.07,8.47-7.2,11.76c-3.11,3.3-6.8,5.85-11.11,7.65 c-4.3,1.8-9.1,2.71-14.34,2.74c-6.62-0.05-12.39-1.47-17.28-4.3s-8.72-6.81-11.48-11.97v15.86h-10.94V17.56h10.94v46.16 c2.78-5.24,6.6-9.26,11.46-12.11c4.86-2.83,10.52-4.28,17.02-4.3C370.1,47.33,374.87,48.25,379.2,50.07z M264.65,112.7 c4.19-0.02,7.97-0.68,11.37-2.01c3.39-1.33,6.24-3.23,8.56-5.71c2.32-2.46,3.95-5.4,4.91-8.84V87.3h-23.01 c-6.17-0.02-10.88,0.96-14.03,2.9c-3.18,1.96-4.77,4.96-4.77,9.03c0.02,2.73,0.73,5.1,2.11,7.11c1.36,2.01,3.32,3.58,5.84,4.68 C258.18,112.11,261.17,112.67,264.65,112.7 M289.63,110.31c-2.97,4-6.73,6.99-11.32,8.96c-4.58,1.99-9.85,2.97-15.76,2.97 c-3.83-0.02-7.3-0.61-10.38-1.73c-3.09-1.15-5.71-2.74-7.9-4.77c-2.2-2.06-3.88-4.45-5.05-7.18c-1.17-2.74-1.75-5.71-1.78-8.91 c0.02-4.33,1.12-8.07,3.3-11.2c2.17-3.13,5.33-5.57,9.45-7.3c4.12-1.73,9.07-2.62,14.9-2.69h24.27v-4.35c0-3.62-0.75-6.71-2.22-9.29 c-1.5-2.57-3.7-4.54-6.64-5.89c-2.92-1.38-6.57-2.08-10.92-2.08c-4.04,0.02-8.02,0.75-11.88,2.2c-3.86,1.47-7.72,3.53-11.55,6.22 l-4.63-8c3.13-2.11,6.22-3.9,9.26-5.4c3.02-1.47,6.22-2.6,9.59-3.39c3.37-0.77,7.16-1.17,11.32-1.17c6.1,0.02,11.25,1.05,15.46,3.09 c4.21,2.06,7.44,4.98,9.63,8.77c2.2,3.81,3.34,8.37,3.39,13.68l0.14,48.83h-10.66V110.31z M62.04,87.64v34.04h39.85 c7.48-0.05,14.31-1.26,20.56-3.69c6.22-2.41,11.62-5.82,16.21-10.24c4.58-4.4,8.12-9.56,10.64-15.55c2.5-5.96,3.79-12.51,3.81-19.62 c-0.02-7.16-1.29-13.73-3.79-19.69s-6.01-11.16-10.55-15.55c-4.56-4.4-9.92-7.79-16.09-10.2c-6.17-2.41-12.96-3.65-20.37-3.67H81.42 L62.04,42.84v28.55v6.81v1.81v5.81V87.64z M78.6,78.2v-6.81V38.33h23.43c4.86,0.02,9.38,0.87,13.54,2.55 c4.16,1.68,7.79,4.05,10.92,7.11c3.11,3.06,5.54,6.69,7.27,10.88s2.62,8.79,2.64,13.84c-0.02,5-0.89,9.59-2.57,13.73 c-1.68,4.16-4.07,7.76-7.11,10.8c-3.04,3.02-6.59,5.38-10.69,7.04c-4.07,1.66-8.51,2.5-13.31,2.52H78.6V87.64v-1.81v-5.81V78.2z"/>
</svg>
