<?xml version="1.0" encoding="utf-8"?>
<!DOCTYPE svg PUBLIC "-//W3C//DTD SVG 1.1//EN" "http://www.w3.org/Graphics/SVG/1.1/DTD/svg11.dtd">
<svg version="1.1" xmlns="http://www.w3.org/2000/svg" width="566.93" height="283.46">
<path fill="#3F98BD" d="M116.05,86.62h-13.81c-1.81,0-3.08,1.27-3.08,3.08v13.8c0,1.81,1.27,3.08,3.08,3.08h13.81 c1.81,0,3.08-1.27,3.08-3.08v-13.8C119.12,87.88,117.86,86.62,116.05,86.62"/>
<path fill="#3C3C3B" d="M364.53,116.83c-23.82,0-34.77,12.7-34.77,40.17c0,28.26,11.75,39.84,38.9,39.84 c7.78,0,14.77-0.96,21.43-2.38c1.27-0.32,2.06-1.43,2.06-2.86v-10.48c0-1.91-1.11-2.54-2.86-2.22c-7.3,1.27-12.22,2.06-19.36,2.06 c-13.97,0-20.32-3.49-21.28-17.3h45.88c2.22,0,3.17-0.95,3.17-3.17v-0.32C397.71,129.54,388.03,116.83,364.53,116.83z M348.65,150.81c0.64-13.66,5.56-18.26,16.03-18.26c10,0,14.45,4.6,15.24,18.26H348.65z M191.11,180.25 c-1.15,0.17-3.28,0.5-5.75,0.5c-6.24,0-8.54-1.97-8.54-12.82v-48.47c0-1.65-0.99-2.63-2.63-2.63h-13.81 c-1.64,0-2.63,0.98-2.63,2.63v50.93c0,20.05,7.07,26.46,23.5,26.46c4.6,0,8.54-0.5,10.19-0.82c1.97-0.33,2.47-1.64,2.47-2.96 v-10.68C193.9,180.58,192.91,179.92,191.11,180.25z M290.98,116.84c-4.6,0-8.54,0.5-10.19,0.82c-1.97,0.33-2.47,1.64-2.47,2.96 v10.68c0,1.81,0.99,2.46,2.8,2.13c1.15-0.17,3.28-0.49,5.75-0.49c6.24,0,8.54,1.97,8.54,12.81v48.47c0,1.65,0.99,2.63,2.63,2.63 h13.81c1.64,0,2.63-0.98,2.63-2.63v-50.93C314.48,123.24,307.41,116.84,290.98,116.84z M247.69,116.84c-4.6,0-8.54,0.5-10.19,0.82 c-1.97,0.33-2.47,1.64-2.47,2.96v10.68c0,1.81,0.99,2.46,2.8,2.13c1.15-0.17,3.28-0.49,5.75-0.49c6.24,0,8.54,1.97,8.54,12.81 v48.47c0,1.65,0.99,2.63,2.63,2.63h13.81c1.64,0,2.63-0.98,2.63-2.63v-50.93C271.19,123.24,264.12,116.84,247.69,116.84z M204.79,116.84c-4.6,0-8.54,0.5-10.19,0.82c-1.97,0.33-2.47,1.64-2.47,2.96v10.68c0,1.81,0.99,2.46,2.8,2.13 c1.15-0.17,3.28-0.49,5.75-0.49c6.24,0,8.54,1.97,8.54,12.81v48.47c0,1.65,0.99,2.63,2.63,2.63h13.81c1.64,0,2.63-0.98,2.63-2.63 v-50.93C228.29,123.24,221.22,116.84,204.79,116.84z M452.05,132.87c3.97,0,7.61,0.32,12.85,0.95c1.75,0.16,2.86-0.32,2.86-2.38 v-10c0-1.43-0.79-2.54-2.22-2.86c-4.93-1.1-10.64-1.75-16.68-1.75c-25.55,0-35.88,11.59-35.88,40.01 c0,28.42,10.32,40.01,35.88,40.01c6.19,0,11.75-0.64,16.68-1.75c1.43-0.32,2.22-1.43,2.22-2.86v-10c0-2.06-1.27-2.54-3.01-2.38 c-5.24,0.63-8.58,0.95-12.55,0.95c-15.56,0-20.32-4.45-20.32-23.97C431.89,137.32,436.81,132.87,452.05,132.87z"/>
</svg>
