<?xml version="1.0" encoding="utf-8"?>
<!DOCTYPE svg PUBLIC "-//W3C//DTD SVG 1.1//EN" "http://www.w3.org/Graphics/SVG/1.1/DTD/svg11.dtd">
<svg version="1.1" xmlns="http://www.w3.org/2000/svg" xmlns:xlink="http://www.w3.org/1999/xlink" width="841.89px" height="331px">
<path fill="#3E484F" d="M301.71,89.65h28.46v27.98h-28.46V89.65z M301.95,129.73h27.98v127.11h-27.98V129.73z"/>
<polygon fill="#3E484F" points="420.06,89.65 399.52,150.79 378.98,89.65 350.09,89.65 350.09,256.84 378.03,256.84 378.03,155.81 398.1,215.57 400.95,215.57 421.02,155.81 421.02,256.84 448.96,256.84 448.96,89.65 "/>
<path fill="#3E484F" d="M468.88,89.65h28.46v27.98h-28.46V89.65z M469.12,129.73h27.98v127.11h-27.98V129.73z"/>
<path fill="#3E484F" d="M516.54,129.73h27.98v15.18c4.98-9.72,11.38-17.55,22.53-17.55c16.12,0,24.42,13.75,24.42,33.2v96.28h-27.98 v-89.88c0-9.25-3.56-14.47-9.25-14.47c-5.69,0-9.72,5.22-9.72,14.47v89.88h-27.98V129.73z"/>
<path fill="#3E484F" d="M608.07,198.97v-11.38c0-45.3,11.86-60.24,27.03-60.24c12.33,0,18.02,10.2,22.29,17.79V89.65h27.98v167.18 H657.4v-15.89c-4.03,7.59-9.96,18.26-22.29,18.26C619.93,259.21,608.07,244.74,608.07,198.97 M657.63,197.55v-8.54 c0-22.53-4.03-34.86-11.15-34.86c-7.11,0-10.43,12.33-10.43,34.86v8.54c0,22.76,3.32,34.86,10.43,34.86 C653.6,232.41,657.63,220.32,657.63,197.55"/>
<path fill="#3E484F" d="M700.79,253.28v-27.51c9.49,4.98,17.08,8.06,23.95,8.06c5.93,0,10.2-3.79,10.2-9.49v-0.47 c0-5.46-2.13-9.25-14.23-21.11c-12.81-12.57-21.34-23.95-21.34-40.08v-0.48c0-21.11,14.47-34.39,36.04-34.39 c7.83,0,13.75,0.95,20.87,3.32v27.51c-6.17-3.32-12.8-5.45-19.21-5.45c-6.4,0-10.43,3.56-10.43,8.3v0.47 c0,4.74,2.13,8.06,15.18,20.87c15.65,15.18,20.39,25.38,20.39,39.84v0.48c0,22.05-15.41,36.04-35.57,36.04 C718.33,259.21,708.85,256.84,700.79,253.28"/>

<polygon clip-path="url(#2)" fill="url(#3)" points="69.97,92.98 195.33,57.4 216.2,130.94 90.83,166.52 	"/>
<clipPath id="2"><path id="1" d="M81.68,134.26l122.79-34.32l0.01,0c-11.77-6.39-24.62-10.25-38.95-10.26c-0.54,0-1.09,0-1.63-0.01 c-0.54-0.01-1.09-0.01-1.63-0.01l-80.59-0.01V134.26z"/></clipPath>
<linearGradient id="3" gradientUnits="userSpaceOnUse" x1="0" y1="330.8174" x2="1" y2="330.8174" gradientTransform="matrix(86.3915 -24.5165 -24.5165 -86.3915 8187.9019 28710.2754)">
  <stop offset="0" style="stop-color:#E75E90"/>
  <stop offset="0.294" style="stop-color:#E75E90"/>
  <stop offset="0.9234" style="stop-color:#E20177"/>
  <stop offset="1" style="stop-color:#E20177"/>
</linearGradient>

<polygon clip-path="url(#5)" fill="url(#6)" points="105.83,232.29 105.86,232.27 105.88,232.3 105.85,232.31 	"/>
<clipPath id="5"><path id="4" d="M105.86,232.3L105.86,232.3c-0.01-0.01-0.01-0.01-0.02-0.02C105.85,232.29,105.86,232.3,105.86,232.3"/></clipPath>
<linearGradient id="6" gradientUnits="userSpaceOnUse" x1="0" y1="331" x2="1" y2="331" gradientTransform="matrix(17.3095 -14.391 -14.391 -17.3095 4845.3569 5981.6362)">
  <stop offset="0" style="stop-color:#F1A9BE"/>
  <stop offset="0.294" style="stop-color:#F1A9BE"/>
  <stop offset="1" style="stop-color:#E86392"/>
</linearGradient>

<polygon clip-path="url(#8)" fill="url(#9)" points="21.01,158.11 165.71,37.8 284.67,180.89 139.97,301.19 	"/>
<clipPath id="8"><path id="7" d="M82.35,184.41c0.02,0.14,0.04,0.29,0.06,0.43c2.46,18.03,11.06,34.57,23.07,47.04l117.76-118.2 c0.03,0.03,0.06,0.06,0.09,0.09l0,0c-2.31-2.27-4.82-4.48-7.39-6.47c-0.08-0.06-0.16-0.13-0.24-0.19L82.35,184.41z"/></clipPath>
<linearGradient id="9" gradientUnits="userSpaceOnUse" x1="0" y1="330.957" x2="1" y2="330.957" gradientTransform="matrix(141.0601 -117.2767 -117.2767 -141.0601 38870.9062 46933.6289)">
  <stop offset="0" style="stop-color:#EE95B0"/>
  <stop offset="0.294" style="stop-color:#EE95B0"/>
  <stop offset="0.884" style="stop-color:#E75E90"/>
  <stop offset="0.9847" style="stop-color:#E6548B"/>
</linearGradient>

<polygon clip-path="url(#11)" fill="url(#12)" points="105.27,232.13 105.61,231.7 106.04,232.04 105.69,232.47 	"/>
<clipPath id="11"><path id="10" d="M105.46,231.91c0.13,0.13,0.26,0.25,0.38,0.38c-0.12-0.13-0.24-0.26-0.37-0.39L105.46,231.91z"/></clipPath>
<linearGradient id="12" gradientUnits="userSpaceOnUse" x1="0" y1="331" x2="1" y2="331" gradientTransform="matrix(95.7207 -119.0672 -119.0672 -95.7207 39517.7734 31914.5508)">
  <stop offset="0" style="stop-color:#F4BDCC"/>
  <stop offset="0.294" style="stop-color:#F4BDCC"/>
  <stop offset="1" style="stop-color:#EC82A4"/>
</linearGradient>

<polygon clip-path="url(#14)" fill="url(#15)" points="35.94,200.18 154.33,52.91 299.47,169.59 181.07,316.86 	"/>
<clipPath id="14"><path id="13" d="M105.48,231.88c0.12,0.13,0.24,0.26,0.37,0.39c0.01,0.01,0.01,0.01,0.02,0.02 c12.28,12.4,28.52,21.02,46.53,23.79l0.01-0.01c-0.04-0.01-0.08-0.01-0.11-0.01l77.64-134.96c-2.03-2.54-4.29-5.04-6.61-7.33 c-0.03-0.03-0.06-0.06-0.09-0.09L105.48,231.88z"/></clipPath>
<linearGradient id="15" gradientUnits="userSpaceOnUse" x1="0" y1="331.0498" x2="1" y2="331.0498" gradientTransform="matrix(85.2563 -106.0505 -106.0505 -85.2563 35228.8789 28467.3359)">
  <stop offset="0" style="stop-color:#F1A9BE"/>
  <stop offset="0.1905" style="stop-color:#F1A9BE"/>
  <stop offset="0.8461" style="stop-color:#EA7A9F"/>
  <stop offset="0.9592" style="stop-color:#E86794"/>
</linearGradient>

<polygon clip-path="url(#17)" fill="url(#18)" points="237.19,132 237.25,131.86 237.36,131.9 237.3,132.04 	"/>
<clipPath id="17"><path id="16" d="M237.31,132.02L237.31,132.02c-0.02-0.05-0.05-0.09-0.07-0.13C237.26,131.93,237.29,131.97,237.31,132.02" /></clipPath>
<linearGradient id="18" gradientUnits="userSpaceOnUse" x1="0" y1="331" x2="1" y2="331" gradientTransform="matrix(53.697 -128.0167 -128.0167 -53.697 42557.8398 18031.9473)">
  <stop offset="0" style="stop-color:#F8D2DB"/>
  <stop offset="0.294" style="stop-color:#F8D2DB"/>
  <stop offset="1" style="stop-color:#F09FB7"/>
</linearGradient>

<polygon clip-path="url(#20)" fill="url(#21)" points="103.87,236.55 164.99,90.85 285.55,141.42 224.43,287.12 	"/>
<clipPath id="20"><path id="19" d="M152.29,256.06c0.04,0.01,0.07,0.01,0.11,0.01c4.12,0.61,8.32,0.78,12.62,0.77c1.09,0.01,37.57,0,38.8,0 l33.29-125.17c-2.14-3.68-4.54-7.28-7.19-10.58L152.29,256.06z"/></clipPath>
<linearGradient id="21" gradientUnits="userSpaceOnUse" x1="0" y1="331.0781" x2="1" y2="331.0781" gradientTransform="matrix(53.7383 -128.1152 -128.1152 -53.7383 42584.4961 18043.1211)">
  <stop offset="0" style="stop-color:#F6C8D4"/>
  <stop offset="0.5892" style="stop-color:#F09FB7"/>
  <stop offset="0.9745" style="stop-color:#EB7CA0"/>
</linearGradient>

<polygon clip-path="url(#23)" fill="url(#24)" points="237.09,131.88 237.13,131.66 237.27,131.69 237.23,131.9 	"/>
<clipPath id="23"><path id="22" d="M237.12,131.69c0.04,0.06,0.08,0.13,0.11,0.19c-0.04-0.07-0.07-0.14-0.11-0.2L237.12,131.69z"/></clipPath>
<linearGradient id="24" gradientUnits="userSpaceOnUse" x1="0" y1="331" x2="1" y2="331" gradientTransform="matrix(14.7861 -86.3821 -86.3821 -14.7861 28809.9082 5141.144)">
  <stop offset="0" style="stop-color:#FADCE3"/>
  <stop offset="0.294" style="stop-color:#FADCE3"/>
  <stop offset="1" style="stop-color:#F4BDCC"/>
</linearGradient>

<polygon clip-path="url(#26)" fill="url(#27)" points="183.01,253.29 205.09,124.33 268.88,135.25 246.8,264.21 	"/>
<clipPath id="26"><path id="25" d="M203.83,256.85h0.06h44.17v-83.54c0-14.96-3.87-29.15-10.75-41.31c-0.02-0.04-0.05-0.09-0.07-0.13 c-0.04-0.06-0.08-0.13-0.11-0.19L203.83,256.85z"/></clipPath>
<linearGradient id="27" gradientUnits="userSpaceOnUse" x1="0" y1="331.0869" x2="1" y2="331.0869" gradientTransform="matrix(20.4163 -119.2739 -119.2739 -20.4163 39704.9688 7018.1538)">
  <stop offset="0" style="stop-color:#FADCE3"/>
  <stop offset="0.0595" style="stop-color:#FADCE3"/>
  <stop offset="0.606" style="stop-color:#F3B7C8"/>
  <stop offset="0.9745" style="stop-color:#EE91AE"/>
</linearGradient>

<polygon clip-path="url(#29)" fill="url(#30)" points="56.31,108.36 202.64,59.81 241.33,176.42 95,224.98 	"/>
<clipPath id="29"><path id="28" d="M81.68,134.26l0,38.87c0,3.53,0.26,8.14,0.72,11.71l0.07-0.04c-0.02-0.14-0.05-0.29-0.07-0.43 l133.29-77.26c0.08,0.06,0.16,0.13,0.24,0.19l0.02-0.01c-3.43-2.63-7.63-5.24-11.48-7.35L81.68,134.26z"/></clipPath>
<linearGradient id="30" gradientUnits="userSpaceOnUse" x1="0" y1="330.9688" x2="1" y2="330.9688" gradientTransform="matrix(149.8366 -49.7148 -49.7148 -149.8366 16522.3516 49760.5508)">
  <stop offset="0" style="stop-color:#EC82A4"/>
  <stop offset="0.0478" style="stop-color:#EC82A4"/>
  <stop offset="0.7708" style="stop-color:#E43A81"/>
  <stop offset="1" style="stop-color:#E3277C"/>
</linearGradient>
</svg>
