<?xml version="1.0" encoding="utf-8"?>
<!DOCTYPE svg PUBLIC "-//W3C//DTD SVG 1.1//EN" "http://www.w3.org/Graphics/SVG/1.1/DTD/svg11.dtd">
<svg version="1.1" xmlns="http://www.w3.org/2000/svg" width="141.732px" height="102.81px">
<path fill="#1A4175" d="M59.867,102.037h9.957v-2.096h-7.649v-6.949h7.427v-2.098h-7.427V85.75h7.649v-2.094h-9.957V102.037z M88.644,77.281c-2.001,0-3.623-1.462-3.592-3.477l-2.355,0.477c0.412,2.957,2.743,5.151,5.741,5.151 c3.322,0,5.938-2.392,5.938-5.732c0-3.072-1.971-4.513-4.603-5.538l-1.335-0.513c-1.145-0.438-2.577-1.198-2.577-2.628 c0-1.615,1.622-2.612,3.093-2.612c1.406,0,2.29,0.581,2.984,1.73l1.841-1.094c-1.011-1.788-2.708-2.785-4.768-2.785 c-2.806,0-5.466,1.779-5.466,4.761c0,2.563,1.922,3.752,4.035,4.654l1.277,0.537c1.605,0.664,3.199,1.518,3.199,3.488 C92.056,75.629,90.628,77.281,88.644,77.281 M42.384,60.646h-2.542l8.066,19.374l8.044-19.374h-2.535l-5.509,13.618L42.384,60.646z M67.49,62.745v-2.098h-9.966v18.397h9.966v-2.1h-7.656v-6.956h7.436v-2.093h-7.436v-5.149H67.49z M50.225,94.873h4.799 c-0.106,2.996-3.203,5.466-6.071,5.466c-4.021,0-7.219-3.66-7.219-7.513c0-4.127,3.244-7.463,7.408-7.463 c2.261,0,4.489,1.189,5.83,2.991l1.62-1.536c-1.819-2.269-4.669-3.551-7.547-3.551c-5.34,0-9.617,4.331-9.617,9.623 c0,5.096,4.186,9.54,9.374,9.54c5.189,0,8.771-3.875,8.771-8.929v-0.729h-7.347V94.873z M36.002,79.043h2.314V60.645h-2.314V79.043z M113.821,79.043h9.961v-2.1h-7.647v-6.956h7.432v-2.093h-7.432v-5.149h7.647v-2.098h-9.961V79.043z M126.562,79.043h2.309V60.645 h-2.309V79.043z M130.62,60.646v2.098h4.402v16.299h2.315V62.745h4.397v-2.098H130.62z M72.648,71.26h0.958l5.466,7.784h2.808 l-5.857-8.003c2.679-0.31,4.451-2.508,4.451-5.154c0-1.747-0.888-3.477-2.438-4.386c-1.48-0.823-3.241-0.854-4.886-0.854h-2.801 v18.397h2.299V71.26z M72.648,62.699h0.622c2.281,0,5.029,0.412,5.029,3.294c0,2.926-2.549,3.368-4.902,3.368h-0.75V62.699z M99.142,60.646h-2.316v18.399h2.316V60.646z M86.382,97.239L72.449,82.768v19.269h2.311V88.329l13.935,14.474V83.656h-2.313V97.239 z M100.89,62.745h4.393v16.299h2.316V62.745H112v-2.098h-11.11V62.745z M90.263,85.75h4.393v16.287h2.316V85.75h4.409v-2.094H90.263 V85.75z M73.407,23.686l-1.016,24.99h5.533l-1.004-24.99H73.407z M53.379,23.686l-1.006,24.99h5.54l-1.015-24.99H53.379z M104.191,53.051H35.929v1.782h68.262V53.051z M104.244,15.66l0.673-1.634L70.173-0.008L35.098,14.053l0.782,1.616L70.173,1.906 L104.244,15.66z M37.963,51.652h64.206v-1.784H37.963V51.652z M11.263,71.507c0,3.002-0.902,5.774-4.479,5.774 c-3.558,0-4.474-2.771-4.474-5.774V60.646H0.002v11.64c0,4.043,2.539,7.146,6.781,7.146c4.262,0,6.796-3.102,6.796-7.146v-11.64 h-2.317V71.507z M30.469,74.237L16.548,59.774v19.269h2.323V65.331l13.917,14.476V60.646h-2.319V74.237z M43.332,23.686 l-1.015,24.99h5.539l-1.01-24.99H43.332z M102.171,20.655H37.966v1.783h64.206V20.655z M63.354,23.686l-1.026,24.99h5.533 l-1.004-24.99H63.354z M39.473,15.859h61.213L70.173,3.549L39.473,15.859z M104.191,17.362H35.929v1.776h68.262V17.362z M93.428,23.686l-1.022,24.99h5.542l-1.02-24.99H93.428z M83.416,23.686l-1.02,24.99h5.538l-1.013-24.99H83.416z"/>
</svg>
