<?xml version="1.0" encoding="utf-8"?>
<!DOCTYPE svg PUBLIC "-//W3C//DTD SVG 1.1//EN" "http://www.w3.org/Graphics/SVG/1.1/DTD/svg11.dtd">
<svg version="1.1" xmlns="http://www.w3.org/2000/svg" width="107" height="86">
<path fill="#1E64C8" d="M32.51,33.5v-8.1h-1.25v8.1H32.51z M30.02,33.5v-8.1h-1.25v8.1H30.02z M27.52,33.5v-8.1h-1.25v8.1H27.52z M23.78,33.5h1.25v-8.1h-1.25V33.5z M35.01,33.5v-8.1h-1.25v8.1H35.01z M37.5,33.5v-8.1h-1.25v8.1H37.5z M40,33.5v-8.1h-1.25v8.1 H40z M22.51,36h18.77v-1.25H22.51V36z M41.24,22.91H22.54l1.25,1.25H40L41.24,22.91z M42.52,37.25H21.26v1.25h21.26V37.25z M42.52,22.22V20.9l-10.63-3.76L21.26,20.9v1.33l10.63-3.76L42.52,22.22z M28.89,48.3h2.69v4h1.25v-8.82h-1.25v3.76h-2.69v-3.76 h-1.25v8.82h1.25V48.3z M59.15,60.24l-0.71-0.61c-0.59-0.5-0.95-0.87-0.95-1.6c0-0.86,0.56-1.2,1.42-1.2 c0.55,0,1.07,0.18,1.31,0.37v-1.12c-0.24-0.15-0.82-0.31-1.42-0.31c-1.66,0-2.57,0.94-2.57,2.31c0,1.14,0.48,1.69,1.26,2.36 l0.71,0.61c0.59,0.49,0.95,0.87,0.95,1.6c0,0.86-0.57,1.2-1.42,1.2c-0.65,0-1.18-0.18-1.49-0.39v1.14 c0.27,0.16,0.84,0.32,1.6,0.32c1.65,0,2.56-0.94,2.57-2.31C60.41,61.46,59.93,60.91,59.15,60.24z M54.83,58.53 c0-1.99-1.17-2.61-2.79-2.61H50v8.82h1.25v-3.6h0.84l1.66,3.6h1.42l-1.87-3.83C54.15,60.6,54.83,59.92,54.83,58.53z M51.91,60.09 h-0.67v-3.11h0.67c0.98,0,1.63,0.2,1.63,1.55C53.54,59.88,52.89,60.09,51.91,60.09z M25.22,62.14c0,1.3-0.45,1.68-1.36,1.68 c-0.91,0-1.36-0.38-1.36-1.68v-6.21h-1.25v6.16c0,2.04,0.81,2.82,2.6,2.82c1.76,0,2.61-0.81,2.61-2.82v-6.16h-1.25V62.14z M32.12,60.6c0,0.79,0.08,1.63,0.18,2.35l-2.78-7.03h-1.44v8.82h1.19v-4.68c0-0.8-0.09-1.66-0.2-2.37l2.81,7.05h1.44v-8.82h-1.19 V60.6z M35.09,64.74h1.25v-8.82h-1.25V64.74z M40.91,60.51c-0.19,0.69-0.39,1.86-0.52,2.78c-0.12-0.92-0.33-2.09-0.49-2.78 l-1.11-4.58h-1.3l2.24,8.82h1.3l2.24-8.82h-1.26L40.91,60.51z M44.43,64.74h4.12v-1.06h-2.88v-2.96H48v-1.04h-2.32v-2.7h2.88 v-1.06h-4.12V64.74z M61.89,64.74h1.25v-8.82h-1.25V64.74z M23.96,52.46c0.91,0,1.94-0.29,2.2-0.45v-4.76h-2.55v1.06h1.3v2.94 c-0.24,0.07-0.57,0.12-0.96,0.12c-1.27,0-1.67-0.6-1.67-3.49c0-2.92,0.56-3.46,2.02-3.46c0.6,0,1.22,0.2,1.55,0.39v-1.15 c-0.3-0.18-0.99-0.35-1.64-0.35c-2.29,0-3.22,1.1-3.22,4.57C20.99,51.21,21.57,52.46,23.96,52.46z M38.72,51.24h-2.88v-2.96h2.32 v-1.04h-2.32v-2.7h2.88v-1.06H34.6v8.82h4.12V51.24z M45.4,43.48H44.2v4.68c0,0.79,0.08,1.63,0.18,2.35l-2.78-7.03h-1.44v8.82 h1.19v-4.68c0-0.8-0.1-1.66-0.2-2.37l2.81,7.05h1.44V43.48z M51.6,43.48h-5.06v1.06h1.9v7.76h1.25v-7.76h1.91V43.48z M74.61,55.92 l-1.04,2.37c-0.24,0.57-0.49,1.18-0.65,1.72c-0.15-0.54-0.38-1.15-0.62-1.72l-1.04-2.37h-1.37l2.41,5.16v3.66h1.25v-3.66l2.4-5.16 H74.61z M64.32,56.98h1.9v7.76h1.25v-7.76h1.91v-1.06h-5.06V56.98z"/>
</svg>
